<svg width="440" height="408" viewBox="0 0 440 408" fill="none" xmlns="http://www.w3.org/2000/svg">
<path d="M207.802 407.692H5.96827C4.38538 407.692 2.86733 407.063 1.74807 405.944C0.628798 404.825 0 403.307 0 401.724V5.91601C0.0137817 4.3422 0.648658 2.83754 1.76643 1.72955C2.88421 0.621559 4.3944 -6.03369e-05 5.96827 4.39263e-09H207.802C208.586 4.39264e-09 209.362 0.154372 210.086 0.454306C210.81 0.75424 211.468 1.19386 212.023 1.74807C212.577 2.30227 213.016 2.96021 213.316 3.68431C213.616 4.40842 213.771 5.1845 213.771 5.96827V401.724C213.771 402.508 213.616 403.284 213.316 404.008C213.016 404.732 212.577 405.39 212.023 405.944C211.468 406.498 210.81 406.938 210.086 407.238C209.362 407.538 208.586 407.692 207.802 407.692ZM5.96827 0.209047C4.45554 0.21181 3.00555 0.813963 1.93589 1.88363C0.866224 2.95329 0.264071 4.40327 0.261308 5.91601V401.724C0.264071 403.237 0.866224 404.687 1.93589 405.756C3.00555 406.826 4.45554 407.428 5.96827 407.431H207.802C209.315 407.428 210.765 406.826 211.835 405.756C212.904 404.687 213.507 403.237 213.509 401.724V5.91601C213.507 4.40327 212.904 2.95329 211.835 1.88363C210.765 0.813963 209.315 0.21181 207.802 0.209047H5.96827Z" fill="#EBEBEB"/>
<path d="M433.886 407.692H232.052C230.469 407.692 228.951 407.063 227.832 405.944C226.713 404.825 226.084 403.307 226.084 401.724V5.91601C226.098 4.3422 226.733 2.83754 227.85 1.72955C228.968 0.621559 230.478 -6.03369e-05 232.052 4.39263e-09H433.886C435.469 4.39265e-09 436.987 0.628798 438.107 1.74807C439.226 2.86733 439.855 4.38538 439.855 5.96827V401.724C439.855 402.508 439.7 403.284 439.4 404.008C439.1 404.732 438.661 405.39 438.107 405.944C437.552 406.498 436.894 406.938 436.17 407.238C435.446 407.538 434.67 407.692 433.886 407.692ZM232.052 0.209047C230.54 0.21181 229.09 0.813963 228.02 1.88363C226.95 2.95329 226.348 4.40327 226.345 5.91601V401.724C226.348 403.237 226.95 404.687 228.02 405.756C229.09 406.826 230.54 407.428 232.052 407.431H433.886C435.399 407.428 436.849 406.826 437.919 405.756C438.988 404.687 439.591 403.237 439.593 401.724V5.91601C439.591 4.40327 438.988 2.95329 437.919 1.88363C436.849 0.813963 435.399 0.21181 433.886 0.209047H232.052Z" fill="#EBEBEB"/>
<path d="M76.783 118.373L78.4762 121.79L82.26 122.344L79.5215 125.01L80.1695 128.773L76.783 126.996L73.4069 128.773L74.0549 125.01L71.3164 122.344L75.1001 121.79L76.783 118.373Z" fill="#EBEBEB"/>
<path d="M415.07 279.578L416.763 283.007L420.547 283.561L417.809 286.216L418.457 289.989L415.07 288.212L411.694 289.989L412.342 286.216L409.604 283.561L413.387 283.007L415.07 279.578Z" fill="#F5F5F5"/>
<path d="M348.072 378.969L349.765 382.387L353.539 382.941L350.8 385.606L351.448 389.369L348.072 387.592L344.696 389.369L345.334 385.606L342.605 382.941L346.379 382.387L348.072 378.969Z" fill="#F5F5F5"/>
<path d="M194.779 57.6445L195.406 58.9197L196.818 59.1287C196.896 59.139 196.97 59.1715 197.031 59.2225C197.092 59.2734 197.138 59.3406 197.162 59.4163C197.186 59.4919 197.188 59.5729 197.168 59.6497C197.147 59.7265 197.106 59.796 197.047 59.8499L196.002 60.8429L196.243 62.2435C196.255 62.3215 196.246 62.4013 196.215 62.4743C196.185 62.5472 196.136 62.6104 196.072 62.6569C196.008 62.7034 195.933 62.7313 195.854 62.7377C195.775 62.7441 195.696 62.7286 195.626 62.693L194.372 62.024L193.117 62.693C193.047 62.7286 192.968 62.7441 192.889 62.7377C192.811 62.7313 192.735 62.7034 192.672 62.6569C192.608 62.6104 192.558 62.5472 192.528 62.4743C192.498 62.4013 192.488 62.3215 192.501 62.2435L192.731 60.8429L191.685 59.8499C191.627 59.7953 191.585 59.725 191.566 59.6474C191.546 59.5698 191.549 59.4881 191.574 59.4122C191.6 59.3362 191.646 59.2691 191.708 59.2189C191.771 59.1686 191.846 59.1373 191.926 59.1287L193.326 58.9197L193.954 57.6445C193.979 57.5543 194.033 57.4748 194.107 57.4181C194.182 57.3615 194.273 57.3308 194.366 57.3308C194.46 57.3308 194.551 57.3615 194.626 57.4181C194.7 57.4748 194.754 57.5543 194.779 57.6445Z" fill="#EBEBEB"/>
<path d="M22.1481 362.695L22.7752 363.96L24.1758 364.169C24.2554 364.18 24.3302 364.213 24.3918 364.264C24.4535 364.316 24.4994 364.384 24.5245 364.46C24.5496 364.536 24.5527 364.618 24.5335 364.696C24.5144 364.774 24.4738 364.845 24.4162 364.901L23.371 365.883L23.6114 367.284C23.6238 367.362 23.6143 367.442 23.5842 367.515C23.554 367.587 23.5043 367.651 23.4405 367.697C23.3768 367.744 23.3014 367.772 23.2227 367.778C23.1441 367.784 23.0652 367.769 22.9947 367.733L21.7404 367.075L20.4862 367.733C20.4157 367.769 20.3368 367.784 20.2582 367.778C20.1795 367.772 20.1041 367.744 20.0403 367.697C19.9766 367.651 19.9269 367.587 19.8967 367.515C19.8666 367.442 19.8571 367.362 19.8695 367.284L20.1099 365.883L19.0647 364.901C19.0073 364.845 18.9665 364.775 18.9469 364.698C18.9272 364.621 18.9294 364.54 18.9533 364.464C18.9772 364.388 19.0218 364.32 19.0821 364.268C19.1423 364.216 19.216 364.182 19.2946 364.169L20.6952 363.96L21.3328 362.695C21.3607 362.609 21.4152 362.534 21.4885 362.481C21.5617 362.428 21.6499 362.399 21.7404 362.399C21.831 362.399 21.9192 362.428 21.9924 362.481C22.0657 362.534 22.1202 362.609 22.1481 362.695Z" fill="#F5F5F5"/>
<path d="M50.3388 44.2131L50.9659 45.4882L52.377 45.6868C52.4556 45.6994 52.5292 45.7336 52.5895 45.7857C52.6498 45.8377 52.6944 45.9055 52.7183 45.9815C52.7422 46.0575 52.7444 46.1387 52.7247 46.2158C52.7051 46.293 52.6643 46.3632 52.6069 46.4185L51.5617 47.4637L51.8021 48.8539C51.8188 48.9328 51.8123 49.0149 51.7835 49.0902C51.7546 49.1655 51.7045 49.2308 51.6393 49.2783C51.5741 49.3258 51.4966 49.3535 51.4161 49.3579C51.3355 49.3623 51.2554 49.3434 51.1854 49.3033L49.9312 48.6448L48.6769 49.3033C48.6069 49.3434 48.5268 49.3623 48.4462 49.3579C48.3657 49.3535 48.2882 49.3258 48.223 49.2783C48.1578 49.2308 48.1077 49.1655 48.0788 49.0902C48.05 49.0149 48.0435 48.9328 48.0602 48.8539L48.2901 47.4637L47.2449 46.4185C47.1874 46.3625 47.1467 46.2915 47.1276 46.2136C47.1085 46.1356 47.1116 46.0538 47.1366 45.9776C47.1617 45.9013 47.2077 45.8337 47.2693 45.7823C47.331 45.7308 47.4058 45.6978 47.4853 45.6868L48.8859 45.4882L49.5549 44.2131C49.5884 44.1371 49.6434 44.0725 49.7129 44.0272C49.7825 43.9819 49.8638 43.9578 49.9468 43.9578C50.0299 43.9578 50.1111 43.9819 50.1807 44.0272C50.2503 44.0725 50.3052 44.1371 50.3388 44.2131Z" fill="#EBEBEB"/>
<path d="M48.6455 296.135C48.6476 296.41 48.5678 296.68 48.4163 296.91C48.2648 297.14 48.0484 297.32 47.7946 297.426C47.5408 297.533 47.261 297.562 46.9906 297.51C46.7203 297.457 46.4716 297.326 46.2761 297.132C46.0807 296.938 45.9472 296.69 45.8927 296.42C45.8382 296.15 45.8651 295.87 45.97 295.615C46.0749 295.361 46.2531 295.143 46.4819 294.99C46.7108 294.837 46.98 294.755 47.2554 294.755C47.6222 294.755 47.9743 294.9 48.2347 295.158C48.4951 295.417 48.6427 295.768 48.6455 296.135Z" fill="#EBEBEB"/>
<path d="M246.759 122.177C246.761 122.452 246.681 122.722 246.53 122.952C246.378 123.182 246.162 123.362 245.908 123.469C245.654 123.576 245.374 123.605 245.104 123.552C244.834 123.5 244.585 123.368 244.389 123.174C244.194 122.98 244.06 122.733 244.006 122.463C243.952 122.193 243.978 121.913 244.083 121.658C244.188 121.403 244.366 121.186 244.595 121.032C244.824 120.879 245.093 120.797 245.369 120.797C245.551 120.796 245.731 120.831 245.9 120.899C246.068 120.968 246.222 121.07 246.351 121.198C246.48 121.326 246.583 121.479 246.653 121.647C246.723 121.815 246.759 121.995 246.759 122.177Z" fill="#EBEBEB"/>
<path d="M174.679 45.3631C174.679 45.638 174.597 45.9068 174.444 46.1354C174.292 46.364 174.075 46.5422 173.821 46.6474C173.567 46.7526 173.287 46.7801 173.017 46.7265C172.748 46.6729 172.5 46.5405 172.306 46.346C172.111 46.1516 171.979 45.9039 171.925 45.6343C171.872 45.3646 171.899 45.0851 172.004 44.8311C172.109 44.577 172.288 44.3599 172.516 44.2072C172.745 44.0544 173.014 43.9729 173.289 43.9729C173.656 43.9756 174.008 44.123 174.269 44.3831C174.529 44.6432 174.676 44.9952 174.679 45.3631Z" fill="#F5F5F5"/>
<path d="M176.88 384.168C181.009 383.193 183.566 379.055 182.592 374.926C181.617 370.797 177.48 368.239 173.35 369.214C169.221 370.188 166.663 374.326 167.638 378.456C168.612 382.585 172.75 385.142 176.88 384.168Z" fill="#F0F0F0"/>
<path d="M172.474 372.196C170.9 372.193 169.366 372.691 168.094 373.618C167.445 375.108 167.285 376.766 167.639 378.353C167.992 379.939 168.841 381.373 170.062 382.446C171.283 383.519 172.813 384.177 174.432 384.324C176.051 384.471 177.675 384.101 179.069 383.265C179.686 382.123 179.997 380.841 179.969 379.543C179.942 378.245 179.578 376.977 178.913 375.862C178.248 374.748 177.305 373.825 176.176 373.184C175.048 372.543 173.772 372.206 172.474 372.207V372.196Z" fill="#E6E6E6"/>
<path d="M112.979 243.162H49.377V214.45L112.979 138.838H143.416V216.08H159.189V243.162H143.416V266.659H112.979V243.162ZM112.979 216.08V176.529L79.3646 216.08H112.979Z" fill="#407BFF"/>
<path d="M170.068 203.308C170.068 179.414 174.368 162.69 182.966 153.137C191.565 143.583 204.669 138.81 222.278 138.817C230.73 138.817 237.674 139.862 243.109 141.953C248.047 143.732 252.568 146.503 256.394 150.095C259.619 153.174 262.351 156.731 264.494 160.642C266.615 164.724 268.213 169.058 269.25 173.54C271.613 183.115 272.793 192.944 272.762 202.806C272.762 225.606 268.905 242.292 261.192 252.862C253.478 263.433 240.193 268.722 221.337 268.729C210.759 268.729 202.213 267.043 195.697 263.67C189.13 260.243 183.598 255.122 179.674 248.838C176.643 244.211 174.284 237.881 172.598 229.846C170.847 221.11 170 212.217 170.068 203.308ZM204.707 203.392C204.707 219.418 206.118 230.348 208.94 236.18C211.763 242.013 215.863 244.943 221.243 244.971C222.95 244.99 224.644 244.67 226.226 244.029C227.809 243.389 229.249 242.44 230.462 241.239C233.068 238.752 234.984 234.822 236.211 229.449C237.437 224.077 238.05 215.715 238.05 204.364C238.05 187.682 236.636 176.466 233.806 170.718C230.977 164.969 226.734 162.098 221.076 162.105C215.306 162.105 211.125 165.035 208.533 170.895C205.941 176.756 204.665 187.588 204.707 203.392Z" fill="#407BFF"/>
<path d="M347.175 243.162H283.572V214.45L347.175 138.838H377.612V216.08H393.436V243.162H377.612V266.659H347.175V243.162ZM347.175 216.08V176.529L313.57 216.08H347.175Z" fill="#407BFF"/>
<g opacity="0.3">
<path opacity="0.3" d="M168.71 94.719C168.71 95.106 168.595 95.4843 168.38 95.806C168.165 96.1276 167.859 96.3782 167.501 96.5258C167.143 96.6734 166.75 96.7115 166.37 96.6352C165.991 96.559 165.642 96.3718 165.37 96.0974C165.097 95.823 164.911 95.4737 164.837 95.0939C164.763 94.7141 164.803 94.3207 164.953 93.9638C165.102 93.6068 165.354 93.3022 165.677 93.0887C166 92.8752 166.379 92.7624 166.766 92.7644C167.022 92.7644 167.276 92.8151 167.512 92.9134C167.749 93.0118 167.964 93.1559 168.144 93.3375C168.325 93.5192 168.468 93.7347 168.565 93.9718C168.662 94.2089 168.711 94.4628 168.71 94.719Z" fill="#407BFF"/>
<path opacity="0.3" d="M34.8895 169.798C35.6515 169.798 36.2692 169.18 36.2692 168.418C36.2692 167.656 35.6515 167.038 34.8895 167.038C34.1275 167.038 33.5098 167.656 33.5098 168.418C33.5098 169.18 34.1275 169.798 34.8895 169.798Z" fill="#407BFF"/>
<path opacity="0.3" d="M262.833 371.287C263.924 371.287 264.808 370.403 264.808 369.312C264.808 368.221 263.924 367.336 262.833 367.336C261.742 367.336 260.857 368.221 260.857 369.312C260.857 370.403 261.742 371.287 262.833 371.287Z" fill="#407BFF"/>
<path opacity="0.3" d="M310.339 290.909C311.101 290.909 311.718 290.291 311.718 289.529C311.718 288.767 311.101 288.149 310.339 288.149C309.577 288.149 308.959 288.767 308.959 289.529C308.959 290.291 309.577 290.909 310.339 290.909Z" fill="#407BFF"/>
<path opacity="0.3" d="M401.974 42.4573C401.974 42.7302 401.893 42.997 401.742 43.2239C401.59 43.4508 401.375 43.6276 401.123 43.732C400.87 43.8364 400.593 43.8638 400.325 43.8105C400.058 43.7573 399.812 43.6259 399.619 43.4329C399.426 43.24 399.295 42.9941 399.241 42.7265C399.188 42.4589 399.215 42.1815 399.32 41.9294C399.424 41.6772 399.601 41.4618 399.828 41.3102C400.055 41.1586 400.322 41.0776 400.595 41.0776C400.96 41.0776 401.311 41.223 401.57 41.4817C401.829 41.7405 401.974 42.0914 401.974 42.4573Z" fill="#407BFF"/>
<path opacity="0.3" d="M139.183 14.6334C139.183 14.9062 139.102 15.173 138.951 15.3999C138.799 15.6268 138.584 15.8036 138.332 15.908C138.079 16.0125 137.802 16.0398 137.534 15.9866C137.267 15.9333 137.021 15.8019 136.828 15.609C136.635 15.416 136.504 15.1702 136.45 14.9025C136.397 14.6349 136.424 14.3575 136.529 14.1054C136.633 13.8533 136.81 13.6378 137.037 13.4862C137.264 13.3346 137.531 13.2537 137.804 13.2537C138.169 13.2564 138.518 13.4026 138.776 13.6608C139.034 13.9189 139.181 14.2683 139.183 14.6334Z" fill="#407BFF"/>
<path opacity="0.3" d="M248.878 87.026C249.64 87.026 250.257 86.4083 250.257 85.6463C250.257 84.8843 249.64 84.2666 248.878 84.2666C248.116 84.2666 247.498 84.8843 247.498 85.6463C247.498 86.4083 248.116 87.026 248.878 87.026Z" fill="#407BFF"/>
</g>
<path d="M106.237 87.0366C118.885 87.0366 129.138 76.7835 129.138 64.1356C129.138 51.4878 118.885 41.2346 106.237 41.2346C93.5891 41.2346 83.3359 51.4878 83.3359 64.1356C83.3359 76.7835 93.5891 87.0366 106.237 87.0366Z" fill="#407BFF"/>
<path opacity="0.7" d="M106.237 87.0366C118.885 87.0366 129.138 76.7835 129.138 64.1356C129.138 51.4878 118.885 41.2346 106.237 41.2346C93.5891 41.2346 83.3359 51.4878 83.3359 64.1356C83.3359 76.7835 93.5891 87.0366 106.237 87.0366Z" fill="white"/>
<path opacity="0.2" d="M98.346 46.8578C95.2272 46.8482 92.1395 47.4778 89.2734 48.7078C85.751 52.5793 83.6603 57.54 83.3491 62.7649C83.038 67.9897 84.5252 73.1635 87.5633 77.4256C90.6013 81.6878 95.0072 84.7812 100.048 86.1912C105.088 87.6013 110.46 87.243 115.268 85.1759C118.25 81.8904 120.213 77.8099 120.92 73.43C121.627 69.0501 121.047 64.5592 119.25 60.5026C117.454 56.446 114.518 52.9982 110.8 50.5779C107.082 48.1576 102.741 46.8688 98.3042 46.8682L98.346 46.8578Z" fill="#407BFF"/>
<path opacity="0.2" d="M96.0676 52.9098C96.0676 53.3233 95.945 53.7274 95.7153 54.0712C95.4856 54.415 95.1591 54.6829 94.7772 54.8411C94.3952 54.9994 93.9749 55.0408 93.5693 54.9601C93.1638 54.8794 92.7914 54.6803 92.499 54.388C92.2066 54.0956 92.0075 53.7231 91.9269 53.3176C91.8462 52.9121 91.8876 52.4918 92.0458 52.1098C92.2041 51.7278 92.472 51.4013 92.8158 51.1716C93.1596 50.9419 93.5637 50.8193 93.9772 50.8193C94.5316 50.8193 95.0633 51.0396 95.4554 51.4316C95.8474 51.8237 96.0676 52.3554 96.0676 52.9098Z" fill="#407BFF"/>
<path opacity="0.2" d="M120.693 50.8192C120.693 51.2327 120.57 51.6368 120.34 51.9806C120.111 52.3244 119.784 52.5923 119.402 52.7506C119.02 52.9088 118.6 52.9502 118.194 52.8695C117.789 52.7889 117.416 52.5898 117.124 52.2974C116.832 52.005 116.633 51.6326 116.552 51.227C116.471 50.8215 116.513 50.4012 116.671 50.0192C116.829 49.6372 117.097 49.3108 117.441 49.0811C117.785 48.8514 118.189 48.7288 118.602 48.7288C119.157 48.7288 119.688 48.949 120.08 49.341C120.472 49.7331 120.693 50.2648 120.693 50.8192Z" fill="#407BFF"/>
<path opacity="0.2" d="M116.511 65.745C116.511 66.4231 116.31 67.0859 115.933 67.6497C115.557 68.2135 115.021 68.6529 114.395 68.9124C113.768 69.1719 113.079 69.2398 112.414 69.1075C111.749 68.9752 111.138 68.6487 110.658 68.1692C110.179 67.6898 109.852 67.0789 109.72 66.4138C109.588 65.7488 109.656 65.0595 109.915 64.433C110.175 63.8066 110.614 63.2711 111.178 62.8944C111.742 62.5177 112.405 62.3167 113.083 62.3167C113.992 62.3167 114.864 62.6778 115.507 63.3208C116.15 63.9637 116.511 64.8357 116.511 65.745Z" fill="#407BFF"/>
<path opacity="0.2" d="M105.621 75.518C105.621 76.4235 105.353 77.3086 104.85 78.0615C104.346 78.8144 103.631 79.4012 102.795 79.7477C101.958 80.0942 101.038 80.1848 100.15 80.0082C99.2617 79.8315 98.446 79.3955 97.8057 78.7553C97.1655 78.115 96.7295 77.2993 96.5528 76.4112C96.3762 75.5231 96.4668 74.6026 96.8133 73.7661C97.1598 72.9295 97.7466 72.2145 98.4995 71.7115C99.2524 71.2084 100.137 70.9399 101.043 70.9399C102.257 70.9399 103.422 71.4223 104.28 72.2808C105.139 73.1394 105.621 74.3039 105.621 75.518Z" fill="#407BFF"/>
<path d="M377.652 340.375C380.202 329.571 373.511 318.746 362.707 316.196C351.903 313.646 341.077 320.337 338.527 331.141C335.977 341.945 342.669 352.771 353.472 355.32C364.276 357.87 375.102 351.179 377.652 340.375Z" fill="#407BFF"/>
<path opacity="0.3" d="M377.652 340.375C380.202 329.571 373.511 318.746 362.707 316.196C351.903 313.646 341.077 320.337 338.527 331.141C335.977 341.945 342.669 352.771 353.472 355.32C364.276 357.87 375.102 351.179 377.652 340.375Z" fill="white"/>
<path opacity="0.4" d="M370.785 320.196C366.329 318.851 361.545 319.095 357.249 320.886C352.953 322.677 349.412 325.905 347.232 330.016C345.051 334.128 344.366 338.87 345.293 343.431C346.221 347.992 348.703 352.089 352.316 355.023C354.189 355.592 356.137 355.881 358.096 355.88C362.245 355.879 366.293 354.594 369.683 352.201C373.073 349.808 375.639 346.424 377.029 342.515C378.42 338.605 378.566 334.361 377.448 330.365C376.33 326.369 374.002 322.817 370.785 320.196Z" fill="#407BFF"/>
<path d="M338.906 341.79C317.448 351.887 333.45 359.674 363.689 348.804C391.691 338.738 402.362 326.049 377.277 329.99C378.625 335.268 343.558 348.929 338.906 341.79Z" fill="#407BFF"/>
<path opacity="0.2" d="M370.545 138.838C342.439 157.83 306.055 182.915 296.01 243.162H293.867C303.64 183.584 338.697 157.903 366.814 138.838H370.545Z" fill="black"/>
<path d="M225.154 327.439C207.385 327.439 189.815 319.423 181.254 306.336C175.976 298.246 169.84 281.303 188.111 258.695L189.731 260.012C176.812 276.004 174.429 292.048 183.01 305.197C193.463 321.189 218.12 329.237 239.17 323.509C260.734 317.646 273.82 298.894 275.085 272.063C279.401 180.281 328.161 152.008 363.762 131.365C385.889 118.54 401.871 109.279 398.359 89.7226C397.868 87.0155 396.791 85.1445 395.046 83.9947C390.499 80.9949 381.615 83.075 371.329 85.4685C351.146 90.1721 323.51 96.6107 307.048 68.609L308.856 67.5637C324.534 94.2485 350.216 88.2593 370.859 83.4512C381.614 80.9531 390.896 78.7895 396.195 82.2701C398.443 83.7439 399.822 86.0748 400.376 89.3777C404.15 110.366 386.788 120.442 364.786 133.194C329.593 153.597 281.408 181.536 277.144 272.209C275.827 300.013 262.176 319.464 239.683 325.579C234.944 326.841 230.058 327.467 225.154 327.439Z" fill="#407BFF"/>
<path opacity="0.2" d="M225.154 327.439C207.385 327.439 189.815 319.423 181.254 306.336C175.976 298.246 169.84 281.303 188.111 258.695L189.731 260.012C176.812 276.004 174.429 292.048 183.01 305.197C193.463 321.189 218.12 329.237 239.17 323.509C260.734 317.646 273.82 298.894 275.085 272.063C279.401 180.281 328.161 152.008 363.762 131.365C385.889 118.54 401.871 109.279 398.359 89.7226C397.868 87.0155 396.791 85.1445 395.046 83.9947C390.499 80.9949 381.615 83.075 371.329 85.4685C351.146 90.1721 323.51 96.6107 307.048 68.609L308.856 67.5637C324.534 94.2485 350.216 88.2593 370.859 83.4512C381.614 80.9531 390.896 78.7895 396.195 82.2701C398.443 83.7439 399.822 86.0748 400.376 89.3777C404.15 110.366 386.788 120.442 364.786 133.194C329.593 153.597 281.408 181.536 277.144 272.209C275.827 300.013 262.176 319.464 239.683 325.579C234.944 326.841 230.058 327.467 225.154 327.439Z" fill="white"/>
<path d="M285.525 43.8997C290.342 43.9274 295.126 44.6779 299.72 46.126C299.72 46.126 311.217 65.745 312.576 70.2395C312.095 74.6713 304.622 81.9356 304.622 81.9356L285.525 43.8997Z" fill="#407BFF"/>
<path opacity="0.3" d="M285.525 43.8997C290.342 43.9274 295.126 44.6779 299.72 46.126C299.72 46.126 311.217 65.745 312.576 70.2395C312.095 74.6713 304.622 81.9356 304.622 81.9356L285.525 43.8997Z" fill="white"/>
<path d="M319.58 139.152C315.153 133.738 311.115 128.016 307.498 122.031C306.62 120.519 305.787 118.979 304.999 117.411C304.55 116.522 304.121 115.634 303.703 114.735C303.155 113.86 302.729 112.914 302.439 111.923C301.184 98.6803 305.721 88.9283 301.393 78.2983L284.168 85.0296C284.168 85.0296 285.631 103.969 288.976 115.341C291.066 122.376 295.749 128.459 300.275 134.093C301.686 135.849 303.045 137.657 304.456 139.423C305.867 141.19 307.288 142.622 308.637 144.284C310.675 146.803 311.344 149.217 309.807 152.186L309.546 152.656C309.107 153.43 311.156 154.308 312.452 152.656C314.542 149.959 314.25 150.127 316.068 147.827C317.176 146.437 318.441 144.921 319.539 143.646C320.068 143.019 320.362 142.227 320.37 141.406C320.377 140.586 320.098 139.788 319.58 139.152Z" fill="#407BFF"/>
<path opacity="0.7" d="M319.58 139.152C315.153 133.738 311.115 128.016 307.498 122.031C306.62 120.519 305.787 118.979 304.999 117.411C304.55 116.522 304.121 115.634 303.703 114.735C303.155 113.86 302.729 112.914 302.439 111.923C301.184 98.6803 305.721 88.9283 301.393 78.2983L284.168 85.0296C284.168 85.0296 285.631 103.969 288.976 115.341C291.066 122.376 295.749 128.459 300.275 134.093C301.686 135.849 303.045 137.657 304.456 139.423C305.867 141.19 307.288 142.622 308.637 144.284C310.675 146.803 311.344 149.217 309.807 152.186L309.546 152.656C309.107 153.43 311.156 154.308 312.452 152.656C314.542 149.959 314.25 150.127 316.068 147.827C317.176 146.437 318.441 144.921 319.539 143.646C320.068 143.019 320.362 142.227 320.37 141.406C320.377 140.586 320.098 139.788 319.58 139.152Z" fill="white"/>
<path opacity="0.3" d="M315.366 133.706C312.633 136.636 309.599 139.27 306.314 141.566C306.764 142.068 307.203 142.611 307.652 143.092C310.941 140.87 313.927 138.232 316.537 135.242L315.366 133.706Z" fill="#407BFF"/>
<path opacity="0.3" d="M319.581 139.151L319.455 139.005C318.651 139.928 318.183 141.096 318.128 142.319C318.061 143.157 318.197 144 318.525 144.775L319.518 143.594C320.037 142.973 320.327 142.193 320.338 141.384C320.35 140.575 320.082 139.786 319.581 139.151Z" fill="#407BFF"/>
<path d="M281.429 56.4424C279.561 59.2385 277.321 61.7669 274.771 63.9576C273.356 65.1767 271.806 66.2289 270.151 67.0933C269.281 67.5389 268.38 67.9197 267.454 68.2326L266.743 68.4625L266.513 68.5252L266.022 68.6611C265.72 68.7329 265.412 68.7818 265.102 68.8075C264.22 68.8749 263.334 68.7936 262.479 68.567C261.401 68.2611 260.367 67.8148 259.406 67.2396C258.632 66.7872 257.882 66.2953 257.158 65.7658C255.852 64.7938 254.602 63.7468 253.417 62.6301C251.13 60.4638 249.032 58.1071 247.145 55.5853C246.782 55.094 246.601 54.4913 246.635 53.8812C246.668 53.271 246.914 52.6917 247.329 52.2433C247.744 51.7948 248.302 51.5052 248.908 51.4246C249.514 51.3439 250.129 51.4773 250.647 51.8015H250.73C253.197 53.3694 255.685 55.0209 258.11 56.4946C259.343 57.2158 260.535 57.9475 261.716 58.5119C262.255 58.7942 262.81 59.0455 263.378 59.2645C263.731 59.4207 264.11 59.5127 264.496 59.5363C264.559 59.5363 264.496 59.4631 264.109 59.4735C263.987 59.4663 263.865 59.4663 263.743 59.4735L263.513 59.5258L263.858 59.3481C264.323 59.0982 264.773 58.8226 265.207 58.5224C266.142 57.863 267.016 57.1214 267.82 56.3065C269.646 54.3929 271.356 52.372 272.941 50.2546C273.81 49.2828 275.01 48.6707 276.307 48.5383C277.604 48.4059 278.903 48.7627 279.95 49.5389C280.997 50.3151 281.716 51.4545 281.967 52.7336C282.217 54.0127 281.98 55.3392 281.303 56.4528L281.429 56.4424Z" fill="#407BFF"/>
<path opacity="0.7" d="M281.429 56.4424C279.561 59.2385 277.321 61.7669 274.771 63.9576C273.356 65.1767 271.806 66.2289 270.151 67.0933C269.281 67.5389 268.38 67.9197 267.454 68.2326L266.743 68.4625L266.513 68.5252L266.022 68.6611C265.72 68.7329 265.412 68.7818 265.102 68.8075C264.22 68.8749 263.334 68.7936 262.479 68.567C261.401 68.2611 260.367 67.8148 259.406 67.2396C258.632 66.7872 257.882 66.2953 257.158 65.7658C255.852 64.7938 254.602 63.7468 253.417 62.6301C251.13 60.4638 249.032 58.1071 247.145 55.5853C246.782 55.094 246.601 54.4913 246.635 53.8812C246.668 53.271 246.914 52.6917 247.329 52.2433C247.744 51.7948 248.302 51.5052 248.908 51.4246C249.514 51.3439 250.129 51.4773 250.647 51.8015H250.73C253.197 53.3694 255.685 55.0209 258.11 56.4946C259.343 57.2158 260.535 57.9475 261.716 58.5119C262.255 58.7942 262.81 59.0455 263.378 59.2645C263.731 59.4207 264.11 59.5127 264.496 59.5363C264.559 59.5363 264.496 59.4631 264.109 59.4735C263.987 59.4663 263.865 59.4663 263.743 59.4735L263.513 59.5258L263.858 59.3481C264.323 59.0982 264.773 58.8226 265.207 58.5224C266.142 57.863 267.016 57.1214 267.82 56.3065C269.646 54.3929 271.356 52.372 272.941 50.2546C273.81 49.2828 275.01 48.6707 276.307 48.5383C277.604 48.4059 278.903 48.7627 279.95 49.5389C280.997 50.3151 281.716 51.4545 281.967 52.7336C282.217 54.0127 281.98 55.3392 281.303 56.4528L281.429 56.4424Z" fill="white"/>
<path d="M243.226 49.565L244.448 51.6555C244.448 51.6555 245.379 54.394 247.25 54.8957L252.33 53.2547L252.068 52.8262C251.42 51.8437 251.493 49.9309 251.713 48.3421C251.932 46.7534 251.117 46.7011 250.511 47.0983C250.081 47.5925 249.78 48.1848 249.633 48.8229C249.384 48.4778 249.107 48.1527 248.807 47.8509L247.26 46.3039C246.936 45.9867 246.503 45.804 246.05 45.7923C245.596 45.7807 245.155 45.9411 244.814 46.2412L243.56 47.3596C243.262 47.6348 243.067 48.003 243.007 48.4037C242.946 48.8045 243.023 49.214 243.226 49.565Z" fill="#407BFF"/>
<path opacity="0.7" d="M243.226 49.565L244.448 51.6555C244.448 51.6555 245.379 54.394 247.25 54.8957L252.33 53.2547L252.068 52.8262C251.42 51.8437 251.493 49.9309 251.713 48.3421C251.932 46.7534 251.117 46.7011 250.511 47.0983C250.081 47.5925 249.78 48.1848 249.633 48.8229C249.384 48.4778 249.107 48.1527 248.807 47.8509L247.26 46.3039C246.936 45.9867 246.503 45.804 246.05 45.7923C245.596 45.7807 245.155 45.9411 244.814 46.2412L243.56 47.3596C243.262 47.6348 243.067 48.003 243.007 48.4037C242.946 48.8045 243.023 49.214 243.226 49.565Z" fill="white"/>
<path d="M290.66 42.0392C285.025 43.5327 279.628 45.8091 274.626 48.8018C273.845 49.2902 273.233 50.0055 272.87 50.8518C272.508 51.6981 272.413 52.6349 272.598 53.5367C274.615 63.4037 279.204 76.6154 284.158 85.0295L307.268 75.4657C307.425 71.3893 301.812 58.1985 296.095 45.4466C295.07 43.1576 293.095 41.4539 290.66 42.0392Z" fill="#407BFF"/>
<path opacity="0.8" d="M290.66 42.0392C285.025 43.5327 279.628 45.8091 274.626 48.8018C273.845 49.2902 273.233 50.0055 272.87 50.8518C272.508 51.6981 272.413 52.6349 272.598 53.5367C274.615 63.4037 279.204 76.6154 284.158 85.0295L307.268 75.4657C307.425 71.3893 301.812 58.1985 296.095 45.4466C295.07 43.1576 293.095 41.4539 290.66 42.0392Z" fill="white"/>
<path opacity="0.3" d="M299.678 53.5262L295.09 51.9897C296.135 54.676 299.825 58.073 302.406 60.0694C301.57 57.9789 300.64 55.7839 299.678 53.5262Z" fill="#407BFF"/>
<path d="M289.143 31.6914C287.231 28.054 283.102 26.2248 278.147 26.6325C273.967 26.9878 270.266 31.2524 270.705 33.5519C271.144 35.8514 274.656 36.8339 275.325 37.6283L272.43 39.7187C272.087 39.9663 271.798 40.2807 271.579 40.643C271.361 41.0053 271.218 41.4081 271.16 41.827C271.101 42.2459 271.128 42.6723 271.239 43.0806C271.349 43.4889 271.541 43.8706 271.803 44.2028C273.026 45.7497 274.636 47.3385 275.566 48.5091C283.572 48.3001 289.499 45.248 291.641 42.3109C290.837 38.5899 291.004 35.3079 289.143 31.6914Z" fill="#407BFF"/>
<path opacity="0.8" d="M289.143 31.6914C287.231 28.054 283.102 26.2248 278.147 26.6325C273.967 26.9878 270.266 31.2524 270.705 33.5519C271.144 35.8514 274.656 36.8339 275.325 37.6283L272.43 39.7187C272.087 39.9663 271.798 40.2807 271.579 40.643C271.361 41.0053 271.218 41.4081 271.16 41.827C271.101 42.2459 271.128 42.6723 271.239 43.0806C271.349 43.4889 271.541 43.8706 271.803 44.2028C273.026 45.7497 274.636 47.3385 275.566 48.5091C283.572 48.3001 289.499 45.248 291.641 42.3109C290.837 38.5899 291.004 35.3079 289.143 31.6914Z" fill="white"/>
<path d="M285.212 33.9492C285.78 35.4069 285.904 37.0004 285.567 38.5282C285.23 40.0561 284.447 41.4497 283.318 42.5329C282.189 43.6162 280.765 44.3404 279.224 44.614C277.684 44.8877 276.097 44.6985 274.664 44.0704C273.231 43.4423 272.016 42.4035 271.173 41.0852C270.331 39.7669 269.898 38.2284 269.929 36.6642C269.961 35.0999 270.455 33.5801 271.351 32.2969C272.246 31.0136 273.501 30.0246 274.958 29.4547C276.914 28.6928 279.092 28.7381 281.015 29.5808C282.937 30.4235 284.447 31.9946 285.212 33.9492Z" fill="#263238"/>
<path d="M353.08 128.145C352.965 124.706 352.808 125.01 352.714 122.114C352.652 120.337 352.641 118.362 352.631 116.658C352.627 115.849 352.344 115.066 351.83 114.441C351.316 113.817 350.602 113.389 349.809 113.23C348.429 112.948 347.039 112.686 345.628 112.394C343.819 112.007 342.032 111.589 340.266 111.077C338.886 110.679 337.527 110.24 336.179 109.749C334.83 109.258 333.315 108.704 331.914 108.056C330.263 107.356 328.632 106.603 327.023 105.819C325.214 104.962 323.427 104.063 321.64 103.154C314.762 91.7712 314.616 84.2664 307.236 75.4656L291.391 82.6359C291.391 82.6359 303.034 103.29 310.957 112.049C315.525 117.087 322.685 119.365 329.071 121.017C333.681 122.198 338.353 123.107 343.025 123.975C344.844 124.309 346.819 124.435 348.387 125.522C349.547 126.411 350.342 127.693 350.624 129.128C350.694 129.42 350.756 129.713 350.812 130.006C351.011 130.884 353.153 130.215 353.08 128.145Z" fill="#407BFF"/>
<path opacity="0.8" d="M353.08 128.145C352.965 124.706 352.808 125.01 352.714 122.114C352.652 120.337 352.641 118.362 352.631 116.658C352.627 115.849 352.344 115.066 351.83 114.441C351.316 113.817 350.602 113.389 349.809 113.23C348.429 112.948 347.039 112.686 345.628 112.394C343.819 112.007 342.032 111.589 340.266 111.077C338.886 110.679 337.527 110.24 336.179 109.749C334.83 109.258 333.315 108.704 331.914 108.056C330.263 107.356 328.632 106.603 327.023 105.819C325.214 104.962 323.427 104.063 321.64 103.154C314.762 91.7712 314.616 84.2664 307.236 75.4656L291.391 82.6359C291.391 82.6359 303.034 103.29 310.957 112.049C315.525 117.087 322.685 119.365 329.071 121.017C333.681 122.198 338.353 123.107 343.025 123.975C344.844 124.309 346.819 124.435 348.387 125.522C349.547 126.411 350.342 127.693 350.624 129.128C350.694 129.42 350.756 129.713 350.812 130.006C351.011 130.884 353.153 130.215 353.08 128.145Z" fill="white"/>
<path opacity="0.3" d="M345.042 112.258C344.415 112.122 343.788 111.986 343.15 111.829C343.203 115.446 341.509 121.675 340.893 123.567L342.879 123.944C344.18 120.178 344.909 116.239 345.042 112.258Z" fill="#407BFF"/>
<path opacity="0.3" d="M352.671 116.658C352.668 115.851 352.387 115.069 351.875 114.444C351.363 113.82 350.651 113.391 349.86 113.23L348.814 113.031C348.982 114.219 349.59 115.301 350.518 116.062C351.115 116.614 351.83 117.022 352.609 117.254C352.671 117.066 352.671 116.857 352.671 116.658Z" fill="#407BFF"/>
<path d="M283.739 34.0118C284.157 35.6006 282.38 37.2625 280.969 35.8932C279.652 34.4812 278.211 33.1903 276.663 32.0363C275.21 31.127 277.144 29.5382 279.433 30.1549C280.41 30.4003 281.312 30.8796 282.062 31.5516C282.812 32.2235 283.388 33.0679 283.739 34.0118Z" fill="white"/>
<path d="M283.854 84.5175C283.122 84.7893 284.46 86.0435 284.46 86.0435C284.46 86.0435 299.093 81.0369 307.977 75.8839C307.999 75.5719 307.946 75.2593 307.822 74.9721C307.698 74.6849 307.508 74.4313 307.267 74.2324C299.663 78.1004 291.846 81.5342 283.854 84.5175Z" fill="#407BFF"/>
<path opacity="0.5" d="M283.854 84.5175C283.122 84.7893 284.46 86.0435 284.46 86.0435C284.46 86.0435 299.093 81.0369 307.977 75.8839C307.999 75.5719 307.946 75.2593 307.822 74.9721C307.698 74.6849 307.508 74.4313 307.267 74.2324C299.663 78.1004 291.846 81.5342 283.854 84.5175Z" fill="white"/>
<path d="M294.62 41.3493C297.505 42.8126 300.212 44.3491 302.982 46.0528C304.33 46.9099 305.668 47.7774 306.996 48.7182C308.323 49.6589 309.64 50.6205 310.968 51.7075L311.459 52.1152L312.076 52.6796C312.443 53.0084 312.792 53.3573 313.121 53.7248C313.455 54.0906 313.738 54.446 314.009 54.77C314.281 55.0941 314.574 55.4808 314.814 55.8153C315.788 57.159 316.688 58.5547 317.511 59.9962C319.131 62.7915 320.529 65.7097 321.692 68.7239C321.907 69.2934 321.918 69.9197 321.723 70.4965C321.529 71.0732 321.14 71.5648 320.624 71.8875C320.108 72.2103 319.496 72.3443 318.892 72.2668C318.288 72.1892 317.73 71.905 317.312 71.4624L317.26 71.3997C315.17 69.1733 313.152 66.832 311.124 64.6475C309.097 62.4629 307.038 60.247 305.334 59.275C302.961 57.8012 300.317 56.3274 297.693 54.885L289.791 50.495C288.566 49.8464 287.649 48.7375 287.241 47.4124C286.833 46.0873 286.969 44.6546 287.617 43.4293C288.266 42.204 289.375 41.2866 290.7 40.8789C292.025 40.4712 293.458 40.6065 294.683 41.2552L294.62 41.3493Z" fill="#407BFF"/>
<path opacity="0.8" d="M294.62 41.3493C297.505 42.8126 300.212 44.3491 302.982 46.0528C304.33 46.9099 305.668 47.7774 306.996 48.7182C308.323 49.6589 309.64 50.6205 310.968 51.7075L311.459 52.1152L312.076 52.6796C312.443 53.0084 312.792 53.3573 313.121 53.7248C313.455 54.0906 313.738 54.446 314.009 54.77C314.281 55.0941 314.574 55.4808 314.814 55.8153C315.788 57.159 316.688 58.5547 317.511 59.9962C319.131 62.7915 320.529 65.7097 321.692 68.7239C321.907 69.2934 321.918 69.9197 321.723 70.4965C321.529 71.0732 321.14 71.5648 320.624 71.8875C320.108 72.2103 319.496 72.3443 318.892 72.2668C318.288 72.1892 317.73 71.905 317.312 71.4624L317.26 71.3997C315.17 69.1733 313.152 66.832 311.124 64.6475C309.097 62.4629 307.038 60.247 305.334 59.275C302.961 57.8012 300.317 56.3274 297.693 54.885L289.791 50.495C288.566 49.8464 287.649 48.7375 287.241 47.4124C286.833 46.0873 286.969 44.6546 287.617 43.4293C288.266 42.204 289.375 41.2866 290.7 40.8789C292.025 40.4712 293.458 40.6065 294.683 41.2552L294.62 41.3493Z" fill="white"/>
<path d="M324.168 73.9397L323.28 71.7133C323.28 71.7133 322.789 68.8703 321.022 68.0759L315.796 68.9017L315.974 69.3616C316.455 70.4068 316.089 72.3196 315.618 73.8456C315.148 75.3716 315.942 75.5702 316.611 75.2671C316.988 75.0999 317.354 74.4205 317.751 73.6993C317.946 74.0626 318.166 74.4119 318.409 74.7445L319.695 76.5109C319.963 76.877 320.361 77.1279 320.807 77.2132C321.252 77.2985 321.714 77.2119 322.099 76.9708L323.52 76.0615C323.853 75.8338 324.098 75.4997 324.216 75.1141C324.334 74.7286 324.317 74.3144 324.168 73.9397Z" fill="#407BFF"/>
<path opacity="0.8" d="M324.168 73.9397L323.28 71.7133C323.28 71.7133 322.789 68.8703 321.022 68.0759L315.796 68.9017L315.974 69.3616C316.455 70.4068 316.089 72.3196 315.618 73.8456C315.148 75.3716 315.942 75.5702 316.611 75.2671C316.988 75.0999 317.354 74.4205 317.751 73.6993C317.946 74.0626 318.166 74.4119 318.409 74.7445L319.695 76.5109C319.963 76.877 320.361 77.1279 320.807 77.2132C321.252 77.2985 321.714 77.2119 322.099 76.9708L323.52 76.0615C323.853 75.8338 324.098 75.4997 324.216 75.1141C324.334 74.7286 324.317 74.3144 324.168 73.9397Z" fill="white"/>
<path opacity="0.3" d="M290.209 53.3696L288.934 53.4742L281.105 72.3719C281.533 72.4027 281.963 72.3675 282.381 72.2674C282.381 72.2674 292.582 68.4628 295.666 67.0412C293.596 62.7663 290.209 53.3696 290.209 53.3696Z" fill="#407BFF"/>
<path d="M275.92 58.3237C276.871 63.2637 278.637 68.0111 281.146 72.3716C284.972 71.0547 291.348 68.567 294.441 67.1455C292.362 62.6875 290.516 58.1241 288.912 53.4739C285.641 53.6934 278.46 56.4423 275.92 58.3237Z" fill="white"/>
<path opacity="0.3" d="M283.687 62.4107C283.534 62.9219 283.233 63.3762 282.822 63.7163C282.411 64.0563 281.908 64.2668 281.377 64.3211C280.847 64.3753 280.312 64.271 279.84 64.0212C279.369 63.7714 278.982 63.3874 278.729 62.9177C278.476 62.4481 278.368 61.9139 278.418 61.3829C278.469 60.8518 278.676 60.3476 279.013 59.9341C279.35 59.5207 279.802 59.2165 280.312 59.0601C280.822 58.9037 281.367 58.9021 281.878 59.0556C282.563 59.2611 283.138 59.7299 283.477 60.359C283.816 60.9881 283.891 61.726 283.687 62.4107Z" fill="#407BFF"/>
<path opacity="0.6" d="M285.683 58.8151C285.643 58.9895 285.55 59.1476 285.418 59.2686C285.286 59.3895 285.12 59.4676 284.943 59.4927C284.765 59.5178 284.584 59.4887 284.424 59.4092C284.263 59.3297 284.131 59.2035 284.043 59.0472C283.955 58.8908 283.917 58.7117 283.933 58.5333C283.949 58.3548 284.019 58.1854 284.133 58.0473C284.247 57.9091 284.4 57.8087 284.573 57.7592C284.745 57.7097 284.928 57.7134 285.098 57.7698C285.31 57.8376 285.488 57.9831 285.597 58.1771C285.705 58.3711 285.736 58.5991 285.683 58.8151Z" fill="#407BFF"/>
<path opacity="0.6" d="M288.025 57.9058C288 58.027 287.951 58.1418 287.879 58.2428C287.808 58.3438 287.716 58.4287 287.61 58.4922C287.504 58.5556 287.385 58.5962 287.263 58.6113C287.14 58.6265 287.015 58.6158 286.897 58.58C286.778 58.5441 286.669 58.484 286.575 58.4034C286.481 58.3227 286.405 58.2234 286.352 58.1117C286.299 58 286.269 57.8785 286.266 57.7548C286.262 57.6311 286.285 57.5081 286.332 57.3936C286.365 57.283 286.42 57.1801 286.493 57.0907C286.567 57.0014 286.657 56.9274 286.759 56.8731C286.861 56.8187 286.972 56.785 287.087 56.7739C287.203 56.7627 287.319 56.7744 287.429 56.8083C287.653 56.876 287.841 57.0292 287.952 57.2347C288.064 57.4401 288.09 57.6812 288.025 57.9058Z" fill="#407BFF"/>
<path opacity="0.5" d="M291.308 66.0481L281.639 69.8632L281.064 67.9608L290.722 64.1458L291.308 66.0481Z" fill="#407BFF"/>
<path opacity="0.2" d="M237.969 211.314C237.946 217.401 237.358 223.472 236.213 229.449C234.979 234.822 233.063 238.752 230.464 241.239C229.253 242.441 227.816 243.39 226.235 244.03C224.654 244.671 222.961 244.991 221.255 244.971C215.883 244.971 211.782 242.041 208.953 236.18C208.456 235.128 208.033 234.041 207.688 232.93C201.713 238.061 196.15 243.653 191.048 249.653L185.498 256.196C188.485 259.224 191.931 261.76 195.71 263.712C202.218 267.077 210.761 268.764 221.339 268.771C223.2 268.771 224.997 268.718 226.743 268.614C233.142 259.145 238.438 248.975 242.526 238.302L258.048 197.831L237.969 211.314Z" fill="black"/>
<path d="M98.0449 266.534L116.336 284.825L167.553 236.567C149.899 229.825 115.573 248.963 98.0449 266.534Z" fill="#263238"/>
<path d="M161.835 330.293C155.992 324.44 143.543 312.001 143.543 312.001L191.801 260.785C198.501 278.397 179.363 312.754 161.835 330.293Z" fill="#263238"/>
<path d="M231.843 215.004L251.797 176.529L213.322 196.503C200.963 202.913 189.553 211.003 179.414 220.544L113.826 282.286L146.051 314.51L207.792 248.922C217.338 238.781 225.431 227.367 231.843 215.004Z" fill="#407BFF"/>
<path opacity="0.6" d="M231.843 215.004L251.797 176.529L213.322 196.503C200.963 202.913 189.553 211.003 179.414 220.544L113.826 282.286L146.051 314.51L207.792 248.922C217.338 238.781 225.431 227.367 231.843 215.004Z" fill="white"/>
<path d="M190.87 250.939C198.317 250.939 204.354 244.902 204.354 237.456C204.354 230.009 198.317 223.972 190.87 223.972C183.423 223.972 177.387 230.009 177.387 237.456C177.387 244.902 183.423 250.939 190.87 250.939Z" fill="white"/>
<path d="M190.87 246.12C195.656 246.12 199.535 242.241 199.535 237.455C199.535 232.67 195.656 228.791 190.87 228.791C186.085 228.791 182.205 232.67 182.205 237.455C182.205 242.241 186.085 246.12 190.87 246.12Z" fill="#407BFF"/>
<path opacity="0.3" d="M156.952 302.929L125.396 271.373L151.235 247.061L181.264 277.101L156.952 302.929Z" fill="#407BFF"/>
<path d="M105.183 295.403C81.5604 297.316 73.7316 312.44 71.0558 332.54C69.697 342.794 69.0908 353.173 60.4885 359.173C59.971 359.524 59.5814 360.034 59.378 360.626C59.1746 361.218 59.1683 361.859 59.3602 362.455C59.552 363.051 59.9316 363.568 60.4422 363.93C60.9528 364.291 61.5668 364.478 62.1922 364.461C93.9045 363.469 108.695 347.947 110.555 341.466C110.067 344.854 109.194 348.175 107.952 351.365C107.724 351.928 107.68 352.548 107.825 353.138C107.97 353.728 108.298 354.256 108.761 354.649C109.224 355.042 109.8 355.278 110.405 355.325C111.011 355.371 111.616 355.225 112.133 354.908C121.028 349.337 132.191 339.073 132.933 322.422C126.39 313.151 105.183 295.403 105.183 295.403Z" fill="#407BFF"/>
<path opacity="0.2" d="M105.183 295.403C81.5604 297.316 73.7316 312.44 71.0558 332.54C69.697 342.794 69.0908 353.173 60.4885 359.173C59.971 359.524 59.5814 360.034 59.378 360.626C59.1746 361.218 59.1683 361.859 59.3602 362.455C59.552 363.051 59.9316 363.568 60.4422 363.93C60.9528 364.291 61.5668 364.478 62.1922 364.461C93.9045 363.469 108.695 347.947 110.555 341.466C110.067 344.854 109.194 348.175 107.952 351.365C107.724 351.928 107.68 352.548 107.825 353.138C107.97 353.728 108.298 354.256 108.761 354.649C109.224 355.042 109.8 355.278 110.405 355.325C111.011 355.371 111.616 355.225 112.133 354.908C121.028 349.337 132.191 339.073 132.933 322.422C126.39 313.151 105.183 295.403 105.183 295.403Z" fill="white"/>
<path d="M136.601 329.561L98.7637 291.724L118.916 287.365L140.96 309.409L136.601 329.561Z" fill="#407BFF"/>
</svg>
