<svg width="221" height="42" viewBox="0 0 221 42" fill="none"
  xmlns="http://www.w3.org/2000/svg">
  <g id="StudentAid BC_Student">
    <g id="Asset_BCLogo_Color">
      <g id="BC Logo">
        <path id="Fill 69" fill-rule="evenodd" clip-rule="evenodd" d="M7.21929 31.1957C7.21929 31.547 7.24041 32.0446 7.44421 32.2592C7.648 32.4835 7.96946 32.5327 8.29093 32.5327C9.24489 32.5327 9.97367 32.1424 9.97367 31.1667C9.97367 30.3957 9.54496 29.4978 7.84082 29.4978C7.26208 29.4978 7.21929 29.5562 7.21929 29.7513V31.1957ZM7.21929 28.9316C7.21929 29.2054 7.22972 29.2246 7.77663 29.2054C8.86967 29.1654 9.45938 28.873 9.45938 27.9557C9.45938 26.9992 8.67658 26.6384 7.86222 26.6384C7.62633 26.6384 7.4656 26.6578 7.36905 26.6967C7.26208 26.7259 7.21929 26.7754 7.21929 26.9508V28.9316ZM6.33999 27.634C6.33999 26.9116 6.28998 26.72 5.80751 26.6816L5.47187 26.6578C5.41732 26.6143 5.43283 26.4184 5.48257 26.4138C6.06132 26.3619 6.79036 26.3359 7.78712 26.3359C8.46241 26.3359 9.10561 26.3846 9.58807 26.6089C10.0489 26.8138 10.4027 27.204 10.4027 27.8292C10.4027 28.5313 9.95233 28.8927 9.3094 29.1654C9.3094 29.2632 9.39525 29.2932 9.51319 29.3122C10.0919 29.4097 10.9494 29.8976 10.9494 30.9416C10.9494 32.074 10.0275 32.8351 8.09789 32.8351C7.78712 32.8351 7.26213 32.8062 6.81176 32.8062C6.33999 32.8062 5.97573 32.8259 5.57912 32.8351C5.51493 32.8062 5.49327 32.65 5.55772 32.5911L5.75082 32.5622C6.31859 32.4743 6.33999 32.3667 6.33999 31.3422V27.634Z" fill="#142E5C"/>
        <path id="Fill 70" fill-rule="evenodd" clip-rule="evenodd" d="M18.3985 28.5932C18.3985 27.7089 18.3803 27.5678 17.8401 27.5259L17.6112 27.5092C17.5564 27.4759 17.5748 27.3256 17.6294 27.3008C18.0875 27.3173 18.3985 27.3256 18.7831 27.3256C19.1495 27.3256 19.4605 27.3173 19.9184 27.3008C19.9735 27.3256 19.9917 27.4759 19.9369 27.5092L19.7077 27.5259C19.1677 27.5678 19.1495 27.7089 19.1495 28.5932V31.56C19.1495 32.444 19.1677 32.5608 19.7077 32.6189L19.9369 32.6437C19.9917 32.677 19.9735 32.827 19.9184 32.8521C19.4605 32.8354 19.1495 32.827 18.7831 32.827C18.3985 32.827 18.0875 32.8354 17.6294 32.8521C17.5748 32.827 17.5564 32.694 17.6112 32.6437L17.8401 32.6189C18.3803 32.5608 18.3985 32.444 18.3985 31.56V28.5932Z" fill="#142E5C"/>
        <path id="Fill 71" fill-rule="evenodd" clip-rule="evenodd" d="M23.4795 31.5797C23.4795 32.4554 23.4966 32.58 23.9941 32.6219L24.269 32.6468C24.3201 32.68 24.3032 32.83 24.2516 32.8551C23.7625 32.8384 23.4712 32.83 23.1278 32.83C22.7847 32.83 22.4844 32.8384 21.9353 32.8551C21.884 32.83 21.8668 32.6886 21.9353 32.6468L22.2442 32.6219C22.7334 32.58 22.7761 32.4554 22.7761 31.5797V27.8535C22.7761 27.5954 22.7761 27.5873 22.5189 27.5873H22.0468C21.678 27.5873 21.2063 27.6038 20.9918 27.7957C20.7858 27.9792 20.7 28.1624 20.6059 28.3705C20.5371 28.4208 20.4173 28.3789 20.3828 28.3127C20.52 27.9373 20.6489 27.4038 20.7088 27.0703C20.7345 27.054 20.846 27.0454 20.8717 27.0703C20.9233 27.337 21.2063 27.3286 21.601 27.3286H25.0751C25.538 27.3286 25.6153 27.3119 25.7442 27.0954C25.787 27.0784 25.8814 27.0873 25.8985 27.1205C25.8044 27.4622 25.7442 28.1373 25.7699 28.3873C25.7357 28.454 25.5896 28.454 25.5471 28.404C25.5214 28.1954 25.4613 27.8873 25.3326 27.7957C25.135 27.6538 24.8092 27.5873 24.3375 27.5873H23.7282C23.4712 27.5873 23.4795 27.5954 23.4795 27.8705V31.5797Z" fill="#142E5C"/>
        <path id="Fill 72" fill-rule="evenodd" clip-rule="evenodd" d="M27.1563 28.5932C27.1563 27.7089 27.1381 27.5678 26.5982 27.5259L26.369 27.5092C26.3141 27.4759 26.3326 27.3256 26.3874 27.3008C26.8453 27.3173 27.1563 27.3256 27.5412 27.3256C27.907 27.3256 28.2186 27.3173 28.6765 27.3008C28.7313 27.3256 28.7495 27.4759 28.6949 27.5092L28.4657 27.5259C27.9258 27.5678 27.907 27.7089 27.907 28.5932V31.56C27.907 32.444 27.9258 32.5608 28.4657 32.6189L28.6949 32.6437C28.7495 32.677 28.7313 32.827 28.6765 32.8521C28.2186 32.8354 27.907 32.827 27.5412 32.827C27.1563 32.827 26.8453 32.8354 26.3874 32.8521C26.3326 32.827 26.3141 32.694 26.369 32.6437L26.5982 32.6189C27.1381 32.5608 27.1563 32.444 27.1563 31.56V28.5932Z" fill="#142E5C"/>
        <path id="Fill 73" fill-rule="evenodd" clip-rule="evenodd" d="M31.2577 32.9405C30.4402 32.9405 29.9245 32.7235 29.7395 32.6324C29.6223 32.4484 29.4961 31.8567 29.4766 31.4648C29.525 31.4062 29.6713 31.39 29.7103 31.44C29.8561 31.8651 30.2551 32.6813 31.3842 32.6813C32.2018 32.6813 32.6008 32.2238 32.6008 31.7235C32.6008 31.357 32.5134 30.9481 31.8025 30.5565L30.878 30.0397C30.3912 29.7646 29.8266 29.2894 29.8266 28.6057C29.8266 27.814 30.5471 27.1719 31.8124 27.1719C32.1143 27.1719 32.4644 27.2221 32.7174 27.2808C32.8444 27.3143 32.9803 27.3303 33.0581 27.3303C33.1459 27.5305 33.2336 27.9975 33.2336 28.3475C33.1945 28.3975 33.0389 28.4224 32.9899 28.3727C32.8637 27.9721 32.6008 27.4303 31.6664 27.4303C30.7127 27.4303 30.5084 27.9721 30.5084 28.3557C30.5084 28.8394 30.9753 29.1894 31.3355 29.3813L32.1143 29.7981C32.7273 30.1227 33.3307 30.6059 33.3307 31.3984C33.3307 32.3146 32.523 32.9405 31.2577 32.9405Z" fill="#142E5C"/>
        <path id="Fill 74" fill-rule="evenodd" clip-rule="evenodd" d="M36.1574 30.1348C35.7314 30.1348 35.7137 30.1519 35.7137 30.4016V31.5767C35.7137 32.4524 35.7581 32.5692 36.255 32.6189L36.5123 32.6437C36.5658 32.677 36.5479 32.827 36.4947 32.8521C36.0154 32.8354 35.7137 32.827 35.3674 32.827C34.9858 32.827 34.6841 32.8435 34.338 32.8521C34.2848 32.827 34.2669 32.694 34.3204 32.6437L34.4709 32.6189C34.9681 32.5356 34.9858 32.4524 34.9858 31.5767V28.5765C34.9858 27.7008 34.924 27.5597 34.4618 27.5259L34.2313 27.5092C34.1781 27.4759 34.196 27.3256 34.249 27.3008C34.6841 27.3089 34.9858 27.3256 35.3674 27.3256C35.7137 27.3256 36.0154 27.3173 36.3971 27.3008C36.4503 27.3256 36.4679 27.4759 36.415 27.5092L36.2462 27.5259C35.7314 27.5759 35.7137 27.7008 35.7137 28.5765V29.5346C35.7137 29.7932 35.7314 29.8013 36.1574 29.8013H38.6957C39.122 29.8013 39.1402 29.7932 39.1402 29.5346V28.5765C39.1402 27.7008 39.122 27.5759 38.5984 27.5259L38.4299 27.5092C38.3764 27.4759 38.394 27.3256 38.4475 27.3008C38.8559 27.3173 39.1579 27.3256 39.5213 27.3256C39.8677 27.3256 40.1693 27.3173 40.5686 27.3008C40.6221 27.3256 40.6398 27.4759 40.5865 27.5092L40.3999 27.5259C39.8856 27.5759 39.8677 27.7008 39.8677 28.5765V31.5767C39.8677 32.4524 39.8856 32.5608 40.3999 32.6189L40.613 32.6437C40.6665 32.677 40.6489 32.827 40.5954 32.8521C40.1693 32.8354 39.8677 32.827 39.5213 32.827C39.1579 32.827 38.8383 32.8354 38.4475 32.8521C38.394 32.827 38.3764 32.694 38.4299 32.6437L38.5984 32.6189C39.1402 32.5356 39.1402 32.4524 39.1402 31.5767V30.4016C39.1402 30.1519 39.122 30.1348 38.6957 30.1348H36.1574Z" fill="#142E5C"/>
        <path id="Fill 75" fill-rule="evenodd" clip-rule="evenodd" d="M1.25965 34.6833C1.98897 34.1097 2.91859 33.8281 3.95761 33.8281C4.49757 33.8281 5.25711 33.9384 5.72673 34.0695C5.84682 34.1 5.91662 34.12 6.00648 34.1097C6.01664 34.3414 6.06665 34.9754 6.14635 35.5892C6.09634 35.6597 5.94657 35.6697 5.87677 35.6095C5.72673 34.9249 5.2769 34.14 3.8279 34.14C2.29893 34.14 0.999698 35.116 0.999698 37.1992C0.999698 39.3127 2.32862 40.4805 3.9675 40.4805C5.25711 40.4805 5.82649 39.6346 6.05649 39.0408C6.12656 38.9905 6.27659 39.0108 6.31644 39.0814C6.24664 39.6049 5.98669 40.2689 5.83665 40.4603C5.71657 40.4805 5.59702 40.5205 5.48684 40.5608C5.267 40.6414 4.54732 40.7922 3.90786 40.7922C3.00845 40.7922 2.1489 40.6111 1.41931 40.1176C0.61993 39.5643 0 38.6487 0 37.3503C0 36.2333 0.499849 35.2773 1.25965 34.6833Z" fill="#142E5C"/>
        <path id="Fill 76" fill-rule="evenodd" clip-rule="evenodd" d="M11.9493 38.1137C11.9493 36.7383 11.3168 35.2545 9.66271 35.2545C8.76197 35.2545 7.59298 35.8464 7.59298 37.6723C7.59298 38.9056 8.21638 40.5064 9.9224 40.5064C10.9619 40.5064 11.9493 39.7561 11.9493 38.1137ZM6.72656 37.9388C6.72656 36.272 8.02553 34.9961 9.8099 34.9961C11.8104 34.9961 12.8149 36.3883 12.8149 37.8553C12.8149 39.5393 11.4814 40.7645 9.8099 40.7645C7.88726 40.7645 6.72656 39.4396 6.72656 37.9388Z" fill="#142E5C"/>
        <path id="Fill 77" fill-rule="evenodd" clip-rule="evenodd" d="M22.5857 37.2228C22.5857 36.7063 22.568 35.7479 22.4193 35.4974C22.3584 35.3979 22.2008 35.3387 21.9823 35.3222L21.7638 35.3057C21.7114 35.2468 21.7288 35.1393 21.7812 35.1055C22.1134 35.1222 22.437 35.1306 22.778 35.1306C23.1452 35.1306 23.3813 35.1222 23.6961 35.1055C23.7659 35.1474 23.7574 35.2555 23.7138 35.3057L23.5038 35.3222C23.2851 35.3387 23.1187 35.4141 23.0666 35.5225C22.9443 35.7976 22.9443 36.7563 22.9443 37.2228V38.1652C22.9443 38.8901 22.8216 39.6571 22.3322 40.1574C21.9561 40.5487 21.3092 40.7655 20.662 40.7655C20.0586 40.7655 19.4556 40.6571 19.0274 40.3071C18.5636 39.9406 18.3451 39.332 18.3451 38.3401V36.3722C18.3451 35.5057 18.3275 35.3641 17.8204 35.3222L17.6019 35.3057C17.5495 35.2728 17.5671 35.1306 17.6193 35.1055C18.0566 35.1222 18.3537 35.1306 18.7038 35.1306C19.0621 35.1306 19.3505 35.1222 19.7792 35.1055C19.8313 35.1306 19.849 35.2728 19.7965 35.3057L19.5866 35.3222C19.0795 35.3641 19.0621 35.5057 19.0621 36.3722V38.173C19.0621 39.5152 19.4991 40.3987 20.8369 40.3987C22.1046 40.3987 22.5857 39.4487 22.5857 38.1814V37.2228Z" fill="#142E5C"/>
        <path id="Fill 78" fill-rule="evenodd" clip-rule="evenodd" d="M33.5412 39.2555C33.5412 39.5579 33.5604 39.9876 33.7439 40.1728C33.9276 40.3666 34.2173 40.4087 34.5072 40.4087C35.3673 40.4087 36.0246 40.072 36.0246 39.2301C36.0246 38.5652 35.6379 37.7903 34.1015 37.7903C33.5797 37.7903 33.5412 37.8409 33.5412 38.009V39.2555ZM33.5412 37.302C33.5412 37.5379 33.5508 37.5544 34.0434 37.5379C35.0292 37.5041 35.5609 37.2517 35.5609 36.4595C35.5609 35.6347 34.8554 35.3233 34.121 35.3233C33.9081 35.3233 33.7634 35.3406 33.676 35.3738C33.5797 35.3993 33.5412 35.4414 33.5412 35.5928V37.302ZM32.7488 36.1822C32.7488 35.5595 32.71 35.3993 32.2752 35.3655L31.9657 35.3352C31.9307 35.3033 31.912 35.1344 31.9756 35.1298C32.4974 35.0903 33.1545 35.0625 34.0534 35.0625C34.6621 35.0625 35.2416 35.1049 35.677 35.2982C36.0924 35.4749 36.4111 35.8117 36.4111 36.3506C36.4111 36.9571 36.0052 37.2684 35.4256 37.5041C35.4256 37.5882 35.5026 37.6139 35.6091 37.6303C36.1311 37.7147 36.904 38.1355 36.904 39.0363C36.904 40.013 36.0731 40.6693 34.3331 40.6693C34.0534 40.6693 33.5797 40.6441 33.174 40.6441C32.7488 40.6441 32.4201 40.6612 32.0623 40.6693C32.0042 40.6441 31.9852 40.5098 32.043 40.4598L32.2171 40.4339C32.7293 40.3582 32.7488 40.2655 32.7488 39.3817V36.1822Z" fill="#142E5C"/>
        <path id="Fill 79" fill-rule="evenodd" clip-rule="evenodd" d="M13.6623 29.9062C13.4962 29.9062 13.1635 29.9689 13.1635 29.7457V28.1468C13.1635 27.5219 13.1836 27.4322 13.926 27.4322C14.7962 27.4322 15.3338 27.8787 15.3338 28.7006C15.3338 29.0576 15.2068 29.3879 14.8842 29.6117C14.5127 29.8706 14.1119 29.9062 13.6623 29.9062ZM16.999 32.6452L16.77 32.6252C16.7238 32.6203 16.6829 32.6146 16.6435 32.6081C16.3087 32.5481 16.1745 32.2465 16.0167 31.9671L15.2253 30.5735C15.0884 30.3414 14.9418 30.0287 14.6289 29.9841C15.4401 29.886 16.1734 29.4125 16.1734 28.5998C16.1734 27.6616 15.2545 27.2422 14.3256 27.2422C13.7685 27.2422 13.2607 27.2571 12.6937 27.2571C12.3808 27.2571 12.009 27.2422 11.6961 27.2422C11.5226 27.2422 11.5204 27.2781 11.5204 27.376C11.5204 27.5211 11.5809 27.4808 11.7651 27.4908C12.4252 27.5284 12.4 27.653 12.4 28.2246V31.8779C12.4 32.4003 12.4447 32.5565 11.9015 32.606C11.9015 32.606 11.8184 32.6146 11.7713 32.6195L11.541 32.6435C11.4859 32.6935 11.5044 32.8268 11.5597 32.8516C11.6817 32.8473 11.8986 32.8384 11.8986 32.8384C12.1995 32.8295 12.5001 32.8065 12.8012 32.8065C13.1032 32.8065 13.3925 32.83 13.6897 32.8384V32.8389C13.7953 32.8427 13.9068 32.8457 14.0288 32.8506C14.0841 32.8257 14.1023 32.6919 14.0475 32.6422L13.8159 32.62C13.7685 32.6154 13.6875 32.6073 13.6875 32.6073C13.1387 32.5698 13.1722 32.4138 13.1722 31.8779V30.5025C13.1722 30.4214 13.1625 30.2076 13.2211 30.1449C13.2703 30.0908 13.358 30.1003 13.4361 30.1003C14.1793 30.1003 14.1694 30.1716 14.5214 30.7968L15.4791 32.5387C15.5575 32.6727 15.6163 32.8427 15.8118 32.8427H16.6435C16.7487 32.8457 16.8591 32.8492 16.9808 32.8535C17.0356 32.8289 17.0541 32.6954 16.999 32.6452Z" fill="#142E5C"/>
        <path id="Fill 80" fill-rule="evenodd" clip-rule="evenodd" d="M13.8416 36.4001C13.8416 35.5253 13.8234 35.3918 13.2519 35.3501L13.0248 35.3331C12.9708 35.2999 12.9887 35.1504 13.0433 35.125C13.5514 35.1415 13.8598 35.1499 14.2227 35.1499C14.5765 35.1499 14.8849 35.1415 15.3387 35.1253C15.3933 35.1504 15.4112 35.2999 15.3569 35.3331L15.1392 35.3501C14.6038 35.3918 14.5856 35.5253 14.5856 36.4001V39.3012C14.5856 39.8261 14.6129 40.0428 14.776 40.2015C14.8758 40.2931 15.0483 40.3931 15.7653 40.3931C16.5363 40.3931 16.7267 40.3601 16.8722 40.2847C17.0538 40.1847 17.2894 39.885 17.471 39.4593C17.5253 39.418 17.6978 39.4515 17.6978 39.5093C17.6978 39.6015 17.4437 40.452 17.3167 40.6763C16.854 40.6599 15.9918 40.6515 15.0574 40.6515H14.2227C13.8416 40.6515 13.5514 40.6599 13.0433 40.6763C12.9887 40.6515 12.9708 40.518 13.0248 40.4682L13.2973 40.4431C13.8234 40.3931 13.8416 40.2761 13.8416 39.4012V36.4001Z" fill="#142E5C"/>
        <path id="Fill 81" fill-rule="evenodd" clip-rule="evenodd" d="M38.1462 36.4169C38.1462 35.5331 38.1283 35.3918 37.6025 35.3501L37.38 35.3331C37.3265 35.2999 37.3442 35.1504 37.3979 35.125C37.8435 35.1415 38.1462 35.1499 38.5201 35.1499C38.8766 35.1499 39.1796 35.1415 39.6249 35.1253C39.6784 35.1504 39.696 35.2999 39.6426 35.3331L39.4198 35.3501C38.8943 35.3918 38.8766 35.5331 38.8766 36.4169V39.3847C38.8766 40.268 38.8943 40.3853 39.4198 40.4431L39.6426 40.4682C39.696 40.5015 39.6784 40.6515 39.6249 40.6763C39.1796 40.6599 38.8766 40.6515 38.5201 40.6515C38.1462 40.6515 37.8435 40.6599 37.3979 40.6763C37.3442 40.6515 37.3265 40.518 37.38 40.4682L37.6025 40.4431C38.1283 40.3853 38.1462 40.268 38.1462 39.3847V36.4169Z" fill="#142E5C"/>
        <path id="Fill 82" fill-rule="evenodd" clip-rule="evenodd" d="M31.0282 40.4418C30.9825 40.4369 30.8971 40.4294 30.8971 40.4294C30.803 40.4199 30.719 40.4066 30.6522 40.3331C30.5364 40.2094 30.5463 39.8553 30.5463 39.7139V36.0612C30.5463 35.9023 30.508 35.5572 30.6233 35.4331C30.6813 35.368 30.8014 35.3566 30.9084 35.3507V35.3504C30.9734 35.345 30.9752 35.345 31.0322 35.3421L31.2611 35.3258C31.3162 35.2929 31.2978 35.1421 31.2427 35.1172C31.1205 35.1218 31.0092 35.1202 30.9036 35.1237H29.9301C29.8242 35.1237 29.7282 35.1237 29.6701 35.2388L27.687 39.4131L25.9353 35.3807C25.8775 35.2388 25.8679 35.1237 25.6847 35.1237H24.6716C24.5663 35.1204 24.4499 35.1218 24.3274 35.1172C24.2726 35.1421 24.2544 35.2929 24.3092 35.3258L24.5379 35.3421C24.5855 35.3461 24.6708 35.3521 24.6708 35.3521C25.0509 35.3769 25.0744 35.4623 25.0396 35.8664L24.7417 39.7848C24.7152 40.1777 24.6941 40.3861 24.2862 40.4239C24.2862 40.4239 24.2001 40.435 24.1528 40.4402L23.9239 40.4653C23.8688 40.5145 23.8872 40.6485 23.9423 40.6731C24.0629 40.6688 24.2774 40.6626 24.2774 40.6626C24.4839 40.6526 24.6946 40.6337 24.9054 40.6337C25.1322 40.6337 25.3598 40.655 25.5871 40.6645V40.665C25.6925 40.668 25.804 40.6715 25.9265 40.6761C25.9813 40.6515 25.9995 40.518 25.9449 40.4677L25.7157 40.4429C25.6555 40.438 25.5881 40.4315 25.5881 40.4315C24.9998 40.3907 25.0126 39.9707 25.0493 39.4577L25.3287 35.8139H25.3961L27.2926 40.2977C27.3115 40.3593 27.3404 40.4656 27.4367 40.4656C27.5236 40.4656 27.5522 40.3683 27.5814 40.3064L29.7183 35.7069H29.7859V39.7139C29.7859 39.8729 29.8052 40.2004 29.6412 40.3242C29.5557 40.3883 29.2778 40.4269 29.2778 40.4269C29.2393 40.4329 29.1992 40.4385 29.154 40.4434L28.9248 40.4685C28.8699 40.5183 28.8881 40.6518 28.9432 40.6766C29.0638 40.6726 29.2778 40.6653 29.2778 40.6653C29.588 40.6566 29.9033 40.6337 30.2189 40.6337C30.4454 40.6337 30.8899 40.6558 30.8899 40.6558C30.9956 40.6585 31.1162 40.6702 31.2387 40.6748C31.2938 40.6502 31.3119 40.5164 31.2569 40.4664L31.0282 40.4418Z" fill="#142E5C"/>
        <path id="Fill 83" fill-rule="evenodd" clip-rule="evenodd" d="M43.4998 38.4022H42.4287C42.3913 38.4022 42.0931 38.4376 42.0931 38.3489C42.0931 38.323 42.1118 38.2697 42.1212 38.2435L42.7641 36.6343C42.7828 36.5905 42.8481 36.3695 42.9224 36.3695C42.978 36.3695 43.0529 36.5992 43.0716 36.6343L43.7047 38.137C43.7047 38.1551 43.7699 38.2957 43.7699 38.3316C43.7699 38.4289 43.5557 38.4022 43.4998 38.4022ZM45.9042 40.4659L45.8737 40.4408C45.828 40.4354 45.7876 40.4295 45.7488 40.4235C45.3923 40.343 45.2533 39.9086 45.1217 39.5997L43.286 35.2089C43.2678 35.1565 43.2314 35.043 43.1584 35.043C43.0584 35.043 43.0313 35.1651 43.0041 35.2351L41.2505 39.6176C41.1868 39.783 41.0231 40.1854 40.9049 40.3078C40.8143 40.4022 40.6966 40.4197 40.5709 40.4327C40.5709 40.4327 40.4719 40.4427 40.4246 40.4476L40.209 40.4697C40.1539 40.5195 40.1724 40.653 40.2272 40.6778C40.3497 40.6738 40.5666 40.6657 40.5666 40.6657C40.8065 40.6624 41.0464 40.6319 41.2868 40.6319C41.4885 40.6319 41.6907 40.6538 41.8926 40.6624C41.8926 40.6624 42.1095 40.6703 42.2314 40.6749C42.2865 40.65 42.3047 40.5165 42.2501 40.4665L42.021 40.4414C41.9755 40.437 41.8969 40.4286 41.8969 40.4286C41.6861 40.4054 41.4232 40.3673 41.4232 40.133C41.4232 39.9757 41.4957 39.7919 41.5503 39.6522L41.8228 38.9962C41.9589 38.6816 41.9046 38.6459 42.2678 38.6459H43.5039C43.9398 38.6459 43.8765 38.6459 44.0674 39.0927L44.3581 39.757C44.4039 39.8708 44.4852 40.0632 44.4852 40.1854C44.4852 40.4054 44.2479 40.42 44.026 40.4389C44.026 40.4389 43.9524 40.4454 43.8885 40.4497L43.6684 40.4665C43.6136 40.5162 43.6318 40.6497 43.6866 40.6743C43.8091 40.67 44.026 40.6614 44.026 40.6614C44.2846 40.6519 44.5445 40.6319 44.7943 40.6319C45.1126 40.6319 45.4308 40.6538 45.7491 40.6624C45.8534 40.6654 45.7651 40.6692 45.886 40.6738C45.9409 40.6489 45.9593 40.5154 45.9042 40.4659Z" fill="#142E5C"/>
        <path id="Fill 84" fill-rule="evenodd" clip-rule="evenodd" d="M10.1311 21.4633C15.9295 21.4633 23.9504 24.7628 29.7702 24.7628C33.9233 24.7628 37.9758 23.6425 40.2825 21.9936C40.4435 21.0249 40.5286 20.0301 40.5286 19.0155C40.5286 9.16738 32.6286 1.18359 22.8836 1.18359C13.1382 1.18359 5.23828 9.16738 5.23828 19.0155C5.23828 20.0185 5.32172 21.002 5.47925 21.9598C6.11522 21.8406 8.27776 21.4633 10.1311 21.4633Z" fill="#FFFFFE"/>
        <path id="Fill 85" fill-rule="evenodd" clip-rule="evenodd" d="M34.2812 14.8919L34.9787 15.1843L36.5259 14.0938L34.2812 14.8919Z" fill="#F3B229"/>
        <path id="Fill 86" fill-rule="evenodd" clip-rule="evenodd" d="M8.28312 13.6754L6.44927 13.0232L6.54101 12.7962L8.60646 13.4922L8.61555 13.4873L8.88808 13.3311L8.99666 13.2622L6.74453 12.2941L6.83947 12.0562L11.8666 14.1105L12.0321 14.0411L7.04701 11.5862L7.15799 11.3551L12.441 13.84L12.5141 13.8024L7.39147 10.8665L7.49658 10.6457L14.8937 14.7132C14.9547 14.6 15.0815 14.3941 15.1467 14.2832C12.3343 11.6114 9.62033 9.60459 9.62033 9.60459C9.62033 9.60459 12.4114 11.4938 15.8557 13.2497C15.9697 13.1062 16.0627 12.9908 16.1844 12.8546L9.87387 7.24027L10.0432 7.06459L15.1366 11.4514L10.4181 6.67595L10.5946 6.49108L15.8924 11.6651L10.9607 6.13405L11.1493 5.96189L15.7073 10.8946L11.5472 5.59703L11.7264 5.43243L17.059 11.9908C17.1967 11.8703 17.3114 11.78 17.4556 11.6681C15.8426 8.14081 14.081 5.27108 14.081 5.27108C14.081 5.27108 15.9558 8.06027 18.4855 10.9811C18.6403 10.8935 18.7968 10.8089 18.957 10.73L18.9302 10.7122L15.1927 3.17486L15.415 3.07595L18.5114 9.07135L15.9066 2.8573L16.1387 2.75297L19.133 9.55595L16.6107 2.56027L16.8493 2.47216L19.2469 8.77108L17.3534 2.28459L17.5807 2.2L20.0738 10.2451L20.069 10.2665L20.0752 10.2641C20.2407 10.2076 20.4095 10.1581 20.5793 10.1116C20.3894 6.2473 19.8238 2.94162 19.8238 2.94162C19.8238 2.94162 20.5239 6.21811 21.7798 9.87135C21.955 9.84973 22.1307 9.83135 22.3083 9.81892L22.3027 9.81081H22.3244L22.3121 9.79243L21.6408 1.38919L21.8833 1.38162L22.5316 8.1127L22.4204 1.36514L22.6742 1.35622L22.9282 8.7973L23.1828 1.35622L23.4369 1.36514L23.3254 8.1127L23.9734 1.38162L24.2162 1.38919L23.545 9.79243L23.5324 9.81081H23.5361L23.5343 9.81351H23.545C23.7188 9.82459 23.891 9.84216 24.0619 9.8627C25.316 6.21297 26.0151 2.94162 26.0151 2.94162C26.0151 2.94162 25.4513 6.2373 25.2603 10.0943C25.4318 10.1403 25.6011 10.1903 25.7679 10.2457L28.2522 2.22838L28.4801 2.31324L26.5858 8.79973L28.9839 2.50108L29.2222 2.58919L26.7 9.58459L29.694 2.78162L29.9267 2.88595L27.3215 9.1L30.4179 3.10459L30.6399 3.20351L26.9163 10.7135L26.9225 10.7162C27.076 10.7919 27.2263 10.8724 27.3747 10.9559C29.8935 8.04405 31.7578 5.27108 31.7578 5.27108C31.7578 5.27108 30.0082 8.12108 28.3998 11.6314C28.5437 11.7411 28.6841 11.8546 28.8208 11.9722L34.0907 5.48541L34.2704 5.65L30.1099 10.9473L34.6679 6.01486L34.8564 6.18703L29.9245 11.7184L35.2223 6.54378L35.3993 6.72892L30.6806 11.5046L35.774 7.11757L35.9433 7.29324L29.7098 12.8443L29.7135 12.8481C29.8224 12.9705 29.9269 13.097 30.0299 13.2257C33.4526 11.4765 36.2185 9.60459 36.2185 9.60459C36.2185 9.60459 33.531 11.5916 30.7333 14.2446C30.8097 14.3738 30.9336 14.5946 31.0042 14.7276L38.2965 10.7149L38.4024 10.9362L32.5807 14.2724L38.6356 11.4251L38.7466 11.6557L33.1071 14.4327L33.2154 14.4708L38.9536 12.1254L39.0491 12.3638L33.715 14.6562L33.8147 14.6981L37.369 13.5008L37.905 13.1227L38.0826 13.2597L39.2524 12.8659L39.3444 13.0927L38.3324 13.4524L39.7945 14.58L40.263 14.8441C38.3832 6.90351 31.3152 1 22.8817 1C14.3 1 7.13232 7.1127 5.40625 15.2641C5.42845 15.2532 5.44984 15.2432 5.47204 15.2324L5.68626 15.1343L5.81758 15.0724L8.28312 13.6754Z" fill="#F3B229"/>
        <path id="Fill 87" fill-rule="evenodd" clip-rule="evenodd" d="M5.30751 22.346C5.30751 22.346 7.94395 21.8141 10.1445 21.8141C15.9429 21.8141 23.9637 25.1133 29.7835 25.1133C34.053 25.1133 38.2165 23.9298 40.486 22.2039C40.6631 21.1831 40.7561 20.1333 40.7561 19.0609C40.7561 17.6087 40.5858 16.1971 40.2654 14.8441L37.8389 13.4766L34.9925 15.4944L33.0773 14.7406C32.4288 15.0717 28.4295 17.7747 28.4295 17.7747L26.8941 16.652L25.2472 16.322L23.0507 14.7063L20.5316 16.4539C20.5316 16.4539 17.7208 18.1033 17.6243 18.1033C17.5275 18.1033 14.2334 15.4644 14.2334 15.4644L12.7156 13.8485C12.4573 14.0133 11.4247 14.492 11.4247 14.492L11.3715 14.5063L10.3729 14.1939L9.15947 13.5439L5.47439 15.2325C5.4522 15.2433 5.4308 15.2533 5.4086 15.2641C5.14945 16.4887 5.01172 17.7585 5.01172 19.0609C5.01172 20.1828 5.11388 21.2806 5.30751 22.346Z" fill="#142E5C"/>
      </g>
    </g>
    <path id="Line 2" d="M55.5 2.46286V39.6291" stroke="#F3B229" stroke-linecap="square"/>
    <g id="Frame 129">
      <path id="Invasives BC" d="M76.546 17.107C76.546 18.5637 76.017 19.6983 74.959 20.511C73.901 21.3237 72.475 21.73 70.681 21.73C69.761 21.73 68.91 21.661 68.128 21.523C67.346 21.385 66.6943 21.1933 66.173 20.948V18.97C66.725 19.2153 67.4073 19.4377 68.22 19.637C69.048 19.8363 69.899 19.936 70.773 19.936C71.9997 19.936 72.9197 19.6983 73.533 19.223C74.1617 18.7477 74.476 18.1037 74.476 17.291C74.476 16.7543 74.361 16.302 74.131 15.934C73.901 15.566 73.5023 15.2287 72.935 14.922C72.383 14.6 71.6087 14.2627 70.612 13.91C69.2167 13.404 68.1587 12.783 67.438 12.047C66.7327 11.311 66.38 10.3067 66.38 9.034C66.38 8.16 66.6023 7.41633 67.047 6.803C67.4917 6.17433 68.105 5.69133 68.887 5.354C69.6843 5.01667 70.5967 4.848 71.624 4.848C72.5287 4.848 73.3567 4.93233 74.108 5.101C74.8593 5.26967 75.5417 5.492 76.155 5.768L75.511 7.539C74.9437 7.29367 74.3227 7.08667 73.648 6.918C72.9887 6.74933 72.2987 6.665 71.578 6.665C70.5507 6.665 69.7763 6.88733 69.255 7.332C68.7337 7.76133 68.473 8.33633 68.473 9.057C68.473 9.609 68.588 10.069 68.818 10.437C69.048 10.805 69.4237 11.1347 69.945 11.426C70.4663 11.7173 71.1717 12.0317 72.061 12.369C73.027 12.7217 73.8397 13.105 74.499 13.519C75.1737 13.9177 75.6797 14.4007 76.017 14.968C76.3697 15.5353 76.546 16.2483 76.546 17.107ZM83.695 20.074C84.0017 20.074 84.316 20.051 84.638 20.005C84.96 19.9437 85.2207 19.8823 85.42 19.821V21.362C85.2054 21.4693 84.8987 21.5537 84.5 21.615C84.1014 21.6917 83.718 21.73 83.35 21.73C82.706 21.73 82.108 21.6227 81.556 21.408C81.0194 21.178 80.5824 20.787 80.245 20.235C79.9077 19.683 79.739 18.9087 79.739 17.912V10.736H77.991V9.77L79.762 8.965L80.567 6.343H81.763V9.172H85.328V10.736H81.763V17.866C81.763 18.6173 81.9394 19.177 82.292 19.545C82.66 19.8977 83.1277 20.074 83.695 20.074ZM98.1926 9.172V21.5H96.5366L96.2376 19.867H96.1456C95.7469 20.511 95.1949 20.9863 94.4896 21.293C93.7843 21.5843 93.0329 21.73 92.2356 21.73C90.7483 21.73 89.6289 21.3773 88.8776 20.672C88.1263 19.9513 87.7506 18.809 87.7506 17.245V9.172H89.7976V17.107C89.7976 19.0697 90.7099 20.051 92.5346 20.051C93.8993 20.051 94.8423 19.6677 95.3636 18.901C95.9003 18.1343 96.1686 17.0303 96.1686 15.589V9.172H98.1926ZM106.476 21.73C104.943 21.73 103.716 21.201 102.796 20.143C101.876 19.0697 101.416 17.475 101.416 15.359C101.416 13.243 101.876 11.6483 102.796 10.575C103.732 9.48633 104.966 8.942 106.499 8.942C107.45 8.942 108.224 9.11833 108.822 9.471C109.436 9.82367 109.934 10.253 110.317 10.759H110.455C110.44 10.5597 110.409 10.2683 110.363 9.885C110.333 9.48633 110.317 9.172 110.317 8.942V4.02H112.341V21.5H110.708L110.409 19.844H110.317C109.949 20.3653 109.459 20.81 108.845 21.178C108.232 21.546 107.442 21.73 106.476 21.73ZM106.798 20.051C108.102 20.051 109.014 19.6983 109.535 18.993C110.072 18.2723 110.34 17.1913 110.34 15.75V15.382C110.34 13.8487 110.087 12.6757 109.581 11.863C109.075 11.035 108.14 10.621 106.775 10.621C105.687 10.621 104.866 11.058 104.314 11.932C103.778 12.7907 103.509 13.9483 103.509 15.405C103.509 16.877 103.778 18.0193 104.314 18.832C104.866 19.6447 105.694 20.051 106.798 20.051ZM121.018 8.942C122.076 8.942 122.98 9.172 123.732 9.632C124.498 10.092 125.081 10.7437 125.48 11.587C125.894 12.415 126.101 13.3887 126.101 14.508V15.727H117.66C117.69 17.1223 118.043 18.188 118.718 18.924C119.408 19.6447 120.366 20.005 121.593 20.005C122.375 20.005 123.065 19.936 123.663 19.798C124.276 19.6447 124.905 19.43 125.549 19.154V20.925C124.92 21.201 124.299 21.4003 123.686 21.523C123.072 21.661 122.344 21.73 121.501 21.73C120.335 21.73 119.3 21.4923 118.396 21.017C117.506 20.5417 116.809 19.8363 116.303 18.901C115.812 17.9503 115.567 16.7927 115.567 15.428C115.567 14.0787 115.789 12.921 116.234 11.955C116.694 10.989 117.33 10.2453 118.143 9.724C118.971 9.20267 119.929 8.942 121.018 8.942ZM120.995 10.598C120.029 10.598 119.262 10.9123 118.695 11.541C118.143 12.1543 117.813 13.013 117.706 14.117H123.985C123.969 13.0743 123.724 12.231 123.249 11.587C122.773 10.9277 122.022 10.598 120.995 10.598ZM135.173 8.942C136.645 8.942 137.757 9.30233 138.508 10.023C139.26 10.7283 139.635 11.8783 139.635 13.473V21.5H137.634V13.611C137.634 11.633 136.714 10.644 134.874 10.644C133.51 10.644 132.567 11.0273 132.045 11.794C131.524 12.5607 131.263 13.6647 131.263 15.106V21.5H129.239V9.172H130.872L131.171 10.851H131.286C131.685 10.207 132.237 9.73167 132.942 9.425C133.648 9.103 134.391 8.942 135.173 8.942ZM147.574 20.074C147.881 20.074 148.195 20.051 148.517 20.005C148.839 19.9437 149.1 19.8823 149.299 19.821V21.362C149.084 21.4693 148.778 21.5537 148.379 21.615C147.98 21.6917 147.597 21.73 147.229 21.73C146.585 21.73 145.987 21.6227 145.435 21.408C144.898 21.178 144.461 20.787 144.124 20.235C143.787 19.683 143.618 18.9087 143.618 17.912V10.736H141.87V9.77L143.641 8.965L144.446 6.343H145.642V9.172H149.207V10.736H145.642V17.866C145.642 18.6173 145.818 19.177 146.171 19.545C146.539 19.8977 147.007 20.074 147.574 20.074ZM162.348 21.5L160.37 16.417H153.861L151.906 21.5H149.812L156.23 5.009H158.093L164.487 21.5H162.348ZM157.909 9.609C157.863 9.48633 157.786 9.264 157.679 8.942C157.571 8.62 157.464 8.29033 157.357 7.953C157.265 7.60033 157.188 7.332 157.127 7.148C157.019 7.62333 156.897 8.091 156.759 8.551C156.621 8.99567 156.506 9.34833 156.414 9.609L154.551 14.577H159.749L157.909 9.609ZM167.492 4.549C167.799 4.549 168.067 4.65633 168.297 4.871C168.542 5.07033 168.665 5.39233 168.665 5.837C168.665 6.26633 168.542 6.58833 168.297 6.803C168.067 7.01767 167.799 7.125 167.492 7.125C167.155 7.125 166.871 7.01767 166.641 6.803C166.411 6.58833 166.296 6.26633 166.296 5.837C166.296 5.39233 166.411 5.07033 166.641 4.871C166.871 4.65633 167.155 4.549 167.492 4.549ZM168.481 9.172V21.5H166.457V9.172H168.481ZM176.757 21.73C175.223 21.73 173.997 21.201 173.077 20.143C172.157 19.0697 171.697 17.475 171.697 15.359C171.697 13.243 172.157 11.6483 173.077 10.575C174.012 9.48633 175.246 8.942 176.78 8.942C177.73 8.942 178.505 9.11833 179.103 9.471C179.716 9.82367 180.214 10.253 180.598 10.759H180.736C180.72 10.5597 180.69 10.2683 180.644 9.885C180.613 9.48633 180.598 9.172 180.598 8.942V4.02H182.622V21.5H180.989L180.69 19.844H180.598C180.23 20.3653 179.739 20.81 179.126 21.178C178.512 21.546 177.723 21.73 176.757 21.73ZM177.079 20.051C178.382 20.051 179.294 19.6983 179.816 18.993C180.352 18.2723 180.621 17.1913 180.621 15.75V15.382C180.621 13.8487 180.368 12.6757 179.862 11.863C179.356 11.035 178.42 10.621 177.056 10.621C175.967 10.621 175.147 11.058 174.595 11.932C174.058 12.7907 173.79 13.9483 173.79 15.405C173.79 16.877 174.058 18.0193 174.595 18.832C175.147 19.6447 175.975 20.051 177.079 20.051ZM197.48 5.078C199.534 5.078 201.083 5.38467 202.126 5.998C203.184 6.596 203.713 7.64633 203.713 9.149C203.713 10.115 203.444 10.92 202.908 11.564C202.371 12.1927 201.597 12.599 200.585 12.783V12.898C201.275 13.0053 201.896 13.2047 202.448 13.496C203.015 13.7873 203.46 14.2013 203.782 14.738C204.104 15.2747 204.265 15.9723 204.265 16.831C204.265 18.3183 203.751 19.4683 202.724 20.281C201.712 21.0937 200.324 21.5 198.561 21.5H192.788V5.078H197.48ZM197.894 12.07C199.304 12.07 200.27 11.8477 200.792 11.403C201.313 10.943 201.574 10.2683 201.574 9.379C201.574 8.47433 201.252 7.83033 200.608 7.447C199.979 7.04833 198.967 6.849 197.572 6.849H194.858V12.07H197.894ZM194.858 13.795V19.752H198.17C199.626 19.752 200.638 19.4683 201.206 18.901C201.773 18.3337 202.057 17.59 202.057 16.67C202.057 15.8113 201.758 15.1213 201.16 14.6C200.577 14.0633 199.527 13.795 198.009 13.795H194.858ZM214.785 6.665C213.021 6.665 211.634 7.25533 210.622 8.436C209.61 9.61667 209.104 11.2343 209.104 13.289C209.104 15.3283 209.571 16.946 210.507 18.142C211.457 19.3227 212.876 19.913 214.762 19.913C215.482 19.913 216.165 19.8517 216.809 19.729C217.453 19.6063 218.081 19.453 218.695 19.269V21.063C218.081 21.293 217.445 21.4617 216.786 21.569C216.142 21.6763 215.367 21.73 214.463 21.73C212.791 21.73 211.396 21.385 210.277 20.695C209.157 20.005 208.314 19.0237 207.747 17.751C207.195 16.4783 206.919 14.9833 206.919 13.266C206.919 11.61 207.218 10.1533 207.816 8.896C208.429 7.62333 209.326 6.63433 210.507 5.929C211.687 5.20833 213.121 4.848 214.808 4.848C216.54 4.848 218.051 5.17 219.339 5.814L218.511 7.562C218.005 7.332 217.437 7.125 216.809 6.941C216.195 6.757 215.521 6.665 214.785 6.665Z" fill="#002C71"/>
      <path id="Invasives BC_2" d="M71.06 36.184C71.06 36.944 70.784 37.54 70.232 37.972C69.68 38.404 68.924 38.62 67.964 38.62C67.5 38.62 67.06 38.58 66.644 38.5C66.236 38.428 65.888 38.32 65.6 38.176V36.952C65.92 37.096 66.296 37.228 66.728 37.348C67.16 37.46 67.6 37.516 68.048 37.516C68.624 37.516 69.056 37.404 69.344 37.18C69.632 36.956 69.776 36.656 69.776 36.28C69.776 36.016 69.708 35.796 69.572 35.62C69.444 35.436 69.24 35.268 68.96 35.116C68.68 34.964 68.312 34.796 67.856 34.612C67.432 34.452 67.056 34.264 66.728 34.048C66.408 33.832 66.156 33.564 65.972 33.244C65.788 32.924 65.696 32.532 65.696 32.068C65.696 31.364 65.952 30.812 66.464 30.412C66.976 30.012 67.648 29.812 68.48 29.812C68.944 29.812 69.372 29.86 69.764 29.956C70.164 30.044 70.544 30.168 70.904 30.328L70.496 31.396C70.168 31.26 69.832 31.148 69.488 31.06C69.152 30.972 68.804 30.928 68.444 30.928C67.972 30.928 67.612 31.032 67.364 31.24C67.116 31.448 66.992 31.72 66.992 32.056C66.992 32.32 67.052 32.544 67.172 32.728C67.292 32.904 67.484 33.064 67.748 33.208C68.012 33.352 68.36 33.512 68.792 33.688C69.272 33.88 69.68 34.084 70.016 34.3C70.36 34.508 70.62 34.764 70.796 35.068C70.972 35.364 71.06 35.736 71.06 36.184ZM75.0217 37.588C75.1897 37.588 75.3617 37.576 75.5377 37.552C75.7137 37.52 75.8657 37.48 75.9937 37.432V38.392C75.8497 38.456 75.6617 38.508 75.4297 38.548C75.2057 38.596 74.9777 38.62 74.7457 38.62C74.3937 38.62 74.0697 38.56 73.7737 38.44C73.4777 38.32 73.2417 38.112 73.0657 37.816C72.8977 37.52 72.8137 37.108 72.8137 36.58V33.004H71.9137V32.428L72.8617 31.948L73.3057 30.58H74.0857V32.032H75.9337V33.004H74.0857V36.556C74.0857 36.908 74.1697 37.168 74.3377 37.336C74.5137 37.504 74.7417 37.588 75.0217 37.588ZM82.9554 32.032V38.5H81.9354L81.7554 37.648H81.6954C81.4874 37.984 81.1994 38.232 80.8314 38.392C80.4634 38.544 80.0754 38.62 79.6674 38.62C78.9074 38.62 78.3274 38.432 77.9274 38.056C77.5274 37.68 77.3274 37.084 77.3274 36.268V32.032H78.6114V36.076C78.6114 37.076 79.0474 37.576 79.9194 37.576C80.5834 37.576 81.0434 37.38 81.2994 36.988C81.5554 36.596 81.6834 36.036 81.6834 35.308V32.032H82.9554ZM87.266 38.62C86.49 38.62 85.862 38.34 85.382 37.78C84.91 37.22 84.674 36.388 84.674 35.284C84.674 34.172 84.914 33.332 85.394 32.764C85.874 32.196 86.506 31.912 87.29 31.912C87.778 31.912 88.178 32.004 88.49 32.188C88.802 32.372 89.054 32.596 89.246 32.86H89.318C89.302 32.756 89.282 32.596 89.258 32.38C89.234 32.164 89.222 31.972 89.222 31.804V29.38H90.494V38.5H89.498L89.282 37.636H89.222C89.038 37.916 88.79 38.152 88.478 38.344C88.166 38.528 87.762 38.62 87.266 38.62ZM87.566 37.576C88.19 37.576 88.63 37.404 88.886 37.06C89.142 36.708 89.27 36.184 89.27 35.488V35.296C89.27 34.544 89.146 33.968 88.898 33.568C88.658 33.16 88.21 32.956 87.554 32.956C87.034 32.956 86.642 33.168 86.378 33.592C86.114 34.008 85.982 34.58 85.982 35.308C85.982 36.036 86.114 36.596 86.378 36.988C86.642 37.38 87.038 37.576 87.566 37.576ZM95.1314 31.912C95.9794 31.912 96.6474 32.176 97.1354 32.704C97.6234 33.224 97.8674 33.936 97.8674 34.84V35.536H93.5234C93.5394 36.2 93.7114 36.708 94.0394 37.06C94.3754 37.412 94.8434 37.588 95.4434 37.588C95.8594 37.588 96.2274 37.552 96.5474 37.48C96.8754 37.4 97.2114 37.284 97.5554 37.132V38.188C97.2274 38.332 96.8994 38.44 96.5714 38.512C96.2434 38.584 95.8514 38.62 95.3954 38.62C94.7634 38.62 94.2074 38.496 93.7274 38.248C93.2554 38 92.8834 37.632 92.6114 37.144C92.3474 36.648 92.2154 36.04 92.2154 35.32C92.2154 34.592 92.3354 33.976 92.5754 33.472C92.8234 32.968 93.1634 32.584 93.5954 32.32C94.0354 32.048 94.5474 31.912 95.1314 31.912ZM95.1314 32.896C94.6754 32.896 94.3074 33.044 94.0274 33.34C93.7554 33.636 93.5954 34.056 93.5474 34.6H96.5954C96.5874 34.096 96.4634 33.688 96.2234 33.376C95.9914 33.056 95.6274 32.896 95.1314 32.896ZM102.831 31.912C103.583 31.912 104.159 32.1 104.559 32.476C104.959 32.852 105.159 33.456 105.159 34.288V38.5H103.899V34.468C103.899 33.46 103.455 32.956 102.567 32.956C101.903 32.956 101.447 33.152 101.199 33.544C100.951 33.936 100.827 34.5 100.827 35.236V38.5H99.5546V32.032H100.563L100.743 32.896H100.815C101.023 32.56 101.307 32.312 101.667 32.152C102.035 31.992 102.423 31.912 102.831 31.912ZM109.541 37.588C109.709 37.588 109.881 37.576 110.057 37.552C110.233 37.52 110.385 37.48 110.513 37.432V38.392C110.369 38.456 110.181 38.508 109.949 38.548C109.725 38.596 109.497 38.62 109.265 38.62C108.913 38.62 108.589 38.56 108.293 38.44C107.997 38.32 107.761 38.112 107.585 37.816C107.417 37.52 107.333 37.108 107.333 36.58V33.004H106.433V32.428L107.381 31.948L107.825 30.58H108.605V32.032H110.453V33.004H108.605V36.556C108.605 36.908 108.689 37.168 108.857 37.336C109.033 37.504 109.261 37.588 109.541 37.588ZM120.608 38.5L119.696 36.028H116.384L115.472 38.5H114.128L117.38 29.896H118.724L121.964 38.5H120.608ZM118.472 32.488C118.448 32.4 118.404 32.268 118.34 32.092C118.284 31.916 118.228 31.732 118.172 31.54C118.116 31.348 118.072 31.192 118.04 31.072C117.976 31.32 117.904 31.584 117.824 31.864C117.744 32.144 117.68 32.352 117.632 32.488L116.768 34.9H119.336L118.472 32.488ZM126.304 31.912C127.08 31.912 127.704 32.192 128.176 32.752C128.656 33.312 128.896 34.148 128.896 35.26C128.896 36.356 128.656 37.192 128.176 37.768C127.696 38.336 127.068 38.62 126.292 38.62C125.796 38.62 125.392 38.532 125.08 38.356C124.776 38.172 124.532 37.956 124.348 37.708H124.264C124.288 37.852 124.308 38.024 124.324 38.224C124.34 38.416 124.348 38.588 124.348 38.74V41.38H123.076V32.032H124.108L124.288 32.896H124.348C124.532 32.624 124.776 32.392 125.08 32.2C125.392 32.008 125.8 31.912 126.304 31.912ZM126.004 32.956C125.404 32.956 124.98 33.132 124.732 33.484C124.484 33.828 124.356 34.352 124.348 35.056V35.248C124.348 35.992 124.468 36.568 124.708 36.976C124.948 37.376 125.388 37.576 126.028 37.576C126.556 37.576 126.948 37.36 127.204 36.928C127.46 36.496 127.588 35.932 127.588 35.236C127.588 34.532 127.46 33.976 127.204 33.568C126.948 33.16 126.548 32.956 126.004 32.956ZM133.845 31.912C134.621 31.912 135.245 32.192 135.717 32.752C136.197 33.312 136.437 34.148 136.437 35.26C136.437 36.356 136.197 37.192 135.717 37.768C135.237 38.336 134.609 38.62 133.833 38.62C133.337 38.62 132.933 38.532 132.621 38.356C132.317 38.172 132.073 37.956 131.889 37.708H131.805C131.829 37.852 131.849 38.024 131.865 38.224C131.881 38.416 131.889 38.588 131.889 38.74V41.38H130.617V32.032H131.649L131.829 32.896H131.889C132.073 32.624 132.317 32.392 132.621 32.2C132.933 32.008 133.341 31.912 133.845 31.912ZM133.545 32.956C132.945 32.956 132.521 33.132 132.273 33.484C132.025 33.828 131.897 34.352 131.889 35.056V35.248C131.889 35.992 132.009 36.568 132.249 36.976C132.489 37.376 132.929 37.576 133.569 37.576C134.097 37.576 134.489 37.36 134.745 36.928C135.001 36.496 135.129 35.932 135.129 35.236C135.129 34.532 135.001 33.976 134.745 33.568C134.489 33.16 134.089 32.956 133.545 32.956ZM139.43 38.5H138.158V29.38H139.43V38.5ZM142.176 29.572C142.368 29.572 142.536 29.628 142.68 29.74C142.824 29.852 142.896 30.04 142.896 30.304C142.896 30.56 142.824 30.748 142.68 30.868C142.536 30.98 142.368 31.036 142.176 31.036C141.968 31.036 141.792 30.98 141.648 30.868C141.512 30.748 141.444 30.56 141.444 30.304C141.444 30.04 141.512 29.852 141.648 29.74C141.792 29.628 141.968 29.572 142.176 29.572ZM142.8 32.032V38.5H141.528V32.032H142.8ZM147.502 38.62C146.606 38.62 145.886 38.356 145.342 37.828C144.798 37.292 144.526 36.452 144.526 35.308C144.526 34.508 144.658 33.86 144.922 33.364C145.186 32.868 145.55 32.504 146.014 32.272C146.478 32.032 147.006 31.912 147.598 31.912C147.958 31.912 148.294 31.952 148.606 32.032C148.926 32.104 149.19 32.188 149.398 32.284L149.014 33.316C148.79 33.228 148.55 33.152 148.294 33.088C148.046 33.024 147.81 32.992 147.586 32.992C146.418 32.992 145.834 33.76 145.834 35.296C145.834 36.032 145.978 36.592 146.266 36.976C146.554 37.36 146.978 37.552 147.538 37.552C147.898 37.552 148.214 37.512 148.486 37.432C148.766 37.352 149.022 37.248 149.254 37.12V38.224C149.022 38.36 148.77 38.46 148.498 38.524C148.226 38.588 147.894 38.62 147.502 38.62ZM153.388 31.912C154.196 31.912 154.8 32.092 155.2 32.452C155.608 32.804 155.812 33.36 155.812 34.12V38.5H154.912L154.66 37.6H154.612C154.332 37.952 154.036 38.212 153.724 38.38C153.42 38.54 152.996 38.62 152.452 38.62C151.868 38.62 151.384 38.464 151 38.152C150.616 37.832 150.424 37.336 150.424 36.664C150.424 36.008 150.672 35.508 151.168 35.164C151.664 34.82 152.428 34.632 153.46 34.6L154.564 34.564V34.204C154.564 33.732 154.456 33.4 154.24 33.208C154.024 33.008 153.72 32.908 153.328 32.908C153 32.908 152.684 32.956 152.38 33.052C152.076 33.148 151.784 33.264 151.504 33.4L151.096 32.476C151.4 32.316 151.748 32.184 152.14 32.08C152.54 31.968 152.956 31.912 153.388 31.912ZM153.688 35.416C152.952 35.448 152.44 35.572 152.152 35.788C151.872 35.996 151.732 36.292 151.732 36.676C151.732 37.012 151.832 37.256 152.032 37.408C152.232 37.56 152.492 37.636 152.812 37.636C153.308 37.636 153.72 37.496 154.048 37.216C154.384 36.936 154.552 36.516 154.552 35.956V35.392L153.688 35.416ZM160.199 37.588C160.367 37.588 160.539 37.576 160.715 37.552C160.891 37.52 161.043 37.48 161.171 37.432V38.392C161.027 38.456 160.839 38.508 160.607 38.548C160.383 38.596 160.155 38.62 159.923 38.62C159.571 38.62 159.247 38.56 158.951 38.44C158.655 38.32 158.419 38.112 158.243 37.816C158.075 37.52 157.991 37.108 157.991 36.58V33.004H157.091V32.428L158.039 31.948L158.483 30.58H159.263V32.032H161.111V33.004H159.263V36.556C159.263 36.908 159.347 37.168 159.515 37.336C159.691 37.504 159.919 37.588 160.199 37.588ZM163.213 29.572C163.405 29.572 163.573 29.628 163.717 29.74C163.861 29.852 163.933 30.04 163.933 30.304C163.933 30.56 163.861 30.748 163.717 30.868C163.573 30.98 163.405 31.036 163.213 31.036C163.005 31.036 162.829 30.98 162.685 30.868C162.549 30.748 162.481 30.56 162.481 30.304C162.481 30.04 162.549 29.852 162.685 29.74C162.829 29.628 163.005 29.572 163.213 29.572ZM163.837 32.032V38.5H162.565V32.032H163.837ZM171.634 35.26C171.634 36.332 171.358 37.16 170.806 37.744C170.254 38.328 169.51 38.62 168.574 38.62C167.99 38.62 167.47 38.488 167.014 38.224C166.566 37.96 166.21 37.58 165.946 37.084C165.69 36.58 165.562 35.972 165.562 35.26C165.562 34.188 165.834 33.364 166.378 32.788C166.922 32.204 167.666 31.912 168.61 31.912C169.202 31.912 169.722 32.044 170.17 32.308C170.626 32.564 170.982 32.94 171.238 33.436C171.502 33.932 171.634 34.54 171.634 35.26ZM166.87 35.26C166.87 35.988 167.006 36.556 167.278 36.964C167.558 37.372 167.998 37.576 168.598 37.576C169.198 37.576 169.634 37.372 169.906 36.964C170.186 36.556 170.326 35.988 170.326 35.26C170.326 34.524 170.186 33.96 169.906 33.568C169.626 33.168 169.186 32.968 168.586 32.968C167.986 32.968 167.55 33.168 167.278 33.568C167.006 33.96 166.87 34.524 166.87 35.26ZM176.623 31.912C177.375 31.912 177.951 32.1 178.351 32.476C178.751 32.852 178.951 33.456 178.951 34.288V38.5H177.691V34.468C177.691 33.46 177.247 32.956 176.359 32.956C175.695 32.956 175.239 33.152 174.991 33.544C174.743 33.936 174.619 34.5 174.619 35.236V38.5H173.347V32.032H174.355L174.535 32.896H174.607C174.815 32.56 175.099 32.312 175.459 32.152C175.827 31.992 176.215 31.912 176.623 31.912Z" fill="#454F5B"/>
    </g>
  </g>
</svg>
