<svg width="57" height="40" viewBox="0 0 57 40" fill="none" xmlns="http://www.w3.org/2000/svg">
<path fill-rule="evenodd" clip-rule="evenodd" d="M7.21821 30.1955C7.21821 30.5469 7.23934 31.0444 7.44313 31.259C7.64692 31.4833 7.96839 31.5325 8.28985 31.5325C9.24382 31.5325 9.9726 31.1423 9.9726 30.1666C9.9726 29.3955 9.54389 28.4977 7.83975 28.4977C7.261 28.4977 7.21821 28.556 7.21821 28.7512V30.1955ZM7.21821 27.9329C7.21821 28.2067 7.22864 28.2259 7.77556 28.2067C8.8686 28.1667 9.4583 27.8743 9.4583 26.957C9.4583 26.0005 8.6755 25.6397 7.86114 25.6397C7.62526 25.6397 7.46453 25.6591 7.36798 25.6981C7.261 25.7273 7.21821 25.7767 7.21821 25.9521V27.9329ZM6.33999 26.634C6.33999 25.9116 6.28998 25.72 5.80751 25.6816L5.47187 25.6578C5.41732 25.6143 5.43283 25.4184 5.48257 25.4138C6.06132 25.3619 6.79036 25.3359 7.78712 25.3359C8.46241 25.3359 9.1056 25.3846 9.58807 25.6089C10.0489 25.8138 10.4027 26.204 10.4027 26.8292C10.4027 27.5313 9.95233 27.8927 9.3094 28.1654C9.3094 28.2632 9.39524 28.2932 9.51319 28.3122C10.0919 28.4097 10.9493 28.8976 10.9493 29.9416C10.9493 31.074 10.0275 31.8351 8.09788 31.8351C7.78712 31.8351 7.26213 31.8062 6.81176 31.8062C6.33999 31.8062 5.97573 31.8259 5.57912 31.8351C5.51493 31.8062 5.49327 31.65 5.55772 31.5911L5.75082 31.5622C6.31859 31.4743 6.33999 31.3668 6.33999 30.3422V26.634V26.634Z" fill="#142E5C"/>
<path fill-rule="evenodd" clip-rule="evenodd" d="M18.3985 27.5971C18.3985 26.7128 18.3803 26.5717 17.8401 26.5298L17.6112 26.5131C17.5564 26.4798 17.5748 26.3296 17.6294 26.3047C18.0875 26.3212 18.3985 26.3296 18.7831 26.3296C19.1495 26.3296 19.4605 26.3212 19.9184 26.3047C19.9735 26.3296 19.9917 26.4798 19.9369 26.5131L19.7077 26.5298C19.1677 26.5717 19.1495 26.7128 19.1495 27.5971V30.5639C19.1495 31.4479 19.1677 31.5647 19.7077 31.6228L19.9369 31.6477C19.9917 31.6809 19.9735 31.8309 19.9184 31.856C19.4605 31.8393 19.1495 31.8309 18.7831 31.8309C18.3985 31.8309 18.0875 31.8393 17.6294 31.856C17.5748 31.8309 17.5564 31.6979 17.6112 31.6477L17.8401 31.6228C18.3803 31.5647 18.3985 31.4479 18.3985 30.5639V27.5971" fill="#142E5C"/>
<path fill-rule="evenodd" clip-rule="evenodd" d="M23.4795 30.5797C23.4795 31.4554 23.4966 31.58 23.9941 31.6219L24.269 31.6467C24.3201 31.68 24.3032 31.83 24.2516 31.8551C23.7625 31.8384 23.4712 31.83 23.1278 31.83C22.7847 31.83 22.4844 31.8384 21.9353 31.8551C21.884 31.83 21.8668 31.6886 21.9353 31.6467L22.2442 31.6219C22.7334 31.58 22.7762 31.4554 22.7762 30.5797V26.8535C22.7762 26.5954 22.7762 26.5873 22.5189 26.5873H22.0468C21.678 26.5873 21.2063 26.6038 20.9918 26.7957C20.7858 26.9792 20.7 27.1624 20.6059 27.3705C20.5371 27.4208 20.4173 27.3789 20.3828 27.3127C20.52 26.9373 20.6489 26.4038 20.7088 26.0703C20.7345 26.054 20.846 26.0454 20.8717 26.0703C20.9233 26.337 21.2063 26.3286 21.601 26.3286H25.0751C25.538 26.3286 25.6153 26.3119 25.7442 26.0954C25.787 26.0784 25.8814 26.0873 25.8985 26.1205C25.8044 26.4622 25.7442 27.1373 25.7699 27.3873C25.7357 27.454 25.5896 27.454 25.5471 27.404C25.5214 27.1954 25.4613 26.8873 25.3326 26.7957C25.135 26.6538 24.8092 26.5873 24.3375 26.5873H23.7282C23.4712 26.5873 23.4795 26.5954 23.4795 26.8705V30.5797" fill="#142E5C"/>
<path fill-rule="evenodd" clip-rule="evenodd" d="M27.1563 27.5971C27.1563 26.7128 27.1381 26.5717 26.5982 26.5298L26.369 26.5131C26.3141 26.4798 26.3326 26.3296 26.3874 26.3047C26.8453 26.3212 27.1563 26.3296 27.5412 26.3296C27.907 26.3296 28.2186 26.3212 28.6765 26.3047C28.7313 26.3296 28.7495 26.4798 28.6949 26.5131L28.4657 26.5298C27.9258 26.5717 27.907 26.7128 27.907 27.5971V30.5639C27.907 31.4479 27.9258 31.5647 28.4657 31.6228L28.6949 31.6477C28.7495 31.6809 28.7313 31.8309 28.6765 31.856C28.2186 31.8393 27.907 31.8309 27.5412 31.8309C27.1563 31.8309 26.8453 31.8393 26.3874 31.856C26.3326 31.8309 26.3141 31.6979 26.369 31.6477L26.5982 31.6228C27.1381 31.5647 27.1563 31.4479 27.1563 30.5639V27.5971" fill="#142E5C"/>
<path fill-rule="evenodd" clip-rule="evenodd" d="M31.2577 31.9366C30.4402 31.9366 29.9245 31.7196 29.7395 31.6285C29.6223 31.4445 29.4961 30.8528 29.4766 30.4609C29.525 30.4023 29.6713 30.3861 29.7103 30.4361C29.8561 30.8612 30.2551 31.6774 31.3842 31.6774C32.2018 31.6774 32.6008 31.2199 32.6008 30.7196C32.6008 30.3531 32.5134 29.9442 31.8025 29.5526L30.878 29.0358C30.3912 28.7607 29.8266 28.2855 29.8266 27.6018C29.8266 26.8101 30.5471 26.168 31.8124 26.168C32.1143 26.168 32.4644 26.2182 32.7174 26.2769C32.8445 26.3104 32.9803 26.3263 33.0581 26.3263C33.1459 26.5266 33.2336 26.9936 33.2336 27.3436C33.1945 27.3936 33.0389 27.4185 32.9899 27.3688C32.8637 26.9682 32.6008 26.4263 31.6664 26.4263C30.7127 26.4263 30.5084 26.9682 30.5084 27.3518C30.5084 27.8355 30.9753 28.1855 31.3356 28.3774L32.1143 28.7942C32.7273 29.1188 33.3307 29.602 33.3307 30.3945C33.3307 31.3107 32.523 31.9366 31.2577 31.9366" fill="#142E5C"/>
<path fill-rule="evenodd" clip-rule="evenodd" d="M36.1574 29.1387C35.7314 29.1387 35.7137 29.1558 35.7137 29.4055V30.5806C35.7137 31.4563 35.7581 31.5731 36.255 31.6228L36.5123 31.6477C36.5658 31.6809 36.5479 31.8309 36.4947 31.856C36.0154 31.8393 35.7137 31.8309 35.3674 31.8309C34.9858 31.8309 34.6841 31.8474 34.338 31.856C34.2848 31.8309 34.2669 31.6979 34.3204 31.6477L34.4709 31.6228C34.9681 31.5396 34.9858 31.4563 34.9858 30.5806V27.5804C34.9858 26.7047 34.924 26.5636 34.4618 26.5298L34.2313 26.5131C34.1781 26.4798 34.196 26.3296 34.249 26.3047C34.6841 26.3128 34.9858 26.3296 35.3674 26.3296C35.7137 26.3296 36.0154 26.3212 36.397 26.3047C36.4503 26.3296 36.4679 26.4798 36.415 26.5131L36.2462 26.5298C35.7314 26.5798 35.7137 26.7047 35.7137 27.5804V28.5385C35.7137 28.7971 35.7314 28.8052 36.1574 28.8052H38.6957C39.122 28.8052 39.1402 28.7971 39.1402 28.5385V27.5804C39.1402 26.7047 39.122 26.5798 38.5984 26.5298L38.4299 26.5131C38.3764 26.4798 38.394 26.3296 38.4475 26.3047C38.8559 26.3212 39.1578 26.3296 39.5213 26.3296C39.8676 26.3296 40.1693 26.3212 40.5686 26.3047C40.6221 26.3296 40.6397 26.4798 40.5865 26.5131L40.3998 26.5298C39.8856 26.5798 39.8676 26.7047 39.8676 27.5804V30.5806C39.8676 31.4563 39.8856 31.5647 40.3998 31.6228L40.613 31.6477C40.6665 31.6809 40.6488 31.8309 40.5953 31.856C40.1693 31.8393 39.8676 31.8309 39.5213 31.8309C39.1578 31.8309 38.8383 31.8393 38.4475 31.856C38.394 31.8309 38.3764 31.6979 38.4299 31.6477L38.5984 31.6228C39.1402 31.5396 39.1402 31.4563 39.1402 30.5806V29.4055C39.1402 29.1558 39.122 29.1387 38.6957 29.1387H36.1574" fill="#142E5C"/>
<path fill-rule="evenodd" clip-rule="evenodd" d="M1.25965 33.6833C1.98897 33.1097 2.91859 32.8281 3.95761 32.8281C4.49757 32.8281 5.25711 32.9384 5.72673 33.0695C5.84682 33.1 5.91662 33.12 6.00648 33.1097C6.01664 33.3414 6.06665 33.9754 6.14635 34.5892C6.09634 34.6597 5.94657 34.6697 5.87677 34.6095C5.72673 33.9249 5.2769 33.14 3.8279 33.14C2.29893 33.14 0.999698 34.116 0.999698 36.1992C0.999698 38.3127 2.32862 39.4806 3.9675 39.4806C5.25711 39.4806 5.82649 38.6346 6.05649 38.0408C6.12656 37.9906 6.27659 38.0108 6.31644 38.0814C6.24664 38.6049 5.98669 39.2689 5.83665 39.4603C5.71657 39.4806 5.59702 39.5206 5.48684 39.5608C5.267 39.6414 4.54732 39.7922 3.90786 39.7922C3.00845 39.7922 2.1489 39.6111 1.41931 39.1176C0.61993 38.5643 0 37.6487 0 36.3503C0 35.2333 0.499849 34.2773 1.25965 33.6833" fill="#142E5C"/>
<path fill-rule="evenodd" clip-rule="evenodd" d="M11.9458 37.1129C11.9458 35.7375 11.3133 34.2537 9.65916 34.2537C8.75841 34.2537 7.58943 34.8456 7.58943 36.6716C7.58943 37.9048 8.21283 39.5056 9.91884 39.5056C10.9584 39.5056 11.9458 38.7554 11.9458 37.1129ZM6.72266 36.9388C6.72266 35.272 8.02162 33.9961 9.806 33.9961C11.8065 33.9961 12.811 35.3883 12.811 36.8553C12.811 38.5393 11.4775 39.7645 9.806 39.7645C7.88335 39.7645 6.72266 38.4396 6.72266 36.9388V36.9388Z" fill="#142E5C"/>
<path fill-rule="evenodd" clip-rule="evenodd" d="M22.5857 36.2228C22.5857 35.7063 22.568 34.7479 22.4193 34.4974C22.3584 34.3979 22.2008 34.3387 21.9823 34.3222L21.7638 34.3057C21.7114 34.2468 21.7288 34.1393 21.7812 34.1055C22.1134 34.1222 22.437 34.1306 22.778 34.1306C23.1452 34.1306 23.3813 34.1222 23.6961 34.1055C23.7659 34.1474 23.7574 34.2555 23.7138 34.3057L23.5038 34.3222C23.2851 34.3387 23.1187 34.4141 23.0666 34.5225C22.9443 34.7976 22.9443 35.7563 22.9443 36.2228V37.1652C22.9443 37.8901 22.8216 38.6571 22.3322 39.1574C21.9561 39.5487 21.3092 39.7655 20.662 39.7655C20.0586 39.7655 19.4556 39.6571 19.0274 39.3071C18.5636 38.9406 18.3451 38.332 18.3451 37.3401V35.3722C18.3451 34.5057 18.3275 34.3641 17.8204 34.3222L17.6019 34.3057C17.5495 34.2728 17.5671 34.1306 17.6193 34.1055C18.0566 34.1222 18.3537 34.1306 18.7038 34.1306C19.0621 34.1306 19.3504 34.1222 19.7792 34.1055C19.8313 34.1306 19.849 34.2728 19.7965 34.3057L19.5866 34.3222C19.0795 34.3641 19.0621 34.5057 19.0621 35.3722V37.173C19.0621 38.5152 19.4991 39.3987 20.8369 39.3987C22.1046 39.3987 22.5857 38.4487 22.5857 37.1814V36.2228" fill="#142E5C"/>
<path fill-rule="evenodd" clip-rule="evenodd" d="M33.5408 38.2549C33.5408 38.5574 33.5601 38.9871 33.7435 39.1722C33.9273 39.366 34.2169 39.4082 34.5068 39.4082C35.3669 39.4082 36.0243 39.0714 36.0243 38.2295C36.0243 37.5647 35.6376 36.7898 34.1011 36.7898C33.5793 36.7898 33.5408 36.8403 33.5408 37.0084V38.2549ZM33.5408 36.3021C33.5408 36.538 33.5504 36.5545 34.0431 36.538C35.0289 36.5042 35.5605 36.2518 35.5605 35.4596C35.5605 34.6348 34.855 34.3234 34.1206 34.3234C33.9077 34.3234 33.7631 34.3407 33.6756 34.374C33.5793 34.3994 33.5408 34.4415 33.5408 34.5929V36.3021ZM32.7488 35.1822C32.7488 34.5595 32.71 34.3993 32.2752 34.3655L31.9657 34.3352C31.9307 34.3033 31.912 34.1344 31.9756 34.1298C32.4974 34.0903 33.1545 34.0625 34.0534 34.0625C34.6621 34.0625 35.2416 34.1049 35.677 34.2982C36.0923 34.4749 36.4111 34.8117 36.4111 35.3506C36.4111 35.9571 36.0052 36.2684 35.4256 36.5041C35.4256 36.5882 35.5026 36.6139 35.6091 36.6303C36.1311 36.7147 36.904 37.1355 36.904 38.0363C36.904 39.013 36.0731 39.6693 34.3331 39.6693C34.0534 39.6693 33.5797 39.6441 33.174 39.6441C32.7488 39.6441 32.4201 39.6612 32.0623 39.6693C32.0042 39.6441 31.9852 39.5098 32.043 39.4598L32.2171 39.4339C32.7293 39.3582 32.7488 39.2655 32.7488 38.3817V35.1822V35.1822Z" fill="#142E5C"/>
<path fill-rule="evenodd" clip-rule="evenodd" d="M13.6612 28.9062C13.4951 28.9062 13.1624 28.9689 13.1624 28.7456V27.1467C13.1624 26.5218 13.1825 26.4321 13.9249 26.4321C14.7952 26.4321 15.3327 26.8786 15.3327 27.7005C15.3327 28.0575 15.2057 28.3878 14.8831 28.6116C14.5117 28.8705 14.1108 28.9062 13.6612 28.9062ZM16.999 31.6452L16.77 31.6252C16.7238 31.6203 16.6829 31.6146 16.6435 31.6081C16.3087 31.5481 16.1745 31.2465 16.0167 30.9671L15.2253 29.5735C15.0884 29.3414 14.9418 29.0287 14.6289 28.9841C15.4401 28.886 16.1734 28.4125 16.1734 27.5998C16.1734 26.6616 15.2545 26.2422 14.3256 26.2422C13.7685 26.2422 13.2607 26.2571 12.6937 26.2571C12.3808 26.2571 12.009 26.2422 11.6961 26.2422C11.5226 26.2422 11.5204 26.2781 11.5204 26.376C11.5204 26.5211 11.5809 26.4808 11.7651 26.4908C12.4252 26.5284 12.4 26.653 12.4 27.2246V30.8779C12.4 31.4003 12.4447 31.5565 11.9015 31.606C11.9015 31.606 11.8184 31.6146 11.7713 31.6195L11.541 31.6435C11.4859 31.6935 11.5044 31.8268 11.5597 31.8516C11.6817 31.8473 11.8986 31.8384 11.8986 31.8384C12.1995 31.8295 12.5001 31.8065 12.8012 31.8065C13.1032 31.8065 13.3925 31.83 13.6897 31.8384V31.8389C13.7953 31.8427 13.9068 31.8457 14.0288 31.8506C14.0841 31.8257 14.1023 31.6919 14.0475 31.6422L13.8159 31.62C13.7685 31.6154 13.6875 31.6073 13.6875 31.6073C13.1387 31.5698 13.1722 31.4138 13.1722 30.8779V29.5025C13.1722 29.4214 13.1625 29.2076 13.2211 29.1449C13.2703 29.0908 13.358 29.1003 13.4361 29.1003C14.1793 29.1003 14.1694 29.1716 14.5214 29.7968L15.4791 31.5387C15.5575 31.6727 15.6163 31.8427 15.8118 31.8427H16.6435C16.7487 31.8457 16.8591 31.8492 16.9808 31.8535C17.0356 31.8289 17.0541 31.6954 16.999 31.6452V31.6452Z" fill="#142E5C"/>
<path fill-rule="evenodd" clip-rule="evenodd" d="M13.8416 35.4001C13.8416 34.5253 13.8234 34.3918 13.2519 34.3501L13.0248 34.3331C12.9708 34.2999 12.9887 34.1504 13.0433 34.125C13.5514 34.1415 13.8598 34.1499 14.2227 34.1499C14.5765 34.1499 14.8849 34.1415 15.3387 34.1253C15.3933 34.1504 15.4112 34.2999 15.3569 34.3331L15.1392 34.3501C14.6038 34.3918 14.5856 34.5253 14.5856 35.4001V38.3012C14.5856 38.8261 14.6129 39.0428 14.776 39.2015C14.8758 39.2931 15.0483 39.3931 15.7653 39.3931C16.5363 39.3931 16.7267 39.3601 16.8722 39.2847C17.0538 39.1847 17.2894 38.885 17.471 38.4593C17.5253 38.418 17.6978 38.4515 17.6978 38.5093C17.6978 38.6015 17.4437 39.452 17.3167 39.6764C16.854 39.6599 15.9918 39.6515 15.0574 39.6515H14.2227C13.8416 39.6515 13.5514 39.6599 13.0433 39.6764C12.9887 39.6515 12.9708 39.518 13.0248 39.4682L13.2973 39.4431C13.8234 39.3931 13.8416 39.2761 13.8416 38.4012V35.4001" fill="#142E5C"/>
<path fill-rule="evenodd" clip-rule="evenodd" d="M38.1501 35.4169C38.1501 34.5331 38.1322 34.3918 37.6064 34.3501L37.3839 34.3331C37.3304 34.2999 37.3481 34.1504 37.4018 34.125C37.8474 34.1415 38.1501 34.1499 38.524 34.1499C38.8805 34.1499 39.1835 34.1415 39.6288 34.1253C39.6823 34.1504 39.7 34.2999 39.6465 34.3331L39.4237 34.3501C38.8982 34.3918 38.8805 34.5331 38.8805 35.4169V38.3847C38.8805 39.268 38.8982 39.3853 39.4237 39.4431L39.6465 39.4682C39.7 39.5015 39.6823 39.6515 39.6288 39.6764C39.1835 39.6599 38.8805 39.6515 38.524 39.6515C38.1501 39.6515 37.8474 39.6599 37.4018 39.6764C37.3481 39.6515 37.3304 39.518 37.3839 39.4682L37.6064 39.4431C38.1322 39.3853 38.1501 39.268 38.1501 38.3847V35.4169" fill="#142E5C"/>
<path fill-rule="evenodd" clip-rule="evenodd" d="M31.0282 39.4418C30.9824 39.4369 30.8971 39.4294 30.8971 39.4294C30.803 39.4199 30.719 39.4067 30.6522 39.3331C30.5364 39.2094 30.5462 38.8553 30.5462 38.714V35.0612C30.5462 34.9023 30.508 34.5572 30.6233 34.4331C30.6813 34.368 30.8014 34.3566 30.9084 34.3507V34.3504C30.9734 34.345 30.9752 34.345 31.0322 34.3421L31.2611 34.3258C31.3162 34.2929 31.2978 34.1421 31.2427 34.1172C31.1204 34.1218 31.0092 34.1202 30.9035 34.1237H29.9301C29.8242 34.1237 29.7281 34.1237 29.6701 34.2388L27.687 38.4131L25.9353 34.3807C25.8775 34.2388 25.8679 34.1237 25.6847 34.1237H24.6716C24.5663 34.1204 24.4499 34.1218 24.3274 34.1172C24.2726 34.1421 24.2544 34.2929 24.3092 34.3258L24.5379 34.3421C24.5855 34.3461 24.6708 34.3521 24.6708 34.3521C25.0509 34.3769 25.0744 34.4623 25.0396 34.8664L24.7417 38.7848C24.7152 39.1777 24.6941 39.3861 24.2862 39.424C24.2862 39.424 24.2001 39.435 24.1528 39.4402L23.9239 39.4653C23.8688 39.5145 23.8872 39.6485 23.9423 39.6731C24.0629 39.6688 24.2774 39.6626 24.2774 39.6626C24.4839 39.6526 24.6946 39.6337 24.9054 39.6337C25.1322 39.6337 25.3598 39.655 25.5871 39.6645V39.665C25.6924 39.668 25.804 39.6715 25.9265 39.6761C25.9813 39.6515 25.9995 39.518 25.9449 39.4677L25.7157 39.4429C25.6555 39.438 25.5881 39.4315 25.5881 39.4315C24.9998 39.3907 25.0126 38.9707 25.0493 38.4577L25.3287 34.8139H25.3961L27.2926 39.2977C27.3115 39.3594 27.3404 39.4656 27.4367 39.4656C27.5236 39.4656 27.5522 39.3683 27.5814 39.3064L29.7182 34.7069H29.7859V38.714C29.7859 38.8729 29.8052 39.2004 29.6412 39.3242C29.5556 39.3883 29.2778 39.4269 29.2778 39.4269C29.2393 39.4329 29.1991 39.4385 29.1539 39.4434L28.9247 39.4685C28.8699 39.5183 28.8881 39.6518 28.9432 39.6767C29.0638 39.6726 29.2778 39.6653 29.2778 39.6653C29.588 39.6567 29.9033 39.6337 30.2189 39.6337C30.4454 39.6337 30.8899 39.6558 30.8899 39.6558C30.9955 39.6585 31.1162 39.6702 31.2387 39.6748C31.2937 39.6502 31.3119 39.5164 31.2568 39.4664L31.0282 39.4418" fill="#142E5C"/>
<path fill-rule="evenodd" clip-rule="evenodd" d="M43.5009 37.4034H42.4298C42.3924 37.4034 42.0942 37.4388 42.0942 37.3502C42.0942 37.3243 42.1129 37.271 42.1222 37.2448L42.7652 35.6356C42.7839 35.5918 42.8491 35.3707 42.9235 35.3707C42.9791 35.3707 43.054 35.6005 43.0727 35.6356L43.7058 37.1383C43.7058 37.1564 43.771 37.297 43.771 37.3329C43.771 37.4302 43.5568 37.4034 43.5009 37.4034ZM45.9042 39.4659L45.8737 39.4408C45.828 39.4354 45.7876 39.4295 45.7488 39.4235C45.3923 39.343 45.2533 38.9086 45.1217 38.5997L43.286 34.2089C43.2678 34.1565 43.2314 34.043 43.1584 34.043C43.0584 34.043 43.0313 34.1651 43.0041 34.2351L41.2505 38.6176C41.1868 38.783 41.0231 39.1854 40.9049 39.3078C40.8143 39.4022 40.6966 39.4197 40.5709 39.4327C40.5709 39.4327 40.4719 39.4427 40.4246 39.4476L40.209 39.4697C40.1539 39.5195 40.1724 39.653 40.2272 39.6778C40.3497 39.6738 40.5666 39.6657 40.5666 39.6657C40.8065 39.6624 41.0464 39.6319 41.2868 39.6319C41.4885 39.6319 41.6907 39.6538 41.8926 39.6624C41.8926 39.6624 42.1095 39.6703 42.2314 39.6749C42.2865 39.65 42.3047 39.5165 42.2502 39.4665L42.021 39.4413C41.9755 39.437 41.8969 39.4286 41.8969 39.4286C41.6861 39.4054 41.4232 39.3673 41.4232 39.133C41.4232 38.9757 41.4957 38.7919 41.5503 38.6522L41.8228 37.9962C41.9589 37.6816 41.9046 37.6459 42.2678 37.6459H43.5039C43.9398 37.6459 43.8765 37.6459 44.0674 38.0927L44.3581 38.757C44.4039 38.8708 44.4852 39.0632 44.4852 39.1854C44.4852 39.4054 44.2479 39.42 44.026 39.4389C44.026 39.4389 43.9524 39.4454 43.8885 39.4497L43.6684 39.4665C43.6136 39.5162 43.6318 39.6497 43.6866 39.6743C43.8091 39.67 44.026 39.6613 44.026 39.6613C44.2846 39.6519 44.5445 39.6319 44.7943 39.6319C45.1126 39.6319 45.4308 39.6538 45.7491 39.6624C45.8534 39.6654 45.7651 39.6692 45.886 39.6738C45.9409 39.6489 45.9593 39.5154 45.9042 39.4659V39.4659Z" fill="#142E5C"/>
<path fill-rule="evenodd" clip-rule="evenodd" d="M10.1311 20.4633C15.9295 20.4633 23.9504 23.7628 29.7702 23.7628C33.9233 23.7628 37.9758 22.6425 40.2825 20.9936C40.4435 20.0249 40.5286 19.0301 40.5286 18.0155C40.5286 8.16738 32.6286 0.183594 22.8836 0.183594C13.1382 0.183594 5.23828 8.16738 5.23828 18.0155C5.23828 19.0185 5.32172 20.002 5.47925 20.9598C6.11522 20.8406 8.27776 20.4633 10.1311 20.4633" fill="#FFFFFE"/>
<path fill-rule="evenodd" clip-rule="evenodd" d="M34.2812 13.8919L34.9787 14.1843L36.5259 13.0938L34.2812 13.8919" fill="#F3B229"/>
<path fill-rule="evenodd" clip-rule="evenodd" d="M8.28703 12.6754L6.45318 12.0232L6.54491 11.7962L8.61037 12.4922L8.61946 12.4873L8.89198 12.3311L9.00056 12.2622L6.74844 11.2941L6.84338 11.0562L11.8705 13.1105L12.036 13.0411L7.05091 10.5862L7.1619 10.3551L12.4449 12.84L12.518 12.8024L7.39538 9.86649L7.50048 9.64568L14.8977 13.7132C14.9586 13.6 15.0854 13.3941 15.1507 13.2832C12.3382 10.6114 9.62424 8.60459 9.62424 8.60459C9.62424 8.60459 12.4153 10.4938 15.8596 12.2497C15.9736 12.1062 16.0666 11.9908 16.1883 11.8546L9.87777 6.24027L10.0471 6.06459L15.1405 10.4514L10.422 5.67595L10.5985 5.49108L15.8963 10.6651L10.9647 5.13405L11.1532 4.96189L15.7112 9.89459L11.5512 4.59703L11.7303 4.43243L17.0629 10.9908C17.2006 10.8703 17.3153 10.78 17.4595 10.6681C15.8465 7.14081 14.0849 4.27108 14.0849 4.27108C14.0849 4.27108 15.9597 7.06027 18.4894 9.98108C18.6442 9.89351 18.8007 9.80892 18.9609 9.73L18.9342 9.71216L15.1967 2.17486L15.4189 2.07595L18.5153 8.07135L15.9105 1.8573L16.1426 1.75297L19.1369 8.55595L16.6146 1.56027L16.8532 1.47216L19.2508 7.77108L17.3573 1.28459L17.5846 1.2L20.0777 9.24513L20.0729 9.26649L20.0791 9.26405C20.2446 9.20757 20.4134 9.15811 20.5832 9.11162C20.3933 5.2473 19.8277 1.94162 19.8277 1.94162C19.8277 1.94162 20.5278 5.21811 21.7837 8.87135C21.9589 8.84973 22.1346 8.83135 22.3122 8.81892L22.3066 8.81081H22.3283L22.316 8.79243L21.6447 0.389189L21.8872 0.381622L22.5355 7.1127L22.4243 0.365135L22.6781 0.356216L22.9321 7.7973L23.1868 0.356216L23.4408 0.365135L23.3293 7.1127L23.9773 0.381622L24.2201 0.389189L23.5489 8.79243L23.5363 8.81081H23.54L23.5382 8.81351H23.5489C23.7227 8.82459 23.8949 8.84216 24.0658 8.8627C25.3199 5.21297 26.019 1.94162 26.019 1.94162C26.019 1.94162 25.4552 5.2373 25.2642 9.09432C25.4357 9.14027 25.605 9.19027 25.7718 9.24568L28.2561 1.22838L28.484 1.31324L26.5897 7.79973L28.9878 1.50108L29.2261 1.58919L26.7039 8.58459L29.6979 1.78162L29.9306 1.88595L27.3254 8.1L30.4219 2.10459L30.6438 2.20351L26.9202 9.71351L26.9264 9.71622C27.0799 9.79189 27.2302 9.87243 27.3786 9.95595C29.8974 7.04405 31.7617 4.27108 31.7617 4.27108C31.7617 4.27108 30.0121 7.12108 28.4037 10.6314C28.5476 10.7411 28.688 10.8546 28.8247 10.9722L34.0946 4.48541L34.2744 4.65L30.1138 9.9473L34.6718 5.01486L34.8603 5.18703L29.9284 10.7184L35.2262 5.54378L35.4032 5.72892L30.6845 10.5046L35.7779 6.11757L35.9472 6.29324L29.7137 11.8443L29.7174 11.8481C29.8263 11.9705 29.9308 12.097 30.0338 12.2257C33.4565 10.4765 36.2224 8.60459 36.2224 8.60459C36.2224 8.60459 33.5349 10.5916 30.7372 13.2446C30.8137 13.3738 30.9375 13.5946 31.0081 13.7276L38.3004 9.71486L38.4063 9.93622L32.5847 13.2724L38.6395 10.4251L38.7505 10.6557L33.111 13.4327L33.2193 13.4708L38.9575 11.1254L39.053 11.3638L33.7189 13.6562L33.8186 13.6981L37.3729 12.5008L37.9089 12.1227L38.0865 12.2597L39.2563 11.8659L39.3483 12.0927L38.3363 12.4524L39.7984 13.58L40.2669 13.8441C38.3871 5.90351 31.3191 0 22.8856 0C14.3039 0 7.13623 6.1127 5.41016 14.2641C5.43235 14.2532 5.45375 14.2432 5.47595 14.2324L5.69017 14.1343L5.82148 14.0724L8.28703 12.6754" fill="#F3B229"/>
<path fill-rule="evenodd" clip-rule="evenodd" d="M5.30751 21.346C5.30751 21.346 7.94395 20.8141 10.1445 20.8141C15.9429 20.8141 23.9637 24.1133 29.7835 24.1133C34.053 24.1133 38.2165 22.9298 40.486 21.2039C40.6631 20.183 40.7561 19.1333 40.7561 18.0609C40.7561 16.6087 40.5858 15.1971 40.2654 13.8441L37.8389 12.4766L34.9925 14.4944L33.0773 13.7406C32.4288 14.0717 28.4295 16.7747 28.4295 16.7747L26.8941 15.652L25.2472 15.322L23.0507 13.7063L20.5316 15.4539C20.5316 15.4539 17.7208 17.1033 17.6243 17.1033C17.5275 17.1033 14.2334 14.4644 14.2334 14.4644L12.7156 12.8485C12.4573 13.0133 11.4247 13.492 11.4247 13.492L11.3715 13.5063L10.3729 13.1939L9.15947 12.5439L5.47439 14.2325C5.4522 14.2433 5.4308 14.2533 5.4086 14.2641C5.14945 15.4887 5.01172 16.7585 5.01172 18.0609C5.01172 19.1828 5.11388 20.2806 5.30751 21.346" fill="#142E5C"/>
<path d="M55.5 1.46286V38.6291" stroke="#F3B229" stroke-linecap="square"/>
</svg>
