<svg width="379" height="40" viewBox="0 0 379 40" fill="none"
  xmlns="http://www.w3.org/2000/svg">
  <path fill-rule="evenodd" clip-rule="evenodd" d="M7.21831 30.1957C7.21831 30.547 7.23944 31.0446 7.44323 31.2592C7.64702 31.4835 7.96848 31.5327 8.28995 31.5327C9.24391 31.5327 9.97269 31.1424 9.97269 30.1667C9.97269 29.3957 9.54398 28.4978 7.83984 28.4978C7.2611 28.4978 7.21831 28.5562 7.21831 28.7513V30.1957ZM7.21831 27.9316C7.21831 28.2054 7.22874 28.2246 7.77566 28.2054C8.86869 28.1654 9.4584 27.873 9.4584 26.9557C9.4584 25.9992 8.6756 25.6384 7.86124 25.6384C7.62536 25.6384 7.46462 25.6578 7.36808 25.6967C7.2611 25.7259 7.21831 25.7754 7.21831 25.9508V27.9316ZM6.33901 26.634C6.33901 25.9116 6.289 25.72 5.80654 25.6816L5.4709 25.6578C5.41634 25.6143 5.43185 25.4184 5.48159 25.4138C6.06034 25.3619 6.78939 25.3359 7.78614 25.3359C8.46143 25.3359 9.10463 25.3846 9.5871 25.6089C10.0479 25.8138 10.4017 26.204 10.4017 26.8292C10.4017 27.5313 9.95135 27.8927 9.30842 28.1654C9.30842 28.2632 9.39427 28.2932 9.51221 28.3122C10.091 28.4097 10.9484 28.8976 10.9484 29.9416C10.9484 31.074 10.0265 31.8351 8.09691 31.8351C7.78614 31.8351 7.26115 31.8062 6.81078 31.8062C6.33901 31.8062 5.97476 31.8259 5.57814 31.8351C5.51395 31.8062 5.49229 31.65 5.55675 31.5911L5.74984 31.5622C6.31762 31.4743 6.33901 31.3667 6.33901 30.3422V26.634Z" fill="#142E5C"/>
  <path fill-rule="evenodd" clip-rule="evenodd" d="M18.3983 27.5952C18.3983 26.7108 18.3801 26.5698 17.8399 26.5279L17.6109 26.5111C17.5561 26.4779 17.5746 26.3276 17.6291 26.3027C18.0873 26.3192 18.3983 26.3276 18.7829 26.3276C19.1493 26.3276 19.4603 26.3192 19.9182 26.3027C19.9733 26.3276 19.9914 26.4779 19.9366 26.5111L19.7074 26.5279C19.1674 26.5698 19.1493 26.7108 19.1493 27.5952V30.5619C19.1493 31.446 19.1674 31.5627 19.7074 31.6208L19.9366 31.6457C19.9914 31.6789 19.9733 31.8289 19.9182 31.8541C19.4603 31.8373 19.1493 31.8289 18.7829 31.8289C18.3983 31.8289 18.0873 31.8373 17.6291 31.8541C17.5746 31.8289 17.5561 31.696 17.6109 31.6457L17.8399 31.6208C18.3801 31.5627 18.3983 31.446 18.3983 30.5619V27.5952Z" fill="#142E5C"/>
  <path fill-rule="evenodd" clip-rule="evenodd" d="M23.4778 30.5778C23.4778 31.4534 23.4949 31.578 23.9924 31.6199L24.2673 31.6448C24.3184 31.678 24.3015 31.828 24.2499 31.8532C23.7608 31.8364 23.4695 31.828 23.1261 31.828C22.783 31.828 22.4827 31.8364 21.9336 31.8532C21.8823 31.828 21.8651 31.6867 21.9336 31.6448L22.2425 31.6199C22.7316 31.578 22.7744 31.4534 22.7744 30.5778V26.8516C22.7744 26.5934 22.7744 26.5853 22.5172 26.5853H22.0451C21.6763 26.5853 21.2046 26.6018 20.9901 26.7937C20.7841 26.9772 20.6983 27.1605 20.6042 27.3686C20.5354 27.4188 20.4156 27.377 20.3811 27.3107C20.5183 26.9353 20.6472 26.4018 20.7071 26.0683C20.7328 26.0521 20.8443 26.0434 20.87 26.0683C20.9216 26.3351 21.2046 26.3267 21.5993 26.3267H25.0734C25.5363 26.3267 25.6136 26.3099 25.7425 26.0934C25.7853 26.0764 25.8797 26.0853 25.8968 26.1186C25.8027 26.4602 25.7425 27.1353 25.7682 27.3853C25.734 27.4521 25.5879 27.4521 25.5454 27.4021C25.5197 27.1934 25.4596 26.8853 25.3309 26.7937C25.1333 26.6518 24.8075 26.5853 24.3358 26.5853H23.7265C23.4695 26.5853 23.4778 26.5934 23.4778 26.8686V30.5778Z" fill="#142E5C"/>
  <path fill-rule="evenodd" clip-rule="evenodd" d="M27.1546 27.5952C27.1546 26.7108 27.1364 26.5698 26.5965 26.5279L26.3673 26.5111C26.3124 26.4779 26.3309 26.3276 26.3857 26.3027C26.8436 26.3192 27.1546 26.3276 27.5395 26.3276C27.9053 26.3276 28.2169 26.3192 28.6748 26.3027C28.7296 26.3276 28.7478 26.4779 28.6932 26.5111L28.464 26.5279C27.924 26.5698 27.9053 26.7108 27.9053 27.5952V30.5619C27.9053 31.446 27.924 31.5627 28.464 31.6208L28.6932 31.6457C28.7478 31.6789 28.7296 31.8289 28.6748 31.8541C28.2169 31.8373 27.9053 31.8289 27.5395 31.8289C27.1546 31.8289 26.8436 31.8373 26.3857 31.8541C26.3309 31.8289 26.3124 31.696 26.3673 31.6457L26.5965 31.6208C27.1364 31.5627 27.1546 31.446 27.1546 30.5619V27.5952Z" fill="#142E5C"/>
  <path fill-rule="evenodd" clip-rule="evenodd" d="M31.2577 31.9386C30.4402 31.9386 29.9245 31.7215 29.7395 31.6305C29.6223 31.4464 29.4961 30.8548 29.4766 30.4629C29.525 30.4042 29.6713 30.388 29.7103 30.438C29.8561 30.8632 30.2551 31.6794 31.3842 31.6794C32.2018 31.6794 32.6008 31.2218 32.6008 30.7215C32.6008 30.3551 32.5134 29.9461 31.8025 29.5545L30.878 29.0378C30.3912 28.7626 29.8266 28.2875 29.8266 27.6037C29.8266 26.8121 30.5471 26.1699 31.8124 26.1699C32.1143 26.1699 32.4644 26.2202 32.7174 26.2788C32.8444 26.3124 32.9803 26.3283 33.0581 26.3283C33.1459 26.5286 33.2336 26.9956 33.2336 27.3456C33.1945 27.3956 33.0389 27.4205 32.9899 27.3707C32.8637 26.9702 32.6008 26.4283 31.6664 26.4283C30.7127 26.4283 30.5084 26.9702 30.5084 27.3537C30.5084 27.8375 30.9753 28.1875 31.3355 28.3794L32.1143 28.7961C32.7273 29.1207 33.3307 29.604 33.3307 30.3964C33.3307 31.3126 32.523 31.9386 31.2577 31.9386Z" fill="#142E5C"/>
  <path fill-rule="evenodd" clip-rule="evenodd" d="M36.1564 29.1368C35.7304 29.1368 35.7128 29.1538 35.7128 29.4035V30.5787C35.7128 31.4543 35.7572 31.5711 36.2541 31.6208L36.5113 31.6457C36.5648 31.6789 36.5469 31.8289 36.4937 31.8541C36.0144 31.8373 35.7128 31.8289 35.3664 31.8289C34.9848 31.8289 34.6831 31.8454 34.337 31.8541C34.2838 31.8289 34.2659 31.696 34.3194 31.6457L34.47 31.6208C34.9671 31.5376 34.9848 31.4543 34.9848 30.5787V27.5784C34.9848 26.7027 34.923 26.5617 34.4609 26.5279L34.2303 26.5111C34.1771 26.4779 34.195 26.3276 34.248 26.3027C34.6831 26.3108 34.9848 26.3276 35.3664 26.3276C35.7128 26.3276 36.0144 26.3192 36.3961 26.3027C36.4493 26.3276 36.467 26.4779 36.414 26.5111L36.2452 26.5279C35.7304 26.5779 35.7128 26.7027 35.7128 27.5784V28.5365C35.7128 28.7952 35.7304 28.8033 36.1564 28.8033H38.6947C39.121 28.8033 39.1392 28.7952 39.1392 28.5365V27.5784C39.1392 26.7027 39.121 26.5779 38.5974 26.5279L38.4289 26.5111C38.3754 26.4779 38.3931 26.3276 38.4466 26.3027C38.8549 26.3192 39.1569 26.3276 39.5203 26.3276C39.8667 26.3276 40.1684 26.3192 40.5676 26.3027C40.6211 26.3276 40.6388 26.4779 40.5856 26.5111L40.3989 26.5279C39.8846 26.5779 39.8667 26.7027 39.8667 27.5784V30.5787C39.8667 31.4543 39.8846 31.5627 40.3989 31.6208L40.612 31.6457C40.6655 31.6789 40.6479 31.8289 40.5944 31.8541C40.1684 31.8373 39.8667 31.8289 39.5203 31.8289C39.1569 31.8289 38.8373 31.8373 38.4466 31.8541C38.3931 31.8289 38.3754 31.696 38.4289 31.6457L38.5974 31.6208C39.1392 31.5376 39.1392 31.4543 39.1392 30.5787V29.4035C39.1392 29.1538 39.121 29.1368 38.6947 29.1368H36.1564Z" fill="#142E5C"/>
  <path fill-rule="evenodd" clip-rule="evenodd" d="M1.25965 33.6852C1.98897 33.1117 2.91859 32.8301 3.95761 32.8301C4.49757 32.8301 5.25711 32.9403 5.72673 33.0714C5.84682 33.102 5.91662 33.122 6.00648 33.1117C6.01664 33.3433 6.06665 33.9774 6.14635 34.5912C6.09634 34.6617 5.94657 34.6717 5.87677 34.6114C5.72673 33.9268 5.2769 33.142 3.8279 33.142C2.29893 33.142 0.999698 34.1179 0.999698 36.2012C0.999698 38.3147 2.32862 39.4825 3.9675 39.4825C5.25711 39.4825 5.82649 38.6366 6.05649 38.0428C6.12656 37.9925 6.27659 38.0128 6.31644 38.0833C6.24664 38.6068 5.98669 39.2709 5.83665 39.4622C5.71657 39.4825 5.59702 39.5225 5.48684 39.5628C5.267 39.6433 4.54732 39.7941 3.90786 39.7941C3.00845 39.7941 2.1489 39.613 1.41931 39.1195C0.61993 38.5663 0 37.6506 0 36.3522C0 35.2352 0.499849 34.2793 1.25965 33.6852Z" fill="#142E5C"/>
  <path fill-rule="evenodd" clip-rule="evenodd" d="M11.9481 37.1156C11.9481 35.7402 11.3156 34.2564 9.66149 34.2564C8.76074 34.2564 7.59176 34.8483 7.59176 36.6743C7.59176 37.9075 8.21516 39.5083 9.92118 39.5083C10.9607 39.5083 11.9481 38.7581 11.9481 37.1156ZM6.72534 36.9408C6.72534 35.274 8.02431 33.998 9.80868 33.998C11.8091 33.998 12.8137 35.3902 12.8137 36.8572C12.8137 38.5413 11.4802 39.7664 9.80868 39.7664C7.88604 39.7664 6.72534 38.4416 6.72534 36.9408Z" fill="#142E5C"/>
  <path fill-rule="evenodd" clip-rule="evenodd" d="M22.585 36.2228C22.585 35.7063 22.5673 34.7479 22.4186 34.4974C22.3576 34.3979 22.2001 34.3387 21.9816 34.3222L21.7631 34.3057C21.7107 34.2468 21.7281 34.1393 21.7805 34.1055C22.1127 34.1222 22.4363 34.1306 22.7773 34.1306C23.1445 34.1306 23.3806 34.1222 23.6954 34.1055C23.7652 34.1474 23.7566 34.2555 23.713 34.3057L23.5031 34.3222C23.2843 34.3387 23.118 34.4141 23.0658 34.5225C22.9436 34.7976 22.9436 35.7563 22.9436 36.2228V37.1652C22.9436 37.8901 22.8208 38.6571 22.3314 39.1574C21.9554 39.5487 21.3085 39.7655 20.6613 39.7655C20.0579 39.7655 19.4548 39.6571 19.0266 39.3071C18.5629 38.9406 18.3444 38.332 18.3444 37.3401V35.3722C18.3444 34.5057 18.3268 34.3641 17.8197 34.3222L17.6012 34.3057C17.5488 34.2728 17.5664 34.1306 17.6186 34.1055C18.0558 34.1222 18.353 34.1306 18.703 34.1306C19.0614 34.1306 19.3497 34.1222 19.7784 34.1055C19.8306 34.1306 19.8482 34.2728 19.7958 34.3057L19.5859 34.3222C19.0788 34.3641 19.0614 34.5057 19.0614 35.3722V37.173C19.0614 38.5152 19.4984 39.3987 20.8362 39.3987C22.1038 39.3987 22.585 38.4487 22.585 37.1814V36.2228Z" fill="#142E5C"/>
  <path fill-rule="evenodd" clip-rule="evenodd" d="M33.5397 38.2555C33.5397 38.5579 33.559 38.9876 33.7424 39.1728C33.9262 39.3666 34.2158 39.4087 34.5057 39.4087C35.3658 39.4087 36.0232 39.072 36.0232 38.2301C36.0232 37.5652 35.6364 36.7903 34.1 36.7903C33.5782 36.7903 33.5397 36.8409 33.5397 37.009V38.2555ZM33.5397 36.302C33.5397 36.5379 33.5493 36.5544 34.042 36.5379C35.0277 36.5041 35.5594 36.2517 35.5594 35.4595C35.5594 34.6347 34.8539 34.3233 34.1195 34.3233C33.9066 34.3233 33.7619 34.3406 33.6745 34.3738C33.5782 34.3993 33.5397 34.4414 33.5397 34.5928V36.302ZM32.7473 35.1822C32.7473 34.5595 32.7086 34.3993 32.2737 34.3655L31.9643 34.3352C31.9292 34.3033 31.9105 34.1344 31.9742 34.1298C32.4959 34.0903 33.153 34.0625 34.0519 34.0625C34.6606 34.0625 35.2402 34.1049 35.6756 34.2982C36.0909 34.4749 36.4097 34.8117 36.4097 35.3506C36.4097 35.9571 36.0037 36.2684 35.4242 36.5041C35.4242 36.5882 35.5012 36.6139 35.6076 36.6303C36.1297 36.7147 36.9026 37.1355 36.9026 38.0363C36.9026 39.013 36.0716 39.6693 34.3317 39.6693C34.0519 39.6693 33.5783 39.6441 33.1726 39.6441C32.7473 39.6441 32.4186 39.6612 32.0608 39.6693C32.0028 39.6441 31.9838 39.5098 32.0416 39.4598L32.2157 39.4339C32.7278 39.3582 32.7473 39.2655 32.7473 38.3817V35.1822Z" fill="#142E5C"/>
  <path fill-rule="evenodd" clip-rule="evenodd" d="M13.6622 28.9062C13.4961 28.9062 13.1634 28.9689 13.1634 28.7457V27.1468C13.1634 26.5219 13.1834 26.4322 13.9259 26.4322C14.7961 26.4322 15.3337 26.8787 15.3337 27.7006C15.3337 28.0576 15.2066 28.3879 14.8841 28.6117C14.5126 28.8706 14.1117 28.9062 13.6622 28.9062ZM16.9989 31.6452L16.7699 31.6252C16.7237 31.6203 16.6827 31.6146 16.6434 31.6081C16.3086 31.5481 16.1743 31.2465 16.0165 30.9671L15.2252 29.5735C15.0883 29.3414 14.9417 29.0287 14.6288 28.9841C15.4399 28.886 16.1733 28.4125 16.1733 27.5998C16.1733 26.6616 15.2543 26.2422 14.3255 26.2422C13.7684 26.2422 13.2606 26.2571 12.6936 26.2571C12.3807 26.2571 12.0089 26.2422 11.696 26.2422C11.5224 26.2422 11.5203 26.2781 11.5203 26.376C11.5203 26.5211 11.5808 26.4808 11.765 26.4908C12.4251 26.5284 12.3999 26.653 12.3999 27.2246V30.8779C12.3999 31.4003 12.4446 31.5565 11.9014 31.606C11.9014 31.606 11.8182 31.6146 11.7712 31.6195L11.5409 31.6435C11.4858 31.6935 11.5043 31.8268 11.5596 31.8516C11.6816 31.8473 11.8985 31.8384 11.8985 31.8384C12.1993 31.8295 12.4999 31.8065 12.8011 31.8065C13.103 31.8065 13.3924 31.83 13.6895 31.8384V31.8389C13.7952 31.8427 13.9067 31.8457 14.0286 31.8506C14.084 31.8257 14.1022 31.6919 14.0474 31.6422L13.8158 31.62C13.7684 31.6154 13.6874 31.6073 13.6874 31.6073C13.1386 31.5698 13.172 31.4138 13.172 30.8779V29.5025C13.172 29.4214 13.1624 29.2076 13.221 29.1449C13.2702 29.0908 13.3579 29.1003 13.436 29.1003C14.1792 29.1003 14.1693 29.1716 14.5213 29.7968L15.479 31.5387C15.5573 31.6727 15.6162 31.8427 15.8117 31.8427H16.6434C16.7485 31.8457 16.859 31.8492 16.9807 31.8535C17.0355 31.8289 17.0539 31.6954 16.9989 31.6452Z" fill="#142E5C"/>
  <path fill-rule="evenodd" clip-rule="evenodd" d="M13.8414 35.4021C13.8414 34.5272 13.8233 34.3937 13.2517 34.3521L13.0247 34.3351C12.9707 34.3018 12.9886 34.1524 13.0431 34.127C13.5513 34.1434 13.8596 34.1518 14.2226 34.1518C14.5764 34.1518 14.8847 34.1434 15.3386 34.1272C15.3931 34.1524 15.4111 34.3018 15.3568 34.3351L15.1391 34.3521C14.6037 34.3937 14.5855 34.5272 14.5855 35.4021V38.3032C14.5855 38.828 14.6127 39.0448 14.7759 39.2034C14.8756 39.2951 15.0481 39.3951 15.7652 39.3951C16.5362 39.3951 16.7266 39.3621 16.8721 39.2867C17.0537 39.1867 17.2893 38.887 17.4709 38.4613C17.5252 38.4199 17.6977 38.4534 17.6977 38.5113C17.6977 38.6034 17.4436 39.454 17.3166 39.6783C16.8539 39.6618 15.9917 39.6534 15.0572 39.6534H14.2226C13.8414 39.6534 13.5513 39.6618 13.0431 39.6783C12.9886 39.6534 12.9707 39.5199 13.0247 39.4702L13.2972 39.4451C13.8233 39.3951 13.8414 39.278 13.8414 38.4032V35.4021Z" fill="#142E5C"/>
  <path fill-rule="evenodd" clip-rule="evenodd" d="M38.1477 35.4188C38.1477 34.5351 38.1298 34.3937 37.604 34.3521L37.3815 34.3351C37.328 34.3018 37.3456 34.1524 37.3994 34.127C37.8449 34.1434 38.1477 34.1518 38.5216 34.1518C38.8781 34.1518 39.1811 34.1434 39.6264 34.1272C39.6799 34.1524 39.6975 34.3018 39.644 34.3351L39.4212 34.3521C38.8957 34.3937 38.8781 34.5351 38.8781 35.4188V38.3867C38.8781 39.2699 38.8957 39.3872 39.4212 39.4451L39.644 39.4702C39.6975 39.5034 39.6799 39.6534 39.6264 39.6783C39.1811 39.6618 38.8781 39.6534 38.5216 39.6534C38.1477 39.6534 37.8449 39.6618 37.3994 39.6783C37.3456 39.6534 37.328 39.5199 37.3815 39.4702L37.604 39.4451C38.1298 39.3872 38.1477 39.2699 38.1477 38.3867V35.4188Z" fill="#142E5C"/>
  <path fill-rule="evenodd" clip-rule="evenodd" d="M31.0292 39.4437C30.9834 39.4389 30.8981 39.4313 30.8981 39.4313C30.804 39.4218 30.72 39.4086 30.6531 39.3351C30.5373 39.2113 30.5472 38.8572 30.5472 38.7159V35.0632C30.5472 34.9043 30.509 34.5591 30.6243 34.4351C30.6823 34.37 30.8024 34.3586 30.9094 34.3527V34.3524C30.9743 34.347 30.9762 34.347 31.0332 34.344L31.2621 34.3278C31.3172 34.2948 31.2987 34.144 31.2437 34.1191C31.1214 34.1237 31.0102 34.1221 30.9045 34.1256H29.931C29.8251 34.1256 29.7291 34.1256 29.6711 34.2408L27.688 38.4151L25.9363 34.3827C25.8785 34.2408 25.8689 34.1256 25.6857 34.1256H24.6726C24.5672 34.1224 24.4509 34.1237 24.3284 34.1191C24.2736 34.144 24.2554 34.2948 24.3102 34.3278L24.5389 34.344C24.5865 34.3481 24.6718 34.354 24.6718 34.354C25.0518 34.3789 25.0754 34.4643 25.0406 34.8683L24.7427 38.7867C24.7162 39.1797 24.6951 39.3881 24.2872 39.4259C24.2872 39.4259 24.2011 39.437 24.1538 39.4421L23.9248 39.4672C23.8697 39.5164 23.8882 39.6505 23.9433 39.6751C24.0639 39.6708 24.2784 39.6645 24.2784 39.6645C24.4849 39.6545 24.6956 39.6356 24.9063 39.6356C25.1331 39.6356 25.3607 39.657 25.5881 39.6664V39.667C25.6934 39.67 25.805 39.6735 25.9274 39.6781C25.9823 39.6535 26.0005 39.52 25.9459 39.4697L25.7167 39.4448C25.6565 39.44 25.5891 39.4335 25.5891 39.4335C25.0008 39.3927 25.0136 38.9727 25.0502 38.4597L25.3297 34.8159H25.3971L27.2935 39.2997C27.3125 39.3613 27.3414 39.4675 27.4377 39.4675C27.5246 39.4675 27.5532 39.3702 27.5824 39.3083L29.7192 34.7089H29.7869V38.7159C29.7869 38.8748 29.8062 39.2024 29.6422 39.3262C29.5566 39.3902 29.2788 39.4289 29.2788 39.4289C29.2402 39.4348 29.2001 39.4405 29.1549 39.4454L28.9257 39.4705C28.8709 39.5202 28.8891 39.6537 28.9442 39.6786C29.0648 39.6745 29.2788 39.6672 29.2788 39.6672C29.589 39.6586 29.9043 39.6356 30.2199 39.6356C30.4464 39.6356 30.8909 39.6578 30.8909 39.6578C30.9965 39.6605 31.1172 39.6721 31.2396 39.6767C31.2947 39.6521 31.3129 39.5183 31.2578 39.4683L31.0292 39.4437Z" fill="#142E5C"/>
  <path fill-rule="evenodd" clip-rule="evenodd" d="M43.501 37.4022H42.4299C42.3925 37.4022 42.0943 37.4376 42.0943 37.3489C42.0943 37.323 42.113 37.2697 42.1224 37.2435L42.7653 35.6343C42.784 35.5905 42.8493 35.3695 42.9236 35.3695C42.9793 35.3695 43.0541 35.5992 43.0729 35.6343L43.7059 37.137C43.7059 37.1551 43.7712 37.2957 43.7712 37.3316C43.7712 37.4289 43.5569 37.4022 43.501 37.4022ZM45.9054 39.4659L45.8749 39.4408C45.8292 39.4354 45.7888 39.4295 45.75 39.4235C45.3935 39.343 45.2545 38.9086 45.1229 38.5997L43.2872 34.2089C43.269 34.1565 43.2326 34.043 43.1596 34.043C43.0596 34.043 43.0326 34.1651 43.0053 34.2351L41.2517 38.6176C41.188 38.783 41.0243 39.1854 40.9061 39.3078C40.8155 39.4022 40.6978 39.4197 40.5721 39.4327C40.5721 39.4327 40.4731 39.4427 40.4258 39.4476L40.2103 39.4697C40.1552 39.5195 40.1736 39.653 40.2284 39.6778C40.3509 39.6738 40.5678 39.6657 40.5678 39.6657C40.8077 39.6624 41.0476 39.6319 41.288 39.6319C41.4897 39.6319 41.6919 39.6538 41.8938 39.6624C41.8938 39.6624 42.1107 39.6703 42.2326 39.6749C42.2877 39.65 42.3059 39.5165 42.2514 39.4665L42.0222 39.4414C41.9767 39.437 41.8981 39.4286 41.8981 39.4286C41.6873 39.4054 41.4244 39.3673 41.4244 39.133C41.4244 38.9757 41.4969 38.7919 41.5515 38.6522L41.824 37.9962C41.9601 37.6816 41.9058 37.6459 42.269 37.6459H43.5051C43.9411 37.6459 43.8777 37.6459 44.0686 38.0927L44.3593 38.757C44.4051 38.8708 44.4864 39.0632 44.4864 39.1854C44.4864 39.4054 44.2492 39.42 44.0272 39.4389C44.0272 39.4389 43.9536 39.4454 43.8897 39.4497L43.6696 39.4665C43.6148 39.5162 43.633 39.6497 43.6878 39.6743C43.8103 39.67 44.0272 39.6614 44.0272 39.6614C44.2858 39.6519 44.5458 39.6319 44.7955 39.6319C45.1138 39.6319 45.4321 39.6538 45.7503 39.6624C45.8546 39.6654 45.7664 39.6692 45.8872 39.6738C45.9421 39.6489 45.9605 39.5154 45.9054 39.4659Z" fill="#142E5C"/>
  <path fill-rule="evenodd" clip-rule="evenodd" d="M10.1308 20.4633C15.9292 20.4633 23.95 23.7628 29.7698 23.7628C33.9229 23.7628 37.9755 22.6425 40.2822 20.9936C40.4432 20.0249 40.5282 19.0301 40.5282 18.0155C40.5282 8.16738 32.6282 0.183594 22.8832 0.183594C13.1379 0.183594 5.23792 8.16738 5.23792 18.0155C5.23792 19.0185 5.32136 20.002 5.47888 20.9598C6.11486 20.8406 8.27739 20.4633 10.1308 20.4633Z" fill="#FFFFFE"/>
  <path fill-rule="evenodd" clip-rule="evenodd" d="M34.2825 13.8938L34.98 14.1862L36.5271 13.0957L34.2825 13.8938Z" fill="#F3B229"/>
  <path fill-rule="evenodd" clip-rule="evenodd" d="M8.28434 12.6754L6.45049 12.0232L6.54223 11.7962L8.60768 12.4922L8.61677 12.4873L8.8893 12.3311L8.99788 12.2622L6.74575 11.2941L6.84069 11.0562L11.8678 13.1105L12.0333 13.0411L7.04823 10.5862L7.15921 10.3551L12.4423 12.84L12.5153 12.8024L7.39269 9.86649L7.4978 9.64567L14.895 13.7132C14.9559 13.6 15.0827 13.3941 15.148 13.2832C12.3356 10.6114 9.62155 8.60459 9.62155 8.60459C9.62155 8.60459 12.4126 10.4938 15.857 12.2497C15.9709 12.1062 16.064 11.9908 16.1856 11.8546L9.87509 6.24027L10.0444 6.06459L15.1378 10.4514L10.4193 5.67595L10.5958 5.49108L15.8936 10.6651L10.962 5.13405L11.1505 4.96189L15.7085 9.89459L11.5485 4.59703L11.7277 4.43243L17.0602 10.9908C17.1979 10.8703 17.3126 10.78 17.4568 10.6681C15.8439 7.14081 14.0822 4.27108 14.0822 4.27108C14.0822 4.27108 15.957 7.06027 18.4867 9.98108C18.6416 9.89351 18.798 9.80892 18.9582 9.73L18.9315 9.71216L15.194 2.17486L15.4162 2.07595L18.5127 8.07135L15.9078 1.8573L16.1399 1.75297L19.1342 8.55595L16.6119 1.56027L16.8505 1.47216L19.2481 7.77108L17.3546 1.28459L17.582 1.2L20.0751 9.24514L20.0702 9.26649L20.0764 9.26405C20.2419 9.20757 20.4107 9.15811 20.5805 9.11162C20.3906 5.2473 19.825 1.94162 19.825 1.94162C19.825 1.94162 20.5252 5.21811 21.7811 8.87135C21.9562 8.84973 22.1319 8.83135 22.3095 8.81892L22.3039 8.81081H22.3256L22.3133 8.79243L21.642 0.389189L21.8846 0.381622L22.5328 7.1127L22.4216 0.365135L22.6754 0.356216L22.9295 7.7973L23.1841 0.356216L23.4381 0.365135L23.3266 7.1127L23.9746 0.381622L24.2175 0.389189L23.5462 8.79243L23.5336 8.81081H23.5374L23.5355 8.81351H23.5462C23.72 8.82459 23.8922 8.84216 24.0631 8.8627C25.3172 5.21297 26.0163 1.94162 26.0163 1.94162C26.0163 1.94162 25.4525 5.2373 25.2616 9.09432C25.433 9.14027 25.6023 9.19027 25.7692 9.24568L28.2534 1.22838L28.4813 1.31324L26.587 7.79973L28.9851 1.50108L29.2234 1.58919L26.7012 8.58459L29.6952 1.78162L29.9279 1.88595L27.3227 8.1L30.4192 2.10459L30.6411 2.20351L26.9176 9.71351L26.9237 9.71622C27.0772 9.79189 27.2275 9.87243 27.3759 9.95595C29.8947 7.04405 31.759 4.27108 31.759 4.27108C31.759 4.27108 30.0094 7.12108 28.4011 10.6314C28.5449 10.7411 28.6853 10.8546 28.822 10.9722L34.0919 4.48541L34.2717 4.65L30.1111 9.9473L34.6691 5.01486L34.8576 5.18703L29.9257 10.7184L35.2235 5.54378L35.4005 5.72892L30.6818 10.5046L35.7752 6.11757L35.9445 6.29324L29.711 11.8443L29.7147 11.8481C29.8236 11.9705 29.9281 12.097 30.0311 12.2257C33.4538 10.4765 36.2197 8.60459 36.2197 8.60459C36.2197 8.60459 33.5322 10.5916 30.7345 13.2446C30.811 13.3738 30.9348 13.5946 31.0054 13.7276L38.2977 9.71486L38.4036 9.93622L32.582 13.2724L38.6369 10.4251L38.7478 10.6557L33.1083 13.4327L33.2166 13.4708L38.9548 11.1254L39.0503 11.3638L33.7162 13.6562L33.8159 13.6981L37.3702 12.5008L37.9062 12.1227L38.0838 12.2597L39.2536 11.8659L39.3456 12.0927L38.3336 12.4524L39.7957 13.58L40.2642 13.8441C38.3844 5.90351 31.3164 0 22.8829 0C14.3012 0 7.13354 6.1127 5.40747 14.2641C5.42967 14.2532 5.45106 14.2432 5.47326 14.2324L5.68748 14.1343L5.8188 14.0724L8.28434 12.6754Z" fill="#F3B229"/>
  <path fill-rule="evenodd" clip-rule="evenodd" d="M5.30665 21.346C5.30665 21.346 7.9431 20.8141 10.1436 20.8141C15.942 20.8141 23.9629 24.1133 29.7827 24.1133C34.0521 24.1133 38.2156 22.9298 40.4852 21.2039C40.6622 20.1831 40.7553 19.1333 40.7553 18.0609C40.7553 16.6087 40.5849 15.1971 40.2645 13.8441L37.838 12.4766L34.9916 14.4944L33.0765 13.7406C32.4279 14.0717 28.4286 16.7747 28.4286 16.7747L26.8932 15.652L25.2463 15.322L23.0498 13.7063L20.5308 15.4539C20.5308 15.4539 17.72 17.1033 17.6234 17.1033C17.5266 17.1033 14.2325 14.4644 14.2325 14.4644L12.7148 12.8485C12.4564 13.0133 11.4239 13.492 11.4239 13.492L11.3706 13.5063L10.372 13.1939L9.15862 12.5439L5.47354 14.2325C5.45134 14.2433 5.42995 14.2533 5.40775 14.2641C5.1486 15.4887 5.01086 16.7585 5.01086 18.0609C5.01086 19.1828 5.11303 20.2806 5.30665 21.346Z" fill="#142E5C"/>
  <path d="M55.5 1.46286V38.6291" stroke="#F3B229" stroke-linecap="square"/>
  <path d="M76.546 17.107C76.546 18.5637 76.017 19.6983 74.959 20.511C73.901 21.3237 72.475 21.73 70.681 21.73C69.761 21.73 68.91 21.661 68.128 21.523C67.346 21.385 66.6943 21.1933 66.173 20.948V18.97C66.725 19.2153 67.4073 19.4377 68.22 19.637C69.048 19.8363 69.899 19.936 70.773 19.936C71.9997 19.936 72.9197 19.6983 73.533 19.223C74.1617 18.7477 74.476 18.1037 74.476 17.291C74.476 16.7543 74.361 16.302 74.131 15.934C73.901 15.566 73.5023 15.2287 72.935 14.922C72.383 14.6 71.6087 14.2627 70.612 13.91C69.2167 13.404 68.1587 12.783 67.438 12.047C66.7327 11.311 66.38 10.3067 66.38 9.034C66.38 8.16 66.6023 7.41633 67.047 6.803C67.4917 6.17433 68.105 5.69133 68.887 5.354C69.6843 5.01667 70.5967 4.848 71.624 4.848C72.5287 4.848 73.3567 4.93233 74.108 5.101C74.8593 5.26967 75.5417 5.492 76.155 5.768L75.511 7.539C74.9437 7.29367 74.3227 7.08667 73.648 6.918C72.9887 6.74933 72.2987 6.665 71.578 6.665C70.5507 6.665 69.7763 6.88733 69.255 7.332C68.7337 7.76133 68.473 8.33633 68.473 9.057C68.473 9.609 68.588 10.069 68.818 10.437C69.048 10.805 69.4237 11.1347 69.945 11.426C70.4663 11.7173 71.1717 12.0317 72.061 12.369C73.027 12.7217 73.8397 13.105 74.499 13.519C75.1737 13.9177 75.6797 14.4007 76.017 14.968C76.3697 15.5353 76.546 16.2483 76.546 17.107ZM83.695 20.074C84.0017 20.074 84.316 20.051 84.638 20.005C84.96 19.9437 85.2207 19.8823 85.42 19.821V21.362C85.2054 21.4693 84.8987 21.5537 84.5 21.615C84.1014 21.6917 83.718 21.73 83.35 21.73C82.706 21.73 82.108 21.6227 81.556 21.408C81.0194 21.178 80.5824 20.787 80.245 20.235C79.9077 19.683 79.739 18.9087 79.739 17.912V10.736H77.991V9.77L79.762 8.965L80.567 6.343H81.763V9.172H85.328V10.736H81.763V17.866C81.763 18.6173 81.9394 19.177 82.292 19.545C82.66 19.8977 83.1277 20.074 83.695 20.074ZM98.1926 9.172V21.5H96.5366L96.2376 19.867H96.1456C95.7469 20.511 95.1949 20.9863 94.4896 21.293C93.7843 21.5843 93.0329 21.73 92.2356 21.73C90.7483 21.73 89.6289 21.3773 88.8776 20.672C88.1263 19.9513 87.7506 18.809 87.7506 17.245V9.172H89.7976V17.107C89.7976 19.0697 90.7099 20.051 92.5346 20.051C93.8993 20.051 94.8423 19.6677 95.3636 18.901C95.9003 18.1343 96.1686 17.0303 96.1686 15.589V9.172H98.1926ZM106.476 21.73C104.943 21.73 103.716 21.201 102.796 20.143C101.876 19.0697 101.416 17.475 101.416 15.359C101.416 13.243 101.876 11.6483 102.796 10.575C103.732 9.48633 104.966 8.942 106.499 8.942C107.45 8.942 108.224 9.11833 108.822 9.471C109.436 9.82367 109.934 10.253 110.317 10.759H110.455C110.44 10.5597 110.409 10.2683 110.363 9.885C110.333 9.48633 110.317 9.172 110.317 8.942V4.02H112.341V21.5H110.708L110.409 19.844H110.317C109.949 20.3653 109.459 20.81 108.845 21.178C108.232 21.546 107.442 21.73 106.476 21.73ZM106.798 20.051C108.102 20.051 109.014 19.6983 109.535 18.993C110.072 18.2723 110.34 17.1913 110.34 15.75V15.382C110.34 13.8487 110.087 12.6757 109.581 11.863C109.075 11.035 108.14 10.621 106.775 10.621C105.687 10.621 104.866 11.058 104.314 11.932C103.778 12.7907 103.509 13.9483 103.509 15.405C103.509 16.877 103.778 18.0193 104.314 18.832C104.866 19.6447 105.694 20.051 106.798 20.051ZM121.018 8.942C122.076 8.942 122.98 9.172 123.732 9.632C124.498 10.092 125.081 10.7437 125.48 11.587C125.894 12.415 126.101 13.3887 126.101 14.508V15.727H117.66C117.69 17.1223 118.043 18.188 118.718 18.924C119.408 19.6447 120.366 20.005 121.593 20.005C122.375 20.005 123.065 19.936 123.663 19.798C124.276 19.6447 124.905 19.43 125.549 19.154V20.925C124.92 21.201 124.299 21.4003 123.686 21.523C123.072 21.661 122.344 21.73 121.501 21.73C120.335 21.73 119.3 21.4923 118.396 21.017C117.506 20.5417 116.809 19.8363 116.303 18.901C115.812 17.9503 115.567 16.7927 115.567 15.428C115.567 14.0787 115.789 12.921 116.234 11.955C116.694 10.989 117.33 10.2453 118.143 9.724C118.971 9.20267 119.929 8.942 121.018 8.942ZM120.995 10.598C120.029 10.598 119.262 10.9123 118.695 11.541C118.143 12.1543 117.813 13.013 117.706 14.117H123.985C123.969 13.0743 123.724 12.231 123.249 11.587C122.773 10.9277 122.022 10.598 120.995 10.598ZM135.173 8.942C136.645 8.942 137.757 9.30233 138.508 10.023C139.26 10.7283 139.635 11.8783 139.635 13.473V21.5H137.634V13.611C137.634 11.633 136.714 10.644 134.874 10.644C133.51 10.644 132.567 11.0273 132.045 11.794C131.524 12.5607 131.263 13.6647 131.263 15.106V21.5H129.239V9.172H130.872L131.171 10.851H131.286C131.685 10.207 132.237 9.73167 132.942 9.425C133.648 9.103 134.391 8.942 135.173 8.942ZM147.574 20.074C147.881 20.074 148.195 20.051 148.517 20.005C148.839 19.9437 149.1 19.8823 149.299 19.821V21.362C149.084 21.4693 148.778 21.5537 148.379 21.615C147.98 21.6917 147.597 21.73 147.229 21.73C146.585 21.73 145.987 21.6227 145.435 21.408C144.898 21.178 144.461 20.787 144.124 20.235C143.787 19.683 143.618 18.9087 143.618 17.912V10.736H141.87V9.77L143.641 8.965L144.446 6.343H145.642V9.172H149.207V10.736H145.642V17.866C145.642 18.6173 145.818 19.177 146.171 19.545C146.539 19.8977 147.007 20.074 147.574 20.074ZM162.348 21.5L160.37 16.417H153.861L151.906 21.5H149.812L156.23 5.009H158.093L164.487 21.5H162.348ZM157.909 9.609C157.863 9.48633 157.786 9.264 157.679 8.942C157.571 8.62 157.464 8.29033 157.357 7.953C157.265 7.60033 157.188 7.332 157.127 7.148C157.019 7.62333 156.897 8.091 156.759 8.551C156.621 8.99567 156.506 9.34833 156.414 9.609L154.551 14.577H159.749L157.909 9.609ZM167.492 4.549C167.799 4.549 168.067 4.65633 168.297 4.871C168.542 5.07033 168.665 5.39233 168.665 5.837C168.665 6.26633 168.542 6.58833 168.297 6.803C168.067 7.01767 167.799 7.125 167.492 7.125C167.155 7.125 166.871 7.01767 166.641 6.803C166.411 6.58833 166.296 6.26633 166.296 5.837C166.296 5.39233 166.411 5.07033 166.641 4.871C166.871 4.65633 167.155 4.549 167.492 4.549ZM168.481 9.172V21.5H166.457V9.172H168.481ZM176.757 21.73C175.223 21.73 173.997 21.201 173.077 20.143C172.157 19.0697 171.697 17.475 171.697 15.359C171.697 13.243 172.157 11.6483 173.077 10.575C174.012 9.48633 175.246 8.942 176.78 8.942C177.73 8.942 178.505 9.11833 179.103 9.471C179.716 9.82367 180.214 10.253 180.598 10.759H180.736C180.72 10.5597 180.69 10.2683 180.644 9.885C180.613 9.48633 180.598 9.172 180.598 8.942V4.02H182.622V21.5H180.989L180.69 19.844H180.598C180.23 20.3653 179.739 20.81 179.126 21.178C178.512 21.546 177.723 21.73 176.757 21.73ZM177.079 20.051C178.382 20.051 179.294 19.6983 179.816 18.993C180.352 18.2723 180.621 17.1913 180.621 15.75V15.382C180.621 13.8487 180.368 12.6757 179.862 11.863C179.356 11.035 178.42 10.621 177.056 10.621C175.967 10.621 175.147 11.058 174.595 11.932C174.058 12.7907 173.79 13.9483 173.79 15.405C173.79 16.877 174.058 18.0193 174.595 18.832C175.147 19.6447 175.975 20.051 177.079 20.051ZM197.48 5.078C199.534 5.078 201.083 5.38467 202.126 5.998C203.184 6.596 203.713 7.64633 203.713 9.149C203.713 10.115 203.444 10.92 202.908 11.564C202.371 12.1927 201.597 12.599 200.585 12.783V12.898C201.275 13.0053 201.896 13.2047 202.448 13.496C203.015 13.7873 203.46 14.2013 203.782 14.738C204.104 15.2747 204.265 15.9723 204.265 16.831C204.265 18.3183 203.751 19.4683 202.724 20.281C201.712 21.0937 200.324 21.5 198.561 21.5H192.788V5.078H197.48ZM197.894 12.07C199.304 12.07 200.27 11.8477 200.792 11.403C201.313 10.943 201.574 10.2683 201.574 9.379C201.574 8.47433 201.252 7.83033 200.608 7.447C199.979 7.04833 198.967 6.849 197.572 6.849H194.858V12.07H197.894ZM194.858 13.795V19.752H198.17C199.626 19.752 200.638 19.4683 201.206 18.901C201.773 18.3337 202.057 17.59 202.057 16.67C202.057 15.8113 201.758 15.1213 201.16 14.6C200.577 14.0633 199.527 13.795 198.009 13.795H194.858ZM214.785 6.665C213.021 6.665 211.634 7.25533 210.622 8.436C209.61 9.61667 209.104 11.2343 209.104 13.289C209.104 15.3283 209.571 16.946 210.507 18.142C211.457 19.3227 212.876 19.913 214.762 19.913C215.482 19.913 216.165 19.8517 216.809 19.729C217.453 19.6063 218.081 19.453 218.695 19.269V21.063C218.081 21.293 217.445 21.4617 216.786 21.569C216.142 21.6763 215.367 21.73 214.463 21.73C212.791 21.73 211.396 21.385 210.277 20.695C209.157 20.005 208.314 19.0237 207.747 17.751C207.195 16.4783 206.919 14.9833 206.919 13.266C206.919 11.61 207.218 10.1533 207.816 8.896C208.429 7.62333 209.326 6.63433 210.507 5.929C211.687 5.20833 213.121 4.848 214.808 4.848C216.54 4.848 218.051 5.17 219.339 5.814L218.511 7.562C218.005 7.332 217.437 7.125 216.809 6.941C216.195 6.757 215.521 6.665 214.785 6.665Z" fill="#002C71"/>
  <path d="M68.15 36.5H65.38V35.88L66.23 35.63V30.24L65.38 29.98V29.36H68.15V29.98L67.31 30.24V35.63L68.15 35.88V36.5ZM78.3452 36.5H77.0352L73.4252 30.73H73.3852C73.3985 30.9967 73.4152 31.3033 73.4352 31.65C73.4552 31.99 73.4652 32.34 73.4652 32.7V36.5H72.4852V29.36H73.7852L77.3852 35.1H77.4152C77.4085 34.96 77.3985 34.7833 77.3852 34.57C77.3785 34.3567 77.3718 34.13 77.3652 33.89C77.3585 33.6433 77.3518 33.4133 77.3452 33.2V29.36H78.3452V36.5ZM87.3488 34.57C87.3488 35.2033 87.1188 35.7 86.6588 36.06C86.1988 36.42 85.5688 36.6 84.7688 36.6C84.3822 36.6 84.0155 36.5667 83.6688 36.5C83.3288 36.44 83.0388 36.35 82.7988 36.23V35.21C83.0655 35.33 83.3788 35.44 83.7388 35.54C84.0988 35.6333 84.4655 35.68 84.8388 35.68C85.3188 35.68 85.6788 35.5867 85.9188 35.4C86.1588 35.2133 86.2788 34.9633 86.2788 34.65C86.2788 34.43 86.2222 34.2467 86.1088 34.1C86.0022 33.9467 85.8322 33.8067 85.5988 33.68C85.3655 33.5533 85.0588 33.4133 84.6788 33.26C84.3255 33.1267 84.0122 32.97 83.7388 32.79C83.4722 32.61 83.2622 32.3867 83.1088 32.12C82.9555 31.8533 82.8788 31.5267 82.8788 31.14C82.8788 30.5533 83.0922 30.0933 83.5188 29.76C83.9455 29.4267 84.5055 29.26 85.1988 29.26C85.5855 29.26 85.9422 29.3 86.2688 29.38C86.6022 29.4533 86.9188 29.5567 87.2188 29.69L86.8788 30.58C86.6055 30.4667 86.3255 30.3733 86.0388 30.3C85.7588 30.2267 85.4688 30.19 85.1688 30.19C84.7755 30.19 84.4755 30.2767 84.2688 30.45C84.0622 30.6233 83.9588 30.85 83.9588 31.13C83.9588 31.35 84.0088 31.5367 84.1088 31.69C84.2088 31.8367 84.3688 31.97 84.5888 32.09C84.8088 32.21 85.0988 32.3433 85.4588 32.49C85.8588 32.65 86.1988 32.82 86.4788 33C86.7655 33.1733 86.9822 33.3867 87.1288 33.64C87.2755 33.8867 87.3488 34.1967 87.3488 34.57ZM94.1469 36.5H93.0669V30.29H90.9269V29.36H96.2869V30.29H94.1469V36.5ZM102.582 36.5H99.8116V35.88L100.662 35.63V30.24L99.8116 29.98V29.36H102.582V29.98L101.742 30.24V35.63L102.582 35.88V36.5ZM109.317 36.5H108.237V30.29H106.097V29.36H111.457V30.29H109.317V36.5ZM121.092 33.98C121.092 34.4733 120.988 34.92 120.782 35.32C120.575 35.7133 120.262 36.0267 119.842 36.26C119.428 36.4867 118.902 36.6 118.262 36.6C117.355 36.6 116.665 36.36 116.192 35.88C115.725 35.3933 115.492 34.7533 115.492 33.96V29.36H116.572V33.91C116.572 35.09 117.152 35.68 118.312 35.68C118.912 35.68 119.345 35.52 119.612 35.2C119.885 34.88 120.022 34.4467 120.022 33.9V29.36H121.092V33.98ZM128.334 36.5H127.254V30.29H125.114V29.36H130.474V30.29H128.334V36.5ZM136.769 36.5H133.999V35.88L134.849 35.63V30.24L133.999 29.98V29.36H136.769V29.98L135.929 30.24V35.63L136.769 35.88V36.5ZM147.404 32.92C147.404 33.66 147.281 34.3067 147.034 34.86C146.788 35.4067 146.418 35.8333 145.924 36.14C145.431 36.4467 144.818 36.6 144.084 36.6C143.331 36.6 142.708 36.4467 142.214 36.14C141.721 35.8333 141.354 35.4033 141.114 34.85C140.874 34.2967 140.754 33.65 140.754 32.91C140.754 32.1767 140.874 31.5367 141.114 30.99C141.361 30.4433 141.731 30.0167 142.224 29.71C142.718 29.4033 143.341 29.25 144.094 29.25C144.828 29.25 145.438 29.4033 145.924 29.71C146.418 30.01 146.788 30.4367 147.034 30.99C147.281 31.5367 147.404 32.18 147.404 32.92ZM141.894 32.92C141.894 33.7733 142.071 34.4467 142.424 34.94C142.778 35.4333 143.331 35.68 144.084 35.68C144.844 35.68 145.398 35.4333 145.744 34.94C146.091 34.4467 146.264 33.7733 146.264 32.92C146.264 32.0667 146.091 31.3967 145.744 30.91C145.404 30.4233 144.854 30.18 144.094 30.18C143.334 30.18 142.778 30.4233 142.424 30.91C142.071 31.3967 141.894 32.0667 141.894 32.92ZM157.816 36.5H156.506L152.896 30.73H152.856C152.869 30.9967 152.886 31.3033 152.906 31.65C152.926 31.99 152.936 32.34 152.936 32.7V36.5H151.956V29.36H153.256L156.856 35.1H156.886C156.879 34.96 156.869 34.7833 156.856 34.57C156.849 34.3567 156.843 34.13 156.836 33.89C156.829 33.6433 156.823 33.4133 156.816 33.2V29.36H157.816V36.5ZM172.767 36.5L172.007 34.44H169.247L168.487 36.5H167.367L170.077 29.33H171.197L173.897 36.5H172.767ZM170.987 31.49C170.967 31.4167 170.931 31.3067 170.877 31.16C170.831 31.0133 170.784 30.86 170.737 30.7C170.691 30.54 170.654 30.41 170.627 30.31C170.574 30.5167 170.514 30.7367 170.447 30.97C170.381 31.2033 170.327 31.3767 170.287 31.49L169.567 33.5H171.707L170.987 31.49ZM179.86 29.36C180.793 29.36 181.473 29.55 181.9 29.93C182.327 30.3033 182.54 30.8267 182.54 31.5C182.54 31.9 182.45 32.2733 182.27 32.62C182.097 32.9667 181.803 33.25 181.39 33.47C180.977 33.6833 180.417 33.79 179.71 33.79H178.94V36.5H177.86V29.36H179.86ZM179.78 30.27H178.94V32.88H179.59C180.197 32.88 180.653 32.7767 180.96 32.57C181.273 32.3633 181.43 32.02 181.43 31.54C181.43 31.1133 181.297 30.7967 181.03 30.59C180.763 30.3767 180.347 30.27 179.78 30.27ZM188.983 29.36C189.917 29.36 190.597 29.55 191.023 29.93C191.45 30.3033 191.663 30.8267 191.663 31.5C191.663 31.9 191.573 32.2733 191.393 32.62C191.22 32.9667 190.927 33.25 190.513 33.47C190.1 33.6833 189.54 33.79 188.833 33.79H188.063V36.5H186.983V29.36H188.983ZM188.903 30.27H188.063V32.88H188.713C189.32 32.88 189.777 32.7767 190.083 32.57C190.397 32.3633 190.553 32.02 190.553 31.54C190.553 31.1133 190.42 30.7967 190.153 30.59C189.887 30.3767 189.47 30.27 188.903 30.27ZM196.106 36.5V29.36H197.186V35.57H200.236V36.5H196.106ZM206.668 36.5H203.898V35.88L204.748 35.63V30.24L203.898 29.98V29.36H206.668V29.98L205.828 30.24V35.63L206.668 35.88V36.5ZM214.053 30.19C213.339 30.19 212.783 30.4367 212.383 30.93C211.983 31.4167 211.783 32.0867 211.783 32.94C211.783 33.7867 211.969 34.4533 212.343 34.94C212.716 35.4267 213.283 35.67 214.043 35.67C214.349 35.67 214.643 35.6433 214.923 35.59C215.209 35.53 215.499 35.4533 215.793 35.36V36.29C215.513 36.3967 215.226 36.4733 214.933 36.52C214.646 36.5733 214.306 36.6 213.913 36.6C213.179 36.6 212.573 36.45 212.093 36.15C211.613 35.8433 211.253 35.4167 211.013 34.87C210.773 34.3167 210.653 33.67 210.653 32.93C210.653 32.21 210.783 31.5733 211.043 31.02C211.309 30.4667 211.696 30.0367 212.203 29.73C212.709 29.4167 213.329 29.26 214.063 29.26C214.423 29.26 214.773 29.3 215.113 29.38C215.459 29.4533 215.776 29.56 216.063 29.7L215.663 30.6C215.429 30.4933 215.176 30.4 214.903 30.32C214.636 30.2333 214.353 30.19 214.053 30.19ZM224.781 36.5L224.021 34.44H221.261L220.501 36.5H219.381L222.091 29.33H223.211L225.911 36.5H224.781ZM223.001 31.49C222.981 31.4167 222.944 31.3067 222.891 31.16C222.844 31.0133 222.798 30.86 222.751 30.7C222.704 30.54 222.668 30.41 222.641 30.31C222.588 30.5167 222.528 30.7367 222.461 30.97C222.394 31.2033 222.341 31.3767 222.301 31.49L221.581 33.5H223.721L223.001 31.49ZM231.571 36.5H230.491V30.29H228.351V29.36H233.711V30.29H231.571V36.5ZM240.005 36.5H237.235V35.88L238.085 35.63V30.24L237.235 29.98V29.36H240.005V29.98L239.165 30.24V35.63L240.005 35.88V36.5ZM250.641 32.92C250.641 33.66 250.517 34.3067 250.271 34.86C250.024 35.4067 249.654 35.8333 249.161 36.14C248.667 36.4467 248.054 36.6 247.321 36.6C246.567 36.6 245.944 36.4467 245.451 36.14C244.957 35.8333 244.591 35.4033 244.351 34.85C244.111 34.2967 243.991 33.65 243.991 32.91C243.991 32.1767 244.111 31.5367 244.351 30.99C244.597 30.4433 244.967 30.0167 245.461 29.71C245.954 29.4033 246.577 29.25 247.331 29.25C248.064 29.25 248.674 29.4033 249.161 29.71C249.654 30.01 250.024 30.4367 250.271 30.99C250.517 31.5367 250.641 32.18 250.641 32.92ZM245.131 32.92C245.131 33.7733 245.307 34.4467 245.661 34.94C246.014 35.4333 246.567 35.68 247.321 35.68C248.081 35.68 248.634 35.4333 248.981 34.94C249.327 34.4467 249.501 33.7733 249.501 32.92C249.501 32.0667 249.327 31.3967 248.981 30.91C248.641 30.4233 248.091 30.18 247.331 30.18C246.571 30.18 246.014 30.4233 245.661 30.91C245.307 31.3967 245.131 32.0667 245.131 32.92ZM261.052 36.5H259.742L256.132 30.73H256.092C256.106 30.9967 256.122 31.3033 256.142 31.65C256.162 31.99 256.172 32.34 256.172 32.7V36.5H255.192V29.36H256.492L260.092 35.1H260.122C260.116 34.96 260.106 34.7833 260.092 34.57C260.086 34.3567 260.079 34.13 260.072 33.89C260.066 33.6433 260.059 33.4133 260.052 33.2V29.36H261.052V36.5Z" fill="#454F5B"/>
</svg>
