<svg id="Layer_1" data-name="Layer 1" xmlns="http://www.w3.org/2000/svg" width="156.7" height="43.5"><defs><style>.cls-2{fill:#fdb913}.cls-3{fill:#fff}</style></defs><path fill="#013366" d="M0 0h156.7v43.5H0z"/><path class="cls-2" d="M76.2 41.4h68.5v.83H76.2z"/><path class="cls-3" d="M8.6 35.1c9.7 0 23.2 5.5 33 5.5 7 0 13.8-1.9 17.7-4.6A29.6 29.6 0 10.8 36a48.4 48.4 0 017.8-.9z" transform="translate(1 .7)"/><path class="cls-2" d="M50.1 24.9l1.2.5 2.6-1.8-3.8 1.3z"/><path class="cls-2" d="M5.5 22.2l-3.1-1.1.2-.4L6 21.9l.5-.3h.2l-3.8-1.7.2-.4 8.4 3.4h.3l-8.4-4.2.2-.4 8.9 4.1h.1L4 17.5l.2-.4 12.4 6.8.4-.7a110.7 110.7 0 00-9.3-7.8 110.3 110.3 0 0010.5 6l.5-.7-10.5-9.2.3-.3 8.5 7.3-7.9-7.9.3-.3 8.9 8.6L10 9.7l.3-.3 7.7 8.2-7-8.8.3-.3 9 10.9.7-.5a110.1 110.1 0 00-5.7-10.7 110.3 110.3 0 007.4 9.5l.8-.4-6.4-12.5.4-.2 5.2 10-4.4-10.4.4-.2 5 11.3-4.2-11.6h.4l4 10.5-3.2-10.9h.4l4.2 13.4.9-.2a110.2 110.2 0 00-1.3-12.2 110.4 110.4 0 003.3 11.5h.8l-1.1-14h.4L29.4 13l-.2-11.2h.4l.4 12.4.4-12.4h.6L30.8 13l1-11.2h.4l-1.1 14h.9a110.5 110.5 0 003.3-11.4A111.1 111.1 0 0034 16.3l.8.3L39 3.2h.4l-3.2 10.9 4-10.5h.4l-4.2 11.8 5-11.3.4.2-4.3 10.3 5.2-10 .4.2-6.3 12.5.8.4A110.6 110.6 0 0045 8.3a111.1 111.1 0 00-5.6 10.6l.7.6 8.7-10.9.3.3-7 8.8 7.7-8.2.3.3-8.3 9.2 8.9-8.6.3.3-7.9 7.9 8.5-7.3.3.3-10.4 9.2.5.6a110.5 110.5 0 0010.4-6 110.6 110.6 0 00-9.2 7.7l.5.8 12.2-6.7.2.4-9.8 5.5 10.2-4.7.2.4-9.5 4.6h.2l9.6-3.8.2.4-9 3.8h.2l6-2 .9-.6.3.2 2-.6.2.4-1.7.6 2.4 1.9.8.4a30 30 0 00-58.5.7l.4-.2h.2z" transform="translate(1 .7)"/><path d="M.5 36.6a49.3 49.3 0 018.1-.9c9.7 0 23.2 5.5 33 5.5 7.2 0 14.2-2 18-4.8a30.2 30.2 0 00-.4-12.2l-4.1-2.3-4.8 3.3-3.2-1.2c-1.1.5-7.8 5-7.8 5l-2.6-1.9-2.7-.5-3.7-2.7-4.2 2.9-4.9 2.7c-.2 0-5.7-4.4-5.7-4.4L13 22.5l-2.2 1.1h-.1L9 23.1 7 22 .8 24.8H.7a30.2 30.2 0 00-.2 11.8z" transform="translate(1 .7)" fill="#4c81af"/><path class="cls-3" d="M99.3 20.5h-.6a.7.7 0 000 .9h4.8a.6.6 0 00.2-.5.5.5 0 00-.2-.4h-.6c-.8 0-.8-.2-.8-1.8v-5.6c0-1.6 0-2 .8-2h.5c.2 0 .3 0 .3-.3s-.2-.4-.4-.4h-4.6a.6.6 0 00-.2.5.2.2 0 00.2.2h.6c.8 0 .8.3.8 1.8v5.7c0 1.8 0 1.8-.8 1.9zm-11.9 0h-.7a.8.8 0 000 .9h5.2a.7.7 0 000-.9H91c-.7 0-.7-.3-.7-1v-3.2h.2c1.2 0 1.2 0 1.7 1l2 3.5a1 1 0 00.9.6h2.4a.7.7 0 00.1-.9h-.8c-.4-.1-.5-.3-.8-.7l-1.6-2.7-.6-1.1a3 3 0 002.5-2.8c0-2.1-2.1-2.8-3.9-2.8h-5.7v.2c0 .2 0 .5.2.6h.6c.9.1.9.1.9 1v7.1c-.2 1.1-.3 1.2-1 1.2zm2.9-9.1h1.2c1.2 0 2.4.6 2.4 1.9a1.7 1.7 0 01-.7 1.5 3.6 3.6 0 01-1.9.5h-1zm63.6 24.2h-.4c-.4-.1-.5-.6-.7-1.1v-.2l-3.5-8.3s-.2-.6-.5-.6-.6.5-.7.7l-3.4 8.5c-.2.5-.4 1-.8 1h-.9a.8.8 0 00-.1.9h3.9a.8.8 0 000-.9h-.7c-.5 0-.5-.1-.5-.3a1.9 1.9 0 01.2-.5l.5-1.3s.2-.6.5-.6h2.7c.5 0 .6.7.6.7l.4 1.1.3.7c0 .1-.1.3-.7.3h-.9a.8.8 0 000 .9h4.8c.3 0 .3-.2.3-.6a.3.3 0 00-.3-.3zm-4.7-4h-2.4l1.2-3.2 1.3 3.2zm-45-18.9a.6.6 0 00.5.3s.3.1.4-.1a6.5 6.5 0 01.6-1.1 2.2 2.2 0 011.7-.5h1.1v8.2c0 .7 0 1-.6 1h-.9a.7.7 0 000 .9h5a.6.6 0 00.2-.5.5.5 0 00-.2-.4h-.7c-.7 0-.7-.3-.7-1.5v-7.7h1.4a1.7 1.7 0 011.5.6 1.2 1.2 0 01.3.9h1a8.1 8.1 0 01.2-2.2v-.4h-.9c-.2.3-.2.3-1 .3h-6.3c-.8 0-1 0-1.1-.3h-.9a12.4 12.4 0 01-.6 2.1 1.7 1.7 0 000 .4zm18.3 8.5h.1a7.1 7.1 0 002.9.5h.2c2.6 0 4.3-1.4 4.3-3.3s-.8-2.5-2.6-3.4l-1.5-.8c-.7-.4-1.5-1-1.5-1.7s.7-1.5 2-1.5h.3a2.1 2.1 0 012 1.6h1.1v-.2a6.3 6.3 0 00-.4-2.1h-.9l-1.8-.2c-2.9.1-4.2 1.6-4.1 3.2a3.7 3.7 0 002.3 3l1.8 1c1.3.7 1.4 1.4 1.4 2s-.6 1.6-2.1 1.6a3 3 0 01-2.9-2.1.5.5 0 00-.4-.3h-.7a6.4 6.4 0 00.5 2.3zm-6-.6h-.4a.6.6 0 000 .8h4.8a.6.6 0 00.2-.5.5.5 0 00-.2-.4h-.6c-.8-.1-.8-.1-.8-1.7v-5.6c0-1.7 0-2 .8-2h.5c.2-.1.4-.1.3-.4a.4.4 0 00-.4-.4h-4.6a.6.6 0 00-.2.5c0 .2.1.2.2.3h.6c.8 0 .8.1.8 1.8v5.6c-.1 1.8-.1 1.8-.9 1.9zm14.8-9.3h.6c.6 0 .7.1.7 1.8v6.1c0 1.2-.1 1.3-.7 1.3h-.6a.7.7 0 000 .9h4.6a.6.6 0 00.2-.5.5.5 0 00-.2-.4h-.5c-.5 0-.7-.2-.7-1.7v-2.2a1.1 1.1 0 010-.2h5.8v2.8s0 1.3-.7 1.3h-.5a.7.7 0 000 .9h4.5a.6.6 0 00.2-.5.5.5 0 00-.2-.4h-.6c-.7 0-.7-.1-.7-1.6V13c0-1.6 0-1.6.7-1.7h.4a.4.4 0 00.3-.5.4.4 0 00-.4-.4h-4.3a.5.5 0 00-.2.4.7.7 0 00.2.5h.4c.8 0 .8.1.8 1.7v2.1h-5.8v-2c0-1.6 0-1.8.6-1.8h.5c.3 0 .3-.2.3-.5s0-.4-.4-.4h-4.3a.5.5 0 00-.2.4.7.7 0 00.2.5zm10.2 15h.5a.4.4 0 00.3-.4.5.5 0 00-.5-.4h-4.7a.7.7 0 00-.2.6.4.4 0 00.2.3h.6c.8 0 .8.1.8 1.9V34c0 1.6 0 1.6-.8 1.7h-.6a.8.8 0 000 .9h4.9a.6.6 0 00.2-.5.5.5 0 00-.2-.4h-.6c-.8-.1-.8-.1-.8-1.7v-5.8c0-1.7 0-1.9.6-1.9zm-42.4 7.5h-.8a2.9 2.9 0 01-1.1 1.5 5.3 5.3 0 01-1.7.2h-.2a2.9 2.9 0 01-1.6-.3c-.2-.2-.4-.4-.4-1.4v-5.7c0-1.6.2-1.7 1-1.7h.5c.2 0 .3-.1.3-.5a.4.4 0 00-.4-.4h-4.9a.6.6 0 00-.2.5.5.5 0 00.2.4h.6c.9 0 .9.1.9 1.8V34c0 1.6 0 1.7-.8 1.7h-.7a.8.8 0 000 .9h8.8a12.3 12.3 0 00.8-2.3.4.4 0 00-.3-.5zm-10.8-6.9a6.2 6.2 0 00-4.6-1.8h-.3a5.8 5.8 0 00-5.8 6c0 2.9 2 5.7 6.1 5.7h.2a5.9 5.9 0 006-5.8 5.8 5.8 0 00-1.6-4.1zm-4.4 8.9c-1.6 0-4.2-1.2-4.2-5.3s2.2-4.4 3.7-4.4 4.3 2.1 4.3 4.9v.5c-.1 2.2-1.2 4.3-3.8 4.3zm41.8-.2h-.6l-.6-.2a.5.5 0 01-.2-.4v-7.7a2.4 2.4 0 01.1-.8c.1-.2 1.1-.2 1.1-.2s.2-.1.2-.2.1-.5-.1-.7H123c-.5 0-.6.3-.7.6l-3.5 7.4-3-7.4c-.1-.4-.3-.6-.6-.6H112l-.3.2c0 .3-.1.5.2.7h1c.2 0 .3.2.3.7l-.2 7.6c-.1.8-.2 1-.8 1h-.8a.8.8 0 00.1.9h4.2a.8.8 0 000-.9h-.8a.7.7 0 01-.6-.3 2.7 2.7 0 01-.1-1.4v-6.3l3.4 8.4a.5.5 0 00.5.3h.4l3.9-8.5v6.8a4.2 4.2 0 010 .5.5.5 0 01-.2.4l-.6.2h-.8a.8.8 0 000 .9h5a.8.8 0 00-.1-1zm-15-10.2h-4.2a.6.6 0 00-.1.8h1.3c.2.3.2 3.5.2 5.2s-1.6 4-3.1 4-3-1.2-3-4v-3.7c0-1.3 0-1.4.7-1.4h.6c.2-.1.3-.2.2-.5s-.1-.4-.3-.4h-4.6a.6.6 0 00-.2.5.5.5 0 00.2.4h.7c.7 0 .7 0 .7 1.6v3.9a5 5 0 001.6 4 5.3 5.3 0 003 1h.3a5.5 5.5 0 003.5-1.3c1-1.1 1.1-2.1 1.1-4.1a49 49 0 01.2-4.9.8.8 0 01.5-.2h.7c.2-.1.2-.2.2-.5a.4.4 0 00-.2-.4zM75.9 9.7c.6 0 .7.1.7 1.5v7.2c0 1.9 0 1.9-.9 2.1h-.6a.6.6 0 00-.1.8h5.2c3.7 0 5.8-1.5 5.8-4.1a3.4 3.4 0 00-2.9-3.2 2.8 2.8 0 001.8-2.6 2.8 2.8 0 00-1.5-2.3 9 9 0 00-3.1-.6h-.5l-4.5.2a.4.4 0 00-.3.3.7.7 0 00.2.7zm7.8 8.3c0 1.9-1.6 2.3-3 2.3h-.2a1.8 1.8 0 01-1.2-.4 3.3 3.3 0 01-.4-1.8v-2.8h.9c3.4-.2 3.9 1.7 3.9 2.7zm-4.8-8.2h1c1.3 0 2.8.6 2.8 2.2s-.5 2-3 2.1h-.8V10a.5.5 0 010-.2zm-2.3 23.1h-.5a3.8 3.8 0 01-3.6 2.6h-.2c-3.3 0-5.5-2.5-5.5-6.1a5.3 5.3 0 015.2-5.6c2.5 0 3.3.9 3.7 2.6h1.2a22.2 22.2 0 01-.3-2.8v-.3h-.7a15.3 15.3 0 00-3.5-.5H72a8.8 8.8 0 00-5.2 1.7 6.8 6.8 0 00-2.5 5.5 6.5 6.5 0 002.9 5.6 8.8 8.8 0 004.7 1.4h.3a11.7 11.7 0 003.2-.5l.6-.2h.2a7.5 7.5 0 001-2.8.7.7 0 00-.6-.6zm57.7-2.6a2.4 2.4 0 00-.1-4.5 8.8 8.8 0 00-3-.4h-4.3l-.3.2a.7.7 0 00.1.7h.8c.6 0 .6.1.6 1.3v6.3c0 1.6 0 1.6-.7 1.7h-.5a.6.6 0 00-.2.4 1 1 0 00.2.5h4.7c4.2 0 5.2-.9 5.2-3.6a3.1 3.1 0 00-2.6-2.6zm-4.1-4h.9c1.2 0 2.6.5 2.6 1.9s-.6 1.8-2.8 1.8h-.7v-3.7zm.4 9c-.3-.2-.5-1-.5-1.5v-2.7h1c2.8 0 3.4 1.4 3.4 2.6s-1.5 1.9-2.8 1.9a2.7 2.7 0 01-1.1-.3z" transform="translate(1 .7)"/><path fill="none" d="M116.9 36.6h.6v.62h-.6z"/></svg>
