<svg width="311" height="40" viewBox="0 0 311 40" fill="none"
  xmlns="http://www.w3.org/2000/svg">
  <path fill-rule="evenodd" clip-rule="evenodd" d="M7.21831 30.1957C7.21831 30.547 7.23944 31.0446 7.44323 31.2592C7.64702 31.4835 7.96848 31.5327 8.28995 31.5327C9.24391 31.5327 9.97269 31.1424 9.97269 30.1667C9.97269 29.3957 9.54398 28.4978 7.83984 28.4978C7.2611 28.4978 7.21831 28.5562 7.21831 28.7513V30.1957ZM7.21831 27.9316C7.21831 28.2054 7.22874 28.2246 7.77566 28.2054C8.86869 28.1654 9.4584 27.873 9.4584 26.9557C9.4584 25.9992 8.6756 25.6384 7.86124 25.6384C7.62536 25.6384 7.46462 25.6578 7.36808 25.6967C7.2611 25.7259 7.21831 25.7754 7.21831 25.9508V27.9316ZM6.33901 26.634C6.33901 25.9116 6.289 25.72 5.80654 25.6816L5.4709 25.6578C5.41634 25.6143 5.43185 25.4184 5.48159 25.4138C6.06034 25.3619 6.78939 25.3359 7.78614 25.3359C8.46143 25.3359 9.10463 25.3846 9.5871 25.6089C10.0479 25.8138 10.4017 26.204 10.4017 26.8292C10.4017 27.5313 9.95135 27.8927 9.30842 28.1654C9.30842 28.2632 9.39427 28.2932 9.51221 28.3122C10.091 28.4097 10.9484 28.8976 10.9484 29.9416C10.9484 31.074 10.0265 31.8351 8.09691 31.8351C7.78614 31.8351 7.26115 31.8062 6.81078 31.8062C6.33901 31.8062 5.97476 31.8259 5.57814 31.8351C5.51395 31.8062 5.49229 31.65 5.55675 31.5911L5.74984 31.5622C6.31762 31.4743 6.33901 31.3667 6.33901 30.3422V26.634Z" fill="#142E5C"/>
  <path fill-rule="evenodd" clip-rule="evenodd" d="M18.3983 27.5942C18.3983 26.7099 18.3801 26.5688 17.8399 26.5269L17.6109 26.5101C17.5561 26.4769 17.5746 26.3266 17.6291 26.3018C18.0873 26.3182 18.3983 26.3266 18.7829 26.3266C19.1493 26.3266 19.4603 26.3182 19.9182 26.3018C19.9733 26.3266 19.9914 26.4769 19.9366 26.5101L19.7074 26.5269C19.1674 26.5688 19.1493 26.7099 19.1493 27.5942V30.5609C19.1493 31.445 19.1674 31.5618 19.7074 31.6199L19.9366 31.6447C19.9914 31.678 19.9733 31.828 19.9182 31.8531C19.4603 31.8363 19.1493 31.828 18.7829 31.828C18.3983 31.828 18.0873 31.8363 17.6291 31.8531C17.5746 31.828 17.5561 31.695 17.6109 31.6447L17.8399 31.6199C18.3801 31.5618 18.3983 31.445 18.3983 30.5609V27.5942Z" fill="#142E5C"/>
  <path fill-rule="evenodd" clip-rule="evenodd" d="M23.4779 30.5778C23.4779 31.4534 23.4951 31.578 23.9925 31.6199L24.2674 31.6448C24.3185 31.678 24.3017 31.828 24.25 31.8532C23.7609 31.8364 23.4696 31.828 23.1262 31.828C22.7831 31.828 22.4828 31.8364 21.9337 31.8532C21.8824 31.828 21.8653 31.6867 21.9337 31.6448L22.2426 31.6199C22.7318 31.578 22.7746 31.4534 22.7746 30.5778V26.8516C22.7746 26.5934 22.7746 26.5853 22.5173 26.5853H22.0452C21.6764 26.5853 21.2047 26.6018 20.9902 26.7937C20.7843 26.9772 20.6984 27.1605 20.6043 27.3686C20.5355 27.4188 20.4157 27.377 20.3812 27.3107C20.5184 26.9353 20.6473 26.4018 20.7072 26.0683C20.7329 26.0521 20.8444 26.0434 20.8701 26.0683C20.9217 26.3351 21.2047 26.3267 21.5994 26.3267H25.0735C25.5364 26.3267 25.6137 26.3099 25.7426 26.0934C25.7854 26.0764 25.8798 26.0853 25.8969 26.1186C25.8028 26.4602 25.7426 27.1353 25.7683 27.3853C25.7341 27.4521 25.5881 27.4521 25.5455 27.4021C25.5199 27.1934 25.4597 26.8853 25.331 26.7937C25.1334 26.6518 24.8077 26.5853 24.3359 26.5853H23.7267C23.4696 26.5853 23.4779 26.5934 23.4779 26.8686V30.5778Z" fill="#142E5C"/>
  <path fill-rule="evenodd" clip-rule="evenodd" d="M27.1546 27.5942C27.1546 26.7099 27.1364 26.5688 26.5965 26.5269L26.3673 26.5101C26.3124 26.4769 26.3309 26.3266 26.3857 26.3018C26.8436 26.3182 27.1546 26.3266 27.5395 26.3266C27.9053 26.3266 28.2169 26.3182 28.6748 26.3018C28.7296 26.3266 28.7478 26.4769 28.6932 26.5101L28.464 26.5269C27.924 26.5688 27.9053 26.7099 27.9053 27.5942V30.5609C27.9053 31.445 27.924 31.5618 28.464 31.6199L28.6932 31.6447C28.7478 31.678 28.7296 31.828 28.6748 31.8531C28.2169 31.8363 27.9053 31.828 27.5395 31.828C27.1546 31.828 26.8436 31.8363 26.3857 31.8531C26.3309 31.828 26.3124 31.695 26.3673 31.6447L26.5965 31.6199C27.1364 31.5618 27.1546 31.445 27.1546 30.5609V27.5942Z" fill="#142E5C"/>
  <path fill-rule="evenodd" clip-rule="evenodd" d="M31.2577 31.9395C30.4402 31.9395 29.9245 31.7225 29.7395 31.6314C29.6223 31.4474 29.4961 30.8558 29.4766 30.4639C29.525 30.4052 29.6713 30.389 29.7103 30.439C29.8561 30.8641 30.2551 31.6804 31.3842 31.6804C32.2018 31.6804 32.6008 31.2228 32.6008 30.7225C32.6008 30.356 32.5134 29.9471 31.8025 29.5555L30.878 29.0387C30.3912 28.7636 29.8266 28.2885 29.8266 27.6047C29.8266 26.8131 30.5471 26.1709 31.8124 26.1709C32.1143 26.1709 32.4644 26.2212 32.7174 26.2798C32.8444 26.3133 32.9803 26.3293 33.0581 26.3293C33.1459 26.5295 33.2336 26.9966 33.2336 27.3466C33.1945 27.3966 33.0389 27.4214 32.9899 27.3717C32.8637 26.9712 32.6008 26.4293 31.6664 26.4293C30.7127 26.4293 30.5084 26.9712 30.5084 27.3547C30.5084 27.8385 30.9753 28.1885 31.3355 28.3804L32.1143 28.7971C32.7273 29.1217 33.3307 29.6049 33.3307 30.3974C33.3307 31.3136 32.523 31.9395 31.2577 31.9395Z" fill="#142E5C"/>
  <path fill-rule="evenodd" clip-rule="evenodd" d="M36.1564 29.1358C35.7304 29.1358 35.7128 29.1528 35.7128 29.4026V30.5777C35.7128 31.4534 35.7572 31.5701 36.2541 31.6199L36.5113 31.6447C36.5648 31.678 36.5469 31.828 36.4937 31.8531C36.0144 31.8363 35.7128 31.828 35.3664 31.828C34.9848 31.828 34.6831 31.8445 34.337 31.8531C34.2838 31.828 34.2659 31.695 34.3194 31.6447L34.47 31.6199C34.9671 31.5366 34.9848 31.4534 34.9848 30.5777V27.5774C34.9848 26.7018 34.923 26.5607 34.4609 26.5269L34.2303 26.5101C34.1771 26.4769 34.195 26.3266 34.248 26.3018C34.6831 26.3099 34.9848 26.3266 35.3664 26.3266C35.7128 26.3266 36.0144 26.3182 36.3961 26.3018C36.4493 26.3266 36.467 26.4769 36.414 26.5101L36.2452 26.5269C35.7304 26.5769 35.7128 26.7018 35.7128 27.5774V28.5355C35.7128 28.7942 35.7304 28.8023 36.1564 28.8023H38.6947C39.121 28.8023 39.1392 28.7942 39.1392 28.5355V27.5774C39.1392 26.7018 39.121 26.5769 38.5974 26.5269L38.4289 26.5101C38.3754 26.4769 38.3931 26.3266 38.4466 26.3018C38.8549 26.3182 39.1569 26.3266 39.5203 26.3266C39.8667 26.3266 40.1684 26.3182 40.5676 26.3018C40.6211 26.3266 40.6388 26.4769 40.5856 26.5101L40.3989 26.5269C39.8846 26.5769 39.8667 26.7018 39.8667 27.5774V30.5777C39.8667 31.4534 39.8846 31.5618 40.3989 31.6199L40.612 31.6447C40.6655 31.678 40.6479 31.828 40.5944 31.8531C40.1684 31.8363 39.8667 31.828 39.5203 31.828C39.1569 31.828 38.8373 31.8363 38.4466 31.8531C38.3931 31.828 38.3754 31.695 38.4289 31.6447L38.5974 31.6199C39.1392 31.5366 39.1392 31.4534 39.1392 30.5777V29.4026C39.1392 29.1528 39.121 29.1358 38.6947 29.1358H36.1564Z" fill="#142E5C"/>
  <path fill-rule="evenodd" clip-rule="evenodd" d="M1.25965 33.6852C1.98897 33.1117 2.91859 32.8301 3.95761 32.8301C4.49757 32.8301 5.25711 32.9403 5.72673 33.0714C5.84682 33.102 5.91662 33.122 6.00648 33.1117C6.01664 33.3433 6.06665 33.9774 6.14635 34.5912C6.09634 34.6617 5.94657 34.6717 5.87677 34.6114C5.72673 33.9268 5.2769 33.142 3.8279 33.142C2.29893 33.142 0.999698 34.1179 0.999698 36.2012C0.999698 38.3147 2.32862 39.4825 3.9675 39.4825C5.25711 39.4825 5.82649 38.6366 6.05649 38.0428C6.12656 37.9925 6.27659 38.0128 6.31644 38.0833C6.24664 38.6068 5.98669 39.2709 5.83665 39.4622C5.71657 39.4825 5.59702 39.5225 5.48684 39.5628C5.267 39.6433 4.54732 39.7941 3.90786 39.7941C3.00845 39.7941 2.1489 39.613 1.41931 39.1195C0.61993 38.5663 0 37.6506 0 36.3522C0 35.2352 0.499849 34.2793 1.25965 33.6852Z" fill="#142E5C"/>
  <path fill-rule="evenodd" clip-rule="evenodd" d="M11.9481 37.1156C11.9481 35.7402 11.3156 34.2564 9.66149 34.2564C8.76074 34.2564 7.59176 34.8483 7.59176 36.6743C7.59176 37.9075 8.21516 39.5083 9.92118 39.5083C10.9607 39.5083 11.9481 38.7581 11.9481 37.1156ZM6.72534 36.9408C6.72534 35.274 8.02431 33.998 9.80868 33.998C11.8091 33.998 12.8137 35.3902 12.8137 36.8572C12.8137 38.5413 11.4802 39.7664 9.80868 39.7664C7.88604 39.7664 6.72534 38.4416 6.72534 36.9408Z" fill="#142E5C"/>
  <path fill-rule="evenodd" clip-rule="evenodd" d="M22.585 36.2237C22.585 35.7073 22.5673 34.7489 22.4186 34.4983C22.3576 34.3989 22.2001 34.3397 21.9816 34.3232L21.7631 34.3067C21.7107 34.2478 21.7281 34.1402 21.7805 34.1064C22.1127 34.1232 22.4363 34.1316 22.7773 34.1316C23.1445 34.1316 23.3806 34.1232 23.6954 34.1064C23.7652 34.1483 23.7566 34.2564 23.713 34.3067L23.5031 34.3232C23.2843 34.3397 23.118 34.4151 23.0658 34.5235C22.9436 34.7986 22.9436 35.7573 22.9436 36.2237V37.1662C22.9436 37.891 22.8208 38.6581 22.3314 39.1583C21.9554 39.5497 21.3085 39.7664 20.6613 39.7664C20.0579 39.7664 19.4548 39.6581 19.0266 39.3081C18.5629 38.9416 18.3444 38.3329 18.3444 37.341V35.3732C18.3444 34.5067 18.3268 34.3651 17.8197 34.3232L17.6012 34.3067C17.5488 34.2737 17.5664 34.1316 17.6186 34.1064C18.0558 34.1232 18.353 34.1316 18.703 34.1316C19.0614 34.1316 19.3497 34.1232 19.7784 34.1064C19.8306 34.1316 19.8482 34.2737 19.7958 34.3067L19.5859 34.3232C19.0788 34.3651 19.0614 34.5067 19.0614 35.3732V37.174C19.0614 38.5162 19.4984 39.3997 20.8362 39.3997C22.1038 39.3997 22.585 38.4497 22.585 37.1824V36.2237Z" fill="#142E5C"/>
  <path fill-rule="evenodd" clip-rule="evenodd" d="M33.5398 38.2555C33.5398 38.5579 33.5591 38.9876 33.7425 39.1728C33.9263 39.3666 34.2159 39.4087 34.5058 39.4087C35.3659 39.4087 36.0233 39.072 36.0233 38.2301C36.0233 37.5652 35.6366 36.7903 34.1001 36.7903C33.5783 36.7903 33.5398 36.8409 33.5398 37.009V38.2555ZM33.5398 36.302C33.5398 36.5379 33.5494 36.5544 34.0421 36.5379C35.0279 36.5041 35.5595 36.2517 35.5595 35.4595C35.5595 34.6347 34.854 34.3233 34.1196 34.3233C33.9067 34.3233 33.7621 34.3406 33.6746 34.3738C33.5783 34.3993 33.5398 34.4414 33.5398 34.5928V36.302ZM32.7475 35.1822C32.7475 34.5595 32.7087 34.3993 32.2738 34.3655L31.9644 34.3352C31.9293 34.3033 31.9106 34.1344 31.9743 34.1298C32.4961 34.0903 33.1532 34.0625 34.052 34.0625C34.6607 34.0625 35.2403 34.1049 35.6757 34.2982C36.091 34.4749 36.4098 34.8117 36.4098 35.3506C36.4098 35.9571 36.0038 36.2684 35.4243 36.5041C35.4243 36.5882 35.5013 36.6139 35.6077 36.6303C36.1298 36.7147 36.9027 37.1355 36.9027 38.0363C36.9027 39.013 36.0718 39.6693 34.3318 39.6693C34.052 39.6693 33.5784 39.6441 33.1727 39.6441C32.7475 39.6441 32.4188 39.6612 32.0609 39.6693C32.0029 39.6441 31.9839 39.5098 32.0417 39.4598L32.2158 39.4339C32.7279 39.3582 32.7475 39.2655 32.7475 38.3817V35.1822Z" fill="#142E5C"/>
  <path fill-rule="evenodd" clip-rule="evenodd" d="M13.6622 28.9062C13.4961 28.9062 13.1634 28.9689 13.1634 28.7457V27.1468C13.1634 26.5219 13.1834 26.4322 13.9259 26.4322C14.7961 26.4322 15.3337 26.8787 15.3337 27.7006C15.3337 28.0576 15.2066 28.3879 14.8841 28.6117C14.5126 28.8706 14.1117 28.9062 13.6622 28.9062ZM16.9989 31.6452L16.7699 31.6252C16.7237 31.6203 16.6827 31.6146 16.6434 31.6081C16.3086 31.5481 16.1743 31.2465 16.0165 30.9671L15.2252 29.5735C15.0883 29.3414 14.9417 29.0287 14.6288 28.9841C15.4399 28.886 16.1733 28.4125 16.1733 27.5998C16.1733 26.6616 15.2543 26.2422 14.3255 26.2422C13.7684 26.2422 13.2606 26.2571 12.6936 26.2571C12.3807 26.2571 12.0089 26.2422 11.696 26.2422C11.5224 26.2422 11.5203 26.2781 11.5203 26.376C11.5203 26.5211 11.5808 26.4808 11.765 26.4908C12.4251 26.5284 12.3999 26.653 12.3999 27.2246V30.8779C12.3999 31.4003 12.4446 31.5565 11.9014 31.606C11.9014 31.606 11.8182 31.6146 11.7712 31.6195L11.5409 31.6435C11.4858 31.6935 11.5043 31.8268 11.5596 31.8516C11.6816 31.8473 11.8985 31.8384 11.8985 31.8384C12.1993 31.8295 12.4999 31.8065 12.8011 31.8065C13.103 31.8065 13.3924 31.83 13.6895 31.8384V31.8389C13.7952 31.8427 13.9067 31.8457 14.0286 31.8506C14.084 31.8257 14.1022 31.6919 14.0474 31.6422L13.8158 31.62C13.7684 31.6154 13.6874 31.6073 13.6874 31.6073C13.1386 31.5698 13.172 31.4138 13.172 30.8779V29.5025C13.172 29.4214 13.1624 29.2076 13.221 29.1449C13.2702 29.0908 13.3579 29.1003 13.436 29.1003C14.1792 29.1003 14.1693 29.1716 14.5213 29.7968L15.479 31.5387C15.5573 31.6727 15.6162 31.8427 15.8117 31.8427H16.6434C16.7485 31.8457 16.859 31.8492 16.9807 31.8535C17.0355 31.8289 17.0539 31.6954 16.9989 31.6452Z" fill="#142E5C"/>
  <path fill-rule="evenodd" clip-rule="evenodd" d="M13.8414 35.4021C13.8414 34.5272 13.8233 34.3937 13.2517 34.3521L13.0247 34.3351C12.9707 34.3018 12.9886 34.1524 13.0431 34.127C13.5513 34.1434 13.8596 34.1518 14.2226 34.1518C14.5764 34.1518 14.8847 34.1434 15.3386 34.1272C15.3931 34.1524 15.4111 34.3018 15.3568 34.3351L15.1391 34.3521C14.6037 34.3937 14.5855 34.5272 14.5855 35.4021V38.3032C14.5855 38.828 14.6127 39.0448 14.7759 39.2034C14.8756 39.2951 15.0481 39.3951 15.7652 39.3951C16.5362 39.3951 16.7266 39.3621 16.8721 39.2867C17.0537 39.1867 17.2893 38.887 17.4709 38.4613C17.5252 38.4199 17.6977 38.4534 17.6977 38.5113C17.6977 38.6034 17.4436 39.454 17.3166 39.6783C16.8539 39.6618 15.9917 39.6534 15.0572 39.6534H14.2226C13.8414 39.6534 13.5513 39.6618 13.0431 39.6783C12.9886 39.6534 12.9707 39.5199 13.0247 39.4702L13.2972 39.4451C13.8233 39.3951 13.8414 39.278 13.8414 38.4032V35.4021Z" fill="#142E5C"/>
  <path fill-rule="evenodd" clip-rule="evenodd" d="M38.1477 35.4188C38.1477 34.5351 38.1298 34.3937 37.604 34.3521L37.3815 34.3351C37.328 34.3018 37.3456 34.1524 37.3994 34.127C37.8449 34.1434 38.1477 34.1518 38.5216 34.1518C38.8781 34.1518 39.1811 34.1434 39.6264 34.1272C39.6799 34.1524 39.6975 34.3018 39.644 34.3351L39.4212 34.3521C38.8957 34.3937 38.8781 34.5351 38.8781 35.4188V38.3867C38.8781 39.2699 38.8957 39.3872 39.4212 39.4451L39.644 39.4702C39.6975 39.5034 39.6799 39.6534 39.6264 39.6783C39.1811 39.6618 38.8781 39.6534 38.5216 39.6534C38.1477 39.6534 37.8449 39.6618 37.3994 39.6783C37.3456 39.6534 37.328 39.5199 37.3815 39.4702L37.604 39.4451C38.1298 39.3872 38.1477 39.2699 38.1477 38.3867V35.4188Z" fill="#142E5C"/>
  <path fill-rule="evenodd" clip-rule="evenodd" d="M31.0293 39.4428C30.9836 39.4379 30.8982 39.4303 30.8982 39.4303C30.8041 39.4209 30.7201 39.4076 30.6533 39.3341C30.5375 39.2103 30.5474 38.8563 30.5474 38.7149V35.0622C30.5474 34.9033 30.5091 34.5582 30.6244 34.4341C30.6824 34.369 30.8025 34.3576 30.9095 34.3517V34.3514C30.9745 34.346 30.9763 34.346 31.0333 34.343L31.2622 34.3268C31.3173 34.2938 31.2989 34.143 31.2438 34.1182C31.1216 34.1228 31.0103 34.1211 30.9047 34.1247H29.9312C29.8253 34.1247 29.7293 34.1247 29.6712 34.2398L27.6881 38.4141L25.9364 34.3817C25.8786 34.2398 25.869 34.1247 25.6858 34.1247H24.6727C24.5674 34.1214 24.451 34.1228 24.3285 34.1182C24.2737 34.143 24.2555 34.2938 24.3103 34.3268L24.539 34.343C24.5866 34.3471 24.6719 34.353 24.6719 34.353C25.052 34.3779 25.0755 34.4633 25.0407 34.8674L24.7428 38.7857C24.7163 39.1787 24.6952 39.3871 24.2873 39.4249C24.2873 39.4249 24.2012 39.436 24.1539 39.4411L23.925 39.4663C23.8699 39.5155 23.8883 39.6495 23.9434 39.6741C24.064 39.6698 24.2785 39.6636 24.2785 39.6636C24.485 39.6536 24.6957 39.6347 24.9065 39.6347C25.1333 39.6347 25.3609 39.656 25.5882 39.6655V39.666C25.6935 39.669 25.8051 39.6725 25.9276 39.6771C25.9824 39.6525 26.0006 39.519 25.946 39.4687L25.7168 39.4438C25.6566 39.439 25.5892 39.4325 25.5892 39.4325C25.0009 39.3917 25.0137 38.9717 25.0504 38.4587L25.3298 34.8149H25.3972L27.2937 39.2987C27.3126 39.3603 27.3415 39.4665 27.4378 39.4665C27.5247 39.4665 27.5533 39.3692 27.5825 39.3074L29.7194 34.7079H29.787V38.7149C29.787 38.8738 29.8063 39.2014 29.6423 39.3252C29.5568 39.3892 29.2789 39.4279 29.2789 39.4279C29.2404 39.4338 29.2003 39.4395 29.1551 39.4444L28.9259 39.4695C28.871 39.5192 28.8892 39.6528 28.9443 39.6776C29.0649 39.6736 29.2789 39.6663 29.2789 39.6663C29.5891 39.6576 29.9044 39.6347 30.22 39.6347C30.4465 39.6347 30.891 39.6568 30.891 39.6568C30.9967 39.6595 31.1173 39.6711 31.2398 39.6757C31.2949 39.6511 31.313 39.5174 31.258 39.4674L31.0293 39.4428Z" fill="#142E5C"/>
  <path fill-rule="evenodd" clip-rule="evenodd" d="M43.501 37.4022H42.4299C42.3925 37.4022 42.0943 37.4376 42.0943 37.3489C42.0943 37.323 42.113 37.2697 42.1224 37.2435L42.7653 35.6343C42.784 35.5905 42.8493 35.3695 42.9236 35.3695C42.9793 35.3695 43.0541 35.5992 43.0729 35.6343L43.7059 37.137C43.7059 37.1551 43.7712 37.2957 43.7712 37.3316C43.7712 37.4289 43.5569 37.4022 43.501 37.4022ZM45.9054 39.4659L45.8749 39.4408C45.8292 39.4354 45.7888 39.4295 45.75 39.4235C45.3935 39.343 45.2545 38.9086 45.1229 38.5997L43.2872 34.2089C43.269 34.1565 43.2326 34.043 43.1596 34.043C43.0596 34.043 43.0326 34.1651 43.0053 34.2351L41.2517 38.6176C41.188 38.783 41.0243 39.1854 40.9061 39.3078C40.8155 39.4022 40.6978 39.4197 40.5721 39.4327C40.5721 39.4327 40.4731 39.4427 40.4258 39.4476L40.2103 39.4697C40.1552 39.5195 40.1736 39.653 40.2284 39.6778C40.3509 39.6738 40.5678 39.6657 40.5678 39.6657C40.8077 39.6624 41.0476 39.6319 41.288 39.6319C41.4897 39.6319 41.6919 39.6538 41.8938 39.6624C41.8938 39.6624 42.1107 39.6703 42.2326 39.6749C42.2877 39.65 42.3059 39.5165 42.2514 39.4665L42.0222 39.4414C41.9767 39.437 41.8981 39.4286 41.8981 39.4286C41.6873 39.4054 41.4244 39.3673 41.4244 39.133C41.4244 38.9757 41.4969 38.7919 41.5515 38.6522L41.824 37.9962C41.9601 37.6816 41.9058 37.6459 42.269 37.6459H43.5051C43.9411 37.6459 43.8777 37.6459 44.0686 38.0927L44.3593 38.757C44.4051 38.8708 44.4864 39.0632 44.4864 39.1854C44.4864 39.4054 44.2492 39.42 44.0272 39.4389C44.0272 39.4389 43.9536 39.4454 43.8897 39.4497L43.6696 39.4665C43.6148 39.5162 43.633 39.6497 43.6878 39.6743C43.8103 39.67 44.0272 39.6614 44.0272 39.6614C44.2858 39.6519 44.5458 39.6319 44.7955 39.6319C45.1138 39.6319 45.4321 39.6538 45.7503 39.6624C45.8546 39.6654 45.7664 39.6692 45.8872 39.6738C45.9421 39.6489 45.9605 39.5154 45.9054 39.4659Z" fill="#142E5C"/>
  <path fill-rule="evenodd" clip-rule="evenodd" d="M10.1308 20.4643C15.9292 20.4643 23.95 23.7638 29.7698 23.7638C33.9229 23.7638 37.9755 22.6435 40.2822 20.9946C40.4432 20.0259 40.5282 19.0311 40.5282 18.0165C40.5282 8.16835 32.6282 0.18457 22.8832 0.18457C13.1379 0.18457 5.23792 8.16835 5.23792 18.0165C5.23792 19.0194 5.32136 20.0029 5.47888 20.9608C6.11486 20.8416 8.27739 20.4643 10.1308 20.4643Z" fill="#FFFFFE"/>
  <path fill-rule="evenodd" clip-rule="evenodd" d="M34.2826 13.8928L34.9801 14.1853L36.5272 13.0947L34.2826 13.8928Z" fill="#F3B229"/>
  <path fill-rule="evenodd" clip-rule="evenodd" d="M8.28434 12.6754L6.45049 12.0232L6.54223 11.7962L8.60768 12.4922L8.61677 12.4873L8.8893 12.3311L8.99788 12.2622L6.74575 11.2941L6.84069 11.0562L11.8678 13.1105L12.0333 13.0411L7.04823 10.5862L7.15921 10.3551L12.4423 12.84L12.5153 12.8024L7.39269 9.86649L7.4978 9.64567L14.895 13.7132C14.9559 13.6 15.0827 13.3941 15.148 13.2832C12.3356 10.6114 9.62155 8.60459 9.62155 8.60459C9.62155 8.60459 12.4126 10.4938 15.857 12.2497C15.9709 12.1062 16.064 11.9908 16.1856 11.8546L9.87509 6.24027L10.0444 6.06459L15.1378 10.4514L10.4193 5.67595L10.5958 5.49108L15.8936 10.6651L10.962 5.13405L11.1505 4.96189L15.7085 9.89459L11.5485 4.59703L11.7277 4.43243L17.0602 10.9908C17.1979 10.8703 17.3126 10.78 17.4568 10.6681C15.8439 7.14081 14.0822 4.27108 14.0822 4.27108C14.0822 4.27108 15.957 7.06027 18.4867 9.98108C18.6416 9.89351 18.798 9.80892 18.9582 9.73L18.9315 9.71216L15.194 2.17486L15.4162 2.07595L18.5127 8.07135L15.9078 1.8573L16.1399 1.75297L19.1342 8.55595L16.6119 1.56027L16.8505 1.47216L19.2481 7.77108L17.3546 1.28459L17.582 1.2L20.0751 9.24514L20.0702 9.26649L20.0764 9.26405C20.2419 9.20757 20.4107 9.15811 20.5805 9.11162C20.3906 5.2473 19.825 1.94162 19.825 1.94162C19.825 1.94162 20.5252 5.21811 21.7811 8.87135C21.9562 8.84973 22.1319 8.83135 22.3095 8.81892L22.3039 8.81081H22.3256L22.3133 8.79243L21.642 0.389189L21.8846 0.381622L22.5328 7.1127L22.4216 0.365135L22.6754 0.356216L22.9295 7.7973L23.1841 0.356216L23.4381 0.365135L23.3266 7.1127L23.9746 0.381622L24.2175 0.389189L23.5462 8.79243L23.5336 8.81081H23.5374L23.5355 8.81351H23.5462C23.72 8.82459 23.8922 8.84216 24.0631 8.8627C25.3172 5.21297 26.0163 1.94162 26.0163 1.94162C26.0163 1.94162 25.4525 5.2373 25.2616 9.09432C25.433 9.14027 25.6023 9.19027 25.7692 9.24568L28.2534 1.22838L28.4813 1.31324L26.587 7.79973L28.9851 1.50108L29.2234 1.58919L26.7012 8.58459L29.6952 1.78162L29.9279 1.88595L27.3227 8.1L30.4192 2.10459L30.6411 2.20351L26.9176 9.71351L26.9237 9.71622C27.0772 9.79189 27.2275 9.87243 27.3759 9.95595C29.8947 7.04405 31.759 4.27108 31.759 4.27108C31.759 4.27108 30.0094 7.12108 28.4011 10.6314C28.5449 10.7411 28.6853 10.8546 28.822 10.9722L34.0919 4.48541L34.2717 4.65L30.1111 9.9473L34.6691 5.01486L34.8576 5.18703L29.9257 10.7184L35.2235 5.54378L35.4005 5.72892L30.6818 10.5046L35.7752 6.11757L35.9445 6.29324L29.711 11.8443L29.7147 11.8481C29.8236 11.9705 29.9281 12.097 30.0311 12.2257C33.4538 10.4765 36.2197 8.60459 36.2197 8.60459C36.2197 8.60459 33.5322 10.5916 30.7345 13.2446C30.811 13.3738 30.9348 13.5946 31.0054 13.7276L38.2977 9.71486L38.4036 9.93622L32.582 13.2724L38.6369 10.4251L38.7478 10.6557L33.1083 13.4327L33.2166 13.4708L38.9548 11.1254L39.0503 11.3638L33.7162 13.6562L33.8159 13.6981L37.3702 12.5008L37.9062 12.1227L38.0838 12.2597L39.2536 11.8659L39.3456 12.0927L38.3336 12.4524L39.7957 13.58L40.2642 13.8441C38.3844 5.90351 31.3164 0 22.8829 0C14.3012 0 7.13354 6.1127 5.40747 14.2641C5.42967 14.2532 5.45106 14.2432 5.47326 14.2324L5.68748 14.1343L5.8188 14.0724L8.28434 12.6754Z" fill="#F3B229"/>
  <path fill-rule="evenodd" clip-rule="evenodd" d="M5.30665 21.346C5.30665 21.346 7.9431 20.8141 10.1436 20.8141C15.942 20.8141 23.9629 24.1133 29.7827 24.1133C34.0521 24.1133 38.2156 22.9298 40.4852 21.2039C40.6622 20.1831 40.7553 19.1333 40.7553 18.0609C40.7553 16.6087 40.5849 15.1971 40.2645 13.8441L37.838 12.4766L34.9916 14.4944L33.0765 13.7406C32.4279 14.0717 28.4286 16.7747 28.4286 16.7747L26.8932 15.652L25.2463 15.322L23.0498 13.7063L20.5308 15.4539C20.5308 15.4539 17.72 17.1033 17.6234 17.1033C17.5266 17.1033 14.2325 14.4644 14.2325 14.4644L12.7148 12.8485C12.4564 13.0133 11.4239 13.492 11.4239 13.492L11.3706 13.5063L10.372 13.1939L9.15862 12.5439L5.47354 14.2325C5.45134 14.2433 5.42995 14.2533 5.40775 14.2641C5.1486 15.4887 5.01086 16.7585 5.01086 18.0609C5.01086 19.1828 5.11303 20.2806 5.30665 21.346Z" fill="#142E5C"/>
  <path d="M55.5 1.46286V38.6291" stroke="#F3B229" stroke-linecap="square"/>
  <path d="M76.546 17.107C76.546 18.5637 76.017 19.6983 74.959 20.511C73.901 21.3237 72.475 21.73 70.681 21.73C69.761 21.73 68.91 21.661 68.128 21.523C67.346 21.385 66.6943 21.1933 66.173 20.948V18.97C66.725 19.2153 67.4073 19.4377 68.22 19.637C69.048 19.8363 69.899 19.936 70.773 19.936C71.9997 19.936 72.9197 19.6983 73.533 19.223C74.1617 18.7477 74.476 18.1037 74.476 17.291C74.476 16.7543 74.361 16.302 74.131 15.934C73.901 15.566 73.5023 15.2287 72.935 14.922C72.383 14.6 71.6087 14.2627 70.612 13.91C69.2167 13.404 68.1587 12.783 67.438 12.047C66.7327 11.311 66.38 10.3067 66.38 9.034C66.38 8.16 66.6023 7.41633 67.047 6.803C67.4917 6.17433 68.105 5.69133 68.887 5.354C69.6843 5.01667 70.5967 4.848 71.624 4.848C72.5287 4.848 73.3567 4.93233 74.108 5.101C74.8593 5.26967 75.5417 5.492 76.155 5.768L75.511 7.539C74.9437 7.29367 74.3227 7.08667 73.648 6.918C72.9887 6.74933 72.2987 6.665 71.578 6.665C70.5507 6.665 69.7763 6.88733 69.255 7.332C68.7337 7.76133 68.473 8.33633 68.473 9.057C68.473 9.609 68.588 10.069 68.818 10.437C69.048 10.805 69.4237 11.1347 69.945 11.426C70.4663 11.7173 71.1717 12.0317 72.061 12.369C73.027 12.7217 73.8397 13.105 74.499 13.519C75.1737 13.9177 75.6797 14.4007 76.017 14.968C76.3697 15.5353 76.546 16.2483 76.546 17.107ZM83.695 20.074C84.0017 20.074 84.316 20.051 84.638 20.005C84.96 19.9437 85.2207 19.8823 85.42 19.821V21.362C85.2054 21.4693 84.8987 21.5537 84.5 21.615C84.1014 21.6917 83.718 21.73 83.35 21.73C82.706 21.73 82.108 21.6227 81.556 21.408C81.0194 21.178 80.5824 20.787 80.245 20.235C79.9077 19.683 79.739 18.9087 79.739 17.912V10.736H77.991V9.77L79.762 8.965L80.567 6.343H81.763V9.172H85.328V10.736H81.763V17.866C81.763 18.6173 81.9394 19.177 82.292 19.545C82.66 19.8977 83.1277 20.074 83.695 20.074ZM98.1926 9.172V21.5H96.5366L96.2376 19.867H96.1456C95.7469 20.511 95.1949 20.9863 94.4896 21.293C93.7843 21.5843 93.0329 21.73 92.2356 21.73C90.7483 21.73 89.6289 21.3773 88.8776 20.672C88.1263 19.9513 87.7506 18.809 87.7506 17.245V9.172H89.7976V17.107C89.7976 19.0697 90.7099 20.051 92.5346 20.051C93.8993 20.051 94.8423 19.6677 95.3636 18.901C95.9003 18.1343 96.1686 17.0303 96.1686 15.589V9.172H98.1926ZM106.476 21.73C104.943 21.73 103.716 21.201 102.796 20.143C101.876 19.0697 101.416 17.475 101.416 15.359C101.416 13.243 101.876 11.6483 102.796 10.575C103.732 9.48633 104.966 8.942 106.499 8.942C107.45 8.942 108.224 9.11833 108.822 9.471C109.436 9.82367 109.934 10.253 110.317 10.759H110.455C110.44 10.5597 110.409 10.2683 110.363 9.885C110.333 9.48633 110.317 9.172 110.317 8.942V4.02H112.341V21.5H110.708L110.409 19.844H110.317C109.949 20.3653 109.459 20.81 108.845 21.178C108.232 21.546 107.442 21.73 106.476 21.73ZM106.798 20.051C108.102 20.051 109.014 19.6983 109.535 18.993C110.072 18.2723 110.34 17.1913 110.34 15.75V15.382C110.34 13.8487 110.087 12.6757 109.581 11.863C109.075 11.035 108.14 10.621 106.775 10.621C105.687 10.621 104.866 11.058 104.314 11.932C103.778 12.7907 103.509 13.9483 103.509 15.405C103.509 16.877 103.778 18.0193 104.314 18.832C104.866 19.6447 105.694 20.051 106.798 20.051ZM121.018 8.942C122.076 8.942 122.98 9.172 123.732 9.632C124.498 10.092 125.081 10.7437 125.48 11.587C125.894 12.415 126.101 13.3887 126.101 14.508V15.727H117.66C117.69 17.1223 118.043 18.188 118.718 18.924C119.408 19.6447 120.366 20.005 121.593 20.005C122.375 20.005 123.065 19.936 123.663 19.798C124.276 19.6447 124.905 19.43 125.549 19.154V20.925C124.92 21.201 124.299 21.4003 123.686 21.523C123.072 21.661 122.344 21.73 121.501 21.73C120.335 21.73 119.3 21.4923 118.396 21.017C117.506 20.5417 116.809 19.8363 116.303 18.901C115.812 17.9503 115.567 16.7927 115.567 15.428C115.567 14.0787 115.789 12.921 116.234 11.955C116.694 10.989 117.33 10.2453 118.143 9.724C118.971 9.20267 119.929 8.942 121.018 8.942ZM120.995 10.598C120.029 10.598 119.262 10.9123 118.695 11.541C118.143 12.1543 117.813 13.013 117.706 14.117H123.985C123.969 13.0743 123.724 12.231 123.249 11.587C122.773 10.9277 122.022 10.598 120.995 10.598ZM135.173 8.942C136.645 8.942 137.757 9.30233 138.508 10.023C139.26 10.7283 139.635 11.8783 139.635 13.473V21.5H137.634V13.611C137.634 11.633 136.714 10.644 134.874 10.644C133.51 10.644 132.567 11.0273 132.045 11.794C131.524 12.5607 131.263 13.6647 131.263 15.106V21.5H129.239V9.172H130.872L131.171 10.851H131.286C131.685 10.207 132.237 9.73167 132.942 9.425C133.648 9.103 134.391 8.942 135.173 8.942ZM147.574 20.074C147.881 20.074 148.195 20.051 148.517 20.005C148.839 19.9437 149.1 19.8823 149.299 19.821V21.362C149.084 21.4693 148.778 21.5537 148.379 21.615C147.98 21.6917 147.597 21.73 147.229 21.73C146.585 21.73 145.987 21.6227 145.435 21.408C144.898 21.178 144.461 20.787 144.124 20.235C143.787 19.683 143.618 18.9087 143.618 17.912V10.736H141.87V9.77L143.641 8.965L144.446 6.343H145.642V9.172H149.207V10.736H145.642V17.866C145.642 18.6173 145.818 19.177 146.171 19.545C146.539 19.8977 147.007 20.074 147.574 20.074ZM162.348 21.5L160.37 16.417H153.861L151.906 21.5H149.812L156.23 5.009H158.093L164.487 21.5H162.348ZM157.909 9.609C157.863 9.48633 157.786 9.264 157.679 8.942C157.571 8.62 157.464 8.29033 157.357 7.953C157.265 7.60033 157.188 7.332 157.127 7.148C157.019 7.62333 156.897 8.091 156.759 8.551C156.621 8.99567 156.506 9.34833 156.414 9.609L154.551 14.577H159.749L157.909 9.609ZM167.492 4.549C167.799 4.549 168.067 4.65633 168.297 4.871C168.542 5.07033 168.665 5.39233 168.665 5.837C168.665 6.26633 168.542 6.58833 168.297 6.803C168.067 7.01767 167.799 7.125 167.492 7.125C167.155 7.125 166.871 7.01767 166.641 6.803C166.411 6.58833 166.296 6.26633 166.296 5.837C166.296 5.39233 166.411 5.07033 166.641 4.871C166.871 4.65633 167.155 4.549 167.492 4.549ZM168.481 9.172V21.5H166.457V9.172H168.481ZM176.757 21.73C175.223 21.73 173.997 21.201 173.077 20.143C172.157 19.0697 171.697 17.475 171.697 15.359C171.697 13.243 172.157 11.6483 173.077 10.575C174.012 9.48633 175.246 8.942 176.78 8.942C177.73 8.942 178.505 9.11833 179.103 9.471C179.716 9.82367 180.214 10.253 180.598 10.759H180.736C180.72 10.5597 180.69 10.2683 180.644 9.885C180.613 9.48633 180.598 9.172 180.598 8.942V4.02H182.622V21.5H180.989L180.69 19.844H180.598C180.23 20.3653 179.739 20.81 179.126 21.178C178.512 21.546 177.723 21.73 176.757 21.73ZM177.079 20.051C178.382 20.051 179.294 19.6983 179.816 18.993C180.352 18.2723 180.621 17.1913 180.621 15.75V15.382C180.621 13.8487 180.368 12.6757 179.862 11.863C179.356 11.035 178.42 10.621 177.056 10.621C175.967 10.621 175.147 11.058 174.595 11.932C174.058 12.7907 173.79 13.9483 173.79 15.405C173.79 16.877 174.058 18.0193 174.595 18.832C175.147 19.6447 175.975 20.051 177.079 20.051ZM197.48 5.078C199.534 5.078 201.083 5.38467 202.126 5.998C203.184 6.596 203.713 7.64633 203.713 9.149C203.713 10.115 203.444 10.92 202.908 11.564C202.371 12.1927 201.597 12.599 200.585 12.783V12.898C201.275 13.0053 201.896 13.2047 202.448 13.496C203.015 13.7873 203.46 14.2013 203.782 14.738C204.104 15.2747 204.265 15.9723 204.265 16.831C204.265 18.3183 203.751 19.4683 202.724 20.281C201.712 21.0937 200.324 21.5 198.561 21.5H192.788V5.078H197.48ZM197.894 12.07C199.304 12.07 200.27 11.8477 200.792 11.403C201.313 10.943 201.574 10.2683 201.574 9.379C201.574 8.47433 201.252 7.83033 200.608 7.447C199.979 7.04833 198.967 6.849 197.572 6.849H194.858V12.07H197.894ZM194.858 13.795V19.752H198.17C199.626 19.752 200.638 19.4683 201.206 18.901C201.773 18.3337 202.057 17.59 202.057 16.67C202.057 15.8113 201.758 15.1213 201.16 14.6C200.577 14.0633 199.527 13.795 198.009 13.795H194.858ZM214.785 6.665C213.021 6.665 211.634 7.25533 210.622 8.436C209.61 9.61667 209.104 11.2343 209.104 13.289C209.104 15.3283 209.571 16.946 210.507 18.142C211.457 19.3227 212.876 19.913 214.762 19.913C215.482 19.913 216.165 19.8517 216.809 19.729C217.453 19.6063 218.081 19.453 218.695 19.269V21.063C218.081 21.293 217.445 21.4617 216.786 21.569C216.142 21.6763 215.367 21.73 214.463 21.73C212.791 21.73 211.396 21.385 210.277 20.695C209.157 20.005 208.314 19.0237 207.747 17.751C207.195 16.4783 206.919 14.9833 206.919 13.266C206.919 11.61 207.218 10.1533 207.816 8.896C208.429 7.62333 209.326 6.63433 210.507 5.929C211.687 5.20833 213.121 4.848 214.808 4.848C216.54 4.848 218.051 5.17 219.339 5.814L218.511 7.562C218.005 7.332 217.437 7.125 216.809 6.941C216.195 6.757 215.521 6.665 214.785 6.665Z" fill="#002C71"/>
  <path d="M70.05 34.57C70.05 35.2033 69.82 35.7 69.36 36.06C68.9 36.42 68.27 36.6 67.47 36.6C67.0833 36.6 66.7167 36.5667 66.37 36.5C66.03 36.44 65.74 36.35 65.5 36.23V35.21C65.7667 35.33 66.08 35.44 66.44 35.54C66.8 35.6333 67.1667 35.68 67.54 35.68C68.02 35.68 68.38 35.5867 68.62 35.4C68.86 35.2133 68.98 34.9633 68.98 34.65C68.98 34.43 68.9233 34.2467 68.81 34.1C68.7033 33.9467 68.5333 33.8067 68.3 33.68C68.0667 33.5533 67.76 33.4133 67.38 33.26C67.0267 33.1267 66.7133 32.97 66.44 32.79C66.1733 32.61 65.9633 32.3867 65.81 32.12C65.6567 31.8533 65.58 31.5267 65.58 31.14C65.58 30.5533 65.7933 30.0933 66.22 29.76C66.6467 29.4267 67.2067 29.26 67.9 29.26C68.2867 29.26 68.6433 29.3 68.97 29.38C69.3033 29.4533 69.62 29.5567 69.92 29.69L69.58 30.58C69.3067 30.4667 69.0267 30.3733 68.74 30.3C68.46 30.2267 68.17 30.19 67.87 30.19C67.4767 30.19 67.1767 30.2767 66.97 30.45C66.7633 30.6233 66.66 30.85 66.66 31.13C66.66 31.35 66.71 31.5367 66.81 31.69C66.91 31.8367 67.07 31.97 67.29 32.09C67.51 32.21 67.8 32.3433 68.16 32.49C68.56 32.65 68.9 32.82 69.18 33C69.4667 33.1733 69.6833 33.3867 69.83 33.64C69.9767 33.8867 70.05 34.1967 70.05 34.57ZM76.848 36.5H75.768V30.29H73.628V29.36H78.988V30.29H76.848V36.5ZM88.6228 33.98C88.6228 34.4733 88.5195 34.92 88.3128 35.32C88.1061 35.7133 87.7928 36.0267 87.3728 36.26C86.9595 36.4867 86.4328 36.6 85.7928 36.6C84.8861 36.6 84.1961 36.36 83.7228 35.88C83.2561 35.3933 83.0228 34.7533 83.0228 33.96V29.36H84.1028V33.91C84.1028 35.09 84.6828 35.68 85.8428 35.68C86.4428 35.68 86.8761 35.52 87.1428 35.2C87.4161 34.88 87.5528 34.4467 87.5528 33.9V29.36H88.6228V33.98ZM99.2456 32.86C99.2456 34.0667 98.9123 34.9767 98.2456 35.59C97.5856 36.1967 96.659 36.5 95.4656 36.5H93.4656V29.36H95.6756C96.4023 29.36 97.0323 29.4933 97.5656 29.76C98.099 30.0267 98.5123 30.42 98.8056 30.94C99.099 31.4533 99.2456 32.0933 99.2456 32.86ZM98.1156 32.89C98.1156 31.99 97.8956 31.33 97.4556 30.91C97.0223 30.4833 96.4056 30.27 95.6056 30.27H94.5456V35.59H95.4156C97.2156 35.59 98.1156 34.69 98.1156 32.89ZM107.82 36.5H103.8V29.36H107.82V30.28H104.88V32.32H107.64V33.23H104.88V35.57H107.82V36.5ZM118.226 36.5H116.916L113.306 30.73H113.266C113.279 30.9967 113.296 31.3033 113.316 31.65C113.336 31.99 113.346 32.34 113.346 32.7V36.5H112.366V29.36H113.666L117.266 35.1H117.296C117.289 34.96 117.279 34.7833 117.266 34.57C117.259 34.3567 117.253 34.13 117.246 33.89C117.239 33.6433 117.233 33.4133 117.226 33.2V29.36H118.226V36.5ZM125.53 36.5H124.45V30.29H122.31V29.36H127.67V30.29H125.53V36.5ZM141.812 36.5L141.052 34.44H138.292L137.532 36.5H136.412L139.122 29.33H140.242L142.942 36.5H141.812ZM140.032 31.49C140.012 31.4167 139.975 31.3067 139.922 31.16C139.875 31.0133 139.829 30.86 139.782 30.7C139.735 30.54 139.699 30.41 139.672 30.31C139.619 30.5167 139.559 30.7367 139.492 30.97C139.425 31.2033 139.372 31.3767 139.332 31.49L138.612 33.5H140.752L140.032 31.49ZM148.905 29.36C149.838 29.36 150.518 29.55 150.945 29.93C151.372 30.3033 151.585 30.8267 151.585 31.5C151.585 31.9 151.495 32.2733 151.315 32.62C151.142 32.9667 150.848 33.25 150.435 33.47C150.022 33.6833 149.462 33.79 148.755 33.79H147.985V36.5H146.905V29.36H148.905ZM148.825 30.27H147.985V32.88H148.635C149.242 32.88 149.698 32.7767 150.005 32.57C150.318 32.3633 150.475 32.02 150.475 31.54C150.475 31.1133 150.342 30.7967 150.075 30.59C149.808 30.3767 149.392 30.27 148.825 30.27ZM158.028 29.36C158.961 29.36 159.641 29.55 160.068 29.93C160.495 30.3033 160.708 30.8267 160.708 31.5C160.708 31.9 160.618 32.2733 160.438 32.62C160.265 32.9667 159.971 33.25 159.558 33.47C159.145 33.6833 158.585 33.79 157.878 33.79H157.108V36.5H156.028V29.36H158.028ZM157.948 30.27H157.108V32.88H157.758C158.365 32.88 158.821 32.7767 159.128 32.57C159.441 32.3633 159.598 32.02 159.598 31.54C159.598 31.1133 159.465 30.7967 159.198 30.59C158.931 30.3767 158.515 30.27 157.948 30.27ZM165.151 36.5V29.36H166.231V35.57H169.281V36.5H165.151ZM175.713 36.5H172.943V35.88L173.793 35.63V30.24L172.943 29.98V29.36H175.713V29.98L174.873 30.24V35.63L175.713 35.88V36.5ZM183.098 30.19C182.384 30.19 181.828 30.4367 181.428 30.93C181.028 31.4167 180.828 32.0867 180.828 32.94C180.828 33.7867 181.014 34.4533 181.388 34.94C181.761 35.4267 182.328 35.67 183.088 35.67C183.394 35.67 183.688 35.6433 183.968 35.59C184.254 35.53 184.544 35.4533 184.838 35.36V36.29C184.558 36.3967 184.271 36.4733 183.978 36.52C183.691 36.5733 183.351 36.6 182.958 36.6C182.224 36.6 181.618 36.45 181.138 36.15C180.658 35.8433 180.298 35.4167 180.058 34.87C179.818 34.3167 179.698 33.67 179.698 32.93C179.698 32.21 179.828 31.5733 180.088 31.02C180.354 30.4667 180.741 30.0367 181.248 29.73C181.754 29.4167 182.374 29.26 183.108 29.26C183.468 29.26 183.818 29.3 184.158 29.38C184.504 29.4533 184.821 29.56 185.108 29.7L184.708 30.6C184.474 30.4933 184.221 30.4 183.948 30.32C183.681 30.2333 183.398 30.19 183.098 30.19ZM193.826 36.5L193.066 34.44H190.306L189.546 36.5H188.426L191.136 29.33H192.256L194.956 36.5H193.826ZM192.046 31.49C192.026 31.4167 191.989 31.3067 191.936 31.16C191.889 31.0133 191.842 30.86 191.796 30.7C191.749 30.54 191.712 30.41 191.686 30.31C191.632 30.5167 191.572 30.7367 191.506 30.97C191.439 31.2033 191.386 31.3767 191.346 31.49L190.626 33.5H192.766L192.046 31.49ZM200.616 36.5H199.536V30.29H197.396V29.36H202.756V30.29H200.616V36.5ZM209.05 36.5H206.28V35.88L207.13 35.63V30.24L206.28 29.98V29.36H209.05V29.98L208.21 30.24V35.63L209.05 35.88V36.5ZM219.686 32.92C219.686 33.66 219.562 34.3067 219.316 34.86C219.069 35.4067 218.699 35.8333 218.206 36.14C217.712 36.4467 217.099 36.6 216.366 36.6C215.612 36.6 214.989 36.4467 214.496 36.14C214.002 35.8333 213.636 35.4033 213.396 34.85C213.156 34.2967 213.036 33.65 213.036 32.91C213.036 32.1767 213.156 31.5367 213.396 30.99C213.642 30.4433 214.012 30.0167 214.506 29.71C214.999 29.4033 215.622 29.25 216.376 29.25C217.109 29.25 217.719 29.4033 218.206 29.71C218.699 30.01 219.069 30.4367 219.316 30.99C219.562 31.5367 219.686 32.18 219.686 32.92ZM214.176 32.92C214.176 33.7733 214.352 34.4467 214.706 34.94C215.059 35.4333 215.612 35.68 216.366 35.68C217.126 35.68 217.679 35.4333 218.026 34.94C218.372 34.4467 218.546 33.7733 218.546 32.92C218.546 32.0667 218.372 31.3967 218.026 30.91C217.686 30.4233 217.136 30.18 216.376 30.18C215.616 30.18 215.059 30.4233 214.706 30.91C214.352 31.3967 214.176 32.0667 214.176 32.92ZM230.097 36.5H228.787L225.177 30.73H225.137C225.15 30.9967 225.167 31.3033 225.187 31.65C225.207 31.99 225.217 32.34 225.217 32.7V36.5H224.237V29.36H225.537L229.137 35.1H229.167C229.16 34.96 229.15 34.7833 229.137 34.57C229.13 34.3567 229.124 34.13 229.117 33.89C229.11 33.6433 229.104 33.4133 229.097 33.2V29.36H230.097V36.5Z" fill="#454F5B"/>
</svg>
