<svg width="338" height="194" viewBox="0 0 338 194" fill="none" xmlns="http://www.w3.org/2000/svg">
<path d="M337.25 163.48H0.75V163.649H337.25V163.48Z" fill="#EBEBEB"/>
<path d="M52.7595 169.887H35.2615V170.055H52.7595V169.887Z" fill="#EBEBEB"/>
<path d="M128.741 168.062H98.436V168.231H128.741V168.062Z" fill="#EBEBEB"/>
<path d="M94.3441 176.137H53.4324V176.305H94.3441V176.137Z" fill="#EBEBEB"/>
<path d="M302.739 175.008H289.797V175.176H302.739V175.008Z" fill="#EBEBEB"/>
<path d="M283.8 175.008H246.59V175.176H283.8V175.008Z" fill="#EBEBEB"/>
<path d="M223.863 172.168H173.745V172.336H223.863V172.168Z" fill="#EBEBEB"/>
<path d="M106.922 111.551H103.281V163.479H106.922V111.551Z" fill="#F0F0F0"/>
<path d="M232.551 15.5H230.734V56.4992H232.551V15.5Z" fill="#E0E0E0"/>
<path d="M250.924 42.3672H255.178C257.523 42.3672 259.424 40.4659 259.424 38.1205V33.8672C259.424 31.5218 257.523 29.6206 255.178 29.6206H250.924C248.579 29.6206 246.678 31.5218 246.678 33.8672V38.1205C246.678 40.4659 248.579 42.3672 250.924 42.3672Z" fill="#F5F5F5"/>
<path d="M207.845 76.4141H197.623V160.728H207.845V76.4141Z" fill="#F0F0F0"/>
<path d="M261.571 113.73H244.901C244.363 113.72 243.85 113.499 243.473 113.115C243.096 112.732 242.883 112.216 242.882 111.678C242.883 111.14 243.096 110.623 243.473 110.24C243.85 109.856 244.363 109.636 244.901 109.625H261.571C262.115 109.627 262.636 109.844 263.021 110.228C263.405 110.613 263.622 111.134 263.624 111.678C263.622 112.221 263.405 112.743 263.021 113.127C262.636 113.512 262.115 113.729 261.571 113.73Z" fill="#EBEBEB"/>
<path d="M261.571 89.267H244.901C244.363 89.2564 243.85 89.0357 243.473 88.6521C243.096 88.2685 242.883 87.7524 242.882 87.2143C242.891 86.6815 243.106 86.173 243.483 85.7963C243.86 85.4195 244.368 85.204 244.901 85.1953H261.571C262.109 85.197 262.625 85.4092 263.009 85.7865C263.392 86.1638 263.613 86.6763 263.624 87.2143C263.622 87.7582 263.405 88.2792 263.021 88.6638C262.636 89.0484 262.115 89.2652 261.571 89.267Z" fill="#EBEBEB"/>
<path d="M261.571 138.186H244.901C244.368 138.178 243.86 137.962 243.483 137.586C243.106 137.209 242.891 136.7 242.882 136.167C242.892 135.635 243.108 135.128 243.485 134.751C243.861 134.375 244.369 134.159 244.901 134.148H261.571C262.109 134.15 262.625 134.362 263.009 134.74C263.392 135.117 263.613 135.629 263.624 136.167C263.613 136.705 263.392 137.218 263.009 137.595C262.625 137.973 262.109 138.185 261.571 138.186Z" fill="#EBEBEB"/>
<path d="M195.617 76.4141H207.846V72.1271H195.617V76.4141Z" fill="#E6E6E6"/>
<path d="M169 193.873C241.066 193.873 299.488 190.463 299.488 186.255C299.488 182.048 241.066 178.637 169 178.637C96.9334 178.637 38.512 182.048 38.512 186.255C38.512 190.463 96.9334 193.873 169 193.873Z" fill="#F5F5F5"/>
<path d="M279.13 5.88281H177.695C177.695 5.88281 159.423 22.7078 159.423 63.6128C159.423 98.7905 173.28 146.486 168.078 166.01C164.154 180.742 145.129 183.272 136.01 183.622H232.558C232.558 183.622 264.31 185.54 269.513 166.01C274.715 146.479 260.858 98.7905 260.858 63.606C260.858 22.6809 279.13 5.88281 279.13 5.88281Z" fill="#407BFF"/>
<path opacity="0.7" d="M279.13 5.88281H177.695C177.695 5.88281 159.423 22.7078 159.423 63.6128C159.423 98.7905 173.28 146.486 168.078 166.01C164.154 180.742 145.129 183.272 136.01 183.622H232.558C232.558 183.622 264.31 185.54 269.513 166.01C274.715 146.479 260.858 98.7905 260.858 63.606C260.858 22.6809 279.13 5.88281 279.13 5.88281Z" fill="white"/>
<g opacity="0.8">
<path opacity="0.8" d="M251.537 49.0209H170.413C172.708 31.0248 178.893 20.553 182.305 15.9766H260.528C256.692 23.9853 253.071 34.8946 251.537 49.0209Z" fill="#407BFF"/>
<path opacity="0.3" d="M250.857 58.5628H169.619C169.686 56.9274 169.781 55.3391 169.915 53.8047H251.106C250.994 55.3526 250.911 56.9386 250.857 58.5628Z" fill="#407BFF"/>
<path opacity="0.3" d="M195.092 68.099H169.592C169.547 66.5781 169.523 65.0818 169.518 63.6101V63.3477H195.025V63.6034C195.025 65.0907 195.045 66.5915 195.092 68.099Z" fill="#407BFF"/>
<path opacity="0.3" d="M251.342 77.6381H170.164C170.023 76.0364 169.909 74.4481 169.821 72.8867H251.032C251.113 74.4615 251.216 76.0453 251.342 77.6381Z" fill="#407BFF"/>
<path opacity="0.3" d="M252.237 87.1605H171.127C170.938 85.5677 170.763 83.9817 170.602 82.4023H251.779C251.893 84.0041 252.062 85.5924 252.237 87.1605Z" fill="#407BFF"/>
<path opacity="0.3" d="M253.408 96.7162H172.365C172.143 95.1279 171.934 93.5397 171.732 91.9648H252.802C252.99 93.5486 253.192 95.1324 253.408 96.7162Z" fill="#407BFF"/>
<path opacity="0.3" d="M254.747 106.251H173.711C173.478 104.663 173.253 103.079 173.038 101.5H254.067C254.289 103.082 254.518 104.656 254.747 106.251Z" fill="#407BFF"/>
<path opacity="0.3" d="M256.18 115.797H175.171C175.044 114.929 174.909 114.047 174.774 113.166L174.451 111.039H255.46C255.703 112.627 255.938 114.216 256.18 115.797Z" fill="#407BFF"/>
<path opacity="0.3" d="M176.585 125.333C176.36 123.763 176.136 122.179 175.912 120.582H256.907C257.143 122.17 257.385 123.752 257.614 125.333H176.585Z" fill="#407BFF"/>
<path opacity="0.3" d="M177.87 134.869C177.682 133.314 177.473 131.726 177.258 130.117H244.827C245.056 131.719 245.271 133.307 245.5 134.869H177.87Z" fill="#407BFF"/>
<path opacity="0.3" d="M178.866 144.41C178.736 142.858 178.588 141.272 178.422 139.652H259.532C259.714 141.281 259.882 142.869 260.023 144.41H178.866Z" fill="#407BFF"/>
<path opacity="0.3" d="M179.331 153.947C179.331 152.412 179.27 150.824 179.182 149.195H221.979C222.086 150.858 222.147 152.446 222.167 153.947H179.331Z" fill="#407BFF"/>
</g>
<path d="M240.338 178.472C235.19 179.408 229.974 178.694 224.798 178.472C222.317 178.312 219.825 178.377 217.355 178.667C214.932 178.99 212.523 179.623 210.08 179.408C210.887 178.974 211.647 178.458 212.348 177.867C212.379 177.836 212.402 177.798 212.413 177.756C212.425 177.714 212.425 177.669 212.414 177.627C212.403 177.585 212.382 177.546 212.351 177.515C212.321 177.484 212.282 177.461 212.24 177.449C204.642 174.757 197.724 182.039 190.152 180.343C192.299 178.755 195.321 178.721 197.152 176.635C197.185 176.599 197.208 176.554 197.217 176.505C197.226 176.456 197.22 176.406 197.201 176.361C197.182 176.315 197.149 176.276 197.109 176.248C197.068 176.22 197.019 176.205 196.97 176.204C190.2 176.07 183.806 178.688 177.076 179.287C176.753 179.287 176.753 179.818 177.076 179.791C183.57 179.226 189.796 176.743 196.344 176.689C194.386 178.439 191.397 178.499 189.405 180.262C189.375 180.294 189.352 180.333 189.341 180.375C189.329 180.417 189.329 180.462 189.34 180.505C189.351 180.547 189.372 180.586 189.403 180.618C189.433 180.65 189.471 180.674 189.513 180.686C197.145 182.793 204.09 175.511 211.628 177.759C210.842 178.376 209.986 178.898 209.077 179.313C209.035 179.339 209.001 179.377 208.979 179.421C208.957 179.466 208.949 179.516 208.956 179.565C208.962 179.615 208.983 179.661 209.015 179.699C209.047 179.736 209.09 179.764 209.138 179.778C211.621 180.195 214.051 179.663 216.5 179.273C219.243 178.88 222.02 178.771 224.785 178.95C230.014 179.199 235.264 179.906 240.459 178.95C240.802 178.903 240.668 178.412 240.338 178.472Z" fill="#407BFF"/>
<path d="M102.965 30.7188C103.389 31.2639 103.934 31.9032 104.432 32.4955C104.93 33.0877 105.476 33.6867 106.014 34.2655C107.097 35.423 108.194 36.5604 109.379 37.6305C111.575 39.716 114.071 41.4625 116.782 42.8126C117.112 42.9606 117.455 43.0952 117.758 43.2164C117.908 43.2759 118.06 43.3276 118.215 43.3711C118.359 43.4279 118.508 43.4707 118.66 43.499C119.305 43.6651 119.966 43.7688 120.631 43.8086C122.121 43.881 123.615 43.7953 125.087 43.5529C126.65 43.3144 128.198 42.9863 129.724 42.5703C131.272 42.1665 132.853 41.6685 134.327 41.1503L135.673 43.8423C132.681 45.7125 129.442 47.1533 126.049 48.1225C124.26 48.6346 122.417 48.9306 120.557 49.0042C119.551 49.0446 118.542 48.9791 117.549 48.809C117.293 48.7686 117.031 48.708 116.775 48.6475C116.519 48.5869 116.25 48.5196 116.028 48.4456C115.557 48.3042 115.099 48.1495 114.682 47.9745C111.257 46.5659 108.104 44.5683 105.368 42.0723C104.032 40.915 102.759 39.6884 101.552 38.3977C100.953 37.7247 100.367 37.0988 99.8021 36.4258C99.2368 35.7528 98.6984 35.0798 98.1129 34.3058L102.965 30.7188Z" fill="#FFB573"/>
<path d="M96.1208 28.8128C95.9727 32.5816 97.4668 39.3789 97.4668 39.3789L106.795 38.2483C106.795 38.2483 107.138 28.3013 105.327 25.8987C102.265 21.8809 96.2621 25.2459 96.1208 28.8128Z" fill="#407BFF"/>
<path d="M133.075 42.1031L137.443 38.1055L138.002 42.4127C138.002 42.4127 136.191 44.8422 134.139 43.8192L133.075 42.1031Z" fill="#FFB573"/>
<path d="M139.637 38.341L141.488 40.7638L138.002 42.4127L137.443 38.1055L139.637 38.341Z" fill="#FFB573"/>
<path d="M138.533 27.4448C138.998 27.4448 139.253 27.4448 139.583 27.4448C139.724 27.4351 139.866 27.4351 140.007 27.4448L140.357 27.4919C140.659 27.5274 140.947 27.6411 141.192 27.8217C141.311 27.9619 141.39 28.1316 141.42 28.313L141.575 28.8245L142.201 30.8435L143.453 34.9286L145.95 43.1055C147.599 48.5568 149.315 53.9946 150.903 59.4594C154.167 70.3755 157.256 81.3319 160.291 92.3085C163.327 103.285 166.18 114.309 169.114 125.286C172.049 136.262 174.673 147.367 175.609 158.888C175.643 159.659 175.411 160.417 174.952 161.037C174.494 161.657 173.836 162.101 173.09 162.294C172.343 162.487 171.553 162.418 170.852 162.098C170.15 161.778 169.58 161.227 169.236 160.537C164.457 150.012 161.334 139.062 158.602 128.011C155.87 116.961 152.969 106.004 150.291 94.9602C147.612 83.9162 144.994 72.8117 142.544 61.687C141.286 56.1348 140.142 50.5489 138.937 44.9832L137.154 36.6245L136.259 32.4452L135.814 30.3522L135.7 29.834C135.639 29.6589 135.625 29.4709 135.66 29.2888C135.791 29.0219 135.985 28.7909 136.225 28.6158L136.514 28.4005C136.625 28.3158 136.742 28.2394 136.864 28.1716C137.154 28.0034 137.362 27.8621 137.779 27.6602C138.014 27.5398 138.27 27.4667 138.533 27.4448Z" fill="#263238"/>
<path d="M174.963 160.626C174.912 160.443 174.792 160.288 174.629 160.194C174.465 160.1 174.271 160.073 174.088 160.121L172.607 160.504L171.127 160.888C170.944 160.936 170.787 161.053 170.69 161.216C170.593 161.378 170.564 161.572 170.609 161.756C171.531 165.996 170.609 169.031 171.591 172.76C172.607 176.683 177.029 178.696 177.029 178.696L176.888 177.02L177.561 178.554C177.561 178.554 180.448 174.651 179.432 170.727C178.476 166.999 176.215 164.778 174.963 160.626Z" fill="#407BFF"/>
<path opacity="0.3" d="M174.963 160.626C174.912 160.443 174.792 160.288 174.629 160.194C174.465 160.1 174.271 160.073 174.088 160.121L172.607 160.504L171.127 160.888C170.944 160.936 170.787 161.053 170.69 161.216C170.593 161.378 170.564 161.572 170.609 161.756C171.531 165.996 170.609 169.031 171.591 172.76C172.607 176.683 177.029 178.696 177.029 178.696L176.888 177.02L177.561 178.554C177.561 178.554 180.448 174.651 179.432 170.727C178.476 166.999 176.215 164.778 174.963 160.626Z" fill="white"/>
<path d="M176.114 170.357C176.157 170.533 176.147 170.719 176.085 170.89C176.024 171.061 175.912 171.21 175.766 171.318C175.62 171.427 175.445 171.489 175.263 171.498C175.081 171.507 174.901 171.461 174.745 171.368C174.588 171.274 174.463 171.137 174.385 170.972C174.307 170.808 174.28 170.624 174.306 170.444C174.332 170.264 174.411 170.096 174.533 169.96C174.654 169.825 174.813 169.729 174.99 169.684C175.228 169.624 175.48 169.662 175.691 169.788C175.901 169.914 176.053 170.119 176.114 170.357Z" fill="#263238"/>
<path d="M176.941 177.223C176.915 177.231 176.887 177.233 176.859 177.23C176.832 177.227 176.805 177.218 176.781 177.204C176.757 177.19 176.736 177.172 176.72 177.149C176.704 177.127 176.692 177.102 176.686 177.074L175.017 170.647C175.01 170.621 175.008 170.593 175.011 170.566C175.015 170.539 175.024 170.512 175.038 170.489C175.051 170.465 175.07 170.444 175.091 170.428C175.113 170.411 175.138 170.399 175.165 170.392C175.191 170.384 175.219 170.381 175.247 170.384C175.274 170.387 175.301 170.396 175.325 170.41C175.349 170.424 175.37 170.443 175.386 170.465C175.403 170.487 175.414 170.513 175.42 170.54L177.089 176.967C177.097 176.993 177.098 177.021 177.095 177.048C177.091 177.075 177.082 177.102 177.069 177.125C177.055 177.149 177.036 177.17 177.015 177.187C176.993 177.203 176.968 177.216 176.941 177.223Z" fill="#263238"/>
<path d="M171.49 137.516L162.418 139.865C162.166 139.928 161.9 139.889 161.677 139.757C161.454 139.624 161.292 139.409 161.227 139.158C161.162 138.911 161.196 138.648 161.322 138.426C161.448 138.204 161.655 138.039 161.9 137.967L171.019 135.618C171.266 135.553 171.529 135.587 171.751 135.713C171.973 135.839 172.138 136.046 172.21 136.291C172.245 136.419 172.255 136.552 172.237 136.684C172.22 136.815 172.177 136.942 172.109 137.056C172.042 137.17 171.953 137.27 171.846 137.349C171.74 137.428 171.619 137.485 171.49 137.516Z" fill="#407BFF"/>
<path d="M125.437 14.3429C125.275 14.7467 125.363 15.1707 125.625 15.2851C125.888 15.3995 126.238 15.164 126.399 14.7602C126.561 14.3564 126.48 13.9324 126.211 13.818C125.942 13.7036 125.605 13.9391 125.437 14.3429Z" fill="#263238"/>
<path d="M126.089 13.8047L127.173 13.946C127.173 13.946 126.365 14.4777 126.089 13.8047Z" fill="#263238"/>
<path d="M125.625 14.8828C125.614 15.9662 125.75 17.046 126.029 18.093C125.76 18.1503 125.483 18.148 125.215 18.0864C124.948 18.0248 124.697 17.9053 124.481 17.7363L125.625 14.8828Z" fill="#ED893E"/>
<path d="M127.065 11.8812C127.023 11.8731 126.984 11.8546 126.951 11.8273C126.709 11.606 126.419 11.4435 126.104 11.3525C125.789 11.2615 125.457 11.2443 125.134 11.3024C125.068 11.319 124.998 11.3094 124.939 11.2755C124.88 11.2416 124.836 11.1861 124.818 11.1207C124.801 11.0547 124.811 10.9848 124.844 10.9258C124.878 10.8668 124.934 10.8233 124.999 10.8044C125.404 10.7242 125.821 10.7397 126.218 10.8495C126.616 10.9594 126.982 11.1605 127.287 11.437C127.311 11.4608 127.331 11.4891 127.344 11.5203C127.357 11.5515 127.363 11.5849 127.363 11.6187C127.363 11.6525 127.357 11.686 127.344 11.7172C127.331 11.7483 127.311 11.7767 127.287 11.8004C127.26 11.8312 127.225 11.8547 127.187 11.8688C127.148 11.8829 127.106 11.8872 127.065 11.8812Z" fill="#263238"/>
<path d="M111.169 14.1328C111.459 17.4103 110.368 22.7741 107.892 24.598C107.892 24.598 109.756 28.0437 115.725 28.8446C122.287 29.7262 119.205 26.0314 119.205 26.0314C115.712 24.6854 116.089 22.0809 116.97 19.6851L111.169 14.1328Z" fill="#FFB573"/>
<path d="M129.051 31.625C129.569 34.6804 130.208 37.8503 130.875 40.9393C131.231 42.4805 131.588 44.0284 132.005 45.5426C132.422 47.0569 132.84 48.5711 133.304 50.0585C133.56 50.792 133.789 51.5391 134.058 52.2525L134.462 53.3293L134.556 53.5917V53.6725C134.569 53.7137 134.585 53.7542 134.603 53.7936C134.742 54.0336 134.969 54.2099 135.236 54.2849C135.768 54.4745 136.326 54.5812 136.891 54.6012C138.335 54.641 139.78 54.5237 141.198 54.2513C142.686 53.9821 144.254 53.6186 145.714 53.2148L146.946 55.9405C146.204 56.3822 145.44 56.7865 144.658 57.1519C143.884 57.5308 143.091 57.8678 142.282 58.1614C140.587 58.8232 138.81 59.2489 136.999 59.4266C135.935 59.5233 134.863 59.4506 133.822 59.2113C132.489 58.9072 131.288 58.1829 130.397 57.1452C130.166 56.8666 129.959 56.5694 129.778 56.2568C129.683 56.102 129.609 55.9405 129.529 55.7857L129.401 55.4829L128.876 54.3051C128.533 53.5177 128.203 52.7303 127.913 51.9361C127.335 50.3479 126.783 48.7529 126.305 47.1511C125.827 45.5494 125.396 43.9342 124.959 42.319C124.158 39.0751 123.505 35.8649 123.021 32.5066L129.051 31.625Z" fill="#FFB573"/>
<path d="M145.068 53.4031L147.666 51.3438L148.837 55.3414C148.837 55.3414 145.283 57.9122 144.334 54.8905L145.068 53.4031Z" fill="#FFB573"/>
<path d="M150.015 52.0504L150.943 54.9712L148.837 55.3414L147.673 51.3438L150.015 52.0504Z" fill="#FFB573"/>
<path d="M101.478 180.311L106.909 180.714L108.517 168.244L103.086 167.84L101.478 180.311Z" fill="#FFB573"/>
<path d="M66.6973 164.467L71.4015 167.328L79.2285 157.556L74.5243 154.695L66.6973 164.467Z" fill="#FFB573"/>
<path d="M74.6858 168.771C74.6189 168.781 74.5508 168.781 74.4839 168.771C73.8109 168.771 73.01 167.721 72.6062 167.102C72.5915 167.081 72.5835 167.056 72.5835 167.031C72.5835 167.006 72.5915 166.981 72.6062 166.96C72.6192 166.939 72.6383 166.922 72.661 166.911C72.6838 166.9 72.7092 166.896 72.7341 166.9C72.9562 166.947 74.9012 167.357 75.1569 168.003C75.1843 168.075 75.1926 168.152 75.1807 168.228C75.1689 168.303 75.1375 168.375 75.0896 168.434C74.9993 168.591 74.8561 168.71 74.6858 168.771ZM73.0033 167.243C73.5754 168.051 74.1205 168.528 74.4906 168.535C74.5712 168.536 74.6506 168.515 74.7204 168.475C74.7903 168.435 74.848 168.376 74.8877 168.306C74.9057 168.278 74.9152 168.245 74.9152 168.212C74.9152 168.179 74.9057 168.146 74.8877 168.118C74.78 167.775 73.7773 167.431 73.0033 167.25V167.243Z" fill="#407BFF"/>
<path d="M74.3964 167.087C73.8373 167.239 73.252 167.269 72.6803 167.174C72.659 167.167 72.6398 167.155 72.6245 167.138C72.6093 167.122 72.5983 167.102 72.5928 167.08C72.5821 167.062 72.5765 167.041 72.5765 167.019C72.5765 166.998 72.5821 166.977 72.5928 166.959C72.6331 166.912 73.7032 165.815 74.4906 165.848C74.5923 165.85 74.6923 165.874 74.7832 165.919C74.8741 165.965 74.9536 166.03 75.0156 166.111C75.0884 166.183 75.1348 166.277 75.147 166.378C75.1593 166.48 75.1366 166.583 75.0829 166.669C74.9048 166.879 74.6641 167.025 74.3964 167.087ZM72.9831 166.966C73.6561 167.04 74.6925 166.844 74.9012 166.535C74.9012 166.481 74.955 166.407 74.8473 166.272C74.8076 166.221 74.7567 166.179 74.6984 166.15C74.6401 166.12 74.576 166.105 74.5108 166.104C73.9246 166.226 73.3907 166.527 72.9831 166.966Z" fill="#407BFF"/>
<path d="M72.8148 166.28L68.3528 161.986C68.2791 161.91 68.18 161.864 68.0745 161.857C67.969 161.849 67.8645 161.881 67.7808 161.945L63.9716 164.88C63.8798 164.961 63.8063 165.061 63.7559 165.173C63.7056 165.285 63.6796 165.406 63.6796 165.529C63.6796 165.652 63.7056 165.773 63.7559 165.885C63.8063 165.997 63.8798 166.097 63.9716 166.179C65.5531 167.652 66.3877 168.285 68.3461 170.176C69.5575 171.34 71.1996 173.158 72.8687 174.766C74.5377 176.375 76.1664 174.854 75.6145 174.039C73.1244 170.392 73.4945 169.025 73.2725 167.161C73.2249 166.824 73.0634 166.513 72.8148 166.28Z" fill="#263238"/>
<path d="M109.265 180.888C108.69 180.878 108.117 180.812 107.555 180.693C107.529 180.688 107.506 180.675 107.487 180.655C107.469 180.636 107.458 180.612 107.454 180.585C107.451 180.559 107.455 180.532 107.467 180.508C107.479 180.484 107.498 180.464 107.521 180.451C107.77 180.323 109.978 179.213 110.624 179.589C110.686 179.621 110.738 179.669 110.775 179.729C110.812 179.788 110.832 179.856 110.833 179.926C110.846 180.043 110.831 180.161 110.787 180.27C110.744 180.38 110.674 180.476 110.584 180.552C110.195 180.81 109.73 180.928 109.265 180.888ZM107.986 180.511C109.184 180.707 110.079 180.659 110.415 180.363C110.475 180.313 110.521 180.248 110.549 180.175C110.577 180.102 110.587 180.024 110.577 179.946C110.579 179.919 110.573 179.892 110.56 179.868C110.547 179.844 110.527 179.824 110.503 179.811C110.139 179.61 108.894 180.081 107.986 180.511Z" fill="#407BFF"/>
<path d="M107.582 180.71C107.558 180.717 107.532 180.717 107.508 180.71C107.488 180.697 107.473 180.679 107.463 180.657C107.454 180.636 107.45 180.612 107.454 180.589C107.454 180.494 107.717 178.273 108.935 178.273H109.036C109.392 178.307 109.493 178.482 109.514 178.63C109.615 179.243 108.295 180.42 107.636 180.716L107.582 180.71ZM108.928 178.509C108.147 178.509 107.838 179.801 107.744 180.353C108.417 179.949 109.312 179.007 109.251 178.657C109.251 178.623 109.251 178.536 109.002 178.516L108.928 178.509Z" fill="#407BFF"/>
<path d="M107.245 179.941H101.141C101.036 179.941 100.933 179.978 100.852 180.046C100.771 180.114 100.716 180.208 100.697 180.312L99.8761 185.137C99.8598 185.258 99.8695 185.381 99.9047 185.498C99.9398 185.614 99.9996 185.722 100.08 185.814C100.16 185.906 100.259 185.98 100.37 186.03C100.481 186.08 100.602 186.106 100.724 186.106C102.851 186.106 103.88 185.945 106.566 185.945C108.215 185.945 111.627 186.113 113.908 186.113C116.19 186.113 116.371 183.858 115.422 183.656C111.189 182.741 109.547 181.476 108.147 180.291C107.897 180.072 107.578 179.948 107.245 179.941Z" fill="#263238"/>
<path opacity="0.2" d="M108.517 168.245L107.622 175.177L102.252 174.275L103.086 167.848L108.517 168.245Z" fill="black"/>
<path opacity="0.2" d="M74.5175 154.695L79.2285 157.562L75.9847 161.6L71.1794 158.861L74.5175 154.695Z" fill="black"/>
<path d="M98.7388 57.3194L120.726 60.2739C129.246 29.437 126.736 28.6092 126.736 28.6092C125.767 28.1474 124.766 27.756 123.741 27.4382C122.704 27.0613 121.657 26.7181 120.598 26.4085C118.483 25.7807 116.332 25.2796 114.157 24.9077C109.936 24.182 105.646 23.9404 101.37 24.1876C100.942 24.2176 100.525 24.3439 100.153 24.5571C99.7797 24.7704 99.4597 25.0651 99.2166 25.4192C99.1252 25.5506 99.0463 25.6903 98.9811 25.8365C98.7418 26.3486 98.6487 26.9169 98.7119 27.4786C100.569 43.6844 99.9704 49.0146 98.7388 57.3194Z" fill="#407BFF"/>
<path opacity="0.2" d="M122.866 38.0325C122.433 41.2233 122.844 44.4718 124.057 47.4545C125.517 41.4378 126.312 37.3595 126.702 34.5329C125.026 34.4588 123.283 35.1049 122.866 38.0325Z" fill="black"/>
<path d="M126.54 28.5045C130.309 30.6581 132.927 35.7931 133.715 38.7744L125.692 46.1101C125.692 46.1101 121.533 36.4391 121.87 33.4375C122.206 30.436 125.12 27.6901 126.54 28.5045Z" fill="#407BFF"/>
<path d="M112.36 7.37128C110.671 12.4726 109.85 14.5926 111.331 18.2268C113.565 23.6983 120.181 24.8558 123.357 20.4073C126.217 16.4029 128.499 8.73074 124.427 4.65236C123.572 3.74243 122.493 3.07142 121.299 2.70557C120.105 2.33972 118.836 2.2917 117.617 2.56625C116.399 2.8408 115.273 3.42842 114.351 4.27108C113.429 5.11375 112.743 6.18233 112.36 7.37128Z" fill="#FFB573"/>
<path d="M120.726 11.8939C120.371 12.8297 120.314 13.8524 120.564 14.8215C120.901 16.1675 121.91 16.2819 122.536 15.4137C123.162 14.5455 123.586 12.9774 122.913 11.8468C122.24 10.7162 121.163 10.8642 120.726 11.8939Z" fill="#FFB573"/>
<path d="M114.191 1.01727C110.557 -1.00173 104.015 4.90722 102.373 14.5513C101.195 21.4563 115.941 24.7944 125.255 24.6867C124.636 23.058 120.766 18.1586 123.236 13.4409C125.033 10.0153 127.079 10.8094 127.213 6.82527C127.382 1.80469 120.732 -1.56032 114.191 1.01727Z" fill="#263238"/>
<path d="M122.462 3.18438C126.689 2.77385 130.935 6.92626 127.785 11.0652C127.016 10.4483 126.121 10.0079 125.162 9.77535C124.204 9.54276 123.206 9.52359 122.24 9.71921C120.308 10.1499 122.462 3.18438 122.462 3.18438Z" fill="#263238"/>
<path d="M114.924 59.4952C114.924 59.4952 106.411 95.5815 102.373 116.317C98.16 138.189 77.9633 160.977 77.9633 160.977L71.1256 157.154C71.1256 157.154 83.8319 136.359 87.9506 115.933C96.3227 74.4762 90.6426 66.131 98.7186 57.3281L114.924 59.4952Z" fill="#263238"/>
<path d="M78.6632 161.615L70.0959 156.843L71.3477 154.312L80.9582 158.734L78.6632 161.615Z" fill="#407BFF"/>
<path opacity="0.2" d="M110.382 67.3357C103.746 73.1033 104.466 93.5827 105.159 102.776C107.945 89.6658 111.29 75.0752 113.235 66.629C112.555 66.1041 111.607 66.2993 110.382 67.3357Z" fill="black"/>
<path d="M120.403 60.2892C120.403 60.2892 124.245 103.139 122.146 119.48C119.965 136.48 108.874 173.461 108.874 173.461L101.027 172.451C101.027 172.451 107.394 135.8 108.524 118.975C109.756 100.622 104.284 58.1289 104.284 58.1289L120.403 60.2892Z" fill="#263238"/>
<path d="M110.537 173.91L99.3782 172.47L99.5464 169.172L111.66 170.343L110.537 173.91Z" fill="#407BFF"/>
<path d="M98.5437 55.9941L97.3457 57.818C97.2515 57.9593 97.4198 58.1343 97.6688 58.1679L120.732 61.2637C120.934 61.2637 121.109 61.2166 121.13 61.0955L121.54 59.1707C121.54 59.0361 121.405 58.8948 121.19 58.8679L98.9206 55.8797C98.8532 55.8657 98.7834 55.8688 98.7175 55.8888C98.6517 55.9088 98.5919 55.945 98.5437 55.9941Z" fill="#407BFF"/>
<path opacity="0.5" d="M98.5437 55.9941L97.3457 57.818C97.2515 57.9593 97.4198 58.1343 97.6688 58.1679L120.732 61.2637C120.934 61.2637 121.109 61.2166 121.13 61.0955L121.54 59.1707C121.54 59.0361 121.405 58.8948 121.19 58.8679L98.9206 55.8797C98.8532 55.8657 98.7834 55.8688 98.7175 55.8888C98.6517 55.9088 98.5919 55.945 98.5437 55.9941Z" fill="black"/>
<path d="M101.276 58.896L100.677 58.8152C100.556 58.8152 100.475 58.7277 100.489 58.6537L101.04 56.1501C101.04 56.0828 101.168 56.0357 101.283 56.0492L101.882 56.1299C102.003 56.1299 102.084 56.2174 102.07 56.2915L101.518 58.795C101.505 58.8354 101.39 58.896 101.276 58.896Z" fill="#263238"/>
<path d="M116.338 60.914L115.739 60.8332C115.624 60.8332 115.537 60.7457 115.55 60.6717L116.102 58.1681C116.102 58.0941 116.23 58.047 116.351 58.0672L116.943 58.1412C117.065 58.1412 117.145 58.2354 117.132 58.3095L116.58 60.8063C116.567 60.914 116.452 60.914 116.338 60.914Z" fill="#263238"/>
</svg>
