<svg width="208" height="150" viewBox="0 0 208 150" fill="none" xmlns="http://www.w3.org/2000/svg">
<g id="Group 680">
<g id="background-simple">
<path id="Vector" d="M95.5798 3.28431C63.498 17.7263 92.6213 43.4454 74.0984 57.4541C55.5756 71.4628 5.18961 55.2671 24.4098 91.6527C46.9723 134.389 145.722 128.455 167.018 76.0264C188.314 23.598 127.662 -11.1494 95.5798 3.28431Z" fill="#407BFF"/>
<path id="Vector_2" opacity="0.9" d="M95.5798 3.28431C63.498 17.7263 92.6213 43.4454 74.0984 57.4541C55.5756 71.4628 5.18961 55.2671 24.4098 91.6527C46.9723 134.389 145.722 128.455 167.018 76.0264C188.314 23.598 127.662 -11.1494 95.5798 3.28431Z" fill="white"/>
</g>
<g id="Shadow">
<path id="path" d="M104 150C161.045 150 207.289 147.3 207.289 143.97C207.289 140.639 161.045 137.939 104 137.939C46.9543 137.939 0.709961 140.639 0.709961 143.97C0.709961 147.3 46.9543 150 104 150Z" fill="#F5F5F5"/>
</g>
<g id="Plant">
<path id="Vector_3" d="M164.152 131.722C164.152 131.722 161.622 126.203 164.514 120.759C167.407 115.314 168.243 114.036 166.4 112.922C164.557 111.809 163.71 117.275 163.71 117.275C162.798 114.802 162.705 112.101 163.444 109.572C164.722 105.635 165.527 99.2207 163.779 98.5335C162.032 97.8463 163.444 106.524 161.92 109.497C161.147 107.416 160.648 105.244 160.434 103.035C160.226 99.8759 160.551 94.8257 159.171 93.5312C157.791 92.2367 156.902 93.1317 158.26 100.11C159.077 104.28 159.528 108.514 159.608 112.763C159.608 112.763 156.609 103.605 154.59 103.339C152.571 103.072 152.576 106.04 154.302 108.613C156.028 111.186 159.358 115.788 159.901 118.159C159.901 118.159 156.603 111.271 153.642 113.364C150.68 115.458 156.22 119.64 158.692 121.142C161.164 122.645 162.868 132.09 162.868 132.09L164.152 131.722Z" fill="#407BFF"/>
<path id="Vector_4" opacity="0.2" d="M164.152 131.722C164.152 131.722 161.622 126.203 164.514 120.759C167.407 115.314 168.243 114.036 166.4 112.922C164.557 111.809 163.71 117.275 163.71 117.275C162.798 114.802 162.705 112.101 163.444 109.572C164.722 105.635 165.527 99.2207 163.779 98.5335C162.032 97.8463 163.444 106.524 161.92 109.497C161.147 107.416 160.648 105.244 160.434 103.035C160.226 99.8759 160.551 94.8257 159.171 93.5312C157.791 92.2367 156.902 93.1317 158.26 100.11C159.077 104.28 159.528 108.514 159.608 112.763C159.608 112.763 156.609 103.605 154.59 103.339C152.571 103.072 152.576 106.04 154.302 108.613C156.028 111.186 159.358 115.788 159.901 118.159C159.901 118.159 156.603 111.271 153.642 113.364C150.68 115.458 156.22 119.64 158.692 121.142C161.164 122.645 162.868 132.09 162.868 132.09L164.152 131.722Z" fill="black"/>
<path id="Vector_5" d="M162.154 133.986C162.154 133.986 164.621 128.43 161.664 123.033C158.707 117.637 157.855 116.363 159.682 115.218C161.51 114.073 162.426 119.533 162.426 119.533C163.309 117.051 163.37 114.35 162.602 111.83C161.275 107.909 160.391 101.511 162.133 100.797C163.875 100.083 162.564 108.788 164.12 111.729C164.869 109.64 165.343 107.462 165.532 105.251C165.702 102.081 165.313 97.0362 166.682 95.7204C168.051 94.4046 168.946 95.2889 167.668 102.289C166.902 106.471 166.503 110.711 166.475 114.962C166.475 114.962 169.367 105.762 171.392 105.485C173.416 105.208 173.437 108.149 171.743 110.748C170.049 113.348 166.778 118.004 166.261 120.38C166.261 120.38 169.458 113.455 172.462 115.511C175.467 117.567 169.959 121.824 167.508 123.363C165.057 124.903 163.449 134.353 163.449 134.353L162.154 133.986Z" fill="#407BFF"/>
<path id="Vector_6" d="M173.522 130.027H153.167L154.813 144.592H171.871L173.522 130.027Z" fill="#263238"/>
</g>
<g id="Thesis">
<path id="Vector_7" d="M176.665 12.6855L171.029 77.0917L124.64 73.0324L128.417 77.5339L174.806 81.5932L180.442 17.1871L176.665 12.6855Z" fill="#263238"/>
<path id="Vector_8" opacity="0.5" d="M176.665 12.6855L171.029 77.0917L124.64 73.0324L128.417 77.5339L174.806 81.5932L180.442 17.1871L176.665 12.6855Z" fill="white"/>
<path id="Vector_9" d="M176.66 12.6834L130.271 8.625L124.636 73.0355L171.024 77.0939L176.66 12.6834Z" fill="#407BFF"/>
<path id="Vector_10" opacity="0.6" d="M176.66 12.6834L130.271 8.625L124.636 73.0355L171.024 77.0939L176.66 12.6834Z" fill="white"/>
<path id="Vector_11" d="M177.933 22.0395C177.881 22.0348 177.831 22.0199 177.785 21.9956C177.739 21.9714 177.698 21.9382 177.665 21.8981C177.631 21.858 177.607 21.8117 177.591 21.7619C177.576 21.7121 177.571 21.6598 177.576 21.608L177.725 19.9086C177.729 19.8567 177.744 19.8062 177.767 19.7599C177.791 19.7136 177.823 19.6724 177.863 19.6388C177.903 19.6051 177.949 19.5796 177.998 19.5637C178.048 19.5479 178.1 19.5419 178.151 19.5463C178.255 19.5558 178.351 19.6059 178.418 19.6858C178.485 19.7656 178.517 19.8687 178.508 19.9725L178.359 21.6772C178.355 21.729 178.341 21.7796 178.317 21.8259C178.294 21.8722 178.261 21.9133 178.222 21.947C178.182 21.9807 178.136 22.0062 178.087 22.022C178.037 22.0379 177.985 22.0438 177.933 22.0395Z" fill="#263238"/>
<path id="Vector_12" d="M175.125 54.1082C175.074 54.1042 175.023 54.0899 174.977 54.0662C174.931 54.0425 174.891 54.0099 174.857 53.9702C174.824 53.9305 174.799 53.8845 174.784 53.8351C174.769 53.7856 174.763 53.7336 174.769 53.682L177.342 24.2651C177.346 24.2135 177.36 24.1632 177.384 24.1171C177.407 24.0711 177.44 24.0302 177.48 23.997C177.519 23.9638 177.565 23.9388 177.615 23.9235C177.664 23.9083 177.716 23.903 177.768 23.9082C177.82 23.9122 177.87 23.9264 177.916 23.9501C177.963 23.9737 178.004 24.0063 178.038 24.0459C178.071 24.0855 178.097 24.1314 178.113 24.1809C178.128 24.2304 178.134 24.2825 178.13 24.3343L175.541 53.7513C175.533 53.8536 175.485 53.9485 175.407 54.0153C175.329 54.0822 175.228 54.1156 175.125 54.1082Z" fill="#263238"/>
<path id="Vector_13" d="M173.762 69.7401C173.657 69.7293 173.561 69.6782 173.493 69.5977C173.426 69.5171 173.392 69.4134 173.399 69.3086L174.476 56.8588C174.48 56.8072 174.494 56.7569 174.518 56.7109C174.541 56.6648 174.574 56.624 174.614 56.5907C174.653 56.5575 174.699 56.5325 174.749 56.5173C174.798 56.502 174.85 56.4968 174.902 56.5019C175.005 56.5114 175.101 56.5615 175.168 56.6414C175.235 56.7212 175.268 56.8243 175.259 56.9281L174.193 69.3778C174.184 69.483 174.133 69.5801 174.052 69.6479C173.971 69.7158 173.867 69.7489 173.762 69.7401Z" fill="#263238"/>
<path id="Vector_14" d="M173.31 74.9126C173.258 74.9085 173.208 74.8943 173.161 74.8707C173.115 74.847 173.074 74.8145 173.04 74.7748C173.006 74.7352 172.981 74.6894 172.965 74.6399C172.949 74.5903 172.943 74.5382 172.948 74.4864L173.15 72.1957C173.154 72.1439 173.168 72.0933 173.192 72.047C173.216 72.0007 173.248 71.9595 173.288 71.9259C173.327 71.8922 173.373 71.8667 173.423 71.8508C173.472 71.835 173.524 71.8291 173.576 71.8334C173.68 71.8429 173.776 71.893 173.843 71.9729C173.91 72.0528 173.942 72.1558 173.933 72.2596L173.736 74.5556C173.727 74.6594 173.676 74.7551 173.597 74.822C173.517 74.8889 173.414 74.9214 173.31 74.9126Z" fill="#263238"/>
<path id="Vector_15" d="M141.197 76.9632L133.073 76.2547C132.969 76.2439 132.873 76.1927 132.807 76.112C132.74 76.0312 132.707 75.9276 132.716 75.8232C132.726 75.7195 132.776 75.6237 132.856 75.5568C132.936 75.49 133.039 75.4574 133.142 75.4663L141.267 76.1748C141.371 76.1856 141.467 76.2367 141.535 76.3172C141.603 76.3977 141.636 76.5014 141.629 76.6063C141.618 76.7105 141.567 76.8063 141.486 76.873C141.405 76.9398 141.302 76.9722 141.197 76.9632Z" fill="#263238"/>
<path id="Vector_16" d="M161.116 78.7044L144.74 77.2714C144.688 77.2673 144.637 77.2531 144.591 77.2294C144.545 77.2058 144.503 77.1732 144.47 77.1336C144.436 77.094 144.411 77.0481 144.395 76.9986C144.379 76.9491 144.373 76.897 144.377 76.8452C144.382 76.7933 144.397 76.7429 144.421 76.6968C144.445 76.6508 144.479 76.61 144.519 76.5768C144.559 76.5436 144.605 76.5187 144.655 76.5035C144.705 76.4883 144.757 76.4831 144.809 76.4883L161.185 77.9213C161.237 77.9253 161.287 77.9396 161.333 77.9632C161.38 77.9868 161.421 78.0194 161.455 78.059C161.488 78.0986 161.514 78.1445 161.53 78.194C161.545 78.2435 161.551 78.2956 161.547 78.3474C161.542 78.3993 161.527 78.4497 161.503 78.4958C161.479 78.5419 161.446 78.5827 161.406 78.6158C161.366 78.649 161.319 78.6739 161.269 78.6891C161.22 78.7043 161.167 78.7095 161.116 78.7044Z" fill="#263238"/>
<path id="Vector_17" d="M165.702 79.1047L163.476 78.9129C163.372 78.9034 163.276 78.8532 163.209 78.7734C163.142 78.6935 163.11 78.5905 163.119 78.4867C163.123 78.4349 163.137 78.3843 163.161 78.338C163.184 78.2917 163.217 78.2506 163.256 78.2169C163.296 78.1832 163.342 78.1577 163.391 78.1419C163.441 78.126 163.493 78.1201 163.545 78.1244L165.772 78.3215C165.823 78.3256 165.874 78.3398 165.92 78.3635C165.967 78.3871 166.008 78.4197 166.041 78.4593C166.075 78.4989 166.101 78.5447 166.116 78.5942C166.132 78.6438 166.138 78.6959 166.134 78.7477C166.129 78.7996 166.114 78.85 166.09 78.8961C166.066 78.9421 166.033 78.9829 165.992 79.0161C165.952 79.0493 165.906 79.0742 165.856 79.0894C165.806 79.1046 165.754 79.1098 165.702 79.1047Z" fill="#263238"/>
<g id="Group" opacity="0.4">
<path id="Vector_18" d="M177.934 22.0395C177.882 22.0348 177.832 22.0199 177.786 21.9956C177.74 21.9714 177.699 21.9382 177.666 21.8981C177.632 21.858 177.608 21.8117 177.592 21.7619C177.577 21.7121 177.572 21.6598 177.577 21.608L177.726 19.9086C177.73 19.8567 177.745 19.8062 177.768 19.7599C177.792 19.7136 177.824 19.6724 177.864 19.6388C177.904 19.6051 177.949 19.5796 177.999 19.5637C178.048 19.5479 178.101 19.5419 178.152 19.5463C178.256 19.5558 178.352 19.6059 178.419 19.6858C178.486 19.7656 178.518 19.8687 178.509 19.9725L178.36 21.6772C178.356 21.729 178.342 21.7796 178.318 21.8259C178.295 21.8722 178.262 21.9133 178.223 21.947C178.183 21.9807 178.137 22.0062 178.088 22.022C178.038 22.0379 177.986 22.0438 177.934 22.0395Z" fill="white"/>
<path id="Vector_19" d="M175.126 54.1102C175.075 54.1062 175.024 54.0919 174.978 54.0682C174.932 54.0445 174.892 54.0118 174.858 53.9721C174.825 53.9324 174.8 53.8865 174.785 53.837C174.77 53.7875 174.764 53.7355 174.769 53.684L177.343 24.267C177.347 24.2154 177.361 24.1651 177.385 24.1191C177.408 24.073 177.441 24.0322 177.481 23.999C177.52 23.9657 177.566 23.9407 177.616 23.9255C177.665 23.9102 177.717 23.905 177.769 23.9101C177.821 23.9141 177.871 23.9284 177.917 23.952C177.964 23.9757 178.005 24.0082 178.039 24.0478C178.072 24.0874 178.098 24.1333 178.114 24.1828C178.129 24.2323 178.135 24.2845 178.131 24.3363L175.542 53.7532C175.534 53.8555 175.486 53.9504 175.408 54.0173C175.33 54.0841 175.229 54.1175 175.126 54.1102Z" fill="white"/>
<path id="Vector_20" d="M173.763 69.7401C173.658 69.7293 173.562 69.6782 173.494 69.5977C173.427 69.5171 173.393 69.4134 173.4 69.3086L174.477 56.8588C174.481 56.8072 174.495 56.7569 174.519 56.7109C174.542 56.6648 174.575 56.624 174.615 56.5907C174.654 56.5575 174.7 56.5325 174.75 56.5173C174.799 56.502 174.851 56.4968 174.903 56.5019C175.006 56.5114 175.102 56.5615 175.169 56.6414C175.236 56.7212 175.269 56.8243 175.26 56.9281L174.194 69.3778C174.185 69.483 174.134 69.5801 174.053 69.6479C173.972 69.7158 173.868 69.7489 173.763 69.7401Z" fill="white"/>
<path id="Vector_21" d="M173.31 74.9126C173.258 74.9085 173.208 74.8943 173.161 74.8707C173.115 74.847 173.074 74.8145 173.04 74.7748C173.006 74.7352 172.981 74.6894 172.965 74.6399C172.949 74.5903 172.943 74.5382 172.948 74.4864L173.15 72.1957C173.154 72.1439 173.168 72.0933 173.192 72.047C173.216 72.0007 173.248 71.9595 173.288 71.9259C173.327 71.8922 173.373 71.8667 173.423 71.8508C173.472 71.835 173.524 71.8291 173.576 71.8334C173.68 71.8429 173.776 71.893 173.843 71.9729C173.91 72.0528 173.942 72.1558 173.933 72.2596L173.736 74.5556C173.727 74.6594 173.676 74.7551 173.597 74.822C173.517 74.8889 173.414 74.9214 173.31 74.9126Z" fill="white"/>
<path id="Vector_22" d="M141.197 76.9632L133.073 76.2547C132.969 76.2439 132.873 76.1927 132.807 76.112C132.74 76.0312 132.707 75.9276 132.716 75.8232C132.726 75.7195 132.776 75.6237 132.856 75.5568C132.936 75.49 133.039 75.4574 133.142 75.4663L141.267 76.1748C141.371 76.1856 141.467 76.2367 141.535 76.3172C141.603 76.3977 141.636 76.5014 141.629 76.6063C141.618 76.7105 141.567 76.8063 141.486 76.873C141.405 76.9398 141.302 76.9722 141.197 76.9632Z" fill="white"/>
<path id="Vector_23" d="M161.116 78.7044L144.74 77.2714C144.688 77.2673 144.637 77.2531 144.591 77.2294C144.545 77.2058 144.503 77.1732 144.47 77.1336C144.436 77.094 144.411 77.0481 144.395 76.9986C144.379 76.9491 144.373 76.897 144.377 76.8452C144.382 76.7933 144.397 76.7429 144.421 76.6968C144.445 76.6508 144.479 76.61 144.519 76.5768C144.559 76.5436 144.605 76.5187 144.655 76.5035C144.705 76.4883 144.757 76.4831 144.809 76.4883L161.185 77.9213C161.237 77.9253 161.287 77.9396 161.333 77.9632C161.38 77.9868 161.421 78.0194 161.455 78.059C161.488 78.0986 161.514 78.1445 161.53 78.194C161.545 78.2435 161.551 78.2956 161.547 78.3474C161.542 78.3993 161.527 78.4497 161.503 78.4958C161.479 78.5419 161.446 78.5827 161.406 78.6158C161.366 78.649 161.319 78.6739 161.269 78.6891C161.22 78.7043 161.167 78.7095 161.116 78.7044Z" fill="white"/>
<path id="Vector_24" d="M165.702 79.1047L163.476 78.9129C163.372 78.9034 163.276 78.8532 163.209 78.7734C163.142 78.6935 163.11 78.5905 163.119 78.4867C163.123 78.4349 163.137 78.3843 163.161 78.338C163.184 78.2917 163.217 78.2506 163.256 78.2169C163.296 78.1832 163.342 78.1577 163.391 78.1419C163.441 78.126 163.493 78.1201 163.545 78.1244L165.772 78.3215C165.823 78.3256 165.874 78.3398 165.92 78.3635C165.967 78.3871 166.008 78.4197 166.041 78.4593C166.075 78.4989 166.101 78.5447 166.116 78.5942C166.132 78.6438 166.138 78.6959 166.134 78.7477C166.129 78.7996 166.114 78.85 166.09 78.8961C166.066 78.9421 166.033 78.9829 165.992 79.0161C165.952 79.0493 165.906 79.0742 165.856 79.0894C165.806 79.1046 165.754 79.1098 165.702 79.1047Z" fill="white"/>
</g>
<path id="Vector_25" d="M132.609 35.4381C130.963 35.6778 125.998 34.8574 125.998 34.8574L124.885 47.6428C124.885 47.6428 129.914 47.696 131.491 48.2181C131.977 48.4587 132.442 48.7403 132.881 49.0598L134.122 34.8574C133.636 35.0943 133.129 35.2886 132.609 35.4381Z" fill="#263238"/>
<path id="Vector_26" d="M131.943 48.4355C132.375 48.6912 132.881 49.0481 132.881 49.0481L134.122 34.8457C134.122 34.8457 133.589 35.1121 133.094 35.2879L131.943 48.4355Z" fill="black"/>
<path id="Vector_27" d="M133.014 49.7783C132.832 49.7621 132.664 49.6746 132.546 49.5349C132.428 49.3952 132.37 49.2146 132.385 49.0325L133.632 34.7822C133.639 34.6913 133.664 34.6028 133.706 34.5219C133.748 34.4409 133.806 34.3691 133.876 34.3106C133.945 34.2521 134.026 34.2081 134.113 34.1811C134.2 34.1542 134.292 34.1448 134.383 34.1536C134.473 34.1609 134.561 34.1861 134.641 34.2277C134.721 34.2694 134.793 34.3265 134.851 34.3959C134.909 34.4654 134.952 34.5456 134.979 34.632C135.006 34.7185 135.015 34.8094 135.006 34.8994L133.76 49.1497C133.752 49.2401 133.727 49.3281 133.685 49.4087C133.644 49.4893 133.587 49.5609 133.517 49.6193C133.448 49.6777 133.368 49.7219 133.281 49.7491C133.195 49.7764 133.104 49.7864 133.014 49.7783Z" fill="#263238"/>
<path id="Vector_28" d="M132.268 38.5112L131.687 45.117L127.165 43.1992C127.084 43.1682 126.997 43.1602 126.912 43.1762C126.827 43.1922 126.749 43.2315 126.685 43.2897C126.403 43.5411 126.072 43.7322 125.712 43.8513C125.353 43.9704 124.974 44.0149 124.597 43.9823C124.341 43.9726 124.09 43.9088 123.86 43.7949C123.631 43.681 123.428 43.5197 123.265 43.3217C122.663 42.5546 122.764 41.3027 122.94 40.1786C123.017 39.6493 123.296 39.1703 123.718 38.8417C124.14 38.513 124.672 38.3603 125.204 38.4153C125.919 38.5078 126.571 38.8745 127.021 39.4381C127.072 39.5088 127.142 39.5634 127.223 39.5955C127.305 39.6276 127.393 39.6358 127.479 39.6193L132.268 38.5112ZM131.171 44.2539L131.608 39.273L127.612 40.1946C127.416 40.2373 127.213 40.2239 127.024 40.1561C126.836 40.0882 126.67 39.9687 126.547 39.811C126.196 39.3658 125.686 39.0738 125.124 38.996C124.745 38.9623 124.368 39.0758 124.07 39.3128C123.773 39.5499 123.578 39.8923 123.526 40.2692C123.377 41.2068 123.265 42.3575 123.729 42.9328C123.843 43.0646 123.983 43.171 124.141 43.2453C124.299 43.3197 124.471 43.3602 124.645 43.3643C124.942 43.3934 125.242 43.3611 125.526 43.2694C125.81 43.1778 126.072 43.0288 126.296 42.8316C126.441 42.6972 126.622 42.6073 126.816 42.5723C127.011 42.5374 127.211 42.559 127.394 42.6345L131.171 44.2539Z" fill="#263238"/>
<g id="Group_2" opacity="0.5">
<path id="Vector_29" d="M132.268 38.5112L131.687 45.117L127.165 43.1992C127.084 43.1682 126.997 43.1602 126.912 43.1762C126.827 43.1922 126.749 43.2315 126.685 43.2897C126.403 43.5411 126.072 43.7322 125.712 43.8513C125.353 43.9704 124.974 44.0149 124.597 43.9823C124.341 43.9726 124.09 43.9088 123.86 43.7949C123.631 43.681 123.428 43.5197 123.265 43.3217C122.663 42.5546 122.764 41.3027 122.94 40.1786C123.017 39.6493 123.296 39.1703 123.718 38.8417C124.14 38.513 124.672 38.3603 125.204 38.4153C125.919 38.5078 126.571 38.8745 127.021 39.4381C127.072 39.5088 127.142 39.5634 127.223 39.5955C127.305 39.6276 127.393 39.6358 127.479 39.6193L132.268 38.5112ZM131.171 44.2539L131.608 39.273L127.612 40.1946C127.416 40.2373 127.213 40.2239 127.024 40.1561C126.836 40.0882 126.67 39.9687 126.547 39.811C126.196 39.3658 125.686 39.0738 125.124 38.996C124.745 38.9623 124.368 39.0758 124.07 39.3128C123.773 39.5499 123.578 39.8923 123.526 40.2692C123.377 41.2068 123.265 42.3575 123.729 42.9328C123.843 43.0646 123.983 43.171 124.141 43.2453C124.299 43.3197 124.471 43.3602 124.645 43.3643C124.942 43.3934 125.242 43.3611 125.526 43.2694C125.81 43.1778 126.072 43.0288 126.296 42.8316C126.441 42.6972 126.622 42.6073 126.816 42.5723C127.011 42.5374 127.211 42.559 127.394 42.6345L131.171 44.2539Z" fill="white"/>
</g>
<path id="Vector_30" d="M164.727 26.5038L139.631 24.309C139.475 24.2941 139.333 24.2186 139.233 24.0989C139.133 23.9792 139.085 23.8249 139.098 23.6697C139.114 23.5141 139.191 23.3711 139.311 23.2715C139.432 23.1719 139.587 23.1236 139.742 23.137L164.834 25.3318C164.911 25.3385 164.986 25.3603 165.054 25.3962C165.123 25.432 165.184 25.481 165.233 25.5404C165.283 25.5999 165.32 25.6685 165.343 25.7424C165.366 25.8163 165.374 25.894 165.366 25.9711C165.36 26.0481 165.338 26.1231 165.302 26.1917C165.266 26.2603 165.217 26.3211 165.158 26.3706C165.098 26.4201 165.03 26.4574 164.956 26.4802C164.882 26.5031 164.804 26.5111 164.727 26.5038Z" fill="#263238"/>
<path id="Vector_31" d="M161.105 29.87L142.614 28.2718C142.459 28.257 142.316 28.1815 142.216 28.0618C142.116 27.9421 142.068 27.7878 142.081 27.6326C142.097 27.477 142.174 27.334 142.295 27.2344C142.415 27.1348 142.57 27.0864 142.726 27.0999L161.211 28.698C161.288 28.7047 161.363 28.7266 161.432 28.7624C161.501 28.7982 161.561 28.8472 161.611 28.9067C161.66 28.9661 161.698 29.0348 161.721 29.1087C161.743 29.1826 161.751 29.2603 161.744 29.3373C161.729 29.4924 161.654 29.6354 161.534 29.7351C161.414 29.8349 161.26 29.8834 161.105 29.87Z" fill="#263238"/>
<path id="Vector_32" d="M165.207 64.6629C165.203 64.7145 165.189 64.7648 165.165 64.8109C165.141 64.8569 165.109 64.8977 165.069 64.931C165.029 64.9642 164.983 64.9892 164.934 65.0045C164.884 65.0197 164.832 65.025 164.781 65.0198L132.892 62.2337C132.84 62.229 132.79 62.2141 132.744 62.1899C132.698 62.1656 132.657 62.1325 132.624 62.0923C132.59 62.0522 132.566 62.0059 132.55 61.9561C132.535 61.9063 132.53 61.854 132.535 61.8022C132.539 61.7506 132.553 61.7003 132.577 61.6542C132.601 61.6082 132.633 61.5673 132.673 61.5341C132.713 61.5009 132.759 61.4759 132.808 61.4606C132.858 61.4454 132.91 61.4401 132.961 61.4453L164.85 64.2367C164.902 64.2407 164.952 64.255 164.998 64.2787C165.044 64.3024 165.085 64.3351 165.118 64.3748C165.151 64.4145 165.176 64.4604 165.192 64.5099C165.207 64.5594 165.212 64.6114 165.207 64.6629Z" fill="#263238"/>
<path id="Vector_33" d="M161.584 68.0294C161.58 68.081 161.566 68.1313 161.542 68.1773C161.518 68.2234 161.486 68.2642 161.446 68.2974C161.406 68.3307 161.36 68.3557 161.311 68.3709C161.262 68.3862 161.21 68.3914 161.158 68.3863L135.875 66.1648C135.771 66.1553 135.675 66.1052 135.609 66.0254C135.542 65.9455 135.509 65.8424 135.518 65.7386C135.522 65.6868 135.536 65.6363 135.56 65.59C135.584 65.5437 135.616 65.5025 135.656 65.4688C135.695 65.4352 135.741 65.4097 135.791 65.3938C135.84 65.3779 135.892 65.372 135.944 65.3764L161.227 67.5872C161.279 67.5919 161.33 67.6068 161.376 67.631C161.422 67.6553 161.462 67.6884 161.496 67.7286C161.529 67.7687 161.554 67.815 161.569 67.8648C161.584 67.9146 161.589 67.9669 161.584 68.0187V68.0294Z" fill="#263238"/>
<path id="Vector_34" d="M154.969 51.4197C157.986 48.8874 158.38 44.3881 155.848 41.3703C153.315 38.3524 148.816 37.9588 145.798 40.4911C142.78 43.0234 142.387 47.5226 144.919 50.5405C147.451 53.5583 151.951 53.952 154.969 51.4197Z" fill="#407BFF"/>
<path id="Vector_35" d="M153.476 48.3018C153.434 48.8078 151.931 49.0902 150.12 48.9304C148.309 48.7706 146.881 48.2325 146.924 47.7264L147.121 45.5156L153.673 46.0856L153.476 48.3018Z" fill="#263238"/>
<path id="Vector_36" opacity="0.6" d="M147.067 46.1332C147.318 46.5914 148.666 47.0388 150.264 47.1987C151.862 47.3585 153.279 47.1294 153.609 46.7192L153.662 46.1013L147.11 45.5312L147.067 46.1332Z" fill="black"/>
<path id="Vector_37" d="M150.258 46.9871L144.984 44.8562C144.959 44.8486 144.937 44.8331 144.922 44.812C144.906 44.7909 144.897 44.7653 144.897 44.739C144.897 44.7128 144.906 44.6872 144.922 44.6661C144.937 44.645 144.959 44.6295 144.984 44.6218L150.583 43.0237C150.596 43.0171 150.611 43.0137 150.626 43.0137C150.641 43.0137 150.655 43.0171 150.668 43.0237L155.905 45.5754C155.928 45.5854 155.947 45.6017 155.961 45.6226C155.975 45.6434 155.982 45.6677 155.982 45.6926C155.982 45.7175 155.975 45.7418 155.961 45.7627C155.947 45.7835 155.928 45.7999 155.905 45.8098L150.333 46.9871C150.308 46.9926 150.283 46.9926 150.258 46.9871Z" fill="#263238"/>
</g>
<g id="Character">
<path id="Vector_38" d="M124.659 103.066H45.3154V115.836H124.659V103.066Z" fill="#407BFF"/>
<path id="Vector_39" opacity="0.8" d="M124.659 103.066H45.3154V115.836H124.659V103.066Z" fill="white"/>
<path id="Vector_40" opacity="0.2" d="M124.66 106.445V105.406L70.3379 105.838L124.66 106.445Z" fill="black"/>
<path id="Vector_41" opacity="0.2" d="M124.66 110.92V110.115L100.271 110.989L124.66 110.92Z" fill="black"/>
<path id="Vector_42" opacity="0.2" d="M124.659 113.912V112.873L85.3389 113.475L124.659 113.912Z" fill="black"/>
<path id="Vector_43" opacity="0.2" d="M63.0551 103.066L61.915 112.586L63.2735 111.137C63.73 112.875 64.5834 114.483 65.7666 115.836C66.6153 114.724 67.2906 113.49 67.7697 112.176L104.826 111.75L68.1213 110.945C68.2352 110.42 68.2942 109.885 68.2971 109.347C68.2951 108.902 68.2523 108.458 68.1692 108.021L122.539 107.882L68.0413 107.456C67.8496 106.739 67.5817 106.044 67.2423 105.384C68.0261 104.692 69.0366 104.313 70.0817 104.318H124.659V103.066H63.0551Z" fill="black"/>
<path id="Vector_44" d="M64.2811 109.38C64.2853 110.911 64.896 112.377 65.9794 113.459C67.0627 114.54 68.5305 115.148 70.0611 115.149H125.576C125.632 115.149 125.688 115.16 125.739 115.182C125.791 115.203 125.838 115.235 125.878 115.274C125.917 115.314 125.948 115.361 125.97 115.412C125.991 115.464 126.002 115.52 126.002 115.575V116.034C126.002 116.147 125.957 116.255 125.878 116.335C125.798 116.415 125.689 116.46 125.576 116.46H43.5688C42.6335 116.46 41.7073 116.275 40.8439 115.915C39.9804 115.555 39.1967 115.028 38.538 114.364C37.8793 113.7 37.3587 112.912 37.0061 112.045C36.6535 111.179 36.4759 110.251 36.4836 109.316C36.5297 107.425 37.3176 105.629 38.6772 104.314C40.0367 102.999 41.8588 102.272 43.75 102.289H125.576C125.689 102.289 125.798 102.334 125.878 102.414C125.957 102.494 126.002 102.603 126.002 102.716V103.168C126.002 103.281 125.957 103.39 125.878 103.47C125.798 103.55 125.689 103.595 125.576 103.595H70.2316C68.6808 103.591 67.1903 104.195 66.0784 105.276C64.9665 106.357 64.3214 107.83 64.2811 109.38Z" fill="#407BFF"/>
<path id="Vector_45" opacity="0.4" d="M64.2811 109.38C64.2853 110.911 64.896 112.377 65.9794 113.459C67.0627 114.54 68.5305 115.148 70.0611 115.149H125.576C125.632 115.149 125.688 115.16 125.739 115.182C125.791 115.203 125.838 115.235 125.878 115.274C125.917 115.314 125.948 115.361 125.97 115.412C125.991 115.464 126.002 115.52 126.002 115.575V116.034C126.002 116.147 125.957 116.255 125.878 116.335C125.798 116.415 125.689 116.46 125.576 116.46H43.5688C42.6335 116.46 41.7073 116.275 40.8439 115.915C39.9804 115.555 39.1967 115.028 38.538 114.364C37.8793 113.7 37.3587 112.912 37.0061 112.045C36.6535 111.179 36.4759 110.251 36.4836 109.316C36.5297 107.425 37.3176 105.629 38.6772 104.314C40.0367 102.999 41.8588 102.272 43.75 102.289H125.576C125.689 102.289 125.798 102.334 125.878 102.414C125.957 102.494 126.002 102.603 126.002 102.716V103.168C126.002 103.281 125.957 103.39 125.878 103.47C125.798 103.55 125.689 103.595 125.576 103.595H70.2316C68.6808 103.591 67.1903 104.195 66.0784 105.276C64.9665 106.357 64.3214 107.83 64.2811 109.38Z" fill="white"/>
<path id="Vector_46" d="M64.2807 109.38C64.2849 110.91 64.8956 112.377 65.9789 113.458C67.0623 114.54 68.53 115.148 70.0607 115.149H125.576C125.632 115.149 125.687 115.16 125.739 115.182C125.791 115.203 125.838 115.234 125.877 115.274C125.917 115.314 125.948 115.361 125.969 115.412C125.991 115.464 126.002 115.519 126.002 115.575V116.033C126.002 116.146 125.957 116.255 125.877 116.335C125.797 116.415 125.689 116.46 125.576 116.46H69.7411C68.8056 116.459 67.8796 116.273 67.0161 115.913C66.1527 115.553 65.369 115.026 64.71 114.362C64.051 113.699 63.5298 112.911 63.1764 112.045C62.8229 111.179 62.6442 110.251 62.6506 109.316C62.6993 107.428 63.4866 105.634 64.8433 104.321C66.1999 103.007 68.0177 102.277 69.9062 102.289H125.576C125.689 102.289 125.797 102.334 125.877 102.414C125.957 102.494 126.002 102.602 126.002 102.715V103.168C126.002 103.281 125.957 103.39 125.877 103.47C125.797 103.549 125.689 103.594 125.576 103.594H70.2312C68.6804 103.591 67.1898 104.194 66.0779 105.275C64.966 106.356 64.321 107.829 64.2807 109.38Z" fill="#407BFF"/>
<path id="Vector_47" d="M74.7324 105.938V111.057L76.5863 109.203L78.3816 110.998V105.938H74.7324Z" fill="#263238"/>
<path id="Vector_48" opacity="0.6" d="M64.2807 109.38C64.2849 110.91 64.8956 112.377 65.9789 113.458C67.0623 114.54 68.53 115.148 70.0607 115.149H125.576C125.632 115.149 125.687 115.16 125.739 115.182C125.791 115.203 125.838 115.234 125.877 115.274C125.917 115.314 125.948 115.361 125.969 115.412C125.991 115.464 126.002 115.519 126.002 115.575V116.033C126.002 116.146 125.957 116.255 125.877 116.335C125.797 116.415 125.689 116.46 125.576 116.46H69.7411C68.8056 116.459 67.8796 116.273 67.0161 115.913C66.1527 115.553 65.369 115.026 64.71 114.362C64.051 113.699 63.5298 112.911 63.1764 112.045C62.8229 111.179 62.6442 110.251 62.6506 109.316C62.6993 107.428 63.4866 105.634 64.8433 104.321C66.1999 103.007 68.0177 102.277 69.9062 102.289H125.576C125.689 102.289 125.797 102.334 125.877 102.414C125.957 102.494 126.002 102.602 126.002 102.715V103.168C126.002 103.281 125.957 103.39 125.877 103.47C125.797 103.549 125.689 103.594 125.576 103.594H70.2312C68.6804 103.591 67.1898 104.194 66.0779 105.275C64.966 106.356 64.321 107.829 64.2807 109.38Z" fill="white"/>
<path id="Vector_49" d="M128.489 131.205H49.1455V143.974H128.489V131.205Z" fill="#407BFF"/>
<path id="Vector_50" opacity="0.7" d="M128.489 131.205H49.1455V143.974H128.489V131.205Z" fill="white"/>
<path id="Vector_51" opacity="0.2" d="M128.49 134.578V133.539L74.168 133.976L128.49 134.578Z" fill="black"/>
<path id="Vector_52" opacity="0.2" d="M128.49 139.051V138.252L104.102 139.12L128.49 139.051Z" fill="black"/>
<path id="Vector_53" opacity="0.2" d="M128.489 142.047V141.014L89.1689 141.61L128.489 142.047Z" fill="black"/>
<path id="Vector_54" opacity="0.2" d="M66.886 131.205L65.7354 140.725L67.0938 139.276C67.5553 141.013 68.4102 142.621 69.5923 143.974C70.4371 142.859 71.1105 141.624 71.59 140.309L108.646 139.883L71.9416 139.084C72.0567 138.559 72.1174 138.023 72.1227 137.486C72.119 137.041 72.0744 136.597 71.9895 136.159L126.375 136.037L71.8723 135.611C71.6805 134.895 71.4126 134.202 71.0732 133.544C71.8531 132.843 72.8641 132.454 73.9126 132.452H128.506V131.205H66.886Z" fill="black"/>
<path id="Vector_55" d="M68.1108 137.513C68.108 138.273 68.2555 139.027 68.5447 139.731C68.834 140.434 69.2594 141.073 69.7965 141.612C70.3336 142.15 70.9717 142.578 71.6744 142.869C72.377 143.16 73.1302 143.31 73.8908 143.309H129.406C129.519 143.309 129.627 143.354 129.707 143.434C129.787 143.514 129.832 143.622 129.832 143.735V144.193C129.832 144.306 129.787 144.415 129.707 144.495C129.627 144.575 129.519 144.619 129.406 144.619H43.0355C42.101 144.618 41.1759 144.432 40.3135 144.072C39.451 143.712 38.6681 143.186 38.0098 142.522C37.3514 141.859 36.8306 141.072 36.4772 140.207C36.1238 139.342 35.9447 138.415 35.9503 137.481C35.995 135.588 36.7829 133.788 38.1436 132.472C39.5043 131.155 41.3285 130.426 43.222 130.444H129.406C129.519 130.444 129.627 130.489 129.707 130.568C129.787 130.648 129.832 130.757 129.832 130.87V131.328C129.832 131.441 129.787 131.549 129.707 131.629C129.627 131.709 129.519 131.754 129.406 131.754H74.0613C72.515 131.751 71.0283 132.35 69.9171 133.426C68.806 134.501 68.1579 135.967 68.1108 137.513Z" fill="#263238"/>
<path id="Vector_56" opacity="0.2" d="M68.1108 137.513C68.108 138.273 68.2555 139.027 68.5447 139.731C68.834 140.434 69.2594 141.073 69.7965 141.612C70.3336 142.15 70.9717 142.578 71.6744 142.869C72.377 143.16 73.1302 143.31 73.8908 143.309H129.406C129.519 143.309 129.627 143.354 129.707 143.434C129.787 143.514 129.832 143.622 129.832 143.735V144.193C129.832 144.306 129.787 144.415 129.707 144.495C129.627 144.575 129.519 144.619 129.406 144.619H43.0355C42.101 144.618 41.1759 144.432 40.3135 144.072C39.451 143.712 38.6681 143.186 38.0098 142.522C37.3514 141.859 36.8306 141.072 36.4772 140.207C36.1238 139.342 35.9447 138.415 35.9503 137.481C35.995 135.588 36.7829 133.788 38.1436 132.472C39.5043 131.155 41.3285 130.426 43.222 130.444H129.406C129.519 130.444 129.627 130.489 129.707 130.568C129.787 130.648 129.832 130.757 129.832 130.87V131.328C129.832 131.441 129.787 131.549 129.707 131.629C129.627 131.709 129.519 131.754 129.406 131.754H74.0613C72.515 131.751 71.0283 132.35 69.9171 133.426C68.806 134.501 68.1579 135.967 68.1108 137.513Z" fill="white"/>
<path id="Vector_57" d="M68.1113 137.513C68.1085 138.273 68.256 139.027 68.5453 139.731C68.8346 140.434 69.26 141.073 69.797 141.612C70.3341 142.15 70.9723 142.578 71.6749 142.869C72.3775 143.16 73.1308 143.31 73.8914 143.309H129.406C129.519 143.309 129.628 143.354 129.708 143.434C129.788 143.514 129.833 143.622 129.833 143.735V144.193C129.833 144.306 129.788 144.415 129.708 144.495C129.628 144.575 129.519 144.619 129.406 144.619H73.5717C72.6368 144.619 71.7111 144.434 70.848 144.075C69.9849 143.716 69.2014 143.189 68.5428 142.525C67.8842 141.862 67.3634 141.074 67.0105 140.209C66.6576 139.343 66.4795 138.416 66.4865 137.481C66.5299 135.588 67.3165 133.789 68.6764 132.472C70.0362 131.155 71.8599 130.426 73.7529 130.444H129.406C129.519 130.444 129.628 130.489 129.708 130.568C129.788 130.648 129.833 130.757 129.833 130.87V131.328C129.833 131.441 129.788 131.549 129.708 131.629C129.628 131.709 129.519 131.754 129.406 131.754H74.0618C72.5155 131.751 71.0288 132.35 69.9177 133.426C68.8065 134.501 68.1585 135.967 68.1113 137.513Z" fill="#263238"/>
<path id="Vector_58" d="M74.168 135.893V141.012L76.0165 139.158L77.8118 140.953V135.893H74.168Z" fill="#407BFF"/>
<path id="Vector_59" opacity="0.4" d="M68.1113 137.513C68.1085 138.273 68.256 139.027 68.5453 139.731C68.8346 140.434 69.26 141.073 69.797 141.612C70.3341 142.15 70.9723 142.578 71.6749 142.869C72.3775 143.16 73.1308 143.31 73.8914 143.309H129.406C129.519 143.309 129.628 143.354 129.708 143.434C129.788 143.514 129.833 143.622 129.833 143.735V144.193C129.833 144.306 129.788 144.415 129.708 144.495C129.628 144.575 129.519 144.619 129.406 144.619H73.5717C72.6368 144.619 71.7111 144.434 70.848 144.075C69.9849 143.716 69.2014 143.189 68.5428 142.525C67.8842 141.862 67.3634 141.074 67.0105 140.209C66.6576 139.343 66.4795 138.416 66.4865 137.481C66.5299 135.588 67.3165 133.789 68.6764 132.472C70.0362 131.155 71.8599 130.426 73.7529 130.444H129.406C129.519 130.444 129.628 130.489 129.708 130.568C129.788 130.648 129.833 130.757 129.833 130.87V131.328C129.833 131.441 129.788 131.549 129.708 131.629C129.628 131.709 129.519 131.754 129.406 131.754H74.0618C72.5155 131.751 71.0288 132.35 69.9177 133.426C68.8065 134.501 68.1585 135.967 68.1113 137.513Z" fill="white"/>
<path id="Vector_60" d="M42.0077 129.885H71.4033V117.131H42.0077V129.885Z" fill="#407BFF"/>
<path id="Vector_61" opacity="0.8" d="M42.0077 129.885H71.4033V117.131H42.0077V129.885Z" fill="white"/>
<path id="Vector_62" opacity="0.2" d="M69.0488 118.381H42.0078V117.135H69.0168L69.0488 118.381Z" fill="black"/>
<path id="Vector_63" opacity="0.2" d="M69.0486 119.469L44.6553 119.991L69.0486 120.508V119.469Z" fill="black"/>
<path id="Vector_64" opacity="0.2" d="M69.0485 124.184L43.2168 124.62L69.0485 124.988V124.184Z" fill="black"/>
<path id="Vector_65" opacity="0.2" d="M69.048 126.943L43.4453 127.46L69.048 127.977V126.943Z" fill="black"/>
<path id="Vector_66" opacity="0.2" d="M42.0078 121.285L66.7741 122.031L42.0078 122.553V121.285Z" fill="black"/>
<path id="Vector_67" d="M107.617 123.444C107.615 124.975 107.005 126.443 105.921 127.526C104.838 128.608 103.369 129.217 101.837 129.219H40.6488C40.5358 129.219 40.4274 129.263 40.3475 129.343C40.2676 129.423 40.2227 129.532 40.2227 129.645V130.098C40.2227 130.211 40.2676 130.319 40.3475 130.399C40.4274 130.479 40.5358 130.524 40.6488 130.524H102.157C103.092 130.525 104.019 130.341 104.882 129.982C105.746 129.623 106.53 129.097 107.189 128.433C107.848 127.769 108.369 126.981 108.721 126.115C109.074 125.248 109.251 124.321 109.242 123.385C109.199 121.493 108.412 119.693 107.052 118.376C105.692 117.059 103.869 116.331 101.976 116.348H40.6488C40.5358 116.348 40.4274 116.393 40.3475 116.473C40.2676 116.553 40.2227 116.661 40.2227 116.774V117.232C40.2227 117.345 40.2676 117.454 40.3475 117.534C40.4274 117.614 40.5358 117.658 40.6488 117.658H101.667C103.218 117.655 104.708 118.258 105.82 119.339C106.932 120.421 107.577 121.894 107.617 123.444Z" fill="#263238"/>
<path id="Vector_68" opacity="0.4" d="M107.617 123.444C107.615 124.975 107.005 126.443 105.921 127.526C104.838 128.608 103.369 129.217 101.837 129.219H40.6488C40.5358 129.219 40.4274 129.263 40.3475 129.343C40.2676 129.423 40.2227 129.532 40.2227 129.645V130.098C40.2227 130.211 40.2676 130.319 40.3475 130.399C40.4274 130.479 40.5358 130.524 40.6488 130.524H102.157C103.092 130.525 104.019 130.341 104.882 129.982C105.746 129.623 106.53 129.097 107.189 128.433C107.848 127.769 108.369 126.981 108.721 126.115C109.074 125.248 109.251 124.321 109.242 123.385C109.199 121.493 108.412 119.693 107.052 118.376C105.692 117.059 103.869 116.331 101.976 116.348H40.6488C40.5358 116.348 40.4274 116.393 40.3475 116.473C40.2676 116.553 40.2227 116.661 40.2227 116.774V117.232C40.2227 117.345 40.2676 117.454 40.3475 117.534C40.4274 117.614 40.5358 117.658 40.6488 117.658H101.667C103.218 117.655 104.708 118.258 105.82 119.339C106.932 120.421 107.577 121.894 107.617 123.444Z" fill="white"/>
<path id="Vector_69" d="M129.934 123.518C129.934 125.213 129.26 126.839 128.061 128.038C126.862 129.237 125.236 129.91 123.541 129.91H69.0488V117.125H123.546C125.241 117.126 126.866 117.801 128.063 118.999C129.261 120.198 129.934 121.823 129.934 123.518Z" fill="#407BFF"/>
<path id="Vector_70" opacity="0.7" d="M69.0488 117.135V129.92H123.552C125.247 129.92 126.873 129.247 128.072 128.048C129.271 126.849 129.944 125.223 129.944 123.527C129.944 121.832 129.271 120.206 128.072 119.007C126.873 117.808 125.247 117.135 123.552 117.135H69.0488Z" fill="white"/>
<path id="Vector_71" opacity="0.2" d="M69.0488 120.508V119.469L123.371 119.906L69.0488 120.508Z" fill="black"/>
<path id="Vector_72" opacity="0.2" d="M69.0488 124.988V124.184L93.4369 125.057L69.0488 124.988Z" fill="black"/>
<path id="Vector_73" opacity="0.2" d="M69.0488 127.977V126.943L108.369 127.54L69.0488 127.977Z" fill="black"/>
<path id="Vector_74" opacity="0.2" d="M123.637 118.383C124.686 118.386 125.696 118.775 126.476 119.476C126.137 120.136 125.867 120.831 125.672 121.548L71.1744 121.974L125.549 122.107C125.464 122.546 125.42 122.992 125.416 123.439C125.417 123.977 125.48 124.513 125.603 125.037L88.8927 125.836L125.944 126.268C126.265 127.152 126.677 128 127.174 128.798C128.289 128.022 129.128 126.911 129.57 125.626C130.011 124.341 130.031 122.949 129.627 121.651C129.223 120.354 128.417 119.219 127.324 118.411C126.232 117.603 124.91 117.164 123.552 117.158H69.0488V118.405L123.637 118.383Z" fill="black"/>
<path id="Vector_75" d="M129.427 123.444C129.424 124.975 128.814 126.443 127.731 127.526C126.647 128.608 125.179 129.217 123.647 129.219H68.1322C68.0192 129.219 67.9108 129.263 67.8309 129.343C67.751 129.423 67.7061 129.532 67.7061 129.645V130.098C67.7061 130.211 67.751 130.319 67.8309 130.399C67.9108 130.479 68.0192 130.524 68.1322 130.524H123.967C124.902 130.525 125.829 130.341 126.692 129.982C127.556 129.623 128.34 129.097 128.999 128.433C129.658 127.769 130.179 126.981 130.531 126.115C130.883 125.248 131.061 124.321 131.052 123.385C131.009 121.493 130.222 119.693 128.862 118.376C127.502 117.059 125.679 116.331 123.786 116.348H68.1322C68.0192 116.348 67.9108 116.393 67.8309 116.473C67.751 116.553 67.7061 116.661 67.7061 116.774V117.232C67.7061 117.345 67.751 117.454 67.8309 117.534C67.9108 117.614 68.0192 117.658 68.1322 117.658H123.477C125.028 117.655 126.518 118.258 127.63 119.339C128.742 120.421 129.387 121.894 129.427 123.444Z" fill="#263238"/>
<path id="Vector_76" d="M123.37 121.824V126.944L121.516 125.09L119.721 126.885V121.824H123.37Z" fill="#407BFF"/>
<path id="Vector_77" d="M137.769 49.8639H136.437C136.19 49.869 135.947 49.933 135.73 50.0507C135.512 50.1683 135.325 50.3363 135.186 50.5405L133.864 52.4689C133.602 52.8499 133.435 53.2883 133.378 53.7472C133.32 54.2061 133.374 54.6721 133.534 55.1059L133.737 55.6386C135.947 55.7452 138.419 54.2323 138.419 54.2323L139.176 53.8807C139.332 53.8125 139.473 53.714 139.591 53.5909C139.709 53.4678 139.801 53.3226 139.863 53.1635C139.924 53.0045 139.954 52.8348 139.949 52.6644C139.944 52.494 139.906 52.3261 139.836 52.1706L139.16 50.7056C139.034 50.4463 138.835 50.229 138.589 50.0797C138.342 49.9303 138.057 49.8554 137.769 49.8639Z" fill="#EEC1BB"/>
<path id="Vector_78" d="M112.524 52.2141C115.944 54.979 119.636 57.6426 123.711 59.2727L123.205 59.1662C123.578 59.2567 124.558 58.8838 125.07 58.6334C127.914 57.2484 130.61 55.1708 133.167 53.2743C133.429 53.0848 133.75 52.9952 134.072 53.0218C134.394 53.0483 134.696 53.1892 134.923 53.4189C135.15 53.6487 135.287 53.9521 135.31 54.2744C135.333 54.5967 135.24 54.9165 135.048 55.1761C132.496 58.3724 126.753 64.8663 122.204 63.9181C117.217 62.4318 112.812 59.6563 108.886 56.2628C106.339 53.8123 109.754 49.982 112.524 52.2141Z" fill="#EBC0BB"/>
<path id="Vector_79" d="M105.347 48.4469C104.101 51.9203 106.109 55.3723 110.941 59.437C113.344 59.0801 116.588 54.1524 116.588 54.1524C116.588 54.1524 109.79 47.3548 105.347 48.4469Z" fill="#407BFF"/>
<path id="Vector_80" d="M109.503 26.8715C109.503 26.8715 104.746 22.0025 98.5449 28.1128C92.344 34.2231 91.1348 54.4666 91.1348 54.4666L107.319 57.6096C107.319 57.6096 109.412 55.2071 110.489 48.2763C111.565 41.3456 112.135 34.7185 113.498 33.1737C114.862 31.6288 109.503 26.8715 109.503 26.8715Z" fill="#263238"/>
<path id="Vector_81" d="M123.402 129.39L119.896 127.994L121.266 122.885L122.528 118.197L126.96 119.177L125.08 124.585L123.402 129.39Z" fill="#EEC1BB"/>
<path id="Vector_82" opacity="0.2" d="M125.037 124.695L121.229 122.98L122.512 118.244L126.95 119.203L125.037 124.695Z" fill="black"/>
<path id="Vector_83" d="M96.8777 83.3564C96.8777 83.3564 126.177 79.4036 134.317 84.603C142.457 89.8024 126.694 121.467 126.694 121.467L121.761 120.402C121.761 120.402 125.458 95.3001 125.181 94.2506C124.904 93.2012 111.107 100.047 92.2217 100.697L96.8777 83.3564Z" fill="#263238"/>
<path id="Vector_84" opacity="0.2" d="M96.8777 83.3564C96.8777 83.3564 126.177 79.4036 134.317 84.603C142.457 89.8024 126.694 121.467 126.694 121.467L121.761 120.402C121.761 120.402 125.458 95.3001 125.181 94.2506C124.904 93.2012 111.107 100.047 92.2217 100.697L96.8777 83.3564Z" fill="black"/>
<path id="Vector_85" d="M121.489 118.803L127.695 120.816L126.582 123.645L120.882 121.706L121.489 118.803Z" fill="#263238"/>
<path id="Vector_86" d="M126.647 130.178C125.975 130.178 124.793 129.113 124.548 128.857C124.534 128.844 124.523 128.828 124.516 128.809V128.777C124.515 128.743 124.524 128.71 124.542 128.681C124.574 128.644 125.352 127.616 126.098 127.584C126.211 127.573 126.325 127.586 126.431 127.624C126.538 127.662 126.635 127.723 126.716 127.802C126.902 127.978 126.966 128.149 126.902 128.309C126.801 128.564 126.37 128.703 125.885 128.788C126.277 128.844 126.646 129.008 126.95 129.262C127.004 129.316 127.045 129.38 127.072 129.451C127.098 129.521 127.11 129.597 127.105 129.672C127.105 129.981 126.94 130.104 126.822 130.146C126.766 130.168 126.707 130.179 126.647 130.178ZM124.995 128.916C125.613 129.449 126.434 130.024 126.727 129.907C126.727 129.907 126.833 129.869 126.844 129.656C126.846 129.616 126.84 129.576 126.825 129.538C126.81 129.5 126.788 129.466 126.758 129.438C126.471 129.118 125.581 128.969 124.995 128.926V128.916ZM126.157 127.85H126.109C125.637 127.974 125.22 128.249 124.921 128.634C125.736 128.596 126.567 128.442 126.652 128.223C126.679 128.154 126.588 128.053 126.529 128C126.428 127.907 126.294 127.857 126.157 127.861V127.85Z" fill="#577AFA"/>
<path id="Vector_87" d="M119.241 125.814C119.38 125.42 124.137 127.311 124.137 127.311C124.137 127.311 126.14 131.322 128.825 132.952C131.51 134.582 129.315 135.797 126.071 134.737L118.037 132.121C115.72 131.375 117.808 129.884 119.241 125.814Z" fill="#2E353A"/>
<path id="Vector_88" opacity="0.4" d="M121.489 118.803L127.695 120.816L126.582 123.645L120.882 121.706L121.489 118.803Z" fill="white"/>
<path id="Vector_89" d="M138.691 139.527L135.058 140.55L133.034 135.659L131.19 131.174L135.303 129.256L137.098 134.695L138.691 139.527Z" fill="#EEC1BB"/>
<path id="Vector_90" d="M133.444 137.982C133.444 137.567 138.569 138.019 138.569 138.019C138.569 138.019 141.632 141.296 144.668 142.089C147.705 142.883 145.952 144.673 142.537 144.593L134.094 144.38C131.67 144.322 133.236 142.292 133.444 137.982Z" fill="#2E353A"/>
<path id="Vector_91" d="M141.259 139.387C140.513 139.286 139.791 139.05 139.128 138.69L139.091 138.663C139.089 138.649 139.089 138.634 139.091 138.62C139.089 138.608 139.089 138.595 139.091 138.583C139.085 138.566 139.085 138.547 139.091 138.53C139.091 138.471 139.565 137.299 140.263 137.027C140.368 136.984 140.482 136.965 140.595 136.972C140.708 136.978 140.819 137.01 140.918 137.065C141.147 137.177 141.254 137.32 141.243 137.496C141.217 137.768 140.833 138.029 140.407 138.242C140.803 138.183 141.207 138.237 141.574 138.397C141.639 138.433 141.696 138.482 141.741 138.542C141.786 138.602 141.818 138.67 141.835 138.743C141.869 138.835 141.875 138.935 141.851 139.03C141.827 139.125 141.775 139.211 141.702 139.276C141.572 139.364 141.415 139.404 141.259 139.387ZM139.571 138.62C140.322 138.956 141.265 139.27 141.515 139.073C141.515 139.073 141.606 139.004 141.558 138.801C141.549 138.762 141.531 138.724 141.507 138.692C141.482 138.66 141.45 138.634 141.414 138.615C141.041 138.391 140.146 138.514 139.571 138.62ZM140.53 137.23C140.462 137.23 140.395 137.242 140.332 137.267C139.921 137.516 139.601 137.889 139.416 138.333C140.189 138.066 140.94 137.677 140.961 137.448C140.961 137.374 140.849 137.299 140.78 137.267C140.7 137.236 140.615 137.223 140.53 137.23Z" fill="#577AFA"/>
<path id="Vector_92" opacity="0.2" d="M137.13 134.808L133.066 135.761L131.201 131.222L135.308 129.283L137.13 134.808Z" fill="black"/>
<path id="Vector_93" d="M105.188 87.1428C105.188 87.1428 104.767 81.3468 104.57 80.1641C104.407 78.9917 104.167 77.8314 103.851 76.6908C102.567 72.8285 85.3442 77.3727 85.3442 77.3727L84.8541 80.0363C84.8541 80.0363 77.0816 94.6915 82.2757 99.9707C83.8738 101.569 86.9477 102.293 90.1067 102.272C90.1067 102.272 99.765 102.736 117.728 101.899C117.728 101.899 116.397 112.362 131.201 132.861L136.155 131.263C136.155 131.263 126.374 94.0469 125.543 93.3863C118.384 87.6009 105.188 87.1428 105.188 87.1428Z" fill="#263238"/>
<path id="Vector_94" d="M130.306 132.612L136.459 130.434L137.295 133.358L131.59 135.287L130.306 132.612Z" fill="#263238"/>
<path id="Vector_95" d="M110.979 51.2212C110.979 51.2212 110.361 52.7341 109.498 55.3764C109.29 55.9944 109.077 56.6763 108.854 57.4114C108.561 58.3757 108.246 59.4358 107.932 60.6078C107.703 61.4388 107.474 62.3072 107.25 63.2234C107.026 64.1397 106.787 65.1306 106.557 66.1374C106.557 66.2546 106.504 66.3772 106.483 66.4944C105.509 70.6163 104.797 74.7959 104.352 79.008L85.4297 77.3566C85.4269 73.2036 85.6421 69.0533 86.0743 64.9228C86.4154 61.3442 87.0769 57.8034 88.0507 54.343C88.8018 51.8498 89.7714 49.7083 91.018 48.3072C91.018 48.3285 101.278 44.9617 110.979 51.2212Z" fill="#407BFF"/>
<path id="Vector_96" d="M101.336 45.6131C95.6415 43.7912 93.4307 48.2767 93.4307 48.2767L96.4619 47.9784L102.615 55.7029L106.221 51.0309L108.491 52.2508C108.491 52.2508 106.269 47.19 101.336 45.6131Z" fill="#407BFF"/>
<path id="Vector_97" opacity="0.6" d="M101.336 45.6131C95.6415 43.7912 93.4307 48.2767 93.4307 48.2767L96.4619 47.9784L102.615 55.7029L106.221 51.0309L108.491 52.2508C108.491 52.2508 106.269 47.19 101.336 45.6131Z" fill="white"/>
<path id="Vector_98" d="M102.455 55.2809L97.2344 47.4659C99.6956 46.3525 101.326 41.6432 101.683 38.9902L105.369 44.5625C104.165 46.3525 103.361 48.3981 106.12 49.943C106.131 49.943 102.45 55.2649 102.455 55.2809Z" fill="#EEC1BB"/>
<path id="Vector_99" opacity="0.2" d="M103.185 41.2656L105.37 44.5632C105.083 44.9724 104.835 45.4075 104.629 45.863C103.537 45.3729 102.376 43.7321 102.647 42.5974C102.74 42.1232 102.923 41.6711 103.185 41.2656Z" fill="black"/>
<path id="Vector_100" d="M85.1363 77.959L91.0549 78.3479L90.8418 80.0206L84.5557 79.5678L85.1363 77.959Z" fill="black"/>
<path id="Vector_101" d="M104.826 81.0175L91.5557 80.0692L91.7687 78.3965L104.613 79.2435L104.826 81.0175Z" fill="black"/>
<path id="Vector_102" d="M99.962 81.0117H99.9088L98.3106 80.9051C98.1198 80.8927 97.9415 80.806 97.814 80.6636C97.6864 80.5211 97.6199 80.3343 97.6287 80.1433L97.6713 79.0779C97.6708 78.9771 97.6919 78.8774 97.7332 78.7855C97.7746 78.6935 97.8352 78.6116 97.911 78.5452C97.9815 78.4777 98.0653 78.4259 98.1571 78.3928C98.2488 78.3598 98.3465 78.3463 98.4438 78.3534L100.106 78.4493C100.203 78.4547 100.298 78.4793 100.385 78.5218C100.472 78.5642 100.55 78.6237 100.614 78.6966C100.678 78.7695 100.727 78.8544 100.757 78.9464C100.788 79.0384 100.8 79.1356 100.793 79.2324L100.713 80.3404C100.696 80.5264 100.609 80.699 100.469 80.8234C100.33 80.9479 100.149 81.0152 99.962 81.0117ZM98.1827 79.0726L98.1348 80.138C98.1333 80.1899 98.1518 80.2405 98.1865 80.2791C98.2212 80.3178 98.2694 80.3417 98.3212 80.3458L99.9194 80.4576C99.9723 80.4606 100.024 80.4427 100.064 80.4079C100.104 80.373 100.128 80.3239 100.133 80.2712L100.212 79.1684C100.215 79.1416 100.212 79.1146 100.204 79.0889C100.196 79.0632 100.182 79.0395 100.164 79.0193C100.147 79 100.125 78.9843 100.102 78.9734C100.078 78.9624 100.052 78.9563 100.026 78.9554L98.3639 78.8595C98.3108 78.8577 98.2591 78.8768 98.22 78.9127C98.1999 78.9298 98.1838 78.951 98.1728 78.9749C98.1617 78.9989 98.156 79.0249 98.1561 79.0512L98.1827 79.0726Z" fill="white"/>
<path id="Vector_103" opacity="0.5" d="M130.306 132.612L136.459 130.434L137.295 133.358L131.59 135.287L130.306 132.612Z" fill="white"/>
<path id="Vector_104" d="M114.618 37.5582C114.59 37.559 114.563 37.5519 114.539 37.5377C114.516 37.5236 114.497 37.5029 114.485 37.4783C114.337 37.1909 114.126 36.9409 113.868 36.7471C113.609 36.5533 113.31 36.4208 112.993 36.3596C112.973 36.3589 112.954 36.3542 112.936 36.3457C112.918 36.3372 112.902 36.325 112.889 36.31C112.876 36.295 112.866 36.2774 112.86 36.2584C112.854 36.2395 112.852 36.2195 112.854 36.1997C112.86 36.1616 112.879 36.1268 112.909 36.1022C112.938 36.0776 112.976 36.0649 113.014 36.0666C113.383 36.1296 113.731 36.2781 114.032 36.5001C114.333 36.7221 114.577 37.0115 114.746 37.3451C114.755 37.3621 114.76 37.3809 114.762 37.4002C114.764 37.4194 114.762 37.4388 114.756 37.4572C114.75 37.4756 114.74 37.4926 114.727 37.5072C114.715 37.5218 114.699 37.5337 114.682 37.5422L114.618 37.5582Z" fill="#263238"/>
<path id="Vector_105" d="M112.839 39.8652C112.896 40.6046 113.043 41.3344 113.275 42.0387C113.087 42.1541 112.87 42.2152 112.649 42.2152C112.428 42.2152 112.212 42.1541 112.023 42.0387L112.839 39.8652Z" fill="#D4827D"/>
<path id="Vector_106" d="M114.015 39.0703C113.877 39.4006 113.589 39.603 113.365 39.5071C113.142 39.4112 113.073 39.0703 113.211 38.74C113.35 38.4097 113.637 38.2073 113.861 38.3032C114.085 38.3991 114.149 38.7347 114.015 39.0703Z" fill="#263238"/>
<path id="Vector_107" d="M113.76 38.2832H114.596C114.596 38.2832 113.989 38.7573 113.76 38.2832Z" fill="#263238"/>
<path id="Vector_108" d="M101.752 41.9361C101.772 41.9907 101.799 42.0426 101.832 42.0906C101.885 42.1971 101.944 42.293 102.002 42.3996C102.345 43.0555 102.809 43.6396 103.372 44.1203C105.188 45.6279 106.754 46.1073 108.166 45.7184C108.235 45.7184 108.299 45.6758 108.369 45.6545C110.457 44.8661 112.098 42.4582 113.488 39.2086C114.09 37.9504 114.484 36.6029 114.655 35.2185C114.655 35.2185 114.655 35.1705 114.655 35.1599C114.655 35.1492 114.655 35.048 114.655 35.0001C114.723 34.2039 114.591 33.4033 114.271 32.6711C113.951 31.9389 113.453 31.2983 112.822 30.8075C112.283 30.3642 111.697 29.9818 111.075 29.6675C105.023 26.5244 98.8274 36.0868 101.752 41.9361Z" fill="#EEC1BB"/>
<path id="Vector_109" d="M114.655 35.1664C114.655 35.1664 112.833 39.62 107.847 39.4282C107.847 39.4282 103.862 43.0027 101.267 41.7722C97.7249 40.0941 97.1495 33.5629 100.916 29.104C105.812 23.3186 116.04 27.8042 114.655 35.1664Z" fill="#263238"/>
<path id="Vector_110" d="M110.537 39.2358C110.872 38.5646 110.899 37.1742 109.785 36.8013C108.672 36.4284 106.696 38.767 109.04 40.6901C109.375 40.9671 109.86 40.6315 110.537 39.2358Z" fill="#EEC1BB"/>
<path id="Vector_111" d="M109.504 26.8704C109.504 26.8704 114.112 27.8932 115.539 30.674C117.212 33.9236 117.212 36.4114 112.535 37.919C112.535 37.919 106.797 32.2402 104.278 31.5636C102.808 31.16 101.308 30.8802 99.792 30.7273C101.598 25.9541 107.687 24.7927 109.504 26.8704Z" fill="#263238"/>
<path id="Vector_112" d="M107.857 39.4271C104.959 45.2178 98.5881 55.0572 91.7959 48.1158C91.7959 48.1158 94.2358 40.2635 99.1635 37.0245C104.091 33.7856 107.857 39.4271 107.857 39.4271Z" fill="#263238"/>
<path id="Vector_113" d="M106.808 49.0867C109.285 50.9192 106.115 56.9496 109.242 58.2921C108.948 57.8858 108.764 57.4109 108.706 56.9128C108.648 56.4148 108.719 55.9102 108.912 55.4474C109.567 53.8066 112.225 49.4702 111.165 43.5996L106.808 49.0867Z" fill="#263238"/>
<path id="Vector_114" opacity="0.2" d="M93.9747 61.8019C93.9747 61.8019 89.926 64.5454 86.0957 64.8864C86.4321 61.321 87.0864 57.7927 88.0508 54.3438C88.5409 54.0678 89.0875 53.9075 89.649 53.875C92.4937 53.9283 93.5325 56.5972 93.5325 56.5972C93.8404 58.3147 93.9884 60.0571 93.9747 61.8019Z" fill="black"/>
<path id="Vector_115" d="M108.752 80.8039L107.9 79.7811C107.739 79.5943 107.537 79.4486 107.309 79.3559C107.081 79.2632 106.834 79.2264 106.589 79.2484L104.256 79.4188C103.795 79.4524 103.348 79.5962 102.954 79.8382C102.56 80.0801 102.23 80.4131 101.992 80.8092L101.693 81.3047C102.993 83.0999 105.715 84.0855 105.715 84.0855L106.461 84.4531C106.611 84.534 106.776 84.5844 106.945 84.6014C107.114 84.6184 107.286 84.6017 107.449 84.5521C107.612 84.5026 107.763 84.4213 107.894 84.3128C108.026 84.2044 108.134 84.071 108.214 83.9203L108.96 82.45C109.093 82.1863 109.145 81.8885 109.108 81.5951C109.071 81.3018 108.947 81.0262 108.752 80.8039Z" fill="#EEC1BB"/>
<path id="Vector_116" d="M92.3495 56.3155C92.2846 59.6705 92.5253 63.0246 93.0687 66.336C93.2683 67.3953 93.5262 68.4428 93.8411 69.4737L93.6068 69.0102C94.8373 70.8907 96.6379 72.6327 98.2095 74.3375L100.841 77.0543L103.505 79.7872C103.739 80.0235 103.878 80.3384 103.894 80.671C103.911 81.0036 103.803 81.3304 103.593 81.5885C103.382 81.8466 103.084 82.0176 102.755 82.0686C102.426 82.1197 102.089 82.0471 101.811 81.8648C100.708 81.167 99.6798 80.4318 98.6143 79.686C95.3647 77.2408 92.0885 74.9554 89.5581 71.6952C87.3526 66.8101 86.8145 61.3816 87.001 56.0757C87.3153 52.5331 92.4507 52.7942 92.4081 56.3474L92.3495 56.3155Z" fill="#EBC0BB"/>
<path id="Vector_117" d="M90.8365 48.3613C87.3472 49.56 85.9035 53.289 85.749 59.5964C87.5336 61.2532 93.4042 60.7045 93.4042 60.7045C93.4042 60.7045 94.4644 51.1475 90.8365 48.3613Z" fill="#407BFF"/>
<path id="Vector_118" d="M128.436 85.7054V87.3729C128.436 87.8044 127.903 87.9802 127.498 87.9802H93.8784C93.4469 87.9802 92.9248 87.8044 92.9248 87.3729V85.6895L128.436 85.7054Z" fill="#263238"/>
<path id="Vector_119" opacity="0.4" d="M128.436 85.7054V87.3729C128.436 87.8044 127.903 87.9802 127.498 87.9802H93.8784C93.4469 87.9802 92.9248 87.8044 92.9248 87.3729V85.6895L128.436 85.7054Z" fill="white"/>
<path id="Vector_120" opacity="0.2" d="M128.436 85.7054V87.3729C128.436 87.8044 127.903 87.9802 127.499 87.9802H105.327C104.895 87.9802 104.384 87.8044 104.384 87.3729V85.6895L128.436 85.7054Z" fill="black"/>
<path id="Vector_121" d="M134.061 68.2419L130.055 86.3918C129.984 86.684 129.818 86.9442 129.583 87.1314C129.347 87.3185 129.056 87.422 128.756 87.4253H106.914C106.778 87.4213 106.645 87.3861 106.525 87.3224C106.405 87.2586 106.302 87.1681 106.222 87.0579C106.143 86.9476 106.09 86.8206 106.068 86.6866C106.045 86.5526 106.054 86.4153 106.094 86.2853L110.094 68.2686C110.175 67.9943 110.348 67.7562 110.584 67.5942C110.82 67.4322 111.104 67.3562 111.389 67.3789H133.257C133.832 67.3789 134.189 67.6613 134.061 68.2419Z" fill="#263238"/>
<path id="Vector_122" opacity="0.4" d="M134.062 68.2424L130.056 86.3922C129.985 86.6844 129.819 86.9447 129.583 87.1318C129.348 87.319 129.057 87.4224 128.756 87.4257H107.639C107.503 87.4225 107.369 87.3879 107.248 87.3245C107.128 87.2611 107.023 87.1707 106.944 87.0604C106.864 86.95 106.81 86.8227 106.788 86.6883C106.765 86.5539 106.774 86.4161 106.813 86.2857L110.814 68.269C110.895 67.9938 111.069 67.7549 111.306 67.5929C111.542 67.4308 111.828 67.3554 112.114 67.3794H133.236C133.833 67.3794 134.19 67.6617 134.062 68.2424Z" fill="white"/>
<path id="Vector_123" opacity="0.2" d="M123.28 77.469C123.28 79.0192 121.613 80.2818 120.393 80.2818C119.173 80.2818 118.448 79.0192 118.795 77.469C119.141 75.9188 120.361 74.6989 121.554 74.6562C121.208 76.2065 121.954 77.469 123.152 77.469H123.28Z" fill="black"/>
</g>
</g>
</svg>
