<svg width="192" height="300" viewBox="0 0 192 300" fill="none"
    xmlns="http://www.w3.org/2000/svg">
    <path d="M96 299.059C149.019 299.059 192 293.257 192 286.1C192 278.943 149.019 273.141 96 273.141C42.9807 273.141 0 278.943 0 286.1C0 293.257 42.9807 299.059 96 299.059Z" fill="#F5F5F5"/>
    <path d="M88.6271 103.512C88.6271 103.512 107.047 111.022 116.262 109.659C125.478 108.297 128.031 131.41 116.262 136.539C104.494 141.668 90.8251 140.385 85.9139 137.18C81.0028 133.975 88.6271 103.512 88.6271 103.512Z" fill="#407BFF"/>
    <path opacity="0.2" d="M88.6271 103.512C88.6271 103.512 107.047 111.022 116.262 109.659C125.478 108.297 128.031 131.41 116.262 136.539C104.494 141.668 90.8251 140.385 85.9139 137.18C81.0028 133.975 88.6271 103.512 88.6271 103.512Z" fill="black"/>
    <path d="M88.6267 103.512C88.6267 103.512 73.3896 116.906 72.4737 120.981C71.5579 125.057 82.5936 138.039 87.8711 137.134C93.1486 136.23 91.3055 104.885 91.3055 104.885L88.6267 103.512Z" fill="#407BFF"/>
    <path opacity="0.2" d="M88.6267 103.512C88.6267 103.512 73.3896 116.906 72.4737 120.981C71.5579 125.057 82.5936 138.039 87.8711 137.134C93.1486 136.23 91.3055 104.885 91.3055 104.885L88.6267 103.512Z" fill="white"/>
    <path d="M125.727 55.6138C117.473 49.4205 108.555 43.5019 100.415 37.2972C98.1257 34.3436 97.3244 30.6002 96.3398 26.891C95.195 22.1631 94.3136 17.1374 93.5809 12.2148L88.2233 12.3064C87.7311 17.6107 87.7311 22.9491 88.2233 28.2533C88.9331 33.92 89.8832 40.6399 94.2678 44.9329C102.264 51.8868 110.645 58.3843 119.373 64.3943L125.669 55.5794L125.727 55.6138Z" fill="#DC897C"/>
    <path d="M120.462 70.6666C113.387 70.9528 98.4362 53.2773 98.4362 53.2773L108.373 43.5352C113.978 46.4802 119.18 50.1355 123.85 54.4106C130.765 61.1534 128.327 70.3118 120.462 70.6666Z" fill="#263238"/>
    <path opacity="0.2" d="M120.462 70.6666C113.387 70.9528 98.4362 53.2773 98.4362 53.2773L108.373 43.5352C113.978 46.4802 119.18 50.1355 123.85 54.4106C130.765 61.1534 128.327 70.3118 120.462 70.6666Z" fill="white"/>
    <path opacity="0.1" d="M119.576 70.6319C121.751 68.2508 121.603 64.805 117.287 60.0655C112.997 55.6702 108.04 51.9804 102.599 49.1328L98.3634 53.2769C98.3634 53.2769 112.227 69.739 119.576 70.6319Z" fill="black"/>
    <path d="M93.766 17.6568L95.5977 7.23921L86.3592 7.11328C86.3592 7.11328 84.0696 14.211 88.8205 18.1033L93.766 17.6568Z" fill="#E4897B"/>
    <path d="M93.2737 0.117188L86.3592 1.66266V7.1462L95.5977 7.27211L93.2737 0.117188Z" fill="#E4897B"/>
    <path d="M138.654 275.639L148.281 275.799C148.438 275.801 148.59 275.857 148.71 275.957C148.831 276.057 148.914 276.195 148.945 276.348L150.399 283.423C150.432 283.575 150.435 283.731 150.405 283.883C150.376 284.036 150.317 284.18 150.23 284.309C150.143 284.437 150.031 284.547 149.901 284.631C149.771 284.715 149.625 284.771 149.472 284.797C149.385 284.808 149.296 284.808 149.209 284.797C146.095 284.694 143.84 284.476 139.924 284.408C137.52 284.408 130.251 284.511 126.92 284.408C123.588 284.305 123.222 281.065 124.63 280.79C130.755 279.554 135.38 277.779 137.36 276.062C137.725 275.768 138.185 275.617 138.654 275.639Z" fill="#263238"/>
    <path d="M57.5007 275.639L67.1169 275.799C67.2756 275.798 67.4297 275.853 67.5528 275.953C67.676 276.053 67.7606 276.193 67.7923 276.348L69.2348 283.423C69.268 283.574 69.2705 283.73 69.2421 283.881C69.2137 284.033 69.155 284.177 69.0695 284.305C68.9839 284.433 68.8734 284.543 68.7444 284.628C68.6154 284.712 68.4707 284.77 68.3189 284.797C68.2315 284.808 68.143 284.808 68.0556 284.797C64.9418 284.694 62.6751 284.476 58.7714 284.408C56.3674 284.408 49.0979 284.511 45.7666 284.408C42.4353 284.305 42.0575 281.065 43.477 280.79C49.6017 279.554 54.2266 277.779 56.2071 276.062C56.5722 275.768 57.0323 275.617 57.5007 275.639Z" fill="#263238"/>
    <path d="M150.418 276.124H137.31C137.31 276.124 120.619 221.106 119.188 207.071C117.757 193.036 117.231 157.845 117.231 157.845V157.913C116.658 158.669 111.713 165.629 106.012 173.723C98.5591 184.312 89.8129 196.836 87.9698 199.904C82.5664 208.948 69.3326 276.078 69.3326 276.078H56.2362C56.2362 276.078 59.5332 215.989 66.2646 196.184C72.9959 176.379 102.096 133.129 103.356 130.805C104.97 127.84 108.931 118.43 108.931 118.43L148.209 123.89C148.209 123.89 148.85 130.542 148.804 136.357C148.621 158.177 144.499 187.666 143.835 195.6C142.542 210.723 150.418 276.124 150.418 276.124Z" fill="#407BFF"/>
    <path d="M118.174 55.0749C118.174 55.0749 106.417 76.036 108.912 118.473L148.178 123.934C149.323 117.947 149.587 88.0105 159.352 60.4096C155.125 58.9891 150.812 57.8419 146.438 56.9753C140.924 55.8884 135.351 55.1239 129.747 54.6857C125.885 54.5154 122.016 54.6455 118.174 55.0749Z" fill="#263238"/>
    <path opacity="0.2" d="M108.877 118.483L148.155 123.944C148.853 120.201 149.231 107.058 151.807 90.9742C152.494 86.6812 153.341 82.1708 154.406 77.5916C155.725 71.7803 157.368 66.0474 159.328 60.4198C155.104 58.9932 150.79 57.8459 146.415 56.9854C140.897 55.898 135.32 55.1335 129.712 54.6959C125.848 54.5598 121.979 54.7167 118.139 55.1652C118.139 55.1652 106.393 76.0462 108.877 118.483Z" fill="white"/>
    <path d="M148.738 37.8711C146.529 42.9425 143.346 52.4099 146.277 56.7601C140.725 57.8019 136.741 58.4429 131.589 61.3393C130.777 57.7446 129.815 53.1082 129.815 53.1082C136.031 53.0052 136.855 48.5291 136.684 44.2476L148.738 37.8711Z" fill="#E4897B"/>
    <path opacity="0.2" d="M143.839 40.4805L136.741 44.2583C136.777 45.2716 136.731 46.286 136.604 47.292C138.894 47.4637 142.568 45.6778 143.335 43.3653C143.682 42.4436 143.853 41.4651 143.839 40.4805Z" fill="black"/>
    <path opacity="0.5" d="M150.418 276.124H137.31C137.31 276.124 120.619 221.106 119.188 207.071C117.757 193.036 117.231 157.845 117.231 157.845V157.913C116.658 158.669 111.713 165.629 106.012 173.723C98.5591 184.312 89.8129 196.836 87.9698 199.904C82.5664 208.948 69.3326 276.078 69.3326 276.078H56.2362C56.2362 276.078 59.5332 215.989 66.2646 196.184C72.9959 176.379 102.096 133.129 103.356 130.805C104.97 127.84 108.931 118.43 108.931 118.43L148.209 123.89C148.209 123.89 148.85 130.542 148.804 136.357C148.621 158.177 144.499 187.666 143.835 195.6C142.542 210.723 150.418 276.124 150.418 276.124Z" fill="white"/>
    <path d="M151.324 58.0295L148.062 53.954L137.495 55.9918L132.126 62.1393L131.451 55.0416L129.47 52.6719L125.131 54.5379V58.9797L128.222 57.9723L130.89 64.177L139.327 60.7083L141.204 63.1009L151.324 58.0295Z" fill="#263238"/>
    <path opacity="0.3" d="M151.324 58.0295L148.062 53.954L137.495 55.9918L132.126 62.1393L131.451 55.0416L129.47 52.6719L125.131 54.5379V58.9797L128.222 57.9723L130.89 64.177L139.327 60.7083L141.204 63.1009L151.324 58.0295Z" fill="white"/>
    <path opacity="0.1" d="M130.891 64.1721L129.872 56.7539L125.132 58.9748L128.223 57.9674L130.891 64.1721Z" fill="black"/>
    <path opacity="0.1" d="M130.892 64.1763L138.711 58.418L141.207 63.1001L139.33 60.7075L130.892 64.1763Z" fill="black"/>
    <path opacity="0.1" d="M151.808 90.926C152.494 86.633 153.342 82.1226 154.406 77.5434C153.139 75.9716 151.338 74.9204 149.346 74.5898C149.346 74.5898 148.27 85.0303 151.808 90.926Z" fill="black"/>
    <path opacity="0.2" d="M117.234 157.865V157.934C116.662 158.689 111.717 165.65 106.015 173.743C105.452 169.363 106.196 164.913 108.156 160.955C110.116 156.997 113.203 153.707 117.028 151.5L117.234 157.865Z" fill="black"/>
    <path d="M137.107 16.5669C133.169 17.5743 129.334 27.4653 133.581 30.499C137.829 33.5327 144.503 14.678 137.107 16.5669Z" fill="#263238"/>
    <path d="M151.759 30.5975C148.92 37.4662 147.615 41.679 142.795 44.209C141.237 45.0457 139.479 45.4407 137.713 45.3512C135.946 45.2617 134.237 44.6911 132.771 43.7012C131.305 42.7112 130.137 41.3395 129.394 39.7342C128.651 38.129 128.361 36.3511 128.554 34.5928C129.184 27.8042 133.706 17.6499 141.628 16.963C143.338 16.7659 145.069 17.022 146.649 17.7056C148.228 18.3892 149.6 19.4763 150.626 20.8577C151.653 22.2392 152.298 23.8664 152.497 25.5759C152.696 27.2855 152.441 29.0173 151.759 30.5975Z" fill="#E4897B"/>
    <path d="M146.519 20.5917L148.099 14.3984C149.543 15.4348 151.278 15.9877 153.055 15.9782C160.794 15.6233 165.579 21.4389 161.355 24.9419C164.572 27.117 161.744 31.5474 158.825 34.1689C154.784 37.8093 150.949 39.1602 148.911 36.7905C146.977 35.3481 148.007 27.884 149.232 25.2625C151.064 21.3358 146.519 20.5917 146.519 20.5917Z" fill="#263238"/>
    <path d="M152.083 38.3899C150.675 39.5895 148.895 40.2649 147.046 40.3017C144.756 40.3017 144.573 38.0923 146.084 36.2721C147.447 34.635 150.297 32.666 152.22 33.5589C154.144 34.4519 153.869 36.8903 152.083 38.3899Z" fill="#E4897B"/>
    <path d="M140.297 29.3159C140.103 29.8883 139.633 30.2661 139.256 30.1516C138.878 30.0371 138.729 29.4762 138.924 28.9038C139.118 28.3314 139.588 27.965 139.965 28.0795C140.343 28.194 140.492 28.7435 140.297 29.3159Z" fill="#263238"/>
    <path d="M133.75 27.3391C133.556 27.9115 133.086 28.2778 132.709 28.1633C132.331 28.0488 132.182 27.4879 132.377 26.9155C132.571 26.3431 133.041 25.9768 133.418 26.0912C133.796 26.2057 133.945 26.8125 133.75 27.3391Z" fill="#263238"/>
    <path d="M135.734 28.2461C134.446 29.7924 132.956 31.1592 131.304 32.3101C131.61 32.7114 132 33.0405 132.447 33.274C132.894 33.5075 133.387 33.6396 133.891 33.6609L135.734 28.2461Z" fill="#DE5753"/>
    <path d="M143.038 27.8313C143.094 27.8482 143.154 27.8482 143.21 27.8313C143.255 27.8159 143.296 27.7918 143.331 27.7603C143.366 27.7289 143.395 27.6907 143.415 27.6481C143.435 27.6054 143.447 27.5592 143.449 27.512C143.451 27.4648 143.444 27.4177 143.427 27.3734C143.255 26.8435 142.957 26.3634 142.558 25.9745C142.159 25.5856 141.672 25.2995 141.138 25.141C141.092 25.131 141.045 25.1301 140.998 25.1385C140.952 25.1469 140.908 25.1644 140.869 25.19C140.829 25.2155 140.795 25.2486 140.769 25.2874C140.742 25.3262 140.724 25.3698 140.714 25.4158C140.697 25.5066 140.714 25.6007 140.763 25.6793C140.812 25.7579 140.888 25.8151 140.978 25.8394C141.399 25.9672 141.782 26.1956 142.095 26.5047C142.408 26.8138 142.642 27.1945 142.775 27.6138C142.797 27.6693 142.833 27.7183 142.879 27.7563C142.925 27.7943 142.98 27.8201 143.038 27.8313Z" fill="#263238"/>
    <path d="M131.693 24.2616C131.75 24.2687 131.809 24.2631 131.864 24.2453C131.92 24.2276 131.971 24.1979 132.013 24.1585C132.323 23.8246 132.704 23.5655 133.129 23.4009C133.553 23.2362 134.009 23.1704 134.463 23.2084C134.556 23.225 134.651 23.2042 134.728 23.1506C134.806 23.0969 134.859 23.0147 134.875 22.9222C134.889 22.8283 134.865 22.7329 134.81 22.656C134.754 22.5792 134.671 22.5269 134.578 22.51C134.012 22.448 133.44 22.5192 132.908 22.718C132.375 22.9168 131.896 23.2376 131.51 23.6548C131.476 23.6878 131.45 23.727 131.432 23.7703C131.414 23.8135 131.405 23.8599 131.405 23.9067C131.405 23.9535 131.414 23.9998 131.432 24.0431C131.45 24.0863 131.476 24.1255 131.51 24.1585C131.558 24.2118 131.622 24.248 131.693 24.2616Z" fill="#263238"/>
    <path d="M153.352 16.8625C153.352 16.8625 149.379 6.11297 139.374 6.94866C140.299 7.27221 141.154 7.76957 141.892 8.41399C141.892 8.41399 133.478 6.60523 130.078 12.249L131.83 11.5049C131.83 11.5049 129.048 16.1757 131.177 19.7588L131.852 18.1791C131.852 18.1791 134.795 22.9299 140.152 22.3575L138.469 21.2127C138.469 21.2127 147.456 22.0599 149.917 20.0679C151.179 19.132 152.331 18.0567 153.352 16.8625Z" fill="#263238"/>
    <path d="M132.174 35.4737C135.225 35.2441 138.291 35.3016 141.332 35.6454C140.382 37.6144 138.779 39.1484 135.333 38.8393C134.899 38.8437 134.469 38.7579 134.07 38.5876C133.671 38.4172 133.312 38.166 133.015 37.8497C132.718 37.5333 132.49 37.1589 132.345 36.7499C132.2 36.3409 132.142 35.9064 132.174 35.4737Z" fill="#263238"/>
    <path d="M137.073 37.3839C135.754 37.2008 134.411 37.4414 133.238 38.0708C133.844 38.5404 134.579 38.8122 135.344 38.8492C136.66 39.0379 138.001 38.797 139.168 38.1624C138.567 37.693 137.835 37.4211 137.073 37.3839Z" fill="#A02724"/>
    <path d="M132.484 35.4462C132.52 35.7099 132.631 35.9578 132.804 36.1606C132.976 36.3634 133.203 36.5127 133.457 36.591C135.454 36.7524 137.46 36.7524 139.456 36.591C139.775 36.5886 140.089 36.5069 140.369 36.353C140.649 36.1991 140.886 35.9779 141.059 35.7095C138.211 35.4084 135.345 35.3203 132.484 35.4462Z" fill="white"/>
    <path d="M139.775 92.0585L149.196 81.1602L155.836 103.323C155.836 103.323 152.196 111.451 152.058 111.051C151.921 110.65 139.775 92.0585 139.775 92.0585Z" fill="#407BFF"/>
    <path d="M141.015 92.2891L149.201 83.1422L153.86 82.0547L155.199 101.138L149.807 104.893L141.015 92.2891Z" fill="#407BFF"/>
    <path opacity="0.7" d="M141.015 92.2891L149.201 83.1422L153.86 82.0547L155.199 101.138L149.807 104.893L141.015 92.2891Z" fill="white"/>
    <path d="M154.002 79.957L145.588 90.7295L139.772 92.0117L148.633 121.433L157.036 122.326L162.348 110.099L154.002 79.957Z" fill="#407BFF"/>
    <path opacity="0.2" d="M154.002 79.957L145.588 90.7295L139.772 92.0117L148.633 121.433L157.036 122.326L162.348 110.099L154.002 79.957Z" fill="white"/>
    <path d="M145.91 92.491L156.213 82.3711L161.09 104.992C161.09 104.992 156.808 112.8 156.705 112.387C156.602 111.975 145.91 92.491 145.91 92.491Z" fill="#407BFF"/>
    <path opacity="0.4" d="M145.91 92.491L156.213 82.3711L161.09 104.992C161.09 104.992 156.808 112.8 156.705 112.387C156.602 111.975 145.91 92.491 145.91 92.491Z" fill="black"/>
    <path d="M147.115 92.8684L155.999 84.3855L160.727 83.6758L160.566 102.805L154.888 106.125L147.115 92.8684Z" fill="#407BFF"/>
    <path opacity="0.7" d="M147.115 92.8684L155.999 84.3855L160.727 83.6758L160.566 102.805L154.888 106.125L147.115 92.8684Z" fill="white"/>
    <path d="M161.031 81.5859L151.793 91.6715L145.909 92.4843L152.411 122.524L160.722 124.058L166.984 112.301L161.031 81.5859Z" fill="#407BFF"/>
    <path opacity="0.2" d="M161.031 81.5859L151.793 91.6715L145.909 92.4843L152.411 122.524L160.722 124.058L166.984 112.301L161.031 81.5859Z" fill="black"/>
    <path d="M153.764 70.3111C160.243 77.0997 167.433 83.8425 172.722 91.5813C172.939 91.9361 173.168 92.3597 173.26 92.5314C173.221 92.3157 173.221 92.0947 173.26 91.8789C173.26 91.6614 173.42 91.6271 173.386 91.7301C172.962 92.7833 171.096 94.0998 169.951 94.8897C166.157 97.22 162.188 99.2523 158.08 100.969L159.385 106.109C164.4 105.527 169.304 104.224 173.947 102.239C180.266 99.5833 185.509 93.9281 181.376 86.7732C178.54 81.8122 175.161 77.1817 171.302 72.967C168.085 69.3151 164.811 65.8693 161.274 62.4922L153.73 70.2539L153.764 70.3111Z" fill="#DC897C"/>
    <path d="M153.868 59.6456C165.075 57.356 178.664 78.5575 178.664 78.5575L167.399 87.4869C161.62 83.8341 156.139 79.7306 151.006 75.2147C143.92 68.6665 146.415 61.1567 153.868 59.6456Z" fill="#263238"/>
    <path opacity="0.2" d="M153.868 59.6456C165.075 57.356 178.664 78.5575 178.664 78.5575L167.399 87.4869C161.62 83.8341 156.139 79.7306 151.006 75.2147C143.92 68.6665 146.415 61.1567 153.868 59.6456Z" fill="white"/>
    <path d="M160.952 99.8792L150.432 98.7344L150.947 107.973C150.947 107.973 158.182 109.782 161.742 104.745L160.952 99.8792Z" fill="#E4897B"/>
    <path d="M143.451 101.589L145.489 108.378L150.949 108L150.434 98.7617L143.451 101.589Z" fill="#E4897B"/>
    <path d="M126.516 53.8089C126.516 53.8089 103.299 75.6973 91.0272 105.588L88.6689 103.516C88.6689 103.516 103.288 72.3774 122.497 53.3281L126.516 53.8089Z" fill="#407BFF"/>
</svg>
