<svg width="205" height="287" viewBox="0 0 205 287" fill="none" xmlns="http://www.w3.org/2000/svg">
<path d="M102.138 286.002C158.547 286.002 204.275 280.447 204.275 273.595C204.275 266.742 158.547 261.188 102.138 261.188C45.7286 261.188 0 266.742 0 273.595C0 280.447 45.7286 286.002 102.138 286.002Z" fill="#F5F5F5"/>
<path d="M128.86 29.9217C134.592 29.9217 139.24 25.5757 139.24 20.2147C139.24 14.8538 134.592 10.5078 128.86 10.5078C123.127 10.5078 118.479 14.8538 118.479 20.2147C118.479 25.5757 123.127 29.9217 128.86 29.9217Z" fill="#263238"/>
<path d="M131.258 30.2257C129.144 30.2257 127.078 29.6395 125.32 28.5412C123.562 27.4428 122.192 25.8817 121.383 24.0552C120.574 22.2288 120.362 20.219 120.775 18.28C121.187 16.341 122.205 14.56 123.7 13.162C125.195 11.7641 127.1 10.8121 129.173 10.4264C131.246 10.0408 133.396 10.2387 135.349 10.9953C137.302 11.7518 138.971 13.033 140.146 14.6768C141.32 16.3205 141.947 18.2531 141.947 20.2301C141.947 22.8811 140.821 25.4235 138.817 27.2981C136.812 29.1726 134.093 30.2257 131.258 30.2257ZM131.258 10.823C129.264 10.823 127.314 11.3763 125.655 12.4129C123.997 13.4495 122.704 14.9228 121.941 16.6464C121.179 18.37 120.98 20.2665 121.37 22.0959C121.76 23.9253 122.721 25.6054 124.133 26.9237C125.544 28.242 127.342 29.1392 129.298 29.5017C131.255 29.8643 133.283 29.676 135.125 28.9606C136.968 28.2452 138.541 27.0349 139.648 25.4828C140.755 23.9307 141.344 22.1066 141.342 20.2412C141.338 17.7423 140.275 15.3468 138.384 13.5809C136.493 11.8149 133.93 10.823 131.258 10.823Z" fill="#263238"/>
<path d="M108.26 35.8195C106.146 35.8195 104.08 35.2333 102.322 34.1349C100.564 33.0366 99.194 31.4755 98.3849 29.649C97.5759 27.8225 97.3642 25.8127 97.7767 23.8737C98.1891 21.9348 99.2071 20.1537 100.702 18.7558C102.197 17.3579 104.101 16.4059 106.175 16.0202C108.248 15.6345 110.398 15.8325 112.351 16.589C114.304 17.3456 115.973 18.6267 117.148 20.2705C118.322 21.9143 118.949 23.8468 118.949 25.8238C118.949 28.4748 117.823 31.0173 115.818 32.8918C113.814 34.7664 111.095 35.8195 108.26 35.8195ZM108.26 16.4057C106.266 16.4057 104.316 16.9587 102.658 17.9948C101 19.0309 99.7077 20.5035 98.9445 22.2265C98.1814 23.9495 97.9817 25.8454 98.3707 27.6745C98.7598 29.5036 99.7202 31.1837 101.13 32.5024C102.54 33.8211 104.337 34.7192 106.293 35.083C108.249 35.4468 110.276 35.2601 112.119 34.5464C113.961 33.8327 115.536 32.6242 116.644 31.0735C117.752 29.5229 118.344 27.6999 118.344 25.8349C118.344 24.5967 118.083 23.3705 117.576 22.2265C117.069 21.0825 116.327 20.043 115.39 19.1674C114.454 18.2918 113.342 17.5973 112.119 17.1234C110.896 16.6495 109.584 16.4057 108.26 16.4057Z" fill="#263238"/>
<path d="M109.287 35.5678C115.157 35.5678 119.916 31.1175 119.916 25.6277C119.916 20.1379 115.157 15.6875 109.287 15.6875C103.416 15.6875 98.6572 20.1379 98.6572 25.6277C98.6572 31.1175 103.416 35.5678 109.287 35.5678Z" fill="#263238"/>
<path d="M98.9812 10.5693C97.6866 16.2779 102.117 26.2736 106.772 26.8178C111.428 27.362 112.342 16.4889 108.304 11.7465C104.266 7.00415 99.9551 6.41552 98.9812 10.5693Z" fill="#263238"/>
<path d="M107.679 53.8438C108.237 56.9868 108.534 59.93 108.784 62.9842C109.033 66.0385 109.081 69.0594 109.033 72.1247C109.012 78.3504 108.15 84.5487 106.468 90.5723C104.627 96.4587 102.418 101.956 100.126 107.498L96.5627 115.739C95.3156 118.46 94.1161 121.181 92.7978 123.891L88.6172 122.47L91.1944 113.973L93.8192 105.51L96.3845 97.0695C97.2396 94.2707 98.0472 91.4386 98.7598 88.7176C99.9365 83.2551 100.423 77.6823 100.209 72.1136C100.209 69.2815 100.019 66.4383 99.7693 63.6062C99.5199 60.7741 99.1993 57.8642 98.8311 55.1876L107.679 53.8438Z" fill="#FF8B7B"/>
<path d="M99.3612 45.364C96.0476 46.9522 96.8789 61.0461 96.8789 61.0461L112.449 66.7547C112.449 66.7547 114.076 49.4955 110.49 46.4413C106.903 43.387 104.219 43.0427 99.3612 45.364Z" fill="#407BFF"/>
<path opacity="0.2" d="M100.428 48.3203L101.045 62.5697L107.352 64.8687L100.428 48.3203Z" fill="black"/>
<path d="M90.3797 120.359L80.4746 124.136L88.0994 127.912C88.0994 127.912 93.1826 125.624 93.337 122.225L90.3797 120.359Z" fill="#FF8B7B"/>
<path d="M117.884 261.768H109.108L107.623 242.766H116.4L117.884 261.768Z" fill="#FF8B7B"/>
<path d="M166.595 249.516L157.985 251.104L151.286 232.979L159.885 231.391L166.595 249.516Z" fill="#FF8B7B"/>
<path d="M156.721 249.721L165.997 246.611C166.155 246.556 166.33 246.557 166.488 246.614C166.645 246.671 166.775 246.781 166.852 246.922L170.545 253.43C170.632 253.597 170.68 253.78 170.686 253.965C170.693 254.151 170.657 254.335 170.582 254.507C170.507 254.679 170.394 254.834 170.251 254.962C170.107 255.091 169.937 255.189 169.75 255.252C166.495 256.285 164.868 256.629 160.783 257.995C158.277 258.828 153.502 261.327 150.034 262.438C146.566 263.548 145.165 260.45 146.471 259.683C150.372 257.563 153.513 254.41 155.498 250.62C155.781 250.197 156.214 249.879 156.721 249.721Z" fill="#263238"/>
<path d="M108.461 260.813H118.318C118.487 260.812 118.651 260.869 118.778 260.973C118.905 261.078 118.987 261.222 119.007 261.379L120.135 268.665C120.157 268.85 120.137 269.036 120.076 269.213C120.016 269.389 119.916 269.552 119.784 269.69C119.652 269.829 119.49 269.939 119.309 270.015C119.128 270.091 118.932 270.131 118.734 270.131C115.29 270.076 113.639 269.887 109.304 269.887C106.632 269.887 101.121 270.142 97.4273 270.142C93.7336 270.142 93.5555 266.733 95.0519 266.433C101.917 265.045 104.625 263.101 106.929 261.324C107.355 260.983 107.9 260.801 108.461 260.813Z" fill="#263238"/>
<g opacity="0.2">
<path opacity="0.2" d="M107.621 242.773L108.429 253.113H117.206L116.398 242.773H107.621Z" fill="black"/>
<path opacity="0.2" d="M159.887 231.383L151.276 232.982L155.017 243.078L163.533 241.245L159.887 231.383Z" fill="black"/>
</g>
<path d="M99.3672 45.3661C99.3672 45.3661 95.626 47.5873 115.199 92.779L149.95 85.3933C146.149 72.2989 144.154 64.1469 144.32 35.5703C139.225 35.665 134.144 36.1068 129.118 36.892C123.782 37.6493 118.512 38.7627 113.346 40.2239C106.695 42.2674 99.3672 45.3661 99.3672 45.3661Z" fill="#407BFF"/>
<path opacity="0.2" d="M144.286 39.9766C141.491 41.8036 139.496 44.5132 138.668 47.6066C137.754 51.5271 143.573 58.1465 144.939 59.6237C144.523 54.3704 144.31 48.062 144.286 39.9766Z" fill="black"/>
<path d="M123.929 22.3906C124.095 27.3552 124.772 34.4854 129.095 36.8955C127.123 43.0319 123.394 48.5471 118.311 52.8442C109.997 49.0791 113.323 40.2496 113.323 40.2496C118.679 37.784 118.014 35.6627 116.126 32.1864L123.929 22.3906Z" fill="#FF8B7B"/>
<path opacity="0.2" d="M120.755 26.3828L116.135 32.1803C116.61 32.9819 117.008 33.822 117.322 34.6904C119.413 33.9351 122.394 31.4917 122.322 29.1927C122.058 28.1488 121.519 27.183 120.755 26.3828Z" fill="black"/>
<path d="M123.331 10.4225C125.932 18.1969 127.203 21.4288 124.697 26.7932C120.908 34.8564 110.136 36.1336 105.112 29.2477C100.588 23.0504 97.0958 11.3776 103.818 5.5246C105.292 4.22763 107.097 3.30456 109.06 2.84302C111.023 2.38148 113.079 2.39679 115.034 2.88749C116.989 3.37819 118.778 4.32801 120.23 5.64677C121.682 6.96552 122.75 8.60945 123.331 10.4225Z" fill="#FF8B7B"/>
<path d="M115.188 92.7603C115.188 92.7603 95.2349 140.273 95.805 165.285C96.4107 191.307 106.601 250.659 106.601 250.659H118.477C118.477 250.659 116.589 192.862 117.634 167.317C118.822 139.462 140.627 87.3516 140.627 87.3516L115.188 92.7603Z" fill="#407BFF"/>
<path opacity="0.5" d="M115.188 92.7603C115.188 92.7603 95.2349 140.273 95.805 165.285C96.4107 191.307 106.601 250.659 106.601 250.659H118.477C118.477 250.659 116.589 192.862 117.634 167.317C118.822 139.462 140.627 87.3516 140.627 87.3516L115.188 92.7603Z" fill="black"/>
<path d="M119.499 251.052H105.58L104.559 246.909L120.141 246.398L119.499 251.052Z" fill="#263238"/>
<path opacity="0.2" d="M124.289 107.345C117.495 118.595 118.101 136.943 119.93 150.77C122.938 137.428 126.797 124.265 131.486 111.354C130.536 103.89 128.458 100.436 124.289 107.345Z" fill="black"/>
<path d="M124.358 90.806C124.358 90.806 119.607 142.772 125.736 163.863C132.969 188.908 152.316 240.841 152.316 240.841L164.05 238.676C164.05 238.676 154.549 178.757 148.966 165.563C137.161 137.408 163.527 101.335 149.976 85.375L124.358 90.806Z" fill="#407BFF"/>
<path opacity="0.5" d="M124.358 90.806C124.358 90.806 119.607 142.772 125.736 163.863C132.969 188.908 152.316 240.841 152.316 240.841L164.05 238.676C164.05 238.676 154.549 178.757 148.966 165.563C137.161 137.408 163.527 101.335 149.976 85.375L124.358 90.806Z" fill="black"/>
<path d="M165.476 239.026L150.915 241.714L148.469 237.726L165.44 233.828L165.476 239.026Z" fill="#263238"/>
<path d="M111.197 17.0362C111.446 17.6582 111.304 18.2802 110.864 18.4357C110.425 18.5911 109.879 18.2135 109.677 17.5916C109.475 16.9696 109.57 16.3477 109.997 16.2033C110.425 16.0589 110.948 16.4254 111.197 17.0362Z" fill="#263238"/>
<path d="M103.736 19.6994C103.985 20.3213 103.843 20.9433 103.404 21.0987C102.964 21.2542 102.418 20.8766 102.216 20.2547C102.014 19.6327 102.109 19.0108 102.537 18.8553C102.964 18.6998 103.475 19.0774 103.736 19.6994Z" fill="#263238"/>
<path d="M102.698 18.8203L100.929 18.9647C100.929 18.9647 102.223 19.831 102.698 18.8203Z" fill="#263238"/>
<path d="M106.488 19.9844C106.476 21.6046 106.224 23.2154 105.74 24.7712C106.167 24.8777 106.614 24.895 107.049 24.8221C107.484 24.7492 107.897 24.5877 108.258 24.3492L106.488 19.9844Z" fill="#FF5652"/>
<path d="M112.852 25.4901C112.552 25.6549 112.238 25.7961 111.914 25.9121C111.862 25.9305 111.804 25.9292 111.753 25.9084C111.702 25.8877 111.662 25.8492 111.641 25.8011C111.629 25.7772 111.623 25.7513 111.623 25.7251C111.623 25.6989 111.629 25.6729 111.64 25.6489C111.651 25.6249 111.667 25.6033 111.688 25.5855C111.709 25.5677 111.733 25.5541 111.759 25.5456C112.588 25.2666 113.336 24.8099 113.942 24.212C114.549 23.6141 114.997 22.8917 115.251 22.1027C115.264 22.0526 115.297 22.0092 115.344 21.9822C115.391 21.9551 115.447 21.9465 115.5 21.9583C115.554 21.9701 115.6 22.0013 115.629 22.045C115.658 22.0887 115.667 22.1414 115.655 22.1915C115.444 22.8872 115.087 23.5368 114.606 24.103C114.125 24.6692 113.529 25.1406 112.852 25.4901Z" fill="#263238"/>
<path d="M108.607 6.74782C111.279 13.0562 122.787 18.5538 126.92 16.8768C131.861 14.8665 130.483 4.87085 122.55 1.72776C115.911 -0.915547 106.659 2.1498 108.607 6.74782Z" fill="#263238"/>
<path d="M114.916 1.31184C112.304 -1.10934 96.6264 -0.509601 95.3081 5.92096C93.4791 14.806 102.6 12.7958 107.589 10.9521C113.966 8.60869 118.337 4.47714 114.916 1.31184Z" fill="#263238"/>
<path d="M127.799 17.7436C127.773 19.3186 127.081 20.8199 125.875 21.9196C124.272 23.3635 122.419 22.2528 121.98 20.3203C121.588 18.5766 121.98 15.7334 123.999 15.0226C124.447 14.8729 124.928 14.8304 125.398 14.8992C125.868 14.968 126.313 15.1457 126.691 15.4163C127.068 15.6868 127.368 16.0415 127.561 16.4481C127.755 16.8546 127.837 17.3 127.799 17.7436Z" fill="#FF8B7B"/>
<path d="M111.941 14.0665C111.86 14.0957 111.77 14.1008 111.685 14.0809C111.6 14.061 111.524 14.0172 111.466 13.9555C110.956 13.5391 110.359 13.2256 109.713 13.0346C109.068 12.8435 108.387 12.7789 107.713 12.8448C107.659 12.8499 107.604 12.8449 107.551 12.8301C107.498 12.8153 107.45 12.7909 107.407 12.7585C107.365 12.726 107.329 12.686 107.304 12.6408C107.278 12.5956 107.261 12.546 107.256 12.495C107.251 12.4439 107.256 12.3924 107.272 12.3433C107.288 12.2941 107.314 12.2484 107.348 12.2087C107.383 12.169 107.426 12.1361 107.474 12.1118C107.523 12.0876 107.576 12.0725 107.63 12.0674C108.436 11.9891 109.251 12.0735 110.019 12.315C110.788 12.5564 111.492 12.9492 112.084 13.4668C112.123 13.503 112.155 13.5462 112.176 13.5939C112.198 13.6415 112.209 13.6927 112.209 13.7444C112.209 13.7962 112.198 13.8473 112.176 13.895C112.155 13.9427 112.123 13.9859 112.084 14.0221L111.941 14.0665Z" fill="#263238"/>
<path d="M99.2188 17.3845C99.1574 17.4176 99.0877 17.4351 99.0169 17.4351C98.946 17.4351 98.8763 17.4176 98.815 17.3845C98.7188 17.3331 98.6477 17.2488 98.6167 17.1493C98.5857 17.0499 98.5972 16.9431 98.6487 16.8514C98.961 16.307 99.409 15.8411 99.9548 15.4931C100.501 15.1451 101.128 14.9252 101.784 14.8522C101.839 14.8492 101.893 14.8563 101.945 14.8731C101.997 14.89 102.044 14.9161 102.085 14.9502C102.126 14.9842 102.159 15.0255 102.183 15.0716C102.207 15.1176 102.221 15.1677 102.224 15.2187C102.227 15.2698 102.219 15.321 102.201 15.3693C102.183 15.4176 102.155 15.4621 102.119 15.5003C102.082 15.5385 102.038 15.5695 101.989 15.5917C101.94 15.6139 101.886 15.6268 101.832 15.6297C101.314 15.6947 100.821 15.8749 100.393 16.1551C99.9651 16.4353 99.6154 16.8074 99.3732 17.2401C99.3374 17.3009 99.2838 17.351 99.2188 17.3845Z" fill="#263238"/>
<path d="M152.784 252.172H152.689C152.503 252.096 152.341 251.976 152.218 251.825C152.095 251.673 152.016 251.494 151.988 251.306C151.959 251.192 151.961 251.073 151.994 250.961C152.028 250.848 152.091 250.745 152.178 250.662C152.986 249.94 156.074 250.606 156.418 250.662C156.458 250.672 156.494 250.692 156.524 250.719C156.553 250.746 156.574 250.78 156.585 250.817C156.591 250.856 156.586 250.895 156.569 250.93C156.552 250.966 156.525 250.996 156.49 251.017C155.54 251.584 153.829 252.483 152.784 252.172ZM155.836 250.928C154.649 250.695 152.891 250.528 152.475 250.928C152.434 250.964 152.403 251.01 152.389 251.061C152.374 251.112 152.375 251.166 152.392 251.217C152.41 251.342 152.46 251.462 152.539 251.564C152.618 251.667 152.722 251.75 152.844 251.806C153.402 252.006 154.494 251.739 155.884 250.928H155.836Z" fill="#407BFF"/>
<path d="M156.028 250.956C154.983 250.645 153.237 249.623 153.106 248.735C153.084 248.582 153.118 248.426 153.202 248.294C153.286 248.161 153.415 248.058 153.569 248.002C153.716 247.944 153.873 247.914 154.032 247.914C154.192 247.914 154.349 247.944 154.496 248.002C155.683 248.446 156.538 250.667 156.574 250.767C156.591 250.796 156.599 250.829 156.599 250.862C156.599 250.895 156.591 250.927 156.574 250.956C156.548 250.981 156.516 250.999 156.481 251.011C156.446 251.022 156.409 251.026 156.372 251.023L156.028 250.956ZM154.282 248.402C154.199 248.369 154.11 248.352 154.021 248.352C153.931 248.352 153.842 248.369 153.759 248.402C153.522 248.524 153.498 248.646 153.522 248.735C153.605 249.301 155.018 250.245 156.028 250.568C155.707 249.835 155.042 248.657 154.341 248.346L154.282 248.402Z" fill="#407BFF"/>
<path d="M105.152 262.258C104.403 262.322 103.654 262.146 103.026 261.758C102.89 261.639 102.785 261.492 102.721 261.328C102.657 261.164 102.636 260.988 102.658 260.814C102.664 260.708 102.699 260.604 102.759 260.513C102.82 260.422 102.903 260.346 103.002 260.292C104.083 259.737 107.575 261.403 107.979 261.603C108.015 261.624 108.044 261.653 108.063 261.689C108.082 261.724 108.09 261.764 108.086 261.803C108.081 261.844 108.062 261.882 108.032 261.912C108.002 261.942 107.963 261.962 107.919 261.969C107.008 262.143 106.082 262.24 105.152 262.258ZM103.62 260.57C103.485 260.559 103.35 260.582 103.228 260.637C103.187 260.656 103.152 260.686 103.129 260.724C103.106 260.761 103.095 260.804 103.097 260.848C103.076 260.962 103.086 261.079 103.128 261.188C103.17 261.297 103.241 261.394 103.335 261.47C103.857 261.914 105.306 261.992 107.254 261.692C106.12 261.126 104.891 260.747 103.62 260.57Z" fill="#407BFF"/>
<path d="M107.874 261.96H107.791C106.746 261.516 104.679 259.739 104.845 258.817C104.845 258.595 105.047 258.317 105.617 258.273C105.829 258.243 106.046 258.258 106.251 258.315C106.456 258.373 106.645 258.472 106.805 258.606C107.91 259.461 108.111 261.671 108.123 261.76C108.127 261.794 108.121 261.828 108.106 261.859C108.092 261.89 108.069 261.917 108.04 261.938C107.99 261.964 107.93 261.972 107.874 261.96ZM105.784 258.628H105.665C105.285 258.628 105.261 258.806 105.249 258.861C105.154 259.416 106.556 260.805 107.625 261.416C107.542 260.484 107.152 259.599 106.508 258.883C106.309 258.719 106.05 258.631 105.784 258.639V258.628Z" fill="#407BFF"/>
<path d="M110.175 16.1641L108.382 16.2862C108.382 16.2862 109.7 17.1747 110.175 16.1641Z" fill="#263238"/>
<path d="M149.941 83.3596L151.533 86.0806C151.711 86.2805 151.533 86.5693 151.081 86.6581L115.321 94.2549C115.012 94.3215 114.715 94.2549 114.644 94.0549L113.634 91.2117C113.563 91.0229 113.789 90.7897 114.133 90.7231L149.312 83.2374C149.419 83.2074 149.533 83.2028 149.643 83.2242C149.753 83.2455 149.855 83.292 149.941 83.3596Z" fill="white"/>
<path d="M146.041 88.0659L146.991 87.866C147.169 87.866 147.299 87.7105 147.252 87.5994L145.898 83.9121C145.851 83.8543 145.785 83.8116 145.711 83.7898C145.636 83.7679 145.557 83.768 145.482 83.7899L144.544 83.9899C144.354 83.9899 144.235 84.1565 144.271 84.2564L145.637 87.9437C145.672 88.0548 145.862 88.1103 146.041 88.0659Z" fill="#407BFF"/>
<path opacity="0.5" d="M146.041 88.0659L146.991 87.866C147.169 87.866 147.299 87.7105 147.252 87.5994L145.898 83.9121C145.851 83.8543 145.785 83.8116 145.711 83.7898C145.636 83.7679 145.557 83.768 145.482 83.7899L144.544 83.9899C144.354 83.9899 144.235 84.1565 144.271 84.2564L145.637 87.9437C145.672 88.0548 145.862 88.1103 146.041 88.0659Z" fill="black"/>
<path d="M118.091 94.0255L119.041 93.8256C119.232 93.8256 119.35 93.6701 119.303 93.559L117.949 89.8717C117.905 89.8097 117.84 89.7636 117.764 89.7414C117.689 89.7191 117.607 89.722 117.533 89.7496L116.595 89.9495C116.405 89.9495 116.286 90.1161 116.322 90.2161L117.688 93.9033C117.723 94.0255 117.878 94.0255 118.091 94.0255Z" fill="#407BFF"/>
<path opacity="0.5" d="M118.091 94.0255L119.041 93.8256C119.232 93.8256 119.35 93.6701 119.303 93.559L117.949 89.8717C117.905 89.8097 117.84 89.7636 117.764 89.7414C117.689 89.7191 117.607 89.722 117.533 89.7496L116.595 89.9495C116.405 89.9495 116.286 90.1161 116.322 90.2161L117.688 93.9033C117.723 94.0255 117.878 94.0255 118.091 94.0255Z" fill="black"/>
<path d="M132.013 91.0569L132.951 90.857C133.141 90.857 133.26 90.6904 133.224 90.5904L131.858 86.9031C131.858 86.7921 131.632 86.7365 131.454 86.781L130.504 86.9809C130.314 86.9809 130.195 87.1364 130.243 87.2474L131.597 90.9347C131.644 90.9925 131.71 91.0352 131.784 91.0571C131.858 91.0789 131.938 91.0789 132.013 91.0569Z" fill="#407BFF"/>
<path opacity="0.5" d="M132.013 91.0569L132.951 90.857C133.141 90.857 133.26 90.6904 133.224 90.5904L131.858 86.9031C131.858 86.7921 131.632 86.7365 131.454 86.781L130.504 86.9809C130.314 86.9809 130.195 87.1364 130.243 87.2474L131.597 90.9347C131.644 90.9925 131.71 91.0352 131.784 91.0571C131.858 91.0789 131.938 91.0789 132.013 91.0569Z" fill="black"/>
<path d="M77.1064 129.434L84.1018 131.055L88.0923 127.901L80.4675 124.125L77.1064 129.434Z" fill="#FF8B7B"/>
<path d="M132.932 75.6911L126.103 69.5938L125.509 77.9235C125.509 77.9235 130.259 80.7556 133.442 79.1008L132.932 75.6911Z" fill="#FF8B7B"/>
<path d="M149.932 43.1406C150.241 43.5071 150.396 43.7182 150.609 43.9958L151.179 44.7622C151.536 45.273 151.88 45.7839 152.213 46.2948C152.862 47.3166 153.48 48.3495 154.066 49.3935C155.182 51.4815 156.187 53.6028 157.082 55.7574C157.997 57.9009 158.757 60.1 159.457 62.299C159.802 63.4097 160.087 64.5203 160.384 65.6309L160.503 66.053L160.633 66.5861C160.749 67.0644 160.821 67.5512 160.847 68.041C160.899 69.1127 160.713 70.1829 160.301 71.1841C159.54 72.8735 158.247 74.3067 156.595 75.2934C155.354 76.0478 154.017 76.6559 152.617 77.1038C150.168 77.8686 147.64 78.3898 145.075 78.6586C140.23 79.1945 135.341 79.2764 130.479 78.903V74.7492C132.711 74.4938 135.027 74.2272 137.26 73.8607C139.493 73.4942 141.749 73.1277 143.899 72.6168C145.966 72.1473 147.985 71.508 149.932 70.7065C150.732 70.3786 151.486 69.9609 152.177 69.4626C152.747 69.0295 152.949 68.6407 152.902 68.5852C152.854 68.5297 152.902 68.5852 152.902 68.4853L152.617 67.6856C152.26 66.686 151.904 65.6865 151.5 64.7091C150.776 62.7211 149.885 60.7886 149.03 58.8783C148.175 56.968 147.189 55.091 146.144 53.3251C145.645 52.4255 145.111 51.5259 144.564 50.6707C144.291 50.2376 144.006 49.8266 143.721 49.4157L143.317 48.816L142.961 48.3384L149.932 43.1406Z" fill="#FF8B7B"/>
<path d="M144.308 35.5583C148.025 35.8138 154.925 46.1315 154.925 46.1315L144.355 56.838C144.355 56.838 136.422 49.7189 136.885 45.1542C137.324 40.5006 140.056 35.2696 144.308 35.5583Z" fill="#407BFF"/>
<path d="M118.763 68.8125L118.68 75.8095L125.509 77.853L126.103 69.5233L118.763 68.8125Z" fill="#FF8B7B"/>
<path d="M191.93 273.946H188.304V145.892C188.304 143.22 187.731 140.658 186.711 138.768C185.691 136.879 184.307 135.818 182.864 135.818H38.2496C36.8069 135.818 35.4233 136.879 34.4032 138.768C33.3831 140.658 32.81 143.22 32.81 145.892V273.946H29.1836V145.892C29.1836 141.439 30.1388 137.168 31.839 134.019C33.5392 130.871 35.8451 129.102 38.2496 129.102H182.864C185.269 129.102 187.575 130.871 189.275 134.019C190.975 137.168 191.93 141.439 191.93 145.892V273.946Z" fill="#407BFF"/>
<path opacity="0.7" d="M191.93 273.946H188.304V145.892C188.304 143.22 187.731 140.658 186.711 138.768C185.691 136.879 184.307 135.818 182.864 135.818H38.2496C36.8069 135.818 35.4233 136.879 34.4032 138.768C33.3831 140.658 32.81 143.22 32.81 145.892V273.946H29.1836V145.892C29.1836 141.439 30.1388 137.168 31.839 134.019C33.5392 130.871 35.8451 129.102 38.2496 129.102H182.864C185.269 129.102 187.575 130.871 189.275 134.019C190.975 137.168 191.93 141.439 191.93 145.892V273.946Z" fill="white"/>
<path d="M178.461 273.946H174.834V145.892C174.834 143.22 174.261 140.658 173.241 138.768C172.221 136.879 170.837 135.818 169.395 135.818H24.7799C23.3372 135.818 21.9536 136.879 20.9335 138.768C19.9134 140.658 19.3403 143.22 19.3403 145.892V273.946H15.7139V145.892C15.7139 141.439 16.669 137.168 18.3692 134.019C20.0694 130.871 22.3754 129.102 24.7799 129.102H169.395C171.799 129.102 174.105 130.871 175.805 134.019C177.506 137.168 178.461 141.439 178.461 145.892V273.946Z" fill="#407BFF"/>
<path opacity="0.8" d="M178.461 273.946H174.834V145.892C174.834 143.22 174.261 140.658 173.241 138.768C172.221 136.879 170.837 135.818 169.395 135.818H24.7799C23.3372 135.818 21.9536 136.879 20.9335 138.768C19.9134 140.658 19.3403 143.22 19.3403 145.892V273.946H15.7139V145.892C15.7139 141.439 16.669 137.168 18.3692 134.019C20.0694 130.871 22.3754 129.102 24.7799 129.102H169.395C171.799 129.102 174.105 130.871 175.805 134.019C177.506 137.168 178.461 141.439 178.461 145.892V273.946Z" fill="white"/>
<path d="M97.053 126.665H35.8409C34.9634 126.653 34.1199 126.346 33.4654 125.799C32.8109 125.252 32.3893 124.503 32.2779 123.689L28.1923 87.6379C28.1391 87.2631 28.1733 86.882 28.2924 86.5207C28.4115 86.1594 28.6128 85.8265 28.8824 85.5448C29.1521 85.2631 29.4837 85.0393 29.8545 84.8887C30.2254 84.7381 30.6267 84.6644 31.0309 84.6725H92.243C93.1195 84.6819 93.9627 84.9872 94.6175 85.5321C95.2722 86.077 95.6943 86.8249 95.806 87.6379L99.8915 123.689C99.9446 124.064 99.9104 124.446 99.7913 124.808C99.6723 125.17 99.4712 125.503 99.2018 125.786C98.9323 126.068 98.6009 126.293 98.2301 126.445C97.8593 126.597 97.4578 126.672 97.053 126.665Z" fill="#407BFF"/>
<path opacity="0.2" d="M97.053 126.665H35.8409C34.9634 126.653 34.1199 126.346 33.4654 125.799C32.8109 125.252 32.3893 124.503 32.2779 123.689L28.1923 87.6379C28.1391 87.2631 28.1733 86.882 28.2924 86.5207C28.4115 86.1594 28.6128 85.8265 28.8824 85.5448C29.1521 85.2631 29.4837 85.0393 29.8545 84.8887C30.2254 84.7381 30.6267 84.6644 31.0309 84.6725H92.243C93.1195 84.6819 93.9627 84.9872 94.6175 85.5321C95.2722 86.077 95.6943 86.8249 95.806 87.6379L99.8915 123.689C99.9446 124.064 99.9104 124.446 99.7913 124.808C99.6723 125.17 99.4712 125.503 99.2018 125.786C98.9323 126.068 98.6009 126.293 98.2301 126.445C97.8593 126.597 97.4578 126.672 97.053 126.665Z" fill="black"/>
<path d="M95.357 126.665H34.1567C33.2778 126.658 32.4317 126.352 31.7761 125.804C31.1206 125.257 30.7004 124.505 30.5938 123.689L26.4963 87.6376C26.4452 87.2632 26.4808 86.8828 26.6006 86.5224C26.7205 86.1619 26.9219 85.8298 27.1911 85.5485C27.4604 85.2672 27.7911 85.0434 28.161 84.8922C28.5309 84.741 28.9312 84.666 29.3348 84.6722H90.547C91.4242 84.6793 92.2688 84.9838 92.924 85.5291C93.5793 86.0745 94.0007 86.8237 94.11 87.6376L98.2074 123.689C98.2585 124.065 98.2226 124.446 98.1021 124.808C97.9817 125.17 97.7794 125.503 97.5091 125.786C97.2387 126.068 96.9067 126.293 96.5353 126.444C96.164 126.596 95.7622 126.671 95.357 126.665Z" fill="#407BFF"/>
<path d="M98.1395 126.406H36.9749C36.1328 126.406 35.325 126.718 34.7284 127.274C34.1318 127.83 33.7951 128.584 33.792 129.372H101.358C101.357 128.979 101.272 128.59 101.109 128.228C100.946 127.866 100.708 127.538 100.409 127.262C100.11 126.987 99.7553 126.769 99.3658 126.622C98.9763 126.475 98.5595 126.402 98.1395 126.406Z" fill="#407BFF"/>
<path d="M119.13 126.406H97.2648C96.4248 126.409 95.62 126.723 95.026 127.278C94.432 127.833 94.0969 128.586 94.0938 129.372H122.313C122.309 128.584 121.973 127.83 121.376 127.274C120.78 126.718 119.972 126.406 119.13 126.406Z" fill="#407BFF"/>
<path opacity="0.2" d="M119.13 126.406H97.2648C96.4248 126.409 95.62 126.723 95.026 127.278C94.432 127.833 94.0969 128.586 94.0938 129.372H122.313C122.309 128.584 121.973 127.83 121.376 127.274C120.78 126.718 119.972 126.406 119.13 126.406Z" fill="black"/>
</svg>
