<svg width="296" height="214" viewBox="0 0 296 214" fill="none" xmlns="http://www.w3.org/2000/svg">
<path d="M296 186.822H0V186.97H296V186.822Z" fill="#E6E6E6"/>
<path d="M263.783 190.632H250.019V190.78H263.783V190.632Z" fill="#E6E6E6"/>
<path d="M213.71 193.841H148.335V193.989H213.71V193.841Z" fill="#E6E6E6"/>
<path d="M120.371 193.918H113.96V194.066H120.371V193.918Z" fill="#E6E6E6"/>
<path d="M68.4142 192.14H46.1787V192.288H68.4142V192.14Z" fill="#E6E6E6"/>
<path d="M244.289 190.632H231.276V190.78H244.289V190.632Z" fill="#E6E6E6"/>
<path d="M41.3456 192.14H30.5771V192.288H41.3456V192.14Z" fill="#E6E6E6"/>
<path d="M191.554 81.8712H236.291V3.98176H191.554V81.8712Z" fill="#E6E6E6"/>
<path d="M189.137 81.8712H233.874V3.98176H189.137V81.8712Z" fill="#F5F5F5"/>
<path d="M229.528 78.2182V7.63998L193.47 7.63998V78.2182H229.528Z" fill="#FAFAFA"/>
<path d="M195.3 78.2182V7.63998H193.471V78.2182H195.3Z" fill="#E6E6E6"/>
<path d="M190.934 61.1736L232.084 61.1736V56.2659L190.934 56.2659V61.1736Z" fill="#F5F5F5"/>
<path d="M115.52 81.8712H160.258V3.98176H115.52V81.8712Z" fill="#E6E6E6"/>
<path d="M113.108 81.8712H157.846V3.98176H113.108V81.8712Z" fill="#F5F5F5"/>
<path d="M153.508 78.2182V7.63998L117.449 7.63998V78.2182H153.508Z" fill="#FAFAFA"/>
<path d="M119.271 78.2105V7.63229H117.442V78.2105H119.271Z" fill="#E6E6E6"/>
<path d="M114.902 61.1736L156.052 61.1736V56.2659L114.902 56.2659V61.1736Z" fill="#F5F5F5"/>
<path d="M39.4999 81.8712H84.2373L84.2373 3.98176H39.4999L39.4999 81.8712Z" fill="#E6E6E6"/>
<path d="M37.0829 81.8712H81.8203L81.8203 3.98176H37.0829L37.0829 81.8712Z" fill="#F5F5F5"/>
<path d="M77.4756 78.2105V7.63229L41.4169 7.63229L41.4169 78.2105H77.4756Z" fill="#FAFAFA"/>
<path d="M43.2461 78.2182L43.2461 7.63998H41.4168L41.4168 78.2182H43.2461Z" fill="#E6E6E6"/>
<path d="M38.8774 61.1736L80.0273 61.1736V56.2659L38.8774 56.2659V61.1736Z" fill="#F5F5F5"/>
<path d="M82.8822 130.067C74.8132 131.18 69.8227 113.645 87.6182 98.7972C86.6888 115.983 96.96 128.125 82.8822 130.067Z" fill="#E6E6E6"/>
<path d="M76.959 153.023C65.2611 144.824 73.265 116.177 109.466 118.255C93.8133 139.342 97.3594 167.314 76.959 153.023Z" fill="#E0E0E0"/>
<path d="M81.1024 152.837C88.8753 144.467 77.8109 123.397 49.8389 131.093C65.6216 144.946 67.5397 167.424 81.1024 152.837Z" fill="#E0E0E0"/>
<path d="M71.1224 140.618C68.4347 137.344 65.2616 133.662 66.0312 129.766C66.8008 125.871 68.7248 122.976 67.2152 118.832C65.38 113.859 65.7352 107.928 68.8373 108.425C71.9394 108.922 75.4144 112.569 75.3493 117.37C75.296 122.035 78.3093 123.527 81.2101 126.007C84.1109 128.488 85.1351 132.117 85.6501 135.669C86.5499 141.31 93.8611 140.245 95.8029 145.141C97.8098 149.877 93.8079 156.181 87.4083 157.632C81.0088 159.082 76.4504 160 72.0874 154.992C67.6533 149.717 75.1007 145.306 71.1224 140.618Z" fill="#F5F5F5"/>
<path d="M93.1407 186.827H69.0996L67.2881 154.078H94.9522L93.1407 186.827Z" fill="#EBEBEB"/>
<path d="M96.7429 153.401H65.4912V156.929H96.7429V153.401Z" fill="#EBEBEB"/>
<path d="M234.869 182.373H251.042V112.238H234.869V182.373Z" fill="#EBEBEB"/>
<path d="M108.13 186.822L247.937 186.822V182.376L108.13 182.376V186.822Z" fill="#EBEBEB"/>
<path d="M234.867 112.236H105.023V182.371H234.867V112.236Z" fill="#F5F5F5"/>
<path d="M228.509 120.873H111.382V143.878H228.509V120.873Z" fill="#EBEBEB"/>
<path d="M228.509 150.737H111.382V173.743H228.509V150.737Z" fill="#EBEBEB"/>
<path d="M133.511 133.95H206.381C206.798 133.948 207.197 133.782 207.492 133.487C207.787 133.192 207.954 132.792 207.955 132.375C207.955 131.957 207.79 131.555 207.494 131.259C207.199 130.963 206.799 130.796 206.381 130.794H133.511C133.093 130.796 132.693 130.963 132.397 131.259C132.102 131.555 131.937 131.957 131.937 132.375C131.938 132.792 132.104 133.192 132.399 133.487C132.694 133.782 133.094 133.948 133.511 133.95Z" fill="#F5F5F5"/>
<path d="M133.511 163.816H206.381C206.798 163.815 207.197 163.648 207.492 163.353C207.787 163.058 207.954 162.659 207.955 162.242C207.954 161.824 207.787 161.425 207.492 161.13C207.197 160.835 206.798 160.668 206.381 160.667H133.511C133.094 160.668 132.694 160.835 132.399 161.13C132.104 161.425 131.938 161.824 131.937 162.242C131.938 162.659 132.104 163.058 132.399 163.353C132.694 163.648 133.094 163.815 133.511 163.816Z" fill="#F5F5F5"/>
<path d="M199.025 102.006C199.025 102.006 217.555 119.565 228.554 101.935C228.554 101.935 225.63 96.27 222.546 95.7845C219.461 95.2991 219.337 100.686 216.626 99.0228C213.914 97.3592 210.747 91.6701 209.018 94.7071C207.29 97.744 204.916 93.4165 202.329 93.1679C199.742 92.9192 199.025 102.006 199.025 102.006Z" fill="#F5F5F5"/>
<path d="M229.732 100.791C229.732 100.791 229.33 112.24 213.713 112.24C198.096 112.24 197.693 100.791 197.693 100.791H229.732Z" fill="#EBEBEB"/>
<path d="M150.729 94.8255H159.722V112.242H133.318C133.318 107.624 135.153 103.195 138.417 99.9288C141.682 96.6627 146.111 94.827 150.729 94.8255Z" fill="#F5F5F5"/>
<path d="M168.018 94.8255H159.724V112.242H168.018V94.8255Z" fill="#E6E6E6"/>
<path d="M131.39 213.554C203.955 213.554 262.781 210.554 262.781 206.853C262.781 203.152 203.955 200.152 131.39 200.152C58.8254 200.152 0 203.152 0 206.853C0 210.554 58.8254 213.554 131.39 213.554Z" fill="#F5F5F5"/>
<path d="M129.056 77.5113L128.666 78.1033C128.547 78.275 128.423 78.429 128.304 78.5888C128.062 78.9085 127.807 79.1808 127.553 79.5064C127.038 80.0984 126.517 80.6904 125.96 81.2113C124.847 82.2806 123.66 83.2697 122.408 84.1713C121.157 85.0727 119.842 85.8801 118.471 86.5867C117.779 86.9242 117.092 87.2734 116.376 87.5576L115.304 87.9838L115.002 88.0963C114.836 88.1496 114.683 88.2088 114.499 88.2502C114.141 88.3396 113.773 88.3814 113.404 88.3746C112.7 88.3697 112.008 88.1972 111.385 87.8713C110.884 87.6096 110.423 87.2766 110.018 86.8827C109.375 86.2488 108.819 85.5321 108.366 84.7515C107.59 83.4 106.958 81.9715 106.477 80.4891C105.546 77.6946 104.88 74.8186 104.488 71.8992L106.963 71.3546C107.413 72.651 107.875 73.989 108.384 75.2795C108.893 76.5701 109.402 77.8547 109.994 79.0742C110.533 80.2514 111.175 81.3786 111.912 82.4427C112.205 82.8839 112.558 83.2823 112.96 83.6267C113.075 83.7216 113.205 83.7975 113.345 83.8517C113.427 83.8517 113.422 83.8517 113.38 83.8517H113.339L113.534 83.757L114.416 83.3307C115.008 83.0466 115.571 82.7387 116.139 82.3953C117.26 81.7236 118.343 80.9904 119.383 80.199C120.409 79.3925 121.384 78.5225 122.302 77.5942C122.763 77.1443 123.201 76.6648 123.622 76.1793C123.829 75.9366 124.036 75.6939 124.214 75.4512L124.498 75.0901L124.729 74.7822L129.056 77.5113Z" fill="#B97964"/>
<path d="M121.889 77.2583L124.891 84.457L122.718 85.8127L119.344 79.2829L121.889 77.2583Z" fill="#263238"/>
<path d="M130.384 71.2011C125.488 71.136 120.515 77.3343 120.391 77.4882L124.262 86.5931C124.262 86.5931 132.876 79.6016 133.308 76.8666C133.758 74.0191 133.486 71.2426 130.384 71.2011Z" fill="#407BFF"/>
<path opacity="0.3" d="M130.384 71.2011C125.488 71.136 120.515 77.3343 120.391 77.4882L124.262 86.5931C124.262 86.5931 132.876 79.6016 133.308 76.8666C133.758 74.0191 133.486 71.2426 130.384 71.2011Z" fill="#407BFF"/>
<path d="M106.559 70.4098L103.173 67.7754L102.486 72.9613C102.486 72.9613 105.778 74.2519 107.53 73.133L107.483 72.1858C107.465 71.8409 107.374 71.5038 107.214 71.1973C107.055 70.8909 106.832 70.6223 106.559 70.4098Z" fill="#B97964"/>
<path d="M98.6611 67.5214L98.8743 71.4582L102.503 72.9678L103.19 67.7818L98.6611 67.5214Z" fill="#B97964"/>
<path d="M172.864 69.9944L178.097 68.6861L174.439 64.9505C174.439 64.9505 171.047 66.3358 171.876 69.2958L172.864 69.9944Z" fill="#B97964"/>
<path d="M180.695 67.7505L180.263 63.642L174.408 64.9444L178.067 68.68L180.695 67.7505Z" fill="#B97964"/>
<path d="M155.8 201.662L150.927 202.13L146.86 190.633L151.732 190.16L155.8 201.662Z" fill="#B97964"/>
<path d="M207.951 177.492L204.364 180.973L195.141 173.775L198.734 170.294L207.951 177.492Z" fill="#B97964"/>
<path d="M203.33 180.297L206.089 175.401C206.135 175.317 206.211 175.253 206.301 175.22C206.391 175.188 206.49 175.189 206.58 175.224L210.771 176.846C210.875 176.891 210.968 176.957 211.044 177.041C211.121 177.124 211.179 177.222 211.214 177.33C211.25 177.437 211.263 177.55 211.252 177.663C211.241 177.775 211.206 177.884 211.15 177.983C210.162 179.676 209.599 180.439 208.386 182.594C207.64 183.92 206.183 186.957 205.153 188.787C204.123 190.616 202.258 189.692 202.525 188.84C203.709 185.01 203.507 182.872 203.188 181.179C203.129 180.878 203.18 180.565 203.33 180.297Z" fill="#263238"/>
<path d="M149.954 200.643H155.874C155.98 200.646 156.083 200.682 156.167 200.747C156.251 200.812 156.312 200.902 156.341 201.005L157.632 205.699C157.665 205.81 157.671 205.927 157.649 206.041C157.628 206.155 157.581 206.262 157.51 206.353C157.44 206.445 157.349 206.519 157.244 206.569C157.14 206.619 157.025 206.643 156.91 206.64C154.832 206.605 153.819 206.481 151.209 206.481C149.604 206.481 144.377 206.652 142.157 206.652C139.937 206.652 139.534 204.456 140.434 204.284C144.46 203.39 147.858 202.165 149.095 200.993C149.324 200.768 149.633 200.642 149.954 200.643Z" fill="#263238"/>
<path d="M146.864 190.633L148.954 196.565H153.998L151.736 190.16L146.864 190.633Z" fill="#A76755"/>
<path d="M198.738 170.294L195.145 173.78L199.898 177.486L203.492 174.005L198.738 170.294Z" fill="#A76755"/>
<path d="M125.618 72.7749C125.618 72.7749 123.605 74.3082 137.168 100.777L156.503 94.5309C153.637 86.7698 152.063 81.9213 150.583 64.558C147.715 64.8753 144.874 65.3996 142.082 66.1268C139.096 66.8781 136.163 67.8254 133.302 68.9625C129.608 70.549 125.618 72.7749 125.618 72.7749Z" fill="#407BFF"/>
<path opacity="0.3" d="M125.618 72.7749C125.618 72.7749 123.605 74.3082 137.168 100.777L156.503 94.5309C153.637 86.7698 152.063 81.9213 150.583 64.558C147.715 64.8753 144.874 65.3996 142.082 66.1268C139.096 66.8781 136.163 67.8254 133.302 68.9625C129.608 70.549 125.618 72.7749 125.618 72.7749Z" fill="#407BFF"/>
<path d="M137.988 56.5222C138.343 59.5295 139.462 64.8812 142.049 66.1303C142.049 66.1303 142.197 69.2442 136.952 70.9374C131.18 72.8022 133.27 68.966 133.27 68.966C136.177 67.19 135.336 64.8812 134.081 62.8684L137.988 56.5222Z" fill="#B97964"/>
<path d="M128.286 71.3448C129.713 70.6048 131.531 69.7049 133.271 68.9768C136.136 67.8188 139.08 66.8672 142.08 66.1292C143.767 65.6675 145.472 65.3241 146.911 65.0814C147.047 65.484 146.638 66.5259 145.638 67.9644C142.471 70.5929 135.716 74.0088 130.737 73.8844C128.559 73.0734 128.014 72.215 128.286 71.3448Z" fill="#B97964"/>
<path d="M145.636 67.9601C143.486 70.8427 140.915 73.387 138.011 75.5081C135.538 75.207 133.101 74.6617 130.735 73.8801C135.69 74.0044 142.445 70.5886 145.636 67.9601Z" fill="#263238"/>
<path d="M136.398 59.1084L134.083 62.8558C134.385 63.3228 134.645 63.8162 134.859 64.3298C136.007 63.7674 137.469 62.1039 137.191 60.7778C137.026 60.1794 136.757 59.6144 136.398 59.1084Z" fill="#A76755"/>
<path d="M139.161 50.9632C139.457 55.9182 139.694 58.008 137.515 60.8377C134.242 65.0883 128.091 64.3897 126.315 59.6064C124.722 55.3144 124.503 47.9321 129.079 45.3984C130.085 44.8333 131.218 44.5345 132.371 44.5301C133.525 44.5257 134.66 44.8159 135.67 45.3733C136.68 45.9306 137.53 46.7367 138.141 47.7149C138.752 48.6932 139.103 49.8112 139.161 50.9632Z" fill="#B97964"/>
<path d="M148.948 42.0872C150.068 37.1647 146.984 32.2669 142.062 31.1476C137.139 30.0283 132.242 33.1114 131.122 38.0339C130.003 42.9565 133.086 47.8543 138.009 48.9735C142.931 50.0928 147.829 47.0097 148.948 42.0872Z" fill="#263238"/>
<path d="M137.751 44.029C139.634 45.2722 140.569 47.1784 139.841 48.2854C139.113 49.3925 136.994 49.2859 135.105 48.0427C133.217 46.7995 132.287 44.8933 133.015 43.7862C133.744 42.6792 135.863 42.7858 137.751 44.029Z" fill="#407BFF"/>
<path opacity="0.6" d="M137.751 44.029C139.634 45.2722 140.569 47.1784 139.841 48.2854C139.113 49.3925 136.994 49.2859 135.105 48.0427C133.217 46.7995 132.287 44.8933 133.015 43.7862C133.744 42.6792 135.863 42.7858 137.751 44.029Z" fill="#FAFAFA"/>
<path d="M136.753 54.3434C137.244 53.2068 135.533 49.8324 135.9 48.5714C134.917 47.6538 124.954 50.898 125.759 48.53C126.529 46.2567 128.956 43.2434 134.497 44.5044C140.417 45.8542 140.932 50.975 140.269 52.6089C139.606 54.2428 138.665 55.9418 138.665 55.9418L136.753 54.3434Z" fill="#263238"/>
<path d="M140.468 55.3122C140.48 56.2711 140.115 57.1963 139.45 57.8874C138.556 58.7932 137.478 58.1419 137.2 56.9698C136.946 55.916 137.111 54.1696 138.26 53.7079C138.513 53.6093 138.787 53.5758 139.056 53.6106C139.326 53.6454 139.582 53.7473 139.802 53.907C140.022 54.0667 140.198 54.2791 140.314 54.5246C140.431 54.7701 140.484 55.0409 140.468 55.3122Z" fill="#B97964"/>
<path d="M137.167 100.779C137.167 100.779 128.204 144.493 133.201 158.908C138.398 173.903 146.858 194.836 146.858 194.836L154.761 194.386C154.761 194.386 148.249 167.936 146.645 155.989C144.449 139.52 153.855 95.4158 153.855 95.4158L137.167 100.779Z" fill="#407BFF"/>
<path opacity="0.6" d="M137.167 100.779C137.167 100.779 128.204 144.493 133.201 158.908C138.398 173.903 146.858 194.836 146.858 194.836L154.761 194.386C154.761 194.386 148.249 167.936 146.645 155.989C144.449 139.52 153.855 95.4158 153.855 95.4158L137.167 100.779Z" fill="#FAFAFA"/>
<path d="M155.381 194.573L146.235 195.1L144.767 191.5L154.854 190.452L155.381 194.573Z" fill="#407BFF"/>
<path opacity="0.2" d="M155.381 194.573L146.235 195.1L144.767 191.5L154.854 190.452L155.381 194.573Z" fill="black"/>
<path d="M146.648 104.144C145.275 109.224 146.423 116.837 149.016 122.177C149.65 118.033 150.325 114.019 150.964 110.425C149.632 107.85 148.164 105.565 146.648 104.144Z" fill="#407BFF"/>
<path opacity="0.4" d="M146.648 104.144C145.275 109.224 146.423 116.837 149.016 122.177C149.65 118.033 150.325 114.019 150.964 110.425C149.632 107.85 148.164 105.565 146.648 104.144Z" fill="#FAFAFA"/>
<path d="M142.27 99.1246C142.27 99.1246 155.578 130.933 164.393 148.397C171.497 162.522 197.858 177.304 197.858 177.304L202.594 172.284C202.594 172.284 182.893 154.79 177.979 145.212C162.255 114.552 165.488 101.161 156.513 94.5306L142.27 99.1246Z" fill="#407BFF"/>
<path opacity="0.6" d="M142.27 99.1246C142.27 99.1246 155.578 130.933 164.393 148.397C171.497 162.522 197.858 177.304 197.858 177.304L202.594 172.284C202.594 172.284 182.893 154.79 177.979 145.212C162.255 114.552 165.488 101.161 156.513 94.5306L142.27 99.1246Z" fill="#FAFAFA"/>
<path d="M203.479 171.572L196.967 178.493L192.847 176.326L200.347 168.677L203.479 171.572Z" fill="#407BFF"/>
<path opacity="0.2" d="M203.479 171.572L196.967 178.493L192.847 176.326L200.347 168.677L203.479 171.572Z" fill="black"/>
<path d="M156.424 93.3053L157.85 94.7557C157.963 94.8681 157.85 95.0576 157.626 95.1286L137.35 101.641C137.172 101.7 137 101.641 136.953 101.552L136.225 99.8824C136.171 99.764 136.29 99.616 136.479 99.5509L156.057 93.2342C156.119 93.2133 156.185 93.2089 156.25 93.2213C156.314 93.2338 156.374 93.2627 156.424 93.3053Z" fill="#263238"/>
<path d="M154.513 96.3506L155.034 96.1849C155.14 96.1494 155.199 96.0665 155.176 96.0073L154.205 93.8346C154.205 93.7754 154.063 93.7518 153.962 93.7814L153.435 93.953C153.335 93.953 153.27 94.0655 153.299 94.1306L154.27 96.2974C154.288 96.3625 154.394 96.3862 154.513 96.3506Z" fill="#407BFF"/>
<path opacity="0.6" d="M154.513 96.3506L155.034 96.1849C155.14 96.1494 155.199 96.0665 155.176 96.0073L154.205 93.8346C154.205 93.7754 154.063 93.7518 153.962 93.7814L153.435 93.953C153.335 93.953 153.27 94.0655 153.299 94.1306L154.27 96.2974C154.288 96.3625 154.394 96.3862 154.513 96.3506Z" fill="#FAFAFA"/>
<path d="M138.883 101.388L139.41 101.217C139.51 101.181 139.576 101.104 139.546 101.039L138.575 98.8723C138.545 98.8072 138.439 98.7835 138.332 98.8191L137.805 98.9848C137.705 99.0203 137.64 99.0973 137.669 99.1624L138.64 101.329C138.67 101.394 138.776 101.418 138.883 101.388Z" fill="#407BFF"/>
<path opacity="0.6" d="M138.883 101.388L139.41 101.217C139.51 101.181 139.576 101.104 139.546 101.039L138.575 98.8723C138.545 98.8072 138.439 98.7835 138.332 98.8191L137.805 98.9848C137.705 99.0203 137.64 99.0973 137.669 99.1624L138.64 101.329C138.67 101.394 138.776 101.418 138.883 101.388Z" fill="#FAFAFA"/>
<path d="M146.692 98.8637L147.213 98.692C147.32 98.692 147.385 98.5795 147.356 98.5144L146.385 96.3477C146.355 96.2826 146.243 96.2589 146.142 96.2944L145.615 96.4661C145.514 96.4957 145.449 96.5786 145.479 96.6378L146.45 98.8104C146.479 98.8443 146.518 98.8678 146.562 98.8775C146.606 98.8871 146.652 98.8822 146.692 98.8637Z" fill="#407BFF"/>
<path opacity="0.6" d="M146.692 98.8637L147.213 98.692C147.32 98.692 147.385 98.5795 147.356 98.5144L146.385 96.3477C146.355 96.2826 146.243 96.2589 146.142 96.2944L145.615 96.4661C145.514 96.4957 145.449 96.5786 145.479 96.6378L146.45 98.8104C146.479 98.8443 146.518 98.8678 146.562 98.8775C146.606 98.8871 146.652 98.8822 146.692 98.8637Z" fill="#FAFAFA"/>
<path d="M131.867 53.2522C131.915 53.6489 131.743 54.0041 131.482 54.0337C131.222 54.0633 130.967 53.7673 130.92 53.3647C130.873 52.9622 131.044 52.6129 131.305 52.5833C131.565 52.5537 131.82 52.8497 131.867 53.2522Z" fill="#263238"/>
<path d="M127.341 53.8074C127.394 54.21 127.216 54.5592 126.956 54.5888C126.696 54.6184 126.441 54.3224 126.394 53.9258C126.346 53.5292 126.518 53.1739 126.778 53.1384C127.039 53.1029 127.282 53.3871 127.341 53.8074Z" fill="#263238"/>
<path d="M126.896 53.149L125.901 52.9892C125.901 52.9892 126.487 53.6818 126.896 53.149Z" fill="#263238"/>
<path d="M128.625 54.3516C128.377 55.3078 128.001 56.2259 127.506 57.0807C127.729 57.1996 127.975 57.2695 128.227 57.2859C128.479 57.3022 128.732 57.2645 128.968 57.1754L128.625 54.3516Z" fill="#A24E3F"/>
<path d="M130.557 58.5734C130.529 58.5737 130.501 58.5637 130.479 58.5452C130.457 58.5267 130.443 58.501 130.439 58.4727C130.437 58.4409 130.447 58.4095 130.466 58.3844C130.486 58.3593 130.514 58.3423 130.545 58.3366C131.044 58.2869 131.524 58.1206 131.947 57.8512C132.369 57.5817 132.723 57.2167 132.978 56.7855C132.985 56.7709 132.994 56.7578 133.006 56.7469C133.017 56.736 133.031 56.7275 133.046 56.722C133.061 56.7164 133.077 56.714 133.092 56.7147C133.108 56.7155 133.124 56.7194 133.138 56.7263C133.152 56.7332 133.165 56.7429 133.175 56.7547C133.185 56.7665 133.193 56.7802 133.198 56.7951C133.203 56.81 133.205 56.8257 133.204 56.8413C133.203 56.8569 133.199 56.8722 133.192 56.8862C132.923 57.3565 132.544 57.7553 132.089 58.049C131.634 58.3426 131.114 58.5224 130.575 58.5734H130.557Z" fill="#263238"/>
<path d="M132.431 51.8292C132.374 51.8286 132.319 51.8076 132.277 51.77C132.058 51.5675 131.794 51.4205 131.506 51.3412C131.219 51.2618 130.917 51.2526 130.625 51.3142C130.595 51.3232 130.563 51.326 130.531 51.3225C130.5 51.319 130.47 51.3092 130.442 51.2937C130.414 51.2783 130.39 51.2575 130.371 51.2325C130.351 51.2076 130.337 51.179 130.329 51.1484C130.32 51.1185 130.317 51.087 130.321 51.056C130.324 51.025 130.334 50.995 130.35 50.9679C130.365 50.9408 130.386 50.9171 130.411 50.8983C130.436 50.8794 130.464 50.8658 130.495 50.8583C130.862 50.7777 131.243 50.7856 131.606 50.8813C131.969 50.9771 132.305 51.1579 132.584 51.4089C132.607 51.4309 132.625 51.4572 132.637 51.4862C132.649 51.5151 132.655 51.5462 132.655 51.5776C132.655 51.609 132.649 51.6401 132.637 51.6691C132.625 51.698 132.607 51.7243 132.584 51.7463C132.545 51.7921 132.49 51.8217 132.431 51.8292Z" fill="#263238"/>
<path d="M125.002 51.963C124.967 51.9714 124.93 51.9714 124.895 51.963C124.84 51.9329 124.799 51.8829 124.781 51.8234C124.762 51.7638 124.767 51.6994 124.794 51.6434C124.956 51.3049 125.197 51.0097 125.495 50.7822C125.794 50.5547 126.142 50.4015 126.511 50.335C126.573 50.3284 126.635 50.3464 126.684 50.3852C126.733 50.4239 126.764 50.4804 126.772 50.5422C126.776 50.5734 126.774 50.605 126.766 50.6353C126.757 50.6657 126.743 50.694 126.724 50.7188C126.705 50.7436 126.681 50.7643 126.653 50.7797C126.626 50.7952 126.596 50.805 126.565 50.8086C126.272 50.8631 125.997 50.9866 125.763 51.1689C125.528 51.3511 125.34 51.5869 125.215 51.8565C125.192 51.8915 125.16 51.9198 125.123 51.9385C125.085 51.9572 125.043 51.9657 125.002 51.963Z" fill="#263238"/>
<path d="M154.513 69.1791L154.738 69.4632L155.016 69.8007C155.206 70.0256 155.401 70.2565 155.608 70.4815C156.017 70.9373 156.443 71.3872 156.899 71.8135C157.791 72.6887 158.734 73.511 159.723 74.2762C160.726 75.0364 161.768 75.7458 162.842 76.4015C163.381 76.7271 163.932 77.0349 164.488 77.3368L165.335 77.769L165.743 77.9762C165.844 78.0236 165.945 78.0709 166.039 78.1064C166.341 78.2324 166.665 78.2987 166.992 78.3018C167.293 78.2846 167.582 78.1773 167.821 77.994C168.615 77.3364 169.241 76.5007 169.65 75.5549C170.2 74.4145 170.642 73.2254 170.971 72.0029C171.337 70.7562 171.639 69.4916 171.876 68.2141L174.404 68.374C174.483 71.2883 174.067 74.1949 173.173 76.9698C172.92 77.7263 172.592 78.456 172.196 79.1484C171.756 79.9374 171.188 80.6477 170.515 81.25C169.713 81.9619 168.733 82.4428 167.679 82.6411C166.655 82.8198 165.602 82.7467 164.613 82.428C164.382 82.3629 164.169 82.28 163.949 82.1971L163.434 81.984L162.428 81.5637C161.759 81.2618 161.102 80.9717 160.457 80.6047C159.162 79.9213 157.914 79.1519 156.721 78.3018C155.527 77.4408 154.39 76.5035 153.317 75.4957C152.784 74.9866 152.269 74.4479 151.766 73.8914C151.517 73.6072 151.269 73.2994 151.032 73.0271L150.671 72.5594C150.547 72.3936 150.452 72.2634 150.286 72.0266L154.513 69.1791Z" fill="#B97964"/>
<path d="M158.711 72.3016L155.005 78.5236L153.199 76.8186L156.621 70.5848L158.711 72.3016Z" fill="#263238"/>
<path d="M150.607 64.5581C152.738 64.5226 157.912 70.6321 157.912 70.6321L153.413 78.4642C153.413 78.4642 147.683 73.4145 147.688 70.6498C147.694 67.7668 148.18 64.6292 150.607 64.5581Z" fill="#407BFF"/>
<path opacity="0.3" d="M150.607 64.5581C152.738 64.5226 157.912 70.6321 157.912 70.6321L153.413 78.4642C153.413 78.4642 147.683 73.4145 147.688 70.6498C147.694 67.7668 148.18 64.6292 150.607 64.5581Z" fill="#407BFF"/>
<path d="M202.361 182.956C202.196 182.95 202.038 182.89 201.911 182.785C201.852 182.745 201.804 182.69 201.774 182.625C201.744 182.56 201.732 182.489 201.74 182.417C201.793 181.778 203.397 180.937 203.575 180.843C203.594 180.83 203.617 180.823 203.64 180.823C203.663 180.823 203.686 180.83 203.705 180.843C203.723 180.858 203.736 180.877 203.743 180.899C203.751 180.921 203.752 180.945 203.746 180.967C203.563 181.606 203.154 182.708 202.562 182.903C202.499 182.932 202.431 182.95 202.361 182.956ZM203.433 181.18C202.805 181.535 202.006 182.092 201.976 182.423C201.972 182.455 201.977 182.488 201.992 182.517C202.007 182.545 202.03 182.569 202.059 182.583C202.115 182.637 202.183 182.675 202.258 182.693C202.334 182.71 202.412 182.707 202.485 182.684C202.811 182.589 203.154 182.033 203.433 181.192V181.18Z" fill="#407BFF"/>
<path d="M202.14 181.401C201.879 181.423 201.619 181.358 201.4 181.217C201.328 181.156 201.28 181.072 201.263 180.979C201.246 180.887 201.26 180.791 201.305 180.708C201.337 180.622 201.388 180.545 201.455 180.482C201.522 180.42 201.602 180.373 201.69 180.347C202.376 180.116 203.631 180.809 203.685 180.838C203.704 180.849 203.72 180.864 203.732 180.883C203.743 180.901 203.749 180.923 203.75 180.945C203.749 180.965 203.743 180.985 203.733 181.003C203.722 181.02 203.708 181.035 203.691 181.045C203.207 181.28 202.677 181.401 202.14 181.401ZM202.015 180.536C201.931 180.535 201.847 180.547 201.767 180.572C201.712 180.589 201.662 180.618 201.62 180.657C201.578 180.696 201.545 180.744 201.524 180.797C201.465 180.939 201.524 180.998 201.524 181.04C201.79 181.264 202.773 181.17 203.335 180.939C202.925 180.721 202.477 180.584 202.015 180.536Z" fill="#407BFF"/>
<path d="M147.325 201.617C146.911 201.652 146.496 201.554 146.141 201.339C146.048 201.27 145.972 201.181 145.92 201.078C145.867 200.976 145.84 200.862 145.839 200.747C145.832 200.684 145.842 200.621 145.868 200.563C145.894 200.506 145.935 200.457 145.987 200.421C146.526 200.054 148.55 200.977 148.947 201.161C148.97 201.172 148.988 201.19 149 201.212C149.012 201.235 149.016 201.26 149.012 201.285C149.01 201.309 149 201.332 148.984 201.35C148.968 201.368 148.947 201.381 148.923 201.386C148.4 201.516 147.864 201.594 147.325 201.617ZM146.378 200.593C146.298 200.585 146.218 200.602 146.147 200.64C146.129 200.652 146.115 200.669 146.107 200.689C146.098 200.709 146.096 200.731 146.1 200.752C146.102 200.83 146.121 200.906 146.157 200.975C146.193 201.043 146.244 201.103 146.307 201.149C146.774 201.504 147.887 201.368 148.539 201.25C147.855 200.923 147.127 200.702 146.378 200.593Z" fill="#407BFF"/>
<path d="M148.926 201.413H148.879C148.21 201.141 146.86 200.057 146.937 199.495C146.937 199.371 147.031 199.217 147.339 199.181C148.523 199.027 149.021 201.188 149.038 201.277C149.043 201.298 149.043 201.32 149.036 201.341C149.03 201.361 149.019 201.38 149.003 201.395C148.98 201.409 148.953 201.415 148.926 201.413ZM147.446 199.406H147.369C147.245 199.406 147.174 199.459 147.168 199.519C147.126 199.838 148.056 200.703 148.742 201.07C148.594 200.56 148.156 199.406 147.446 199.406Z" fill="#407BFF"/>
<path d="M131.425 52.5871L130.431 52.4273C130.431 52.4273 131.017 53.1199 131.425 52.5871Z" fill="#263238"/>
<path d="M94.3895 11.2245C93.3417 12.5388 87.5697 14.0839 82.9817 13.6576C81.401 24.0295 86.9244 35.9701 86.9244 35.9701C86.9244 35.9701 98.9124 34.5434 99.2084 29.6061C99.5044 24.6688 94.3895 11.2245 94.3895 11.2245Z" fill="#407BFF"/>
<path opacity="0.1" d="M94.3895 11.2245C93.3417 12.5388 87.5697 14.0839 82.9817 13.6576C81.401 24.0295 86.9244 35.9701 86.9244 35.9701C86.9244 35.9701 98.9124 34.5434 99.2084 29.6061C99.5044 24.6688 94.3895 11.2245 94.3895 11.2245Z" fill="#FAFAFA"/>
<path d="M185.137 3.33493C186.209 4.84453 191.649 6.34229 195.858 5.56085C198.114 17.8389 193.934 32.4258 193.934 32.4258C193.934 32.4258 182.763 31.4313 182.094 25.5645C181.425 19.6978 185.137 3.33493 185.137 3.33493Z" fill="#407BFF"/>
<path opacity="0.1" d="M185.137 3.33493C186.209 4.84453 191.649 6.34229 195.858 5.56085C198.114 17.8389 193.934 32.4258 193.934 32.4258C193.934 32.4258 182.763 31.4313 182.094 25.5645C181.425 19.6978 185.137 3.33493 185.137 3.33493Z" fill="#FAFAFA"/>
<path d="M106.559 109.666C106.473 109.678 106.387 109.674 106.303 109.652C106.22 109.631 106.141 109.593 106.072 109.542C106.004 109.49 105.946 109.425 105.902 109.351C105.859 109.277 105.83 109.194 105.819 109.109L91.7585 9.37483C91.747 9.28675 91.7533 9.19726 91.777 9.11166C91.8007 9.02606 91.8414 8.9461 91.8966 8.87652C91.9518 8.80695 92.0205 8.74918 92.0984 8.70664C92.1764 8.6641 92.2622 8.63767 92.3505 8.6289C92.4361 8.61723 92.523 8.62251 92.6065 8.64446C92.69 8.66641 92.7683 8.70458 92.837 8.75681C92.9058 8.80904 92.9635 8.87429 93.007 8.94884C93.0505 9.02339 93.0789 9.10578 93.0905 9.1913L107.151 108.92C107.162 109.008 107.156 109.097 107.132 109.183C107.108 109.268 107.068 109.348 107.012 109.418C106.957 109.487 106.889 109.545 106.811 109.588C106.733 109.63 106.647 109.657 106.559 109.666Z" fill="#407BFF"/>
<path opacity="0.2" d="M106.559 109.666C106.473 109.678 106.387 109.674 106.303 109.652C106.22 109.631 106.141 109.593 106.072 109.542C106.004 109.49 105.946 109.425 105.902 109.351C105.859 109.277 105.83 109.194 105.819 109.109L91.7585 9.37483C91.747 9.28675 91.7533 9.19726 91.777 9.11166C91.8007 9.02606 91.8414 8.9461 91.8966 8.87652C91.9518 8.80695 92.0205 8.74918 92.0984 8.70664C92.1764 8.6641 92.2622 8.63767 92.3505 8.6289C92.4361 8.61723 92.523 8.62251 92.6065 8.64446C92.69 8.66641 92.7683 8.70458 92.837 8.75681C92.9058 8.80904 92.9635 8.87429 93.007 8.94884C93.0505 9.02339 93.0789 9.10578 93.0905 9.1913L107.151 108.92C107.162 109.008 107.156 109.097 107.132 109.183C107.108 109.268 107.068 109.348 107.012 109.418C106.957 109.487 106.889 109.545 106.811 109.588C106.733 109.63 106.647 109.657 106.559 109.666Z" fill="black"/>
<path d="M173.559 102.252C173.647 102.263 173.736 102.257 173.822 102.233C173.908 102.209 173.988 102.169 174.057 102.114C174.127 102.058 174.184 101.99 174.227 101.912C174.269 101.834 174.296 101.748 174.305 101.66L188.394 1.93128C188.407 1.84575 188.402 1.75858 188.381 1.67476C188.36 1.59095 188.323 1.51214 188.271 1.44284C188.219 1.37355 188.154 1.31514 188.08 1.27095C188.006 1.22677 187.923 1.19769 187.838 1.18536C187.75 1.17383 187.66 1.18011 187.575 1.20382C187.489 1.22754 187.409 1.26822 187.34 1.32344C187.27 1.37866 187.212 1.44729 187.17 1.52527C187.127 1.60324 187.101 1.68897 187.092 1.77736L173.002 101.506C172.979 101.678 173.024 101.853 173.128 101.993C173.232 102.132 173.387 102.225 173.559 102.252Z" fill="#407BFF"/>
<path opacity="0.2" d="M173.559 102.252C173.647 102.263 173.736 102.257 173.822 102.233C173.908 102.209 173.988 102.169 174.057 102.114C174.127 102.058 174.184 101.99 174.227 101.912C174.269 101.834 174.296 101.748 174.305 101.66L188.394 1.93128C188.407 1.84575 188.402 1.75858 188.381 1.67476C188.36 1.59095 188.323 1.51214 188.271 1.44284C188.219 1.37355 188.154 1.31514 188.08 1.27095C188.006 1.22677 187.923 1.19769 187.838 1.18536C187.75 1.17383 187.66 1.18011 187.575 1.20382C187.489 1.22754 187.409 1.26822 187.34 1.32344C187.27 1.37866 187.212 1.44729 187.17 1.52527C187.127 1.60324 187.101 1.68897 187.092 1.77736L173.002 101.506C172.979 101.678 173.024 101.853 173.128 101.993C173.232 102.132 173.387 102.225 173.559 102.252Z" fill="black"/>
<path d="M91.1983 11.4815L93.8623 31.0648C93.8786 31.1886 93.9215 31.3074 93.988 31.413C94.0546 31.5186 94.1432 31.6085 94.2479 31.6766C94.3525 31.7446 94.4707 31.7892 94.5942 31.8073C94.7177 31.8253 94.8437 31.8164 94.9634 31.7812C100.919 30.0762 134.035 21.5751 184.906 26.986C185.122 27.0109 185.34 26.9534 185.515 26.825C185.691 26.6966 185.811 26.5068 185.853 26.2933C186.812 21.3324 188.464 7.20131 188.884 3.58419C188.909 3.35617 188.844 3.12737 188.702 2.94694C188.561 2.76651 188.354 2.64885 188.126 2.61924C181.295 1.75492 134.663 -3.41324 91.7962 10.5343C91.6023 10.5985 91.4366 10.728 91.3276 10.9008C91.2185 11.0735 91.1728 11.2788 91.1983 11.4815Z" fill="#407BFF"/>
<path opacity="0.4" d="M91.1983 11.4815L93.8623 31.0648C93.8786 31.1886 93.9215 31.3074 93.988 31.413C94.0546 31.5186 94.1432 31.6085 94.2479 31.6766C94.3525 31.7446 94.4707 31.7892 94.5942 31.8073C94.7177 31.8253 94.8437 31.8164 94.9634 31.7812C100.919 30.0762 134.035 21.5751 184.906 26.986C185.122 27.0109 185.34 26.9534 185.515 26.825C185.691 26.6966 185.811 26.5068 185.853 26.2933C186.812 21.3324 188.464 7.20131 188.884 3.58419C188.909 3.35617 188.844 3.12737 188.702 2.94694C188.561 2.76651 188.354 2.64885 188.126 2.61924C181.295 1.75492 134.663 -3.41324 91.7962 10.5343C91.6023 10.5985 91.4366 10.728 91.3276 10.9008C91.2185 11.0735 91.1728 11.2788 91.1983 11.4815Z" fill="#FAFAFA"/>
<path d="M99.7422 14.8998L102.548 14.3078L104.531 19.4641L105.035 13.8046L107.835 13.2126L110.292 18.2683L110.327 12.7094L113.121 12.1174L112.754 22.1222L109.859 22.7142L107.083 17.0191L106.491 23.389L103.596 23.981L99.7422 14.8998Z" fill="#FAFAFA"/>
<path d="M114.494 12.016L122.48 10.832L122.741 12.8921L117.744 13.6262L117.94 15.1654L122.575 14.4846L122.824 16.456L118.188 17.1368L118.401 19.0489L123.546 18.2971L123.824 20.4875L115.69 21.6715L114.494 12.016Z" fill="#FAFAFA"/>
<path d="M124.508 10.5957L127.503 10.2701L128.143 17.5931L132.814 17.0899L133.027 19.4579L125.331 20.2867L124.508 10.5957Z" fill="#FAFAFA"/>
<path d="M140.343 14.9403L143.013 15.5323C142.902 16.2162 142.65 16.8695 142.273 17.4504C141.926 17.9734 141.454 18.4009 140.899 18.6936C140.234 19.0139 139.511 19.1952 138.774 19.2264C137.894 19.3202 137.004 19.2254 136.163 18.9481C135.435 18.6336 134.817 18.1103 134.387 17.4445C133.82 16.5736 133.514 15.5589 133.505 14.52C133.35 13.1569 133.741 11.788 134.594 10.7134C135.051 10.2284 135.601 9.84052 136.212 9.573C136.822 9.30547 137.48 9.1638 138.146 9.15646C139.151 9.02514 140.171 9.21145 141.065 9.68926C141.849 10.2109 142.44 10.9766 142.746 11.8678L140.124 12.6493C140.051 12.4213 139.941 12.2072 139.798 12.0158C139.616 11.8008 139.385 11.634 139.123 11.5304C138.698 11.3566 138.224 11.3423 137.789 11.4903C137.353 11.6382 136.986 11.9384 136.755 12.3355C136.468 12.9438 136.359 13.6213 136.441 14.2891C136.493 15.3665 136.69 16.0947 137.033 16.4736C137.212 16.6624 137.433 16.8064 137.678 16.8939C137.922 16.9813 138.184 17.0097 138.442 16.9768C138.685 16.9738 138.925 16.9195 139.145 16.8175C139.365 16.7155 139.562 16.568 139.721 16.3848C140.048 15.9644 140.262 15.467 140.343 14.9403Z" fill="#FAFAFA"/>
<path d="M144.11 13.8074C144.063 13.1265 144.152 12.4431 144.372 11.7968C144.591 11.1505 144.937 10.5542 145.388 10.0423C145.872 9.56581 146.447 9.19138 147.079 8.94122C147.71 8.69106 148.386 8.57026 149.065 8.58597C149.739 8.51883 150.419 8.58914 151.066 8.79265C151.712 8.99616 152.31 9.32864 152.824 9.76997C153.285 10.2493 153.643 10.8181 153.877 11.4412C154.11 12.0643 154.213 12.7285 154.179 13.393C154.231 14.3653 154.048 15.3357 153.647 16.2228C153.284 16.9616 152.714 17.5788 152.007 17.9988C151.184 18.4584 150.256 18.699 149.313 18.6973C148.382 18.7628 147.448 18.6129 146.584 18.2592C145.841 17.9176 145.221 17.3554 144.808 16.649C144.323 15.7824 144.081 14.8003 144.11 13.8074ZM147.111 13.7245C147.059 14.4744 147.268 15.2191 147.703 15.8321C147.888 16.0409 148.119 16.2033 148.378 16.3062C148.637 16.409 148.917 16.4494 149.195 16.4241C149.479 16.4304 149.76 16.3725 150.019 16.2546C150.277 16.1367 150.505 15.9619 150.687 15.7432C151.1 15.0548 151.276 14.2503 151.19 13.4522C151.241 12.7375 151.03 12.0286 150.598 11.4572C150.409 11.2491 150.174 11.0874 149.912 10.9848C149.65 10.8821 149.368 10.8412 149.088 10.8652C148.81 10.8643 148.535 10.9261 148.284 11.046C148.033 11.166 147.812 11.3409 147.638 11.5578C147.221 12.1971 147.036 12.9594 147.111 13.7186V13.7245Z" fill="#FAFAFA"/>
<path d="M155.998 8.56131H159.946L161.308 14.5227L162.983 8.60275L166.932 8.63827L166.666 18.4063H164.203L164.404 10.953L162.309 18.3885H160.083L158.395 10.9175L158.194 18.3707H155.731L155.998 8.56131Z" fill="#FAFAFA"/>
<path d="M169.101 8.73834L177.134 9.09946L177.01 11.1833L171.978 10.9583L171.877 12.539L176.542 12.7462L176.418 14.7057L171.753 14.4985L171.635 16.4284L176.809 16.6534L176.667 18.8675L168.485 18.5004L169.101 8.73834Z" fill="#FAFAFA"/>
</svg>
