<svg width="150" height="132" viewBox="0 0 150 132" fill="none" xmlns="http://www.w3.org/2000/svg">
<path d="M142.368 127.522H39.3755C39.0545 127.524 38.7366 127.459 38.4417 127.33C38.1468 127.201 37.8814 127.011 37.6622 126.772C37.443 126.533 37.2749 126.251 37.1683 125.942C37.0617 125.634 37.0191 125.307 37.0431 124.981L41.2848 56.4242C41.3385 55.7409 41.6397 55.1024 42.1299 54.6327C42.6201 54.163 43.2642 53.8958 43.9371 53.8829H146.924C147.245 53.8804 147.563 53.9458 147.858 54.0749C148.153 54.2039 148.418 54.3938 148.637 54.6327C148.857 54.8715 149.025 55.154 149.131 55.4624C149.238 55.7707 149.281 56.0983 149.257 56.4242L145.015 124.981C144.961 125.663 144.661 126.301 144.172 126.77C143.683 127.24 143.04 127.508 142.368 127.522Z" fill="#263238"/>
<path opacity="0.6" d="M142.368 127.522H39.3755C39.0545 127.524 38.7366 127.459 38.4417 127.33C38.1468 127.201 37.8814 127.011 37.6622 126.772C37.443 126.533 37.2749 126.251 37.1683 125.942C37.0617 125.634 37.0191 125.307 37.0431 124.981L41.2848 56.4242C41.3385 55.7409 41.6397 55.1024 42.1299 54.6327C42.6201 54.163 43.2642 53.8958 43.9371 53.8829H146.924C147.245 53.8804 147.563 53.9458 147.858 54.0749C148.153 54.2039 148.418 54.3938 148.637 54.6327C148.857 54.8715 149.025 55.154 149.131 55.4624C149.238 55.7707 149.281 56.0983 149.257 56.4242L145.015 124.981C144.961 125.663 144.661 126.301 144.172 126.77C143.683 127.24 143.04 127.508 142.368 127.522Z" fill="black"/>
<path d="M141.599 127.522H38.6121C38.2907 127.525 37.9721 127.46 37.6766 127.332C37.3811 127.203 37.115 127.013 36.8952 126.774C36.6755 126.535 36.5068 126.253 36.3999 125.944C36.2931 125.635 36.2503 125.307 36.2743 124.981L40.516 56.4243C40.5697 55.741 40.8709 55.1025 41.3611 54.6328C41.8513 54.1631 42.4954 53.8958 43.1683 53.8829H146.155C146.477 53.8797 146.795 53.9445 147.09 54.0732C147.385 54.202 147.651 54.3919 147.87 54.6309C148.09 54.8699 148.258 55.1528 148.364 55.4615C148.47 55.7702 148.513 56.0981 148.488 56.4243L144.246 124.981C144.192 125.663 143.892 126.301 143.403 126.77C142.914 127.24 142.271 127.508 141.599 127.522Z" fill="#263238"/>
<path d="M141.466 128.395H18.9203C18.3561 128.389 17.802 128.547 17.3221 128.849C16.8422 129.151 16.456 129.586 16.2082 130.102C16.1455 130.236 16.1173 130.384 16.1264 130.532C16.1356 130.681 16.1817 130.824 16.2605 130.949C16.3392 131.074 16.448 131.176 16.5765 131.247C16.7049 131.317 16.8489 131.353 16.9947 131.35H143.365C143.511 131.353 143.655 131.317 143.783 131.247C143.912 131.176 144.02 131.074 144.099 130.949C144.178 130.824 144.224 130.681 144.233 130.532C144.242 130.384 144.214 130.236 144.151 130.102C143.907 129.589 143.525 129.157 143.05 128.855C142.575 128.553 142.026 128.393 141.466 128.395Z" fill="#263238"/>
<path opacity="0.6" d="M141.468 128.395H124.04C123.48 128.393 122.931 128.552 122.456 128.854C121.981 129.156 121.599 129.588 121.355 130.102C121.293 130.235 121.264 130.383 121.273 130.531C121.282 130.679 121.328 130.822 121.406 130.946C121.484 131.071 121.592 131.174 121.72 131.245C121.848 131.315 121.991 131.352 122.136 131.35H143.366C143.512 131.353 143.656 131.317 143.784 131.247C143.913 131.176 144.022 131.074 144.1 130.949C144.179 130.824 144.225 130.68 144.234 130.532C144.244 130.384 144.215 130.236 144.153 130.102C143.908 129.589 143.526 129.157 143.051 128.855C142.576 128.553 142.028 128.393 141.468 128.395Z" fill="black"/>
<path d="M130.662 130.553H126.16C126.056 130.551 125.957 130.508 125.884 130.433C125.81 130.357 125.77 130.255 125.77 130.149C125.77 130.043 125.81 129.942 125.884 129.866C125.957 129.791 126.056 129.748 126.16 129.746H130.662C130.714 129.746 130.765 129.757 130.814 129.777C130.862 129.797 130.905 129.827 130.942 129.864C130.979 129.902 131.008 129.946 131.028 129.995C131.048 130.044 131.058 130.096 131.058 130.149C131.058 130.202 131.048 130.255 131.028 130.304C131.008 130.353 130.979 130.397 130.942 130.435C130.905 130.472 130.862 130.502 130.814 130.522C130.765 130.542 130.714 130.553 130.662 130.553Z" fill="#407BFF"/>
<path opacity="0.7" d="M72.769 130.553H68.2724C68.1674 130.553 68.0667 130.51 67.9924 130.435C67.9182 130.359 67.8765 130.256 67.8765 130.149C67.8765 130.096 67.8867 130.044 67.9066 129.995C67.9265 129.946 67.9557 129.902 67.9924 129.864C68.0292 129.827 68.0729 129.797 68.1209 129.777C68.1689 129.757 68.2204 129.746 68.2724 129.746H72.769C72.821 129.746 72.8725 129.757 72.9206 129.777C72.9686 129.797 73.0123 129.827 73.049 129.864C73.0858 129.902 73.115 129.946 73.1349 129.995C73.1548 130.044 73.165 130.096 73.165 130.149C73.165 130.256 73.1233 130.359 73.049 130.435C72.9748 130.51 72.8741 130.553 72.769 130.553Z" fill="white"/>
<path d="M135.319 129.746H132.373C132.194 129.746 132.048 129.895 132.048 130.078V130.221C132.048 130.404 132.194 130.553 132.373 130.553H135.319C135.498 130.553 135.644 130.404 135.644 130.221V130.078C135.644 129.895 135.498 129.746 135.319 129.746Z" fill="#407BFF"/>
<path d="M38.5894 122.504L42.5273 58.8976C42.5475 58.6322 42.6645 58.3842 42.8552 58.2022C43.0459 58.0203 43.2965 57.9175 43.5578 57.9142H145.254C145.379 57.9122 145.502 57.9368 145.617 57.9864C145.732 58.0359 145.835 58.1094 145.92 58.2019C146.006 58.2945 146.071 58.4042 146.112 58.524C146.153 58.6438 146.17 58.771 146.16 58.8976L142.227 122.504C142.206 122.77 142.088 123.018 141.896 123.199C141.704 123.381 141.453 123.484 141.191 123.487H39.5006C39.376 123.488 39.2525 123.463 39.1379 123.413C39.0233 123.363 38.92 123.29 38.8345 123.198C38.7489 123.105 38.683 122.996 38.6409 122.877C38.5987 122.757 38.5812 122.63 38.5894 122.504Z" fill="white"/>
<path opacity="0.1" d="M96.4504 55.9492L62.577 121.528H37.5883C37.463 121.53 37.3387 121.505 37.2233 121.455C37.1079 121.405 37.004 121.331 36.9182 121.238C36.8324 121.145 36.7667 121.035 36.7251 120.914C36.6836 120.794 36.6673 120.666 36.6771 120.539L40.615 56.9381C40.6352 56.6723 40.752 56.4236 40.9425 56.2407C41.1331 56.0579 41.3838 55.9539 41.6455 55.9492H96.4504Z" fill="#407BFF"/>
<path opacity="0.1" d="M126.11 55.9492L92.2366 121.528H84.3391L118.213 55.9492H126.11Z" fill="#407BFF"/>
<path opacity="0.1" d="M144.246 56.9385L140.308 120.539C140.289 120.805 140.172 121.055 139.982 121.238C139.791 121.421 139.539 121.525 139.277 121.528H100.766L134.64 55.9495H143.318C143.445 55.9461 143.57 55.9697 143.687 56.0188C143.804 56.0679 143.91 56.1414 143.997 56.2345C144.085 56.3277 144.152 56.4385 144.195 56.5597C144.238 56.6809 144.255 56.81 144.246 56.9385Z" fill="#407BFF"/>
<path opacity="0.4" d="M95.2599 56.0154C95.245 56.2158 95.1573 56.4034 95.0138 56.5413C94.8703 56.6793 94.6815 56.7578 94.4842 56.7613C94.39 56.7624 94.2965 56.7434 94.2099 56.7057C94.1232 56.6679 94.0452 56.6121 93.9809 56.542C93.9166 56.4718 93.8674 56.3887 93.8364 56.298C93.8053 56.2074 93.7932 56.1111 93.8008 56.0154C93.8144 55.8146 93.9018 55.6263 94.0455 55.4881C94.1892 55.3499 94.3788 55.2719 94.5764 55.2696C94.6707 55.2685 94.7641 55.2875 94.8507 55.3252C94.9374 55.363 95.0154 55.4187 95.0797 55.4889C95.144 55.5591 95.1932 55.6422 95.2242 55.7328C95.2553 55.8235 95.2674 55.9197 95.2599 56.0154Z" fill="white"/>
<path d="M78.4578 40.7641C75.4908 44.2226 73.7768 54.8245 75.9736 60.0399C78.1703 65.2552 52.6825 70.4761 73.7117 78.951C94.7409 87.4259 111.561 77.5974 105.475 68.8186C99.3893 60.0399 106.131 45.4215 99.0856 41.7475C92.7177 38.3996 84.4026 33.8306 78.4578 40.7641Z" fill="#263238"/>
<path d="M72.1657 83.4567C71.0538 87.324 69.8713 91.1913 68.6455 95.0586C67.4197 98.9259 66.145 102.749 64.7944 106.589L64.2791 108.036L64.0188 108.76L63.9374 108.975L63.8072 109.301C63.7259 109.511 63.6011 109.738 63.4926 109.953C62.9624 110.94 62.1713 111.755 61.2091 112.307C60.3356 112.79 59.3607 113.051 58.3669 113.069C56.9731 113.076 55.592 112.8 54.3042 112.257C53.2501 111.821 52.2293 111.306 51.2505 110.716C47.6942 108.488 44.4346 105.803 41.5522 102.727L43.89 99.9204C44.6765 100.434 45.5172 100.981 46.3309 101.495C47.1445 102.009 47.9961 102.506 48.8205 102.998C50.436 103.961 52.1039 104.829 53.8161 105.6C54.5963 105.95 55.4013 106.24 56.2244 106.467C56.7935 106.659 57.3953 106.731 57.9926 106.677C58.1445 106.677 58.1174 106.589 57.9926 106.638C57.8679 106.688 57.7323 106.832 57.7268 106.815C57.7214 106.799 57.7268 106.815 57.7268 106.782C57.7294 106.771 57.7294 106.76 57.7268 106.749L57.7702 106.611L57.9763 105.898L58.394 104.462L61.7081 92.8598C62.8363 88.9924 63.9971 85.1251 65.1904 81.2578L72.1657 83.4567Z" fill="#B65B52"/>
<path d="M43.7236 99.8327L37.4209 97.457L39.9214 104.241C39.9214 104.241 44.3691 104.893 46.0939 102.512L44.6891 100.595C44.4456 100.252 44.1105 99.9874 43.7236 99.8327Z" fill="#B55B52"/>
<path d="M31.8628 99.4326L34.2602 104.996L39.95 104.234L37.4441 97.4492L31.8628 99.4326Z" fill="#B55B52"/>
<path d="M67.5711 73.4546C64.6855 74.2004 62.6895 86.283 62.6895 86.283L70.6358 91.8077C70.6358 91.8077 78.2295 79.6201 76.0327 76.3937C73.7004 73.007 71.7748 72.3662 67.5711 73.4546Z" fill="#407BFF"/>
<path opacity="0.5" d="M67.5711 73.4546C64.6855 74.2004 62.6895 86.283 62.6895 86.283L70.6358 91.8077C70.6358 91.8077 78.2295 79.6201 76.0327 76.3937C73.7004 73.007 71.7748 72.3662 67.5711 73.4546Z" fill="white"/>
<path opacity="0.2" d="M67.3098 77.8477L73.4769 79.3007L74.0681 85.4497C73.0232 87.6206 71.87 89.7356 70.613 91.7865L65.791 88.4717C66.0026 85.6265 66.5233 79.7813 67.3098 77.8477Z" fill="black"/>
<path d="M67.5698 73.4495C67.5698 73.4495 64.234 74.6429 70.9111 116.443H99.3116C98.8343 104.67 98.8234 97.4047 104.345 73.2451C100.37 72.4078 96.3399 71.8668 92.2874 71.6264C87.5088 71.3888 83.6089 71.2341 79.3889 71.6264C73.8509 72.1402 67.5698 73.4495 67.5698 73.4495Z" fill="#407BFF"/>
<path opacity="0.5" d="M67.5698 73.4495C67.5698 73.4495 64.234 74.6429 70.9111 116.443H99.3116C98.8343 104.67 98.8234 97.4047 104.345 73.2451C100.37 72.4078 96.3399 71.8668 92.2874 71.6264C87.5088 71.3888 83.6089 71.2341 79.3889 71.6264C73.8509 72.1402 67.5698 73.4495 67.5698 73.4495Z" fill="white"/>
<path opacity="0.2" d="M97.6635 84.457L101.33 87.6393C100.549 91.8657 100.023 95.3739 99.703 98.5174C99.0032 95.3794 97.2566 86.8603 97.6635 84.457Z" fill="black"/>
<path d="M91.0067 56.8359C90.1931 61.0624 89.3794 68.808 92.2867 71.6312C92.2867 71.6312 89.5747 77.9625 82.3878 77.9625C75.2009 77.9625 79.3883 71.6312 79.3883 71.6312C84.015 70.5262 83.8957 67.007 83.0929 63.7253L91.0067 56.8359Z" fill="#B55B52"/>
<path d="M91.3615 70.0439C90.6781 71.4527 88.4759 74.6737 82.325 75.8228C82.154 75.8548 81.9775 75.8192 81.8314 75.7234C80.6815 74.9057 79.9655 73.1765 80.47 71.171C80.5034 71.0478 80.5023 70.9175 80.4669 70.7949C80.4314 70.6722 80.363 70.5622 80.2693 70.4771C80.1756 70.392 80.0604 70.3353 79.9368 70.3135C79.8131 70.2916 79.6859 70.3054 79.5696 70.3533C79.0971 70.5547 78.6433 70.7988 78.2136 71.0826C78.1191 71.1463 78.0425 71.2339 77.9912 71.3367C77.541 72.1986 75.7185 76.4195 81.2185 79.0216C81.3062 79.0599 81.3998 79.0823 81.4951 79.0879C84.7496 79.1542 90.4394 78.5023 94.0356 71.9058C94.0998 71.7866 94.1284 71.651 94.1178 71.5155C94.1072 71.38 94.0579 71.2506 93.9759 71.1434C93.4926 70.6045 92.931 70.1442 92.3107 69.7788C92.2326 69.7277 92.1448 69.6939 92.0531 69.6796C91.9613 69.6653 91.8676 69.6709 91.7781 69.6959C91.6886 69.7209 91.6052 69.7648 91.5335 69.8248C91.4617 69.8847 91.4031 69.9594 91.3615 70.0439Z" fill="#FAFAFA"/>
<path d="M92.8699 87.4406L85.5474 87.2251C85.4709 87.2256 85.3951 87.2096 85.3251 87.1781C85.255 87.1466 85.1923 87.1004 85.1411 87.0425C85.0899 86.9845 85.0513 86.9162 85.0278 86.842C85.0044 86.7678 84.9966 86.6894 85.005 86.6119L85.0755 85.6893C85.0967 85.5341 85.173 85.3922 85.2899 85.2904C85.4068 85.1886 85.5563 85.134 85.7101 85.1368L93.0326 85.3523C93.1097 85.3517 93.1859 85.3679 93.2564 85.3997C93.3268 85.4315 93.3898 85.4782 93.4411 85.5368C93.4925 85.5953 93.5309 85.6643 93.554 85.7392C93.5771 85.8141 93.5843 85.8931 93.575 85.971L93.5045 86.8881C93.4833 87.0433 93.407 87.1852 93.2901 87.287C93.1732 87.3888 93.0237 87.4434 92.8699 87.4406Z" fill="#FAFAFA"/>
<path opacity="0.2" d="M87.7794 59.6445L83.093 63.7163C83.2941 64.4798 83.4284 65.26 83.4944 66.0477C85.2572 65.788 87.6872 63.8102 87.8771 61.9263C87.9808 61.166 87.9477 60.3928 87.7794 59.6445Z" fill="black"/>
<path d="M96.4737 48.8357C95.1665 55.7803 94.7597 58.7471 90.8326 61.8796C84.9258 66.5977 76.8385 63.4376 76.09 56.2389C75.412 49.7584 77.663 39.4934 84.7685 37.5929C86.3256 37.1714 87.9625 37.1618 89.5243 37.5649C91.086 37.968 92.5209 38.7704 93.693 39.8963C94.8652 41.0221 95.7358 42.4341 96.2224 43.9984C96.709 45.5628 96.7955 47.2278 96.4737 48.8357Z" fill="#B55B52"/>
<path d="M92.5963 43.707C91.7501 48.055 91.5494 53.8173 95.4602 53.8173C99.3709 53.8173 102.435 47.0384 99.0617 41.7291C95.688 36.4199 93.0899 41.1435 92.5963 43.707Z" fill="#263238"/>
<path d="M99.352 44.2377C99.352 48.9669 93.5048 46.6299 90.9175 44.5913C88.3303 42.5527 88.2055 42.7737 83.4106 42.7681C78.6157 42.7626 77.6557 42.4256 76.24 40.0942C74.8243 37.7627 74.9545 36.2269 78.1439 36.7186C81.3332 37.2103 78.6537 33.8954 81.0295 32.0557C83.4052 30.216 86.2203 30.68 89.4693 34.8788C92.7183 39.0776 99.352 36.0445 99.352 44.2377Z" fill="#263238"/>
<path d="M97.6407 55.0182C98.2559 52.8808 97.6524 50.8189 96.2927 50.4129C94.933 50.0068 93.332 51.4104 92.7167 53.5478C92.1015 55.6852 92.705 57.7471 94.0647 58.1532C95.4244 58.5592 97.0254 57.1556 97.6407 55.0182Z" fill="white"/>
<path d="M86.7822 60.3614C85.5232 60.3611 84.2775 60.0998 83.1209 59.5934C83.0961 59.5832 83.0736 59.568 83.0547 59.5487C83.0358 59.5295 83.0208 59.5065 83.0107 59.4813C83.0006 59.4561 82.9956 59.4291 82.9959 59.4018C82.9962 59.3746 83.0018 59.3477 83.0124 59.3227C83.035 59.2723 83.0758 59.2327 83.1263 59.2121C83.1768 59.1916 83.2332 59.1916 83.2836 59.2122C84.3735 59.6886 85.5462 59.9375 86.7322 59.9441C87.9182 59.9508 89.0935 59.7151 90.1885 59.2509C91.2535 58.807 92.2205 58.1507 93.0328 57.3205C93.8451 56.4903 94.4861 55.503 94.9183 54.4168C96.5455 49.671 98.2052 43.7485 96.2851 40.0525C95.8989 39.3331 95.3644 38.7073 94.7184 38.2181C94.0724 37.7289 93.3301 37.3878 92.5425 37.2183C92.4902 37.204 92.4456 37.1693 92.4182 37.1218C92.3908 37.0742 92.3828 37.0176 92.3961 36.9641C92.4101 36.9109 92.4441 36.8654 92.4908 36.8375C92.5375 36.8096 92.5931 36.8015 92.6456 36.815C93.487 36.9994 94.2796 37.3663 94.9694 37.8906C95.6592 38.4149 96.2301 39.0844 96.6431 39.8536C98.6392 43.6712 96.974 49.7097 95.298 54.5438C94.8433 55.6846 94.169 56.7211 93.3147 57.5922C92.4604 58.4632 91.4436 59.1512 90.3241 59.6155C89.2021 60.0957 87.9991 60.349 86.7822 60.3614Z" fill="white"/>
<path opacity="0.6" d="M97.4388 55.0378C96.956 56.6952 95.8495 57.8609 94.9654 57.6013C94.0813 57.3416 93.7558 55.7615 94.2386 54.082C94.7213 52.4025 95.8278 51.2533 96.7119 51.5185C97.5961 51.7837 97.9215 53.3583 97.4388 55.0378Z" fill="#407BFF"/>
<path d="M83.6854 58.6833L81.5604 58.2657C81.1869 58.1923 80.8256 58.4413 80.7535 58.8217L80.7299 58.9465C80.6578 59.327 80.9022 59.695 81.2758 59.7684L83.4008 60.1859C83.7744 60.2594 84.1356 60.0104 84.2077 59.6299L84.2313 59.5052C84.3034 59.1247 84.059 58.7567 83.6854 58.6833Z" fill="white"/>
<path d="M80.91 49.4219C80.91 49.4219 79.6516 51.7478 78.4583 52.792C79.1037 53.5931 80.4056 53.4384 80.4056 53.4384L80.91 49.4219Z" fill="#A02724"/>
<path d="M82.1054 56.4106H82.1543C83.384 56.5095 84.6049 56.1305 85.5715 55.3499C85.5914 55.3292 85.6025 55.3014 85.6025 55.2725C85.6025 55.2436 85.5914 55.2158 85.5715 55.1952C85.5619 55.1853 85.5505 55.1775 85.5379 55.1722C85.5254 55.1668 85.5119 55.1641 85.4983 55.1641C85.4847 55.1641 85.4712 55.1668 85.4586 55.1722C85.446 55.1775 85.4346 55.1853 85.425 55.1952C84.5021 55.9341 83.3412 56.2947 82.1705 56.2062C82.1566 56.2039 82.1423 56.2045 82.1286 56.208C82.1149 56.2115 82.102 56.2179 82.0908 56.2267C82.0796 56.2355 82.0703 56.2466 82.0635 56.2592C82.0567 56.2719 82.0525 56.2858 82.0512 56.3001C82.0484 56.3219 82.0521 56.3441 82.0617 56.3638C82.0714 56.3835 82.0866 56.3998 82.1054 56.4106Z" fill="#263238"/>
<path d="M88.309 46.6916C88.3397 46.709 88.3742 46.7181 88.4094 46.7181C88.4445 46.7181 88.479 46.709 88.5097 46.6916C88.5562 46.6599 88.5889 46.6113 88.601 46.5557C88.6132 46.5001 88.6038 46.4419 88.5748 46.3932C88.3154 45.9508 87.9562 45.5777 87.527 45.3048C87.0979 45.032 86.611 44.8672 86.1069 44.8242C86.0503 44.8242 85.9959 44.8467 85.9553 44.887C85.9148 44.9272 85.8913 44.982 85.8899 45.0397C85.8899 45.0959 85.9114 45.1499 85.9499 45.1901C85.9884 45.2304 86.0409 45.2537 86.096 45.2551C86.5304 45.2973 86.949 45.4434 87.3175 45.6815C87.686 45.9196 87.9942 46.2429 88.2168 46.6253C88.2411 46.6555 88.2729 46.6784 88.309 46.6916Z" fill="#263238"/>
<path d="M85.2068 49.5227C85.1146 50.0751 84.7403 50.5005 84.3715 50.4398C84.0027 50.379 83.7911 49.8873 83.8834 49.2906C83.9756 48.694 84.3552 48.3128 84.7186 48.3735C85.0821 48.4343 85.3044 48.9536 85.2068 49.5227Z" fill="#263238"/>
<path d="M78.8755 48.4296C78.7833 48.9821 78.409 49.4075 78.0402 49.3467C77.6714 49.2859 77.4598 48.7666 77.5521 48.1975C77.6443 47.6285 78.0239 47.2141 78.3873 47.2804C78.7508 47.3467 78.9731 47.855 78.8755 48.4296Z" fill="#263238"/>
<path d="M78.5455 47.3291L77.2654 46.6992C77.2654 46.6992 77.7752 47.8871 78.5455 47.3291Z" fill="#263238"/>
<path d="M84.8725 48.429L83.5923 47.8047C83.5923 47.8047 84.1022 48.9925 84.8725 48.429Z" fill="#263238"/>
<path d="M76.7342 44.576C76.767 44.5959 76.8045 44.6065 76.8427 44.6065C76.8809 44.6065 76.9184 44.5959 76.9512 44.576C77.2858 44.2894 77.6836 44.0896 78.1105 43.9934C78.5374 43.8972 78.9808 43.9075 79.4029 44.0235C79.4561 44.0426 79.5146 44.0393 79.5654 44.0144C79.6163 43.9896 79.6554 43.9451 79.6741 43.8909C79.6928 43.8367 79.6896 43.7772 79.6652 43.7254C79.6407 43.6736 79.5971 43.6338 79.5439 43.6147C79.0571 43.4735 78.5441 43.454 78.0483 43.5579C77.5526 43.6618 77.0888 43.8859 76.6962 44.2114C76.6736 44.2277 76.6545 44.2486 76.6401 44.2728C76.6258 44.297 76.6166 44.324 76.613 44.352C76.6094 44.3801 76.6116 44.4086 76.6194 44.4357C76.6272 44.4628 76.6404 44.488 76.6583 44.5097C76.6764 44.5391 76.7029 44.5622 76.7342 44.576Z" fill="#263238"/>
<path d="M69.8304 123.489C69.8304 123.489 69.7544 119.534 70.9152 116.445H99.3103C99.3103 116.445 101.865 120.644 102.527 123.489H69.8304Z" fill="#407BFF"/>
<path d="M99.7354 114.751L99.9578 117.337C100.061 117.541 99.8276 117.746 99.4968 117.746H70.7492C70.4943 117.746 70.2827 117.619 70.2665 117.453L70.0061 114.862C70.0061 114.685 70.2122 114.53 70.4943 114.53H99.2418C99.3359 114.52 99.4309 114.535 99.5175 114.574C99.6041 114.613 99.6792 114.674 99.7354 114.751Z" fill="#407BFF"/>
<path opacity="0.3" d="M99.7354 114.751L99.9578 117.337C100.061 117.541 99.8276 117.746 99.4968 117.746H70.7492C70.4943 117.746 70.2827 117.619 70.2665 117.453L70.0061 114.862C70.0061 114.685 70.2122 114.53 70.4943 114.53H99.2418C99.3359 114.52 99.4309 114.535 99.5175 114.574C99.6041 114.613 99.6792 114.674 99.7354 114.751Z" fill="#FAFAFA"/>
<path d="M95.8682 118.007H96.6384C96.7957 118.007 96.9096 117.93 96.8988 117.83L96.5408 114.466C96.5408 114.366 96.3943 114.289 96.2425 114.289H95.4559C95.2986 114.289 95.1847 114.366 95.1955 114.466L95.5535 117.83C95.5807 117.93 95.7163 118.007 95.8682 118.007Z" fill="#407BFF"/>
<path d="M72.9308 118.007H73.701C73.8529 118.007 73.9722 117.93 73.9613 117.83L73.5979 114.466C73.5979 114.366 73.4569 114.289 73.2996 114.289H72.5294C72.3775 114.289 72.2581 114.366 72.269 114.466L72.6324 117.83C72.6433 117.93 72.7789 118.007 72.9308 118.007Z" fill="#407BFF"/>
<path d="M84.4046 118.007H85.1531C85.305 118.007 85.4243 117.93 85.4135 117.83L85.0501 114.466C85.0501 114.366 84.9036 114.289 84.7517 114.289H83.9815C83.8296 114.289 83.7103 114.366 83.7211 114.466L84.0846 117.83C84.1171 117.93 84.2473 118.007 84.4046 118.007Z" fill="#407BFF"/>
<path d="M106.775 81.4336C108.022 85.5587 109.221 89.7059 110.371 93.8753L112.101 100.096L112.964 103.19L113.181 103.952L113.289 104.334L113.316 104.422L113.229 104.284C113.092 104.084 112.924 103.908 112.73 103.765C112.306 103.45 111.801 103.268 111.277 103.24C110.881 103.22 110.486 103.3 110.127 103.472C109.736 103.687 109.774 103.737 109.807 103.698C109.899 103.617 109.982 103.526 110.056 103.427C110.312 103.102 110.547 102.761 110.761 102.405C111.239 101.61 111.711 100.715 112.155 99.7978C113.077 97.9635 113.907 96.0188 114.748 94.0631C115.589 92.1073 116.375 90.1295 117.189 88.1351C118.003 86.1407 118.778 84.1352 119.581 82.1573L123.047 83.207C122.147 87.5163 121.094 91.7482 119.792 95.9636C119.152 98.0796 118.442 100.173 117.623 102.295C117.2 103.356 116.75 104.416 116.191 105.516C115.893 106.111 115.56 106.686 115.193 107.24C114.965 107.587 114.711 107.915 114.434 108.223C113.993 108.732 113.459 109.147 112.861 109.444C112.263 109.74 111.604 109.88 110.94 109.853C110.154 109.808 109.398 109.525 108.771 109.041C108.371 108.733 108.024 108.36 107.746 107.936C107.569 107.663 107.415 107.377 107.285 107.079C107.236 106.958 107.182 106.831 107.144 106.72L107.04 106.45L106.899 106.057L106.617 105.278C106.249 104.245 105.874 103.212 105.533 102.179C104.838 100.113 104.144 98.0519 103.493 95.9802C102.162 91.8403 100.922 87.6802 99.7722 83.4998L106.775 81.4336Z" fill="#B65B52"/>
<path d="M104.341 73.2453C107.189 74.1238 111.544 85.4992 111.544 85.4992L100.506 93.5377C100.506 93.5377 95.5432 83.8142 96.7365 80.0684C97.984 76.1679 101.097 72.2398 104.341 73.2453Z" fill="#407BFF"/>
<path opacity="0.5" d="M104.341 73.2453C107.189 74.1238 111.544 85.4992 111.544 85.4992L100.506 93.5377C100.506 93.5377 95.5432 83.8142 96.7365 80.0684C97.984 76.1679 101.097 72.2398 104.341 73.2453Z" fill="white"/>
<path d="M119.71 83.6704L118.197 76.875L124.488 80.2561C124.488 80.2561 124.564 84.8306 122.026 86.2726L119.71 83.6704Z" fill="#B55B52"/>
<path d="M120.833 71.4844L124.846 74.3848L124.488 80.2576L118.197 76.8765L120.833 71.4844Z" fill="#B55B52"/>
<path d="M8.13621 37.2737H52.0713C52.9101 37.2653 53.7416 37.4343 54.513 37.7699C55.2845 38.1055 55.9792 38.6005 56.5532 39.2236C57.1272 39.8467 57.5681 40.5843 57.8479 41.3899C58.1277 42.1954 58.2404 43.0513 58.1788 43.9034L56.9529 64.1571C56.8181 65.9401 56.0352 67.6077 54.7572 68.8338C53.4792 70.0599 51.7981 70.7563 50.0427 70.7868H44.9549L47.0323 77.7424L37.0954 70.7868H6.12387C5.28503 70.7952 4.4536 70.6263 3.68214 70.2906C2.91068 69.955 2.21598 69.46 1.64196 68.8369C1.06794 68.2138 0.627089 67.4762 0.347279 66.6707C0.0674682 65.8651 -0.0452136 65.0093 0.0163553 64.1571L1.23135 43.9034C1.36605 42.1214 2.14825 40.4545 3.42511 39.2286C4.70197 38.0026 6.38174 37.3056 8.13621 37.2737Z" fill="#407BFF"/>
<path d="M48.0478 47.8926H10.8929C10.7351 47.8918 10.5793 47.8575 10.4352 47.7921C10.2911 47.7267 10.162 47.6315 10.0559 47.5125C9.94983 47.3936 9.86918 47.2535 9.81905 47.1012C9.76892 46.9488 9.75041 46.7875 9.76468 46.6275C9.78898 46.2922 9.93541 45.9783 10.1752 45.7473C10.4151 45.5163 10.731 45.3849 11.061 45.3789H48.2214C48.3783 45.3793 48.5335 45.4125 48.6773 45.4765C48.8211 45.5405 48.9505 45.634 49.0573 45.7511C49.1641 45.8682 49.2462 46.0064 49.2983 46.1572C49.3505 46.308 49.3716 46.468 49.3605 46.6275C49.3411 46.969 49.1945 47.2901 48.9505 47.5253C48.7066 47.7604 48.3837 47.8918 48.0478 47.8926Z" fill="white"/>
<path d="M26.0333 55.2785H10.4445C10.2867 55.2797 10.1303 55.2476 9.98524 55.1842C9.84016 55.1209 9.70951 55.0276 9.60152 54.9104C9.49352 54.7931 9.41051 54.6543 9.3577 54.5028C9.30489 54.3513 9.28342 54.1903 9.29465 54.0299C9.31903 53.6937 9.46623 53.379 9.70721 53.1478C9.94819 52.9167 10.2654 52.7859 10.5964 52.7813H26.2015C26.3598 52.7794 26.5167 52.8109 26.6625 52.8739C26.8082 52.937 26.9395 53.0301 27.0481 53.1474C27.1566 53.2648 27.2402 53.4038 27.2933 53.5557C27.3464 53.7076 27.368 53.8691 27.3568 54.0299C27.3308 54.3695 27.1802 54.6866 26.9349 54.918C26.6896 55.1494 26.3677 55.2782 26.0333 55.2785Z" fill="white"/>
<path d="M39.3913 62.6848H9.99826C9.84041 62.6859 9.68403 62.6538 9.53895 62.5905C9.39387 62.5271 9.26322 62.4339 9.15523 62.3166C9.04723 62.1993 8.96422 62.0606 8.91141 61.9091C8.8586 61.7576 8.83713 61.5965 8.84836 61.4362C8.87152 61.0995 9.01835 60.784 9.25959 60.5527C9.50083 60.3213 9.81879 60.1909 10.1501 60.1876H39.5432C39.7013 60.1856 39.858 60.2171 40.0035 60.2802C40.149 60.3433 40.2799 60.4365 40.3881 60.5539C40.4963 60.6714 40.5792 60.8105 40.6318 60.9624C40.6843 61.1143 40.7051 61.2756 40.6931 61.4362C40.6687 61.7724 40.5215 62.0871 40.2805 62.3183C40.0395 62.5494 39.7223 62.6802 39.3913 62.6848Z" fill="white"/>
<path d="M37.484 55.2785H31.3386C31.1807 55.2797 31.0244 55.2476 30.8793 55.1842C30.7342 55.1209 30.6036 55.0276 30.4956 54.9104C30.3876 54.7931 30.3045 54.6543 30.2517 54.5028C30.1989 54.3513 30.1775 54.1903 30.1887 54.0299C30.2143 53.6942 30.3619 53.3802 30.6026 53.1493C30.8433 52.9184 31.1599 52.7872 31.4905 52.7813H37.6305C37.7886 52.7793 37.9453 52.8109 38.0908 52.8739C38.2363 52.937 38.3672 53.0302 38.4754 53.1477C38.5836 53.2651 38.6665 53.4042 38.7191 53.5561C38.7716 53.708 38.7924 53.8694 38.7804 54.0299C38.7561 54.3652 38.6097 54.6792 38.3698 54.9102C38.13 55.1412 37.8141 55.2725 37.484 55.2785Z" fill="white"/>
<path d="M69.3132 0.867401H45.3605C43.9946 0.888283 42.6857 1.42871 41.6911 2.38251C40.6964 3.3363 40.088 4.63448 39.9852 6.02196L39.0523 21.7895C39.0058 22.4525 39.0947 23.118 39.3132 23.7442C39.5318 24.3705 39.8754 24.9438 40.3223 25.428C40.7692 25.9123 41.3098 26.297 41.9099 26.558C42.51 26.8189 43.1567 26.9503 43.8092 26.9441H47.7308L45.4635 32.3583L53.8492 26.9441H67.7457C69.1116 26.9232 70.4205 26.3828 71.4151 25.429C72.4097 24.4752 73.0182 23.177 73.1209 21.7895L74.0701 6.02196C74.1166 5.35903 74.0278 4.69348 73.8092 4.06725C73.5906 3.44103 73.247 2.86772 72.8001 2.38345C72.3532 1.89918 71.8127 1.51446 71.2125 1.25353C70.6124 0.992605 69.9657 0.861135 69.3132 0.867401Z" fill="#407BFF"/>
<g opacity="0.5">
<path opacity="0.5" d="M69.3169 0.867401H45.3642C43.9982 0.888283 42.6894 1.42871 41.6947 2.38251C40.7001 3.3363 40.0916 4.63448 39.9889 6.02196L39.0559 21.7895C39.0095 22.4525 39.0983 23.118 39.3169 23.7442C39.5355 24.3705 39.8791 24.9438 40.326 25.428C40.7729 25.9123 41.3134 26.297 41.9136 26.558C42.5137 26.8189 43.1604 26.9503 43.8129 26.9441H47.7345L45.4672 32.3583L53.8528 26.9441H67.7493C69.1152 26.9232 70.4241 26.3828 71.4188 25.429C72.4134 24.4752 73.0219 23.177 73.1246 21.7895L74.0738 6.02196C74.1203 5.35903 74.0314 4.69348 73.8128 4.06725C73.5943 3.44103 73.2507 2.86772 72.8038 2.38345C72.3569 1.89918 71.8163 1.51446 71.2162 1.25353C70.6161 0.992605 69.9694 0.861135 69.3169 0.867401Z" fill="#FAFAFA"/>
</g>
<path d="M57.7678 16.4785C57.6853 16.8258 57.4908 17.1348 57.2155 17.3561C56.9401 17.5775 56.5999 17.6984 56.2491 17.6995H54.8334C54.8334 17.2906 54.866 17.042 54.8714 16.9536C54.8919 16.1573 55.0923 15.3765 55.4572 14.6719C55.9697 13.8865 56.6207 13.2046 57.3773 12.6609C57.9807 12.2156 58.55 11.7243 59.0805 11.1914C59.3619 10.8522 59.5292 10.4301 59.5578 9.98699C59.5791 9.69341 59.5339 9.39877 59.4258 9.12578C59.3176 8.85279 59.1494 8.60874 58.934 8.41245C58.4078 7.95329 57.7273 7.71964 57.0356 7.76053C56.3082 7.74032 55.5972 7.983 55.0287 8.4456C54.6908 8.72952 54.4139 9.08117 54.2151 9.47872C54.0686 9.76912 53.8411 10.009 53.5613 10.1682C53.2814 10.3274 52.9617 10.3989 52.6421 10.3737C52.4121 10.3447 52.193 10.2571 52.0051 10.119C51.8172 9.98092 51.6666 9.79677 51.5671 9.58362C51.4676 9.37047 51.4225 9.13521 51.4359 8.89959C51.4494 8.66397 51.521 8.43562 51.644 8.23566C51.9713 7.67618 52.3916 7.17892 52.8862 6.76608C54.0616 5.80363 55.5394 5.30712 57.0464 5.36834C58.8201 5.36834 60.1978 5.83794 61.1904 6.78266C61.6551 7.1896 62.0209 7.70069 62.259 8.27584C62.4971 8.85098 62.601 9.47452 62.5627 10.0975C62.5129 10.8056 62.2727 11.486 61.8685 12.0643C61.1066 13.0198 60.2259 13.8704 59.2486 14.5946C58.7423 14.9547 58.3048 15.4059 57.9577 15.926C57.8695 16.1003 57.8056 16.2863 57.7678 16.4785ZM54.6707 20.4453V20.2685C54.6992 19.8692 54.874 19.4955 55.1603 19.2212C55.4466 18.947 55.8236 18.7923 56.2166 18.7878H56.4118C56.5998 18.785 56.7863 18.8221 56.9594 18.8966C57.1326 18.9711 57.2886 19.0815 57.4177 19.2207C57.5467 19.36 57.6459 19.525 57.709 19.7054C57.7721 19.8857 57.7977 20.0775 57.7841 20.2685V20.4453C57.7557 20.845 57.5811 21.2194 57.2949 21.4945C57.0088 21.7697 56.6317 21.9255 56.2382 21.9314H56.0647C55.8744 21.9374 55.6851 21.9025 55.5089 21.8291C55.3327 21.7556 55.1738 21.6452 55.0423 21.505C54.9108 21.3648 54.8097 21.198 54.7457 21.0154C54.6817 20.8328 54.6561 20.6386 54.6707 20.4453Z" fill="white"/>
</svg>
