<svg width="392" height="221" viewBox="0 0 392 221" fill="none" xmlns="http://www.w3.org/2000/svg">
<path d="M344.713 194.609H28.5312V194.757H344.713V194.609Z" fill="#EBEBEB"/>
<path d="M82.6509 200.234H61.707V200.382H82.6509V200.234Z" fill="#EBEBEB"/>
<path d="M171.799 198.633H136.754V198.781H171.799V198.633Z" fill="#EBEBEB"/>
<path d="M98.2093 203.75H86.0742V203.898H98.2093V203.75Z" fill="#EBEBEB"/>
<path d="M299.593 200.164H272.281V200.312H299.593V200.164Z" fill="#EBEBEB"/>
<path d="M309.229 200.164H305.227V200.312H309.229V200.164Z" fill="#EBEBEB"/>
<path d="M233.448 202.242H203.828V202.39H233.448V202.242Z" fill="#EBEBEB"/>
<path d="M178.403 168.224H56.2998C55.3432 168.223 54.4264 167.866 53.7507 167.233C53.0749 166.6 52.6953 165.742 52.6953 164.847V4.30857C52.7036 3.41904 53.0869 2.5685 53.7618 1.9417C54.4366 1.3149 55.3487 0.962461 56.2998 0.960938H178.403C179.36 0.960938 180.279 1.31675 180.956 1.9501C181.633 2.58345 182.014 3.44245 182.014 4.33815V164.847C182.014 165.743 181.633 166.602 180.956 167.235C180.279 167.869 179.36 168.224 178.403 168.224ZM56.2998 1.07923C55.3852 1.0808 54.5086 1.42172 53.8624 2.02717C53.2163 2.63262 52.8534 3.45312 52.8534 4.30857V164.847C52.8534 165.703 53.2163 166.523 53.8624 167.129C54.5086 167.734 55.3852 168.075 56.2998 168.077H178.403C179.318 168.075 180.195 167.734 180.842 167.129C181.49 166.524 181.854 165.703 181.856 164.847V4.30857C181.854 3.45258 181.49 2.63209 180.842 2.02681C180.195 1.42153 179.318 1.08079 178.403 1.07923H56.2998Z" fill="#EBEBEB"/>
<path d="M315.189 168.224H193.08C192.122 168.223 191.205 167.867 190.528 167.234C189.851 166.601 189.47 165.742 189.469 164.847V4.30857C189.479 3.4185 189.863 2.56797 190.539 1.94133C191.215 1.31469 192.128 0.962445 193.08 0.960938H315.189C316.139 0.964016 317.049 1.31714 317.723 1.94377C318.396 2.57041 318.779 3.42006 318.787 4.30857V164.847C318.787 165.741 318.408 166.598 317.734 167.231C317.06 167.864 316.144 168.221 315.189 168.224ZM193.08 1.07923C192.164 1.08079 191.287 1.42153 190.64 2.02681C189.993 2.63209 189.629 3.45258 189.627 4.30857V164.847C189.629 165.703 189.993 166.524 190.64 167.129C191.287 167.734 192.164 168.075 193.08 168.077H315.189C316.104 168.075 316.981 167.734 317.628 167.129C318.276 166.524 318.64 165.703 318.642 164.847V4.30857C318.64 3.45258 318.276 2.63209 317.628 2.02681C316.981 1.42153 316.104 1.08079 315.189 1.07923H193.08Z" fill="#EBEBEB"/>
<path d="M303.565 115.625H290.918V194.673H303.565V115.625Z" fill="#E6E6E6"/>
<path d="M300.238 194.663H303.564V183.898H296.754L300.238 194.663Z" fill="#F0F0F0"/>
<path d="M186.975 115.625H174.328V194.673H186.975V115.625Z" fill="#E6E6E6"/>
<path d="M303.558 115.625H184.066V188.066H303.558V115.625Z" fill="#F0F0F0"/>
<path d="M301.296 138.997H186.332V118.539H301.296V138.997ZM186.964 138.406H300.663V119.131H186.964V138.406Z" fill="#E6E6E6"/>
<path d="M281.058 125.005H208.804C205.56 125.005 202.48 122.55 200.223 118.227H289.632C287.4 122.55 284.302 125.005 281.058 125.005Z" fill="#E6E6E6"/>
<path d="M187.393 194.663H184.066V183.898H190.877L187.393 194.663Z" fill="#F0F0F0"/>
<path d="M301.296 162.068H186.332V141.609H301.296V162.068ZM186.964 161.476H300.663V142.201H186.964V161.476Z" fill="#E6E6E6"/>
<path d="M281.058 148.091H208.804C205.56 148.091 202.48 145.636 200.223 141.312H289.632C287.4 145.636 284.302 148.091 281.058 148.091Z" fill="#E6E6E6"/>
<path d="M301.296 185.146H186.332V164.688H301.296V185.146ZM186.964 184.554H300.663V165.279H186.964V184.554Z" fill="#E6E6E6"/>
<path d="M281.058 171.161H208.804C205.56 171.161 202.48 168.712 200.223 164.383H289.632C287.4 168.712 284.302 171.161 281.058 171.161Z" fill="#E6E6E6"/>
<path d="M206.297 13.2526V102.367H291.666V13.2526H206.297Z" fill="#EBEBEB"/>
<path d="M205.523 13.2527V102.367H206.295V13.2527H205.523Z" fill="#E0E0E0"/>
<path d="M285.343 19.1797H212.621V96.4651H285.343V19.1797Z" fill="#F5F5F5"/>
<path d="M239.123 16.9922H218.641V43.8028H239.123V16.9922Z" fill="white"/>
<path d="M263.617 17H243.141L241.668 43.8107H262.144L263.617 17Z" fill="white"/>
<path d="M238.768 47.7344H218.286L216.812 74.5509H237.295L238.768 47.7344Z" fill="white"/>
<path d="M287.546 17.4325L267.09 16.5938L265.834 43.3787L286.291 44.2174L287.546 17.4325Z" fill="white"/>
<path d="M265.694 53.328L245.227 53.8828L246.057 80.6822L266.524 80.1274L265.694 53.328Z" fill="white"/>
<path d="M64.0223 20.7439H162.589C163.12 20.7439 163.63 20.5464 164.006 20.1948C164.382 19.8432 164.593 19.3663 164.593 18.869C164.593 18.6231 164.541 18.3795 164.441 18.1524C164.34 17.9253 164.192 17.719 164.006 17.5453C163.82 17.3717 163.599 17.2342 163.355 17.1406C163.112 17.047 162.852 16.9992 162.589 17H64.0223C63.4956 17.0047 62.9922 17.2037 62.6215 17.5537C62.2509 17.9037 62.0429 18.3764 62.043 18.869C62.0429 19.3622 62.2506 19.8355 62.6211 20.1865C62.9916 20.5374 63.495 20.7377 64.0223 20.7439Z" fill="#E0E0E0"/>
<path d="M64.0223 28.6873H162.589C163.12 28.6873 163.63 28.4898 164.006 28.1382C164.382 27.7866 164.593 27.3097 164.593 26.8124C164.593 26.3152 164.382 25.8383 164.006 25.4866C163.63 25.135 163.12 24.9375 162.589 24.9375H64.0223C63.495 24.9437 62.9916 25.144 62.6211 25.4949C62.2506 25.8459 62.0429 26.3192 62.043 26.8124C62.0429 27.3056 62.2506 27.7789 62.6211 28.1299C62.9916 28.4808 63.495 28.6811 64.0223 28.6873Z" fill="#E0E0E0"/>
<path d="M162.597 32.875H64.0241C62.917 32.875 62.0195 33.7131 62.0195 34.747C62.0195 35.7808 62.917 36.6189 64.0241 36.6189H162.597C163.704 36.6189 164.602 35.7808 164.602 34.747C164.602 33.7131 163.704 32.875 162.597 32.875Z" fill="#E0E0E0"/>
<path d="M72.1062 20.7439H170.685C170.95 20.7471 171.213 20.7008 171.459 20.608C171.705 20.5151 171.929 20.3774 172.117 20.2029C172.305 20.0284 172.455 19.8206 172.556 19.5916C172.658 19.3626 172.71 19.117 172.709 18.869C172.71 18.6234 172.659 18.38 172.558 18.1529C172.458 17.9257 172.311 17.7194 172.125 17.5457C171.94 17.372 171.719 17.2343 171.476 17.1407C171.233 17.047 170.973 16.9992 170.711 17H72.1062C71.8432 16.9992 71.5827 17.047 71.3395 17.1406C71.0963 17.2342 70.8753 17.3717 70.6891 17.5453C70.5029 17.719 70.3551 17.9253 70.2543 18.1524C70.1535 18.3795 70.1016 18.6231 70.1016 18.869C70.1016 19.3663 70.3128 19.8432 70.6887 20.1948C71.0646 20.5464 71.5745 20.7439 72.1062 20.7439Z" fill="#F5F5F5"/>
<path d="M72.1062 28.6873H170.685C170.95 28.6905 171.213 28.6442 171.459 28.5514C171.705 28.4585 171.929 28.3208 172.117 28.1463C172.305 27.9718 172.455 27.764 172.556 27.535C172.658 27.306 172.71 27.0604 172.709 26.8124C172.71 26.5665 172.659 26.3228 172.559 26.0954C172.458 25.8679 172.311 25.6612 172.126 25.487C171.94 25.3128 171.72 25.1746 171.477 25.0803C171.234 24.986 170.974 24.9375 170.711 24.9375H72.1062C71.5745 24.9375 71.0646 25.135 70.6887 25.4866C70.3128 25.8383 70.1016 26.3152 70.1016 26.8124C70.1016 27.3097 70.3128 27.7866 70.6887 28.1382C71.0646 28.4898 71.5745 28.6873 72.1062 28.6873Z" fill="#F5F5F5"/>
<path d="M170.679 32.875H72.1062C70.9991 32.875 70.1016 33.7131 70.1016 34.747C70.1016 35.7808 70.9991 36.6189 72.1062 36.6189H170.679C171.786 36.6189 172.684 35.7808 172.684 34.747C172.684 33.7131 171.786 32.875 170.679 32.875Z" fill="#F5F5F5"/>
<path d="M196 221C304.248 221 392 217.194 392 212.5C392 207.806 304.248 204 196 204C87.7522 204 0 207.806 0 212.5C0 217.194 87.7522 221 196 221Z" fill="#F5F5F5"/>
<path d="M194.093 47.9218C190.45 51.5238 184.993 60.8747 189.179 64.1573C190.638 64.7451 192.206 65.0566 193.794 65.0738C195.382 65.0911 196.958 64.8137 198.431 64.2578L197.451 50.7549C197.451 50.7549 196.938 45.556 194.093 47.9218Z" fill="#263238"/>
<path d="M191.195 78.8706C190.699 80.7192 190.104 82.5433 189.412 84.3357C188.729 86.11 187.945 87.8548 187.085 89.576C186.228 91.3162 185.245 92.9998 184.144 94.6152C183.588 95.4314 182.987 96.2298 182.354 97.0165C182.038 97.4068 181.722 97.7972 181.368 98.1994C181.197 98.3886 181.014 98.572 180.837 98.7613L180.571 99.0452C180.395 99.2256 180.205 99.3936 180.002 99.5479C179.539 99.8915 179.005 100.141 178.434 100.281C177.913 100.403 177.374 100.437 176.84 100.382C176.059 100.293 175.303 100.064 174.614 99.7076C173.593 99.1745 172.647 98.5227 171.8 97.7676C170.303 96.4439 168.923 95.0099 167.671 93.4796C165.258 90.5301 162.776 87.4877 160.844 84.243L163.453 82.7742C164.629 84.1642 165.837 85.5837 167.07 86.9499C168.303 88.3162 169.543 89.6765 170.864 90.9541C172.093 92.2243 173.418 93.4103 174.829 94.5028C175.425 94.9694 176.079 95.3666 176.777 95.6857C176.946 95.7662 177.131 95.8125 177.321 95.8217C177.321 95.8217 177.283 95.8217 177.175 95.8217C177.072 95.8436 176.974 95.8816 176.885 95.9341C176.875 95.9474 176.862 95.9577 176.847 95.9637L177.049 95.7212C177.188 95.5615 177.327 95.4077 177.46 95.2421C177.726 94.9109 177.985 94.5797 178.238 94.2307C178.737 93.5446 179.218 92.8349 179.667 92.0897C180.565 90.6169 181.368 89.0614 182.127 87.4822C182.886 85.903 183.543 84.2647 184.163 82.6145C184.783 80.9644 185.352 79.2551 185.826 77.6641L191.195 78.8706Z" fill="#FF8B7B"/>
<path d="M195.156 80.1889C194.568 81.7325 192.57 84.5006 191.001 86.547C189.857 88.0256 188.946 89.1257 188.946 89.1257L188.042 88.5343L180.555 83.7731C181.965 79.7689 183.837 75.4927 189.06 74.3098C192.348 73.5764 196.206 77.4327 195.156 80.1889Z" fill="#407BFF"/>
<g opacity="0.5">
<path opacity="0.5" d="M195.156 80.1889C194.568 81.7325 192.57 84.5006 191.001 86.547C189.857 88.0256 188.946 89.1257 188.946 89.1257L188.042 88.5343L180.555 83.7731C181.965 79.7689 183.837 75.4927 189.06 74.3098C192.348 73.5764 196.206 77.4327 195.156 80.1889Z" fill="white"/>
</g>
<path opacity="0.3" d="M191.002 86.5505C189.858 88.0291 188.947 89.1292 188.947 89.1292L188.043 88.5377C188.492 86.9408 189.308 84.439 190.497 83.4453C190.899 84.4349 191.072 85.4935 191.002 86.5505Z" fill="black"/>
<path d="M163.452 82.8348L163.358 79.125L158.273 80.1371C158.273 80.1371 159.816 82.7077 160.844 84.25L163.452 82.8348Z" fill="#FF8B7B"/>
<path d="M209.199 209.711L203.868 210.196L200.32 198.503L205.651 198.023L209.199 209.711Z" fill="#FF8B7B"/>
<path d="M247.67 198.459L242.731 200.582L235.883 190.569L240.822 188.445L247.67 198.459Z" fill="#FF8B7B"/>
<path d="M241.261 199.042L246.7 196.398C246.793 196.352 246.9 196.34 247.003 196.363C247.105 196.386 247.195 196.442 247.256 196.522L250.108 200.225C250.176 200.321 250.221 200.429 250.242 200.543C250.262 200.657 250.256 200.773 250.225 200.884C250.194 200.996 250.139 201.1 250.062 201.19C249.985 201.28 249.889 201.354 249.779 201.407C247.882 202.295 246.908 202.638 244.524 203.773C243.064 204.489 239.933 206.275 237.91 207.257C235.886 208.239 234.748 206.429 235.481 205.849C238.839 203.247 239.908 201.307 240.629 199.686C240.759 199.413 240.981 199.186 241.261 199.042Z" fill="#263238"/>
<path d="M202.913 208.666H209.389C209.504 208.668 209.616 208.704 209.707 208.77C209.799 208.836 209.864 208.929 209.895 209.033L211.299 213.806C211.333 213.918 211.339 214.037 211.316 214.152C211.293 214.267 211.241 214.375 211.164 214.468C211.088 214.561 210.989 214.635 210.877 214.686C210.764 214.736 210.64 214.761 210.514 214.758C208.238 214.758 207.163 214.758 204.324 214.758H195.629C193.276 214.758 192.783 212.528 193.731 212.327C198.101 211.422 200.624 210.174 201.952 208.986C202.081 208.875 202.233 208.79 202.398 208.735C202.563 208.68 202.739 208.657 202.913 208.666Z" fill="#263238"/>
<path opacity="0.2" d="M200.32 198.503L202.154 204.529H207.63L205.657 198.023L200.32 198.503Z" fill="black"/>
<path opacity="0.2" d="M240.828 188.445L235.883 190.569L239.418 195.732L244.356 193.609L240.828 188.445Z" fill="black"/>
<path d="M216.41 102.193L194.511 104.813C185.304 75.8316 187.618 74.7788 187.618 74.7788C187.618 74.7788 191.273 73.5959 195.004 72.6851C195.567 72.5491 196.136 72.4189 196.693 72.3006C199.975 71.688 203.299 71.2927 206.64 71.1177L208.113 71.029C210.776 70.9197 213.443 70.9592 216.1 71.1473C215.695 74.8794 215.404 78.0378 215.221 80.7999C214.974 84.3959 214.899 87.3059 214.955 89.8255C215.089 93.9774 215.575 98.1129 216.41 102.193Z" fill="#407BFF"/>
<g opacity="0.5">
<path opacity="0.5" d="M216.402 102.185L194.503 104.805C185.296 75.8238 187.611 74.771 187.611 74.771C187.611 74.771 191.266 73.5881 194.997 72.6773C195.559 72.5413 196.129 72.4111 196.685 72.2928C199.967 71.6802 203.291 71.2849 206.632 71.1099L208.106 71.0212C210.768 70.9118 213.435 70.9513 216.092 71.1395C215.688 74.8716 215.397 78.03 215.213 80.792C214.967 84.3881 214.891 87.298 214.948 89.8176C215.081 93.9696 215.568 98.1051 216.402 102.185Z" fill="white"/>
</g>
<path opacity="0.3" d="M214.954 89.8096C213.474 86.8523 212.753 80.3995 213.689 78.1875L215.219 80.784C214.973 84.3682 214.897 87.2782 214.954 89.8096Z" fill="black"/>
<path d="M204.231 64.9141C204.433 67.4455 205.072 70.0243 206.64 71.1066C204.185 71.7937 201.906 72.943 199.943 74.4838C197.256 73.159 196.699 72.3014 196.699 72.3014C200.158 71.0771 199.918 68.8532 198.451 65.2808L201.151 63.9204C201.384 63.6796 201.687 63.5081 202.023 63.4272C202.36 63.3463 202.714 63.3597 203.042 63.4655C203.37 63.5714 203.658 63.7652 203.869 64.0227C204.08 64.2803 204.206 64.5902 204.231 64.9141Z" fill="#FF8B7B"/>
<path d="M197.371 70.2725C196.416 69.8644 194.626 72.0764 194.386 72.6679C194.146 73.2593 195.119 73.4427 195.018 74.2234C194.917 75.0041 195.474 75.6961 197.124 76.3053C198.775 76.9145 202.044 76.5478 203.132 75.0337C204.219 73.5196 210.998 72.3071 210.05 70.7989C209.101 69.2907 208.367 70.1365 207.697 68.6282C207.027 67.12 204.188 68.5632 203.271 69.3498C202.354 70.1365 201.393 71.9818 197.371 70.2725Z" fill="#407BFF"/>
<path opacity="0.2" d="M201.165 63.9104C201.383 63.6846 201.664 63.5197 201.977 63.434C202.289 63.3482 202.621 63.345 202.935 63.4246C203.249 63.5042 203.533 63.6635 203.757 63.8849C203.98 64.1064 204.134 64.3813 204.2 64.6793C203.176 66.6162 201.523 68.2001 199.477 69.2039C199.404 67.8454 199.061 66.5114 198.465 65.2708L201.165 63.9104Z" fill="black"/>
<path d="M208.431 56.9631C207.09 61.8544 206.635 63.9482 203.441 66.0065C198.635 69.0998 192.508 66.4914 192.261 61.328C192.04 56.6792 194.272 49.4635 199.849 48.4284C201.079 48.1934 202.353 48.2564 203.549 48.6115C204.746 48.9666 205.825 49.602 206.685 50.4572C207.545 51.3125 208.157 52.3592 208.462 53.4979C208.768 54.6366 208.757 55.8295 208.431 56.9631Z" fill="#FF8B7B"/>
<path d="M208.681 61.7838C208.465 62.2229 208.158 62.6178 207.778 62.9457C207.398 63.2735 206.953 63.5279 206.467 63.6942C205.165 64.1378 204.412 63.0672 204.69 61.8725C204.943 60.796 205.923 59.2642 207.27 59.347C207.563 59.37 207.846 59.4608 208.092 59.6113C208.338 59.7618 208.54 59.9672 208.68 60.2089C208.819 60.4507 208.893 60.7213 208.893 60.9962C208.893 61.2712 208.82 61.5418 208.681 61.7838Z" fill="#FF8B7B"/>
<path d="M195.23 51.3576C197.797 50.8667 203.963 51.2748 204.5 53.6347C202.306 55.551 203.362 61.7258 201.079 63.5356C204.411 66.4929 211.02 66.5225 211.02 66.5225C211.02 66.5225 217.552 49.9203 209.578 49.11C207.902 44.9107 198.828 44.5322 194.098 47.9271" fill="#263238"/>
<path d="M207.489 53.8667H204.328C204.217 53.8667 204.111 53.8255 204.032 53.7523C203.954 53.6791 203.91 53.5798 203.91 53.4763C203.912 53.3732 203.956 53.2748 204.034 53.202C204.112 53.1291 204.217 53.0875 204.328 53.0859H207.489C207.6 53.0859 207.706 53.1271 207.784 53.2003C207.863 53.2735 207.907 53.3728 207.907 53.4763C207.908 53.5278 207.897 53.5789 207.877 53.6266C207.856 53.6743 207.825 53.7177 207.786 53.7541C207.747 53.7905 207.701 53.8192 207.65 53.8386C207.599 53.8579 207.544 53.8675 207.489 53.8667Z" fill="#407BFF"/>
<path d="M194.509 104.813C194.509 104.813 186.098 144.399 188.899 159.688C191.587 174.344 199.852 202.781 199.852 202.781L209.23 202.557C209.23 202.557 203.343 169.607 203.229 157.358C203.033 137.041 210.545 102.891 210.545 102.891L194.509 104.813Z" fill="#407BFF"/>
<path d="M199.266 203.241L210.117 202.963L209.447 199.633L197.691 200.195L199.266 203.241Z" fill="#263238"/>
<path opacity="0.3" d="M202.149 109.61L205.899 103.447L210.547 102.891C210.547 102.891 207.126 118.422 204.964 134.764C202.365 126.951 201.448 113.206 202.149 109.61Z" fill="black"/>
<path d="M199.27 104.299C199.27 104.299 205.916 137.787 211.841 156.909C216.622 172.352 236.693 193.396 236.693 193.396L243.788 190.066C243.788 190.066 230.319 166.751 226.98 156.258C216.299 122.687 224.653 110.486 216.381 102.188L199.27 104.299Z" fill="#407BFF"/>
<path d="M236.769 195.434L245.123 191.4L243.871 188.07L234.645 192.861L236.769 195.434Z" fill="#263238"/>
<path d="M216.568 100.93L217.833 102.645C217.927 102.775 217.769 102.947 217.516 102.976L194.543 105.732C194.347 105.732 194.17 105.685 194.144 105.567L193.695 103.757C193.695 103.633 193.822 103.503 194.037 103.479L216.214 100.817C216.278 100.808 216.344 100.813 216.406 100.832C216.468 100.852 216.523 100.885 216.568 100.93Z" fill="#407BFF"/>
<path opacity="0.4" d="M216.568 100.93L217.833 102.645C217.927 102.775 217.769 102.947 217.516 102.976L194.543 105.732C194.347 105.732 194.17 105.685 194.144 105.567L193.695 103.757C193.695 103.633 193.822 103.503 194.037 103.479L216.214 100.817C216.278 100.808 216.344 100.813 216.406 100.832C216.468 100.852 216.523 100.885 216.568 100.93Z" fill="white"/>
<path d="M213.915 103.623L214.51 103.546C214.63 103.546 214.712 103.469 214.693 103.398L214.061 101.032C214.061 100.961 213.934 100.92 213.814 100.932L213.22 101.003C213.106 101.003 213.024 101.085 213.036 101.156L213.669 103.522C213.688 103.587 213.821 103.635 213.915 103.623Z" fill="#263238"/>
<path d="M196.222 105.744L196.816 105.673C196.93 105.673 197.012 105.59 196.999 105.525L196.367 103.159C196.367 103.088 196.234 103.041 196.12 103.058L195.526 103.129C195.406 103.129 195.324 103.212 195.343 103.277L195.975 105.643C195.988 105.714 196.108 105.761 196.222 105.744Z" fill="#263238"/>
<path d="M205.061 104.685L205.655 104.614C205.776 104.614 205.858 104.531 205.839 104.46L205.238 102.095C205.238 102.029 205.105 101.982 204.991 101.994L204.397 102.065C204.277 102.065 204.195 102.148 204.214 102.219L204.814 104.585C204.833 104.656 204.96 104.697 205.061 104.685Z" fill="#263238"/>
<path d="M199.469 56.7581C199.387 57.1603 199.09 57.4442 198.837 57.391C198.584 57.3377 198.394 56.977 198.476 56.5748C198.559 56.1726 198.856 55.8828 199.109 55.936C199.362 55.9892 199.551 56.3559 199.469 56.7581Z" fill="#263238"/>
<path d="M194.606 55.8831C194.524 56.2853 194.233 56.5692 193.974 56.516C193.715 56.4627 193.531 56.1019 193.614 55.6998C193.696 55.2976 193.993 55.0078 194.278 55.061C194.562 55.1142 194.695 55.475 194.606 55.8831Z" fill="#263238"/>
<path d="M194.371 55.1098L193.391 54.6484C193.391 54.6484 193.764 55.5001 194.371 55.1098Z" fill="#263238"/>
<path d="M195.897 56.7891C195.325 57.6384 194.632 58.4105 193.836 59.0839C194.025 59.2704 194.256 59.4162 194.511 59.5112C194.767 59.6062 195.041 59.648 195.316 59.634L195.897 56.7891Z" fill="#FF5652"/>
<path d="M196.953 61.6391C196.932 61.6267 196.916 61.6089 196.906 61.5879C196.896 61.5668 196.892 61.5435 196.896 61.5208C196.902 61.4888 196.922 61.4603 196.95 61.4415C196.978 61.4227 197.014 61.4151 197.048 61.4202C197.581 61.5291 198.134 61.5183 198.661 61.3888C199.189 61.2593 199.676 61.0146 200.083 60.675C200.108 60.6529 200.141 60.6406 200.175 60.6406C200.209 60.6406 200.242 60.6529 200.267 60.675C200.279 60.6855 200.289 60.6983 200.295 60.7126C200.302 60.7268 200.306 60.7422 200.306 60.7578C200.306 60.7734 200.302 60.7888 200.295 60.803C200.289 60.8173 200.279 60.8301 200.267 60.8406C199.832 61.214 199.307 61.4832 198.736 61.6254C198.166 61.7675 197.567 61.7783 196.991 61.6568C196.977 61.6547 196.963 61.6485 196.953 61.6391Z" fill="#263238"/>
<path d="M201.167 55.5241C201.128 55.5016 201.097 55.4686 201.079 55.4295C200.945 55.1546 200.743 54.9133 200.49 54.7251C200.238 54.537 199.941 54.4075 199.624 54.3471C199.59 54.3442 199.558 54.3349 199.528 54.3198C199.498 54.3047 199.471 54.2841 199.45 54.2593C199.429 54.2344 199.413 54.2058 199.404 54.1752C199.395 54.1446 199.392 54.1125 199.397 54.0809C199.406 54.0182 199.441 53.9612 199.494 53.9216C199.547 53.882 199.614 53.8629 199.681 53.868C200.085 53.9351 200.465 54.0929 200.789 54.3278C201.112 54.5627 201.37 54.8677 201.54 55.2165C201.571 55.2738 201.577 55.3402 201.555 55.4012C201.534 55.4621 201.488 55.5127 201.427 55.5418C201.385 55.5594 201.34 55.5669 201.294 55.5638C201.249 55.5607 201.205 55.5471 201.167 55.5241Z" fill="#263238"/>
<path d="M192.902 53.513V53.4716C192.892 53.4417 192.889 53.4103 192.892 53.3792C192.895 53.3481 192.905 53.3179 192.921 53.2904C192.937 53.2629 192.958 53.2386 192.984 53.219C193.01 53.1993 193.04 53.1846 193.072 53.1758C193.461 53.0548 193.875 53.0239 194.279 53.0857C194.684 53.1475 195.066 53.3002 195.393 53.5307C195.446 53.5723 195.479 53.6318 195.485 53.6961C195.491 53.7604 195.469 53.8243 195.425 53.8737C195.38 53.9232 195.317 53.954 195.248 53.9596C195.179 53.9651 195.111 53.9449 195.058 53.9033C194.798 53.7235 194.495 53.6054 194.176 53.5591C193.857 53.5127 193.53 53.5395 193.224 53.6372C193.163 53.6563 193.097 53.6543 193.038 53.6315C192.979 53.6087 192.93 53.5666 192.902 53.513Z" fill="#263238"/>
<path d="M217.266 76.0234C217.877 76.7527 218.385 77.4168 218.905 78.1402C219.424 78.8636 219.922 79.5692 220.409 80.2985C221.368 81.769 222.273 83.2631 223.086 84.8581C223.933 86.4364 224.69 88.0722 225.351 89.7557C225.528 90.1767 225.673 90.6155 225.833 91.0424C225.994 91.4693 226.144 91.9022 226.278 92.3469C226.411 92.7916 226.551 93.2066 226.69 93.6987L226.883 94.4933L227.022 95.2819C227.261 97.2559 227.197 99.2605 226.834 101.211C226.5 103.032 226.025 104.817 225.416 106.548C224.818 108.23 224.144 109.879 223.397 111.487C222.647 113.08 221.821 114.627 220.923 116.123L218.91 114.807C219.542 113.301 220.163 111.706 220.693 110.123C221.247 108.554 221.728 106.955 222.133 105.332C222.538 103.763 222.834 102.161 223.017 100.541C223.098 99.7717 223.137 98.9975 223.135 98.2228C223.122 97.5039 223.052 96.7877 222.926 96.0823L222.819 95.5961L222.685 95.1336C222.578 94.8016 222.417 94.3925 222.283 94.0308C222.149 93.6691 222 93.2837 221.839 92.9102C221.678 92.5366 221.539 92.169 221.362 91.8073C220.704 90.3368 219.927 88.9197 219.146 87.5026C218.364 86.0855 217.486 84.7277 216.581 83.3936C216.137 82.7176 215.676 82.0536 215.205 81.4013C214.734 80.7491 214.241 80.091 213.797 79.5277L217.266 76.0234Z" fill="#FF8B7B"/>
<path d="M220.422 113.039L216.883 115.61L220.514 119.208C220.514 119.208 222.088 116.644 222.022 114.169L220.422 113.039Z" fill="#FF8B7B"/>
<path d="M214.965 119.615L218.772 121.46L220.479 119.208L216.881 115.609L214.965 119.615Z" fill="#FF8B7B"/>
<path d="M216.098 71.1274C218.811 71.4704 222.909 78.5561 222.909 78.5561L216.01 84.8965C216.01 84.8965 210.723 79.2599 210.862 75.9655C210.989 73.1679 212.639 70.6956 216.098 71.1274Z" fill="#407BFF"/>
<g opacity="0.5">
<path opacity="0.5" d="M216.098 71.1274C218.811 71.4704 222.909 78.5561 222.909 78.5561L216.01 84.8965C216.01 84.8965 210.723 79.2599 210.862 75.9655C210.989 73.1679 212.639 70.6956 216.098 71.1274Z" fill="white"/>
</g>
<path d="M239.109 200.889C239.08 200.892 239.05 200.892 239.021 200.889C238.9 200.857 238.79 200.797 238.701 200.714C238.613 200.631 238.548 200.529 238.515 200.416C238.485 200.349 238.474 200.276 238.484 200.204C238.494 200.133 238.524 200.065 238.572 200.007C239.002 199.493 240.962 199.664 241.183 199.682C241.209 199.685 241.233 199.695 241.252 199.711C241.271 199.727 241.285 199.748 241.291 199.771C241.297 199.793 241.297 199.816 241.29 199.838C241.284 199.86 241.271 199.88 241.253 199.895C240.709 200.297 239.741 200.948 239.109 200.889ZM240.842 199.883C240.058 199.836 239.002 199.883 238.774 200.138C238.757 200.165 238.749 200.195 238.749 200.226C238.749 200.257 238.757 200.288 238.774 200.315C238.794 200.391 238.834 200.462 238.892 200.519C238.95 200.576 239.022 200.618 239.103 200.64C239.425 200.699 240.077 200.421 240.823 199.854L240.842 199.883Z" fill="#407BFF"/>
<path d="M241.007 199.857C240.374 199.768 239.11 199.266 238.964 198.745C238.935 198.654 238.94 198.555 238.979 198.467C239.018 198.378 239.089 198.305 239.179 198.26C239.259 198.204 239.351 198.166 239.449 198.15C239.546 198.134 239.647 198.139 239.742 198.166C240.507 198.343 241.241 199.638 241.272 199.691C241.283 199.711 241.289 199.732 241.289 199.754C241.289 199.775 241.283 199.797 241.272 199.816C241.26 199.833 241.243 199.847 241.223 199.856C241.203 199.865 241.181 199.87 241.159 199.869L241.007 199.857ZM239.628 198.39C239.576 198.382 239.522 198.383 239.47 198.394C239.417 198.406 239.368 198.426 239.325 198.455C239.192 198.544 239.192 198.621 239.211 198.674C239.318 199.017 240.267 199.479 240.918 199.603C240.653 199.183 240.14 198.503 239.654 198.42L239.628 198.39Z" fill="#407BFF"/>
<path d="M200.048 209.666C199.606 209.696 199.164 209.599 198.783 209.388C198.685 209.319 198.605 209.23 198.549 209.128C198.493 209.025 198.463 208.912 198.46 208.797C198.451 208.733 198.461 208.669 198.489 208.61C198.517 208.552 198.562 208.502 198.619 208.466C199.207 208.099 201.401 209.057 201.837 209.223C201.861 209.233 201.881 209.25 201.893 209.271C201.906 209.292 201.911 209.317 201.907 209.341C201.905 209.367 201.894 209.391 201.875 209.41C201.857 209.429 201.833 209.443 201.806 209.448C201.229 209.576 200.64 209.649 200.048 209.666ZM199.023 208.625C198.935 208.62 198.847 208.638 198.77 208.679C198.752 208.691 198.737 208.708 198.728 208.728C198.719 208.748 198.716 208.77 198.72 208.791C198.722 208.87 198.743 208.947 198.783 209.017C198.822 209.087 198.879 209.147 198.947 209.193C199.327 209.459 200.212 209.495 201.369 209.3C200.63 208.962 199.838 208.734 199.023 208.625Z" fill="#407BFF"/>
<path d="M201.795 209.452H201.744C201.017 209.174 199.55 208.074 199.632 207.5C199.632 207.376 199.74 207.222 200.075 207.186C201.34 207.044 201.896 209.221 201.921 209.31C201.927 209.332 201.926 209.356 201.918 209.378C201.91 209.4 201.896 209.419 201.877 209.434C201.853 209.448 201.824 209.455 201.795 209.452ZM200.189 207.411H200.106C199.967 207.411 199.898 207.464 199.885 207.523C199.841 207.855 200.853 208.706 201.599 209.103C201.415 208.564 200.948 207.411 200.176 207.411H200.189Z" fill="#407BFF"/>
<path d="M199.232 55.977L198.258 55.5156C198.258 55.5156 198.637 56.3732 199.232 55.977Z" fill="#263238"/>
<path d="M102.43 209.756L107.508 209.685L108.671 198.672L103.6 198.743L102.43 209.756Z" fill="#B55B52"/>
<path d="M77.2891 209.776H82.3669L84.3589 198.781H79.2873L77.2891 209.776Z" fill="#B55B52"/>
<path d="M83.0755 209.219H76.8847C76.7842 209.219 76.6868 209.252 76.6087 209.311C76.5305 209.37 76.4762 209.452 76.4547 209.544L75.4492 213.767C75.4264 213.87 75.4286 213.976 75.4557 214.078C75.4828 214.18 75.5342 214.274 75.6059 214.355C75.6776 214.436 75.7678 214.5 75.8699 214.544C75.972 214.588 76.0832 214.609 76.1954 214.607C78.1874 214.577 79.6355 214.465 82.1459 214.465C83.6889 214.465 88.3431 214.619 90.4742 214.619C92.6052 214.619 92.8835 212.649 92.0108 212.466C88.0965 211.667 85.1497 210.567 83.8976 209.509C83.6694 209.323 83.3778 209.22 83.0755 209.219Z" fill="#263238"/>
<path d="M107.454 209.156L101.908 209.239C101.808 209.239 101.711 209.271 101.634 209.33C101.556 209.39 101.504 209.472 101.485 209.564L100.549 213.799C100.524 213.902 100.526 214.008 100.552 214.11C100.579 214.212 100.63 214.307 100.702 214.388C100.774 214.469 100.865 214.533 100.968 214.575C101.071 214.618 101.183 214.637 101.295 214.633C103.293 214.574 106.183 214.42 108.693 214.385C111.634 214.343 114.176 214.456 117.616 214.385C119.703 214.355 120.247 212.38 119.374 212.214C115.39 211.457 112.146 211.416 108.681 209.487C108.312 209.274 107.888 209.159 107.454 209.156Z" fill="#263238"/>
<path d="M111.27 65.1797C112.901 68.0364 114.628 70.9759 116.367 73.8208C118.106 76.6657 119.921 79.4929 121.856 82.1012C122.09 82.4383 122.342 82.7459 122.589 83.0594L122.956 83.5266L123.12 83.7396L123.184 83.8224C123.341 84.0364 123.561 84.2044 123.816 84.3073C124.499 84.5853 125.941 84.5498 127.395 84.2245C128.968 83.8517 130.502 83.3489 131.98 82.7222C132.751 82.3969 133.535 82.0716 134.3 81.7049C135.066 81.3382 135.85 80.9479 136.558 80.593L138.917 83.3965C138.196 84.0648 137.507 84.6267 136.76 85.1709C136.014 85.715 135.274 86.2887 134.478 86.7974C132.845 87.8795 131.086 88.7843 129.235 89.4944C128.214 89.8758 127.155 90.1611 126.073 90.3461C124.791 90.555 123.478 90.5369 122.203 90.2929C120.702 89.999 119.322 89.3095 118.226 88.3056C118.087 88.1814 117.96 88.0513 117.834 87.9211L117.574 87.6432L117.1 87.1227C116.784 86.7796 116.468 86.4307 116.171 86.0817C113.85 83.3354 111.712 80.4574 109.771 77.4642C107.874 74.5069 106.065 71.5497 104.402 68.409L111.27 65.1797Z" fill="#B65B52"/>
<path d="M102.228 65.3272C100.855 69.6803 110.493 81.5508 110.493 81.5508L120.231 75.7072C118.403 71.9431 116.147 68.3738 113.503 65.061C109.481 60.288 103.726 60.5482 102.228 65.3272Z" fill="#407BFF"/>
<path opacity="0.2" d="M102.228 65.3272C100.855 69.6803 110.493 81.5508 110.493 81.5508L120.231 75.7072C118.403 71.9431 116.147 68.3738 113.503 65.061C109.481 60.288 103.726 60.5482 102.228 65.3272Z" fill="white"/>
<path opacity="0.2" d="M108.148 70.426C110.146 71.2244 113.087 75.7491 114.617 79.0612L110.494 81.5394C108.191 78.6589 106.119 75.6223 104.297 72.4547C105.6 71.118 107.092 70.006 108.148 70.426Z" fill="black"/>
<path d="M136.141 80.8133L139.682 78.8438L142.717 83.7765C142.717 83.7765 138.778 85.9353 136.229 83.4275L136.141 80.8133Z" fill="#B55B52"/>
<path d="M144.635 78.8911L146.222 82.6941L142.719 83.7765L139.684 78.8438L144.635 78.8911Z" fill="#B55B52"/>
<path opacity="0.2" d="M108.667 198.672L108.066 204.35L102.988 204.427L103.589 198.749L108.667 198.672Z" fill="black"/>
<path opacity="0.2" d="M79.2886 198.781H84.3664L83.3357 204.447H78.2578L79.2886 198.781Z" fill="black"/>
<path d="M79.6016 63.3923C85.0652 81.408 84.1862 100.559 84.515 104.475L111.643 103.522C116.253 76.6408 107.976 61.677 107.976 61.677C107.976 61.677 106.237 61.3636 103.872 61.1329C103.125 61.0619 102.329 61.0028 101.494 60.9614C101.032 60.9614 100.564 60.92 100.09 60.9141C96.2517 60.9686 92.4197 61.2273 88.6127 61.6889C87.8855 61.7717 87.152 61.8781 86.4437 61.9846C85.7355 62.0911 85.1347 62.2034 84.5466 62.3158C81.7326 62.8304 79.6016 63.3923 79.6016 63.3923Z" fill="#407BFF"/>
<path opacity="0.2" d="M79.6016 63.3923C85.0652 81.408 84.1862 100.559 84.515 104.475L111.643 103.522C116.253 76.6408 107.976 61.677 107.976 61.677C107.976 61.677 106.237 61.3636 103.872 61.1329C103.125 61.0619 102.329 61.0028 101.494 60.9614C101.032 60.9614 100.564 60.92 100.09 60.9141C96.2517 60.9686 92.4197 61.2273 88.6127 61.6889C87.8855 61.7717 87.152 61.8781 86.4437 61.9846C85.7355 62.0911 85.1347 62.2034 84.5466 62.3158C81.7326 62.8304 79.6016 63.3923 79.6016 63.3923Z" fill="white"/>
<path opacity="0.2" d="M85.3744 71.125C85.8614 72.8698 85.3049 80.8308 83.3572 82.7944C83.0916 80.2452 82.7248 77.5837 82.2695 74.863L85.3744 71.125Z" fill="black"/>
<path d="M101.682 60.9458H101.486C101.025 60.9458 100.557 60.9044 100.082 60.8984C96.2328 60.9599 92.3903 61.2265 88.5733 61.6969C88.0168 61.762 87.4603 61.8388 86.9102 61.9217L87.7512 62.5959C90.2427 64.5891 93.1453 66.4345 97.4453 66.4345H97.9955C100.19 66.3517 101.594 65.6833 102.182 64.4353C102.402 63.8586 102.472 63.2409 102.385 62.6338C102.298 62.0267 102.057 61.4479 101.682 60.9458Z" fill="white"/>
<path d="M88.7552 49.4688C89.7543 52.8814 90.9811 59.1804 88.5781 61.6705C90.7408 63.4034 93.5422 65.3789 97.9497 65.2192C102.357 65.0595 101.365 62.2619 100.087 60.872C95.8819 60.2332 95.7618 57.3588 96.293 54.6203L88.7552 49.4688Z" fill="#B55B52"/>
<path opacity="0.2" d="M91.8174 51.5859L96.2439 54.6319C96.1177 55.2701 96.05 55.9171 96.0416 56.566C94.448 56.4595 92.1525 54.9927 91.8617 53.4608C91.7242 52.8437 91.7092 52.2082 91.8174 51.5859Z" fill="black"/>
<path d="M99.4767 46.1747C100.918 47.5469 103.568 40.065 100.741 38.2492C97.9147 36.4334 92.4068 39.4144 99.4767 46.1747Z" fill="#263238"/>
<path d="M87.8983 44.2999C88.5812 48.9665 88.7267 51.7345 91.4521 53.9643C95.5499 57.3178 101.57 54.7391 102.392 49.9779C103.132 45.6898 101.892 38.7757 96.8399 37.2498C95.7265 36.9083 94.5382 36.8387 93.3879 37.0475C92.2376 37.2564 91.1635 37.7369 90.2676 38.4433C89.3717 39.1497 88.6837 40.0585 88.2691 41.0836C87.8544 42.1086 87.7267 43.2158 87.8983 44.2999Z" fill="#B55B52"/>
<path d="M88.5459 48.5315C90.1837 49.7144 91.6192 41.925 88.5459 40.5232C85.4726 39.1215 80.4516 42.8358 88.5459 48.5315Z" fill="#263238"/>
<path d="M86.6274 41.5815C91.4397 43.1252 104.966 41.688 102.576 32.479C101.558 28.5044 96.9539 31.8876 96.6377 34.0878C94.2853 32.2779 89.9157 32.6742 90.4279 35.5664C87.8922 34.8744 78.3055 37.045 86.6274 41.5815Z" fill="#263238"/>
<path d="M86.0431 49.6326C86.4185 50.1092 86.8913 50.5114 87.434 50.816C87.9767 51.1205 88.5786 51.3214 89.2049 51.407C90.868 51.6317 91.4814 50.1886 90.8364 48.8282C90.2546 47.6039 88.6927 46.0129 87.1118 46.4151C85.5308 46.8173 85.1325 48.4556 86.0431 49.6326Z" fill="#B55B52"/>
<path d="M109.947 203.239L101.353 203.363C101.353 203.363 104.218 171.608 103.446 156.833C103.212 152.338 102.245 146.051 100.974 139.315C99.374 130.821 98.6025 127.438 96.5473 116.709C95.0676 109.056 93.8281 104.135 93.8281 104.135L111.661 103.508C111.661 103.508 117.156 140.84 116.985 155.325C116.789 170.372 109.947 203.239 109.947 203.239Z" fill="#263238"/>
<path opacity="0.2" d="M99.9962 113.938C103.196 121.39 103.259 138.85 101.786 143.765C101.533 142.31 101.261 140.807 100.976 139.305C99.3702 130.812 98.5987 127.429 96.5498 116.7C96.5119 116.487 96.4676 116.28 96.4297 116.073C97.478 115.174 98.6846 114.452 99.9962 113.938Z" fill="black"/>
<path d="M102.024 103.836C102.024 103.836 98.7865 143.185 96.4025 156.919C93.7972 171.954 85.6903 203.354 85.6903 203.354H76.3945C76.3945 203.354 79.4615 174.964 81.3649 160.178C83.5276 143.381 84.5267 104.433 84.5267 104.433L102.024 103.836Z" fill="#263238"/>
<path d="M86.8056 203.54H75.8594V200.482L88.0956 200.281L86.8056 203.54Z" fill="#407BFF"/>
<path opacity="0.5" d="M86.8056 203.54H75.8594V200.482L88.0956 200.281L86.8056 203.54Z" fill="white"/>
<path d="M111.033 203.402L100.795 203.55L100.738 200.456L112.184 200.125L111.033 203.402Z" fill="#407BFF"/>
<path opacity="0.5" d="M111.033 203.402L100.795 203.55L100.738 200.456L112.184 200.125L111.033 203.402Z" fill="white"/>
<path d="M95.6117 45.0895C95.6117 45.474 95.8836 45.7697 96.1492 45.746C96.4148 45.7224 96.6045 45.403 96.5729 45.0245C96.5413 44.6459 96.3073 44.3502 96.0354 44.3679C95.7635 44.3857 95.5675 44.7406 95.6117 45.0895Z" fill="#263238"/>
<path d="M100.221 44.7673C100.221 45.1517 100.493 45.4416 100.765 45.4238C101.037 45.4061 101.22 45.0808 101.189 44.7022C101.157 44.3237 100.917 44.0221 100.651 44.0398C100.385 44.0576 100.196 44.3829 100.221 44.7673Z" fill="#263238"/>
<path d="M98.7734 45.0625C99.3516 46.1973 100.094 47.2521 100.98 48.1972C100.719 48.3996 100.415 48.5467 100.087 48.6283C99.7598 48.71 99.4173 48.7244 99.0833 48.6704L98.7734 45.0625Z" fill="#A02724"/>
<path d="M97.4177 49.8017C96.9579 49.7841 96.5068 49.6784 96.0924 49.4912C95.678 49.304 95.3091 49.0393 95.0084 48.7134C94.9891 48.6891 94.9809 48.6586 94.9857 48.6287C94.9904 48.5987 95.0077 48.5718 95.0337 48.5537C95.0597 48.5357 95.0923 48.528 95.1243 48.5325C95.1563 48.5369 95.1852 48.5531 95.2044 48.5774C95.5435 48.9334 95.9677 49.2094 96.4424 49.3831C96.9171 49.5568 97.4289 49.6232 97.9362 49.5769C97.9671 49.5753 97.9975 49.5848 98.021 49.6035C98.0446 49.6222 98.0595 49.6487 98.0627 49.6775C98.0645 49.6927 98.0629 49.7081 98.058 49.7228C98.0531 49.7374 98.0451 49.7509 98.0345 49.7626C98.0238 49.7742 98.0107 49.7837 97.996 49.7904C97.9813 49.7971 97.9653 49.801 97.9489 49.8017C97.7721 49.8135 97.5945 49.8135 97.4177 49.8017Z" fill="#263238"/>
<path d="M94.073 43.7905C94.032 43.7905 93.992 43.778 93.9592 43.755C93.9059 43.7233 93.868 43.6733 93.8538 43.6158C93.8396 43.5582 93.8502 43.4977 93.8833 43.4474C94.0848 43.1405 94.3624 42.8835 94.6927 42.6981C95.0229 42.5128 95.396 42.4047 95.7804 42.3828C95.8441 42.3828 95.9052 42.4065 95.9503 42.4486C95.9954 42.4908 96.0207 42.548 96.0207 42.6076C96.0207 42.6672 95.9954 42.7243 95.9503 42.7665C95.9052 42.8086 95.8441 42.8323 95.7804 42.8323C95.4785 42.8544 95.1866 42.9438 94.9292 43.093C94.6717 43.2422 94.4562 43.4469 94.3007 43.6899C94.2775 43.7258 94.2435 43.7544 94.2031 43.7723C94.1626 43.7902 94.1173 43.7965 94.073 43.7905Z" fill="#263238"/>
<path d="M102.092 43.1486C102.053 43.1457 102.015 43.134 101.982 43.1144C101.949 43.0948 101.922 43.068 101.902 43.0362C101.757 42.7882 101.551 42.5755 101.302 42.4153C101.053 42.2551 100.767 42.1517 100.467 42.1136C100.403 42.1136 100.342 42.0899 100.297 42.0477C100.252 42.0056 100.227 41.9484 100.227 41.8888C100.227 41.8292 100.252 41.772 100.297 41.7299C100.342 41.6877 100.403 41.6641 100.467 41.6641C100.846 41.7051 101.208 41.8301 101.525 42.0286C101.842 42.2272 102.103 42.4935 102.288 42.8056C102.305 42.831 102.316 42.8593 102.32 42.8888C102.325 42.9183 102.323 42.9484 102.315 42.9772C102.306 43.006 102.292 43.0329 102.272 43.0563C102.252 43.0797 102.228 43.099 102.2 43.1131C102.167 43.1326 102.13 43.1448 102.092 43.1486Z" fill="#263238"/>
<path d="M84.7498 210.066C84.3018 210.054 83.8565 209.996 83.4218 209.894C83.3986 209.889 83.3778 209.877 83.3621 209.86C83.3463 209.843 83.3363 209.822 83.3333 209.8C83.3299 209.778 83.3335 209.755 83.3436 209.736C83.3537 209.716 83.3699 209.699 83.3902 209.687C83.5736 209.581 85.2114 208.64 85.7742 208.907C85.8348 208.939 85.8854 208.985 85.9209 209.041C85.9564 209.097 85.9756 209.161 85.9766 209.226C85.9905 209.336 85.9753 209.447 85.9323 209.551C85.8893 209.654 85.8198 209.745 85.7299 209.817C85.4415 209.999 85.0969 210.087 84.7498 210.066ZM83.7696 209.758C84.6359 209.918 85.2936 209.888 85.5718 209.67C85.634 209.622 85.6818 209.559 85.7106 209.489C85.7394 209.418 85.7482 209.342 85.7363 209.267C85.7381 209.24 85.732 209.213 85.7187 209.189C85.7053 209.165 85.6851 209.145 85.6604 209.131C85.3695 208.966 84.4399 209.374 83.7696 209.758Z" fill="#407BFF"/>
<path d="M83.4533 209.888C83.4306 209.894 83.4065 209.894 83.3838 209.888C83.3657 209.877 83.3513 209.862 83.3423 209.844C83.3333 209.827 83.3301 209.807 83.3332 209.787C83.3332 209.728 83.4596 208.356 84.0477 207.906C84.1169 207.849 84.1985 207.807 84.287 207.782C84.3755 207.758 84.4687 207.752 84.56 207.764C84.6493 207.764 84.736 207.793 84.8052 207.846C84.8744 207.898 84.9218 207.972 84.9394 208.054C85.0469 208.586 84.0351 209.627 83.5102 209.894L83.4533 209.888ZM84.4777 207.977C84.3747 207.976 84.2752 208.012 84.1995 208.078C83.8332 208.501 83.6127 209.019 83.5671 209.562C84.092 209.19 84.737 208.379 84.6738 208.095C84.6738 208.066 84.6738 207.995 84.4967 207.977H84.4461H84.4777Z" fill="#407BFF"/>
<path d="M107.961 209.789C107.941 209.781 107.923 209.768 107.91 209.751C107.897 209.734 107.888 209.715 107.886 209.694C107.88 209.672 107.883 209.649 107.893 209.629C107.903 209.609 107.921 209.592 107.942 209.582C108.176 209.464 110.2 208.47 110.82 208.778C110.878 208.808 110.927 208.851 110.963 208.904C110.998 208.957 111.018 209.017 111.022 209.079C111.037 209.18 111.025 209.283 110.987 209.379C110.95 209.475 110.888 209.561 110.807 209.629C110.257 210.096 108.802 209.931 107.98 209.789H107.961ZM110.662 208.961C110.276 208.843 109.176 209.251 108.379 209.623C109.504 209.783 110.339 209.724 110.643 209.464C110.697 209.418 110.738 209.361 110.762 209.297C110.786 209.233 110.793 209.164 110.782 209.097C110.782 209.073 110.775 209.049 110.762 209.028C110.749 209.007 110.729 208.99 110.706 208.979L110.662 208.961Z" fill="#407BFF"/>
<path d="M107.963 209.791C107.945 209.78 107.931 209.766 107.921 209.748C107.911 209.73 107.906 209.711 107.906 209.691C107.906 209.638 108.026 208.354 108.665 207.851C108.751 207.78 108.851 207.726 108.96 207.692C109.068 207.657 109.183 207.643 109.297 207.65C109.626 207.65 109.727 207.828 109.753 207.958C109.854 208.49 108.659 209.537 108.045 209.803C108.017 209.807 107.989 209.803 107.963 209.791ZM109.405 207.875H109.285C109.197 207.867 109.108 207.877 109.024 207.904C108.94 207.93 108.863 207.973 108.798 208.029C108.43 208.447 108.209 208.961 108.166 209.502C108.798 209.141 109.595 208.319 109.531 207.999C109.519 207.982 109.481 207.905 109.405 207.875Z" fill="#407BFF"/>
<path d="M85.2165 69.4863L80.4485 79.2039C79.6707 80.8304 78.8739 82.4451 78.134 84.0775C77.7673 84.8878 77.3752 85.6981 77.0274 86.5083L76.7555 87.0998C76.667 87.3068 76.6164 87.4488 76.5468 87.6203C76.4014 87.9515 76.3065 88.3182 76.1864 88.6672C75.7583 90.1795 75.5248 91.7342 75.4908 93.2983C75.4342 94.9688 75.5061 96.641 75.7058 98.302C75.9018 99.9935 76.199 101.703 76.5784 103.406C76.9579 105.11 77.4132 106.848 77.9064 108.463L74.4094 109.883C73.8972 108.995 73.4735 108.173 73.0625 107.298C72.6515 106.423 72.272 105.565 71.9116 104.678C71.192 102.894 70.5963 101.068 70.1283 99.2128C69.0524 95.3048 68.8565 91.2303 69.5529 87.2477C69.6793 86.7272 69.7869 86.2008 69.9639 85.6744L70.2042 84.9055L70.4382 84.2372C70.7417 83.3441 71.0705 82.4628 71.3867 81.5874C72.057 79.8131 72.74 78.1097 73.4799 76.4063C74.9406 72.9759 76.5278 69.6519 78.2985 66.3516L85.2165 69.4863Z" fill="#B65B52"/>
<path d="M79.6038 63.3931C74.9749 64.7534 70.4219 79.4393 70.4219 79.4393L81.1341 83.8219C81.1341 83.8219 84.5995 76.7245 86.5914 71.1648C88.7667 65.1024 85.2129 61.7488 79.6038 63.3931Z" fill="#407BFF"/>
<path opacity="0.2" d="M79.6038 63.3931C74.9749 64.7534 70.4219 79.4393 70.4219 79.4393L81.1341 83.8219C81.1341 83.8219 84.5995 76.7245 86.5914 71.1648C88.7667 65.1024 85.2129 61.7488 79.6038 63.3931Z" fill="white"/>
<path d="M77.6218 107.656L80.1196 111.873L74.2323 113.305C74.2323 113.305 72.4491 109.218 74.5548 107.916L77.6218 107.656Z" fill="#B55B52"/>
<path d="M80.558 116.66L75.1513 117.08L74.2344 113.306L80.1217 111.875L80.558 116.66Z" fill="#B55B52"/>
<path d="M163.405 80.1379L163.182 75.5117L156.73 76.0226C156.73 76.0226 156.382 76.4477 158.27 80.1333L160.329 80.1379L163.405 80.1379Z" fill="#FF8B7B"/>
<path d="M160.334 73.9629L158.278 72.9351L156.735 76.0143L163.183 75.4992L160.334 73.9629Z" fill="#FF8B7B"/>
<path d="M291.684 206.028H286.503L285.443 194.906H290.624L291.684 206.028Z" fill="#FFB573"/>
<path d="M285.66 205.469H291.98C292.084 205.471 292.185 205.504 292.268 205.564C292.35 205.624 292.41 205.707 292.437 205.8L293.623 210.068C293.653 210.17 293.657 210.277 293.634 210.38C293.612 210.484 293.563 210.581 293.493 210.664C293.423 210.747 293.333 210.813 293.23 210.858C293.127 210.903 293.014 210.925 292.9 210.922C290.867 210.891 289.376 210.781 286.819 210.781C285.242 210.781 280.506 210.928 278.326 210.928C276.147 210.928 275.796 208.938 276.677 208.754C280.651 207.95 283.599 206.832 284.838 205.764C285.062 205.573 285.356 205.467 285.66 205.469Z" fill="#263238"/>
<path opacity="0.2" d="M290.618 194.914H285.438L285.987 200.644H291.168L290.618 194.914Z" fill="black"/>
<path d="M280.932 95.4375C280.932 95.4375 277.62 132.707 278.548 146.776C279.594 162.178 283.569 199.521 283.569 199.521H293.056C293.056 199.521 292.228 164.745 292.711 149.779C293.254 132.701 298.812 95.6709 298.812 95.6709L280.932 95.4375Z" fill="#263238"/>
<path d="M282.75 199.72H293.926L293.807 196.625L281.955 196.422L282.75 199.72Z" fill="#407BFF"/>
<path d="M283.979 206.299C283.623 206.323 283.269 206.237 282.972 206.054C282.874 205.981 282.798 205.887 282.75 205.78C282.703 205.672 282.686 205.555 282.701 205.44C282.695 205.375 282.711 205.31 282.745 205.253C282.779 205.197 282.83 205.15 282.893 205.12C283.462 204.844 285.165 205.796 285.357 205.906C285.378 205.918 285.395 205.936 285.406 205.956C285.416 205.977 285.42 206 285.417 206.023C285.414 206.045 285.404 206.065 285.389 206.081C285.373 206.098 285.353 206.109 285.331 206.115C284.889 206.224 284.436 206.286 283.979 206.299ZM283.171 205.305C283.116 205.305 283.062 205.315 283.012 205.335C283.012 205.335 282.946 205.378 282.946 205.47C282.938 205.547 282.95 205.625 282.981 205.696C283.013 205.768 283.062 205.831 283.125 205.882C283.704 206.127 284.363 206.158 284.966 205.968C284.418 205.644 283.809 205.419 283.171 205.305Z" fill="#407BFF"/>
<path d="M285.304 206.155C285.284 206.16 285.263 206.16 285.244 206.155C284.694 205.885 283.621 204.834 283.707 204.312C283.721 204.229 283.767 204.153 283.836 204.098C283.905 204.042 283.993 204.012 284.085 204.012C284.179 204.002 284.275 204.01 284.366 204.036C284.457 204.061 284.541 204.103 284.615 204.159C285.231 204.613 285.41 206.001 285.416 206.056C285.42 206.076 285.418 206.096 285.409 206.115C285.401 206.133 285.387 206.149 285.37 206.161C285.347 206.164 285.325 206.162 285.304 206.155ZM284.177 204.208H284.124C283.965 204.208 283.952 204.294 283.952 204.325C283.899 204.638 284.615 205.436 285.138 205.811C285.08 205.26 284.849 204.737 284.475 204.306C284.395 204.233 284.289 204.19 284.177 204.183V204.208Z" fill="#407BFF"/>
<path d="M330.594 197.59L325.751 199.132L320.279 188.987L325.122 187.445L330.594 197.59Z" fill="#FFB573"/>
<path d="M324.939 199.324L329.981 195.965C330.065 195.911 330.167 195.885 330.269 195.892C330.372 195.898 330.468 195.937 330.544 196.002L334.141 198.95C334.228 199.019 334.297 199.106 334.343 199.203C334.389 199.301 334.41 199.406 334.406 199.513C334.401 199.619 334.371 199.723 334.317 199.817C334.263 199.911 334.187 199.992 334.095 200.055C332.452 201.105 331.193 201.805 329.153 203.169C327.894 204.004 324.204 206.657 322.468 207.811C320.733 208.966 319.202 207.492 319.818 206.865C322.468 204.084 324.151 201.566 324.456 200.018C324.513 199.737 324.687 199.488 324.939 199.324Z" fill="#263238"/>
<path d="M288.059 55.0146L286.8 54.7567L285.475 54.4681C284.594 54.2654 283.713 54.0443 282.825 53.811C281.076 53.3381 279.354 52.8161 277.691 52.2204C276.058 51.6465 274.469 50.9715 272.934 50.2001C271.514 49.4932 270.192 48.6269 268.999 47.6208L268.602 47.2647C268.496 47.148 268.39 47.0497 268.277 46.9269C268.052 46.669 267.814 46.3865 267.582 46.0672C267.105 45.4531 266.628 44.753 266.177 44.0283C265.283 42.5729 264.395 41.0377 263.527 39.4656C261.845 36.3337 260.215 33.0789 258.599 29.8672L254.895 30.9726C255.721 34.5632 256.785 38.1031 258.082 41.5719C258.744 43.316 259.407 45.0662 260.295 46.8164C260.725 47.6884 261.189 48.5666 261.745 49.4693C262.024 49.9176 262.335 50.372 262.686 50.8387C262.858 51.0721 263.077 51.3177 263.269 51.5511L263.859 52.1652C264.64 52.9584 265.484 53.6974 266.383 54.3759C267.254 55.0132 268.16 55.6077 269.099 56.1568C270.909 57.2045 272.807 58.1143 274.776 58.8773C276.682 59.6301 278.636 60.276 280.626 60.8117C281.611 61.0819 282.604 61.3276 283.607 61.5486C284.104 61.6653 284.607 61.7759 285.117 61.8741C285.627 61.9724 286.104 62.0522 286.707 62.1505L288.059 55.0146Z" fill="#FFB573"/>
<path d="M290.659 63.301C286.684 65.8986 272.223 61.6429 272.223 61.6429L274.21 49.7969C274.21 49.7969 280.126 51.0926 286.333 52.7814C290.553 53.9114 295.025 60.4761 290.659 63.301Z" fill="#407BFF"/>
<path d="M259.246 31.8007L258.266 26.7344L253.284 29.6882C253.48 30.4011 253.83 31.0695 254.314 31.6524C254.798 32.2353 255.406 32.7204 256.099 33.078L259.246 31.8007Z" fill="#FFB573"/>
<path d="M256.857 23.8555L253.002 22.5781L253.273 29.6894L258.262 26.7356L256.857 23.8555Z" fill="#FFB573"/>
<path opacity="0.2" d="M325.128 187.445L320.286 188.993L323.108 194.219L327.957 192.677L325.128 187.445Z" fill="black"/>
<path d="M309.207 54.0377C308.209 59.3128 307.642 64.6501 307.511 70.0043C307.398 73.7503 307.458 77.306 307.604 80.5361C307.928 88.0896 308.684 93.8253 308.637 95.7904L280.926 95.4711C274.434 68.4015 280.178 53.9702 280.178 53.9702C282.323 53.4732 284.5 53.1019 286.696 52.8586C287.16 52.8095 287.63 52.7665 288.114 52.7297C292.042 52.5651 295.977 52.6103 299.899 52.8648C300.641 52.9078 301.397 52.9692 302.132 53.0367C305.895 53.3745 309.207 54.0377 309.207 54.0377Z" fill="#407BFF"/>
<path d="M299.932 52.8413C296.009 52.5868 292.074 52.5417 288.146 52.7062C287.669 52.7431 287.192 52.7861 286.729 52.8352H286.563C285.9 54.481 285.814 58.0305 289.703 58.3191C295.003 58.7121 299.932 55.5004 302.164 53.001C301.409 52.9457 300.647 52.8843 299.932 52.8413Z" fill="white"/>
<path opacity="0.2" d="M302.95 61.3108C303.309 65.2693 304.878 69.0507 307.475 72.2111C307.475 71.4803 307.475 70.7373 307.514 69.9881C307.6 67.1755 307.786 64.2585 308.117 61.3047L302.95 61.3108Z" fill="black"/>
<path d="M298.422 40.5391C297.76 44.0456 297.19 50.4752 299.906 52.8211C298.754 53.9408 297.35 54.8117 295.794 55.3721C294.239 55.9325 292.569 56.1685 290.903 56.0635C287.637 55.9653 287.425 53.8466 288.121 52.686C292.328 51.8017 292.142 48.8908 291.334 46.1519L298.422 40.5391Z" fill="#FFB573"/>
<path opacity="0.2" d="M295.535 42.8203L291.342 46.1549C291.539 46.7896 291.676 47.4389 291.753 48.0954C293.362 47.8989 295.542 46.2838 295.674 44.7179C295.752 44.0828 295.705 43.4398 295.535 42.8203Z" fill="black"/>
<path d="M284.07 30.6986C280.903 29.2309 282.354 24.7296 282.354 24.7296C282.354 24.7296 284.03 24.6927 285.858 26.5719C285.03 24.2506 286.422 20.4677 286.885 19C293.238 21.5547 293.662 24.0233 293.662 24.0233C293.662 24.0233 294.987 22.181 296.233 22.0766C297.218 22.6381 297.981 23.4794 298.408 24.4753C298.835 25.4712 298.904 26.5684 298.604 27.6035C299.652 27.0395 300.822 26.6996 302.029 26.6087C302.51 28.0056 302.433 29.5162 301.811 30.8644C302.541 31.2152 303.133 31.7722 303.5 32.4549C302.921 32.7961 302.303 33.0781 301.658 33.2963C301.758 35.1386 301.334 37.6809 299.903 39.1179L285.328 32.805C282.864 33.7937 281.764 33.0813 281.764 33.0813C281.764 33.0813 282.334 31.1408 284.07 30.6986Z" fill="#263238"/>
<path d="M298.744 35.2463C298.552 39.9994 298.698 42.7997 296.167 45.2132C292.358 48.8363 285.972 46.5887 284.627 41.8233C283.415 37.5246 283.965 30.487 288.913 28.6509C293.862 26.8147 298.943 30.5239 298.744 35.2463Z" fill="#FFB573"/>
<path d="M294.013 29.9127C293.681 32.4059 297.325 34.2482 296.477 37.9328C297.108 38.8 297.874 39.576 298.749 40.2357L300.227 36.4836L299.491 29.6056L294.562 29.2188L294.013 29.9127Z" fill="#263238"/>
<path d="M297.426 29.6031C293.564 31.9244 287.085 31.5129 285.283 30.9357C286.184 27.9327 289.807 27.0791 289.807 27.0791C289.807 27.0791 295.882 26.5694 297.426 29.6031Z" fill="#263238"/>
<path d="M289.463 41.8082C290.061 41.8314 290.655 41.7175 291.194 41.4764C291.733 41.2354 292.199 40.8747 292.551 40.4265C292.566 40.3974 292.571 40.3641 292.562 40.3325C292.554 40.3009 292.533 40.2732 292.504 40.2545C292.49 40.2456 292.474 40.2394 292.457 40.2365C292.44 40.2335 292.423 40.2337 292.406 40.2372C292.389 40.2406 292.374 40.2472 292.36 40.2565C292.346 40.2658 292.334 40.2777 292.325 40.2914C291.992 40.7009 291.558 41.0301 291.058 41.2514C290.559 41.4726 290.01 41.5793 289.457 41.5626C289.44 41.5625 289.423 41.5657 289.407 41.572C289.391 41.5782 289.377 41.5874 289.365 41.5989C289.354 41.6104 289.345 41.624 289.339 41.6388C289.333 41.6537 289.33 41.6696 289.331 41.6854C289.331 41.718 289.345 41.7492 289.37 41.7722C289.395 41.7953 289.428 41.8082 289.463 41.8082Z" fill="#263238"/>
<path d="M301.187 40.5124C300.859 41.0116 300.424 41.4433 299.909 41.7812C299.394 42.1191 298.81 42.356 298.193 42.4776C296.53 42.803 295.748 41.3845 296.259 39.972C296.722 38.7009 298.14 37.0059 299.79 37.3191C300.148 37.3901 300.483 37.5414 300.764 37.7599C301.045 37.9783 301.264 38.2573 301.402 38.5723C301.54 38.8873 301.592 39.2289 301.555 39.5671C301.517 39.9053 301.391 40.2299 301.187 40.5124Z" fill="#FFB573"/>
<path opacity="0.2" d="M294.355 107.07L296.621 111.203C295.581 119.015 294.389 128.595 293.594 137.063C291.785 128.545 290.613 112.192 294.355 107.07Z" fill="black"/>
<path d="M289.743 95.5469C289.743 95.5469 296.182 129.605 299.057 143.508C302.211 158.732 320.462 193.877 320.462 193.877L329.332 191.052C329.332 191.052 314.672 156.048 313.082 141.027C311.273 123.949 308.663 95.7557 308.663 95.7557L289.743 95.5469Z" fill="#263238"/>
<path d="M319.738 194.319L330.191 190.99L329.006 188.055L317.85 191.395L319.738 194.319Z" fill="#407BFF"/>
<path d="M290.988 36.4954C290.988 36.8823 290.783 37.1954 290.511 37.1893C290.24 37.1832 290.008 36.87 290.001 36.4831C289.995 36.0962 290.2 35.783 290.478 35.7892C290.756 35.7953 290.982 36.1085 290.988 36.4954Z" fill="#263238"/>
<path d="M286.266 36.4328C286.266 36.8197 286.06 37.1329 285.789 37.1267C285.517 37.1206 285.285 36.8074 285.272 36.4205C285.259 36.0336 285.477 35.7266 285.756 35.7266C286.034 35.7266 286.252 36.052 286.266 36.4328Z" fill="#263238"/>
<path d="M287.772 36.6719C287.305 37.8462 286.663 38.9542 285.864 39.9635C286.62 40.6144 287.918 40.2398 287.918 40.2398L287.772 36.6719Z" fill="#ED893E"/>
<path d="M292.421 35.0938C292.376 35.1012 292.331 35.0971 292.289 35.0819C292.246 35.0667 292.21 35.0411 292.182 35.0078C291.999 34.773 291.759 34.5805 291.482 34.4453C291.205 34.3101 290.899 34.2357 290.586 34.2279C290.52 34.2313 290.456 34.2107 290.406 34.1705C290.357 34.1303 290.326 34.0738 290.321 34.0129C290.317 33.9837 290.32 33.9541 290.329 33.926C290.338 33.8978 290.354 33.8717 290.374 33.8493C290.395 33.8268 290.42 33.8085 290.448 33.7955C290.477 33.7824 290.508 33.7749 290.539 33.7734C290.935 33.777 291.324 33.866 291.676 34.0334C292.028 34.2007 292.333 34.4419 292.567 34.7376C292.605 34.7854 292.623 34.8452 292.616 34.9046C292.608 34.964 292.576 35.0185 292.527 35.0569C292.494 35.0755 292.458 35.088 292.421 35.0938Z" fill="#263238"/>
<path d="M284.197 34.9057C284.149 34.9202 284.098 34.9202 284.051 34.9057C283.992 34.8802 283.946 34.8347 283.923 34.7787C283.899 34.7226 283.9 34.6603 283.925 34.6048C284.083 34.2834 284.324 34.0031 284.626 33.7888C284.929 33.5745 285.285 33.4329 285.661 33.3766C285.725 33.3695 285.791 33.3861 285.843 33.4227C285.894 33.4594 285.929 33.5133 285.939 33.5731C285.943 33.6022 285.942 33.6318 285.934 33.6603C285.926 33.6888 285.912 33.7155 285.893 33.739C285.874 33.7624 285.85 33.7821 285.823 33.7968C285.795 33.8116 285.765 33.8211 285.733 33.8249C285.441 33.8827 285.168 34.005 284.937 34.1814C284.707 34.3578 284.525 34.583 284.409 34.8382C284.382 34.8651 284.349 34.8854 284.312 34.8973C284.275 34.9091 284.235 34.912 284.197 34.9057Z" fill="#263238"/>
<path d="M324.121 200.931C323.853 201.138 323.516 201.253 323.167 201.257C323.044 201.247 322.926 201.209 322.822 201.147C322.718 201.085 322.632 201 322.571 200.901C322.527 200.848 322.501 200.785 322.494 200.719C322.486 200.652 322.5 200.586 322.531 200.526C322.81 199.998 324.764 199.912 324.983 199.875C325.007 199.874 325.032 199.88 325.053 199.892C325.074 199.904 325.091 199.922 325.102 199.943C325.117 199.96 325.125 199.982 325.125 200.004C325.125 200.026 325.117 200.048 325.102 200.065C324.813 200.389 324.484 200.68 324.121 200.931ZM322.863 200.526C322.816 200.551 322.777 200.587 322.75 200.63C322.735 200.654 322.728 200.68 322.728 200.707C322.728 200.734 322.735 200.761 322.75 200.784C322.791 200.852 322.849 200.91 322.919 200.953C322.99 200.996 323.07 201.022 323.154 201.03C323.518 201.06 324.082 200.729 324.678 200.127C324.05 200.147 323.433 200.283 322.863 200.526Z" fill="#407BFF"/>
<path d="M325.069 200.08C325.052 200.086 325.033 200.086 325.016 200.08C324.413 200.148 322.896 199.835 322.637 199.337C322.598 199.261 322.588 199.175 322.61 199.093C322.632 199.011 322.684 198.939 322.757 198.889C322.825 198.831 322.906 198.786 322.993 198.759C323.081 198.731 323.174 198.721 323.267 198.729C324.042 198.784 325.042 199.853 325.089 199.896C325.1 199.914 325.105 199.934 325.105 199.954C325.105 199.975 325.1 199.995 325.089 200.013C325.091 200.037 325.084 200.061 325.069 200.08ZM322.969 199.042H322.929C322.81 199.147 322.843 199.208 322.856 199.233C323.008 199.528 324.055 199.847 324.724 199.847C324.341 199.419 323.833 199.104 323.26 198.938C323.152 198.936 323.048 198.974 322.969 199.042Z" fill="#407BFF"/>
<path d="M304.319 61.4061L305.949 63.2484C306.498 63.8625 307.042 64.5073 307.578 65.1521C308.651 66.4294 309.698 67.7231 310.718 69.0332C311.719 70.3474 312.706 71.6738 313.593 73.0126C314.481 74.3513 315.336 75.7146 316.031 77.0779L316.17 77.3359L316.223 77.4525C316.273 77.5449 316.313 77.6416 316.343 77.7412C316.433 78.0191 316.504 78.3022 316.555 78.5886C316.683 79.2935 316.763 80.0053 316.793 80.7196C316.859 82.2364 316.84 83.8515 316.747 85.4727C316.575 88.7151 316.257 92.0681 315.905 95.3597L319.695 96.1765C320.945 92.9002 321.931 89.5419 322.643 86.1298C323.01 84.3667 323.262 82.5846 323.398 80.7932C323.461 79.8197 323.461 78.8436 323.398 77.8701C323.35 77.3176 323.269 76.7681 323.153 76.2243C323.073 75.9234 323.014 75.6409 322.888 75.297L322.716 74.818L322.577 74.4987C321.139 71.1473 319.322 67.9463 317.158 64.9494C316.111 63.4756 315.011 62.0509 313.845 60.6507C313.269 59.9568 312.679 59.2752 312.076 58.5935C311.474 57.9119 310.877 57.267 310.188 56.5547L304.319 61.4061Z" fill="#FFB573"/>
<path d="M309.202 54.044C314.13 54.6949 319.477 65.4539 319.477 65.4539L310.149 73.6338C310.149 73.6338 306.28 68.2235 303.094 62.973C299.629 57.2557 303.239 53.2579 309.202 54.044Z" fill="#407BFF"/>
<path d="M316.356 94.3203L313.236 98.1462L319.721 99.6016C319.721 99.6016 321.576 95.7757 319.457 94.5659L316.356 94.3203Z" fill="#FFB573"/>
<path d="M313.343 102.159L318.755 103.129L319.723 99.6039L313.237 98.1484L313.343 102.159Z" fill="#FFB573"/>
</svg>
