<svg width="155" height="150" viewBox="0 0 155 150" fill="none" xmlns="http://www.w3.org/2000/svg">
<g id="Group 679">
<g id="background-simple">
<path id="Vector" d="M132.387 121.915C130.999 122.675 129.569 123.355 128.104 123.952C115.498 129.076 98.8472 128.527 87.9943 119.734C81.5379 114.497 79.3922 105.716 74.8751 98.7335C69.2053 89.9835 59.5362 84.1423 51.0004 78.4881C39.4855 70.8596 29.2596 62.6625 26.2729 48.6437C23.7845 36.9887 26.818 23.9668 36.1405 16.1358C45.0113 8.68637 56.347 3.70192 67.5503 1.015C77.1921 -1.2981 85.763 0.0103182 91.9702 8.41378C96.0278 13.9006 98.0255 20.5867 100.237 27.0393C102.737 34.3368 106.024 43.4685 112.776 47.8883C119.225 52.1095 127.963 51.9693 134.973 55.0534C146.499 60.1469 153.847 72.7482 154.015 85.3495C154.213 100.311 145.366 114.816 132.387 121.915Z" fill="#407BFF"/>
<path id="Vector_2" opacity="0.9" d="M132.387 121.915C130.999 122.675 129.569 123.355 128.104 123.952C115.498 129.076 98.8472 128.527 87.9943 119.734C81.5379 114.497 79.3922 105.716 74.8751 98.7335C69.2053 89.9835 59.5362 84.1423 51.0004 78.4881C39.4855 70.8596 29.2596 62.6625 26.2729 48.6437C23.7845 36.9887 26.818 23.9668 36.1405 16.1358C45.0113 8.68637 56.347 3.70192 67.5503 1.015C77.1921 -1.2981 85.763 0.0103182 91.9702 8.41378C96.0278 13.9006 98.0255 20.5867 100.237 27.0393C102.737 34.3368 106.024 43.4685 112.776 47.8883C119.225 52.1095 127.963 51.9693 134.973 55.0534C146.499 60.1469 153.847 72.7482 154.015 85.3495C154.213 100.311 145.366 114.816 132.387 121.915Z" fill="white"/>
</g>
<g id="Shadow">
<path id="path" d="M76.1511 150C117.85 150 151.654 148.026 151.654 145.592C151.654 143.157 117.85 141.184 76.1511 141.184C34.4521 141.184 0.648438 143.157 0.648438 145.592C0.648438 148.026 34.4521 150 76.1511 150Z" fill="#F5F5F5"/>
</g>
<path id="Vector_3" d="M143.92 59.3767C143.826 57.9709 143.671 56.5492 143.463 55.1552L143.92 55.0918C144.128 56.4977 144.283 57.9313 144.381 59.349L143.92 59.3767Z" fill="#407BFF"/>
<path id="Vector_4" d="M142.431 49.5825C141.4 45.4031 139.897 41.365 137.954 37.5524L138.34 37.3398C140.298 41.1845 141.813 45.2562 142.851 49.4703L142.431 49.5825Z" fill="#407BFF"/>
<path id="Vector_5" d="M89.2548 116.241C118.566 116.241 142.957 92.4887 143.733 63.1881C144.51 33.8876 121.379 10.1348 92.0681 10.1348C62.7572 10.1348 38.3663 33.8876 37.5895 63.1881C36.8126 92.4887 59.944 116.241 89.2548 116.241Z" fill="#407BFF"/>
<g id="Group" opacity="0.2">
<path id="Vector_6" opacity="0.4" d="M94.9544 116.228H94.9037L94.5416 116.256L95.2152 116.132C94.5182 116.18 93.5875 116.232 92.8788 116.264L92.4894 116.375L91.5898 116.399C91.7386 116.308 91.8704 116.19 91.9793 116.052C92.8827 116.028 94.0937 115.976 94.9972 115.932L94.7168 116.08L96.0174 115.98L94.9466 116.224" fill="white"/>
<path id="Vector_7" d="M86.0959 115.916C85.3405 115.856 84.3319 115.768 83.5765 115.692C81.7813 114.712 81.7112 114.672 80.2275 113.064C81.3451 113.172 82.8366 113.308 83.9542 113.392C85.0173 115.072 85.0601 115.136 86.0959 115.916Z" fill="white"/>
<path id="Vector_8" d="M81.4781 114.821C79.3948 114.549 79.0755 114.505 77.3932 114.202C73.7445 112.018 72.2219 110.687 69.1494 106.076C72.3426 106.628 72.8332 106.716 75.7966 107.084C77.7826 111.199 78.7678 112.714 81.4781 114.821Z" fill="white"/>
<path id="Vector_9" d="M84.6825 116.076C84.2074 116.013 83.5726 115.933 83.0976 115.861L82.3811 115.749L81.8164 115.641C82.4434 115.733 83.2767 115.853 83.9036 115.933L84.6825 116.076Z" fill="white"/>
<path id="Vector_10" opacity="0.4" d="M91.1736 116.407H90.2585C88.7904 116.379 88.7592 116.379 88.0116 116.339C86.4812 116.243 86.4539 116.239 85.6751 116.163L85.2039 116.111C84.6574 116.014 84.1175 115.88 83.5879 115.711C84.3433 115.787 85.3519 115.875 86.1074 115.935C87.9688 116.039 88.9929 116.095 91.415 116.083C91.3566 116.195 91.3021 116.403 91.1853 116.427" fill="white"/>
<path id="Vector_11" d="M87.4432 115.72C87.4432 115.756 87.5171 115.916 86.9603 115.896C86.2749 115.848 85.7921 115.596 85.979 115.456C86.236 115.256 87.303 115.456 87.4432 115.72Z" fill="white"/>
<path id="Vector_12" opacity="0.4" d="M89.7532 115.788C89.7532 115.808 89.7181 115.98 89.1223 115.976C88.5265 115.972 88.1722 115.752 88.3162 115.604C88.5694 115.352 89.7765 115.504 89.7532 115.788Z" fill="white"/>
<path id="Vector_13" opacity="0.4" d="M92.0928 115.78C92.0928 115.8 91.9371 115.976 91.314 115.992C90.7727 115.992 90.5352 115.832 90.6715 115.692C90.9246 115.404 92.1357 115.436 92.1084 115.728C92.1043 115.747 92.0978 115.764 92.0889 115.78" fill="white"/>
<path id="Vector_14" opacity="0.4" d="M97.4858 111.163C96.115 111.223 94.2887 111.299 92.918 111.331C93.1633 109.035 93.2061 108.619 93.4047 105.936C95.0597 105.888 97.2599 105.812 98.911 105.732C98.5575 107.574 98.0813 109.388 97.4858 111.163Z" fill="white"/>
<path id="Vector_15" opacity="0.4" d="M91.9642 109.611C90.4923 109.611 88.5257 109.591 87.0538 109.559C86.7461 106.948 86.6916 106.476 86.4502 103.529C88.1792 103.561 90.4884 103.589 92.2174 103.589C92.1044 106.688 92.0849 107.248 91.9642 109.611Z" fill="white"/>
<path id="Vector_16" opacity="0.4" d="M98.6006 112.965C97.3857 113.041 95.7657 113.137 94.5508 113.189L94.8312 112.181C96.1318 112.121 97.8647 112.029 99.1653 111.941L98.6006 112.965Z" fill="white"/>
<path id="Vector_17" opacity="0.4" d="M111.057 100.253C109.597 100.445 107.65 100.697 106.186 100.857L106.774 98.2294C108.292 98.0494 110.313 97.8095 111.836 97.6016L111.057 100.253Z" fill="white"/>
<path id="Vector_18" opacity="0.4" d="M92.2259 103.391C90.4891 103.391 88.1722 103.367 86.4354 103.331C86.1901 99.6641 86.1784 99.5201 86.0693 97.2129C87.9658 97.2449 90.4891 97.2769 92.3856 97.2769C92.2882 101.404 92.2882 101.404 92.2259 103.391Z" fill="white"/>
<path id="Vector_19" d="M85.6907 107.898C82.2055 107.726 80.0988 107.622 75.8659 107.142C74.5808 103.883 74.0473 102.535 72.9453 97.5449C76.929 97.9848 79.3394 98.2367 84.7172 98.4806C85.0092 102.267 85.1572 104.171 85.6751 107.91" fill="white"/>
<path id="Vector_20" opacity="0.4" d="M104.464 104.816C100.726 105.14 98.4669 105.336 93.502 105.448C93.7083 102.085 93.8135 100.397 93.9965 95.095C98.4864 94.9631 101.201 94.8831 106.754 94.3633C106.076 98.49 105.737 100.561 104.464 104.816Z" fill="white"/>
<path id="Vector_21" opacity="0.4" d="M71.3377 95.9049C67.4715 95.423 63.633 94.7303 59.8385 93.8295C59.3945 92.23 58.8182 90.0747 58.4561 88.4473C62.4212 89.3908 66.4326 90.1156 70.4732 90.6186C70.7108 92.218 71.0418 94.3254 71.3377 95.9049Z" fill="white"/>
<path id="Vector_22" opacity="0.3" d="M63.5023 88.8861C60.3081 88.2907 57.1458 87.5273 54.0279 86.5989C53.1634 81.8724 52.7312 79.5012 52.6533 73.623C55.8911 74.5886 59.1757 75.3801 62.4937 75.9943C62.6066 80.4329 62.6884 83.6358 63.5023 88.8861Z" fill="white"/>
<path id="Vector_23" d="M108.323 110.437C105.562 110.885 104.818 111.005 101.345 111.377L101.87 110.421C104.986 110.085 105.803 109.993 109.187 109.438L108.323 110.437Z" fill="white"/>
<path id="Vector_24" d="M105.356 113.101C102.934 113.501 102.56 113.553 100.399 113.797L100.477 113.721L99.6162 113.809L100.126 113.197C102.747 112.909 103.452 112.833 106.314 112.365L105.356 113.101Z" fill="white"/>
<path id="Vector_25" d="M67.2406 88.2647C67.2406 88.7045 66.9914 89.4203 65.9672 89.3043C64.4719 88.9884 63.8527 87.245 64.7094 86.6132C65.5661 85.9814 67.2172 87.0131 67.2406 88.2647Z" fill="white"/>
<path id="Vector_26" d="M102.494 106.742C102.325 107.01 102.095 107.233 101.824 107.389C101.552 107.545 101.247 107.63 100.936 107.637C99.8923 107.685 99.6119 107.045 100.075 106.49C100.757 105.69 102.443 105.594 102.548 106.382C102.561 106.506 102.538 106.631 102.482 106.742" fill="white"/>
<path id="Vector_27" d="M66.8037 83.5074C66.8045 83.6807 66.7672 83.8519 66.6944 84.0083C66.6216 84.1646 66.5152 84.302 66.3833 84.4101C66.2514 84.5182 66.0974 84.5943 65.9328 84.6325C65.7682 84.6708 65.5973 84.6703 65.4329 84.631C63.9142 84.3071 63.3769 82.4517 64.2959 81.7719C65.2149 81.0922 66.8465 82.1718 66.8037 83.5074Z" fill="white"/>
<path id="Vector_28" opacity="0.4" d="M121.073 105.707C119.558 106.41 117.996 107.003 116.4 107.483C117.362 106.431 118.632 105.015 119.516 103.884C121.12 103.405 122.693 102.824 124.228 102.144L124.753 101.896C123.678 103.064 122.393 104.824 121.081 105.695" fill="white"/>
<path id="Vector_29" opacity="0.4" d="M133.49 93.1427C132.789 94.1184 131.886 95.446 131.154 96.3937L129.729 98.1451C129.1 98.8512 128.379 99.4648 127.587 99.9685C128.615 98.6249 129.974 96.8175 130.916 95.406C132.677 94.1064 132.712 94.0824 133.724 92.7988L133.494 93.1427" fill="white"/>
<path id="Vector_30" opacity="0.4" d="M141.642 72.7888C141.151 75.0441 140.415 78.0311 139.765 80.2384C140.392 78.0311 141.131 75.0401 141.587 72.8048L141.758 72.125L141.642 72.7888Z" fill="white"/>
<path id="Vector_31" opacity="0.4" d="M125.908 102.184C126.71 101.352 127.812 100.277 128.58 99.413L129.027 98.9531C128.097 99.9288 126.878 101.248 125.912 102.184" fill="white"/>
<path id="Vector_32" opacity="0.4" d="M121.715 105.78L122.681 105.016L122.91 104.832L121.715 105.78Z" fill="white"/>
<path id="Vector_33" opacity="0.4" d="M126.201 78.2993C126.034 80.1387 125.812 82.5939 125.539 84.4253C123.946 84.8252 121.816 85.325 120.212 85.6689C120.78 80.3706 120.812 80.0707 120.893 75.3282C122.529 74.9684 124.71 74.4685 126.345 74.0566C126.306 75.3282 126.306 77.0277 126.209 78.2993" fill="white"/>
<path id="Vector_34" opacity="0.4" d="M132.77 81.9864C130.416 82.9662 128 83.7811 125.539 84.4256C125.769 82.5902 126.057 80.143 126.201 78.2996C130.29 77.1 130.368 77.1 133.573 75.8164C133.366 77.6718 133.078 80.147 132.77 81.9864Z" fill="white"/>
<path id="Vector_35" opacity="0.4" d="M130.08 91.3233C128.912 91.7712 127.385 92.351 126.221 92.7469C127.743 88.0564 127.837 87.7765 128.651 83.5098C129.893 83.074 131.548 82.4782 132.771 81.9863C131.622 87.0847 131.552 87.3886 130.08 91.3233Z" fill="white"/>
<path id="Vector_36" opacity="0.4" d="M138.519 71.3217C137.14 72.1014 135.275 73.1051 133.846 73.7969C133.09 65.4396 133.067 65.1157 131.638 58.3738C133.005 57.6941 134.819 56.7744 136.139 55.9746C137.853 64 137.954 64.4799 138.515 71.3137" fill="white"/>
<path id="Vector_37" opacity="0.4" d="M139.753 79.8715C138.744 81.295 137.599 82.9105 132.817 85.1218C133.207 83.3464 133.729 80.9711 134.025 79.1757C134.994 78.6919 136.279 78.0281 137.218 77.4802C139.165 76.1247 140.053 75.5049 141.155 73.7734C140.765 75.6128 140.551 78.172 139.753 79.8715Z" fill="white"/>
<path id="Vector_38" opacity="0.4" d="M126.692 100.845C126.214 101.117 125.579 101.493 125.084 101.741L124.745 101.908L124.22 102.156C126.665 98.9574 128.016 97.186 129.928 93.1273C130.809 92.6914 131.973 92.0876 132.822 91.5918C131.568 93.8911 128.457 99.3933 126.692 100.845Z" fill="white"/>
<path id="Vector_39" opacity="0.4" d="M124.826 94.1156C123.436 94.5155 121.575 94.9993 120.173 95.3392C121.536 90.8087 121.618 90.5407 122.373 86.3781C123.876 86.0022 125.878 85.4864 127.365 85.0625C126.259 90.0289 126.197 90.3248 124.826 94.1156Z" fill="white"/>
<path id="Vector_40" opacity="0.4" d="M111.913 108.618L110.904 108.826C113.054 105.983 113.241 105.751 114.798 102.828L115.998 102.584C113.217 107.382 112.248 108.43 111.917 108.63" fill="white"/>
<path id="Vector_41" opacity="0.4" d="M110.274 108.949L109.211 109.141C111.181 106.342 111.341 106.102 112.778 103.191L114.044 102.963C111.458 107.761 110.57 108.765 110.274 108.961" fill="white"/>
<path id="Vector_42" opacity="0.4" d="M108.548 109.254L107.438 109.43C109.257 106.595 109.366 106.423 110.667 103.536L111.991 103.324C110.332 106.659 110.199 106.923 108.548 109.254Z" fill="white"/>
<path id="Vector_43" opacity="0.4" d="M139.063 74.3686C138.989 74.8805 138.736 75.8481 138.284 76.224C137.778 76.5239 137.688 75.5003 137.949 74.4526C138.21 73.4049 138.747 72.7012 138.993 73.145C139.13 73.5376 139.153 73.9628 139.059 74.3686" fill="white"/>
<path id="Vector_44" opacity="0.4" d="M134.429 87.9373C134.04 88.817 133.128 90.4845 132.038 91.1363C130.994 91.6121 131.162 90.2646 131.532 89.2449C132.361 86.9496 134.382 84.8223 134.811 85.794C134.978 86.1939 134.834 86.9936 134.421 87.9333" fill="white"/>
<path id="Vector_45" opacity="0.4" d="M100.394 113.797L99.2262 114.82C98.576 115.219 97.8994 115.571 97.2013 115.872L97.0416 115.892L96.033 115.984L94.7324 116.084L95.0128 115.936L95.2036 115.812C96.2784 114.844 96.2784 114.844 96.7924 114.033L97.9606 113.953L99.6312 113.809L100.492 113.721L100.414 113.797" fill="white"/>
<path id="Vector_46" opacity="0.4" d="M94.5425 116.261C93.935 116.301 93.1251 116.349 92.5176 116.377L92.907 116.265C93.6079 116.233 94.5386 116.181 95.2434 116.133L94.5698 116.257" fill="white"/>
<path id="Vector_47" opacity="0.4" d="M140.637 72.8906C140.563 73.4064 140.352 74.3821 140.021 74.77C139.702 75.0459 139.686 74.3021 139.729 73.8183C139.838 72.6187 140.333 71.2951 140.586 71.575C140.711 71.711 140.73 72.2308 140.637 72.8906Z" fill="white"/>
<path id="Vector_48" opacity="0.4" d="M141.649 71.3468C141.582 71.9957 141.433 72.6329 141.205 73.2422C141.17 73.2942 141.1 73.3942 141.069 73.1862C140.948 72.4505 141.458 69.8073 141.676 69.9873C141.754 70.0593 141.747 70.6111 141.649 71.3268" fill="white"/>
<path id="Vector_49" d="M71.8122 111.493C70.9166 111.269 69.725 110.961 68.8371 110.693C65.7452 108.266 65.5583 108.118 63.2686 105.551C64.3901 105.863 65.8854 106.263 67.0108 106.534C69.4095 109.43 69.5536 109.605 71.8122 111.477" fill="white"/>
<path id="Vector_50" d="M66.5128 108.878C64.9546 108.411 63.4297 107.833 61.9489 107.15C60.7807 106.115 59.2036 104.719 58.0938 103.604C58.9738 104.003 60.1537 104.491 61.0533 104.835C61.7192 105.055 62.6109 105.363 63.269 105.563C64.2192 106.583 65.4925 107.934 66.5128 108.878Z" fill="white"/>
<path id="Vector_51" opacity="0.7" d="M57.4589 100.081C58.4869 101.552 59.9161 103.472 61.057 104.851C60.1614 104.499 58.9737 104.02 58.0975 103.62C55.0446 100.097 54.8615 99.885 52.7354 96.498L53.9269 97.0459C54.6045 97.3138 55.4846 97.6857 56.1816 97.9336L57.4589 100.081Z" fill="white"/>
<path id="Vector_52" opacity="0.7" d="M62.2995 101.54C63.0238 102.716 63.9934 104.279 64.7917 105.403C63.6936 105.095 62.2372 104.675 61.1507 104.327C60.2706 103.16 59.1063 101.592 58.3041 100.365C57.7745 99.433 57.0424 98.2134 56.5557 97.2617C57.8135 97.6616 59.4957 98.1574 60.7691 98.5013C61.2247 99.417 61.7854 100.661 62.2995 101.54Z" fill="white"/>
<path id="Vector_53" d="M57.6722 95.8661C57.7968 96.242 57.8201 96.8218 57.0997 96.6339C55.8848 96.19 54.9775 94.4426 55.6005 94.1586C56.1457 93.9147 57.3451 94.9024 57.6722 95.8661Z" fill="white"/>
<path id="Vector_54" d="M52.2527 86.6423C52.6615 88.0898 53.195 90.0252 53.6701 91.4407L52.0852 90.8849C50.917 90.381 49.336 89.6853 48.1911 89.0855C46.3531 83.8272 46.318 83.7272 45.2783 78.041C47.1674 79.0446 49.1294 79.8962 51.1467 80.5882C51.4427 82.4156 51.8126 84.8668 52.2604 86.6622" fill="white"/>
<path id="Vector_55" d="M48.3889 90.9546L47.2479 90.2069C45.188 85.3844 44.3391 83.3851 43.1475 76.6992L44.3975 77.519C45.3944 82.8252 45.8071 85.0205 48.3889 90.9546Z" fill="white"/>
<path id="Vector_56" d="M43.2995 84.8415L42.6803 83.362L41.3174 79.5312L41.4965 80.0071C42.0183 81.4626 42.6998 83.414 43.2995 84.8415Z" fill="white"/>
<path id="Vector_57" opacity="0.7" d="M41.4926 61.167L40.8968 60.5712L40.8774 60.7432C39.7091 59.2236 39.7091 59.2236 39.4443 58.4439L39.8532 55.6728C39.7321 55.1596 39.6553 54.6364 39.6235 54.1093L39.9856 52.2739V52.8417C40.5775 50.5624 41.4732 47.5514 42.2364 45.3281C42.5674 46.7397 42.7193 47.3835 44.3509 48.9949C42.8867 53.5975 42.0806 56.1326 41.4771 61.167" fill="white"/>
<path id="Vector_58" d="M39.4405 58.4415C39.016 63.7598 38.981 64.1916 39.1601 67.6865C39.0589 67.3069 38.9822 66.9209 38.9303 66.5309L38.8291 63.1C39.0666 57.3538 39.0705 57.2419 39.5807 54.1229L39.6819 53.5391L39.6196 54.1069C39.653 54.6338 39.7299 55.1568 39.8494 55.6704L39.4405 58.4415Z" fill="white"/>
<path id="Vector_59" d="M40.3042 75.8519L40.1134 75.0161L39.5254 71.9531L39.5916 72.265L40.3042 75.8519Z" fill="white"/>
<path id="Vector_60" d="M39.4257 70.6415C39.4607 70.9574 39.5191 71.5052 39.5075 71.6412C39.4945 71.6219 39.4852 71.6001 39.4802 71.5772C39.4802 71.5012 39.4335 71.3573 39.3634 70.8654L39.1375 69.022C39.1058 68.7901 39.0876 68.5564 39.083 68.3223C39.1492 68.4142 39.3556 70.0377 39.4257 70.6415Z" fill="white"/>
<path id="Vector_61" d="M91.3098 11.3086C91.686 11.3296 92.0606 11.375 92.4313 11.4445L90.749 12.0604L91.3098 11.3086Z" fill="white"/>
<path id="Vector_62" d="M78.833 12.1679L80.0519 12L78.833 12.1679Z" fill="white"/>
<path id="Vector_63" opacity="0.7" d="M80.0137 12.0286L80.0526 12.0006L80.2979 11.8567C85.076 11.5528 85.6913 11.5168 90.7497 12.0726C85.5705 11.6447 85.0293 11.5968 80.0137 12.0286Z" fill="white"/>
<path id="Vector_64" opacity="0.7" d="M79.9433 16.5723C79.6552 16.4643 79.2658 16.3204 78.9815 16.2004C77.4706 17.0681 75.4768 18.2398 74.0087 19.1954C74.4176 19.3554 74.9628 19.5953 75.3756 19.7193L75.0329 19.9912C74.5305 19.8072 73.8647 19.5473 73.3662 19.3354C77.7354 16.5963 77.9963 16.4323 81.8398 14.7129C82.0578 14.8049 82.3499 14.9288 82.5758 15.0088L82.1279 15.2327L82.2525 15.2767L79.9433 16.5723Z" fill="white"/>
<path id="Vector_65" opacity="0.4" d="M68.3893 19.4717C68.1267 19.1936 67.8834 18.897 67.6611 18.584C72.7819 16.0128 72.9805 15.9128 77.8637 14.2773C77.9821 14.4517 78.1122 14.6174 78.2531 14.7732C73.0038 16.8605 72.8013 16.9405 68.3699 19.4717" fill="white"/>
<path id="Vector_66" d="M78.2725 14.772L80.679 13.9883L78.2725 14.772Z" fill="white"/>
<path id="Vector_67" opacity="0.4" d="M61.4772 29.4877C60.443 29 59.4659 28.3937 58.5645 27.6803C64.2537 22.374 67.0108 20.2707 74.3044 16.5879C74.7641 16.9533 75.2633 17.2632 75.7919 17.5116C70.0209 21.1104 67.2911 23.1098 61.4772 29.4877Z" fill="white"/>
<path id="Vector_68" opacity="0.7" d="M81.3605 14.4734C81.1814 14.3615 80.9477 14.2095 80.7803 14.0736C85.9516 12.694 86.3722 12.5821 90.7492 12.0742C85.7569 13.0099 85.348 13.0859 81.3605 14.4734Z" fill="white"/>
<path id="Vector_69" opacity="0.4" d="M59.826 25.8777C59.4638 25.4928 59.1281 25.0826 58.8213 24.6501C63.1437 21.2751 63.4008 21.0512 67.3533 18.752C67.5773 19.0696 67.8232 19.3703 68.0892 19.6517C63.5565 22.6827 63.2839 22.8506 59.826 25.8777Z" fill="white"/>
<path id="Vector_70" opacity="0.4" d="M62.871 21.3753C62.5634 20.5475 62.4271 20.1757 62.8476 19.12C67.8399 16.3729 67.9333 16.3209 73.1319 14.4375C73.0187 14.6567 72.9596 14.9011 72.9596 15.1493C72.9596 15.3974 73.0187 15.6418 73.1319 15.861C67.7464 18.2603 67.6452 18.3202 62.8554 21.3753" fill="white"/>
<path id="Vector_71" opacity="0.7" d="M83.3582 14.4415C83.1479 14.3535 82.8714 14.2335 82.665 14.1336C87.3886 12.666 87.6728 12.5781 90.7492 12.0742C88.4639 12.6236 86.215 13.3221 84.0163 14.1655C83.814 14.2956 83.5914 14.389 83.3582 14.4415Z" fill="white"/>
<path id="Vector_72" opacity="0.7" d="M87.4426 13.2299L87.0999 13.122C86.0446 13.5218 84.6233 14.0577 83.5952 14.5295L83.4395 14.4695C87.723 12.8061 87.9722 12.7061 90.7565 12.0703L88.5602 12.7221L88.6614 12.7541L87.4426 13.2299Z" fill="white"/>
<path id="Vector_73" d="M75.5737 14.9483C75.1843 15.0763 74.2692 15.3722 74.168 15.2722C74.1874 15.0243 76.9756 14.0726 77.182 14.2686C77.1586 14.4125 75.5893 14.9403 75.5737 14.9483Z" fill="white"/>
<path id="Vector_74" d="M75.4254 14.4753C74.9426 14.6233 74.1209 14.8752 74.0664 14.7592C74.1638 14.5193 76.7378 13.7356 77.0921 13.8395V13.8635C76.5519 14.109 75.9948 14.3135 75.4254 14.4753Z" fill="white"/>
<path id="Vector_75" d="M75.4569 14.0093C75.0394 14.1606 74.6025 14.2482 74.1602 14.2692C74.3432 14.0213 76.886 13.3215 77.1703 13.4414C77.1314 13.5534 75.9592 13.8853 75.4569 14.0253" fill="white"/>
<path id="Vector_76" opacity="0.4" d="M54.5723 25.4164C54.8638 24.9453 55.1878 24.4963 55.5419 24.0728C59.3971 20.7658 59.6268 20.5659 63.2211 18.3066C62.9448 18.638 62.6923 18.9895 62.4656 19.3583C58.0964 22.2974 57.8355 22.4733 54.5723 25.4164Z" fill="white"/>
<path id="Vector_77" d="M42.2479 45.3264C41.4885 47.5537 40.5812 50.5608 39.9971 52.84V52.2722L40.0905 51.5444C40.5539 49.753 41.1809 47.3618 41.7455 45.6024L42.2206 44.2628L43.4901 41.1758C43.3448 41.7648 43.2613 42.368 43.2409 42.9752L42.2634 45.3264" fill="white"/>
<path id="Vector_78" d="M45.3596 46.6237C44.0823 45.2642 43.4982 44.6484 43.2256 42.9769C43.2477 42.3698 43.3312 41.7668 43.4748 41.1775C44.2926 39.538 45.4024 37.3627 46.3214 35.7832C46.006 37.1068 45.6555 38.6103 48.0932 40.9016C47.2404 42.601 46.1189 44.8763 45.3673 46.6237" fill="white"/>
<path id="Vector_79" opacity="0.4" d="M67.5439 16.3342C67.8005 16.0319 68.0735 15.7449 68.3617 15.4744L70.2893 14.6747L70.0167 14.9186C74.7325 13.3191 74.8259 13.2911 77.3765 12.7793C77.2831 12.8833 77.1507 13.0152 77.0689 13.1272C71.9131 14.4947 71.6172 14.5787 67.5478 16.3262" fill="white"/>
<path id="Vector_80" opacity="0.4" d="M64.5654 17.827C64.8518 17.4851 65.1587 17.1619 65.4844 16.8593L67.708 15.7637C67.4123 16.0412 67.1328 16.3363 66.8707 16.6474L64.5654 17.847" fill="white"/>
<path id="Vector_81" opacity="0.4" d="M46.6016 36.6288C46.6234 36.0652 46.7004 35.5052 46.8313 34.9574C49.7753 30.7227 49.8337 30.6428 51.7262 28.5234C51.6072 29.0092 51.538 29.5064 51.5198 30.007C48.2098 34.1016 48.1475 34.1776 46.6016 36.6288Z" fill="white"/>
<path id="Vector_82" opacity="0.4" d="M45.6709 36.7744L45.8267 36.4825C46.9949 34.6191 48.5525 32.1758 49.8415 30.4004C53.1008 26.4377 53.1631 26.3617 55.2037 24.4023C54.7745 24.888 54.3838 25.4082 54.0354 25.9578C50.4178 29.7766 48.9225 31.3561 45.6826 36.7944" fill="white"/>
<path id="Vector_83" d="M61.8861 42.6683C61.3137 43.8 60.1026 44.0839 59.7911 43.1642C59.4796 42.2445 60.4881 40.601 61.5668 40.8249C62.295 41.0928 62.1899 42.0645 61.8861 42.6683ZM65.0637 45.3035C65.6829 43.6 66.5201 41.3328 67.1977 39.6533C66.4189 39.4734 65.3519 39.2534 64.5653 39.0535L65.8503 36.4463L64.978 36.2184C64.4095 37.342 63.6307 38.8256 63.0972 39.9652C61.9601 39.6373 60.4453 39.1854 59.3238 38.8176C59.9624 37.7139 60.788 36.2304 61.4617 35.1507C60.2023 34.7258 58.9728 34.2128 57.7817 33.6152C54.869 37.9019 54.6314 38.2497 52.9336 41.4007C55.2701 42.4804 58.1984 43.8239 65.0637 45.3035Z" fill="white"/>
<path id="Vector_84" d="M44.2305 39.5174L44.9509 38.0898L44.8847 38.2218L44.2305 39.5174Z" fill="white"/>
<path id="Vector_85" opacity="0.4" d="M52.5867 41.2243C51.8079 40.7724 50.7721 40.1486 50.0283 39.6248C52.9645 34.9503 53.1436 34.6704 56.0447 31.1035C56.6833 31.5354 57.5556 32.0832 58.2254 32.4591C55.0283 36.9136 54.8375 37.1816 52.5867 41.2203" fill="white"/>
<path id="Vector_86" d="M85.3057 10.2497L86.4116 10.1417C87.0268 10.0977 87.8446 10.0418 88.4599 10.0098C88.7118 10.0476 88.9587 10.1146 89.1959 10.2097C88.2535 10.2617 88.0821 10.2697 87.2488 10.3537C86.6031 10.2706 85.9524 10.2359 85.3018 10.2497" fill="white"/>
<path id="Vector_87" d="M89.1523 10.0706C90.3206 10.0426 90.4296 10.0386 91.298 10.0466L91.2513 10.1146L92.2598 10.1426L91.777 10.5185L91.5005 10.8384C91.3136 10.8384 91.0643 10.8384 90.8735 10.8384C90.3361 10.8384 90.3167 10.8384 90.0246 10.8384C89.7666 10.5468 89.4735 10.2902 89.1523 10.0746" fill="white"/>
<path id="Vector_88" d="M61.1117 52.4001C58.607 51.8321 56.1366 51.1151 53.7129 50.2528C54.3788 48.4574 55.2705 46.0662 56.0221 44.3027C58.3026 45.0963 60.6229 45.7637 62.9731 46.3021C62.3967 48.1175 61.6374 50.5487 61.1234 52.3881" fill="white"/>
<path id="Vector_89" opacity="0.3" d="M54.32 65.5436C51.6115 64.7684 48.9659 63.7777 46.4072 62.5805C47.2639 57.5062 47.6923 54.959 49.6666 49.3848C52.0363 50.4969 54.4882 51.4141 56.9992 52.1279C55.6713 57.1543 55.0093 59.6775 54.32 65.5436Z" fill="white"/>
<path id="Vector_90" d="M94.597 10.1094L95.6523 10.2053L96.6998 10.3173C95.7381 10.3124 94.7777 10.394 93.8299 10.5612L92.8252 10.4613C93.3964 10.2575 93.993 10.139 94.597 10.1094Z" fill="white"/>
<path id="Vector_91" opacity="0.4" d="M63.6348 17.7989L64.2851 17.399L66.5281 16.1074C66.1581 16.3234 65.6558 16.6113 65.2936 16.8512L63.6348 17.8149" fill="white"/>
<path id="Vector_92" opacity="0.4" d="M66.3291 16.2841C66.7925 15.9962 67.4233 15.6284 67.9062 15.3724L70.1726 14.3008C69.4357 14.6122 68.7302 14.9966 68.0659 15.4484L66.3291 16.2841Z" fill="white"/>
<path id="Vector_93" opacity="0.4" d="M69.1416 14.9769C69.9109 14.4669 70.7306 14.042 71.5871 13.7093L73.1876 13.1055C72.5009 13.3785 71.839 13.713 71.2094 14.1051L71.003 14.1771L70.7382 14.3531L69.1416 14.9769Z" fill="white"/>
<path id="Vector_94" d="M48.4669 50.7394C48.2761 51.2112 47.7971 51.939 47.2208 51.6751C46.3056 51.0393 47.0416 48.776 47.9451 48.5961C48.6226 48.4641 48.9069 49.6437 48.4669 50.7394Z" fill="white"/>
<path id="Vector_95" opacity="0.4" d="M57.1281 22.6251L56.5557 23.1249L58.7442 21.2695C58.7442 21.2695 57.8836 21.9733 57.1281 22.6251Z" fill="white"/>
<path id="Vector_96" d="M47.0077 55.695C46.8558 56.1789 46.443 56.9267 45.8394 56.6587C44.8893 56.0029 45.45 53.6677 46.3067 53.4798C46.9687 53.3398 47.3465 54.5594 46.9921 55.695" fill="white"/>
<path id="Vector_97" d="M45.9625 60.8099C45.8534 61.3017 45.5069 62.0655 44.9111 61.7896C43.9648 61.1458 44.2997 58.7225 45.1097 58.5426C45.7522 58.3986 46.2195 59.6502 45.9625 60.8099Z" fill="white"/>
<path id="Vector_98" d="M78.237 12.6238L77.3725 12.7917C72.4115 13.9914 72.4115 13.9914 70.0127 14.9311L70.2853 14.6871L70.737 14.3432L71.0018 14.1673L71.2082 14.0953C75.6552 12.7118 75.92 12.6318 78.8328 12.1679L80.0517 12L80.0127 12.028L79.7752 12.1959L79.5182 12.4119L78.237 12.6238Z" fill="white"/>
<path id="Vector_99" d="M42.8553 66.7704C42.8553 68.7257 42.8748 71.3329 42.9916 73.2843C42.1951 72.6801 41.4295 72.0341 40.698 71.3489C40.4721 66.2705 40.4332 65.3508 40.8732 60.7403L40.8927 60.5684L41.4885 61.1642C41.9908 61.564 42.6567 62.1279 43.1785 62.4997C43.0811 63.7793 42.8786 65.4868 42.8553 66.7704Z" fill="white"/>
<path id="Vector_100" opacity="0.3" d="M48.8368 76.2784C45.5385 74.8548 45.41 74.7989 42.9957 73.2873C42.9139 71.336 42.8243 68.7288 42.8594 66.7734C45.4684 68.3729 45.519 68.4089 48.72 69.7765C48.72 71.7278 48.72 74.331 48.8407 76.2784" fill="white"/>
<path id="Vector_101" d="M89.4293 13.8047L89.8187 13.2609L89.3436 13.2129L88.0352 14.5085H88.1325L88.8335 13.7607L89.4293 13.8127" fill="white"/>
<path id="Vector_102" d="M90.9944 12.2724H90.7685L90.749 12.0645L90.9944 12.2644" fill="white"/>
<path id="Vector_103" d="M92.2445 13.4356C91.8239 13.4716 91.7617 13.4796 91.3761 13.4956L91.014 12.6279H90.7998V12.5279C90.9611 12.5285 91.1222 12.5205 91.2827 12.5039L92.2523 13.4316" fill="white"/>
<path id="Vector_104" d="M89.5506 12.9299C89.2484 12.8948 88.9491 12.8374 88.6549 12.758L88.5537 12.726L90.75 12.0742L89.5506 12.9299Z" fill="white"/>
<path id="Vector_105" opacity="0.3" d="M57.9066 69.3787C55.1879 68.7508 52.508 67.9577 49.8809 67.0035L50.0366 65.332C52.6533 66.2814 55.3229 67.0693 58.0312 67.6913L57.9066 69.3747" fill="white"/>
<path id="Vector_106" d="M101.158 15.9678L100.095 15.416L101.158 15.9678Z" fill="white"/>
<path id="Vector_107" d="M109.184 13.7097C109.503 13.9176 109.928 14.2055 110.231 14.4414C105.356 12.9099 105.044 12.8299 100.741 12.1981C100.586 12.0782 100.372 11.9262 100.204 11.8223C103.258 12.0967 106.271 12.7299 109.184 13.7097Z" fill="white"/>
<path id="Vector_108" opacity="0.3" d="M122.988 22.6946C123.031 23.1026 123.031 23.5142 122.988 23.9222C118.63 20.6472 118.369 20.4513 114.386 18.22C114.419 17.9211 114.419 17.6193 114.386 17.3203C119.109 19.8835 119.394 20.0354 122.992 22.6946" fill="white"/>
<path id="Vector_109" d="M106.018 14.7448C106.637 14.9567 107.299 15.2446 107.307 15.3646C107.167 15.4966 104.324 14.5329 104.297 14.3449C104.39 14.269 105.302 14.4969 106.018 14.7448Z" fill="white"/>
<path id="Vector_110" d="M105.792 15.2045C106.419 15.4405 107.034 15.7444 107.003 15.8643C106.804 15.9883 104.016 14.9366 104.047 14.7527C104.176 14.6807 105.075 14.9326 105.792 15.2045Z" fill="white"/>
<path id="Vector_111" d="M105.399 15.6515C106.006 15.9115 106.587 16.2314 106.516 16.3473C106.259 16.4673 103.736 15.4276 103.643 15.1477C103.701 15.0357 104.655 15.3237 105.399 15.6356" fill="white"/>
<path id="Vector_112" opacity="0.4" d="M70.9202 25.2765C69.8065 26.6241 68.3306 28.4275 67.2792 29.827C66.4186 29.5511 65.2737 29.1673 64.4248 28.8554C67.9295 24.9206 68.1592 24.6847 71.3836 21.8496C72.0066 22.0775 72.8477 22.3694 73.4825 22.5694C72.7037 23.3691 71.6484 24.4248 70.9202 25.2765Z" fill="white"/>
<path id="Vector_113" opacity="0.4" d="M68.8022 39.9714L67.1978 39.6516C66.419 39.4716 65.352 39.2517 64.5654 39.0517L65.8505 36.4446C66.8668 34.6052 68.2609 32.178 69.3552 30.3945C70.391 30.6345 71.7734 30.9424 72.817 31.1503C70.5662 35.6328 70.4338 35.9008 68.7944 39.9714" fill="white"/>
<path id="Vector_114" opacity="0.3" d="M124.826 30.6312C124.238 31.0311 123.444 31.5309 122.829 31.8788C119.324 27.7161 119.11 27.4802 115.819 24.4132C116.294 24.1333 116.925 23.7534 117.377 23.4375C121.493 27.0044 121.738 27.2203 124.807 30.6352" fill="white"/>
<path id="Vector_115" d="M73.5725 44.3459C72.0928 44.134 70.1184 43.8421 68.6426 43.5982C70.391 38.5758 70.4962 38.2759 72.2018 34.3691C73.4401 34.5691 75.0951 34.825 76.3412 34.9969C74.9393 39.2916 74.6862 40.0633 73.5725 44.3459Z" fill="white"/>
<path id="Vector_116" d="M140.364 55.4722C139.812 56.1195 139.224 56.7337 138.604 57.3116C137.319 51.8654 137.241 51.5415 135.586 47.1589C136.168 46.62 136.718 46.0458 137.233 45.4395C139.204 50.6378 139.32 50.9417 140.348 55.4722" fill="white"/>
<path id="Vector_117" opacity="0.4" d="M142.486 63.293L142.358 66.9958L142.163 68.0075C142.319 62.2973 142.33 61.9534 141.773 57.243C141.889 56.6196 141.942 55.9859 141.933 55.3516C142.178 57.7268 142.494 60.9018 142.49 63.293" fill="white"/>
<path id="Vector_118" opacity="0.4" d="M64.9785 36.2177C64.4099 37.3413 63.6311 38.8248 63.0976 39.9645C61.9605 39.6366 60.4457 39.1847 59.3242 38.8168C59.9629 37.7132 60.7884 36.2297 61.4621 35.15C62.4473 33.6705 63.7752 31.6991 64.8266 30.2676C65.7573 30.5675 66.9995 30.9514 67.9419 31.2153C67.0306 32.7028 65.7962 34.6742 64.9785 36.2177Z" fill="white"/>
<path id="Vector_119" d="M115.068 22.5347C114.577 22.8146 113.899 23.1745 113.413 23.4224L111.419 21.7509C111.878 21.519 112.486 21.2031 112.93 20.9512L115.068 22.5507" fill="white"/>
<path id="Vector_120" opacity="0.3" d="M122.957 37.8346C122.089 38.1425 120.928 38.5463 120.052 38.8223C117.572 34.3317 116.438 32.2844 112.977 27.8298C113.639 27.6139 114.534 27.326 115.177 27.082C118.421 30.9288 119.9 32.6802 122.965 37.8346" fill="white"/>
<path id="Vector_121" opacity="0.3" d="M125.114 41.8716C124.188 42.1995 122.953 42.6314 121.999 42.9233L120.492 39.7243C121.38 39.4324 122.564 39.0445 123.44 38.7246L125.099 41.8836" fill="white"/>
<path id="Vector_122" opacity="0.3" d="M133.946 38.9208C133.464 39.4823 132.953 40.0162 132.415 40.5202C129.631 35.9137 129.58 35.8258 127.785 33.4665C128.266 33.0212 128.72 32.5457 129.144 32.043" fill="white"/>
<path id="Vector_123" opacity="0.3" d="M133.188 43.2999C131.438 44.531 129.545 45.5319 127.553 46.2789C125.294 41.2206 124.364 39.1252 120.754 33.683C122.615 32.8832 123.741 32.4034 125.337 31.2598C128.737 35.6024 130.143 37.3978 133.18 43.3039" fill="white"/>
<path id="Vector_124" opacity="0.7" d="M83.892 15.7263C83.1131 15.5344 82.934 15.4944 82.2525 15.2744L82.1279 15.2305L82.5757 15.0065L83.5882 14.5267C84.6396 14.0988 86.0298 13.491 87.0929 13.1191L87.4356 13.2271L87.825 13.3271C86.6217 14.0149 85.0212 14.9506 83.8686 15.7263" fill="white"/>
<path id="Vector_125" opacity="0.3" d="M136.232 37.8179L137.451 40.2771L137.498 40.3811C136.664 38.7816 135.531 36.6063 134.6 35.0428L134.242 34.375L136.232 37.8179Z" fill="white"/>
<path id="Vector_126" d="M137.085 53.6124C134.901 55.0759 134.858 55.1039 131.957 56.4435C130.049 57.2353 128.099 57.9149 126.116 58.4788L125.808 57.0473C125.232 54.74 124.394 51.677 123.701 49.4017C126.785 48.438 130.625 47.2384 133.915 44.8672C135.971 49.8416 136.092 50.1415 137.077 53.6124" fill="white"/>
<path id="Vector_127" d="M93.1403 19.1271C91.6488 19.175 91.2906 19.183 89.5811 19.1631C89.7135 18.1594 89.8848 16.8278 90.0328 15.8281C90.9712 15.8281 91.1387 15.8281 92.0032 15.8281C92.2329 16.7758 92.5367 18.0354 92.7431 18.9871H93.1013L93.1403 19.1511" fill="white"/>
<path id="Vector_128" d="M89.671 16.7028C88.5573 16.6588 88.4171 16.6508 87.5838 16.5869L87.8525 16.099C87.5643 16.071 87.1827 16.039 86.8945 16.007L88.1329 14.5075L88.8338 13.7598L89.4296 13.8118C89.9592 13.8477 89.9709 13.8477 90.259 13.8557C90.0721 14.7115 89.8307 15.8551 89.671 16.7108" fill="white"/>
<path id="Vector_129" d="M78.5875 25.4497C77.7075 25.3017 76.5354 25.0978 75.6592 24.9299C79.3002 20.2194 81.2628 17.9641 86.0759 14.5332C86.3485 14.5852 86.7106 14.6532 86.9832 14.6972C83.9575 17.5722 82.2091 19.3557 78.5875 25.4417" fill="white"/>
<path id="Vector_130" d="M88.4558 20.0653C87.899 20.0373 87.1552 19.9973 86.5983 19.9613L86.2323 20.977L85.5625 20.925C86.0376 19.8374 86.6762 18.3938 87.1941 17.3262C87.7471 17.3662 88.487 17.4141 89.0399 17.4381C88.8608 18.2379 88.6194 19.2735 88.4558 20.0653Z" fill="white"/>
<path id="Vector_131" d="M91.3759 13.4968L91.52 13.8727H91.4343L91.8237 15.1043C91.0216 15.1043 90.8775 15.1043 90.1025 15.1043C90.2116 14.5565 90.344 13.8247 90.4647 13.2809L90.6205 12.6211H91.0293L91.3915 13.4888" fill="white"/>
<path id="Vector_132" d="M61.8858 42.667C61.6561 43.1189 61.0681 43.8386 60.3009 43.6787C59.2339 43.2788 59.822 41.4034 60.9006 40.9036C61.7846 40.5037 62.3843 41.3034 62.0104 42.3751C61.9746 42.4748 61.9329 42.5723 61.8858 42.667Z" fill="white"/>
<path id="Vector_133" opacity="0.3" d="M121.147 30.7102C121.423 31.074 121.828 31.8338 121.404 32.0897C120.535 32.3776 119.067 30.4302 119.34 29.8104C119.55 29.3706 120.508 29.8384 121.147 30.7102Z" fill="white"/>
<path id="Vector_134" d="M105.936 27.5682C103.549 27.9681 102.91 28.0561 99.9116 28.368C99.4132 27.0004 98.7434 25.169 98.1943 23.8214C100.344 23.5895 100.733 23.5495 102.528 23.2656L103.093 24.1173L103.685 24.0174C104.366 25.077 105.289 26.4806 105.936 27.5642" fill="white"/>
<path id="Vector_135" opacity="0.3" d="M99.4261 28.4158C96.7937 28.6197 96.1707 28.6677 93.0943 28.7637C92.9697 27.3801 92.7984 25.5287 92.6582 24.1451C94.7844 24.0732 95.3568 24.0572 97.8023 23.8652C98.3046 25.2248 98.9705 27.0402 99.4261 28.4158Z" fill="white"/>
<path id="Vector_136" opacity="0.4" d="M106.586 34.054C103.502 34.4539 102.77 34.5538 99.0901 34.8537C98.7552 33.3022 98.3113 31.2549 97.9219 29.6954C100.617 29.4755 101.341 29.4155 104.371 29.0156C105.052 30.5191 105.948 32.5345 106.575 34.062" fill="white"/>
<path id="Vector_137" d="M79.3351 34.5531C76.434 34.2252 75.6551 34.1533 72.4814 33.6134C73.2291 32.1059 74.2299 30.1026 75.0321 28.623C77.3685 29.0229 77.9994 29.1069 80.9316 29.4228C80.4371 30.9543 79.7868 32.9976 79.3351 34.5411" fill="white"/>
<path id="Vector_138" opacity="0.3" d="M82.0845 46.4701C80.4451 46.3501 78.2605 46.1822 76.6328 46.0302C77.3688 42.4314 78.0658 39.0605 79.3587 34.5539C79.8221 33.0144 80.449 30.9551 80.9553 29.4355C82.0923 29.5355 83.611 29.6595 84.752 29.7394C83.5838 35.6615 83.0191 39.0804 82.1079 46.4701" fill="white"/>
<path id="Vector_139" opacity="0.3" d="M98.4985 34.9007C95.2859 35.0687 94.5226 35.1086 90.8154 35.1406C90.8154 33.5811 90.8154 31.5018 90.8154 29.9423C93.5413 29.9143 94.2656 29.9063 97.4354 29.7344C97.7703 31.2819 98.2142 33.3332 98.5141 34.9007" fill="white"/>
<path id="Vector_140" opacity="0.3" d="M85.8084 41.5205L83.5615 41.4166C83.7874 39.7291 84.0911 37.4818 84.3403 35.8184L86.3458 35.9103C86.1822 37.5978 85.9564 39.8491 85.8123 41.5405" fill="white"/>
<path id="Vector_141" opacity="0.3" d="M96.0104 54.6588C89.9707 54.7747 88.2222 54.7707 81.832 54.4748C82.1358 51.0479 82.4823 47.1612 83.0859 42.3867C88.487 42.6346 89.9707 42.6546 95.29 42.5467C95.5159 45.8256 95.7729 49.5444 96.0104 54.6588Z" fill="white"/>
<path id="Vector_142" opacity="0.3" d="M92.5981 28.7201C88.9143 28.7201 87.8551 28.7201 83.9922 28.4921C84.9696 24.8693 85.1604 24.1176 86.2313 20.9786L86.5973 19.9629C87.1542 19.9949 87.898 20.0429 88.4548 20.0669C90.102 20.1108 90.4019 20.1188 91.8894 20.1028C92.0958 22.2861 92.3294 24.7573 92.5981 28.7201Z" fill="white"/>
<path id="Vector_143" opacity="0.4" d="M122.63 67.1514C120.882 67.5112 118.549 67.9511 116.789 68.287C116.325 63.1726 116.259 62.2529 115.48 57.5425C117.147 57.2385 119.375 56.8187 121.026 56.4668C122.081 62.065 122.143 62.4089 122.63 67.1514Z" fill="white"/>
<path id="Vector_144" opacity="0.4" d="M115.399 84.9568L115.009 85.0168C110.301 85.6686 109.694 85.7526 105.819 86.1125L105.889 84.7569C106.171 78.5368 106.123 72.3056 105.745 66.0909C110.441 65.619 111.29 65.5351 115.258 64.9473C115.932 73.2526 115.963 77.5552 115.41 84.9408" fill="white"/>
<path id="Vector_145" opacity="0.7" d="M116.945 56.2795C113.97 56.6354 109.998 57.0792 107.011 57.3672C106.15 49.5337 105.995 48.1221 104.928 41.0404C107.654 40.7685 111.24 40.3846 113.939 40.0527C115.543 47.6503 115.835 49.0019 116.945 56.2795Z" fill="white"/>
<path id="Vector_146" opacity="0.7" d="M99.7523 86.7052C93.0545 86.8412 89.0124 86.9251 80.4727 86.5893L79.2188 86.5293C79.2188 84.186 79.2382 81.059 79.2655 78.7118C79.3239 75.8647 79.4096 72.0619 79.4991 69.2148C87.447 69.5147 90.6479 69.6147 99.6044 69.3868C99.7251 76.4485 99.7601 78.3479 99.7523 86.7052Z" fill="white"/>
<path id="Vector_147" d="M102.104 46.0016C100.398 46.1136 98.1242 46.2496 96.4147 46.3255C96.1499 43.0706 95.85 39.3838 95.3633 35.0412C96.7496 34.9772 98.5993 34.8772 99.9856 34.7812C100.628 37.7843 101.36 41.1792 102.104 46.0016Z" fill="white"/>
<path id="Vector_148" d="M114.507 36.3786L113.475 36.6105C111.138 31.992 110.998 31.7161 108.802 28.2132L109.623 28.0293C112.349 32.2319 112.501 32.4839 114.511 36.3666" fill="white"/>
<path id="Vector_149" opacity="0.3" d="M116.108 35.9879L115.123 36.2318C112.619 31.6533 112.467 31.3774 110.107 27.9225L110.886 27.7266C113.783 31.8892 113.955 32.1251 116.104 35.9879" fill="white"/>
<path id="Vector_150" opacity="0.3" d="M117.614 35.5777L116.687 35.8376C114.02 31.299 113.86 31.0391 111.349 27.6082L112.085 27.4043C115.153 31.515 115.336 31.7589 117.614 35.5777Z" fill="white"/>
<path id="Vector_151" opacity="0.7" d="M96.5596 64.4003C96.5188 64.8178 96.3277 65.2046 96.0238 65.4849C95.7198 65.7652 95.3248 65.9189 94.9163 65.9158C93.2885 65.8679 92.7395 64.1084 93.6896 63.1447C94.7255 62.0971 96.5245 62.7808 96.5635 64.2364C96.5674 64.291 96.5674 64.3458 96.5635 64.4003" fill="white"/>
<path id="Vector_152" d="M102.774 50.828C102.791 51.596 102.516 52.3406 102.007 52.9036C101.498 53.4666 100.795 53.8036 100.048 53.843C96.9327 53.843 95.7839 50.2441 97.657 48.4207C99.5301 46.5973 102.719 48.1328 102.789 50.82" fill="white"/>
<path id="Vector_153" d="M102.105 15.5548L102.884 15.9227C107.382 18.2979 107.382 18.2979 109.554 19.7854L109.103 20.0014L108.382 20.3133L107.993 20.4652L107.814 20.3253C103.939 17.5262 103.706 17.3622 101.163 15.9667L100.1 15.4148L100.158 15.3909L100.528 15.2429L100.949 15.043L102.117 15.5548" fill="white"/>
<path id="Vector_154" d="M99.4369 17.1113L99.1566 16.8873L98.0117 16.0156L99.4369 17.1113Z" fill="white"/>
<path id="Vector_155" d="M98.0111 16.0147L99.5688 17.2143C99.082 17.3142 98.4356 17.4422 97.9449 17.5262C96.8312 17.6941 96.0251 17.8141 94.4403 17.9261C93.9691 16.9944 93.3382 15.7548 92.8164 14.851C93.778 14.7824 94.7341 14.6488 95.6786 14.4512L98.015 16.0147" fill="white"/>
<path id="Vector_156" opacity="0.3" d="M96.2511 22.0253C96.3445 22.3292 96.3835 22.925 95.8617 23.001C94.931 23.001 94.526 21.4695 94.9738 21.0656C95.3632 20.7297 96.0447 21.3415 96.2511 22.0253Z" fill="white"/>
<path id="Vector_157" opacity="0.3" d="M94.0323 22.1624C94.083 22.4903 94.0323 23.0661 93.5027 23.1221C92.6343 23.0901 92.4124 21.6506 92.8602 21.2067C93.308 20.7628 93.9194 21.4346 94.0284 22.1624" fill="white"/>
<path id="Vector_158" opacity="0.7" d="M91.1698 64.4936C91.1178 64.9076 90.9174 65.2868 90.6078 65.5574C90.2983 65.828 89.9017 65.9705 89.4953 65.9571C87.8715 65.8611 87.3692 64.0857 88.3466 63.158C89.4058 62.1463 91.1776 62.8861 91.1776 64.3576C91.1815 64.4122 91.1815 64.467 91.1776 64.5216" fill="white"/>
<path id="Vector_159" opacity="0.7" d="M85.8106 64.411C85.7519 64.8197 85.5462 65.1909 85.2341 65.4515C84.9219 65.712 84.526 65.843 84.1245 65.8186C83.8054 65.8147 83.4949 65.7125 83.2331 65.5252C82.9713 65.3379 82.7703 65.0743 82.6562 64.7683C82.542 64.4624 82.52 64.1283 82.593 63.8093C82.6659 63.4904 82.8304 63.2013 83.0653 62.9795C83.3027 62.7596 83.5971 62.6152 83.9129 62.5638C84.2287 62.5125 84.5522 62.5564 84.8441 62.6902C85.1361 62.824 85.3839 63.042 85.5576 63.3176C85.7312 63.5933 85.8232 63.9148 85.8223 64.2431C85.8223 64.2951 85.8223 64.3631 85.8223 64.411" fill="white"/>
</g>
<path id="Vector_160" opacity="0.8" d="M77.7963 60.0791C77.3175 62.6763 74.8256 67.4682 68.8254 66.9982C60.5608 65.4049 60.0428 55.084 66.251 51.1126C72.1375 47.3563 79.1423 52.8015 77.7963 60.0791Z" fill="white"/>
<path id="Vector_161" d="M68.5605 66.4179C68.296 66.4179 68.0238 66.4179 67.7399 66.3858C64.1385 65.6824 61.6183 63.1703 60.9766 59.6776C60.6456 57.8158 60.8601 55.8943 61.5925 54.1592C62.3249 52.4242 63.5418 50.9546 65.0875 49.9388C66.32 49.0939 67.7695 48.6507 69.2484 48.6664C70.7274 48.6822 72.1677 49.1562 73.3831 50.0273C76.2028 52.0088 77.5367 55.5297 76.8834 59.2194C76.4011 61.7877 74.0715 66.4179 68.5605 66.4179ZM69.2022 49.135C67.821 49.1445 66.4713 49.5629 65.313 50.3408C63.8406 51.3062 62.681 52.7045 61.9832 54.356C61.2853 56.0075 61.0811 57.8369 61.3966 59.6092C62.0033 62.9131 64.3913 65.2845 67.7866 65.9517C73.5503 66.4059 75.9538 61.7033 76.4205 59.151C77.0584 55.6422 75.7944 52.2941 73.1225 50.4212C71.973 49.5883 70.606 49.1356 69.2022 49.1229V49.135Z" fill="white"/>
<path id="Vector_162" d="M70.2263 46.8263C70.2042 46.83 70.1817 46.83 70.1595 46.8263C70.1318 46.8172 70.1062 46.8026 70.0841 46.7833C70.0619 46.7641 70.0438 46.7405 70.0306 46.7141C70.0175 46.6876 70.0096 46.6588 70.0074 46.6292C70.0053 46.5996 70.0089 46.5699 70.0181 46.5417C75.5186 29.0872 84.9991 15.3601 95.3911 9.82114C95.4172 9.80718 95.4457 9.79859 95.475 9.79586C95.5043 9.79314 95.5338 9.79634 95.5619 9.80527C95.59 9.81421 95.6161 9.8287 95.6387 9.84793C95.6613 9.86716 95.68 9.89074 95.6937 9.91733C95.7191 9.97078 95.7235 10.0321 95.7059 10.0888C95.6884 10.1454 95.6502 10.1931 95.5994 10.2219C85.3056 15.7088 75.8997 29.3357 70.4542 46.694C70.4352 46.7381 70.4027 46.7747 70.3617 46.7985C70.3207 46.8224 70.2732 46.8321 70.2263 46.8263Z" fill="white"/>
<path id="Vector_163" d="M66.7246 93.0432C66.6742 93.0433 66.6253 93.0255 66.5863 92.9929C66.5473 92.9603 66.5206 92.9149 66.5107 92.8645C65.1111 85.6535 64.7573 77.7517 65.461 69.3733C65.4636 69.3441 65.4717 69.3157 65.485 69.2897C65.4983 69.2638 65.5165 69.2407 65.5385 69.2219C65.5605 69.2031 65.586 69.1889 65.6134 69.1801C65.6408 69.1714 65.6696 69.1682 65.6982 69.1708C65.7268 69.1734 65.7546 69.1817 65.78 69.1953C65.8054 69.2089 65.828 69.2275 65.8464 69.25C65.8648 69.2725 65.8787 69.2984 65.8873 69.3264C65.8959 69.3544 65.899 69.3838 65.8964 69.413C65.2005 77.7517 65.5504 85.6099 66.9423 92.7771C66.9526 92.8355 66.94 92.8957 66.9073 92.9447C66.8745 92.9937 66.8243 93.0277 66.7673 93.0392L66.7246 93.0432Z" fill="white"/>
<path id="Vector_164" d="M76.8321 114.775C76.8046 114.776 76.7773 114.77 76.7518 114.759C76.7264 114.748 76.7033 114.732 76.6839 114.712C72.851 110.771 69.8045 104.85 67.871 97.6136C67.857 97.5561 67.8651 97.4952 67.8935 97.444C67.9219 97.3927 67.9683 97.3551 68.0229 97.3392C68.0498 97.3308 68.0781 97.3282 68.1061 97.3315C68.134 97.3347 68.161 97.3439 68.1855 97.3584C68.21 97.3729 68.2314 97.3924 68.2485 97.4157C68.2656 97.4391 68.278 97.4658 68.285 97.4943C70.1844 104.675 73.2043 110.525 76.984 114.409C77.0239 114.452 77.0463 114.509 77.0463 114.568C77.0463 114.628 77.0239 114.685 76.984 114.728C76.9408 114.763 76.8866 114.78 76.8321 114.775Z" fill="white"/>
<path id="Vector_165" d="M127.559 79.246L123.669 76.4108C123.539 76.3162 123.39 76.253 123.234 76.2259C123.077 76.1988 122.916 76.2086 122.763 76.2544L114.533 78.7487C114.4 78.7888 114.276 78.8556 114.168 78.9452C114.06 79.0349 113.97 79.1457 113.903 79.2712C113.837 79.3968 113.795 79.5346 113.78 79.6769C113.766 79.8191 113.778 79.963 113.818 80.1001L118.069 95.0177C118.148 95.2945 118.331 95.5275 118.576 95.6658C118.822 95.8041 119.111 95.8364 119.379 95.7556L138.729 89.8928C138.862 89.8523 138.985 89.7853 139.093 89.6954C139.201 89.6056 139.29 89.4947 139.356 89.3692C139.422 89.2437 139.464 89.106 139.478 88.964C139.493 88.8219 139.48 88.6783 139.441 88.5414L136.469 78.1151C136.43 77.9778 136.365 77.8497 136.278 77.7383C136.192 77.6268 136.084 77.5341 135.962 77.4656C135.841 77.397 135.707 77.3539 135.569 77.3388C135.431 77.3236 135.291 77.3367 135.158 77.3773L128.453 79.4104C128.302 79.4532 128.143 79.4607 127.988 79.4323C127.833 79.4038 127.687 79.3402 127.559 79.246Z" fill="#263238"/>
<path id="Vector_166" d="M135.164 67.6087L118.066 69.4199L119.916 87.8283L137.014 86.017L135.164 67.6087Z" fill="white"/>
<path id="Vector_167" d="M117.153 81.9917L119.142 94.6743C119.159 94.8099 119.205 94.94 119.276 95.0556C119.348 95.1711 119.443 95.2694 119.555 95.3433C119.667 95.4172 119.794 95.4651 119.926 95.4836C120.058 95.5021 120.192 95.4908 120.32 95.4504L139.844 89.5715C140.123 89.4797 140.362 89.2897 140.518 89.0351C140.674 88.7806 140.737 88.4778 140.696 88.1802L138.706 75.4976C138.689 75.3621 138.643 75.2319 138.572 75.1164C138.501 75.0008 138.406 74.9026 138.294 74.8287C138.182 74.7547 138.055 74.7068 137.923 74.6883C137.791 74.6698 137.656 74.6812 137.529 74.7216L118.004 80.6004C117.725 80.6923 117.487 80.8823 117.331 81.1368C117.175 81.3914 117.112 81.6942 117.153 81.9917Z" fill="#407BFF"/>
<g id="Group_2" opacity="0.3">
<path id="Vector_168" d="M117.274 81.9334L119.248 94.5454C119.265 94.6802 119.31 94.8096 119.381 94.9245C119.452 95.0394 119.546 95.1371 119.657 95.2106C119.768 95.2842 119.894 95.3318 120.025 95.3502C120.156 95.3686 120.29 95.3573 120.416 95.3171L139.789 89.471C140.067 89.3797 140.303 89.1907 140.458 88.9376C140.612 88.6844 140.675 88.3833 140.634 88.0875L138.66 75.4755C138.643 75.3407 138.598 75.2113 138.527 75.0964C138.457 74.9814 138.362 74.8838 138.251 74.8103C138.14 74.7367 138.014 74.6891 137.883 74.6707C137.752 74.6523 137.618 74.6636 137.492 74.7038L118.119 80.5499C117.842 80.6412 117.605 80.8301 117.45 81.0833C117.296 81.3364 117.233 81.6375 117.274 81.9334Z" fill="white"/>
</g>
<path id="Vector_169" d="M85.1529 82.9669L74.1055 75.8203L67.4738 86.63L78.5212 93.7766L85.1529 82.9669Z" fill="white"/>
<path id="Vector_170" d="M71.2101 17.9368L68.2019 15.2248C68.1016 15.1338 67.9822 15.0674 67.8528 15.0307C67.7235 14.9941 67.5876 14.9882 67.4557 15.0134L60.3336 16.3295C60.2186 16.3502 60.1087 16.3939 60.0102 16.4581C59.9117 16.5222 59.8267 16.6056 59.7599 16.7035C59.6931 16.8013 59.6459 16.9116 59.621 17.0282C59.5961 17.1447 59.594 17.2651 59.6148 17.3824L61.8807 30.1684C61.9009 30.2858 61.9438 30.3978 62.0067 30.4982C62.0696 30.5985 62.1514 30.6851 62.2473 30.753C62.3432 30.8208 62.4513 30.8686 62.5654 30.8936C62.6796 30.9185 62.7974 30.9201 62.9121 30.8983L79.6801 27.8075C79.7953 27.7863 79.9053 27.7422 80.0038 27.6776C80.1023 27.613 80.1873 27.5293 80.2541 27.4311C80.3209 27.333 80.368 27.2223 80.3929 27.1056C80.4177 26.9888 80.4198 26.8682 80.3989 26.7506L78.8128 17.8091C78.7709 17.5724 78.6388 17.3623 78.4455 17.2248C78.2522 17.0873 78.0134 17.0335 77.7814 17.0753L71.9563 18.1601C71.8235 18.1838 71.6871 18.176 71.5577 18.1372C71.4283 18.0985 71.3094 18.0299 71.2101 17.9368Z" fill="#407BFF"/>
<path id="Vector_171" opacity="0.3" d="M71.2101 17.9368L68.2019 15.2248C68.1016 15.1338 67.9822 15.0674 67.8528 15.0307C67.7235 14.9941 67.5876 14.9882 67.4557 15.0134L60.3336 16.3295C60.2186 16.3502 60.1087 16.3939 60.0102 16.4581C59.9117 16.5222 59.8267 16.6056 59.7599 16.7035C59.6931 16.8013 59.6459 16.9116 59.621 17.0282C59.5961 17.1447 59.594 17.2651 59.6148 17.3824L61.8807 30.1684C61.9009 30.2858 61.9438 30.3978 62.0067 30.4982C62.0696 30.5985 62.1514 30.6851 62.2473 30.753C62.3432 30.8208 62.4513 30.8686 62.5654 30.8936C62.6796 30.9185 62.7974 30.9201 62.9121 30.8983L79.6801 27.8075C79.7953 27.7863 79.9053 27.7422 80.0038 27.6776C80.1023 27.613 80.1873 27.5293 80.2541 27.4311C80.3209 27.333 80.368 27.2223 80.3929 27.1056C80.4177 26.9888 80.4198 26.8682 80.3989 26.7506L78.8128 17.8091C78.7709 17.5724 78.6388 17.3623 78.4455 17.2248C78.2522 17.0873 78.0134 17.0335 77.7814 17.0753L71.9563 18.1601C71.8235 18.1838 71.6871 18.176 71.5577 18.1372C71.4283 18.0985 71.3094 18.0299 71.2101 17.9368Z" fill="white"/>
<path id="Vector_172" d="M70.9054 18.5468L67.8965 15.8391C67.7964 15.7476 67.6771 15.6807 67.5478 15.6434C67.4184 15.6061 67.2824 15.5994 67.1502 15.6238L60.0265 16.9398C59.7946 16.9825 59.5887 17.1173 59.454 17.3146C59.3192 17.5119 59.2665 17.7557 59.3075 17.9925L61.574 30.7773C61.6158 31.014 61.7479 31.2241 61.9413 31.3616C62.1346 31.4991 62.3735 31.5528 62.6056 31.511L79.3733 28.4325C79.4884 28.4118 79.5983 28.3681 79.6968 28.304C79.7953 28.2398 79.8804 28.1564 79.9472 28.0586C80.014 27.9608 80.0612 27.8504 80.0861 27.7339C80.111 27.6174 80.1131 27.497 80.0923 27.3797L78.5058 18.4352C78.463 18.1992 78.3306 17.9901 78.1373 17.8534C77.9441 17.7167 77.7057 17.6635 77.4742 17.7054L71.6674 18.7781C71.5315 18.8021 71.3921 18.7937 71.2599 18.7536C71.1277 18.7134 71.0064 18.6427 70.9054 18.5468Z" fill="#407BFF"/>
<path id="Vector_173" opacity="0.6" d="M70.9054 18.5468L67.8965 15.8391C67.7964 15.7476 67.6771 15.6807 67.5478 15.6434C67.4184 15.6061 67.2824 15.5994 67.1502 15.6238L60.0265 16.9398C59.7946 16.9825 59.5887 17.1173 59.454 17.3146C59.3192 17.5119 59.2665 17.7557 59.3075 17.9925L61.574 30.7773C61.6158 31.014 61.7479 31.2241 61.9413 31.3616C62.1346 31.4991 62.3735 31.5528 62.6056 31.511L79.3733 28.4325C79.4884 28.4118 79.5983 28.3681 79.6968 28.304C79.7953 28.2398 79.8804 28.1564 79.9472 28.0586C80.014 27.9608 80.0612 27.8504 80.0861 27.7339C80.111 27.6174 80.1131 27.497 80.0923 27.3797L78.5058 18.4352C78.463 18.1992 78.3306 17.9901 78.1373 17.8534C77.9441 17.7167 77.7057 17.6635 77.4742 17.7054L71.6674 18.7781C71.5315 18.8021 71.3921 18.7937 71.2599 18.7536C71.1277 18.7134 71.0064 18.6427 70.9054 18.5468Z" fill="white"/>
<path id="Vector_174" d="M77.8487 84.3853L76.8392 80.9456C76.8051 80.8307 76.747 80.7253 76.6693 80.6371C76.5916 80.5489 76.4963 80.4801 76.3901 80.4357L70.6326 78.0967C70.4446 78.0237 70.237 78.0312 70.0542 78.1174C69.8713 78.2035 69.7276 78.3617 69.6538 78.558L65.7694 89.2171C65.7 89.4147 65.7065 89.6332 65.7875 89.8259C65.8685 90.0186 66.0176 90.1704 66.2031 90.249L79.7257 95.7485C79.9132 95.8216 80.1204 95.8148 80.3032 95.7294C80.4859 95.644 80.6299 95.4868 80.7045 95.2912L83.4259 87.8331C83.4953 87.6354 83.4888 87.417 83.4078 87.2243C83.3268 87.0315 83.1776 86.8798 82.9921 86.8012L78.3055 84.8952C78.198 84.8517 78.1011 84.7833 78.022 84.6951C77.9429 84.6068 77.8837 84.5009 77.8487 84.3853Z" fill="#407BFF"/>
<path id="Vector_175" opacity="0.6" d="M77.8487 84.3853L76.8392 80.9456C76.8051 80.8307 76.747 80.7253 76.6693 80.6371C76.5916 80.5489 76.4963 80.4801 76.3901 80.4357L70.6326 78.0967C70.4446 78.0237 70.237 78.0312 70.0542 78.1174C69.8713 78.2035 69.7276 78.3617 69.6538 78.558L65.7694 89.2171C65.7 89.4147 65.7065 89.6332 65.7875 89.8259C65.8685 90.0186 66.0176 90.1704 66.2031 90.249L79.7257 95.7485C79.9132 95.8216 80.1204 95.8148 80.3032 95.7294C80.4859 95.644 80.6299 95.4868 80.7045 95.2912L83.4259 87.8331C83.4953 87.6354 83.4888 87.417 83.4078 87.2243C83.3268 87.0315 83.1776 86.8798 82.9921 86.8012L78.3055 84.8952C78.198 84.8517 78.1011 84.7833 78.022 84.6951C77.9429 84.6068 77.8837 84.5009 77.8487 84.3853Z" fill="black"/>
<path id="Vector_176" d="M85.1529 82.9669L74.1055 75.8203L67.4738 86.63L78.5212 93.7766L85.1529 82.9669Z" fill="white"/>
<path id="Vector_177" opacity="0.3" d="M85.1491 82.967L76.8066 77.5703L70.1749 88.38L78.5174 93.7767L85.1491 82.967Z" fill="#407BFF"/>
<path id="Vector_178" d="M91.5507 82.5152L81.71 73.7031L71.7412 85.4417L81.5819 94.2538L91.5507 82.5152Z" fill="white"/>
<path id="Vector_179" d="M77.2514 84.6923L76.2426 81.2526C76.208 81.1374 76.1494 81.0318 76.0711 80.9435C75.9927 80.8553 75.8967 80.7867 75.7899 80.7428L70.0359 78.4038C69.8486 78.3307 69.6415 78.3375 69.4588 78.4229C69.2762 78.5083 69.1323 78.6655 69.0578 78.8611L65.1566 89.5239C65.0874 89.7221 65.0945 89.9409 65.1762 90.1337C65.2579 90.3265 65.4078 90.478 65.5939 90.5558L79.108 96.0551C79.2954 96.1283 79.5025 96.1214 79.6851 96.036C79.8678 95.9506 80.0117 95.7934 80.0862 95.5978L82.8136 88.14C82.8829 87.9423 82.8764 87.7239 82.7955 87.5311C82.7145 87.3384 82.5655 87.1867 82.3801 87.1081L77.6926 85.2021C77.5879 85.1567 77.4941 85.0874 77.4179 84.9993C77.3416 84.9111 77.2848 84.8063 77.2514 84.6923Z" fill="#407BFF"/>
<path id="Vector_180" opacity="0.4" d="M77.2514 84.6923L76.2426 81.2526C76.208 81.1374 76.1494 81.0318 76.0711 80.9435C75.9927 80.8553 75.8967 80.7867 75.7899 80.7428L70.0359 78.4038C69.8486 78.3307 69.6415 78.3375 69.4588 78.4229C69.2762 78.5083 69.1323 78.6655 69.0578 78.8611L65.1566 89.5239C65.0874 89.7221 65.0945 89.9409 65.1762 90.1337C65.2579 90.3265 65.4078 90.478 65.5939 90.5558L79.108 96.0551C79.2954 96.1283 79.5025 96.1214 79.6851 96.036C79.8678 95.9506 80.0117 95.7934 80.0862 95.5978L82.8136 88.14C82.8829 87.9423 82.8764 87.7239 82.7955 87.5311C82.7145 87.3384 82.5655 87.1867 82.3801 87.1081L77.6926 85.2021C77.5879 85.1567 77.4941 85.0874 77.4179 84.9993C77.3416 84.9111 77.2848 84.8063 77.2514 84.6923Z" fill="black"/>
<path id="Vector_181" d="M125.395 34.3875C124.512 32.3676 123.086 30.6503 121.286 29.4383C119.486 28.2262 117.387 27.5701 115.236 27.5475C113.086 27.5248 110.974 28.1365 109.15 29.3104C107.326 30.4842 105.866 32.1711 104.943 34.172C104.758 34.1539 104.572 34.1459 104.385 34.148C103.115 34.1478 101.864 34.4569 100.732 35.0499C99.5998 35.643 98.62 36.5033 97.8724 37.5606C97.1247 38.6179 96.6303 39.8423 96.4295 41.1339C96.2287 42.4255 96.3271 43.7478 96.7168 44.9927H131.138C131.477 43.9088 131.596 42.7646 131.487 41.6314C131.378 40.4982 131.043 39.4002 130.505 38.4058C129.966 37.4113 129.235 36.5418 128.356 35.8511C127.476 35.1605 126.469 34.6637 125.395 34.3915V34.3875Z" fill="white"/>
<path id="Vector_182" d="M102.512 92.2356C103.402 90.2154 104.84 88.4976 106.656 87.2851C108.472 86.0726 110.59 85.4161 112.759 85.3932C114.929 85.3703 117.059 85.9818 118.899 87.1556C120.739 88.3294 122.212 90.0165 123.143 92.0174C123.325 92.0174 123.531 91.9936 123.706 91.9936C124.986 91.9956 126.248 92.306 127.389 92.8997C128.53 93.4933 129.517 94.3534 130.271 95.4101C131.025 96.4668 131.524 97.6902 131.728 98.981C131.932 100.272 131.835 101.593 131.444 102.838H96.7163C96.376 101.754 96.2576 100.61 96.3684 99.4771C96.4791 98.3441 96.8167 97.2465 97.3602 96.2523C97.9036 95.2581 98.6413 94.3885 99.5276 93.6976C100.414 93.0066 101.43 92.509 102.512 92.2356Z" fill="white"/>
<path id="Vector_183" d="M67.0863 29.5035C66.9255 29.5032 66.765 29.5193 66.6071 29.5515C66.3399 28.6541 65.8156 27.8638 65.1049 27.2875C64.3942 26.7111 63.5314 26.3763 62.6328 26.3283C61.7343 26.2802 60.8432 26.5213 60.0799 27.0189C59.3167 27.5165 58.7179 28.2467 58.3644 29.111C58.2198 29.087 58.0737 29.075 57.9273 29.0749C57.1535 29.0749 56.4114 29.396 55.8643 29.9676C55.3172 30.5391 55.0098 31.3143 55.0098 32.1226C55.0095 32.4395 55.0574 32.7545 55.1516 33.0557H69.5822C69.661 32.7899 69.7011 32.5131 69.701 32.2348C69.701 31.5104 69.4255 30.8157 68.9352 30.3034C68.4448 29.7912 67.7798 29.5035 67.0863 29.5035Z" fill="white"/>
<path id="Vector_184" d="M64.136 103.218C63.9245 103.218 63.7136 103.239 63.5064 103.281C63.1563 102.138 62.4684 101.131 61.5356 100.396C60.6029 99.6619 59.4701 99.2351 58.2904 99.1737C57.1107 99.1123 55.9408 99.4193 54.9387 100.053C53.9366 100.687 53.1505 101.617 52.6866 102.718C52.4964 102.688 52.304 102.673 52.1115 102.675C51.5083 102.674 50.9133 102.817 50.3752 103.093C49.8371 103.369 49.3709 103.77 49.0148 104.264C48.6587 104.757 48.4226 105.329 48.3259 105.932C48.2292 106.536 48.2745 107.154 48.4582 107.736H67.4044C67.5635 107.216 67.6001 106.665 67.5113 106.128C67.4225 105.591 67.2107 105.082 66.8929 104.643C66.5751 104.204 66.1602 103.846 65.6814 103.599C65.2027 103.351 64.6734 103.221 64.136 103.218Z" fill="white"/>
<g id="Character">
<path id="Vector_185" d="M26.8325 52.647C26.2133 53.7646 25.5474 54.9834 24.9244 56.1516C24.3013 57.3199 23.6821 58.5115 23.098 59.6836C22.5139 60.8557 21.9765 62.0201 21.5404 63.1883C21.3106 63.7568 21.1237 64.3215 20.9679 64.8316C20.8452 65.2259 20.7553 65.6296 20.6993 66.0388L20.6486 65.5987C20.7361 66.3469 20.9179 67.0809 21.1899 67.7833C21.5061 68.6092 21.8768 69.4132 22.2997 70.1899C22.7281 71.0076 23.2187 71.8176 23.7328 72.6315C23.9898 73.0209 24.2507 73.4453 24.5116 73.8464L25.3138 75.0147L25.3877 75.1237C25.598 75.4495 25.6909 75.8372 25.6512 76.2229C25.6116 76.6086 25.4417 76.9692 25.1696 77.2454C24.8974 77.5216 24.5393 77.6969 24.1543 77.7423C23.7692 77.7877 23.3802 77.7005 23.0513 77.4952C22.5528 77.1642 22.1323 76.8605 21.6961 76.5217C21.26 76.1829 20.8472 75.8363 20.4384 75.4742C19.6084 74.7372 18.8278 73.9462 18.1019 73.1066C17.3438 72.228 16.6661 71.2831 16.077 70.2833C15.416 69.1743 14.9226 67.9736 14.6128 66.7202C14.589 66.6258 14.5747 66.5293 14.5699 66.4321V66.2802C14.5271 65.3059 14.6056 64.3301 14.8036 63.3752C14.962 62.5852 15.1661 61.8051 15.415 61.0387C15.8671 59.6152 16.3975 58.2177 17.0038 56.8526C17.584 55.5091 18.2187 54.2202 18.8768 52.9585C19.5349 51.6968 20.2242 50.4585 21.0108 49.189C21.4849 48.4498 22.2264 47.9225 23.0802 47.7173C23.934 47.5121 24.8342 47.6448 25.5924 48.0878C26.3506 48.5308 26.9083 49.2497 27.1489 50.0943C27.3894 50.9388 27.2942 51.8437 26.8831 52.6197L26.8325 52.647Z" fill="#263238"/>
<path id="Vector_186" d="M25.8201 75.3784L27.5724 77.2164L23.5343 79.2998C23.1041 78.7021 22.7606 78.0466 22.514 77.3527C22.3552 76.8564 22.3987 76.3175 22.6349 75.8531C22.8711 75.3886 23.2811 75.0362 23.7757 74.8722C24.1294 74.7545 24.5093 74.7396 24.8712 74.8292C25.2331 74.9189 25.5621 75.1093 25.8201 75.3784Z" fill="#FFB573"/>
<path id="Vector_187" d="M27.5062 81.1537L25.9719 81.6366C25.6772 81.7287 25.3595 81.714 25.0746 81.5951C24.7898 81.4761 24.5559 81.2606 24.4142 80.9863L23.5342 79.3001L27.5724 77.2129L28.3512 79.4715C28.4088 79.6373 28.4325 79.813 28.421 79.9881C28.4095 80.1633 28.363 80.3343 28.2842 80.4912C28.2054 80.6481 28.096 80.7875 27.9623 80.9013C27.8287 81.0151 27.6736 81.1009 27.5062 81.1537Z" fill="#FFB573"/>
<path id="Vector_188" d="M61.8516 60.2941L64.9668 58.1523L66.4154 62.467C66.4154 62.467 63.3508 64.0675 62.241 62.576L61.8516 60.2941Z" fill="#FFB573"/>
<path id="Vector_189" d="M68.8531 58.8372L69.0946 60.4338C69.1412 60.7422 69.0767 61.0571 68.9126 61.3224C68.7486 61.5878 68.4957 61.7862 68.1989 61.8824L66.396 62.4665L64.9785 58.1518L67.315 57.7429C67.4881 57.7106 67.666 57.7136 67.8381 57.7515C68.0101 57.7894 68.1727 57.8616 68.3162 57.9637C68.4598 58.0658 68.5813 58.1958 68.6735 58.3458C68.7658 58.4959 68.8269 58.663 68.8531 58.8372Z" fill="#FFB573"/>
<path id="Vector_190" d="M22.6152 145.944H25.4073L25.75 145.625L26.264 145.944C27.9696 145.944 30.271 145.882 31.3653 145.508C31.3978 145.38 31.3942 145.246 31.3551 145.12C31.3159 144.995 31.2426 144.882 31.1433 144.795C31.1433 144.795 26.6301 143.397 26.2212 142.459H22.8022" fill="#263238"/>
<path id="Vector_191" d="M24.0677 106.45C23.9586 91.9993 23.7133 80.5935 25.084 75.0522L37.8567 72.9883C37.8567 72.9883 35.5202 97.451 32.6736 107.572C29.827 117.693 26.7702 142.685 26.7702 142.685H22.4127C22.4127 142.685 20.855 118.464 24.0677 106.45Z" fill="#407BFF"/>
<path id="Vector_192" opacity="0.2" d="M33.3164 85.1035L35.6918 91.2601C34.9363 96.6573 34.029 102.164 33.0516 106.143C32.0118 98.9392 32.7634 87.1323 33.3164 85.1035Z" fill="black"/>
<path id="Vector_193" d="M56.7934 141.8C56.7934 141.8 50.3681 142.291 49.6633 141.516L46.291 142.551L47.2373 145.943L49.3128 145.308L49.5465 144.896L50.1579 145.048C51.8401 144.534 56.2911 143.101 57.249 142.415C57.2368 142.281 57.1879 142.152 57.1075 142.044C57.0271 141.935 56.9185 141.851 56.7934 141.8Z" fill="#263238"/>
<path id="Vector_194" d="M37.5996 107.339C33.3012 96.801 30.4545 85.7274 29.1377 74.4226L43.0903 72.1367C43.0903 72.1367 45.158 97.3666 46.0576 107.737C46.9999 118.519 50.6214 141.479 50.6214 141.479L46.1276 142.857C46.1276 142.857 38.0513 120.735 37.5996 107.339Z" fill="#407BFF"/>
<path id="Vector_195" d="M27.2487 37.0117C27.8757 39.7376 28.121 43.5616 27.1553 45.6605C28.6195 46.8287 30.9559 48.254 33.9115 47.997C36.8672 47.74 36.1779 45.7734 35.3095 44.8038C33.1093 43.8887 32.9497 42.8139 33.3975 41.8248L27.2487 37.0117Z" fill="#FFB573"/>
<path id="Vector_196" d="M24.4453 46.5265C24.4453 46.5265 26.1276 44.8131 26.8441 44.3848C27.5606 43.9564 33.3044 43.6644 34.6556 43.8123C36.0069 43.9603 37.7709 45.8295 37.7709 45.8295L24.4453 46.5265Z" fill="#407BFF"/>
<path id="Vector_197" d="M35.653 35.0594C35.692 35.332 35.8711 35.5306 36.0424 35.5034C36.2138 35.4761 36.3345 35.2308 36.2917 34.9582C36.2488 34.6856 36.0736 34.4909 35.9022 34.5182C35.7309 34.5454 35.6141 34.7908 35.653 35.0594Z" fill="#263238"/>
<path id="Vector_198" d="M35.6924 35.4453C36.1412 36.224 36.6955 36.9368 37.3396 37.5637C37.1739 37.7248 36.9754 37.8482 36.7577 37.9255C36.5399 38.0028 36.308 38.0321 36.0779 38.0115L35.6924 35.4453Z" fill="#ED893E"/>
<path id="Vector_199" d="M35.9649 33.2877C35.9486 33.3092 35.9273 33.3265 35.9029 33.338C35.8785 33.3495 35.8517 33.355 35.8247 33.3539C35.6233 33.3386 35.4213 33.372 35.2355 33.4513C35.0498 33.5306 34.8859 33.6535 34.7577 33.8095C34.7301 33.8371 34.6936 33.8539 34.6546 33.8569C34.6157 33.8599 34.577 33.8489 34.5455 33.8259C34.514 33.8028 34.4918 33.7693 34.4829 33.7313C34.4739 33.6933 34.4789 33.6533 34.4968 33.6187C34.6575 33.4205 34.8633 33.2636 35.097 33.1613C35.3308 33.059 35.5856 33.0142 35.8403 33.0307C35.8612 33.0317 35.8818 33.0368 35.9008 33.0458C35.9198 33.0547 35.9368 33.0673 35.9509 33.0829C35.965 33.0984 35.9759 33.1166 35.983 33.1364C35.9901 33.1562 35.9932 33.1771 35.9921 33.1981C35.9908 33.2298 35.9814 33.2606 35.9649 33.2877Z" fill="#263238"/>
<path id="Vector_200" d="M26.3688 35.7209C27.0697 39.027 27.3111 40.9974 29.2543 42.446C32.171 44.6228 36.0651 42.446 36.3649 38.9842C36.6336 35.8689 35.442 30.9896 31.9763 30.1796C31.21 30.0048 30.4121 30.026 29.6562 30.2413C28.9004 30.4567 28.211 30.8592 27.652 31.4116C27.093 31.964 26.6823 32.6485 26.458 33.4018C26.2337 34.155 26.203 34.9527 26.3688 35.7209Z" fill="#FFB573"/>
<path id="Vector_201" d="M33.4603 37.0104C35.4658 35.4022 34.4377 33.0657 33.9003 32.6568C35.5398 32.4154 37.0896 30.2542 35.9915 28.3461C35.6021 28.4473 35.4891 29.0392 35.4891 29.0392C35.4891 29.0392 33.0047 27.5127 30.8162 27.723C30.9974 27.98 31.2213 28.2039 31.4782 28.385C29.89 28.037 28.2339 28.1726 26.7235 28.7744C27.1129 28.9224 27.9346 29.2339 27.9346 29.2339C27.9346 29.2339 23.5849 30.5696 25.2087 32.3492C21.6573 32.6413 25.2554 39.8843 28.2189 41.1343C31.1823 42.3843 34.5623 38.3773 33.4603 37.0104Z" fill="#263238"/>
<path id="Vector_202" d="M26.1121 32.534C24.165 31.3035 22.915 31.981 22.915 31.981C22.915 31.981 24.8076 32.6625 26.1121 32.534Z" fill="#263238"/>
<path id="Vector_203" d="M32.1484 36.6392C32.3705 37.3258 32.8471 37.9012 33.4802 38.2474C34.2902 38.6641 34.8003 37.8814 34.6484 36.9351C34.5277 36.0862 33.9631 34.8479 33.1103 34.8284C32.2575 34.8089 31.8369 35.7669 32.1484 36.6392Z" fill="#FFB573"/>
<path id="Vector_204" d="M24.6094 46.1379C29.1539 45.2384 35.6648 44.81 40.0379 45.2462C41.1211 45.3586 42.1364 45.827 42.9249 46.5782C43.7135 47.3293 44.2306 48.3208 44.3954 49.3973C45.4117 55.9472 44.7848 67.571 44.3954 79.2572C34.4849 83.4122 23.9124 80.7136 23.9124 80.7136C23.523 78.3772 24.2122 70.6357 24.6912 66.4846C23.8034 62.3023 21.9653 57.5749 20.7465 52.0258C20.605 51.385 20.5932 50.7224 20.7118 50.0769C20.8304 49.4315 21.0769 48.8163 21.4369 48.2676C21.7969 47.7189 22.263 47.2478 22.8079 46.8821C23.3528 46.5163 23.9653 46.2633 24.6094 46.1379Z" fill="#263238"/>
<path id="Vector_205" d="M43.5307 47.736L45.5362 50.8513C46.2138 51.8988 46.9069 52.9308 47.6001 53.9432C47.9505 54.4624 48.3049 54.957 48.6632 55.4269C49.0136 55.9175 49.3719 56.3926 49.734 56.8404C50.0962 57.2883 50.4661 57.7205 50.8166 58.1021C51.1083 58.4246 51.4233 58.7252 51.759 59.0017L51.3696 58.7953C52.0528 59.1458 52.7835 59.3951 53.5386 59.5351C54.4467 59.7167 55.3668 59.8326 56.2917 59.8817C57.2613 59.9518 58.2387 59.9596 59.2668 59.9518C59.773 59.9518 60.2831 59.9518 60.7894 59.9168L62.2964 59.8545H62.4054C62.8026 59.8362 63.1937 59.9576 63.5107 60.1976C63.8277 60.4376 64.0507 60.781 64.1409 61.1683C64.2311 61.5555 64.1829 61.9621 64.0046 62.3175C63.8263 62.6729 63.5291 62.9547 63.1648 63.1138C62.115 63.5789 61.0336 63.9693 59.9288 64.282C58.8191 64.5979 57.69 64.8412 56.5487 65.0102C55.9685 65.0959 55.3805 65.1543 54.773 65.1933C54.1561 65.2363 53.5372 65.2441 52.9194 65.2166C51.5476 65.1777 50.1914 64.9146 48.9046 64.4378C48.8258 64.4062 48.7491 64.3698 48.6748 64.3288L48.5113 64.2314C47.7721 63.7785 47.0772 63.257 46.4357 62.6738C45.8516 62.1598 45.3454 61.6341 44.8508 61.1162C43.9005 60.0976 43.0037 59.0305 42.1639 57.9191C41.3306 56.8443 40.5595 55.7384 39.808 54.6247C39.0564 53.511 38.3633 52.3973 37.6779 51.1823C37.2745 50.4136 37.18 49.5198 37.414 48.6837C37.6479 47.8477 38.1924 47.1326 38.9362 46.6849C39.6799 46.2371 40.5667 46.0905 41.415 46.2751C42.2633 46.4596 43.009 46.9613 43.4996 47.6776L43.5307 47.736Z" fill="#263238"/>
</g>
<g id="Plant">
<path id="Vector_206" d="M127.031 141.851C126.984 141.851 126.938 141.834 126.903 141.802C126.867 141.77 126.845 141.727 126.84 141.679C125.867 134.281 128.258 127.77 133.071 124.717C133.092 124.703 133.117 124.693 133.142 124.688C133.167 124.684 133.193 124.685 133.218 124.69C133.244 124.696 133.267 124.707 133.288 124.722C133.309 124.738 133.326 124.757 133.339 124.779C133.353 124.801 133.362 124.825 133.366 124.85C133.371 124.876 133.37 124.901 133.364 124.926C133.358 124.951 133.348 124.975 133.333 124.996C133.318 125.017 133.299 125.034 133.277 125.048C128.604 128.019 126.268 134.37 127.222 141.629C127.228 141.68 127.215 141.732 127.183 141.772C127.152 141.813 127.105 141.84 127.054 141.847L127.031 141.851Z" fill="#263238"/>
<path id="Vector_207" d="M135.796 126.39V123.38L133.187 121.873L130.574 123.38V126.39L133.187 127.897L135.796 126.39Z" fill="white"/>
<path id="Vector_208" d="M133.188 128.09C133.154 128.091 133.12 128.083 133.09 128.067L130.477 126.56C130.448 126.542 130.423 126.517 130.406 126.487C130.389 126.457 130.38 126.423 130.38 126.388V123.378C130.38 123.344 130.389 123.31 130.406 123.28C130.423 123.25 130.448 123.225 130.477 123.207L133.09 121.7C133.12 121.683 133.153 121.674 133.188 121.674C133.222 121.674 133.255 121.683 133.285 121.7L135.894 123.207C135.923 123.225 135.948 123.25 135.965 123.28C135.982 123.31 135.991 123.344 135.991 123.378V126.388C135.991 126.423 135.982 126.457 135.965 126.487C135.948 126.517 135.923 126.542 135.894 126.56L133.285 128.067C133.255 128.082 133.221 128.09 133.188 128.09ZM130.769 126.279L133.188 127.673L135.602 126.279V123.487L133.188 122.093L130.769 123.487V126.279Z" fill="#407BFF"/>
<path id="Vector_209" d="M138.206 121.672V120.445L137.143 119.83L136.08 120.445V121.672L137.143 122.283L138.206 121.672Z" fill="white"/>
<path id="Vector_210" d="M137.144 122.478C137.11 122.478 137.076 122.47 137.046 122.455L135.983 121.84C135.954 121.823 135.929 121.798 135.912 121.769C135.895 121.739 135.886 121.706 135.886 121.672V120.446C135.886 120.411 135.895 120.377 135.912 120.347C135.929 120.317 135.954 120.292 135.983 120.274L137.046 119.663C137.076 119.646 137.109 119.637 137.144 119.637C137.178 119.637 137.211 119.646 137.241 119.663L138.304 120.274C138.333 120.292 138.358 120.317 138.375 120.347C138.392 120.377 138.401 120.411 138.401 120.446V121.672C138.401 121.706 138.392 121.739 138.375 121.769C138.358 121.798 138.333 121.823 138.304 121.84L137.241 122.455C137.211 122.47 137.177 122.478 137.144 122.478ZM136.275 121.579L137.144 122.081L138.012 121.579V120.578L137.144 120.076L136.275 120.578V121.579Z" fill="#407BFF"/>
<path id="Vector_211" d="M112.966 126.471V125.248L111.903 124.633L110.84 125.248V126.471L111.903 127.086L112.966 126.471Z" fill="white"/>
<path id="Vector_212" d="M111.902 127.281C111.868 127.282 111.834 127.272 111.805 127.254L110.742 126.642C110.713 126.625 110.689 126.6 110.672 126.571C110.655 126.542 110.645 126.509 110.645 126.475V125.248C110.645 125.214 110.654 125.18 110.671 125.15C110.688 125.12 110.712 125.095 110.742 125.077L111.805 124.466C111.835 124.448 111.868 124.439 111.902 124.439C111.937 124.439 111.97 124.448 112 124.466L113.063 125.077C113.092 125.095 113.117 125.12 113.134 125.15C113.151 125.18 113.16 125.214 113.16 125.248V126.475C113.159 126.509 113.15 126.542 113.133 126.571C113.116 126.6 113.092 126.625 113.063 126.642L112 127.254C111.971 127.272 111.937 127.282 111.902 127.281ZM111.034 126.362L111.902 126.86L112.771 126.362V125.357L111.902 124.859L111.034 125.357V126.362Z" fill="#407BFF"/>
<path id="Vector_213" d="M123.515 117.334V116.107L122.456 115.496L121.393 116.107V117.334L122.456 117.949L123.515 117.334Z" fill="white"/>
<path id="Vector_214" d="M122.456 118.14C122.422 118.141 122.389 118.133 122.359 118.117L121.296 117.502C121.266 117.485 121.241 117.461 121.224 117.432C121.206 117.402 121.198 117.368 121.198 117.334V116.127C121.198 116.093 121.206 116.059 121.224 116.03C121.241 116 121.266 115.976 121.296 115.96L122.359 115.344C122.388 115.327 122.422 115.318 122.456 115.318C122.49 115.318 122.524 115.327 122.553 115.344L123.613 115.96C123.643 115.976 123.668 116 123.685 116.03C123.702 116.059 123.711 116.093 123.71 116.127V117.354C123.711 117.388 123.702 117.422 123.685 117.451C123.668 117.481 123.643 117.505 123.613 117.521L122.553 118.137C122.522 118.145 122.488 118.146 122.456 118.14ZM121.588 117.221L122.456 117.724L123.321 117.221V116.221L122.456 115.738L121.588 116.24V117.221Z" fill="#407BFF"/>
<path id="Vector_215" d="M129.971 116.263V114.542L128.484 113.682L126.992 114.542V116.263L128.484 117.124L129.971 116.263Z" fill="white"/>
<path id="Vector_216" d="M128.484 117.319C128.45 117.32 128.416 117.311 128.387 117.292L126.895 116.431C126.865 116.415 126.84 116.39 126.823 116.361C126.806 116.331 126.797 116.298 126.798 116.264V114.542C126.797 114.508 126.806 114.474 126.823 114.443C126.84 114.413 126.865 114.388 126.895 114.371L128.387 113.51C128.416 113.493 128.45 113.484 128.484 113.484C128.518 113.484 128.552 113.493 128.581 113.51L130.073 114.371C130.102 114.389 130.127 114.414 130.144 114.444C130.161 114.474 130.17 114.508 130.17 114.542V116.264C130.17 116.298 130.161 116.331 130.144 116.36C130.127 116.39 130.102 116.414 130.073 116.431L128.581 117.296C128.552 117.312 128.518 117.32 128.484 117.319ZM127.187 116.151L128.484 116.898L129.781 116.151V114.655L128.484 113.904L127.187 114.655V116.151Z" fill="#407BFF"/>
<path id="Vector_217" d="M125.064 140.099C125.012 140.099 124.963 140.079 124.926 140.042C124.89 140.006 124.869 139.956 124.869 139.905C124.869 132.584 121.754 126.583 116.692 124.25C116.668 124.239 116.647 124.224 116.63 124.205C116.613 124.186 116.599 124.164 116.591 124.139C116.582 124.115 116.578 124.089 116.579 124.064C116.581 124.038 116.587 124.013 116.598 123.989C116.609 123.966 116.624 123.945 116.642 123.928C116.661 123.911 116.683 123.897 116.707 123.888C116.731 123.88 116.757 123.876 116.782 123.877C116.807 123.878 116.832 123.885 116.855 123.896C122.031 126.295 125.243 132.428 125.243 139.905C125.243 139.954 125.225 140.001 125.192 140.037C125.159 140.073 125.113 140.095 125.064 140.099Z" fill="#263238"/>
<path id="Vector_218" d="M119.399 125.58V122.566L116.79 121.059L114.181 122.566V125.58L116.79 127.087L119.399 125.58Z" fill="white"/>
<path id="Vector_219" d="M116.79 127.28C116.756 127.28 116.722 127.271 116.693 127.252L114.084 125.745C114.054 125.729 114.029 125.705 114.012 125.675C113.994 125.646 113.986 125.612 113.986 125.578V122.564C113.986 122.53 113.994 122.496 114.012 122.467C114.029 122.437 114.054 122.413 114.084 122.396L116.693 120.889C116.722 120.872 116.756 120.863 116.79 120.863C116.824 120.863 116.858 120.872 116.887 120.889L119.497 122.396C119.526 122.413 119.551 122.437 119.569 122.467C119.586 122.496 119.594 122.53 119.594 122.564V125.578C119.594 125.612 119.586 125.646 119.569 125.675C119.551 125.705 119.526 125.729 119.497 125.745L116.887 127.252C116.858 127.271 116.825 127.28 116.79 127.28ZM114.376 125.465L116.79 126.859L119.204 125.465V122.677L116.79 121.283L114.376 122.677V125.465Z" fill="#407BFF"/>
<path id="Vector_220" d="M126.587 138.581C126.545 138.581 126.504 138.568 126.47 138.542C126.436 138.517 126.412 138.482 126.4 138.441L126.376 138.363C124.877 133.091 123.323 127.639 125.835 120.244C125.853 120.195 125.889 120.156 125.935 120.133C125.982 120.111 126.035 120.107 126.084 120.123C126.133 120.14 126.172 120.175 126.195 120.221C126.218 120.267 126.221 120.32 126.205 120.369C123.732 127.651 125.267 133.04 126.754 138.254L126.774 138.336C126.781 138.361 126.783 138.386 126.78 138.412C126.778 138.437 126.77 138.462 126.757 138.484C126.745 138.507 126.729 138.526 126.709 138.542C126.689 138.558 126.666 138.57 126.641 138.578L126.587 138.581Z" fill="#263238"/>
<path id="Vector_221" d="M128.631 121.814V118.8L126.022 117.293L123.413 118.8V121.814L126.022 123.321L128.631 121.814Z" fill="white"/>
<path id="Vector_222" d="M126.023 123.526C125.988 123.527 125.954 123.517 125.925 123.498L123.316 121.991C123.286 121.975 123.261 121.951 123.244 121.921C123.227 121.892 123.218 121.858 123.219 121.824V118.81C123.218 118.776 123.227 118.742 123.244 118.713C123.261 118.683 123.286 118.659 123.316 118.642L125.925 117.135C125.955 117.118 125.988 117.109 126.023 117.109C126.057 117.109 126.09 117.118 126.12 117.135L128.729 118.642C128.758 118.659 128.783 118.684 128.8 118.713C128.817 118.743 128.826 118.776 128.826 118.81V121.824C128.826 121.858 128.817 121.891 128.8 121.921C128.783 121.95 128.758 121.974 128.729 121.991L126.12 123.498C126.091 123.516 126.057 123.526 126.023 123.526ZM123.608 121.711L126.023 123.105L128.437 121.711V118.923L126.023 117.529L123.608 118.923V121.711Z" fill="#407BFF"/>
<path id="Vector_223" d="M133.783 136.765H118.047C117.611 136.763 117.193 136.589 116.886 136.28C116.578 135.972 116.404 135.554 116.403 135.118C116.404 134.682 116.578 134.265 116.886 133.957C117.194 133.649 117.611 133.476 118.047 133.475H133.783C134.218 133.476 134.636 133.649 134.944 133.957C135.252 134.265 135.425 134.682 135.426 135.118C135.425 135.554 135.252 135.972 134.944 136.28C134.636 136.589 134.219 136.763 133.783 136.765Z" fill="white"/>
<path id="Vector_224" d="M133.783 136.967H118.047C117.574 136.945 117.127 136.742 116.8 136.399C116.473 136.057 116.29 135.601 116.29 135.127C116.29 134.653 116.473 134.198 116.8 133.855C117.127 133.512 117.574 133.309 118.047 133.287H133.783C134.257 133.309 134.703 133.512 135.031 133.855C135.358 134.198 135.541 134.653 135.541 135.127C135.541 135.601 135.358 136.057 135.031 136.399C134.703 136.742 134.257 136.945 133.783 136.967ZM118.055 133.677C117.683 133.696 117.333 133.857 117.077 134.127C116.821 134.397 116.678 134.755 116.678 135.127C116.678 135.499 116.821 135.857 117.077 136.127C117.333 136.397 117.683 136.558 118.055 136.578H133.783C134.155 136.558 134.505 136.397 134.761 136.127C135.018 135.857 135.161 135.499 135.161 135.127C135.161 134.755 135.018 134.397 134.761 134.127C134.505 133.857 134.155 133.696 133.783 133.677H118.055Z" fill="#407BFF"/>
<path id="Vector_225" d="M131.388 146.555H120.43C120.158 146.556 119.894 146.458 119.688 146.279C119.483 146.1 119.349 145.852 119.313 145.582L118.074 136.766H133.744L132.51 145.574C132.474 145.846 132.34 146.095 132.134 146.276C131.927 146.457 131.662 146.556 131.388 146.555Z" fill="#407BFF"/>
</g>
</g>
</svg>
