<svg width="134" height="70" viewBox="0 0 134 70" fill="none" xmlns="http://www.w3.org/2000/svg">
<path d="M0 0L117.506 21.6358L133.273 41.986L0 0Z" fill="#407BFF"/>
<path opacity="0.6" d="M0 0L117.506 21.6358L133.273 41.986L0 0Z" fill="white"/>
<path d="M0 0L117.506 21.6358L112.052 51.0636L0 0Z" fill="#407BFF"/>
<path opacity="0.2" d="M0 0L117.506 21.6358L112.052 51.0636L0 0Z" fill="black"/>
<path d="M0 0L96.9187 29.4608L112.052 51.0636L0 0Z" fill="#407BFF"/>
<path opacity="0.6" d="M0 0L96.9187 29.4608L112.052 51.0636L0 0Z" fill="white"/>
<path d="M0 0L96.9187 29.4608L78.0793 58.4996L0 0Z" fill="#407BFF"/>
<path d="M129.638 69.0219C129.508 69.0223 129.378 68.991 129.257 68.9296L113.474 60.9398C113.221 60.8098 113.019 60.5572 112.912 60.2373C112.804 59.9174 112.8 59.5562 112.9 59.2324C113 58.9086 113.196 58.6485 113.446 58.509C113.695 58.3694 113.978 58.3617 114.232 58.4875L130.02 66.4773C130.243 66.5902 130.428 66.7993 130.544 67.0685C130.66 67.3377 130.698 67.6501 130.653 67.9517C130.608 68.2534 130.482 68.5254 130.296 68.7208C130.111 68.9162 129.878 69.0227 129.638 69.0219Z" fill="#407BFF"/>
<path opacity="0.3" d="M129.638 69.0219C129.508 69.0223 129.378 68.991 129.257 68.9296L113.474 60.9398C113.221 60.8098 113.019 60.5572 112.912 60.2373C112.804 59.9174 112.8 59.5562 112.9 59.2324C113 58.9086 113.196 58.6485 113.446 58.509C113.695 58.3694 113.978 58.3617 114.232 58.4875L130.02 66.4773C130.243 66.5902 130.428 66.7993 130.544 67.0685C130.66 67.3377 130.698 67.6501 130.653 67.9517C130.608 68.2534 130.482 68.5254 130.296 68.7208C130.111 68.9162 129.878 69.0227 129.638 69.0219Z" fill="black"/>
<path d="M128.701 57.4451C128.572 57.444 128.444 57.4104 128.325 57.3462L119.846 53.0283C119.719 52.9655 119.603 52.8712 119.505 52.7509C119.407 52.6306 119.328 52.4866 119.274 52.3273C119.219 52.168 119.19 51.9965 119.188 51.8227C119.185 51.6488 119.21 51.4761 119.26 51.3144C119.31 51.1527 119.384 51.0052 119.479 50.8805C119.574 50.7557 119.687 50.6562 119.811 50.5875C119.936 50.5189 120.071 50.4825 120.207 50.4806C120.343 50.4786 120.477 50.511 120.604 50.576L129.083 54.8741C129.337 55.002 129.541 55.2536 129.65 55.5737C129.759 55.8938 129.765 56.2563 129.665 56.5815C129.592 56.834 129.461 57.0521 129.289 57.2065C129.117 57.3609 128.912 57.4441 128.701 57.4451Z" fill="#407BFF"/>
<path opacity="0.5" d="M128.701 57.4451C128.572 57.444 128.444 57.4104 128.325 57.3462L119.846 53.0283C119.719 52.9655 119.603 52.8712 119.505 52.7509C119.407 52.6306 119.328 52.4866 119.274 52.3273C119.219 52.168 119.19 51.9965 119.188 51.8227C119.185 51.6488 119.21 51.4761 119.26 51.3144C119.31 51.1527 119.384 51.0052 119.479 50.8805C119.574 50.7557 119.687 50.6562 119.811 50.5875C119.936 50.5189 120.071 50.4825 120.207 50.4806C120.343 50.4786 120.477 50.511 120.604 50.576L129.083 54.8741C129.337 55.002 129.541 55.2536 129.65 55.5737C129.759 55.8938 129.765 56.2563 129.665 56.5815C129.592 56.834 129.461 57.0521 129.289 57.2065C129.117 57.3609 128.912 57.4441 128.701 57.4451Z" fill="white"/>
<path d="M110.974 68.8491C110.845 68.8472 110.718 68.816 110.598 68.7568L95.2013 60.9384C95.0746 60.8756 94.9588 60.7813 94.8606 60.661C94.7625 60.5407 94.6839 60.3968 94.6294 60.2375C94.5749 60.0782 94.5456 59.9067 94.5431 59.7328C94.5407 59.559 94.5651 59.3862 94.6151 59.2245C94.6651 59.0628 94.7396 58.9154 94.8343 58.7906C94.929 58.6659 95.042 58.5663 95.1669 58.4977C95.2919 58.429 95.4261 58.3927 95.5621 58.3907C95.698 58.3887 95.8329 58.4212 95.959 58.4861L111.355 66.2782C111.579 66.3911 111.764 66.6001 111.88 66.8693C111.996 67.1385 112.034 67.4509 111.989 67.7526C111.944 68.0542 111.818 68.3262 111.632 68.5216C111.447 68.717 111.214 68.8235 110.974 68.8228V68.8491Z" fill="#407BFF"/>
<path opacity="0.3" d="M110.974 68.8491C110.845 68.8472 110.718 68.816 110.598 68.7568L95.2013 60.9384C95.0746 60.8756 94.9588 60.7813 94.8606 60.661C94.7625 60.5407 94.6839 60.3968 94.6294 60.2375C94.5749 60.0782 94.5456 59.9067 94.5431 59.7328C94.5407 59.559 94.5651 59.3862 94.6151 59.2245C94.6651 59.0628 94.7396 58.9154 94.8343 58.7906C94.929 58.6659 95.042 58.5663 95.1669 58.4977C95.2919 58.429 95.4261 58.3927 95.5621 58.3907C95.698 58.3887 95.8329 58.4212 95.959 58.4861L111.355 66.2782C111.579 66.3911 111.764 66.6001 111.88 66.8693C111.996 67.1385 112.034 67.4509 111.989 67.7526C111.944 68.0542 111.818 68.3262 111.632 68.5216C111.447 68.717 111.214 68.8235 110.974 68.8228V68.8491Z" fill="black"/>
</svg>
