<svg width="367" height="305" viewBox="0 0 367 305" fill="none" xmlns="http://www.w3.org/2000/svg">
<path d="M358.767 271.901H330.269V272.127H358.767V271.901Z" fill="#EBEBEB"/>
<path d="M255.355 269.455H225.196V269.68H255.355V269.455Z" fill="#EBEBEB"/>
<path d="M367 280.287H310.645V280.513H367V280.287Z" fill="#EBEBEB"/>
<path d="M17.3588 278.771H0V278.996H17.3588V278.771Z" fill="#EBEBEB"/>
<path d="M52.744 278.771H25.4014V278.996H52.744V278.771Z" fill="#EBEBEB"/>
<path d="M178.319 304.073C274.981 304.073 353.342 299.498 353.342 293.855C353.342 288.211 274.981 283.636 178.319 283.636C81.6557 283.636 3.29492 288.211 3.29492 293.855C3.29492 299.498 81.6557 304.073 178.319 304.073Z" fill="#F5F5F5"/>
<path d="M77.0543 49.8007C69.7785 57.1216 82.1455 68.4865 73.9761 73.7041C80.647 77.0531 104.027 81.3048 110.084 68.1345C105.67 64.7042 108.739 56.273 104.668 48.1759C98.5745 36.17 69.7785 41.4869 77.0543 49.8007Z" fill="#263238"/>
<path d="M77.7122 49.611C75.4464 49.2319 67.7825 53.0412 73.4875 63.2688C78.0823 71.5375 74.2548 72.1242 74.2548 72.1242C74.2548 72.1242 78.7683 72.2506 76.0602 66.1032C73.1897 59.5406 71.8446 52.7343 77.7122 49.611Z" fill="#263238"/>
<path d="M131.378 114.551C131.099 114.04 130.631 113.66 130.074 113.491C129.516 113.322 128.915 113.379 128.399 113.649L127.867 113.928C127.695 114.019 127.37 114.235 127.109 114.389C126.847 114.542 126.54 114.714 126.251 114.858C125.682 115.145 125.094 115.392 124.491 115.598C123.375 116.003 122.202 116.225 121.015 116.257C119.926 116.27 118.842 116.096 117.811 115.743C117.156 115.5 116.524 115.198 115.924 114.84C115.148 113.125 114.408 111.392 113.776 109.605C113.008 107.519 112.331 105.389 111.736 103.232C111.14 101.074 110.616 98.8896 110.183 96.696C109.957 95.6038 109.759 94.5025 109.578 93.4102L109.334 91.7763C109.253 91.2528 109.181 90.657 109.136 90.2418V90.0612C109.016 88.8642 108.426 87.7637 107.495 87.0019C106.564 86.2401 105.368 85.8794 104.171 85.9991C102.974 86.1188 101.874 86.7091 101.112 87.6402C100.35 88.5713 99.9892 89.7669 100.109 90.9639C100.172 91.7312 100.226 92.318 100.308 92.9589C100.389 93.5998 100.479 94.2136 100.569 94.8365C100.768 96.0822 100.994 97.3099 101.246 98.5375C101.748 100.977 102.381 103.388 103.142 105.759C103.494 106.951 103.927 108.124 104.334 109.307C104.74 110.489 105.236 111.645 105.751 112.791C106.736 115.107 107.854 117.365 109.1 119.552L109.208 119.751C109.532 120.338 110.018 120.821 110.607 121.141C112.314 122.071 114.157 122.723 116.069 123.073C118.032 123.42 120.044 123.377 121.99 122.946C124.738 122.309 127.261 120.94 129.293 118.984C129.627 118.677 129.943 118.361 130.196 118.027C130.449 117.693 130.755 117.377 131.098 116.907C131.363 116.581 131.53 116.187 131.579 115.77C131.629 115.353 131.559 114.93 131.378 114.551Z" fill="#FF8B7B"/>
<path d="M137.381 106.102H137.119C136.255 106.084 135.398 106.265 134.616 106.631C133.833 106.998 133.145 107.539 132.606 108.215L128.246 113.685V117.422C131.748 118.812 136.189 115.066 136.189 115.066L138.437 114.497C139.194 114.309 139.853 113.846 140.288 113.199C140.724 112.552 140.903 111.767 140.793 110.995L140.468 108.801C140.362 108.056 139.992 107.374 139.426 106.879C138.859 106.383 138.133 106.108 137.381 106.102Z" fill="#FF8B7B"/>
<path d="M109.019 85.006C111.935 88.0029 112.115 96.9486 112.115 96.9486L100.452 106.337C100.452 106.337 95.659 93.0671 98.3129 88.3821C100.561 84.4102 105.3 81.1876 109.019 85.006Z" fill="#407BFF"/>
<g opacity="0.2">
<path opacity="0.2" d="M109.019 85.006C111.935 88.0029 112.116 96.9486 112.116 96.9486L100.453 106.337C100.453 106.337 95.6595 93.0671 98.3134 88.3821C100.561 84.4102 105.3 81.1876 109.019 85.006Z" fill="white"/>
</g>
<path d="M89.7192 286.118L96.1645 286.822L97.0491 269.309L90.6039 268.596L89.7192 286.118Z" fill="#FF8B7B"/>
<path d="M97.2201 282.616H89.6465C89.4938 282.611 89.3452 282.665 89.2323 282.768C89.1194 282.871 89.051 283.014 89.0417 283.166L88.5361 290.325C88.536 290.699 88.6823 291.059 88.9437 291.327C89.2051 291.595 89.5609 291.75 89.9353 291.76C93.1309 291.76 93.167 291.76 97.1569 291.76H107.908C111.212 291.76 111.221 288.411 109.795 288.104C103.376 286.75 100.876 284.872 98.6102 283.085C98.2121 282.778 97.7228 282.613 97.2201 282.616Z" fill="#263238"/>
<path opacity="0.2" d="M97.0487 269.319L96.5883 278.346H90.1069L90.6034 268.605L97.0487 269.319Z" fill="black"/>
<path d="M100.525 129.589C100.525 129.589 106.104 176.286 106.104 197.048C101.707 225.934 97.9793 276.629 97.9793 276.629L89.0607 276.395C89.0607 276.395 85.0076 221.186 88.7628 197.346C83.9514 175.988 78.0117 126.701 78.0117 126.701L100.525 129.589Z" fill="#263238"/>
<path opacity="0.2" d="M83.3279 142.589C82.2649 143.057 81.2337 143.593 80.2407 144.196C81.4684 153.412 83.0842 165.012 84.7993 175.718C87.7241 166.907 86.1443 147.536 83.3279 142.589Z" fill="black"/>
<path d="M19.9233 269.86L25.2402 273.57L34.4116 258.621L29.0947 254.911L19.9233 269.86Z" fill="#FF8B7B"/>
<path d="M26.5848 271.611L22.0714 265.536C21.9854 265.412 21.8541 265.326 21.7055 265.297C21.557 265.268 21.4031 265.299 21.277 265.383L15.2289 269.264C14.9272 269.486 14.7249 269.818 14.6658 270.188C14.6067 270.558 14.6955 270.936 14.913 271.241C16.7996 273.814 16.8357 273.832 19.2098 277.027C20.6812 278.986 23.615 282.931 25.637 285.648C27.6591 288.365 30.3039 286.307 29.6901 284.971C26.982 279.022 26.982 275.944 27.0362 273.019C27.0454 272.513 26.8867 272.018 26.5848 271.611Z" fill="#263238"/>
<path opacity="0.2" d="M34.4025 258.621L29.6814 266.33L23.9854 263.225L29.0946 254.911L34.4025 258.621Z" fill="black"/>
<path d="M52.537 276.125C47.9242 276.125 38.3195 276.125 38.1571 269.337C38.0307 264.011 44.6204 261.799 50.3073 261.528C50.9374 261.498 51.5673 261.592 52.1611 261.805C52.7548 262.018 53.3007 262.346 53.7676 262.771C54.2345 263.195 54.6133 263.707 54.8823 264.277C55.1513 264.848 55.3053 265.466 55.3354 266.096V266.457C61.7806 266.15 65.951 264.742 67.4766 262.341C70.9159 256.925 64.3262 242.942 57.9622 229.429C50.4698 213.532 41.9845 195.523 41.822 178.273C41.816 177.642 41.9344 177.016 42.1702 176.432C42.4061 175.847 42.7548 175.314 43.1966 174.864C43.6384 174.414 44.1644 174.055 44.7448 173.808C45.3252 173.561 45.9485 173.431 46.5792 173.425C47.8444 173.428 49.0577 173.928 49.9565 174.818C50.8554 175.709 51.3673 176.917 51.3815 178.183C51.526 193.33 59.5058 210.327 66.601 225.33C74.7252 242.644 81.8114 257.602 75.5377 267.486C71.8998 273.3 64.3623 276.125 52.537 276.125Z" fill="#407BFF"/>
<path d="M93.3841 128.669C93.3841 128.669 77.9841 182.037 70.4647 201.39C55.8952 226.72 31.721 265.482 31.721 265.482L24.0029 260.968C24.0029 260.968 42.0568 216.195 54.1981 195.342C57.4568 173.678 69.7786 125.6 69.7786 125.6L93.3841 128.669Z" fill="#263238"/>
<path d="M27.9759 275.972C28.2822 276.479 28.7541 276.864 29.3119 277.064C29.4751 277.103 29.6461 277.096 29.8056 277.043C29.9651 276.991 30.1067 276.895 30.2145 276.766C30.2896 276.697 30.3469 276.611 30.3815 276.515C30.416 276.419 30.4269 276.316 30.4131 276.215C30.3048 275.132 27.5065 273.724 26.9468 273.453C26.9142 273.44 26.8778 273.439 26.8446 273.45C26.8113 273.462 26.7835 273.486 26.7663 273.516C26.7445 273.55 26.7329 273.589 26.7329 273.629C26.7329 273.669 26.7445 273.708 26.7663 273.742C27.0977 274.522 27.5028 275.268 27.9759 275.972ZM29.8986 275.972C29.9781 276.071 30.0309 276.189 30.0521 276.315C30.0564 276.35 30.0521 276.385 30.0395 276.418C30.0269 276.451 30.0064 276.481 29.9798 276.504C29.907 276.587 29.8135 276.649 29.7088 276.684C29.6041 276.719 29.4921 276.725 29.3841 276.703C28.7883 276.585 28.0029 275.62 27.2447 274.094C28.2278 274.552 29.1254 275.175 29.8986 275.935V275.972Z" fill="#407BFF"/>
<path d="M26.7203 273.777L26.7745 273.822C27.6772 274.319 30.0242 274.725 30.5387 273.976C30.6251 273.839 30.6671 273.679 30.659 273.517C30.6509 273.356 30.5932 273.201 30.4936 273.073C29.5909 271.475 26.8828 273.353 26.7655 273.434C26.7385 273.456 26.7171 273.483 26.703 273.515C26.6889 273.546 26.6824 273.58 26.6842 273.615C26.6806 273.671 26.6931 273.728 26.7203 273.777ZM30.1506 273.254C30.1769 273.285 30.201 273.318 30.2228 273.353C30.3221 273.525 30.3401 273.651 30.286 273.723C29.9881 274.156 28.2549 274.003 27.2439 273.606C27.9209 273.2 29.5006 272.378 30.1506 273.254Z" fill="#407BFF"/>
<path d="M101.59 284.104C102.182 284.158 102.774 284.009 103.269 283.68C103.394 283.57 103.487 283.428 103.536 283.268C103.586 283.109 103.59 282.939 103.549 282.777C103.536 282.675 103.5 282.578 103.444 282.492C103.387 282.406 103.312 282.334 103.224 282.281C102.321 281.73 99.4957 283.129 98.9451 283.418C98.914 283.435 98.8899 283.463 98.8767 283.496C98.8635 283.529 98.8622 283.565 98.8728 283.599C98.8866 283.637 98.9094 283.67 98.9393 283.697C98.9693 283.724 99.0053 283.743 99.0443 283.752C99.8786 283.956 100.732 284.074 101.59 284.104ZM102.709 282.543C102.838 282.534 102.966 282.563 103.079 282.624C103.125 282.624 103.17 282.687 103.188 282.795C103.211 282.903 103.205 283.016 103.17 283.121C103.135 283.226 103.073 283.319 102.989 283.391C102.547 283.797 101.301 283.852 99.6221 283.554C100.571 283.045 101.6 282.703 102.664 282.543H102.709Z" fill="#407BFF"/>
<path d="M99.045 283.798H99.1082C100.011 283.383 101.771 281.731 101.482 280.873C101.422 280.731 101.322 280.61 101.193 280.525C101.065 280.44 100.914 280.395 100.76 280.395C98.9547 280.187 98.8284 283.455 98.8193 283.59C98.8196 283.626 98.8288 283.662 98.8462 283.693C98.8635 283.725 98.8884 283.751 98.9186 283.771C98.957 283.793 99.0011 283.802 99.045 283.798ZM100.67 280.729H100.796C100.986 280.729 101.103 280.81 101.13 280.9C101.302 281.397 100.146 282.706 99.2165 283.274C99.2978 282.489 99.5866 280.729 100.688 280.729H100.67Z" fill="#407BFF"/>
<path d="M69.7788 125.645L100.525 129.581C107.457 106.237 109.741 94.9625 110.355 89.5373C110.517 88.1736 110.199 86.7961 109.454 85.6425C108.709 84.4888 107.584 83.6314 106.275 83.2184C104.469 82.6407 102.14 81.9546 99.8295 81.413C99.0442 81.2054 98.2408 81.0158 97.4555 80.8353C92.8526 79.9014 88.1888 79.2981 83.4998 79.0299C82.8047 78.9667 82.1187 78.9306 81.4236 78.8945C80.0605 78.8223 78.7155 78.8042 77.4878 78.8042C76.5664 78.8031 75.6548 78.9939 74.8112 79.3646C73.9676 79.7352 73.2105 80.2774 72.588 80.9568C71.9655 81.6362 71.4914 82.4378 71.1958 83.3105C70.9002 84.1832 70.7896 85.1079 70.8711 86.0258C71.1148 88.7339 71.3044 91.2524 71.4488 93.5633C71.7918 98.9795 71.9002 103.312 71.8189 107.104C71.6344 113.329 70.9522 119.529 69.7788 125.645Z" fill="#407BFF"/>
<g opacity="0.3">
<path opacity="0.3" d="M69.7788 125.645L100.525 129.58C107.457 106.237 109.741 94.962 110.355 89.5368C110.517 88.1732 110.199 86.7956 109.454 85.642C108.709 84.4883 107.584 83.631 106.275 83.2179C104.469 82.6402 102.14 81.9541 99.8295 81.4125C99.0442 81.2049 98.2408 81.0153 97.4555 80.8348C92.8526 79.9009 88.1888 79.2976 83.4998 79.0294C82.8047 78.9662 82.1187 78.9301 81.4236 78.894C80.0605 78.8218 78.7155 78.8037 77.4878 78.8037C76.5664 78.8026 75.6548 78.9935 74.8112 79.3641C73.9676 79.7347 73.2105 80.277 72.588 80.9563C71.9655 81.6357 71.4914 82.4373 71.1958 83.31C70.9002 84.1827 70.7896 85.1075 70.8711 86.0253C71.1148 88.7334 71.3044 91.2519 71.4488 93.5628C71.7918 98.979 71.9002 103.312 71.8189 107.103C71.6344 113.328 70.9522 119.528 69.7788 125.645Z" fill="white"/>
</g>
<path opacity="0.3" d="M71.8008 107.068C75.8629 101.815 77.3343 95.8026 76.0164 92.4897L71.4307 93.5188C71.8008 98.9169 71.9001 103.268 71.8008 107.068Z" fill="#407BFF"/>
<path d="M99.8297 81.3591C99.0353 81.1514 98.2409 80.9619 97.4556 80.7813C92.849 79.8518 88.1825 79.2485 83.4909 78.9759C82.7958 78.9218 82.1098 78.8857 81.4237 78.8496L80.2231 78.7954L81.1258 80.3751C81.2522 80.5918 84.3214 85.6108 91.9582 91.0089L93.5921 92.1463L95.1628 90.9457C96.6754 89.8606 97.9113 88.4348 98.7707 86.7834C99.6301 85.1321 100.089 83.3017 100.11 81.4403L99.8297 81.3591Z" fill="white"/>
<path d="M86.8854 69.6964C86.5965 73.4968 85.7028 77.3693 83.4912 78.9942C83.4912 78.9942 86.3076 83.6792 93.6014 88.7975C98.169 85.304 97.4559 80.7815 97.4559 80.7815C92.5994 78.9761 92.9424 75.6091 94.9916 70.238L91.2002 68.1979C90.8731 67.8375 90.4473 67.5812 89.9756 67.4608C89.504 67.3405 89.0074 67.3615 88.5476 67.5212C88.0878 67.6809 87.685 67.9722 87.3895 68.3589C87.094 68.7457 86.9186 69.2108 86.8854 69.6964Z" fill="#FF8B7B"/>
<path opacity="0.2" d="M91.2004 68.1973C90.8932 67.858 90.4982 67.6102 90.059 67.4813C89.6197 67.3524 89.1534 67.3475 88.7116 67.467C88.2697 67.5866 87.8695 67.826 87.5552 68.1588C87.241 68.4916 87.0248 68.9048 86.9307 69.3528C88.3708 72.2565 90.6934 74.6297 93.5655 76.132C93.6683 74.0963 94.1489 72.0974 94.9827 70.2374L91.2004 68.1973Z" fill="black"/>
<path d="M80.9807 57.7809C82.8674 65.1198 83.5083 68.2612 87.9947 71.3213C94.7378 75.9611 103.34 72.0434 103.674 64.2983C103.99 57.3205 100.858 46.4881 93.0227 44.9355C91.293 44.5819 89.5015 44.6773 87.8191 45.2125C86.1367 45.7477 84.6195 46.705 83.412 47.993C82.2045 49.281 81.3471 50.8568 80.9215 52.5703C80.4959 54.2837 80.5163 56.0776 80.9807 57.7809Z" fill="#FF8B7B"/>
<path d="M99.6582 46.4517C95.2381 50.3809 89.9947 53.2709 84.3124 54.91C84.3124 54.91 89.9181 66.8346 79.4288 63.8286C76.3867 53.6733 79.4288 48.4015 82.1369 45.9191C90.4778 43.211 96.3453 42.3083 99.6582 46.4517Z" fill="#263238"/>
<path d="M80.6295 65.0116C81.2446 66.3412 82.361 67.3733 83.7348 67.8822C85.5402 68.5321 86.6144 66.9795 86.2262 65.1741C85.8742 63.5582 84.5021 61.2654 82.6155 61.3827C82.2074 61.4176 81.8143 61.5529 81.4712 61.7765C81.1281 62.0001 80.8456 62.3051 80.649 62.6644C80.4524 63.0237 80.3477 63.426 80.3443 63.8355C80.3409 64.2451 80.4389 64.6491 80.6295 65.0116Z" fill="#FF8B7B"/>
<path d="M69.553 123.786L67.8108 126.359C67.6754 126.557 67.9011 126.81 68.2531 126.855L100.497 130.99C100.777 130.99 101.021 130.917 101.066 130.746L101.698 128.038C101.698 127.848 101.517 127.659 101.22 127.614L70.0765 123.624C69.9827 123.602 69.8847 123.605 69.7927 123.634C69.7007 123.662 69.6179 123.715 69.553 123.786Z" fill="#407BFF"/>
<path d="M73.2815 127.802L72.451 127.694C72.2885 127.694 72.1711 127.568 72.1982 127.468L73.0468 123.939C73.079 123.879 73.1306 123.833 73.1929 123.807C73.2553 123.78 73.3247 123.776 73.3898 123.795L74.2293 123.903C74.3918 123.903 74.5091 124.02 74.482 124.128L73.6335 127.649C73.6064 127.757 73.453 127.821 73.2815 127.802Z" fill="#263238"/>
<path d="M98.1145 130.98L97.284 130.881C97.1215 130.881 97.0042 130.755 97.0312 130.646L97.8798 127.126C97.8798 127.027 98.0603 126.954 98.2228 126.973L99.0623 127.081C99.2248 127.081 99.3421 127.207 99.3151 127.307L98.4665 130.836C98.4394 130.935 98.286 131.008 98.1145 130.98Z" fill="#263238"/>
<path d="M85.7031 129.391L84.8726 129.283C84.7011 129.283 84.5837 129.165 84.6108 129.057L85.4594 125.536C85.4594 125.428 85.6399 125.365 85.8114 125.383L86.6419 125.491C86.8044 125.491 86.9217 125.618 86.9037 125.717L86.0461 129.246C86.028 129.346 85.8656 129.409 85.7031 129.391Z" fill="#263238"/>
<path d="M93.5565 57.465C93.6648 58.0698 94.0801 58.5031 94.4592 58.4219C94.8383 58.3406 95.082 57.799 94.9647 57.1942C94.8473 56.5894 94.4321 56.1561 94.062 56.2373C93.6919 56.3186 93.4662 56.8602 93.5565 57.465Z" fill="#263238"/>
<path d="M100.38 56.1558C100.498 56.7606 100.913 57.1849 101.283 57.1127C101.653 57.0405 101.906 56.4808 101.789 55.876C101.671 55.2712 101.256 54.8469 100.886 54.9191C100.516 54.9914 100.272 55.551 100.38 56.1558Z" fill="#263238"/>
<path d="M100.687 54.9917L102.059 54.2876C102.059 54.2876 101.59 55.5694 100.687 54.9917Z" fill="#263238"/>
<path d="M98.5742 57.5093C99.3809 58.7809 100.356 59.9378 101.472 60.9485C101.207 61.2296 100.884 61.4489 100.525 61.5908C100.167 61.7328 99.7808 61.794 99.3957 61.77L98.5742 57.5093Z" fill="#FF5652"/>
<path d="M94.3144 64.208C94.2872 64.2395 94.2717 64.2795 94.2706 64.3211C94.2695 64.3628 94.2828 64.4035 94.3083 64.4365C94.3338 64.4694 94.3699 64.4925 94.4105 64.5019C94.4511 64.5113 94.4937 64.5063 94.531 64.4878C95.2131 64.1399 95.9679 63.9585 96.7336 63.9585C97.4993 63.9585 98.2541 64.1399 98.9362 64.4878C98.9771 64.5111 99.0254 64.5175 99.0709 64.5057C99.1164 64.4939 99.1555 64.4648 99.1799 64.4246C99.2046 64.3835 99.2127 64.3345 99.2026 64.2876C99.1926 64.2407 99.1651 64.1993 99.1258 64.1719C98.3896 63.7948 97.5743 63.5981 96.7472 63.5981C95.92 63.5981 95.1047 63.7948 94.3686 64.1719C94.3686 64.1719 94.3686 64.1899 94.3144 64.208Z" fill="#263238"/>
<path d="M91.1994 55.6047C91.2551 55.5703 91.2991 55.52 91.3257 55.4602C91.5139 55.0488 91.7968 54.6879 92.1515 54.407C92.5061 54.1261 92.9223 53.9333 93.3658 53.8444C93.4134 53.8388 93.4594 53.8239 93.5011 53.8003C93.5428 53.7768 93.5795 53.7453 93.6089 53.7075C93.6383 53.6696 93.6599 53.6264 93.6724 53.5802C93.6849 53.5339 93.6881 53.4857 93.6818 53.4382C93.6773 53.391 93.6634 53.3452 93.6408 53.3035C93.6183 53.2619 93.5875 53.2252 93.5504 53.1957C93.5133 53.1662 93.4707 53.1445 93.425 53.1318C93.3793 53.1192 93.3316 53.116 93.2846 53.1222C92.7203 53.2277 92.1893 53.4661 91.7356 53.8177C91.2819 54.1694 90.9186 54.6241 90.6758 55.1443C90.6408 55.2155 90.6301 55.2963 90.6456 55.3741C90.661 55.452 90.7017 55.5225 90.7613 55.5749C90.8209 55.6273 90.8961 55.6587 90.9753 55.664C91.0545 55.6694 91.1332 55.6485 91.1994 55.6047Z" fill="#263238"/>
<path d="M102.411 51.0284L102.456 50.9833C102.484 50.9442 102.503 50.9001 102.514 50.8535C102.524 50.8069 102.525 50.7587 102.517 50.7117C102.508 50.6646 102.491 50.6198 102.465 50.5796C102.439 50.5395 102.405 50.5048 102.366 50.4777C101.899 50.1423 101.359 49.9231 100.791 49.8383C100.223 49.7536 99.6424 49.8057 99.0982 49.9903C99.0113 50.0282 98.9422 50.098 98.9052 50.1854C98.8683 50.2727 98.8663 50.3709 98.8996 50.4597C98.9357 50.5482 99.0053 50.6187 99.0933 50.6559C99.1813 50.6932 99.2804 50.694 99.369 50.6583C99.8013 50.5166 100.261 50.4804 100.71 50.5527C101.159 50.6249 101.585 50.8035 101.951 51.0735C102.02 51.1229 102.105 51.1455 102.189 51.1372C102.274 51.1289 102.353 51.0902 102.411 51.0284Z" fill="#263238"/>
<path d="M93.8906 56.3005L95.2627 55.6055C95.2627 55.6055 94.7301 56.8783 93.8906 56.3005Z" fill="#263238"/>
<path d="M46.6244 183.029C45.3585 183.029 44.1438 182.53 43.2445 181.639C42.3452 180.748 41.834 179.538 41.8221 178.272C41.6957 165.454 45.9654 154.63 54.1709 146.976C64.2721 137.551 80.0241 133.173 98.5474 134.636C111.537 135.665 119.869 132.505 129.51 128.831C131.099 128.236 132.696 127.622 134.339 127.026C135.536 126.59 136.857 126.648 138.012 127.186C139.167 127.725 140.06 128.7 140.496 129.897C140.931 131.094 140.874 132.415 140.335 133.569C139.797 134.724 138.822 135.617 137.625 136.053C136.027 136.631 134.475 137.227 132.931 137.813C123.101 141.55 112.945 145.405 97.7892 144.213C81.992 142.959 68.8307 146.434 60.7245 153.999C54.4056 159.848 51.3274 167.981 51.4267 178.182C51.4327 178.812 51.3144 179.438 51.0785 180.023C50.8427 180.608 50.4939 181.141 50.0521 181.591C49.6104 182.041 49.0843 182.4 48.5039 182.646C47.9235 182.893 47.3002 183.023 46.6695 183.029H46.6244Z" fill="#407BFF"/>
<path d="M157.688 142.834L138.371 149.911C136.76 150.501 134.979 150.427 133.422 149.705C131.865 148.983 130.658 147.672 130.068 146.06L122.091 124.285C121.5 122.673 121.574 120.892 122.296 119.335C123.018 117.778 124.33 116.571 125.942 115.981L145.259 108.904L157.679 142.809L157.688 142.834Z" fill="#407BFF"/>
<path opacity="0.7" d="M157.688 142.834L138.371 149.911C136.76 150.501 134.979 150.427 133.422 149.705C131.865 148.983 130.658 147.672 130.068 146.06L122.091 124.285C121.5 122.673 121.574 120.892 122.296 119.335C123.018 117.778 124.33 116.571 125.942 115.981L145.259 108.904L157.679 142.809L157.688 142.834Z" fill="white"/>
<path opacity="0.2" d="M136.651 112.051L145.272 108.9L157.693 142.824L149.072 145.983C148.499 145.428 148.06 144.749 147.791 143.997L136.958 114.398C136.675 113.65 136.57 112.846 136.651 112.051Z" fill="#407BFF"/>
<path d="M157.837 145.265L165.898 142.349C168.531 141.397 169.894 138.489 168.942 135.856L158 105.606C157.047 102.972 154.14 101.609 151.506 102.562L143.445 105.477C140.812 106.43 139.449 109.337 140.401 111.971L151.343 142.221C152.296 144.855 155.203 146.218 157.837 145.265Z" fill="#407BFF"/>
<path d="M153.224 114.786C153.408 115.29 153.438 115.836 153.311 116.357C153.185 116.878 152.906 117.349 152.511 117.711C152.117 118.074 151.623 118.311 151.094 118.393C150.564 118.475 150.022 118.397 149.536 118.171C149.05 117.944 148.643 117.579 148.365 117.121C148.087 116.663 147.951 116.132 147.975 115.597C147.998 115.061 148.181 114.545 148.498 114.113C148.815 113.681 149.253 113.353 149.757 113.17C150.431 112.926 151.175 112.959 151.824 113.262C152.474 113.565 152.977 114.113 153.224 114.786Z" fill="#263238"/>
<path d="M159.967 133.192C160.151 133.695 160.181 134.241 160.054 134.761C159.927 135.282 159.648 135.752 159.254 136.114C158.86 136.476 158.367 136.713 157.837 136.795C157.308 136.877 156.767 136.801 156.281 136.575C155.796 136.349 155.388 135.985 155.11 135.527C154.831 135.07 154.695 134.54 154.717 134.005C154.74 133.47 154.92 132.954 155.236 132.522C155.552 132.089 155.989 131.76 156.492 131.576C156.826 131.454 157.181 131.399 157.537 131.414C157.893 131.429 158.242 131.513 158.565 131.664C158.887 131.814 159.177 132.026 159.418 132.288C159.659 132.55 159.845 132.858 159.967 133.192Z" fill="#263238"/>
<path d="M80.8267 131.017L80.7545 130.935C79.3463 129.527 77.8568 127.993 76.5118 126.422C75.1668 124.851 73.8489 123.28 72.6483 121.656C71.4712 120.07 70.4006 118.409 69.4437 116.682C68.7589 115.447 68.1763 114.157 67.7015 112.827C68.2431 111.022 68.8208 109.217 69.5069 107.483C70.2922 105.398 71.1769 103.349 72.1428 101.327C73.1086 99.3049 74.1377 97.319 75.248 95.3782C75.7897 94.4033 76.3583 93.4374 76.9451 92.4896L77.8478 91.0994C78.1276 90.6481 78.4616 90.1967 78.6963 89.8085L78.7956 89.6641C79.4373 88.686 79.6742 87.497 79.4563 86.3476C79.2384 85.1983 78.5828 84.1785 77.6277 83.5031C76.6725 82.8277 75.4925 82.5495 74.3362 82.7272C73.18 82.9049 72.1379 83.5246 71.4296 84.4556C70.9783 85.0694 70.6353 85.5569 70.2742 86.0894C69.9131 86.622 69.5881 87.1546 69.2451 87.6872C68.5861 88.7524 67.9452 89.8266 67.3314 90.9189C66.1102 93.098 65.0044 95.3398 64.0185 97.6349C63.513 98.7723 63.1158 99.9368 62.6013 101.101C62.0867 102.266 61.7437 103.448 61.3826 104.658C60.6164 107.055 59.9865 109.493 59.496 111.961V112.168C59.3559 112.827 59.4028 113.512 59.6314 114.145C60.5061 116.46 61.6676 118.655 63.0887 120.681C64.427 122.603 65.9183 124.414 67.548 126.097C69.1356 127.718 70.8208 129.24 72.5941 130.656C74.3666 132.069 76.2269 133.368 78.1637 134.546C78.634 134.821 79.1885 134.915 79.7232 134.811C80.2579 134.706 80.7362 134.41 81.0683 133.979C81.4005 133.547 81.5638 133.009 81.5276 132.465C81.4915 131.921 81.2583 131.41 80.8718 131.026L80.8267 131.017Z" fill="#FF8B7B"/>
<path d="M91.3168 135.503L91.1994 135.268C90.8247 134.486 90.2733 133.801 89.5887 133.269C88.9041 132.736 88.105 132.37 87.2546 132.199L80.4032 130.809L77.0542 132.479C77.4153 136.234 82.7773 138.482 82.7773 138.482L84.3028 140.224C84.8172 140.808 85.5292 141.182 86.3021 141.273C87.0751 141.365 87.8546 141.168 88.4913 140.72L90.2967 139.429C90.9035 139.001 91.3389 138.372 91.5257 137.653C91.7124 136.934 91.6384 136.172 91.3168 135.503Z" fill="#FF8B7B"/>
<path d="M74.6804 79.3815C70.88 81.1237 66.8359 87.1537 66.8359 87.1537L74.9602 102.364C74.9602 102.364 84.1948 91.7214 83.4184 86.3955C82.7866 81.873 79.5188 77.1609 74.6804 79.3815Z" fill="#407BFF"/>
<g opacity="0.3">
<path opacity="0.3" d="M74.6799 79.3825C70.8795 81.1247 66.8354 87.1547 66.8354 87.1547L74.9597 102.365C74.9597 102.365 84.1943 91.7224 83.418 86.3965C82.7861 81.874 79.5183 77.1619 74.6799 79.3825Z" fill="white"/>
</g>
<path d="M334.747 278.681C326.794 278.681 318.976 277.047 315.185 272.1C297.24 248.63 297.402 201.419 297.555 155.733C297.646 131.135 299.587 107.891 296.851 89.8367C295.245 79.1939 289.63 71.8911 283.961 68.1178C275.548 62.5572 263.993 65.5451 259.056 66.8179C258.44 66.9898 257.797 67.0372 257.164 66.9575C256.53 66.8777 255.919 66.6724 255.365 66.3536C254.812 66.0347 254.328 65.6087 253.941 65.1004C253.555 64.5921 253.273 64.0119 253.113 63.3935C252.954 62.7752 252.919 62.1312 253.011 61.4993C253.103 60.8674 253.321 60.2602 253.651 59.7133C253.98 59.1664 254.416 58.6907 254.932 58.3141C255.447 57.9376 256.033 57.6676 256.654 57.5202C262.82 55.9224 277.281 52.1943 289.251 60.1019C297.33 65.4368 304.317 74.9602 306.348 88.4014C309.191 107.177 307.25 130.765 307.16 155.733C307.007 199.812 306.853 245.389 322.813 266.232C324.104 267.911 329.132 269.419 337.482 268.986C338.222 268.986 338.944 268.904 339.657 268.841C339.334 268.187 339.167 267.467 339.17 266.738C339.17 265.464 339.676 264.243 340.576 263.342C341.477 262.441 342.698 261.936 343.972 261.936C354.47 261.936 359.995 262.838 361.06 267.641C361.367 269.022 361.529 272.488 356.456 274.862C352.665 276.64 343.62 278.681 334.747 278.681Z" fill="#407BFF"/>
<path d="M229.654 282.823L219.86 278.968L225.023 261.989L234.827 265.834L229.654 282.823Z" fill="#FFC3BD"/>
<path d="M219.626 277.931L230.675 282.264C230.814 282.321 230.931 282.423 231.007 282.553C231.082 282.684 231.111 282.836 231.09 282.986L230.007 289.864C229.978 290.031 229.913 290.189 229.816 290.326C229.719 290.464 229.592 290.578 229.445 290.661C229.297 290.743 229.134 290.791 228.965 290.802C228.797 290.812 228.628 290.785 228.472 290.722C225.701 289.576 221.359 287.68 217.847 286.299C215.69 285.45 211.583 284.096 208.595 282.923C205.607 281.749 206.383 278.644 207.692 278.861C213.641 279.817 215.916 278.797 218.29 277.913C218.721 277.748 219.199 277.754 219.626 277.931Z" fill="#263238"/>
<path opacity="0.2" d="M234.827 265.843L225.024 261.989L222.361 270.745L232.164 274.599L234.827 265.843Z" fill="black"/>
<path d="M247.077 134.411C247.077 134.411 238.212 178.228 234.827 199.838C231.018 224.058 220.953 268.299 220.953 268.299L233.979 273.417C233.979 273.417 252.583 228.12 255.174 206.184C262.982 188.356 278.508 135.892 278.508 135.892L247.077 134.411Z" fill="#407BFF"/>
<path d="M220.32 268.371L234.619 273.995L237.065 269.662L221.079 263.036L220.32 268.371Z" fill="#263238"/>
<path d="M216.818 278.12C216.32 277.965 215.888 277.647 215.591 277.217C215.508 277.058 215.465 276.882 215.465 276.703C215.465 276.524 215.508 276.347 215.591 276.188C215.627 276.09 215.691 276.005 215.774 275.941C215.857 275.877 215.956 275.838 216.06 275.827C217.008 275.728 218.768 278.039 218.94 278.31C218.959 278.339 218.969 278.374 218.969 278.409C218.969 278.444 218.959 278.479 218.94 278.508C218.921 278.538 218.894 278.561 218.861 278.576C218.829 278.59 218.794 278.595 218.759 278.59C218.097 278.504 217.446 278.347 216.818 278.12ZM216.34 276.234C216.267 276.198 216.186 276.182 216.105 276.188C216.051 276.188 215.988 276.188 215.925 276.342C215.865 276.449 215.833 276.571 215.833 276.694C215.833 276.817 215.865 276.938 215.925 277.046C216.186 277.524 217.089 277.949 218.398 278.165C217.848 277.39 217.148 276.733 216.34 276.234Z" fill="#407BFF"/>
<path d="M218.741 278.581C218.711 278.571 218.686 278.552 218.668 278.527C218.091 277.841 217.278 275.719 217.766 274.988C217.841 274.875 217.953 274.79 218.082 274.749C218.212 274.708 218.352 274.713 218.479 274.762C218.613 274.797 218.738 274.858 218.847 274.944C218.956 275.029 219.046 275.137 219.111 275.259C219.67 276.261 219.038 278.373 219.011 278.464C219.001 278.496 218.982 278.524 218.956 278.546C218.931 278.569 218.9 278.584 218.867 278.59C218.847 278.6 218.825 278.604 218.802 278.602C218.78 278.601 218.759 278.593 218.741 278.581ZM218.434 275.133H218.361C218.127 275.078 218.073 275.133 218.045 275.214C217.775 275.647 218.217 277.182 218.731 278.021C218.989 277.186 218.989 276.293 218.731 275.458C218.674 275.317 218.569 275.202 218.434 275.133Z" fill="#407BFF"/>
<path opacity="0.2" d="M266.187 160.941C261.276 167.025 259.335 182.533 259.353 195.46C262.666 186.334 266.466 174.743 269.806 164.218L266.187 160.941Z" fill="black"/>
<path d="M288.6 284.457H278.075L276.676 266.765H287.201L288.6 284.457Z" fill="#FFC3BD"/>
<path d="M277.479 283.573H289.349C289.502 283.572 289.649 283.623 289.768 283.719C289.886 283.814 289.968 283.947 289.999 284.096L291.507 290.885C291.542 291.05 291.54 291.222 291.499 291.386C291.459 291.551 291.383 291.705 291.275 291.836C291.168 291.966 291.032 292.071 290.878 292.143C290.725 292.214 290.557 292.25 290.387 292.248C287.391 292.194 282.669 292.013 278.896 292.013C276.567 292.013 272.252 292.257 269.048 292.257C265.843 292.257 265.437 289.088 266.728 288.799C272.622 287.509 274.374 285.739 276.251 284.042C276.59 283.741 277.026 283.575 277.479 283.573Z" fill="#263238"/>
<path opacity="0.2" d="M287.201 266.765H276.667L277.398 275.891H287.933L287.201 266.765Z" fill="black"/>
<path d="M259.823 134.962C259.823 134.962 265.654 183.789 266.882 201.364C268.588 225.827 275.187 274.121 275.187 274.121H289.178C289.178 274.121 290.677 224.798 288.149 202.854C291.634 183.707 290.532 136.433 290.532 136.433L259.823 134.962Z" fill="#407BFF"/>
<path d="M274.627 274.419H289.99L290.686 269.5L273.381 269.175L274.627 274.419Z" fill="#263238"/>
<path d="M274.906 284.773C274.386 284.812 273.868 284.675 273.435 284.384C273.3 284.266 273.196 284.118 273.13 283.952C273.064 283.785 273.038 283.606 273.056 283.428C273.056 283.321 273.085 283.217 273.141 283.126C273.197 283.035 273.276 282.961 273.371 282.913C274.22 282.48 276.684 283.996 276.982 284.168C277.014 284.185 277.039 284.212 277.055 284.244C277.071 284.276 277.077 284.313 277.073 284.348C277.064 284.384 277.047 284.418 277.021 284.445C276.996 284.472 276.964 284.491 276.928 284.502C276.266 284.668 275.588 284.759 274.906 284.773ZM273.769 283.193C273.688 283.188 273.607 283.203 273.534 283.238C273.489 283.238 273.435 283.31 273.426 283.446C273.407 283.567 273.419 283.691 273.462 283.807C273.505 283.922 273.576 284.025 273.669 284.105C274.085 284.457 275.087 284.502 276.377 284.24C275.592 283.728 274.716 283.373 273.796 283.193H273.769Z" fill="#407BFF"/>
<path d="M276.892 284.502H276.802C276.016 284.069 274.482 282.399 274.644 281.541C274.671 281.408 274.744 281.289 274.849 281.203C274.955 281.118 275.086 281.071 275.222 281.072C275.359 281.053 275.498 281.063 275.63 281.102C275.762 281.141 275.885 281.208 275.989 281.298C276.892 282.029 277.064 284.231 277.073 284.322C277.074 284.355 277.068 284.388 277.054 284.418C277.04 284.448 277.018 284.474 276.991 284.493C276.959 284.504 276.925 284.507 276.892 284.502ZM275.348 281.406H275.267C275.032 281.406 275.014 281.551 275.005 281.596C274.906 282.092 275.908 283.401 276.666 283.961C276.611 283.088 276.297 282.252 275.764 281.56C275.646 281.463 275.5 281.409 275.348 281.406Z" fill="#407BFF"/>
<path d="M264.652 67.6293L256.221 67.521C253.386 67.521 250.57 67.4307 247.78 67.3856C246.932 67.3856 246.101 67.3314 245.262 67.2953C245.316 67.2953 245.352 67.1961 245.397 67.1509C245.993 66.519 246.589 65.8691 247.203 65.2462C247.51 64.9213 247.811 64.6053 248.105 64.2984C248.385 63.9915 248.746 63.6485 248.936 63.3957L249.703 62.4208C250.308 61.6493 250.654 60.7069 250.694 59.7274C250.733 58.7479 250.462 57.7809 249.921 56.9637C249.379 56.1465 248.594 55.5205 247.677 55.1747C246.76 54.8288 245.757 54.7805 244.811 55.0367L243.141 55.4881C242.626 55.6415 242.111 55.8131 241.597 55.9846C240.586 56.3366 239.593 56.7248 238.609 57.1491C236.626 58.0245 234.71 59.0443 232.877 60.2002C230.978 61.414 229.181 62.7816 227.506 64.2894C225.733 65.9017 224.127 67.6891 222.713 69.6243C222.356 70.1072 222.053 70.6278 221.81 71.1769C220.971 73.0983 220.93 75.2739 221.695 77.2256C222.461 79.1773 223.969 80.7453 225.89 81.585L226.711 81.9461C228.566 82.7442 230.487 83.3785 232.453 83.8417C234.168 84.2841 235.793 84.5729 237.39 84.8437C238.988 85.1145 240.55 85.3312 242.102 85.5208C243.655 85.7103 245.19 85.8548 246.724 85.9811C249.784 86.252 252.817 86.3873 255.841 86.4776C258.866 86.5679 261.826 86.5679 264.968 86.4235C267.417 86.3189 269.729 85.2621 271.411 83.478C273.093 81.694 274.011 79.3238 273.971 76.8724C273.931 74.421 272.936 72.0821 271.197 70.3539C269.458 68.6257 267.112 67.6449 264.661 67.6203L264.652 67.6293Z" fill="#FFC3BD"/>
<path d="M269.563 84.1038C262.278 92.4086 244.748 89.3033 244.748 89.3033L245.713 68.6135C251.722 67.2911 257.85 66.5804 264.002 66.4922C274.293 66.4742 275.394 77.4419 269.563 84.1038Z" fill="#263238"/>
<path d="M250.118 77.74C249.685 81.08 249.216 85.5754 248.936 91.6235C245.136 110.851 243.718 124.473 247.076 134.411C249.73 137.688 284.313 137.056 290.532 136.424C294.143 127.488 294.522 101.833 294.946 80.2675C295 77.2959 293.986 74.4035 292.09 72.1148C290.194 69.8261 287.54 68.2926 284.61 67.7923C276.828 66.4128 268.89 66.1453 261.032 66.9979C258.274 67.3117 255.701 68.5401 253.723 70.4871C251.745 72.4341 250.476 74.9875 250.118 77.74Z" fill="#263238"/>
<path opacity="0.2" d="M283.672 90.8652C283.789 97.4369 288.555 107.935 293.917 113.261C294.242 107.71 294.45 101.689 294.613 95.6134L283.672 90.8652Z" fill="black"/>
<path d="M313.803 103.639L313.496 102.916C312.235 99.9054 310.759 96.9883 309.082 94.1873C307.475 91.4792 305.742 88.9246 303.946 86.4603C302.15 83.9959 300.245 81.6399 298.295 79.347C297.302 78.2096 296.318 77.0722 295.28 75.9709L293.718 74.328L292.057 72.649C290.318 70.9311 287.977 69.9581 285.532 69.9364C283.087 69.9147 280.73 70.8459 278.96 72.5326C277.19 74.2194 276.146 76.5291 276.05 78.9723C275.954 81.4155 276.813 83.8001 278.445 85.6207L278.716 85.9186L284.014 91.8132C285.82 93.8172 287.544 95.8573 289.259 97.8884C290.09 98.9084 290.947 99.9285 291.723 100.967C292.5 102.005 293.321 103.007 294.097 104.036C295.217 105.597 296.3 107.15 297.266 108.676C297.118 109.446 296.931 110.208 296.706 110.959C296.058 113.146 295.295 115.297 294.422 117.405C293.52 119.634 292.563 121.918 291.57 124.166C290.577 126.414 289.512 128.761 288.564 131.017L288.474 131.216C288.058 132.213 287.995 133.323 288.295 134.361C288.595 135.4 289.24 136.304 290.124 136.926C291.008 137.548 292.078 137.85 293.156 137.782C294.235 137.713 295.258 137.279 296.056 136.551C298.048 134.705 299.937 132.752 301.716 130.701C303.522 128.673 305.216 126.537 306.798 124.292C307.602 123.164 308.369 121.99 309.127 120.772C309.915 119.533 310.635 118.252 311.285 116.935C312.016 115.499 312.649 114.015 313.18 112.494C313.873 110.546 314.263 108.503 314.336 106.437C314.359 105.477 314.178 104.523 313.803 103.639Z" fill="#FFC3BD"/>
<path d="M285.224 67.9095C297.402 69.9947 305.336 86.4779 305.336 86.4779L290.659 102.266C290.659 102.266 282.2 93.6543 277.118 85.6745C271.639 76.9906 276.504 66.429 285.224 67.9095Z" fill="#263238"/>
<path d="M262.982 41.921C260.941 38.4998 260.273 33.7967 264.011 29.0034C263.282 29.0947 262.544 28.9727 261.883 28.6523C261.223 28.3318 260.67 27.8266 260.292 27.198C264.384 23.8501 269.529 22.0592 274.816 22.1429C285.738 22.1429 286.551 26.3585 286.181 29.2381C293.655 29.7166 299.107 49.1516 280.16 52.5909C269.318 41.1718 262.982 41.921 262.982 41.921Z" fill="#263238"/>
<path d="M285.495 29.59C285.495 29.59 288.537 26.4847 284.755 22.7295C285.603 22.962 286.376 23.4101 286.999 24.0303C287.623 24.6504 288.075 25.4213 288.312 26.2681C288.844 28.4526 287.373 30.2038 285.495 29.59Z" fill="#263238"/>
<path d="M281.307 50.2168C281.018 56.2017 280.476 63.008 281.478 67.7833C279.925 70.2296 275.954 73.046 268.84 73.6779C266.313 72.2426 262.973 68.7311 264.137 66.9257C267.161 64.9849 268.443 59.1084 267.577 54.7122L281.307 50.2168Z" fill="#FFC3BD"/>
<path opacity="0.2" d="M277.84 51.3452L267.558 54.7123C267.908 56.5844 267.923 58.5037 267.603 60.3812C270.672 60.2819 274.924 57.971 276.522 55.8045C277.042 55.1954 277.429 54.4836 277.656 53.7152C277.883 52.9469 277.946 52.1394 277.84 51.3452Z" fill="black"/>
<path d="M284.303 40.7387C282.399 48.0776 281.658 52.4737 277.163 55.5519C270.402 60.1828 261.898 54.9923 261.564 47.2381C261.276 40.2512 264.435 29.4189 272.288 27.8753C274.018 27.5285 275.807 27.6296 277.486 28.1689C279.165 28.7083 280.679 29.668 281.883 30.9569C283.086 32.2458 283.941 33.8211 284.365 35.5331C284.788 37.2452 284.767 39.0371 284.303 40.7387Z" fill="#FFC3BD"/>
<path d="M282.787 30.231C279.564 32.5238 275.565 42.2368 283.69 46.1365C290.983 39.7273 289.097 30.231 282.787 30.231Z" fill="#263238"/>
<path d="M284.646 31.3958C286.027 25.0047 269.896 21.7009 264.787 29.1662C263.054 33.6616 283.671 37.6335 284.646 31.3958Z" fill="#263238"/>
<path d="M272.614 48.5286C270.938 47.7708 269.141 47.3155 267.306 47.1836C267.28 47.1836 267.255 47.1888 267.231 47.1988C267.208 47.2089 267.186 47.2237 267.169 47.2423C267.151 47.2608 267.137 47.2828 267.128 47.3069C267.119 47.3309 267.115 47.3565 267.116 47.3822C267.127 47.4405 267.156 47.4937 267.2 47.5331C267.245 47.5724 267.301 47.5956 267.36 47.5988C269.119 47.726 270.842 48.1598 272.451 48.8807C272.502 48.9029 272.559 48.9049 272.611 48.8865C272.663 48.868 272.706 48.8304 272.731 48.7814C272.741 48.7572 272.746 48.7312 272.745 48.705C272.745 48.6788 272.739 48.653 272.728 48.6293C272.717 48.6055 272.701 48.5843 272.681 48.567C272.662 48.5497 272.639 48.5366 272.614 48.5286Z" fill="#263238"/>
<path d="M286.064 48.7636C284.756 50.1521 282.952 50.9666 281.045 51.0293C278.518 51.0835 277.877 48.6733 279.096 46.6152C280.197 44.8098 282.833 42.4989 285.126 43.4196C287.418 44.3404 287.653 47.0394 286.064 48.7636Z" fill="#FFC3BD"/>
<path d="M272.632 40.6121C272.514 41.2169 272.099 41.6502 271.729 41.569C271.359 41.4877 271.115 40.9371 271.232 40.3323C271.35 39.7275 271.765 39.3032 272.135 39.4296C272.505 39.556 272.749 39.9802 272.632 40.6121Z" fill="#263238"/>
<path d="M265.798 39.2851C265.68 39.8899 265.265 40.3141 264.895 40.2419C264.525 40.1697 264.272 39.61 264.389 39.0052C264.507 38.4004 264.922 37.9671 265.292 38.0484C265.662 38.1296 265.879 38.6803 265.798 39.2851Z" fill="#263238"/>
<path d="M267.91 39.9805C266.827 41.689 265.515 43.241 264.011 44.5932C264.913 45.7938 266.908 45.5591 266.908 45.5591L267.91 39.9805Z" fill="#ED847E"/>
<path d="M271.647 37.1008C271.712 37.0867 271.779 37.0892 271.842 37.1082C271.905 37.1271 271.962 37.1619 272.008 37.2091C272.298 37.5594 272.667 37.8361 273.084 38.0166C273.502 38.197 273.956 38.276 274.41 38.2472C274.505 38.2342 274.602 38.259 274.68 38.3163C274.757 38.3736 274.809 38.4589 274.825 38.5541C274.833 38.6011 274.831 38.6491 274.819 38.6953C274.808 38.7415 274.787 38.7849 274.758 38.8229C274.73 38.8608 274.694 38.8926 274.652 38.9162C274.611 38.9398 274.565 38.9548 274.518 38.9603C273.945 39.0065 273.369 38.915 272.838 38.6936C272.308 38.4723 271.837 38.1273 271.467 37.6875C271.433 37.6547 271.406 37.6154 271.388 37.572C271.369 37.5286 271.36 37.4819 271.36 37.4348C271.36 37.3876 271.369 37.341 271.388 37.2975C271.406 37.2541 271.433 37.2148 271.467 37.182C271.52 37.1422 271.582 37.1145 271.647 37.1008Z" fill="#263238"/>
<path d="M263.686 35.0968C263.611 35.0813 263.544 35.0397 263.496 34.9795C263.466 34.9418 263.444 34.8985 263.43 34.852C263.417 34.8055 263.413 34.7568 263.419 34.7088C263.425 34.6608 263.441 34.6145 263.465 34.5726C263.489 34.5307 263.521 34.4941 263.56 34.4649C264.003 34.1016 264.527 33.849 265.087 33.7281C265.647 33.6073 266.229 33.6216 266.782 33.7699C266.874 33.8008 266.949 33.8663 266.993 33.9523C267.037 34.0383 267.046 34.138 267.017 34.2302C266.981 34.3174 266.914 34.3884 266.829 34.4299C266.745 34.4714 266.648 34.4807 266.557 34.4559C266.115 34.3434 265.654 34.3371 265.21 34.4375C264.766 34.5379 264.352 34.7422 264.002 35.0336C263.96 35.0715 263.908 35.0974 263.853 35.1085C263.797 35.1196 263.74 35.1156 263.686 35.0968Z" fill="#263238"/>
<path d="M292.825 130.755L285.071 130.701L289.079 139.602C289.079 139.602 295.696 138.185 295.334 134.592L292.825 130.755Z" fill="#FFC3BD"/>
<path d="M281.127 136.812L282.4 139.322C282.742 139.99 283.321 140.507 284.024 140.77C284.727 141.034 285.503 141.026 286.2 140.748L289.08 139.602L285.072 130.701L281.993 133.048C281.43 133.474 281.034 134.084 280.875 134.773C280.717 135.461 280.806 136.183 281.127 136.812Z" fill="#FFC3BD"/>
<path d="M233.798 124.202C232.861 124.192 231.948 123.909 231.169 123.388C230.391 122.866 229.782 122.129 229.417 121.266C229.052 120.403 228.946 119.453 229.113 118.531C229.281 117.609 229.714 116.757 230.359 116.077C233.807 112.521 236.921 109.758 239.665 107.348C246.291 101.508 248.575 99.224 248.358 94.8459C248.034 92.1447 247.46 89.4793 246.643 86.8842C244.666 79.6175 242.428 71.3939 246.264 64.7952C248.322 61.2476 251.816 58.8194 256.654 57.5736C257.877 57.2833 259.166 57.4843 260.242 58.1334C261.319 58.7826 262.098 59.8281 262.413 61.0454C262.727 62.2627 262.552 63.5548 261.924 64.6441C261.296 65.7334 260.266 66.5331 259.055 66.8714C255.652 67.7741 254.831 69.1552 254.542 69.6246C252.736 72.7389 254.479 79.1842 255.887 84.3566C256.907 87.6183 257.59 90.9758 257.927 94.3765C258.378 103.629 252.917 108.45 245.993 114.552C243.385 116.863 240.415 119.48 237.219 122.766C236.773 123.222 236.241 123.583 235.654 123.83C235.066 124.076 234.435 124.203 233.798 124.202Z" fill="#407BFF"/>
<path d="M244.333 55.2357L251.843 53.313L250.092 62.9177C250.092 62.9177 243.331 63.1253 242.825 59.5596L244.333 55.2357Z" fill="#FFC3BD"/>
<path d="M257.114 58.4042L256.536 60.9137C256.359 61.6802 255.901 62.3526 255.253 62.7987C254.605 63.2447 253.813 63.4321 253.034 63.3239L250.091 62.9177L251.842 53.313L255.29 54.8024C255.968 55.0943 256.522 55.6147 256.855 56.2729C257.188 56.9311 257.28 57.6853 257.114 58.4042Z" fill="#FFC3BD"/>
<path d="M231.113 108.406L230.908 108.202C229.995 107.289 228.515 107.29 227.602 108.203L200.983 134.831C200.07 135.744 200.07 137.225 200.984 138.137L201.188 138.342C202.101 139.255 203.581 139.254 204.494 138.341L231.113 111.713C232.026 110.8 232.026 109.319 231.113 108.406Z" fill="#263238"/>
<path d="M244.986 122.262L244.782 122.058C243.869 121.145 242.389 121.145 241.476 122.058L214.852 148.682C213.939 149.595 213.939 151.075 214.852 151.988L215.056 152.192C215.969 153.105 217.45 153.105 218.363 152.192L244.986 125.569C245.899 124.656 245.899 123.175 244.986 122.262Z" fill="#263238"/>
<path d="M209.382 118.319L228.142 99.5596C228.743 98.9586 229.456 98.4819 230.241 98.1566C231.027 97.8313 231.868 97.6639 232.718 97.6639C233.568 97.6639 234.41 97.8313 235.195 98.1566C235.98 98.4819 236.694 98.9586 237.295 99.5596L253.693 115.958C254.294 116.559 254.771 117.272 255.096 118.057C255.421 118.843 255.588 119.684 255.588 120.534C255.588 121.384 255.421 122.226 255.096 123.011C254.771 123.796 254.294 124.51 253.693 125.111L234.933 143.871L209.382 118.319Z" fill="#407BFF"/>
<path opacity="0.7" d="M209.382 118.319L228.142 99.5596C228.743 98.9586 229.456 98.4819 230.241 98.1566C231.027 97.8313 231.868 97.6639 232.718 97.6639C233.568 97.6639 234.41 97.8313 235.195 98.1566C235.98 98.4819 236.694 98.9586 237.295 99.5596L253.693 115.958C254.294 116.559 254.771 117.272 255.096 118.057C255.421 118.843 255.588 119.684 255.588 120.534C255.588 121.384 255.421 122.226 255.096 123.011C254.771 123.796 254.294 124.51 253.693 125.111L234.933 143.871L209.382 118.319Z" fill="white"/>
<path opacity="0.2" d="M215.852 111.799L209.353 118.289L234.908 143.845L241.399 137.345C241.14 136.589 240.711 135.903 240.144 135.341L217.856 113.099C217.299 112.515 216.613 112.07 215.852 111.799Z" fill="#407BFF"/>
<path d="M208.257 115.016L207.791 115.482C205.81 117.463 205.81 120.675 207.791 122.656L230.547 145.412C232.528 147.393 235.74 147.393 237.721 145.412L238.187 144.946C240.168 142.964 240.168 139.752 238.187 137.771L215.432 115.016C213.451 113.034 210.239 113.034 208.257 115.016Z" fill="#407BFF"/>
</svg>
