<svg width="290" height="233" viewBox="0 0 290 233" fill="none"
    xmlns="http://www.w3.org/2000/svg">
    <path d="M145.357 232.772C225.24 232.772 289.999 228.991 289.999 224.328C289.999 219.664 225.24 215.883 145.357 215.883C65.4732 215.883 0.714844 219.664 0.714844 224.328C0.714844 228.991 65.4732 232.772 145.357 232.772Z" fill="#F5F5F5"/>
    <path d="M224.677 3.0586V213.035C224.677 213.47 224.591 213.9 224.423 214.301C224.255 214.701 224.009 215.065 223.7 215.37C223.39 215.674 223.023 215.915 222.62 216.076C222.216 216.237 221.785 216.317 221.35 216.31H108.525C108.132 216.316 107.741 216.243 107.376 216.095C107.011 215.947 106.68 215.728 106.402 215.45C106.123 215.171 105.904 214.84 105.756 214.475C105.608 214.11 105.535 213.72 105.541 213.326V2.79004C105.527 2.44159 105.582 2.09381 105.703 1.76667C105.824 1.43952 106.008 1.13945 106.245 0.883684C106.482 0.627914 106.767 0.421478 107.084 0.276233C107.401 0.130987 107.744 0.0497925 108.093 0.0373023H134.911C135.325 0.0454397 135.727 0.176839 136.066 0.414707C136.405 0.652576 136.665 0.986104 136.814 1.37264L138.044 4.35664C138.196 4.74155 138.458 5.07271 138.798 5.30788C139.138 5.54306 139.541 5.67158 139.954 5.67706H190.391C190.801 5.67389 191.201 5.54877 191.54 5.31761C191.879 5.08646 192.141 4.75973 192.294 4.37902L193.524 1.3428C193.672 0.955435 193.932 0.620876 194.271 0.381742C194.61 0.142608 195.012 0.0097201 195.427 0H221.79C222.578 0.0253522 223.323 0.361175 223.864 0.93419C224.405 1.50721 224.697 2.27089 224.677 3.0586Z" fill="#263238"/>
    <path d="M224.683 14.0469H105.555V201.42H224.683V14.0469Z" fill="#407BFF"/>
    <path opacity="0.7" d="M224.683 14.0469H105.555V201.42H224.683V14.0469Z" fill="white"/>
    <path opacity="0.6" d="M119.628 9.07031H121.172V7.01881H119.628V9.07031Z" fill="white"/>
    <path opacity="0.6" d="M117.112 9.07031H118.656V6.33249H117.112V9.07031Z" fill="white"/>
    <path opacity="0.6" d="M114.596 9.07031H116.141V5.64617H114.596V9.07031Z" fill="white"/>
    <path opacity="0.6" d="M112.081 9.07031H113.625V4.95985H112.081V9.07031Z" fill="white"/>
    <path opacity="0.6" d="M210.875 6.26562H209.965V8.31712H210.875V6.26562Z" fill="white"/>
    <path opacity="0.6" d="M211.504 9.07031L218.785 9.07031V5.5119L211.504 5.5119V9.07031Z" fill="white"/>
    <path d="M159.225 32.6549H198.427C198.544 32.6659 198.662 32.6524 198.773 32.6153C198.884 32.5781 198.987 32.5181 199.074 32.4391C199.16 32.3601 199.23 32.2638 199.277 32.1565C199.325 32.0491 199.349 31.933 199.349 31.8156C199.349 31.6983 199.325 31.5822 199.277 31.4748C199.23 31.3674 199.16 31.2712 199.074 31.1922C198.987 31.1132 198.884 31.0532 198.773 31.016C198.662 30.9789 198.544 30.9654 198.427 30.9764H159.225C159.016 30.9961 158.822 31.0931 158.68 31.2483C158.539 31.4035 158.461 31.6058 158.461 31.8156C158.461 32.0255 158.539 32.2278 158.68 32.383C158.822 32.5382 159.016 32.6352 159.225 32.6549Z" fill="#263238"/>
    <path d="M207.348 35.7615H159.007C158.921 35.752 158.833 35.7608 158.75 35.7874C158.668 35.814 158.591 35.8577 158.526 35.9158C158.462 35.9739 158.41 36.045 158.374 36.1244C158.339 36.2039 158.32 36.29 158.32 36.377C158.32 36.464 158.339 36.5501 158.374 36.6296C158.41 36.709 158.462 36.7801 158.526 36.8382C158.591 36.8963 158.668 36.94 158.75 36.9666C158.833 36.9932 158.921 37.002 159.007 36.9924H207.348C207.5 36.9757 207.64 36.9037 207.741 36.7901C207.843 36.6766 207.899 36.5295 207.899 36.377C207.899 36.2245 207.843 36.0774 207.741 35.9639C207.64 35.8503 207.5 35.7783 207.348 35.7615Z" fill="#263238"/>
    <path d="M193.167 39.2928H159.007C158.921 39.2833 158.833 39.2921 158.75 39.3186C158.668 39.3452 158.591 39.389 158.526 39.447C158.462 39.5051 158.41 39.5762 158.374 39.6557C158.339 39.7352 158.32 39.8212 158.32 39.9082C158.32 39.9953 158.339 40.0813 158.374 40.1608C158.41 40.2403 158.462 40.3114 158.526 40.3694C158.591 40.4275 158.668 40.4713 158.75 40.4978C158.833 40.5244 158.921 40.5332 159.007 40.5237H193.167C193.318 40.507 193.458 40.4349 193.56 40.3214C193.662 40.2078 193.718 40.0607 193.718 39.9082C193.718 39.7558 193.662 39.6087 193.56 39.4951C193.458 39.3815 193.318 39.3095 193.167 39.2928Z" fill="#263238"/>
    <path d="M223.259 62.1172H106.973V178.404H223.259V62.1172Z" fill="#407BFF"/>
    <path d="M219.518 190.984L216.243 188.157L212.961 190.984V183.211H219.518V190.984Z" fill="#407BFF"/>
    <path d="M207.681 183.211H202.743C202.418 183.211 202.107 183.34 201.878 183.569C201.648 183.799 201.52 184.11 201.52 184.434V187.806C201.52 188.131 201.648 188.442 201.878 188.671C202.107 188.901 202.418 189.03 202.743 189.03H204.421V190.984L205.697 189.03H207.681C207.842 189.031 208.002 189 208.151 188.939C208.3 188.878 208.435 188.787 208.549 188.674C208.663 188.56 208.753 188.425 208.814 188.276C208.875 188.127 208.906 187.967 208.905 187.806V184.434C208.906 184.273 208.875 184.114 208.814 183.965C208.753 183.816 208.663 183.681 208.549 183.567C208.435 183.453 208.3 183.363 208.151 183.302C208.002 183.241 207.842 183.21 207.681 183.211Z" fill="#407BFF"/>
    <path d="M197.784 184.134C196.874 182.642 195.113 183.202 194.203 184.358C193.301 183.195 191.547 182.605 190.615 184.097C189.056 186.604 192.234 188.954 193.741 189.879L194.166 190.14L194.599 189.879C196.083 188.976 199.321 186.663 197.784 184.134Z" fill="#407BFF"/>
    <g opacity="0.3">
        <path opacity="0.7" d="M199.516 71.9062H203.917L201.716 77.6132L199.516 71.9062Z" fill="white"/>
        <path opacity="0.7" d="M213.697 100.312L215.032 104.505L208.93 104.132L213.697 100.312Z" fill="white"/>
        <path d="M211.979 81.9141L209.891 87.0391L216.239 89.2547V85.1069L211.979 81.9141Z" fill="white"/>
        <path d="M129.668 70.5352H132.898L129.668 74.765V70.5352Z" fill="white"/>
        <path d="M117.52 91.3824L121.175 90.5469L122.197 93.6875L117.982 95.1571L117.52 91.3824Z" fill="white"/>
        <path d="M154.507 74.7638C155.294 74.7638 155.932 74.1259 155.932 73.3389C155.932 72.552 155.294 71.9141 154.507 71.9141C153.72 71.9141 153.082 72.552 153.082 73.3389C153.082 74.1259 153.72 74.7638 154.507 74.7638Z" fill="white"/>
        <path d="M133.748 168.878C133.748 169.438 133.582 169.985 133.271 170.45C132.96 170.915 132.518 171.277 132.001 171.491C131.484 171.705 130.915 171.76 130.367 171.651C129.818 171.541 129.314 171.271 128.919 170.875C128.524 170.479 128.255 169.974 128.147 169.425C128.039 168.876 128.096 168.307 128.311 167.791C128.526 167.274 128.89 166.833 129.356 166.524C129.822 166.214 130.369 166.049 130.929 166.051C131.299 166.051 131.667 166.124 132.009 166.266C132.352 166.408 132.663 166.617 132.925 166.879C133.187 167.142 133.395 167.454 133.536 167.797C133.677 168.14 133.749 168.507 133.748 168.878Z" fill="white"/>
        <path d="M120.135 144.312L121.18 146.081L116.129 148.244L114.98 147.065L120.135 144.312Z" fill="white"/>
        <path d="M153.082 173.257L152.098 170.758H155.94L153.082 173.257Z" fill="white"/>
        <path d="M193.898 170.759L194.197 167.977L199.464 169.364V173.43L193.898 170.759Z" fill="white"/>
        <path d="M205.215 156.41H209.922L207.572 159.193L205.215 156.41Z" fill="white"/>
        <path d="M212.958 127.781L211.98 133.69L213.062 134.674L214.077 127.781H212.958Z" fill="white"/>
        <path d="M111.957 110.473L116.127 113.501L113.143 115.695L111.957 110.473Z" fill="white"/>
        <path d="M130.458 86.4985C130.718 86.4985 130.928 86.2881 130.928 86.0286C130.928 85.769 130.718 85.5586 130.458 85.5586C130.199 85.5586 129.988 85.769 129.988 86.0286C129.988 86.2881 130.199 86.4985 130.458 86.4985Z" fill="white"/>
        <path d="M190.856 80.895C191.218 80.895 191.512 80.6011 191.512 80.2385C191.512 79.8759 191.218 79.582 190.856 79.582C190.493 79.582 190.199 79.8759 190.199 80.2385C190.199 80.6011 190.493 80.895 190.856 80.895Z" fill="white"/>
        <path d="M173.235 170.221C173.235 170.362 173.179 170.496 173.08 170.596C172.981 170.695 172.846 170.751 172.705 170.751C172.565 170.751 172.43 170.695 172.331 170.596C172.232 170.496 172.176 170.362 172.176 170.221C172.176 170.081 172.232 169.946 172.331 169.847C172.43 169.747 172.565 169.691 172.705 169.691C172.846 169.691 172.981 169.747 173.08 169.847C173.179 169.946 173.235 170.081 173.235 170.221Z" fill="white"/>
        <path d="M179.449 67.9744L184.701 67.1836V69.7424L179.449 70.5331V67.9744Z" fill="white"/>
        <path d="M214.078 70.5352H215.801L214.936 72.6463L214.078 70.5352Z" fill="white"/>
        <path d="M114.98 73.3359H117.524L116.249 74.7608L114.98 73.3359Z" fill="white"/>
        <path d="M211.414 173.257L211.168 168.363L214.935 169.691L211.414 173.257Z" fill="white"/>
        <path d="M215.032 145.097L213.062 143.523V145.097L215.032 146.284V145.097Z" fill="white"/>
        <path d="M114.039 129.355L116.247 131.228L115.143 132.899L112.219 130.557L114.039 129.355Z" fill="white"/>
        <path d="M112.218 85.5586H114.978L111.957 86.4985L112.218 85.5586Z" fill="white"/>
    </g>
    <path d="M160.33 81.0908L165.321 76.3984L170.259 81.1355L176.257 77.8308L179.868 83.6496L186.499 81.9487L188.544 88.4762H195.392L195.757 95.3095L202.389 97.0104L201.032 103.724L207.037 107.022L204.06 113.184L209.051 117.869L204.635 123.098L208.305 128.88L202.725 132.848L204.844 139.353L198.458 141.808L198.891 148.641L192.087 149.432L190.811 156.161L184.023 155.228L181.113 161.428L174.772 158.839L170.408 164.121L164.91 160.04L159.375 164.068L155.063 158.749L148.7 161.271L145.85 155.049L139.061 155.907L137.845 149.171L131.049 148.313L131.549 141.487L125.186 138.973L127.364 132.483L121.821 128.462L125.551 122.718L121.18 117.443L126.223 112.811L123.306 106.611L129.341 103.374L128.05 96.6523L134.697 95.0186L135.122 88.1852L141.971 88.2524L144.082 81.7398L150.699 83.5078L154.362 77.7263L160.33 81.0908Z" fill="#407BFF"/>
    <path opacity="0.4" d="M205.377 124.591L209.793 119.369L204.802 114.684L207.786 108.522L201.781 105.224L203.139 98.5104L196.507 96.8095L196.141 89.9762H189.293L187.249 83.4487L180.617 85.1496L177.007 79.3308L171.039 82.6355L166.1 77.8984L161.109 82.5908L155.141 79.2263L151.478 85.0153L144.861 83.2398L142.75 89.7524L135.902 89.6852L135.477 96.5186L128.83 98.1523L130.12 104.866L124.085 108.104L127.002 114.303L121.922 118.966L126.293 124.24L122.563 129.984L128.106 134.005L125.928 140.495L132.291 143.009L131.791 149.835L138.588 150.693L139.796 157.407L146.592 156.549L149.442 162.771L155.805 160.249L160.117 165.568L165.652 161.54L171.15 165.621L175.515 160.339L181.856 162.928L184.765 156.728L191.546 157.661L192.829 150.947L199.633 150.156L199.193 143.323L205.586 140.868L203.467 134.356L209.047 130.394L205.377 124.591ZM204.004 129.41L199.073 132.916L200.946 138.668L195.298 140.831L195.686 146.866L189.674 147.567L188.547 153.535L182.579 152.715L180.005 158.19L174.41 155.908L170.554 160.563L165.697 156.96L160.811 160.518L157.006 155.818L151.381 158.056L148.867 152.558L142.862 153.304L141.795 147.336L135.827 146.59L136.275 140.562L130.65 138.324L132.575 132.595L127.681 129.044L130.978 123.971L127.114 119.316L131.59 115.221L128.942 109.715L134.276 106.858L133.134 100.89L139.013 99.4504L139.386 93.4152L145.428 93.4749L147.293 87.7233L153.135 89.2899L156.372 84.1798L161.646 87.1638L166.048 83.016L170.412 87.2011L175.708 84.2842L178.901 89.4241L184.757 87.9321L186.563 93.7062H192.613L192.934 99.7488L198.79 101.241L197.596 107.164L202.893 110.073L200.267 115.519L204.676 119.66L200.774 124.277L204.004 129.41Z" fill="black"/>
    <path opacity="0.4" d="M160.33 81.0908L165.321 76.3984L170.259 81.1355L176.257 77.8308L179.868 83.6496L186.499 81.9487L188.544 88.4762H195.392L195.757 95.3095L202.389 97.0104L201.032 103.724L207.037 107.022L204.06 113.184L209.051 117.869L204.635 123.098L208.305 128.88L202.725 132.848L204.844 139.353L198.458 141.808L198.891 148.641L192.087 149.432L190.811 156.161L184.023 155.228L181.113 161.428L174.772 158.839L170.408 164.121L164.91 160.04L159.375 164.068L155.063 158.749L148.7 161.271L145.85 155.049L139.061 155.907L137.845 149.171L131.049 148.313L131.549 141.487L125.186 138.973L127.364 132.483L121.821 128.462L125.551 122.718L121.18 117.443L126.223 112.811L123.306 106.611L129.341 103.374L128.05 96.6523L134.697 95.0186L135.122 88.1852L141.971 88.2524L144.082 81.7398L150.699 83.5078L154.362 77.7263L160.33 81.0908Z" fill="black"/>
    <path d="M204.635 123.098L209.051 117.876L204.06 113.192L207.044 107.03L201.039 103.732L202.397 97.0182L195.765 95.3174L195.399 88.484H188.551L186.507 81.9565L179.875 83.6574L176.264 77.8386L170.296 81.1434L165.358 76.4062L160.367 81.0986L154.399 77.7341L150.736 83.5231L144.119 81.7476L142.008 88.2602L135.16 88.1931L134.735 95.0264L128.088 96.6602L129.378 103.374L123.343 106.612L126.26 112.811L121.18 117.474L125.551 122.748L121.821 128.492L127.364 132.513L125.186 139.003L131.549 141.517L131.049 148.343L137.845 149.201L139.054 155.915L145.85 155.057L148.7 161.279L155.063 158.757L159.375 164.076L164.91 160.048L170.408 164.128L174.772 158.847L181.113 161.435L184.023 155.236L190.804 156.169L192.087 149.455L198.891 148.664L198.45 141.83L204.844 139.376L202.725 132.864L208.305 128.902L204.635 123.098ZM203.262 127.918L198.331 131.424L200.203 137.175L194.556 139.339L194.944 145.374L188.931 146.075L187.805 152.043L181.837 151.223L179.263 156.698L173.668 154.415L169.811 159.071L164.955 155.467L160.069 159.026L156.264 154.326L150.639 156.564L148.125 151.066L142.12 151.812L141.053 145.844L135.085 145.098L135.533 139.07L129.908 136.832L131.833 131.103L126.939 127.552L130.236 122.479L126.372 117.824L130.848 113.729L128.2 108.223L133.533 105.366L132.392 99.398L138.271 97.9582L138.644 91.9231L144.686 91.9827L146.551 86.2311L152.392 87.7977L155.63 82.6876L160.904 85.6716L165.306 81.5238L169.67 85.7089L174.966 82.792L178.159 87.9319L184.015 86.4399L185.821 92.214H191.871L192.191 98.2566L198.048 99.7486L196.854 105.672L202.151 108.581L199.525 114.027L203.933 118.167L200.032 122.785L203.262 127.918Z" fill="#407BFF"/>
    <path opacity="0.6" d="M204.635 123.098L209.051 117.876L204.06 113.192L207.044 107.03L201.039 103.732L202.397 97.0182L195.765 95.3174L195.399 88.484H188.551L186.507 81.9565L179.875 83.6574L176.264 77.8386L170.296 81.1434L165.358 76.4062L160.367 81.0986L154.399 77.7341L150.736 83.5231L144.119 81.7476L142.008 88.2602L135.16 88.1931L134.735 95.0264L128.088 96.6602L129.378 103.374L123.343 106.612L126.26 112.811L121.18 117.474L125.551 122.748L121.821 128.492L127.364 132.513L125.186 139.003L131.549 141.517L131.049 148.343L137.845 149.201L139.054 155.915L145.85 155.057L148.7 161.279L155.063 158.757L159.375 164.076L164.91 160.048L170.408 164.128L174.772 158.847L181.113 161.435L184.023 155.236L190.804 156.169L192.087 149.455L198.891 148.664L198.45 141.83L204.844 139.376L202.725 132.864L208.305 128.902L204.635 123.098ZM203.262 127.918L198.331 131.424L200.203 137.175L194.556 139.339L194.944 145.374L188.931 146.075L187.805 152.043L181.837 151.223L179.263 156.698L173.668 154.415L169.811 159.071L164.955 155.467L160.069 159.026L156.264 154.326L150.639 156.564L148.125 151.066L142.12 151.812L141.053 145.844L135.085 145.098L135.533 139.07L129.908 136.832L131.833 131.103L126.939 127.552L130.236 122.479L126.372 117.824L130.848 113.729L128.2 108.223L133.533 105.366L132.392 99.398L138.271 97.9582L138.644 91.9231L144.686 91.9827L146.551 86.2311L152.392 87.7977L155.63 82.6876L160.904 85.6716L165.306 81.5238L169.67 85.7089L174.966 82.792L178.159 87.9319L184.015 86.4399L185.821 92.214H191.871L192.191 98.2566L198.048 99.7486L196.854 105.672L202.151 108.581L199.525 114.027L203.933 118.167L200.032 122.785L203.262 127.918Z" fill="white"/>
    <path opacity="0.4" d="M143.194 118.078C143.194 118.078 146.999 117.421 148.871 118.078C150.744 118.734 158.666 132.252 158.666 132.252C158.666 132.252 174.034 111.11 186.321 101.867C186.321 101.867 170.379 116.146 161.136 140.115C161.136 140.115 158.025 141.487 155.824 139.033C155.19 138.287 148.051 126.12 146.671 125.665C145.589 125.299 142.098 125.478 142.098 125.478L143.194 118.078Z" fill="black"/>
    <path d="M142.444 117.332C142.444 117.332 146.249 116.675 148.121 117.332C149.994 117.988 157.916 131.506 157.916 131.506C157.916 131.506 173.284 110.364 185.571 101.121C185.571 101.121 169.629 115.4 160.386 139.369C160.386 139.369 157.275 140.741 155.074 138.287C154.44 137.541 147.301 125.374 145.921 124.919C144.839 124.553 141.348 124.732 141.348 124.732L142.444 117.332Z" fill="white"/>
    <path d="M148.183 39.2519C148.199 42.3099 147.428 45.3206 145.945 47.995L145.617 48.5545C144.551 50.3235 143.185 51.8936 141.581 53.1947L141.491 53.2693C139.973 54.4933 138.264 55.4609 136.434 56.1339C134.455 56.859 132.364 57.2277 130.257 57.2231C129.586 57.2271 128.916 57.1897 128.25 57.1112C127.131 56.9922 126.027 56.7649 124.953 56.4323C122.336 55.6278 119.941 54.2286 117.955 52.3442C115.784 50.3014 114.154 47.7508 113.213 44.9219C112.272 42.0929 112.048 39.0744 112.563 36.1378C113.078 33.2012 114.315 30.4386 116.162 28.0986C118.01 25.7586 120.41 23.9145 123.147 22.7323C125.884 21.5501 128.872 21.0668 131.842 21.3259C134.812 21.5849 137.671 22.5783 140.162 24.2165C142.653 25.8547 144.698 28.0865 146.112 30.711C147.527 33.3356 148.266 36.2705 148.265 39.2519H148.183Z" fill="#407BFF"/>
    <path d="M145.917 47.9931L145.589 48.5526C141.476 48.4884 137.372 48.9522 133.377 49.9327L132.042 50.261L131.131 50.4997C129.99 50.8055 128.893 51.1263 127.961 51.4322L127.536 51.5739L127.23 51.6709C126.118 52.0439 125.171 52.3796 124.447 52.6556C123.366 53.0659 122.746 53.3345 122.746 53.3345C122.393 52.8784 122.069 52.4 121.777 51.9022L121.732 51.8201C120.113 49.1047 117.256 42.8681 118.599 33.9161C120.091 23.957 128.349 24.5911 131.281 25.1431C131.631 25.2011 131.977 25.2809 132.318 25.3819C132.318 25.3819 141.56 27.5602 141.904 33.3193C141.952 34.0902 142.047 34.8575 142.187 35.617C143.056 39.846 144.305 43.9881 145.917 47.9931Z" fill="#263238"/>
    <path d="M136.406 56.1358C134.427 56.8609 132.336 57.2297 130.229 57.225C129.558 57.2291 128.888 57.1917 128.222 57.1131C127.103 56.9942 125.999 56.7668 124.925 56.4342L124.35 51.7419L124.074 49.5039L136.376 51.2495V52.3014L136.413 55.3898V56.1358H136.406Z" fill="#407BFF"/>
    <path d="M141.462 53.2711C139.943 54.4952 138.235 55.4628 136.404 56.1358C134.426 56.8608 132.334 57.2296 130.227 57.2249C129.557 57.229 128.887 57.1916 128.221 57.113C127.102 56.9941 125.998 56.7667 124.923 56.4342C122.307 55.6296 119.912 54.2304 117.926 52.3461C118.493 52.2566 119.067 52.1894 119.642 52.1148H119.783C120.462 52.0402 121.141 51.9731 121.82 51.9209C122.626 51.8537 123.424 51.8015 124.229 51.7717H124.371L125.356 51.7344H126.527H127.9C129.392 51.7344 130.904 51.7891 132.435 51.8985L133.98 52.0253L134.793 52.1074L135.972 52.2864L136.233 52.3237H136.412L137.799 52.5624C138.016 52.5997 138.232 52.6519 138.448 52.6818L138.859 52.7638L139.299 52.8459L140.045 52.9951L140.567 53.0996L141.462 53.2711Z" fill="#263238"/>
    <path d="M133.255 56.2974C128.13 55.4246 126.668 53.1567 126.668 53.1567C128.861 51.2619 128.6 48.3152 128.16 46.4427C128.019 45.8585 127.829 45.287 127.593 44.7344L133.748 46.1518C133.569 47.0077 133.452 47.8753 133.397 48.7479C133.35 49.3934 133.383 50.0424 133.494 50.68C133.837 52.545 134.896 52.6196 134.896 52.6196C135.874 54.7457 133.255 56.2974 133.255 56.2974Z" fill="#E4897B"/>
    <path opacity="0.2" d="M133.374 48.7908C133.327 49.4364 133.36 50.0853 133.471 50.723C131.024 50.2903 129.234 48.2462 128.137 46.4857C127.996 45.9014 127.807 45.33 127.57 44.7773L133.725 46.1948C133.546 47.0507 133.429 47.9182 133.374 48.7908Z" fill="black"/>
    <path d="M132.54 28.5618C138.366 28.8154 140.112 32.0158 140.276 38.036C140.492 45.5557 138.597 50.815 131.384 48.9052C121.581 46.3017 122.864 28.144 132.54 28.5618Z" fill="#E4897B"/>
    <path d="M136.523 37.543C136.954 38.4343 137.49 39.2708 138.12 40.0346C137.938 40.267 137.695 40.4453 137.419 40.5504C137.143 40.6556 136.844 40.6836 136.553 40.6314L136.523 37.543Z" fill="#DE5753"/>
    <path d="M130.531 33.9199C130.465 33.9202 130.401 33.8963 130.352 33.8528C130.326 33.8283 130.305 33.7989 130.291 33.7661C130.277 33.7334 130.27 33.6982 130.27 33.6625C130.27 33.6269 130.277 33.5916 130.291 33.5589C130.305 33.5262 130.326 33.4967 130.352 33.4723C130.721 33.119 131.167 32.8573 131.656 32.7083C132.144 32.5592 132.661 32.5271 133.164 32.6144C133.199 32.6207 133.232 32.6338 133.262 32.6529C133.292 32.6721 133.317 32.697 133.337 32.7261C133.358 32.7552 133.372 32.788 133.379 32.8226C133.387 32.8572 133.387 32.8929 133.381 32.9277C133.374 32.9625 133.361 32.9958 133.342 33.0255C133.323 33.0552 133.298 33.0809 133.269 33.101C133.24 33.1211 133.207 33.1353 133.172 33.1426C133.138 33.15 133.102 33.1505 133.067 33.1441C132.655 33.0787 132.233 33.1064 131.833 33.2251C131.433 33.3439 131.064 33.5507 130.755 33.8304C130.727 33.8617 130.692 33.8861 130.653 33.9016C130.614 33.9172 130.573 33.9234 130.531 33.9199Z" fill="#263238"/>
    <path d="M139.642 33.6805C139.586 33.679 139.531 33.6608 139.485 33.6283C139.204 33.3901 138.873 33.2176 138.517 33.1234C138.161 33.0292 137.788 33.0156 137.426 33.0837C137.392 33.0953 137.357 33.1001 137.321 33.0978C137.285 33.0954 137.251 33.086 137.219 33.07C137.187 33.054 137.158 33.0318 137.135 33.0047C137.112 32.9776 137.094 32.9461 137.083 32.9121C137.062 32.8438 137.067 32.7699 137.099 32.7058C137.131 32.6418 137.187 32.5927 137.255 32.569C137.698 32.472 138.157 32.4774 138.598 32.5846C139.039 32.6919 139.449 32.8983 139.798 33.1881C139.856 33.2313 139.894 33.2952 139.906 33.3662C139.917 33.4373 139.9 33.5099 139.858 33.5686C139.833 33.6021 139.8 33.6296 139.763 33.649C139.725 33.6683 139.684 33.6791 139.642 33.6805Z" fill="#263238"/>
    <path d="M125.753 38.1126C125.753 38.1126 128.685 33.4427 128.432 29.7276C128.432 29.7276 140.181 25.5053 140.248 37.2473C140.248 37.2473 141.822 26.8928 131.818 26.2289C121.815 25.5649 121.225 40.2238 126.208 44.8117C126.208 44.8117 123.941 41.0295 125.753 38.1126Z" fill="#263238"/>
    <path d="M126.654 39.3776C126.625 38.7021 126.331 38.0655 125.835 37.6059C125.339 37.1463 124.682 36.901 124.006 36.9233C122.186 37.0426 121.171 40.7129 125.625 41.7946C126.259 41.9513 126.647 41.3769 126.654 39.3776Z" fill="#E4897B"/>
    <path d="M136.663 42.3472C136.266 42.938 135.912 43.5563 135.604 44.1973L135.238 44.0929C133.612 43.5856 133 42.8172 132.858 42.116C132.786 41.7699 132.799 41.4116 132.896 41.0716C132.943 40.8777 133.019 40.6918 133.119 40.5195C133.985 41.2758 135.002 41.838 136.103 42.1682C136.447 42.2875 136.663 42.3472 136.663 42.3472Z" fill="#263238"/>
    <path d="M136.11 42.1682L135.782 42.7053C134.29 42.2279 133.23 41.6907 132.895 41.0716C132.942 40.8777 133.017 40.6918 133.118 40.5195C133.986 41.2768 135.006 41.839 136.11 42.1682Z" fill="white"/>
    <path d="M135.243 44.0941C133.617 43.5868 133.005 42.8184 132.863 42.1172C133.481 42.3187 134.057 42.6295 134.564 43.0348C134.899 43.3049 135.138 43.6767 135.243 44.0941Z" fill="#DE5753"/>
    <path d="M132.403 28.996C132.403 28.996 129.643 38.4852 123.616 38.1047C117.588 37.7242 127.42 25.9822 127.42 25.9822C127.42 25.9822 137.424 22.6923 142.064 28.1307C146.704 33.569 140.244 37.2468 140.244 37.2468C140.244 37.2468 140.93 29.839 132.403 28.996Z" fill="#263238"/>
    <path d="M127.931 37.1706C127.893 37.1701 127.857 37.1585 127.827 37.1372C127.796 37.116 127.773 37.086 127.759 37.0513C127.742 37.0066 127.742 36.9569 127.76 36.9125C127.778 36.868 127.812 36.8322 127.856 36.8125C132.556 34.7983 132.19 28.3902 132.19 28.3231C132.188 28.2748 132.205 28.2276 132.237 28.1914C132.269 28.1553 132.314 28.1329 132.362 28.1291C132.411 28.1269 132.459 28.1434 132.497 28.1752C132.534 28.2071 132.558 28.2519 132.563 28.3007C132.563 28.3678 132.944 35.0147 128.005 37.1557L127.931 37.1706Z" fill="#263238"/>
    <path d="M133.093 37.2176C133.146 37.6652 132.944 38.0606 132.646 38.0979C132.347 38.1352 132.057 37.7921 132.004 37.3519C131.952 36.9118 132.154 36.5089 132.452 36.4716C132.75 36.4343 133.041 36.7626 133.093 37.2176Z" fill="#263238"/>
    <path d="M132.324 36.4998L133.264 36C133.264 36 132.869 36.9027 132.324 36.4998Z" fill="#263238"/>
    <path d="M138.679 36.452C138.732 36.8996 138.53 37.2949 138.232 37.3322C137.933 37.3695 137.642 37.0338 137.59 36.5862C137.538 36.1386 137.739 35.7433 138.038 35.706C138.336 35.6687 138.642 36.0044 138.679 36.452Z" fill="#263238"/>
    <path d="M137.895 35.7381L138.827 35.2383C138.827 35.2383 138.461 36.1559 137.895 35.7381Z" fill="#263238"/>
    <path d="M141.55 53.1924L141.461 53.267C139.942 54.4911 138.234 55.4587 136.403 56.1317V55.602V55.3708L135.426 53.3939L135.926 52.2152L136.351 51.2305L136.783 52.1704L141.55 53.1924Z" fill="#407BFF"/>
    <path opacity="0.6" d="M141.55 53.1924L141.461 53.267C139.942 54.4911 138.234 55.4587 136.403 56.1317V55.602V55.3708L135.426 53.3939L135.926 52.2152L136.351 51.2305L136.783 52.1704L141.55 53.1924Z" fill="white"/>
    <path d="M130.338 53.2453L128.302 55.8041L128.197 57.117C127.079 56.9981 125.974 56.7707 124.9 56.4382C122.283 55.6336 119.888 54.2344 117.902 52.3501L119.596 52.1114H119.738L123.326 51.6041L124.072 49.5078L127.727 51.6861L130.361 53.2602L130.338 53.2453Z" fill="#407BFF"/>
    <path opacity="0.6" d="M130.331 53.2488L128.302 55.8076L128.197 57.1206C127.079 57.0016 125.974 56.7743 124.9 56.4417C122.283 55.6372 119.888 54.238 117.902 52.3536L119.738 52.1L123.326 51.6002L124.072 49.5039L127.727 51.6822L130.331 53.2488Z" fill="white"/>
    <path d="M149.413 54.4566C149.413 55.423 149.127 56.3678 148.59 57.1713C148.053 57.9749 147.29 58.6011 146.397 58.971C145.504 59.3408 144.522 59.4376 143.574 59.249C142.626 59.0605 141.755 58.5951 141.072 57.9117C140.388 57.2284 139.923 56.3577 139.735 55.4099C139.546 54.462 139.643 53.4796 140.013 52.5867C140.382 51.6939 141.009 50.9307 141.812 50.3938C142.616 49.8569 143.561 49.5703 144.527 49.5703C145.823 49.5703 147.066 50.0851 147.982 51.0015C148.898 51.9178 149.413 53.1607 149.413 54.4566Z" fill="white"/>
    <path d="M148.696 54.4553C148.696 55.2801 148.451 56.0863 147.993 56.7721C147.535 57.4579 146.883 57.9924 146.121 58.308C145.359 58.6236 144.521 58.7062 143.712 58.5453C142.903 58.3844 142.16 57.9872 141.577 57.404C140.994 56.8208 140.597 56.0778 140.436 55.2689C140.275 54.4599 140.357 53.6214 140.673 52.8594C140.989 52.0975 141.523 51.4462 142.209 50.9879C142.895 50.5297 143.701 50.2852 144.526 50.2852C145.632 50.2852 146.692 50.7245 147.474 51.5066C148.256 52.2886 148.696 53.3493 148.696 54.4553Z" fill="#263238"/>
    <path d="M144.364 56.6268L142.141 54.6648L142.633 54.1053L144.244 55.5227L146.363 52.6133L146.967 53.0534L144.364 56.6268Z" fill="white"/>
    <path d="M248.366 203.672C248.366 203.672 244.017 194.19 248.985 184.843C253.954 175.496 255.386 173.295 252.223 171.378C249.06 169.46 247.605 178.838 247.605 178.838C247.605 178.838 244.935 172.37 247.143 165.611C249.351 158.852 250.724 147.834 247.717 146.648C244.711 145.462 247.143 160.389 244.532 165.477C243.202 161.906 242.344 158.177 241.981 154.384C241.615 148.953 242.182 140.277 239.802 138.054C237.422 135.831 235.908 137.368 238.243 149.356C239.647 156.518 240.42 163.789 240.556 171.087C240.556 171.087 235.401 155.361 231.939 154.906C228.478 154.451 228.485 159.539 231.447 163.955C234.409 168.371 240.123 176.286 241.063 180.367C241.063 180.367 235.401 168.535 230.306 172.161C225.21 175.787 234.737 182.933 238.982 185.522C243.226 188.11 246.181 204.291 246.181 204.291L248.366 203.672Z" fill="#407BFF"/>
    <path opacity="0.2" d="M248.366 203.672C248.366 203.672 244.017 194.19 248.985 184.843C253.954 175.496 255.386 173.295 252.223 171.378C249.06 169.46 247.605 178.838 247.605 178.838C247.605 178.838 244.935 172.37 247.143 165.611C249.351 158.852 250.724 147.834 247.717 146.648C244.711 145.462 247.143 160.389 244.532 165.477C243.202 161.906 242.344 158.177 241.981 154.384C241.615 148.953 242.182 140.277 239.802 138.054C237.422 135.831 235.908 137.368 238.243 149.356C239.647 156.518 240.42 163.789 240.556 171.087C240.556 171.087 235.401 155.361 231.939 154.906C228.478 154.451 228.485 159.539 231.447 163.955C234.409 168.371 240.123 176.286 241.063 180.367C241.063 180.367 235.401 168.535 230.306 172.161C225.21 175.787 234.737 182.933 238.982 185.522C243.226 188.11 246.181 204.291 246.181 204.291L248.366 203.672Z" fill="black"/>
    <path d="M244.934 207.565C244.934 207.565 249.164 198.017 244.084 188.744C239.003 179.471 237.541 177.293 240.689 175.316C243.837 173.339 245.397 182.724 245.397 182.724C245.397 182.724 247.985 176.219 245.702 169.49C243.42 162.761 241.905 151.765 244.897 150.541C247.888 149.318 245.643 164.275 248.306 169.318C249.594 165.729 250.409 161.987 250.73 158.188C251.021 152.749 250.357 144.088 252.707 141.828C255.057 139.568 256.594 141.082 254.401 153.107C253.084 160.302 252.397 167.599 252.349 174.913C252.349 174.913 257.318 159.113 260.772 158.605C264.226 158.098 264.285 163.186 261.376 167.647C258.466 172.108 252.842 180.105 251.954 184.186C251.954 184.186 257.474 172.25 262.607 175.823C267.739 179.396 258.31 186.663 254.095 189.303C249.88 191.944 247.127 208.185 247.127 208.185L244.934 207.565Z" fill="#407BFF"/>
    <path d="M264.45 200.754H229.492L232.32 225.775H261.622L264.45 200.754Z" fill="#263238"/>
    <path d="M32.8255 208.813L54.3476 206.702V180.219H62.867V206.687L84.4487 208.813C85.4829 208.913 86.4426 209.395 87.1406 210.165C87.8385 210.934 88.2246 211.937 88.2235 212.976V216.206H29.0508V212.961C29.0534 211.924 29.4411 210.926 30.1387 210.159C30.8363 209.393 31.7939 208.913 32.8255 208.813Z" fill="#263238"/>
    <path opacity="0.1" d="M32.8255 208.813L54.3476 206.702V180.219H62.867V206.687L84.4487 208.813C85.4829 208.913 86.4426 209.395 87.1406 210.165C87.8385 210.934 88.2246 211.937 88.2235 212.976V216.206H29.0508V212.961C29.0534 211.924 29.4411 210.926 30.1387 210.159C30.8363 209.393 31.7939 208.913 32.8255 208.813Z" fill="white"/>
    <path d="M86.8293 225.698C89.8673 225.205 91.9302 222.343 91.4371 219.305C90.944 216.267 88.0815 214.204 85.0436 214.697C82.0057 215.19 79.9427 218.053 80.4358 221.09C80.929 224.128 83.7914 226.191 86.8293 225.698Z" fill="#263238"/>
    <path d="M36.8238 221.113C37.3169 218.075 35.254 215.213 32.2161 214.72C29.1782 214.227 26.3157 216.29 25.8226 219.328C25.3294 222.365 27.3924 225.228 30.4303 225.721C33.4682 226.214 36.3307 224.151 36.8238 221.113Z" fill="#263238"/>
    <path d="M61.2237 186.715H55.9346C55.1174 186.715 54.3338 186.39 53.756 185.812C53.1782 185.235 52.8536 184.451 52.8536 183.634V159.814H64.3047V183.634C64.3047 184.451 63.9801 185.235 63.4023 185.812C62.8245 186.39 62.0408 186.715 61.2237 186.715Z" fill="#263238"/>
    <path opacity="0.2" d="M61.2237 186.715H55.9346C55.1174 186.715 54.3338 186.39 53.756 185.812C53.1782 185.235 52.8536 184.451 52.8536 183.634V159.814H64.3047V183.634C64.3047 184.451 63.9801 185.235 63.4023 185.812C62.8245 186.39 62.0408 186.715 61.2237 186.715Z" fill="white"/>
    <path d="M28.83 113.098C28.83 113.098 35.2083 152.941 47.8007 159.805H34.9994C34.9994 159.805 22.3547 146.228 18.5352 113.098H28.83Z" fill="#263238"/>
    <path opacity="0.1" d="M28.83 113.098C28.83 113.098 35.2083 152.941 47.8007 159.805H34.9994C34.9994 159.805 22.3547 146.228 18.5352 113.098H28.83Z" fill="white"/>
    <path d="M34.3745 154.176H84.2968C85.2861 154.176 86.2348 154.569 86.9344 155.268C87.6339 155.968 88.0268 156.917 88.0268 157.906V162.897H30.6445V157.906C30.6445 156.917 31.0375 155.968 31.737 155.268C32.4365 154.569 33.3853 154.176 34.3745 154.176Z" fill="#407BFF"/>
    <path d="M88.9147 158.531H29.7495C28.9213 158.531 28.25 159.203 28.25 160.031V161.388C28.25 162.217 28.9213 162.888 29.7495 162.888H88.9147C89.7428 162.888 90.4142 162.217 90.4142 161.388V160.031C90.4142 159.203 89.7428 158.531 88.9147 158.531Z" fill="#263238"/>
    <path opacity="0.6" d="M88.9147 158.531H29.7495C28.9213 158.531 28.25 159.203 28.25 160.031V161.388C28.25 162.217 28.9213 162.888 29.7495 162.888H88.9147C89.7428 162.888 90.4142 162.217 90.4142 161.388V160.031C90.4142 159.203 89.7428 158.531 88.9147 158.531Z" fill="white"/>
    <path d="M16.9855 121.202H37.5005C43.4685 121.202 47.4148 116.383 46.2137 110.437L44.6472 102.5C43.4535 96.5315 37.6124 91.7422 31.6071 91.7422H11.0772C5.10915 91.7422 1.16281 96.5613 2.36387 102.5L3.95285 110.437C5.10915 116.383 10.9802 121.202 16.9855 121.202Z" fill="#407BFF"/>
    <path d="M36.3008 81.918H49.3707L50.5718 89.7137L38.9491 91.7428L36.3008 81.918Z" fill="#407BFF"/>
    <path d="M123.087 190.213L118.395 192.048L115.023 185.685L111.957 179.903L117.157 176.785L120.297 183.887L123.087 190.213Z" fill="#E4897B"/>
    <path opacity="0.2" d="M120.297 183.887L115.023 185.685L111.957 179.903L117.157 176.785L120.297 183.887Z" fill="black"/>
    <path d="M119.329 180.42L112.943 183.866C112.943 183.866 88.8247 141.464 85.1171 141.814C81.4095 142.165 46.2281 164.567 35.5006 156.264C24.7732 147.961 35.2097 123.06 35.2097 123.06C35.2097 123.06 56.1723 115.093 58.5819 119.964C59.6388 121.937 60.5803 123.969 61.4018 126.051C61.8717 127.543 62.2298 128.864 62.2298 128.864C62.9087 128.588 84.8261 119.598 94.6137 124.388C104.565 129.334 119.329 180.42 119.329 180.42Z" fill="#407BFF"/>
    <path opacity="0.3" d="M119.329 180.42L112.943 183.866C112.943 183.866 88.8247 141.464 85.1171 141.814C81.4095 142.165 46.2281 164.567 35.5006 156.264C24.7732 147.961 35.2097 123.06 35.2097 123.06C35.2097 123.06 56.1723 115.093 58.5819 119.964C59.6388 121.937 60.5803 123.969 61.4018 126.051C61.8717 127.543 62.2298 128.864 62.2298 128.864C62.9087 128.588 84.8261 119.598 94.6137 124.388C104.565 129.334 119.329 180.42 119.329 180.42Z" fill="white"/>
    <path d="M84.6527 214.995L79.647 214.421L79.6246 207.364L79.6172 200.881L85.6672 200.598L85.1301 208.222L84.6527 214.995Z" fill="#E4897B"/>
    <path opacity="0.2" d="M85.1188 208.38L79.6133 207.5V200.957L85.6633 200.637L85.1188 208.38Z" fill="black"/>
    <path d="M109.824 181.74L119.164 177.062L120.134 181.016L113.062 184.664L109.824 181.74Z" fill="#263238"/>
    <path d="M52.1055 156.354C52.1055 156.354 53.6422 156.182 77.2307 151.811C77.2307 151.811 77.7679 181.986 78.8869 204.471L86.1529 204.71C86.1529 204.71 96.5969 154.787 95.3511 147.268C94.1053 139.748 85.1533 138.711 85.1533 138.711C85.1533 138.711 69.5544 150.796 52.1055 156.354Z" fill="#407BFF"/>
    <path opacity="0.4" d="M52.1055 156.354C52.1055 156.354 53.6422 156.182 77.2307 151.811C77.2307 151.811 77.7679 181.986 78.8869 204.471L86.1529 204.71C86.1529 204.71 96.5969 154.787 95.3511 147.268C94.1053 139.748 85.1533 138.711 85.1533 138.711C85.1533 138.711 69.5544 150.796 52.1055 156.354Z" fill="white"/>
    <path opacity="0.3" d="M52.1055 156.354C52.1055 156.354 53.6422 156.182 77.2307 151.811C77.2307 151.811 77.7679 181.986 78.8869 204.471L86.1529 204.71C86.1529 204.71 96.5969 154.787 95.3511 147.268C94.1053 139.748 85.1533 138.711 85.1533 138.711C85.1533 138.711 69.5544 150.796 52.1055 156.354Z" fill="black"/>
    <path d="M77.5234 202.462L87.4303 202.23L86.08 206.311L78.0382 206.386L77.5234 202.462Z" fill="#263238"/>
    <path opacity="0.3" d="M62.2321 128.887L49.3711 133.467C49.3711 133.467 56.1373 128.417 61.4041 126.074C61.8741 127.596 62.2321 128.887 62.2321 128.887Z" fill="black"/>
    <path d="M34.3818 121.291L34.1953 125.11L58.2986 120L57.7391 115.785L34.3818 121.291Z" fill="#263238"/>
    <path opacity="0.2" d="M34.3818 121.291L34.1953 125.11L58.2986 120L57.7391 115.785L34.3818 121.291Z" fill="black"/>
    <path d="M41.7068 118.957L40.5039 119.18L41.6374 125.29L42.8403 125.066L41.7068 118.957Z" fill="#407BFF"/>
    <path d="M52.2265 117.404L46.9648 118.59L47.8636 122.578L53.1252 121.392L52.2265 117.404Z" fill="white"/>
    <path d="M56.3436 115.347L55.1406 115.57L56.2731 121.68L57.476 121.457L56.3436 115.347Z" fill="#407BFF"/>
    <path opacity="0.3" d="M41.7068 118.957L40.5039 119.18L41.6374 125.29L42.8403 125.066L41.7068 118.957Z" fill="white"/>
    <path opacity="0.3" d="M56.3436 115.347L55.1406 115.57L56.2731 121.68L57.476 121.457L56.3436 115.347Z" fill="white"/>
    <path d="M132.412 198.533C131.628 198.293 130.806 198.199 129.988 198.257C129.988 198.257 126.967 196.996 123.274 190.969L120.148 191.379C119.622 191.459 119.133 191.698 118.747 192.065C118.361 192.432 118.098 192.909 117.992 193.431C117.966 193.576 117.966 193.725 117.992 193.871C118.123 194.628 118.305 195.376 118.537 196.109C119.338 198.531 120.285 200.902 121.372 203.211L121.886 203.002L120.282 198.474C119.745 196.937 121.618 198.235 122.61 199.727C123.602 201.219 125.005 202.659 128.347 201.398C132.233 199.883 133.77 199.078 132.412 198.533Z" fill="#407BFF"/>
    <path d="M122.513 189.371C122.513 189.371 127.533 196.988 129.973 198.256C129.973 198.256 127.212 200.494 123.527 196.898C118.768 192.295 117.977 193.869 117.977 193.869C117.934 192.967 117.977 192.063 118.104 191.169C118.499 189.423 122.513 189.371 122.513 189.371Z" fill="#E4897B"/>
    <path d="M92.145 223.874C91.4383 223.458 90.6625 223.172 89.8548 223.031C89.8548 223.031 87.2139 221.084 85.0878 214.37L81.9546 214.027C81.4219 213.977 80.8869 214.094 80.4233 214.361C79.9598 214.629 79.5904 215.033 79.366 215.519C79.2991 215.652 79.2538 215.796 79.2317 215.944C79.1832 216.704 79.1832 217.466 79.2317 218.227C79.4382 220.767 79.797 223.293 80.306 225.791L80.8505 225.709L80.3657 220.935C80.209 219.308 81.7234 221.017 82.3351 222.703C82.9468 224.389 83.9614 226.119 87.5049 225.687C91.6452 225.142 93.3311 224.724 92.145 223.874Z" fill="#407BFF"/>
    <path d="M84.6937 212.623C84.6937 212.623 87.7672 221.217 89.856 223.03C89.856 223.03 86.6482 224.522 83.888 220.188C80.352 214.578 79.2031 215.928 79.2031 215.928C79.3714 215.041 79.6211 214.172 79.9491 213.332C80.7846 211.72 84.6937 212.623 84.6937 212.623Z" fill="#E4897B"/>
    <path d="M47.8323 55.553C47.8323 55.553 36.0529 49.8312 32.1663 62.1551C28.2796 74.479 33.2629 82.9834 33.2629 82.9834C33.2629 82.9834 46.8923 79.4922 58.3658 81.9316C58.3658 81.9316 55.8891 71.4279 56.4859 65.4002C57.0827 59.3725 47.8323 55.553 47.8323 55.553Z" fill="#263238"/>
    <path d="M57.0234 83.4453C59.6121 83.5572 70.4514 98.1266 70.4514 98.1266L74.4798 92.9046C74.4798 92.9046 80.6866 104.967 77.613 110.712C74.5395 116.456 58.3513 100.76 58.3513 100.76L57.0234 83.4453Z" fill="#407BFF"/>
    <path opacity="0.6" d="M57.0156 83.4453L58.0749 95.0904L58.3435 100.767C58.3435 100.767 61.0067 103.349 64.3712 106.034C69.3172 109.981 75.7775 114.143 77.6052 110.727C80.6787 104.99 74.4646 92.9195 74.4646 92.9195L70.4436 98.1415V98.0968C69.817 97.2016 59.5222 83.5572 57.0156 83.4453Z" fill="white"/>
    <path opacity="0.2" d="M58.0781 95.0929L58.3467 100.77C58.3467 100.77 61.0099 103.351 64.3744 106.037C64.6951 99.2183 58.3467 89.2891 58.3467 89.2891L58.0781 95.0929Z" fill="black"/>
    <path opacity="0.2" d="M70.4587 98.1267L69.8768 99.2382L71.5628 105.803C71.5628 105.803 66.9077 101.566 69.8768 97.418L70.4587 98.1267Z" fill="black"/>
    <path d="M58.3793 96.4394C58.3793 96.6184 58.3793 96.8049 58.3793 96.9914C58.3793 97.7971 58.3793 98.6475 58.3271 99.5502C58.3271 99.6248 58.3271 99.6994 58.3271 99.7815C58.3271 100.266 58.3271 100.766 58.3271 101.273C58.3271 101.363 58.3271 101.445 58.3271 101.535C58.3271 102.281 58.2749 103.027 58.245 103.773C58.245 103.877 58.245 103.981 58.245 104.086C58.245 105.1 58.163 106.167 58.1107 107.294C57.9914 109.823 57.8496 112.628 57.6706 115.738L57.3349 115.82L34.5446 121.222H34.4551C34.4551 121.222 35.3727 109.032 33.7986 102.131C33.7872 102.071 33.7723 102.011 33.7538 101.952C33.7538 101.848 33.7091 101.743 33.6792 101.639C33.6494 101.535 33.5748 101.251 33.53 101.05C33.4853 100.848 33.4256 100.647 33.3659 100.438C33.1645 99.6919 32.9482 98.946 32.7169 98.1254C32.5677 97.5882 32.4036 97.0362 32.232 96.4692L32.1425 96.1858C31.9411 95.5144 31.7247 94.8206 31.5009 94.1044C31.4338 93.8955 31.3741 93.6941 31.307 93.4778C30.9787 92.4557 30.6281 91.3741 30.2476 90.2401C29.8299 88.962 29.3723 87.6068 28.875 86.1744C31.4886 85.3411 34.1521 84.6733 36.8497 84.1751L38.006 83.9663L39.2295 83.7649C41.2735 83.4366 43.3399 83.2053 45.4064 83.0561C46.2369 82.9965 47.065 82.9517 47.8905 82.9219C48.3904 82.9219 48.9051 82.9219 49.3825 82.9219H49.5914L51.0834 82.9666H51.7772H52.2173H52.6948L53.4408 83.0114H54.0077L55.0298 83.0785L55.4326 83.1158H55.7907H56.1189H56.3875L57.0365 83.1755C57.0365 83.1755 57.0365 83.1755 57.0962 83.1755L57.1484 83.2277C57.1983 83.2871 57.2408 83.3522 57.2752 83.4217C57.5044 83.9075 57.6675 84.4219 57.7601 84.951C57.7601 85.1002 57.8198 85.2643 57.8571 85.4434C57.8944 85.6224 57.9466 86.0028 57.9988 86.3311C58.0511 86.6593 58.066 86.8085 58.0958 87.0771C58.1257 87.3456 58.148 87.562 58.1704 87.8231C58.3912 90.6895 58.4609 93.5656 58.3793 96.4394Z" fill="#263238"/>
    <path d="M46.0064 87.8639C40.5755 87.1701 38.9492 84.8426 38.9492 84.8426C41.1872 82.7538 40.762 79.6728 40.195 77.7481C40.0244 77.1376 39.7997 76.5434 39.5236 75.9727L46.0586 77.1961C45.9066 78.1037 45.8219 79.0213 45.805 79.9414C45.7804 80.6205 45.8431 81.2999 45.9915 81.963C46.4316 83.9176 47.5431 83.9474 47.5431 83.9474C48.692 86.0884 46.0064 87.8639 46.0064 87.8639Z" fill="#E4897B"/>
    <path opacity="0.2" d="M45.8048 79.9414C45.7802 80.6205 45.8429 81.2999 45.9913 81.963C43.3952 81.6273 41.4332 79.546 40.1948 77.7481C40.0242 77.1376 39.7995 76.5434 39.5234 75.9727L46.0584 77.1961C45.9064 78.1037 45.8217 79.0213 45.8048 79.9414Z" fill="black"/>
    <path d="M47.5421 58.8658C53.5548 60.0892 54.8305 63.7073 54.0099 69.9886C52.9804 77.844 50.1456 82.9914 42.9616 79.806C33.2189 75.4792 37.5606 56.8292 47.5421 58.8658Z" fill="#E4897B"/>
    <path d="M50.1884 68.8633C50.4879 69.8597 50.9061 70.8165 51.4342 71.713C51.2066 71.9236 50.9255 72.0677 50.6217 72.1295C50.3178 72.1914 50.0027 72.1686 49.7109 72.0636L50.1884 68.8633Z" fill="#DE5753"/>
    <path d="M44.6466 64.1026C44.6069 64.1024 44.5676 64.0937 44.5316 64.0769C44.4955 64.0602 44.4635 64.0359 44.4377 64.0056C44.4118 63.9812 44.3911 63.9517 44.3769 63.919C44.3628 63.8863 44.3555 63.851 44.3555 63.8154C44.3555 63.7797 44.3628 63.7445 44.3769 63.7118C44.3911 63.679 44.4118 63.6496 44.4377 63.6252C44.8772 63.3198 45.3825 63.1221 45.9125 63.0483C46.4426 62.9744 46.9826 63.0263 47.4889 63.1999C47.5222 63.2117 47.5528 63.2299 47.5791 63.2535C47.6054 63.2771 47.6268 63.3056 47.642 63.3375C47.6572 63.3694 47.666 63.4039 47.6679 63.4392C47.6698 63.4745 47.6647 63.5098 47.653 63.5431C47.6412 63.5764 47.623 63.6071 47.5994 63.6333C47.5758 63.6596 47.5473 63.681 47.5154 63.6962C47.4835 63.7115 47.449 63.7203 47.4137 63.7222C47.3784 63.724 47.3431 63.719 47.3098 63.7072C46.8897 63.5728 46.445 63.5331 46.0077 63.5912C45.5704 63.6492 45.1514 63.8035 44.7809 64.0429C44.7418 64.0737 44.6956 64.0942 44.6466 64.1026Z" fill="#263238"/>
    <path d="M54.1138 65.3477C54.0433 65.3459 53.9763 65.3164 53.9273 65.2656C53.6709 64.9714 53.3528 64.7373 52.9956 64.58C52.6385 64.4227 52.251 64.3461 51.8609 64.3555C51.826 64.3619 51.7902 64.3611 51.7556 64.3531C51.721 64.3452 51.6885 64.3303 51.6598 64.3094C51.6312 64.2884 51.6072 64.2619 51.5891 64.2313C51.5711 64.2008 51.5595 64.1669 51.555 64.1317C51.5487 64.0968 51.5495 64.061 51.5574 64.0264C51.5653 63.9919 51.5802 63.9593 51.6012 63.9307C51.6221 63.902 51.6487 63.878 51.6792 63.86C51.7098 63.842 51.7436 63.8303 51.7788 63.8259C52.2533 63.7975 52.7279 63.8782 53.1663 64.0619C53.6047 64.2455 53.9952 64.5271 54.3078 64.8852C54.3328 64.9101 54.3527 64.9398 54.3662 64.9724C54.3798 65.0051 54.3867 65.0401 54.3867 65.0754C54.3867 65.1108 54.3798 65.1458 54.3662 65.1784C54.3527 65.211 54.3328 65.2407 54.3078 65.2656C54.256 65.3169 54.1866 65.3463 54.1138 65.3477Z" fill="#263238"/>
    <path d="M38.909 67.6544C38.909 67.6544 42.7286 63.2903 43.0792 59.3887C43.0792 59.3887 55.9775 56.9567 54.1051 69.1687C54.1051 69.1687 57.4546 58.6651 47.1747 56.3226C36.8948 53.9802 33.8511 69.1016 38.2675 74.6891C38.2675 74.6891 36.5368 70.3922 38.909 67.6544Z" fill="#263238"/>
    <path d="M39.6354 69.1232C39.6771 68.7729 39.6493 68.4179 39.5538 68.0784C39.4582 67.7389 39.2967 67.4216 39.0785 67.1445C38.8603 66.8674 38.5897 66.636 38.282 66.4635C37.9744 66.291 37.6358 66.1808 37.2855 66.1392C35.3832 65.9601 33.7122 69.6006 38.1583 71.4656C38.7999 71.7342 39.3072 71.1598 39.6354 69.1232Z" fill="#E4897B"/>
    <path d="M49.5391 73.867C49.0279 74.417 48.5567 75.0029 48.1291 75.6201L47.771 75.4411C46.1597 74.6503 45.6748 73.7551 45.6226 73.0016C45.6095 72.6291 45.6836 72.2588 45.8389 71.9199C45.9209 71.7271 46.0288 71.5464 46.1597 71.3828C46.9322 72.3245 47.8992 73.088 48.9945 73.6208C49.3302 73.77 49.5391 73.867 49.5391 73.867Z" fill="#263238"/>
    <path d="M48.9954 73.591L48.5702 74.0983C47.0782 73.3523 46.086 72.6063 45.8398 71.9199C45.9219 71.7271 46.0298 71.5464 46.1606 71.3828C46.9362 72.3137 47.903 73.0668 48.9954 73.591Z" fill="white"/>
    <path d="M47.7735 75.4433C46.1621 74.6526 45.6772 73.7574 45.625 73.0039C46.2362 73.3104 46.7851 73.7278 47.2438 74.2348C47.5441 74.5713 47.7296 74.9945 47.7735 75.4433Z" fill="#DE5753"/>
    <path d="M47.3251 59.2819C47.3251 59.2819 42.8491 68.6815 36.6872 67.2865C30.5252 65.8915 42.6552 55.3505 42.6552 55.3505C42.6552 55.3505 53.599 53.5676 57.508 60.0279C61.4171 66.4883 54.1063 69.2037 54.1063 69.2037C54.1063 69.2037 56.0459 61.5796 47.3251 59.2819Z" fill="#263238"/>
    <path d="M41.3577 67.0339C41.3167 67.0323 41.2773 67.0177 41.2451 66.9922C41.2129 66.9667 41.1897 66.9317 41.1787 66.8922C41.172 66.8686 41.1702 66.844 41.1734 66.8198C41.1767 66.7955 41.1848 66.7722 41.1974 66.7512C41.21 66.7303 41.2267 66.7121 41.2466 66.6978C41.2665 66.6836 41.289 66.6736 41.3129 66.6684C46.5349 65.348 47.2213 58.6265 47.2287 58.5594C47.2344 58.5112 47.2585 58.4671 47.2961 58.4365C47.3338 58.4058 47.3818 58.391 47.4301 58.3952C47.4548 58.3959 47.479 58.4019 47.5011 58.4128C47.5232 58.4237 47.5427 58.4393 47.5583 58.4584C47.5739 58.4775 47.5852 58.4997 47.5914 58.5236C47.5976 58.5475 47.5986 58.5724 47.5943 58.5967C47.5943 58.6638 46.8483 65.6464 41.4025 67.0265L41.3577 67.0339Z" fill="#263238"/>
    <path d="M46.6776 67.9468C46.6776 68.4242 46.3866 68.7972 46.0733 68.7897C45.76 68.7823 45.5063 68.3794 45.5287 67.902C45.5511 67.4246 45.8197 67.0441 46.1404 67.059C46.4612 67.0739 46.6999 67.4917 46.6776 67.9468Z" fill="#263238"/>
    <path d="M46.0039 67.0687L47.0558 66.7031C47.0558 66.7031 46.5037 67.561 46.0039 67.0687Z" fill="#263238"/>
    <path d="M52.614 68.0799C52.614 68.5574 52.3156 68.9378 52.0023 68.9229C51.6889 68.908 51.4428 68.5126 51.4577 68.0352C51.4726 67.5577 51.7486 67.1847 52.0694 67.1997C52.3902 67.2146 52.6289 67.6025 52.614 68.0799Z" fill="#263238"/>
    <path d="M51.9375 67.2132L52.9894 66.8477C52.9894 66.8477 52.4373 67.6981 51.9375 67.2132Z" fill="#263238"/>
    <path d="M60.97 93.0628C60.959 93.1426 60.9657 93.2238 60.9894 93.3007C61.0132 93.3776 61.0535 93.4484 61.1075 93.5082C61.1615 93.5679 61.228 93.615 61.3021 93.6463C61.3763 93.6777 61.4565 93.6924 61.5369 93.6894H67.7735C67.9458 93.683 68.1106 93.6171 68.2398 93.5028C68.3691 93.3886 68.4547 93.2331 68.4822 93.0628L69.8697 80.7538C69.8881 80.6674 69.8877 80.5781 69.8687 80.4918C69.8496 80.4056 69.8124 80.3244 69.7594 80.2538C69.7064 80.1831 69.6389 80.1246 69.5614 80.0822C69.484 80.0398 69.3983 80.0144 69.3102 80.0078H63.0737C62.8871 80.03 62.7141 80.1167 62.5847 80.2529C62.4553 80.3892 62.3776 80.5663 62.365 80.7538L60.97 93.0628Z" fill="#263238"/>
    <path opacity="0.5" d="M63.0559 80.6692L61.6385 93.0976C61.6209 93.1702 61.6205 93.2459 61.6374 93.3186C61.6544 93.3914 61.6882 93.4591 61.736 93.5165C61.7839 93.5738 61.8446 93.6191 61.9132 93.6487C61.9817 93.6783 62.0563 93.6914 62.1309 93.6869H67.42C67.7781 93.6869 68.4271 93.493 68.4644 93.1424L69.8818 80.6692C69.8818 80.3186 69.3148 80.0352 68.9568 80.0352H63.6676C63.504 80.0428 63.3494 80.1127 63.2357 80.2306C63.122 80.3485 63.0576 80.5054 63.0559 80.6692Z" fill="white"/>
    <path d="M74.0379 94.0901L70.7854 88.5696C70.8109 87.3699 70.7185 86.1705 70.5093 84.9889C70.2259 84.3025 67.0404 82.7508 66.4138 82.9896C65.7872 83.2283 65.5634 88.9128 66.1303 89.7036C66.6973 90.4943 68.6891 91.3224 68.6891 91.3224L68.5548 92.4041L70.4571 98.1483L74.0379 94.0901Z" fill="#E4897B"/>
    <path d="M75.3438 93.4645L74.2696 92.3828L69.1445 98.127L69.8756 100.402L75.3438 93.4645Z" fill="#407BFF"/>
    <path d="M49.3678 81.918L48.7188 84.3052L50.0392 86.2448L52.9635 113.519L60.9681 112.34C60.416 91.0863 60.2221 90.9744 57.1336 83.3279L49.9646 82.8281L49.3678 81.918Z" fill="#407BFF"/>
    <path opacity="0.6" d="M49.3678 81.918L48.7188 84.3052L50.0392 86.2448L52.9635 113.519L60.9681 112.34C60.416 91.0863 60.2221 90.9744 57.1336 83.3279L49.9646 82.8281L49.3678 81.918Z" fill="white"/>
    <path d="M36.2997 81.918L43.4091 84.902L41.6634 87.886L43.3867 115.809L32.6144 118.964C32.6144 118.964 24.7964 98.4493 28.8024 86.2746L35.8595 84.238L36.2997 81.918Z" fill="#407BFF"/>
    <path opacity="0.6" d="M43.1111 111.363L43.3871 115.786L38.5829 117.189L32.6149 118.934C30.4099 112.867 28.8691 106.579 28.0195 100.18C27.4451 95.3236 27.46 90.3179 28.8028 86.2448L35.86 84.2082L36.3001 81.918L43.4095 84.902L41.6638 87.886L42.3502 98.9715L43.1111 111.363Z" fill="white"/>
    <path opacity="0.2" d="M49.4148 102.64C49.4148 102.64 46.7367 106.541 43.1111 111.361C41.7086 113.226 40.1271 115.225 38.5829 117.187L32.6149 118.932C30.4099 112.865 28.8691 106.577 28.0195 100.178C30.9439 97.2463 34.5247 93.6953 34.5247 93.6953C34.5247 93.6953 36.1659 98.7681 35.4422 103.177L42.3502 98.9471L44.4987 97.6342L49.4148 102.64Z" fill="black"/>
    <path d="M43.582 99.4948L50.9749 93.6909C51.4031 92.4355 51.9294 91.2158 52.5489 90.043C52.9965 89.4984 59.4793 87.1112 60.0089 87.059C60.5386 87.0068 60.009 92.3705 59.1958 93.2806C58.3827 94.1907 53.1681 95.9961 53.1681 95.9961L45.4396 103.299L43.582 99.4948Z" fill="#E4897B"/>
    <path d="M28.8023 86.2422C24.4606 88.4205 22.5285 112.934 30.0705 117.164C37.6126 121.394 48.8697 102.244 48.8697 102.244L44.4907 97.5963C44.4907 97.5963 35.3149 105.28 34.2108 104.571C33.1068 103.863 34.36 96.3654 34.36 96.3654C34.36 96.3654 35.6506 94.1274 32.9352 90.5242C30.2197 86.9211 28.8023 86.2422 28.8023 86.2422Z" fill="#407BFF"/>
    <path opacity="0.6" d="M28.8023 86.2422C24.4606 88.4205 22.5285 112.934 30.0705 117.164C37.6126 121.394 48.8697 102.244 48.8697 102.244L44.4907 97.5963C44.4907 97.5963 35.3149 105.28 34.2108 104.571C33.1068 103.863 34.36 96.3654 34.36 96.3654C34.36 96.3654 35.6506 94.1274 32.9352 90.5242C30.2197 86.9211 28.8023 86.2422 28.8023 86.2422Z" fill="white"/>
    <path d="M48.9515 103.978L50.2644 103.187L45.3483 95.9805L43.543 96.9876L48.9515 103.978Z" fill="#407BFF"/>
</svg>
