<svg width="162" height="280" viewBox="0 0 162 280" fill="none"
    xmlns="http://www.w3.org/2000/svg">
    <path d="M81 280C36.2649 280 0 274.851 0 268.5C0 262.149 36.2649 257 81 257C125.735 257 162 262.149 162 268.5C162 274.851 125.735 280 81 280Z" fill="#F5F5F5"/>
    <path d="M105.532 260.374H99.2171L98.5383 245.844H104.853L105.532 260.374Z" fill="#E4897B"/>
    <path d="M98.9957 259.648H105.869C105.994 259.648 106.115 259.692 106.211 259.772C106.306 259.851 106.371 259.962 106.393 260.084L107.416 265.662C107.439 265.799 107.433 265.939 107.396 266.073C107.36 266.207 107.294 266.331 107.204 266.437C107.114 266.543 107.002 266.628 106.875 266.686C106.748 266.744 106.61 266.773 106.471 266.773C103.987 266.73 100.396 266.585 97.2687 266.585C93.6172 266.585 93.1017 266.79 88.823 266.79C86.2455 266.79 85.6011 264.227 86.6923 263.945C91.6755 262.869 93.0588 262.758 97.4234 260.144C97.8894 259.833 98.4349 259.661 98.9957 259.648V259.648Z" fill="#263238"/>
    <path d="M98.5435 245.844L98.8872 253.327H105.202L104.85 245.844H98.5435Z" fill="#CE6F64"/>
    <path d="M63.2205 51.4994C63.3408 53.4726 63.4783 55.6338 63.5384 57.701C63.5986 59.7682 63.6415 61.8695 63.6157 63.9282C63.59 65.9868 63.5127 68.0369 63.3322 70.0016C63.1943 71.8552 62.8924 73.6932 62.4301 75.4942C62.2541 76.1798 62.0034 76.8443 61.6826 77.4759C61.5885 77.6665 61.4793 77.8493 61.3561 78.0226L60.9695 78.6462C60.7203 79.0562 60.4196 79.5004 60.1103 79.8934C58.9848 81.5591 57.739 83.2162 56.4502 84.8819C53.8727 88.1706 51.0632 91.4935 48.3053 94.7481L51.5959 98.5664C55.4016 96.1082 58.9862 93.3274 62.3098 90.2549C64.015 88.6898 65.6326 87.033 67.1556 85.292C67.5422 84.8392 67.9374 84.4378 68.2983 83.9252L68.8567 83.2077C69.0746 82.9374 69.2727 82.6519 69.4496 82.3535C70.2615 81.1221 70.9193 79.7968 71.4085 78.407C72.2213 76.0404 72.7969 73.5998 73.1268 71.1206C73.4791 68.7715 73.6338 66.4566 73.754 64.1674C73.8743 61.8781 73.8657 59.5973 73.754 57.3337C73.6424 55.07 73.5736 52.8576 73.3159 50.5L63.2205 51.4994Z" fill="#E4897B"/>
    <path d="M61.019 64.3692L63.6996 65.4369L68.2103 67.2222L76.2178 70.4084C76.2178 70.4084 79.8693 51.5218 77.9362 45.7816C75.771 39.4775 68.1244 39.6227 63.9917 46.8066C59.902 53.8111 61.019 64.3692 61.019 64.3692Z" fill="#407BFF"/>
    <path opacity="0.6" d="M61.019 64.3692L63.6996 65.4369L68.2103 67.2222L76.2178 70.4084C76.2178 70.4084 79.8693 51.5218 77.9362 45.7816C75.771 39.4775 68.1244 39.6227 63.9917 46.8066C59.902 53.8111 61.019 64.3692 61.019 64.3692Z" fill="white"/>
    <path d="M64.067 65.5817L68.1824 67.2132C68.8698 64.2491 69.5056 59.2861 67.4693 55.5703C64.6856 57.8852 64.256 62.5577 64.067 65.5817Z" fill="#407BFF"/>
    <path opacity="0.4" d="M64.067 65.5817L68.1824 67.2132C68.8698 64.2491 69.5056 59.2861 67.4693 55.5703C64.6856 57.8852 64.256 62.5577 64.067 65.5817Z" fill="white"/>
    <path d="M68.1587 91.8286H102.706C102.955 88.7449 102.173 80.3907 102.706 69.0126C102.826 66.3902 103.015 63.614 103.299 60.7012C103.929 54.0839 105.026 47.5189 106.581 41.0543C102.78 40.3186 98.9337 39.8335 95.0681 39.6022C90.1749 39.3201 85.2694 39.3201 80.3762 39.6022C76.9929 39.9428 73.6427 40.5541 70.3582 41.4302C70.3582 41.4302 62.2218 55.7211 68.1587 91.8286Z" fill="#407BFF"/>
    <path opacity="0.6" d="M68.1587 91.8286H102.706C102.955 88.7449 102.173 80.3907 102.706 69.0126C102.826 66.3902 103.015 63.614 103.299 60.7012C103.929 54.0839 105.026 47.5189 106.581 41.0543C102.78 40.3186 98.9337 39.8335 95.0681 39.6022C90.1749 39.3201 85.2694 39.3201 80.3762 39.6022C76.9929 39.9428 73.6427 40.5541 70.3582 41.4302C70.3582 41.4302 62.2218 55.7211 68.1587 91.8286Z" fill="white"/>
    <path d="M102.688 69.0093C102.808 66.3868 102.997 63.6107 103.281 60.6978C102.164 60.0059 100.703 59.9632 100.403 64.0292C100.128 67.7877 101.408 68.8299 102.688 69.0093Z" fill="#407BFF"/>
    <path opacity="0.4" d="M102.688 69.0093C102.808 66.3868 102.997 63.6107 103.281 60.6978C102.164 60.0059 100.703 59.9632 100.403 64.0292C100.128 67.7877 101.408 68.8299 102.688 69.0093Z" fill="white"/>
    <path d="M38.5391 99.3172L43.5224 102.401L49.6741 101.094L44.7768 95.0547L38.5391 99.3172Z" fill="#E4897B"/>
    <path d="M50.5332 94.1094L44.7767 95.0319L49.674 101.071C49.674 101.071 52.7499 100.764 53.5833 96.6293L50.5332 94.1094Z" fill="#E4897B"/>
    <path d="M94.1787 23.1641C93.0875 27.8622 91.8503 36.4726 95.0378 39.6076C95.0378 39.6076 93.4312 42.7596 84.6504 42.7596C76.6343 42.7596 80.3545 39.6076 80.3545 39.6076C85.6728 38.3519 85.6728 34.4823 84.891 30.8178L94.1787 23.1641Z" fill="#E4897B"/>
    <path d="M90.3866 26.2812L84.8879 30.8086C85.0858 31.6502 85.2066 32.5079 85.2487 33.3712C86.9241 34.9942 90.1203 30.8854 90.4038 28.7926C90.5481 27.9611 90.5422 27.1107 90.3866 26.2812V26.2812Z" fill="#CE6F64"/>
    <path d="M75.4273 11.2488C73.2278 13.9652 75.7968 22.5243 80.3504 22.3535C84.904 22.1827 79.6029 6.05517 75.4273 11.2488Z" fill="#263238"/>
    <path d="M93.2445 15.3545C93.7428 21.6927 94.3528 25.3573 91.6035 29.1329C90.7202 30.3694 89.5165 31.3449 88.1203 31.9559C86.7242 32.5669 85.1876 32.7905 83.6739 32.6031C82.1601 32.4156 80.7257 31.824 79.523 30.8912C78.3202 29.9583 77.3941 28.719 76.8428 27.3049C74.6863 21.9148 74.2653 12.4672 80.0991 8.89665C81.3369 8.0841 82.7673 7.60821 84.2477 7.51638C85.7281 7.42455 87.2069 7.71999 88.5367 8.37327C89.8665 9.02655 91.0009 10.0149 91.8269 11.2398C92.6529 12.4646 93.1417 13.8833 93.2445 15.3545Z" fill="#E4897B"/>
    <path d="M95.5429 7.38281L88.6695 9.80876C91.6852 13.815 87.3034 23.2626 92.6303 21.4944C95.0703 20.6914 103.026 11.9443 95.5429 7.38281Z" fill="#263238"/>
    <path d="M92.214 9.02045C89.6364 10.9168 79.06 13.1719 73.02 9.82341C74.2632 9.49712 75.4695 9.04486 76.6199 8.47376C76.6199 8.47376 72.1007 8.26021 70.0988 4.93733C72.9082 5.41056 75.7956 5.04801 78.3984 3.89519C77.3987 3.60166 76.4718 3.10349 75.6772 2.43267C74.8827 1.76185 74.238 0.933222 73.7846 0C82.1272 0.102505 100.093 1.7853 96.9824 7.61955C93.8722 13.4538 92.214 9.02045 92.214 9.02045Z" fill="#263238"/>
    <path d="M95.8201 8.26116C97.0865 7.66158 98.2356 6.84306 99.2139 5.84375C99.6091 6.82609 99.6091 9.48268 95.8201 8.26116Z" fill="#263238"/>
    <path d="M97.1059 21.7556C96.4278 23.2501 95.1972 24.4278 93.6692 25.0443C91.6673 25.8558 90.4903 24.1901 90.9027 22.1742C91.2721 20.3889 92.7585 17.8177 94.8377 17.8519C96.9169 17.8861 97.8792 19.9362 97.1059 21.7556Z" fill="#E4897B"/>
    <path d="M86.1506 260.374H79.8443L78.5383 245.844H84.8447L86.1506 260.374Z" fill="#E4897B"/>
    <path d="M79.5571 259.648H86.4305C86.5558 259.647 86.6776 259.69 86.7737 259.77C86.8699 259.85 86.934 259.961 86.9546 260.084L88.0028 265.662C88.0267 265.799 88.0201 265.939 87.9835 266.073C87.947 266.207 87.8813 266.331 87.7912 266.437C87.7011 266.543 87.5887 266.628 87.4619 266.686C87.3352 266.744 87.1972 266.773 87.0577 266.773C84.5661 266.73 80.9833 266.585 77.8559 266.585C74.2044 266.585 71.0341 266.79 66.7554 266.79C64.1778 266.79 63.5335 264.227 64.6332 263.945C69.6078 262.869 73.646 262.758 78.002 260.144C78.4637 259.838 79.0024 259.666 79.5571 259.648V259.648Z" fill="#263238"/>
    <path d="M78.5369 245.844L79.207 253.327H85.522L84.8518 245.844H78.5369Z" fill="#CE6F64"/>
    <path d="M76.913 260.613C76.4869 260.717 76.0381 260.671 75.6415 260.485C75.5123 260.407 75.4061 260.296 75.3337 260.164C75.2613 260.032 75.2252 259.884 75.2291 259.733C75.2187 259.645 75.2324 259.556 75.2686 259.475C75.3049 259.394 75.3625 259.324 75.4353 259.272C76.0968 258.802 78.3221 259.733 78.5798 259.844C78.6055 259.857 78.6271 259.877 78.6423 259.901C78.6574 259.925 78.6656 259.953 78.6658 259.981C78.6628 260.012 78.6517 260.042 78.6336 260.067C78.6155 260.093 78.5911 260.113 78.5627 260.126C78.0316 260.346 77.4786 260.509 76.913 260.613ZM75.7961 259.452C75.7284 259.458 75.6635 259.482 75.6071 259.52C75.5641 259.52 75.5298 259.588 75.5298 259.708C75.528 259.809 75.5523 259.91 75.6004 260C75.6486 260.089 75.7188 260.165 75.8047 260.22C76.5722 260.433 77.3924 260.348 78.0987 259.981C77.3736 259.656 76.5912 259.476 75.7961 259.452V259.452Z" fill="#407BFF"/>
    <path d="M78.5355 260.134H78.4581C77.7536 259.878 76.3016 258.691 76.3445 257.965C76.3545 257.849 76.403 257.74 76.4824 257.655C76.5618 257.57 76.6675 257.514 76.7827 257.495C76.8946 257.462 77.0125 257.453 77.1282 257.469C77.2439 257.485 77.3547 257.526 77.4529 257.589C78.3121 258.076 78.6557 259.878 78.6643 259.955C78.6698 259.997 78.6597 260.039 78.6359 260.074C78.6121 260.108 78.5764 260.133 78.5355 260.143V260.134ZM76.9288 257.76H76.86C76.6624 257.82 76.6539 257.905 76.6539 257.948C76.6539 258.375 77.5732 259.297 78.2949 259.656C78.1576 258.946 77.8071 258.294 77.2896 257.785C77.1755 257.737 77.0486 257.728 76.9288 257.76V257.76Z" fill="#407BFF"/>
    <path d="M87.9058 251.54H77.5956C77.5956 251.54 61.7782 191.472 62.0789 171.099C62.3796 151.503 68.0932 91.8281 68.0932 91.8281H90.8613C90.8613 91.8281 89.1 105.103 87.0895 121.478C85.2939 135.931 83.3178 152.819 82.1836 165.119C81.8572 168.775 81.5908 172.021 81.4362 174.686C80.2591 194.692 87.9058 251.54 87.9058 251.54Z" fill="#407BFF"/>
    <path opacity="0.3" d="M87.9058 251.54H77.5956C77.5956 251.54 61.7782 191.472 62.0789 171.099C62.3796 151.503 68.0932 91.8281 68.0932 91.8281H90.8613C90.8613 91.8281 89.1 105.103 87.0895 121.478C85.2939 135.931 83.3178 152.819 82.1836 165.119C81.8572 168.775 81.5908 172.021 81.4362 174.686C80.2591 194.692 87.9058 251.54 87.9058 251.54Z" fill="black"/>
    <path d="M87.0896 121.438C85.2939 135.891 83.3178 152.779 82.1837 165.08C79.7866 154.342 73.9356 123.13 82.7164 107.344C84.9159 110.496 86.2562 115.886 87.0896 121.438Z" fill="#407BFF"/>
    <path opacity="0.4" d="M87.0896 121.438C85.2939 135.891 83.3178 152.779 82.1837 165.08C79.7866 154.342 73.9356 123.13 82.7164 107.344C84.9159 110.496 86.2562 115.886 87.0896 121.438Z" fill="black"/>
    <path d="M80.4094 91.8281C80.4094 91.8281 81.2686 149.376 84.6279 167.759C88.3052 187.893 95.6254 251.54 95.6254 251.54H107.422C107.422 251.54 105.704 189.516 103.899 169.587C101.958 147.95 102.671 91.8538 102.671 91.8538L80.4094 91.8281Z" fill="#407BFF"/>
    <path opacity="0.3" d="M80.4094 91.8281C80.4094 91.8281 81.2686 149.376 84.6279 167.759C88.3052 187.893 95.6254 251.54 95.6254 251.54H107.422C107.422 251.54 105.704 189.516 103.899 169.587C101.958 147.95 102.671 91.8538 102.671 91.8538L80.4094 91.8281Z" fill="black"/>
    <path d="M107.899 251.794H95.1576L94.2211 247.01L108.337 246.617L107.899 251.794Z" fill="#263238"/>
    <path d="M88.4945 251.799H75.7529L74.8078 247.016L88.8811 247.263L88.4945 251.799Z" fill="#263238"/>
    <path d="M102.937 244.587C102.952 244.586 102.966 244.582 102.978 244.575C102.991 244.568 103.002 244.559 103.011 244.548C103.02 244.537 103.027 244.524 103.03 244.51C103.034 244.496 103.034 244.481 103.032 244.467C102.954 243.869 102.069 188.209 100.454 170.305C98.7358 150.871 99.8012 99.3113 99.7668 98.8756C99.7626 98.8477 99.7478 98.8224 99.7254 98.805C99.7031 98.7875 99.6749 98.7792 99.6466 98.7817C99.6177 98.7858 99.5914 98.8002 99.5724 98.8222C99.5535 98.8442 99.5431 98.8723 99.5434 98.9013C99.5434 99.3369 98.4867 150.897 100.239 170.33C101.846 188.269 102.731 243.903 102.817 244.501C102.823 244.528 102.839 244.551 102.861 244.567C102.883 244.582 102.91 244.59 102.937 244.587V244.587Z" fill="#407BFF"/>
    <path opacity="0.3" d="M102.937 244.587C102.952 244.586 102.966 244.582 102.978 244.575C102.991 244.568 103.002 244.559 103.011 244.548C103.02 244.537 103.027 244.524 103.03 244.51C103.034 244.496 103.034 244.481 103.032 244.467C102.954 243.869 102.069 188.209 100.454 170.305C98.7358 150.871 99.8012 99.3113 99.7668 98.8756C99.7626 98.8477 99.7478 98.8224 99.7254 98.805C99.7031 98.7875 99.6749 98.7792 99.6466 98.7817C99.6177 98.7858 99.5914 98.8002 99.5724 98.8222C99.5535 98.8442 99.5431 98.8723 99.5434 98.9013C99.5434 99.3369 98.4867 150.897 100.239 170.33C101.846 188.269 102.731 243.903 102.817 244.501C102.823 244.528 102.839 244.551 102.861 244.567C102.883 244.582 102.91 244.59 102.937 244.587V244.587Z" fill="white"/>
    <path d="M83.8678 18.8373C83.9451 19.3413 83.7303 19.8026 83.3867 19.8624C83.043 19.9222 82.7165 19.5548 82.6478 19.0081C82.579 18.4615 82.7938 18.0344 83.1289 17.9746C83.464 17.9148 83.7991 18.3248 83.8678 18.8373Z" fill="#263238"/>
    <path d="M77.9105 19.5404C77.9793 20.053 77.7645 20.5057 77.4294 20.5655C77.0943 20.6253 76.7592 20.258 76.6905 19.7113C76.6218 19.1646 76.8366 18.7375 77.1716 18.6777C77.5067 18.6179 77.8418 19.0279 77.9105 19.5404Z" fill="#263238"/>
    <path d="M79.9279 19.7188C79.5261 21.391 78.902 23.0025 78.0721 24.5109C78.4693 24.6937 78.9017 24.7885 79.3394 24.7885C79.7771 24.7885 80.2095 24.6937 80.6067 24.5109L79.9279 19.7188Z" fill="#DE5753"/>
    <path d="M81.6416 26.6225C81.6218 26.6261 81.6014 26.6256 81.5817 26.621C81.5621 26.6165 81.5436 26.6079 81.5275 26.5958C81.5113 26.5838 81.4978 26.5686 81.4879 26.5511C81.478 26.5336 81.4718 26.5143 81.4698 26.4943C81.4671 26.4539 81.4798 26.414 81.5052 26.3824C81.5306 26.3508 81.567 26.3298 81.6072 26.3235C82.261 26.2505 82.8892 26.0293 83.4433 25.6768C83.9975 25.3243 84.4628 24.85 84.8034 24.2905C84.8115 24.2718 84.8236 24.255 84.8387 24.2412C84.8538 24.2275 84.8717 24.217 84.8912 24.2106C84.9106 24.2041 84.9312 24.2018 84.9516 24.2038C84.972 24.2058 84.9918 24.2121 85.0096 24.2221C85.0273 24.2304 85.0431 24.242 85.0561 24.2564C85.0692 24.2708 85.0792 24.2876 85.0856 24.306C85.092 24.3243 85.0947 24.3437 85.0934 24.363C85.0922 24.3824 85.087 24.4013 85.0783 24.4186C84.7169 25.026 84.2182 25.5414 83.6217 25.924C83.0252 26.3065 82.3472 26.5457 81.6416 26.6225V26.6225Z" fill="#263238"/>
    <path d="M85.4409 15.1405C85.3956 15.1533 85.3479 15.1553 85.3016 15.1464C85.2553 15.1375 85.2118 15.1179 85.1746 15.0892C84.8819 14.8463 84.5348 14.6768 84.1625 14.595C83.7902 14.5133 83.4036 14.5216 83.0352 14.6194C82.9974 14.6328 82.9574 14.6386 82.9173 14.6363C82.8773 14.6341 82.8381 14.6239 82.8021 14.6064C82.7661 14.5889 82.7339 14.5644 82.7076 14.5344C82.6812 14.5043 82.6612 14.4694 82.6486 14.4315C82.6265 14.3522 82.6355 14.2675 82.6737 14.1946C82.712 14.1216 82.7767 14.0659 82.8548 14.0386C83.3189 13.9101 83.8074 13.8951 84.2786 13.9947C84.7498 14.0944 85.1898 14.3058 85.5612 14.6109C85.5938 14.635 85.621 14.6656 85.641 14.7007C85.661 14.7359 85.6735 14.7748 85.6775 14.815C85.6815 14.8552 85.6771 14.8958 85.6645 14.9342C85.6518 14.9726 85.6313 15.0079 85.6041 15.038C85.561 15.0873 85.5043 15.123 85.4409 15.1405V15.1405Z" fill="#263238"/>
    <path d="M101.471 39.8954L99.8471 39.7502C99.7679 39.7474 99.6901 39.7711 99.6262 39.8176C99.5623 39.8641 99.516 39.9306 99.4948 40.0065C94.082 64.2404 95.7058 89.9692 95.7058 89.9692H97.5015C97.1257 73.3085 98.5486 56.6558 101.746 40.2969C101.764 40.2524 101.771 40.204 101.767 40.1561C101.762 40.1082 101.745 40.0622 101.717 40.0224C101.69 39.9826 101.653 39.9501 101.61 39.9279C101.567 39.9058 101.519 39.8946 101.471 39.8954V39.8954Z" fill="#407BFF"/>
    <path opacity="0.1" d="M101.471 39.8954L99.8471 39.7502C99.7679 39.7474 99.6901 39.7711 99.6262 39.8176C99.5623 39.8641 99.516 39.9306 99.4948 40.0065C94.082 64.2404 95.7058 89.9692 95.7058 89.9692H97.5015C97.1257 73.3085 98.5486 56.6558 101.746 40.2969C101.764 40.2524 101.771 40.204 101.767 40.1561C101.762 40.1082 101.745 40.0622 101.717 40.0224C101.69 39.9826 101.653 39.9501 101.61 39.9279C101.567 39.9058 101.519 39.8946 101.471 39.8954V39.8954Z" fill="white"/>
    <path d="M97.1669 90.536H95.9211C95.8455 90.5372 95.7706 90.5231 95.7007 90.4947C95.6308 90.4662 95.5674 90.424 95.5144 90.3705C95.4614 90.317 95.4198 90.2533 95.3922 90.1834C95.3647 90.1135 95.3517 90.0387 95.354 89.9637V89.9637C95.3627 89.808 95.4305 89.6615 95.5438 89.5536C95.657 89.4458 95.8073 89.3847 95.964 89.3828H97.2012C97.2772 89.3828 97.3524 89.3979 97.4223 89.4273C97.4922 89.4567 97.5555 89.4998 97.6084 89.5539C97.6613 89.6081 97.7027 89.6723 97.7302 89.7427C97.7576 89.8131 97.7706 89.8882 97.7683 89.9637V89.9637C97.7596 90.1171 97.6927 90.2615 97.5811 90.3677C97.4694 90.4739 97.3214 90.5341 97.1669 90.536V90.536Z" fill="#263238"/>
    <path d="M95.7232 92.0545L95.7834 90.4315C95.7922 90.229 95.8794 90.0378 96.0267 89.8977C96.174 89.7577 96.37 89.6796 96.5738 89.6797C96.6723 89.6785 96.7699 89.6972 96.8608 89.7349C96.9517 89.7726 97.0339 89.8283 97.1023 89.8987C97.1707 89.9691 97.2239 90.0527 97.2586 90.1443C97.2933 90.236 97.3088 90.3337 97.3041 90.4315L97.244 92.0545C97.2352 92.2554 97.1492 92.4454 97.0037 92.5853C96.8583 92.7251 96.6644 92.8042 96.4621 92.8062V92.8062C96.3636 92.8062 96.2661 92.7866 96.1753 92.7487C96.0845 92.7107 96.0023 92.655 95.9335 92.585C95.8646 92.5149 95.8106 92.4319 95.7745 92.3408C95.7384 92.2497 95.7209 92.1524 95.7232 92.0545Z" fill="#263238"/>
    <path d="M75.2267 16.4724C75.1818 16.4853 75.1342 16.4853 75.0893 16.4724C75.0507 16.4618 75.0148 16.4434 74.9837 16.4184C74.9526 16.3934 74.927 16.3624 74.9085 16.3271C74.89 16.2919 74.8789 16.2532 74.876 16.2136C74.8731 16.1739 74.8785 16.1341 74.8917 16.0966C75.0269 15.6251 75.2714 15.1916 75.6056 14.8311C75.9399 14.4706 76.3545 14.1931 76.8162 14.0208C76.854 14.0092 76.8938 14.0053 76.9331 14.0094C76.9725 14.0135 77.0106 14.0255 77.0451 14.0446C77.0797 14.0638 77.11 14.0898 77.1341 14.1209C77.1583 14.1521 77.1758 14.1878 77.1857 14.2259C77.2071 14.3051 77.1966 14.3895 77.1565 14.4613C77.1164 14.533 77.0499 14.5864 76.9709 14.6103V14.6103C76.6084 14.752 76.2839 14.9754 76.023 15.263C75.7621 15.5506 75.5719 15.8944 75.4673 16.2674C75.4513 16.321 75.4201 16.3688 75.3774 16.4052C75.3347 16.4415 75.2824 16.4649 75.2267 16.4724Z" fill="#263238"/>
    <path d="M102.669 51.1893C103.657 55.2126 104.653 59.3983 105.53 63.4728C105.959 65.5144 106.389 67.5474 106.69 69.5463C107.015 71.3946 107.196 73.2652 107.231 75.1413C107.117 78.603 105.891 81.9375 103.734 84.6572C102.574 86.1834 101.255 87.5836 99.7991 88.8343C99.0602 89.4921 98.287 90.1242 97.4793 90.7136C97.0755 91.004 96.6631 91.2944 96.2507 91.5678C95.8383 91.8411 95.3915 92.1401 95.0565 92.3451L96.9295 97.0177C97.6168 96.8126 98.1323 96.6333 98.7166 96.4197C99.3008 96.2062 99.8163 95.9755 100.366 95.7363C101.449 95.2494 102.514 94.7113 103.562 94.1133C105.684 92.877 107.646 91.3883 109.405 89.68C111.26 87.8743 112.814 85.7867 114.01 83.4955C115.244 81.0934 116.03 78.4886 116.33 75.8076C116.554 73.3468 116.554 70.8709 116.33 68.4102C116.132 66.1038 115.849 63.8487 115.47 61.6192C114.745 57.2003 113.77 52.8255 112.549 48.5156L102.669 51.1893Z" fill="#E4897B"/>
    <path d="M106.559 41.0484C113.39 42.2614 117.256 60.4133 117.256 60.4133L100.365 66.3928C99.5817 61.8215 99.5817 57.1515 100.365 52.5802C101.585 44.8752 100.073 39.8952 106.559 41.0484Z" fill="#407BFF"/>
    <path opacity="0.6" d="M106.559 41.0484C113.39 42.2614 117.256 60.4133 117.256 60.4133L100.365 66.3928C99.5817 61.8215 99.5817 57.1515 100.365 52.5802C101.585 44.8752 100.073 39.8952 106.559 41.0484Z" fill="white"/>
    <path d="M74.1187 40.2182L72.4948 40.5172C72.4272 40.5291 72.365 40.5619 72.3171 40.611C72.2693 40.6601 72.2383 40.7229 72.2285 40.7905C67.9326 65.033 70.7765 89.9674 70.7765 89.9674H72.5808C70.8624 63.5808 73.9468 43.6949 74.4795 40.5684C74.4893 40.5196 74.4867 40.4691 74.4719 40.4215C74.4571 40.3739 74.4305 40.3308 74.3947 40.296C74.3588 40.2612 74.3148 40.2358 74.2666 40.2223C74.2184 40.2087 74.1675 40.2073 74.1187 40.2182V40.2182Z" fill="#407BFF"/>
    <path opacity="0.1" d="M74.1187 40.2182L72.4948 40.5172C72.4272 40.5291 72.365 40.5619 72.3171 40.611C72.2693 40.6601 72.2383 40.7229 72.2285 40.7905C67.9326 65.033 70.7765 89.9674 70.7765 89.9674H72.5808C70.8624 63.5808 73.9468 43.6949 74.4795 40.5684C74.4893 40.5196 74.4867 40.4691 74.4719 40.4215C74.4571 40.3739 74.4305 40.3308 74.3947 40.296C74.3588 40.2612 74.3148 40.2358 74.2666 40.2223C74.2184 40.2087 74.1675 40.2073 74.1187 40.2182V40.2182Z" fill="white"/>
    <path d="M72.2595 90.536H71.0137C70.8602 90.536 70.7129 90.476 70.6036 90.3689C70.4943 90.2618 70.4317 90.1162 70.4295 89.9637V89.9637C70.4294 89.8111 70.4898 89.6646 70.5975 89.5559C70.7052 89.4472 70.8516 89.3851 71.0051 89.3828H72.2509C72.4052 89.385 72.5525 89.4469 72.6616 89.5554C72.7707 89.6638 72.8329 89.8103 72.8351 89.9637V89.9637C72.8363 90.0391 72.8222 90.1141 72.7937 90.1841C72.7652 90.254 72.7228 90.3176 72.6691 90.3709C72.6154 90.4243 72.5515 90.4664 72.4811 90.4948C72.4108 90.5231 72.3354 90.5372 72.2595 90.536V90.536Z" fill="#263238"/>
    <path d="M70.8901 92.0544V90.4314C70.8889 90.3324 70.9077 90.2341 70.9453 90.1424C70.9829 90.0507 71.0385 89.9674 71.109 89.8974C71.1794 89.8273 71.2632 89.772 71.3555 89.7346C71.4477 89.6973 71.5466 89.6786 71.6462 89.6797V89.6797C71.8475 89.6797 72.0407 89.7586 72.1839 89.8994C72.327 90.0401 72.4086 90.2313 72.4108 90.4314V92.0544C72.412 92.1527 72.3935 92.2503 72.3564 92.3415C72.3194 92.4326 72.2645 92.5155 72.195 92.5855C72.1254 92.6554 72.0426 92.7109 71.9514 92.7488C71.8601 92.7867 71.7622 92.8062 71.6634 92.8061V92.8061C71.4619 92.8041 71.269 92.7247 71.1249 92.5847C70.9808 92.4446 70.8967 92.2547 70.8901 92.0544V92.0544Z" fill="#263238"/>
    <path d="M96.362 260.613C95.933 260.716 95.4815 260.671 95.0818 260.485C94.9526 260.407 94.8464 260.296 94.774 260.164C94.7016 260.032 94.6655 259.884 94.6694 259.733C94.659 259.645 94.6727 259.556 94.709 259.475C94.7453 259.394 94.8028 259.324 94.8756 259.272C95.5371 258.802 97.771 259.733 98.0202 259.844C98.0472 259.855 98.0701 259.874 98.0856 259.899C98.101 259.923 98.1082 259.952 98.1061 259.981C98.1048 260.012 98.0953 260.041 98.0787 260.067C98.0621 260.092 98.0389 260.113 98.0116 260.126C97.48 260.345 96.9272 260.508 96.362 260.613V260.613ZM95.245 259.452C95.1746 259.458 95.1069 259.482 95.0474 259.52C95.0193 259.542 94.998 259.571 94.9858 259.604C94.9737 259.637 94.9712 259.673 94.9787 259.708C94.9752 259.81 94.9988 259.911 95.0471 260.001C95.0953 260.091 95.1666 260.166 95.2536 260.22C96.0182 260.434 96.8359 260.348 97.539 259.981C96.8169 259.656 96.0373 259.476 95.245 259.452Z" fill="#407BFF"/>
    <path d="M97.9669 260.134H97.8895C97.1764 259.878 95.7244 258.691 95.776 257.965C95.786 257.849 95.8345 257.74 95.9138 257.655C95.9932 257.57 96.0989 257.514 96.2141 257.495C96.326 257.462 96.4439 257.453 96.5596 257.469C96.6753 257.485 96.7861 257.526 96.8843 257.589C97.7005 258.076 98.0786 259.878 98.0957 259.955C98.1007 259.982 98.0986 260.009 98.0896 260.035C98.0805 260.06 98.0649 260.083 98.0442 260.1C98.0217 260.118 97.9951 260.13 97.9669 260.134V260.134ZM96.3516 257.76H96.2829C96.0939 257.82 96.0853 257.905 96.0853 257.948C96.0853 258.375 96.996 259.297 97.7177 259.656C97.587 258.945 97.239 258.292 96.7211 257.785C96.6068 257.738 96.4801 257.729 96.3602 257.76H96.3516Z" fill="#407BFF"/>
    <path d="M100.161 95.8206L98.185 92.25L92.7636 92.4379L88.5451 94.1463L85.6754 98.3491L93.0472 97.9049C93.0472 97.9049 97.5664 99.1776 100.161 95.8206Z" fill="#E4897B"/>
    <path d="M85.1864 42.7414L86.4837 41.8359L89.0698 44.3986L85.1864 42.7414Z" fill="#407BFF"/>
    <path opacity="0.4" d="M85.1864 42.7414L86.4837 41.8359L89.0698 44.3986L85.1864 42.7414Z" fill="white"/>
    <path d="M86.4876 41.8357C86.4876 41.8357 88.5926 44.9194 88.9449 47.1489C91.6341 46.0555 96.7376 43.322 97.5366 39.461C96.5829 39.1579 95.6753 38.7268 94.8388 38.1797C94.8388 38.1797 92.098 40.4348 86.4876 41.8357Z" fill="#407BFF"/>
    <path opacity="0.2" d="M86.4876 41.8357C86.4876 41.8357 88.5926 44.9194 88.9449 47.1489C91.6341 46.0555 96.7376 43.322 97.5366 39.461C96.5829 39.1579 95.6753 38.7268 94.8388 38.1797C94.8388 38.1797 92.098 40.4348 86.4876 41.8357Z" fill="white"/>
    <path d="M85.1919 42.7382L84.7108 41.6875L81.1452 44.3953L85.1919 42.7382Z" fill="#407BFF"/>
    <path opacity="0.4" d="M85.1919 42.7382L84.7108 41.6875L81.1452 44.3953L85.1919 42.7382Z" fill="white"/>
    <path d="M84.7085 41.6896C83.293 42.9978 82.3356 44.722 81.9763 46.6099C79.3988 45.5165 78.4623 41.9459 79.2355 39.5797C80.2556 39.1267 81.3212 38.7831 82.4145 38.5547C82.3433 39.2661 82.5377 39.9786 82.9608 40.5567C83.3838 41.1348 84.0058 41.538 84.7085 41.6896V41.6896Z" fill="#407BFF"/>
    <path opacity="0.2" d="M84.7085 41.6896C83.293 42.9978 82.3356 44.722 81.9763 46.6099C79.3988 45.5165 78.4623 41.9459 79.2355 39.5797C80.2556 39.1267 81.3212 38.7831 82.4145 38.5547C82.3433 39.2661 82.5377 39.9786 82.9608 40.5567C83.3838 41.1348 84.0058 41.538 84.7085 41.6896V41.6896Z" fill="white"/>
    <path d="M22.8342 67.1549L76.9366 65.25L84.7637 96.6935L30.6614 98.5983L22.8342 67.1549Z" fill="#407BFF"/>
    <path opacity="0.1" d="M22.8342 67.1549L76.9366 65.25L84.7637 96.6935L30.6614 98.5983L22.8342 67.1549Z" fill="white"/>
    <path d="M21.1768 67.1932L75.2705 65.2969L83.0977 96.7403L28.9953 98.6452L21.1768 67.1932Z" fill="#263238"/>
    <path d="M28.9961 98.6549L29.2195 100.397L83.3218 98.4926L83.0984 96.75L28.9961 98.6549Z" fill="#263238"/>
    <path d="M83.0962 96.751L83.3196 98.4936L104.55 97.7504L104.335 96.0078L83.0962 96.751Z" fill="#407BFF"/>
    <path opacity="0.1" d="M83.0962 96.751L83.3196 98.4936L104.55 97.7504L104.335 96.0078L83.0962 96.751Z" fill="white"/>
</svg>
