<svg width="247" height="291" viewBox="0 0 247 291" fill="none" xmlns="http://www.w3.org/2000/svg">
<path d="M123.5 290.708C191.707 290.708 247 286.471 247 281.245C247 276.018 191.707 271.781 123.5 271.781C55.2928 271.781 0 276.018 0 281.245C0 286.471 55.2928 290.708 123.5 290.708Z" fill="#F5F5F5"/>
<path d="M43.7337 183.543L43.0867 181.726C42.6417 180.477 41.786 179.416 40.6597 178.717C39.5333 178.017 38.203 177.721 36.8863 177.876L11.1195 180.89C9.57588 181.071 8.16742 181.858 7.20384 183.077C6.24026 184.297 5.80046 185.849 5.98119 187.392L13.3139 250.098C13.3748 250.622 13.5384 251.129 13.7956 251.591C14.0527 252.052 14.3982 252.458 14.8123 252.785C15.2264 253.113 15.7011 253.355 16.2091 253.499C16.717 253.643 17.2484 253.686 17.7728 253.624L109.971 242.841C110.496 242.781 111.004 242.618 111.467 242.362C111.929 242.105 112.336 241.76 112.665 241.346C112.994 240.931 113.237 240.456 113.382 239.948C113.526 239.439 113.569 238.907 113.508 238.382L107.145 184.174C107.022 183.115 106.484 182.149 105.649 181.488C104.814 180.827 103.75 180.525 102.692 180.647L49.1524 186.913C48.0013 187.046 46.839 186.785 45.855 186.173C44.871 185.561 44.1233 184.634 43.7337 183.543Z" fill="#407BFF"/>
<path d="M46.3078 156.273L17.1777 162.078L25.1754 202.212L54.3054 196.407L46.3078 156.273Z" fill="#407BFF"/>
<path opacity="0.7" d="M46.3078 156.273L17.1777 162.078L25.1754 202.212L54.3054 196.407L46.3078 156.273Z" fill="white"/>
<g opacity="0.4">
<path opacity="0.4" d="M42.4213 165.914L24.4778 169.494C24.0598 169.575 23.6266 169.488 23.2723 169.252C22.918 169.016 22.6712 168.649 22.5853 168.232C22.5042 167.814 22.5911 167.381 22.8273 167.027C23.0635 166.672 23.4299 166.426 23.847 166.34L41.8013 162.776C42.2193 162.695 42.6524 162.782 43.0067 163.018C43.361 163.254 43.6079 163.62 43.6937 164.037C43.7699 164.455 43.6792 164.885 43.4412 165.236C43.2033 165.587 42.837 165.83 42.4213 165.914Z" fill="#407BFF"/>
<path opacity="0.4" d="M43.743 172.558L25.7995 176.154C25.3823 176.234 24.9506 176.146 24.5975 175.91C24.2444 175.674 23.9984 175.309 23.9124 174.893C23.8329 174.476 23.9206 174.044 24.1566 173.691C24.3927 173.338 24.7582 173.092 25.1741 173.006L43.1176 169.431C43.5348 169.351 43.9666 169.439 44.3196 169.675C44.6727 169.911 44.9188 170.277 45.0047 170.693C45.0781 171.107 44.9874 171.533 44.7519 171.881C44.5164 172.229 44.1545 172.472 43.743 172.558Z" fill="#407BFF"/>
<path opacity="0.4" d="M45.0643 179.206L27.1208 182.781C26.7036 182.86 26.2719 182.773 25.9188 182.537C25.5657 182.301 25.3196 181.935 25.2337 181.519C25.1542 181.102 25.2419 180.67 25.4779 180.317C25.714 179.964 26.0794 179.718 26.4954 179.632L44.4389 176.052C44.8561 175.973 45.2879 176.06 45.6409 176.296C45.994 176.532 46.2401 176.898 46.326 177.314C46.4071 177.732 46.3202 178.165 46.084 178.519C45.8478 178.873 45.4814 179.12 45.0643 179.206Z" fill="#407BFF"/>
<path opacity="0.4" d="M46.3881 185.863L28.4446 189.438C28.0266 189.519 27.5934 189.432 27.2391 189.196C26.8848 188.96 26.638 188.594 26.5521 188.176C26.471 187.758 26.5579 187.325 26.7941 186.971C27.0303 186.617 27.3967 186.37 27.8138 186.284L45.7573 182.709C46.1753 182.628 46.6084 182.715 46.9627 182.951C47.317 183.188 47.5639 183.554 47.6498 183.971C47.7309 184.389 47.6439 184.822 47.4077 185.176C47.1715 185.531 46.8052 185.778 46.3881 185.863Z" fill="#407BFF"/>
<path opacity="0.4" d="M42.8054 193.448L29.7683 196.047C29.3511 196.127 28.9193 196.039 28.5663 195.803C28.2132 195.567 27.9671 195.201 27.8812 194.786C27.8001 194.368 27.887 193.934 28.1232 193.58C28.3594 193.226 28.7258 192.979 29.1429 192.893L42.1799 190.294C42.5971 190.215 43.0289 190.302 43.382 190.538C43.7351 190.775 43.9811 191.14 44.067 191.556C44.1482 191.974 44.0612 192.407 43.825 192.761C43.5888 193.116 43.2224 193.363 42.8054 193.448Z" fill="#407BFF"/>
</g>
<path d="M87.8134 148.54L58.3848 152.566L63.9316 193.112L93.3602 189.086L87.8134 148.54Z" fill="#407BFF"/>
<path opacity="0.7" d="M87.8134 148.54L58.3848 152.566L63.9316 193.112L93.3602 189.086L87.8134 148.54Z" fill="white"/>
<g opacity="0.4">
<path opacity="0.4" d="M83.3496 157.935L65.2228 160.415C64.8007 160.47 64.3737 160.357 64.0346 160.099C63.6954 159.842 63.4715 159.461 63.4112 159.04C63.3558 158.618 63.4691 158.191 63.7265 157.852C63.9839 157.513 64.3646 157.289 64.7861 157.228L82.9129 154.748C83.3351 154.693 83.762 154.806 84.1011 155.063C84.4403 155.321 84.6643 155.702 84.7245 156.123C84.7799 156.545 84.6666 156.972 84.4092 157.311C84.1518 157.65 83.7711 157.874 83.3496 157.935Z" fill="#407BFF"/>
<path opacity="0.4" d="M84.266 164.64L66.1391 167.12C65.717 167.176 65.29 167.063 64.9509 166.805C64.6117 166.548 64.3878 166.167 64.3275 165.746C64.2737 165.324 64.3877 164.899 64.6449 164.561C64.9022 164.223 65.282 164 65.7024 163.939L83.8292 161.459C84.2506 161.404 84.6768 161.516 85.0158 161.773C85.3548 162.029 85.5793 162.408 85.6408 162.829C85.6962 163.251 85.5829 163.678 85.3255 164.017C85.0681 164.356 84.6874 164.58 84.266 164.64Z" fill="#407BFF"/>
<path opacity="0.4" d="M72.0485 173.141L67.0558 173.826C66.6337 173.881 66.2067 173.768 65.8676 173.51C65.5285 173.253 65.3045 172.872 65.2442 172.451C65.1888 172.029 65.3021 171.602 65.5595 171.263C65.8169 170.923 66.1976 170.699 66.6191 170.639L71.6172 169.954C72.0385 169.901 72.464 170.015 72.802 170.272C73.1399 170.529 73.3631 170.909 73.4234 171.329C73.4788 171.751 73.3655 172.178 73.1081 172.518C72.8507 172.857 72.47 173.081 72.0485 173.141Z" fill="#407BFF"/>
<path opacity="0.4" d="M81.738 171.816L76.7399 172.501C76.3186 172.555 75.893 172.441 75.5551 172.183C75.2172 171.926 74.9939 171.546 74.9337 171.126C74.8783 170.704 74.9916 170.277 75.249 169.938C75.5064 169.599 75.8871 169.375 76.3085 169.314L81.3012 168.635C81.7226 168.579 82.1488 168.692 82.4878 168.948C82.8268 169.205 83.0513 169.584 83.1128 170.004C83.1682 170.427 83.0549 170.854 82.7975 171.193C82.5402 171.532 82.1594 171.756 81.738 171.816Z" fill="#407BFF"/>
<path opacity="0.4" d="M86.0951 178.048L67.9682 180.528C67.5461 180.583 67.1191 180.47 66.78 180.213C66.4409 179.955 66.2169 179.575 66.1566 179.153C66.1028 178.732 66.2168 178.306 66.474 177.968C66.7313 177.63 67.1111 177.407 67.5315 177.347L85.6583 174.861C86.0805 174.806 86.5074 174.919 86.8466 175.177C87.1857 175.434 87.4097 175.815 87.4699 176.236C87.5253 176.658 87.412 177.085 87.1546 177.425C86.8972 177.764 86.5165 177.988 86.0951 178.048Z" fill="#407BFF"/>
<path opacity="0.4" d="M82.0686 185.429L68.8914 187.229C68.4709 187.283 68.046 187.17 67.7082 186.914C67.3704 186.658 67.1467 186.279 67.0851 185.86C67.0297 185.439 67.1422 185.012 67.3985 184.673C67.6548 184.334 68.0341 184.11 68.4546 184.048L81.6319 182.248C82.0524 182.194 82.4772 182.307 82.815 182.563C83.1528 182.819 83.3766 183.198 83.4381 183.617C83.4936 184.038 83.381 184.465 83.1247 184.804C82.8685 185.143 82.4891 185.367 82.0686 185.429Z" fill="#407BFF"/>
</g>
<path d="M60.0467 154.453L30.4561 157.031L34.0085 197.8L63.5991 195.221L60.0467 154.453Z" fill="#407BFF"/>
<path opacity="0.8" d="M60.0467 154.453L30.4561 157.031L34.0085 197.8L63.5991 195.221L60.0467 154.453Z" fill="white"/>
<g opacity="0.4">
<path opacity="0.4" d="M55.1202 163.633L36.8909 165.219C36.4668 165.253 36.0462 165.119 35.7202 164.845C35.3942 164.572 35.1892 164.181 35.1494 163.757C35.1164 163.334 35.2511 162.915 35.5245 162.59C35.7978 162.265 36.1879 162.061 36.6106 162.021L54.8399 160.404C55.264 160.369 55.6846 160.503 56.0106 160.777C56.3365 161.05 56.5416 161.441 56.5814 161.865C56.6022 162.077 56.5808 162.291 56.5186 162.495C56.4563 162.699 56.3543 162.889 56.2185 163.053C56.0827 163.217 55.9158 163.353 55.7273 163.453C55.5388 163.552 55.3325 163.614 55.1202 163.633Z" fill="#407BFF"/>
<path opacity="0.4" d="M55.7066 170.376L37.4773 171.993C37.0532 172.028 36.6326 171.894 36.3066 171.62C35.9806 171.347 35.7755 170.956 35.7358 170.532C35.7013 170.108 35.8353 169.688 36.1088 169.362C36.3823 169.036 36.7733 168.831 37.1969 168.791L55.4262 167.173C55.8503 167.139 56.271 167.273 56.5969 167.546C56.9229 167.82 57.128 168.211 57.1677 168.634C57.2022 169.059 57.0682 169.479 56.7947 169.805C56.5212 170.131 56.1302 170.336 55.7066 170.376Z" fill="#407BFF"/>
<path opacity="0.4" d="M56.2974 177.114L38.0681 178.732C37.644 178.766 37.2234 178.632 36.8974 178.359C36.5714 178.085 36.3663 177.694 36.3266 177.271C36.2921 176.846 36.4262 176.426 36.6997 176.1C36.9732 175.774 37.3641 175.569 37.7878 175.529L56.017 173.912C56.4412 173.877 56.8618 174.011 57.1878 174.285C57.5137 174.558 57.7188 174.949 57.7586 175.373C57.793 175.797 57.659 176.217 57.3855 176.543C57.112 176.869 56.7211 177.074 56.2974 177.114Z" fill="#407BFF"/>
<path opacity="0.4" d="M56.8912 183.851L38.6619 185.469C38.2378 185.503 37.8171 185.369 37.4912 185.096C37.1652 184.822 36.9601 184.431 36.9204 184.008C36.8859 183.584 37.0199 183.163 37.2934 182.837C37.5669 182.511 37.9578 182.306 38.3815 182.266L56.6108 180.681C57.0349 180.647 57.4555 180.781 57.7815 181.054C58.1075 181.328 58.3126 181.719 58.3523 182.142C58.378 182.561 58.2399 182.973 57.9673 183.292C57.6947 183.611 57.3088 183.812 56.8912 183.851Z" fill="#407BFF"/>
<path opacity="0.4" d="M52.4928 191.028L39.2454 192.182C38.8187 192.221 38.3939 192.089 38.0643 191.815C37.7348 191.541 37.5274 191.148 37.4877 190.721C37.4533 190.297 37.5873 189.876 37.8608 189.55C38.1343 189.224 38.5252 189.019 38.9489 188.979L52.1963 187.826C52.6204 187.791 53.041 187.925 53.367 188.199C53.693 188.472 53.898 188.863 53.9378 189.287C53.9725 189.708 53.8406 190.127 53.5705 190.452C53.3004 190.778 52.9135 190.985 52.4928 191.028Z" fill="#407BFF"/>
</g>
<path d="M96.1019 152.48L66.4336 153.91L68.4041 194.786L98.0725 193.355L96.1019 152.48Z" fill="#407BFF"/>
<path opacity="0.8" d="M96.1019 152.48L66.4336 153.91L68.4041 194.786L98.0725 193.355L96.1019 152.48Z" fill="white"/>
<g opacity="0.4">
<path opacity="0.4" d="M90.8281 161.444L72.5557 162.328C72.1311 162.346 71.7165 162.196 71.4017 161.91C71.087 161.624 70.8972 161.227 70.8735 160.802C70.8558 160.378 71.006 159.963 71.2915 159.648C71.577 159.333 71.975 159.144 72.3993 159.12L90.6771 158.236C91.1017 158.218 91.5163 158.368 91.8311 158.654C92.1458 158.939 92.3356 159.337 92.3593 159.762C92.3769 160.187 92.226 160.602 91.9394 160.917C91.6527 161.232 91.2534 161.421 90.8281 161.444Z" fill="#407BFF"/>
<path opacity="0.4" d="M91.1567 168.203L72.8789 169.082C72.4543 169.1 72.0398 168.949 71.725 168.664C71.4102 168.378 71.2204 167.98 71.1967 167.556C71.1791 167.131 71.33 166.715 71.6167 166.4C71.9033 166.085 72.3026 165.896 72.7279 165.874L91.0003 164.99C91.4259 164.972 91.8411 165.123 92.1561 165.41C92.471 165.696 92.6602 166.096 92.6826 166.521C92.7002 166.946 92.55 167.36 92.2645 167.675C91.979 167.99 91.581 168.179 91.1567 168.203Z" fill="#407BFF"/>
<path opacity="0.4" d="M78.2448 175.625L73.209 175.868C72.7844 175.885 72.3699 175.735 72.0551 175.45C71.7403 175.164 71.5505 174.766 71.5268 174.342C71.5091 173.917 71.6593 173.503 71.9448 173.188C72.2304 172.873 72.6283 172.683 73.0526 172.66L78.0885 172.412C78.514 172.394 78.9293 172.545 79.2442 172.832C79.5592 173.118 79.7483 173.517 79.7707 173.943C79.7883 174.367 79.6382 174.782 79.3526 175.097C79.0671 175.412 78.6692 175.601 78.2448 175.625Z" fill="#407BFF"/>
<path opacity="0.4" d="M88.0085 175.124L82.9727 175.366C82.548 175.384 82.1335 175.234 81.8187 174.948C81.5039 174.663 81.3142 174.265 81.2905 173.84C81.2728 173.416 81.423 173.001 81.7085 172.686C81.994 172.372 82.392 172.182 82.8163 172.158L87.8521 171.915C88.2768 171.898 88.6913 172.048 89.0061 172.333C89.3209 172.619 89.5106 173.017 89.5343 173.441C89.552 173.866 89.4018 174.28 89.1163 174.595C88.8308 174.91 88.4328 175.1 88.0085 175.124Z" fill="#407BFF"/>
<path opacity="0.4" d="M91.809 181.719L73.5312 182.598C73.1066 182.615 72.6921 182.465 72.3773 182.18C72.0625 181.894 71.8728 181.496 71.849 181.072C71.8314 180.646 71.9823 180.231 72.269 179.916C72.5557 179.601 72.955 179.412 73.3803 179.39L91.6527 178.505C92.0782 178.488 92.4935 178.639 92.8084 178.925C93.1234 179.212 93.3125 179.611 93.3349 180.037C93.3526 180.461 93.2024 180.876 92.9169 181.19C92.6313 181.505 92.2334 181.695 91.809 181.719Z" fill="#407BFF"/>
<path opacity="0.4" d="M87.1381 188.717L73.8584 189.359C73.4338 189.377 73.0193 189.226 72.7045 188.941C72.3897 188.655 72.1999 188.257 72.1762 187.833C72.1585 187.408 72.3087 186.994 72.5942 186.679C72.8798 186.364 73.2777 186.175 73.702 186.151L86.9818 185.509C87.4064 185.492 87.8209 185.642 88.1357 185.927C88.4505 186.213 88.6402 186.611 88.664 187.035C88.6816 187.46 88.5315 187.874 88.2459 188.189C87.9604 188.504 87.5625 188.694 87.1381 188.717Z" fill="#407BFF"/>
</g>
<path d="M51.9633 184.703L51.4888 182.929C51.1564 181.701 50.3846 180.639 49.32 179.943C48.2553 179.247 46.9722 178.967 45.7143 179.155L19.9475 182.169C18.3843 182.36 16.9446 183.116 15.8984 184.293C14.8522 185.47 14.2713 186.988 14.2646 188.563L15.7258 249.948C15.7345 250.453 15.8514 250.951 16.0685 251.408C16.2857 251.864 16.5981 252.269 16.9848 252.595C17.3714 252.921 17.8234 253.16 18.3102 253.297C18.7971 253.434 19.3075 253.465 19.8073 253.388L112.005 242.604C113.076 242.474 114.062 241.959 114.78 241.154C115.497 240.349 115.897 239.31 115.903 238.231L114.642 185.167C114.632 184.661 114.515 184.163 114.297 183.706C114.079 183.249 113.766 182.845 113.379 182.519C112.992 182.193 112.54 181.954 112.053 181.817C111.565 181.681 111.055 181.65 110.555 181.727L57.0207 187.986C55.9218 188.154 54.7995 187.912 53.8671 187.307C52.9347 186.702 52.2572 185.775 51.9633 184.703Z" fill="#407BFF"/>
<path opacity="0.3" d="M51.9633 184.703L51.4888 182.929C51.1564 181.701 50.3846 180.639 49.32 179.943C48.2553 179.247 46.9722 178.967 45.7143 179.155L19.9475 182.169C18.3843 182.36 16.9446 183.116 15.8984 184.293C14.8522 185.47 14.2713 186.988 14.2646 188.563L15.7258 249.948C15.7345 250.453 15.8514 250.951 16.0685 251.408C16.2857 251.864 16.5981 252.269 16.9848 252.595C17.3714 252.921 17.8234 253.16 18.3102 253.297C18.7971 253.434 19.3075 253.465 19.8073 253.388L112.005 242.604C113.076 242.474 114.062 241.959 114.78 241.154C115.497 240.349 115.897 239.31 115.903 238.231L114.642 185.167C114.632 184.661 114.515 184.163 114.297 183.706C114.079 183.249 113.766 182.845 113.379 182.519C112.992 182.193 112.54 181.954 112.053 181.817C111.565 181.681 111.055 181.65 110.555 181.727L57.0207 187.986C55.9218 188.154 54.7995 187.912 53.8671 187.307C52.9347 186.702 52.2572 185.775 51.9633 184.703Z" fill="black"/>
<path d="M137.157 69.7729C136.471 73.2096 135.74 76.6001 134.915 79.9627C134.091 83.3253 133.285 86.725 132.386 90.0876L131.015 95.1177L130.839 95.7661C130.756 96.0441 130.663 96.322 130.552 96.6091C130.315 97.2397 130.004 97.8398 129.626 98.397C129.166 99.0892 128.578 99.6867 127.893 100.157C127.139 100.668 126.271 100.987 125.364 101.083C123.993 101.183 122.621 100.891 121.409 100.24C120.488 99.7393 119.625 99.1398 118.834 98.4526C117.402 97.2008 116.135 95.772 115.063 94.2006L117.704 91.9033C118.964 92.8836 120.295 93.7692 121.687 94.5526C122.291 94.8953 122.931 95.1718 123.595 95.3771C124.16 95.5624 124.66 95.5346 124.66 95.4419C124.66 95.3493 124.568 95.4419 124.521 95.4419C124.475 95.4419 124.521 95.4419 124.521 95.2844C124.521 95.127 124.633 94.9602 124.697 94.7194L124.911 93.6911L125.985 88.6333L128.162 78.5176C128.866 75.1457 129.626 71.7645 130.357 68.4297L137.157 69.7729Z" fill="#FFC3BD"/>
<path d="M134.08 59.1874C126.179 65.2364 126.503 76.6397 126.503 76.6397L140.63 80.0209C140.63 80.0209 144.974 68.5527 143.214 64.3564C141.38 59.984 138.536 55.7784 134.08 59.1874Z" fill="#263238"/>
<path d="M118.405 92.0484L113.208 86.8516L110.429 94.9849C110.429 94.9849 114.82 97.3471 119.016 95.1146L118.405 92.0484Z" fill="#FFC3BD"/>
<path d="M106.009 86.0508L105.055 92.4796L110.4 94.99L113.207 86.8567L106.009 86.0508Z" fill="#FFC3BD"/>
<path d="M179.879 274.269L171.93 275.047L163.658 256.122L171.606 255.344L179.879 274.269Z" fill="#FFC3BD"/>
<path d="M231.087 246.297L225.112 251.901L212.227 237.737L218.201 232.133L231.087 246.297Z" fill="#FFC3BD"/>
<path d="M222.381 249.216L226.864 241.138C226.94 240.996 227.064 240.887 227.214 240.831C227.364 240.775 227.53 240.775 227.68 240.832L234.581 243.463C234.751 243.535 234.905 243.642 235.031 243.777C235.158 243.912 235.254 244.072 235.314 244.247C235.375 244.421 235.398 244.607 235.381 244.791C235.365 244.976 235.31 245.154 235.22 245.316C233.608 248.095 232.691 249.373 230.718 252.93C229.505 255.117 227.142 260.128 225.466 263.12C223.789 266.112 220.714 264.649 221.14 263.241C223.057 256.923 222.696 253.412 222.159 250.633C222.067 250.149 222.145 249.648 222.381 249.216Z" fill="#263238"/>
<path d="M170.871 272.598H180.635C180.811 272.598 180.981 272.657 181.12 272.764C181.259 272.871 181.359 273.021 181.404 273.191L183.525 280.907C183.577 281.09 183.586 281.281 183.551 281.467C183.515 281.654 183.437 281.829 183.322 281.979C183.206 282.13 183.058 282.251 182.887 282.333C182.717 282.416 182.529 282.457 182.34 282.454C178.894 282.454 177.263 282.454 172.974 282.454H159.857C156.282 282.454 155.54 278.851 157.013 278.517C163.637 277.054 167.444 275.034 169.491 273.108C169.871 272.77 170.364 272.588 170.871 272.598Z" fill="#263238"/>
<path opacity="0.2" d="M163.666 256.13L167.927 265.884H176.218L171.614 255.352L163.666 256.13Z" fill="black"/>
<path opacity="0.2" d="M218.201 232.141L212.227 237.745L218.878 245.045L224.853 239.431L218.201 232.141Z" fill="black"/>
<path d="M136.466 58.0221C136.466 58.0221 132.89 59.5876 144.877 107.016L178.17 104.136C176.447 90.6387 175.706 82.283 179.773 53.9091C175.03 53.3481 170.253 53.1345 165.479 53.2699C160.415 53.3457 155.363 53.7822 150.361 54.576C145.674 55.4887 141.036 56.6388 136.466 58.0221Z" fill="#263238"/>
<path d="M165.479 53C165.479 53 167.331 53 169.592 53C170.935 55.0658 166.581 64.1162 159.402 70.0355C158.309 66.7447 156.3 63.8335 153.612 61.6428L165.479 53Z" fill="white"/>
<path d="M150.364 54.4609C150.364 54.4609 149.521 54.5814 147.511 55.0445C146.167 57.1103 143.898 65.9384 147.853 70.4404C148.849 67.0264 150.847 63.9898 153.587 61.7235L150.364 54.4609Z" fill="white"/>
<path d="M162.505 36.3828C161.977 41.3295 161.792 50.278 165.478 53.2794C165.478 53.2794 161.541 57.2997 153.584 61.7276C147.795 57.7258 150.361 54.5855 150.361 54.5855C155.668 52.8254 155.177 48.8144 153.908 45.109L162.505 36.3828Z" fill="#FFC3BD"/>
<path d="M153.449 61.7405C153.449 61.7405 158.331 56.4233 160.86 57.4423C163.389 58.4612 161.434 60.2861 161.212 61.9999C160.99 63.7136 162.194 68.2712 158.813 67.0855C155.432 65.8998 153.449 61.7405 153.449 61.7405Z" fill="#407BFF"/>
<path d="M153.248 61.6423C153.248 61.6423 150.941 57.5664 148.449 58.1129C145.958 58.6595 147.44 60.0861 147.662 61.6238C147.949 63.5876 145.874 67.3671 148.876 66.2555C151.877 65.1439 153.248 61.6423 153.248 61.6423Z" fill="#407BFF"/>
<g opacity="0.2">
<path opacity="0.2" d="M151.971 60.7621C151.938 61.5839 152.096 62.4022 152.434 63.152C152.741 62.6732 153.01 62.1715 153.24 61.6514C152.898 61.0706 152.504 60.5218 152.064 60.0117C151.987 60.2541 151.956 60.5084 151.971 60.7621Z" fill="black"/>
<path opacity="0.2" d="M155.22 60.0273C154.174 60.9537 153.451 61.7503 153.451 61.7503C153.72 62.3065 154.03 62.8421 154.378 63.3529C154.937 62.7916 155.267 62.0419 155.304 61.2501C155.393 60.8429 155.364 60.4188 155.22 60.0273Z" fill="black"/>
</g>
<path d="M153.389 63.4136C152.694 63.4136 152.268 62.6632 152.222 60.8754C152.176 59.0875 153.547 60.0787 153.547 60.0787C153.547 60.0787 155.399 59.1524 155.066 61.2922C154.825 62.9874 154.102 63.4136 153.389 63.4136Z" fill="#407BFF"/>
<path opacity="0.2" d="M159.007 39.9453L153.921 45.1051C154.226 45.9642 154.458 46.8473 154.616 47.7452C156.663 47.2727 159.627 45.1421 159.655 42.9559C159.622 41.9215 159.402 40.9016 159.007 39.9453Z" fill="black"/>
<path d="M154.641 19.6602C154.641 19.6602 149.083 27.3581 148.157 30.7763C144.377 32.981 143.618 22.1335 145.619 15.4453C151.862 19.3638 154.641 19.6602 154.641 19.6602Z" fill="#263238"/>
<path d="M166.859 28.6443C164.794 36.546 164.08 39.9364 159.245 43.2435C151.955 48.2272 142.7 43.966 142.358 35.6011C142.052 28.0792 145.479 16.4165 153.937 14.7769C155.801 14.3985 157.73 14.5047 159.541 15.0852C161.352 15.6657 162.984 16.7011 164.281 18.0925C165.577 19.4838 166.495 21.1845 166.947 23.032C167.398 24.8794 167.368 26.8118 166.859 28.6443Z" fill="#FFC3BD"/>
<path d="M171.158 25.4922C171.158 25.4922 167.184 31.9303 166.646 34.7556C163.766 36.7102 162.552 28.1322 163.766 22.7131C165.09 17.8869 171.158 25.4922 171.158 25.4922Z" fill="#263238"/>
<path d="M169.573 21.019C168.425 21.8898 167.211 18.6754 168.351 16.2113C166.155 16.3503 163.515 15.0441 164.08 12.9228C159.754 14.3771 158.151 9.977 158.652 6.92932C159.254 3.22393 162.478 2.43654 164.377 3.4092C164.377 1.75104 168.564 -1.70423 170.157 1.0007C173.112 -0.0460686 177.873 0.278152 177.771 3.90943C179.726 3.96501 185.497 6.17898 183.33 11.3202C185.877 11.4684 187.257 14.7014 185.84 17.1469C186.398 17.4426 186.877 17.8684 187.236 18.3882C187.595 18.908 187.824 19.5066 187.903 20.1335C187.982 20.7603 187.909 21.397 187.69 21.9896C187.472 22.5823 187.113 23.1136 186.646 23.5387C187.822 25.9843 184.256 29.6248 182.357 29.1894C180.912 31.4034 178.698 33.0708 177.253 31.1811C174.474 33.2283 171.278 30.6252 171.991 28.6243C168.842 28.1426 165.627 22.8903 169.573 21.019Z" fill="#263238"/>
<path d="M174.283 13.2398C176.358 16.7043 176.182 20.6506 173.903 21.9938C171.624 23.337 168.077 21.6695 166.002 18.205C163.926 14.7405 164.093 10.7942 166.381 9.45104C168.669 8.10784 172.208 9.78453 174.283 13.2398Z" fill="#407BFF"/>
<path d="M155.016 18.7299C154.896 19.7211 152.163 19.4617 151.375 17.7109C150.245 18.8966 147.587 19.508 146.679 18.2204C145.141 21.1106 142.047 20.351 141.25 18.9707C140.454 17.5905 139.926 15.0245 141.528 14.515C140.602 13.7184 140.88 9.96666 143.307 10.4391C144.326 8.43819 147.114 6.16864 149.152 7.93796C150.264 7.01161 154.71 5.08481 156.507 8.61419C156.902 8.34484 157.352 8.16833 157.824 8.09793C158.296 8.02752 158.778 8.06506 159.234 8.20771C159.689 8.35035 160.106 8.5944 160.454 8.92152C160.802 9.24864 161.071 9.65031 161.241 10.0963C164.122 9.346 165.373 11.5322 165.363 12.7179C167.41 13.2737 167.549 16.8124 166.29 17.572C166.781 19.3598 166.521 21.2773 164.641 21.1106C164.279 23.5191 161.056 23.8896 160.296 22.5835C158.203 23.9267 153.932 21.5923 155.016 18.7299Z" fill="#263238"/>
<path d="M150.124 11.8905C152.468 8.64826 161.018 7.25874 168.419 12.1591C175.089 16.5407 174.654 26.7213 169.346 26.1747C164.038 25.6282 158.795 19.4124 158.795 19.4124L150.124 11.8905Z" fill="#263238"/>
<path d="M167.513 35.7813C166.774 37.1743 165.516 38.2196 164.011 38.69C162.001 39.2921 160.963 37.5136 161.482 35.596C161.955 33.873 163.557 31.483 165.586 31.7239C166.028 31.7827 166.449 31.9513 166.81 32.2142C167.171 32.4771 167.46 32.8261 167.651 33.2293C167.843 33.6325 167.93 34.0772 167.906 34.5229C167.882 34.9686 167.747 35.4012 167.513 35.7813Z" fill="#FFC3BD"/>
<path d="M144.88 107.013C144.88 107.013 133.616 156.85 141.174 191.986C146.214 215.515 164.333 263.046 164.333 263.046L178.543 262.685C178.543 262.685 164.787 212.801 161.943 193.209C157.08 159.657 169.261 104.938 169.261 104.938L144.88 107.013Z" fill="#407BFF"/>
<path opacity="0.2" d="M157.869 117.086L164.946 128.285C162.806 141.565 161.449 154.958 160.879 168.396C150.921 150.518 155.682 126.544 157.869 117.086Z" fill="black"/>
<path d="M162.335 263.797L179.88 263.343L178.87 257.961L160.964 258.804L162.335 263.797Z" fill="#263238"/>
<path d="M152.158 106.497C152.158 106.497 158.763 159.345 173.094 188.201C184.664 211.508 215.539 244.708 215.539 244.708L223.431 236.575C223.431 236.575 202.579 200.521 193.983 185.042C172.89 147.062 190.129 118.113 178.17 104.172L152.158 106.497Z" fill="#407BFF"/>
<path d="M214.741 245.769L224.931 235.838L221.55 231.234L210.739 242.017L214.741 245.769Z" fill="#263238"/>
<path d="M178.507 102.151L180.267 105.005C180.406 105.218 180.147 105.477 179.767 105.514L144.844 108.534C144.547 108.534 144.288 108.432 144.251 108.247L143.695 105.292C143.649 105.088 143.899 104.893 144.223 104.866L177.942 101.948C178.046 101.928 178.153 101.937 178.252 101.973C178.352 102.008 178.44 102.07 178.507 102.151Z" fill="#407BFF"/>
<path opacity="0.5" d="M178.507 102.151L180.267 105.005C180.406 105.218 180.147 105.477 179.767 105.514L144.844 108.534C144.547 108.534 144.288 108.432 144.251 108.247L143.695 105.292C143.649 105.088 143.899 104.893 144.223 104.866L177.942 101.948C178.046 101.928 178.153 101.937 178.252 101.973C178.352 102.008 178.44 102.07 178.507 102.151Z" fill="white"/>
<path d="M174.303 106.304L175.229 106.23C175.405 106.23 175.535 106.109 175.516 105.998L174.757 102.163C174.757 102.043 174.571 101.969 174.386 101.987L173.46 102.061C173.275 102.061 173.145 102.182 173.173 102.293L173.932 106.128C173.96 106.239 174.127 106.322 174.303 106.304Z" fill="#407BFF"/>
<path d="M147.406 108.633L148.333 108.559C148.509 108.559 148.638 108.439 148.62 108.328L147.86 104.493C147.827 104.426 147.772 104.373 147.705 104.341C147.638 104.309 147.562 104.3 147.49 104.317L146.563 104.391C146.378 104.391 146.248 104.511 146.276 104.622L147.036 108.457C147.064 108.587 147.23 108.652 147.406 108.633Z" fill="#407BFF"/>
<path d="M160.862 107.477L161.788 107.394C161.974 107.394 162.103 107.273 162.075 107.162L161.316 103.327C161.316 103.216 161.131 103.132 160.955 103.151L160.028 103.234C159.852 103.234 159.722 103.355 159.741 103.466L160.501 107.301C160.519 107.412 160.677 107.486 160.862 107.477Z" fill="#407BFF"/>
<path d="M153.483 28.3827C153.354 29.0311 152.909 29.4943 152.483 29.411C152.057 29.3276 151.816 28.7255 151.936 28.077C152.057 27.4286 152.52 26.9654 152.946 27.0488C153.372 27.1321 153.613 27.725 153.483 28.3827Z" fill="#263238"/>
<path d="M146.106 26.9189C146.234 26.2663 145.992 25.6693 145.565 25.5854C145.139 25.5016 144.689 25.9626 144.56 26.6152C144.432 27.2678 144.674 27.8649 145.101 27.9487C145.527 28.0326 145.977 27.5715 146.106 26.9189Z" fill="#263238"/>
<path d="M145.773 25.6815L144.291 24.9219C144.291 24.9219 144.856 26.3021 145.773 25.6815Z" fill="#263238"/>
<path d="M148.651 28.5586C147.783 29.9323 146.729 31.1793 145.52 32.264C145.8 32.5734 146.146 32.8169 146.532 32.977C146.918 33.1372 147.335 33.21 147.752 33.1903L148.651 28.5586Z" fill="#ED847E"/>
<path d="M150.762 36.2437C152.13 36.2582 153.454 35.7553 154.467 34.8356C154.487 34.821 154.503 34.8022 154.514 34.7806C154.526 34.759 154.533 34.7351 154.534 34.7107C154.535 34.6862 154.531 34.6618 154.522 34.6391C154.513 34.6164 154.499 34.596 154.481 34.5794C154.463 34.5627 154.441 34.5503 154.418 34.5429C154.394 34.5355 154.37 34.5334 154.345 34.5366C154.321 34.5399 154.298 34.5484 154.277 34.5617C154.257 34.5749 154.239 34.5925 154.226 34.6133C153.603 35.163 152.858 35.5577 152.053 35.7654C151.249 35.973 150.406 35.9877 149.594 35.8083C149.574 35.8043 149.552 35.8045 149.532 35.8089C149.511 35.8133 149.492 35.8218 149.474 35.8339C149.457 35.846 149.442 35.8615 149.431 35.8793C149.42 35.8972 149.413 35.9172 149.409 35.938C149.404 35.9588 149.403 35.9805 149.407 36.0017C149.41 36.0229 149.419 36.043 149.431 36.0607C149.443 36.0783 149.459 36.093 149.478 36.1038C149.497 36.1146 149.517 36.1213 149.539 36.1233C149.941 36.2076 150.351 36.248 150.762 36.2437Z" fill="#263238"/>
<path d="M157.903 25.8555C157.962 25.8546 158.019 25.8386 158.07 25.8092C158.144 25.7649 158.197 25.6932 158.218 25.6099C158.239 25.5265 158.225 25.4383 158.181 25.3645C157.875 24.844 157.449 24.4043 156.938 24.082C156.427 23.7597 155.846 23.5642 155.245 23.5119C155.202 23.5106 155.16 23.5178 155.12 23.5329C155.08 23.5481 155.044 23.571 155.013 23.6002C154.982 23.6295 154.957 23.6645 154.939 23.7034C154.922 23.7423 154.912 23.7842 154.911 23.8268C154.91 23.8694 154.917 23.9118 154.932 23.9516C154.948 23.9914 154.97 24.0278 155 24.0588C155.029 24.0898 155.064 24.1147 155.103 24.1321C155.142 24.1495 155.184 24.1591 155.226 24.1603C155.723 24.215 156.2 24.3871 156.617 24.6626C157.034 24.938 157.38 25.3089 157.625 25.7444C157.659 25.7838 157.702 25.8146 157.751 25.8339C157.799 25.8533 157.852 25.8607 157.903 25.8555Z" fill="#263238"/>
<path d="M144.087 23.2371C144.139 23.249 144.192 23.249 144.244 23.2371C144.675 22.9824 145.159 22.8329 145.658 22.8008C146.157 22.7686 146.656 22.8546 147.116 23.0518C147.191 23.0832 147.275 23.0852 147.352 23.0573C147.428 23.0294 147.492 22.9737 147.529 22.9014C147.566 22.829 147.575 22.7452 147.553 22.6667C147.532 22.5881 147.481 22.5206 147.412 22.4775C146.858 22.2262 146.25 22.1126 145.642 22.1465C145.034 22.1803 144.443 22.3606 143.92 22.672C143.847 22.7147 143.794 22.784 143.771 22.8653C143.749 22.9466 143.759 23.0334 143.8 23.1074C143.831 23.1531 143.875 23.1893 143.925 23.2121C143.976 23.235 144.032 23.2436 144.087 23.2371Z" fill="#263238"/>
<path d="M181.188 61.4844C181.818 62.0958 182.253 62.5775 182.744 63.124C183.235 63.6705 183.67 64.2078 184.115 64.7544C184.995 65.8567 185.838 66.9869 186.625 68.1448C188.191 70.4793 189.579 72.9287 190.775 75.4722C191.97 78.0276 192.934 80.6844 193.656 83.411C194.018 84.7727 194.342 86.19 194.583 87.5517C195.042 89.5191 194.817 91.5844 193.944 93.4062C193.435 94.3632 192.731 95.2027 191.878 95.8703C191.138 96.4395 190.324 96.9069 189.46 97.2598C187.973 97.8333 186.415 98.2011 184.828 98.3529C182.013 98.6234 179.178 98.5861 176.371 98.2418C170.997 97.6169 165.694 96.4911 160.53 94.8791L161.383 91.5165C163.902 91.9334 166.496 92.3224 169.053 92.5911C171.609 92.8597 174.185 93.1006 176.714 93.1561C179.163 93.2444 181.616 93.1079 184.041 92.7485C185.085 92.5787 186.101 92.267 187.061 91.8222C187.649 91.5996 188.134 91.1674 188.423 90.6087C188.5 90.3951 188.538 90.169 188.534 89.9417C188.547 89.7752 188.547 89.608 188.534 89.4415C188.534 89.2562 188.469 89.0895 188.386 88.7467C188.126 87.5517 187.783 86.3753 187.413 85.2081C186.659 82.8809 185.73 80.6141 184.634 78.4272C183.533 76.2275 182.269 74.1127 180.854 72.1003C180.16 71.0813 179.428 70.0901 178.668 69.136C178.288 68.6543 177.89 68.2096 177.501 67.7372C177.112 67.2648 176.667 66.8109 176.362 66.4774L181.188 61.4844Z" fill="#FFC3BD"/>
<path d="M163.504 92.0227L157.019 88.5859L156.723 97.1732C156.723 97.1732 161.354 97.4696 164.004 95.3205L163.504 92.0227Z" fill="#FFC3BD"/>
<path d="M152.132 138.236L157.486 80.0519L146.045 71.2886L111.122 68.0742L105.055 133.9L152.132 138.236Z" fill="#407BFF"/>
<path opacity="0.8" d="M152.132 138.236L157.486 80.0519L146.045 71.2886L111.122 68.0742L105.055 133.9L152.132 138.236Z" fill="white"/>
<path d="M157.482 80.0523L146.042 71.2891L149.043 81.7753L157.482 80.0523Z" fill="#407BFF"/>
<path d="M109.15 144.059C117.028 144.059 123.415 137.672 123.415 129.793C123.415 121.914 117.028 115.527 109.15 115.527C101.271 115.527 94.8838 121.914 94.8838 129.793C94.8838 137.672 101.271 144.059 109.15 144.059Z" fill="#407BFF"/>
<path d="M116.199 138.714C121.128 134.82 121.967 127.666 118.073 122.736C114.178 117.807 107.025 116.968 102.095 120.862C97.1653 124.757 96.3262 131.91 100.221 136.84C104.115 141.77 111.269 142.609 116.199 138.714Z" fill="white"/>
<path d="M116.182 128.804L111.161 128.22L111.745 123.2L108.151 122.773L107.567 127.794L102.546 127.201L102.12 130.805L107.141 131.398L106.548 136.409L110.152 136.835L110.735 131.815L115.756 132.407L116.182 128.804Z" fill="#407BFF"/>
<path opacity="0.4" d="M148.946 92.1093C148.899 92.6185 148.753 93.1135 148.515 93.5661C148.277 94.0187 147.952 94.4199 147.559 94.7469C147.166 95.0738 146.712 95.32 146.224 95.4715C145.735 95.6229 145.222 95.6765 144.713 95.6294L119.238 93.2857C118.211 93.1894 117.263 92.6898 116.603 91.8963C115.944 91.1028 115.625 90.0801 115.718 89.0523C115.764 88.5431 115.911 88.048 116.149 87.5955C116.387 87.1429 116.712 86.7416 117.105 86.4147C117.498 86.0878 117.952 85.8416 118.44 85.6901C118.929 85.5387 119.442 85.485 119.951 85.5322L145.426 87.8759C145.935 87.9224 146.43 88.0688 146.883 88.3068C147.335 88.5448 147.737 88.8697 148.063 89.2629C148.39 89.656 148.637 90.1098 148.788 90.5982C148.939 91.0866 148.993 91.6001 148.946 92.1093Z" fill="#407BFF"/>
<path opacity="0.4" d="M140.267 102.628C140.22 103.137 140.074 103.632 139.836 104.085C139.598 104.537 139.273 104.939 138.88 105.266C138.487 105.592 138.033 105.839 137.544 105.99C137.056 106.142 136.543 106.195 136.033 106.148L118.229 104.508C117.72 104.462 117.225 104.315 116.772 104.077C116.32 103.839 115.918 103.515 115.591 103.121C115.265 102.728 115.018 102.274 114.867 101.786C114.715 101.298 114.662 100.784 114.709 100.275C114.755 99.7658 114.902 99.2707 115.14 98.8181C115.378 98.3655 115.703 97.9643 116.096 97.6374C116.489 97.3104 116.943 97.0642 117.431 96.9128C117.92 96.7614 118.433 96.7077 118.942 96.7549L136.747 98.4038C137.772 98.5001 138.718 98.9985 139.378 99.7899C140.037 100.581 140.357 101.602 140.267 102.628Z" fill="#407BFF"/>
<path d="M153.06 89.0954L154.032 95.515L156.719 97.1732L157.015 88.5859L153.06 89.0954Z" fill="#FFC3BD"/>
<path d="M179.767 53.9308C183.852 54.6534 189.577 66.3624 189.577 66.3624L179.285 75.6259C179.285 75.6259 171.096 66.6959 171.531 61.3787C171.911 56.8859 174.579 53.0045 179.767 53.9308Z" fill="#263238"/>
<path d="M220.785 253.556C220.891 253.554 220.997 253.539 221.1 253.51C222.082 253.176 222.721 251.37 223.017 250.323C223.023 250.293 223.021 250.262 223.012 250.232C223.002 250.203 222.985 250.177 222.962 250.156C222.937 250.136 222.906 250.125 222.874 250.125C222.842 250.125 222.81 250.136 222.786 250.156C222.489 250.305 219.877 251.703 219.794 252.732C219.781 252.844 219.801 252.957 219.85 253.059C219.899 253.16 219.976 253.246 220.071 253.306C220.273 253.469 220.525 253.557 220.785 253.556ZM222.637 250.61C222.184 252.055 221.6 253.01 221.044 253.195C220.918 253.234 220.784 253.239 220.656 253.21C220.527 253.18 220.409 253.118 220.312 253.028C220.262 253 220.222 252.957 220.196 252.906C220.169 252.855 220.158 252.798 220.164 252.741C220.164 252.111 221.693 251.12 222.591 250.61H222.637Z" fill="#407BFF"/>
<path d="M220.376 251.029C221.266 251.025 222.144 250.819 222.942 250.427C222.965 250.412 222.984 250.391 222.997 250.367C223.01 250.343 223.017 250.316 223.016 250.288C223.018 250.259 223.01 250.231 222.995 250.206C222.981 250.181 222.959 250.162 222.933 250.149C222.85 250.103 220.784 248.963 219.672 249.362C219.532 249.403 219.404 249.476 219.298 249.576C219.192 249.675 219.111 249.799 219.061 249.936C218.992 250.066 218.968 250.216 218.995 250.36C219.022 250.505 219.098 250.636 219.209 250.733C219.554 250.959 219.965 251.063 220.376 251.029ZM222.498 250.288C221.618 250.668 219.904 250.899 219.422 250.492C219.339 250.418 219.256 250.307 219.367 250.056C219.4 249.964 219.454 249.881 219.525 249.814C219.595 249.746 219.681 249.696 219.774 249.667C220.525 249.399 221.914 250.001 222.498 250.325V250.288Z" fill="#407BFF"/>
<path d="M166.545 274.18C167.441 274.158 168.332 274.043 169.204 273.837C169.235 273.826 169.261 273.806 169.28 273.779C169.298 273.753 169.308 273.721 169.308 273.689C169.308 273.656 169.298 273.625 169.28 273.598C169.261 273.572 169.235 273.552 169.204 273.541C168.806 273.346 165.258 271.688 164.369 272.318C164.287 272.371 164.222 272.446 164.181 272.535C164.14 272.623 164.125 272.721 164.137 272.818C164.139 272.999 164.184 273.178 164.267 273.339C164.351 273.499 164.471 273.638 164.619 273.744C165.198 274.091 165.873 274.244 166.545 274.18ZM168.648 273.624C167.601 273.818 165.656 274.078 164.85 273.476C164.747 273.394 164.662 273.292 164.601 273.176C164.541 273.059 164.506 272.931 164.498 272.8C164.49 272.759 164.495 272.717 164.511 272.678C164.528 272.64 164.556 272.608 164.591 272.586C165.082 272.244 167.175 272.976 168.648 273.624Z" fill="#407BFF"/>
<path d="M169.173 273.833C169.209 273.844 169.248 273.844 169.284 273.833C169.307 273.813 169.324 273.787 169.332 273.757C169.34 273.727 169.34 273.696 169.33 273.667C169.33 273.518 168.496 270.026 166.551 270.248C166.069 270.313 165.93 270.545 165.912 270.739C165.791 271.666 168.024 273.417 169.089 273.861L169.173 273.833ZM166.746 270.526C167.978 270.526 168.691 272.564 168.932 273.38C167.774 272.768 166.153 271.314 166.255 270.749C166.255 270.702 166.255 270.573 166.616 270.536L166.746 270.526Z" fill="#407BFF"/>
<path d="M153.126 27.1229L151.653 26.3633C151.653 26.3633 152.218 27.7435 153.126 27.1229Z" fill="#263238"/>
</svg>
