<svg width="184" height="289" viewBox="0 0 184 289" fill="none" xmlns="http://www.w3.org/2000/svg">
<path d="M91.9987 288.413C142.808 288.413 183.997 284.265 183.997 279.148C183.997 274.031 142.808 269.883 91.9987 269.883C41.1892 269.883 0 274.031 0 279.148C0 284.265 41.1892 288.413 91.9987 288.413Z" fill="#F5F5F5"/>
<path d="M183.782 0H87.2017L78.2148 201.117H174.795L183.782 0Z" fill="#407BFF"/>
<path opacity="0.56" d="M180.899 2.76562H84.3189L75.332 203.882H171.913L180.899 2.76562Z" fill="#FAFAFA"/>
<path opacity="0.07" d="M178.021 5.52344H81.4404L72.4453 206.64H169.026L178.021 5.52344Z" fill="#407BFF"/>
<path d="M172.988 93.2422H90.5508L89.8633 108.63H172.3L172.988 93.2422Z" fill="white"/>
<path d="M135.885 82.0156H91.0489L90.7461 88.899H135.582L135.885 82.0156Z" fill="#407BFF"/>
<path d="M171.125 134.773H88.6875L88 150.161H170.437L171.125 134.773Z" fill="white"/>
<path opacity="0.47" d="M150.051 170.945H94.6157L93.7891 189.386H149.225L150.051 170.945Z" fill="#407BFF"/>
<path d="M146.343 192.245H90.9079C90.8837 192.251 90.8584 192.251 90.8342 192.245C90.8261 192.221 90.8261 192.195 90.8342 192.171L91.6527 173.723C91.6526 173.71 91.6552 173.698 91.6602 173.686C91.6653 173.675 91.6726 173.664 91.6819 173.656C91.6911 173.647 91.702 173.641 91.7139 173.637C91.7258 173.633 91.7384 173.632 91.7509 173.633H147.186C147.197 173.628 147.208 173.625 147.219 173.625C147.231 173.625 147.242 173.628 147.252 173.633C147.258 173.643 147.261 173.654 147.261 173.665C147.261 173.677 147.258 173.688 147.252 173.698L146.45 192.188C146.44 192.207 146.425 192.223 146.406 192.233C146.387 192.243 146.365 192.247 146.343 192.245ZM91.0061 192.048H146.245L147.064 173.796H91.8246L91.0061 192.048Z" fill="white"/>
<path d="M126.201 123.547H89.1896L88.8867 130.438H125.89L126.201 123.547Z" fill="#407BFF"/>
<path d="M148.999 43.5328C148.787 48.011 147.195 52.3139 144.44 55.8509C142.4 58.5225 139.776 60.6914 136.768 62.1911C133.76 63.6908 130.449 64.4814 127.088 64.5022C124.372 64.5229 121.681 63.9874 119.179 62.9285C116.678 61.8697 114.42 60.31 112.545 58.3455C110.669 56.381 109.216 54.0533 108.274 51.5058C107.332 48.9583 106.922 46.2449 107.068 43.5328C107.356 37.9049 109.783 32.5996 113.853 28.7018C117.922 24.804 123.327 22.6082 128.962 22.5634C131.68 22.538 134.375 23.0703 136.879 24.1273C139.383 25.1843 141.644 26.7437 143.522 28.7089C145.4 30.6741 146.854 33.0036 147.796 35.5533C148.738 38.1029 149.148 40.8187 148.999 43.5328Z" fill="white"/>
<path d="M150.97 26.9487C150.917 28.1394 150.493 29.2839 149.759 30.2226C149.215 30.9322 148.517 31.5083 147.717 31.9069C146.917 32.3054 146.036 32.516 145.142 32.5225C144.276 32.5278 143.422 32.3209 142.655 31.92C141.887 31.5191 141.229 30.9363 140.739 30.2226C140.09 29.2582 139.768 28.1101 139.822 26.9487C139.901 25.4545 140.548 24.0467 141.629 23.0125C142.71 21.9783 144.145 21.3955 145.642 21.383C146.364 21.3764 147.079 21.5177 147.744 21.7982C148.409 22.0787 149.01 22.4923 149.509 23.0138C150.008 23.5352 150.396 24.1533 150.647 24.8301C150.898 25.5068 151.008 26.2278 150.97 26.9487Z" fill="#407BFF"/>
<path d="M99.9387 100.932C99.8994 101.592 99.6115 102.212 99.133 102.667C98.6546 103.123 98.0211 103.38 97.3605 103.388C97.0415 103.391 96.7251 103.33 96.4308 103.206C96.1366 103.083 95.8708 102.901 95.6499 102.67C95.429 102.44 95.2576 102.167 95.1464 101.868C95.0351 101.569 94.9864 101.251 95.0032 100.932C95.0387 100.271 95.3254 99.6488 95.8047 99.1924C96.284 98.7359 96.9196 98.4799 97.5814 98.4766C97.9001 98.474 98.2159 98.5365 98.5096 98.6603C98.8033 98.784 99.0686 98.9664 99.2893 99.1963C99.51 99.4262 99.6814 99.6987 99.7931 99.9972C99.9047 100.296 99.9543 100.614 99.9387 100.932Z" fill="#263238"/>
<path d="M110.973 100.932C110.936 101.592 110.649 102.214 110.17 102.67C109.691 103.126 109.057 103.382 108.395 103.388C108.077 103.39 107.761 103.328 107.468 103.204C107.175 103.08 106.91 102.898 106.69 102.668C106.47 102.438 106.299 102.165 106.189 101.866C106.078 101.568 106.029 101.25 106.046 100.932C106.082 100.273 106.367 99.6515 106.845 99.1952C107.322 98.739 107.956 98.482 108.616 98.4767C108.935 98.4729 109.252 98.5346 109.546 98.6579C109.84 98.7813 110.106 98.9636 110.327 99.1938C110.548 99.4239 110.719 99.6969 110.83 99.9959C110.942 100.295 110.99 100.614 110.973 100.932Z" fill="#263238"/>
<path d="M122.012 100.932C121.975 101.592 121.688 102.214 121.209 102.67C120.73 103.126 120.096 103.382 119.434 103.388C119.116 103.39 118.8 103.328 118.506 103.204C118.212 103.08 117.947 102.898 117.726 102.668C117.506 102.438 117.334 102.166 117.223 101.867C117.111 101.569 117.061 101.25 117.077 100.932C117.114 100.272 117.402 99.6507 117.881 99.1947C118.359 98.7386 118.994 98.4819 119.655 98.4767C119.974 98.4729 120.291 98.5346 120.585 98.6579C120.879 98.7813 121.145 98.9636 121.366 99.1938C121.587 99.4239 121.758 99.6969 121.869 99.9959C121.981 100.295 122.029 100.614 122.012 100.932Z" fill="#263238"/>
<path d="M99.9382 142.463C99.8989 143.123 99.611 143.743 99.1326 144.199C98.6541 144.654 98.0207 144.912 97.36 144.919C97.0414 144.921 96.7255 144.859 96.4319 144.735C96.1382 144.611 95.8729 144.429 95.6522 144.199C95.4315 143.969 95.2601 143.697 95.1484 143.398C95.0367 143.1 94.9872 142.782 95.0028 142.463C95.0402 141.803 95.3275 141.182 95.8064 140.726C96.2853 140.27 96.9198 140.013 97.581 140.008C97.8997 140.005 98.2155 140.068 98.5092 140.192C98.8029 140.315 99.0682 140.498 99.2889 140.728C99.5096 140.957 99.681 141.23 99.7926 141.528C99.9043 141.827 99.9538 142.145 99.9382 142.463Z" fill="#263238"/>
<path d="M110.977 142.463C110.94 143.122 110.654 143.742 110.177 144.198C109.7 144.654 109.067 144.912 108.407 144.919C108.088 144.923 107.772 144.861 107.478 144.738C107.184 144.614 106.918 144.432 106.697 144.202C106.476 143.972 106.304 143.699 106.193 143.4C106.082 143.101 106.033 142.782 106.05 142.463C106.088 141.803 106.375 141.182 106.854 140.726C107.333 140.27 107.967 140.013 108.628 140.008C108.947 140.005 109.262 140.068 109.555 140.192C109.849 140.315 110.113 140.498 110.333 140.728C110.554 140.958 110.724 141.231 110.835 141.529C110.946 141.828 110.994 142.145 110.977 142.463Z" fill="#263238"/>
<path d="M122.043 142.463C122.006 143.124 121.719 143.745 121.24 144.201C120.761 144.657 120.126 144.914 119.465 144.919C119.147 144.92 118.831 144.857 118.538 144.733C118.245 144.609 117.98 144.426 117.76 144.197C117.539 143.967 117.368 143.695 117.256 143.397C117.144 143.099 117.093 142.781 117.108 142.463C117.147 141.804 117.435 141.184 117.914 140.728C118.392 140.272 119.025 140.015 119.686 140.008C120.005 140.004 120.321 140.066 120.616 140.189C120.91 140.313 121.176 140.495 121.397 140.725C121.618 140.955 121.789 141.228 121.9 141.527C122.011 141.826 122.06 142.145 122.043 142.463Z" fill="#263238"/>
<path d="M133.055 142.463C133.016 143.123 132.728 143.743 132.249 144.199C131.771 144.654 131.138 144.912 130.477 144.919C130.158 144.92 129.843 144.857 129.55 144.733C129.257 144.609 128.992 144.426 128.772 144.197C128.551 143.967 128.38 143.695 128.268 143.397C128.156 143.099 128.105 142.781 128.12 142.463C128.159 141.804 128.447 141.184 128.925 140.728C129.404 140.272 130.037 140.015 130.698 140.008C131.016 140.005 131.332 140.068 131.626 140.192C131.92 140.315 132.185 140.498 132.406 140.728C132.626 140.957 132.798 141.23 132.909 141.528C133.021 141.827 133.071 142.145 133.055 142.463Z" fill="#263238"/>
<path d="M144.138 142.463C144.099 143.123 143.811 143.743 143.332 144.199C142.854 144.654 142.22 144.912 141.56 144.919C141.241 144.923 140.924 144.861 140.63 144.738C140.336 144.614 140.07 144.432 139.849 144.202C139.628 143.972 139.457 143.699 139.346 143.4C139.234 143.101 139.186 142.782 139.202 142.463C139.24 141.803 139.527 141.182 140.006 140.726C140.485 140.27 141.119 140.013 141.781 140.008C142.099 140.005 142.415 140.068 142.709 140.192C143.003 140.315 143.268 140.498 143.489 140.728C143.709 140.957 143.881 141.23 143.992 141.528C144.104 141.827 144.153 142.145 144.138 142.463Z" fill="#263238"/>
<path d="M134.137 42.4461C137.562 39.0961 137.744 33.7263 134.543 30.4524C131.341 27.1785 125.969 27.2403 122.543 30.5904C119.117 33.9405 118.935 39.3102 122.137 42.5841C125.338 45.858 130.711 45.7962 134.137 42.4461Z" fill="#407BFF"/>
<path d="M144.441 55.8603C142.402 58.532 139.778 60.7009 136.77 62.2005C133.762 63.7002 130.45 64.4908 127.089 64.5117C123.83 64.5393 120.614 63.7646 117.725 62.2559C114.836 60.7471 112.363 58.5507 110.523 55.8603C114.501 51.8989 120.795 49.3125 127.769 49.3125C134.742 49.3125 140.815 51.8989 144.441 55.8603Z" fill="#407BFF"/>
<path opacity="0.1" d="M134.137 42.4461C137.562 39.0961 137.744 33.7263 134.543 30.4524C131.341 27.1785 125.969 27.2403 122.543 30.5904C119.117 33.9405 118.935 39.3102 122.137 42.5841C125.338 45.858 130.711 45.7962 134.137 42.4461Z" fill="white"/>
<path opacity="0.1" d="M144.441 55.8603C142.402 58.532 139.778 60.7009 136.77 62.2005C133.762 63.7002 130.45 64.4908 127.089 64.5117C123.83 64.5393 120.614 63.7646 117.725 62.2559C114.836 60.7471 112.363 58.5507 110.523 55.8603C114.501 51.8989 120.795 49.3125 127.769 49.3125C134.742 49.3125 140.815 51.8989 144.441 55.8603Z" fill="white"/>
<path d="M32.0123 112.345C31.2348 114.047 30.4163 115.921 29.7042 117.738C28.9921 119.555 28.2637 121.43 27.6335 123.296C26.3467 126.974 25.3666 130.751 24.7033 134.591L24.5233 135.794C24.5061 136 24.5255 136.208 24.5806 136.408C24.7737 137.086 25.0779 137.728 25.4809 138.307C26.532 139.805 27.7513 141.178 29.1149 142.399C30.5527 143.736 32.0608 144.996 33.6329 146.172C35.2044 147.384 36.8577 148.562 38.4865 149.675L36.9559 152.548C33.0667 150.854 29.3751 148.738 25.9474 146.238C24.1187 144.904 22.4683 143.342 21.0365 141.589C20.1878 140.545 19.526 139.363 19.0804 138.094C18.8213 137.301 18.6887 136.473 18.6875 135.638C18.6875 135.442 18.6875 135.156 18.6875 135.016V134.615L18.7694 133.797C19.2386 129.533 20.1352 125.326 21.4458 121.241C22.0842 119.228 22.7635 117.223 23.5411 115.267C24.3186 113.31 25.1207 111.395 26.1111 109.406L32.0123 112.345Z" fill="#E58A7B"/>
<path d="M37.3349 149.165L43.1215 146.234L41.6237 152.586C41.6237 152.586 37.6541 153.699 35.8125 151.767L37.3349 149.165Z" fill="#E58A7B"/>
<path d="M48.4106 147.274L46.8718 152.528L41.6172 152.586L43.115 146.234L48.4106 147.274Z" fill="#E58A7B"/>
<path d="M56.5828 81.6953C56.8923 82.8296 57.3231 83.9272 57.8678 84.9692C57.7087 85.1497 57.5037 85.2838 57.2746 85.3572C57.0455 85.4307 56.8008 85.4409 56.5664 85.3866L56.5828 81.6953Z" fill="#DF5753"/>
<path d="M56.4107 81.7497C56.7498 81.7497 57.0246 81.3283 57.0246 80.8084C57.0246 80.2886 56.7498 79.8672 56.4107 79.8672C56.0717 79.8672 55.7969 80.2886 55.7969 80.8084C55.7969 81.3283 56.0717 81.7497 56.4107 81.7497Z" fill="#263238"/>
<path d="M56.2305 79.9066L57.4746 79.5547C57.4746 79.5547 56.8689 80.5205 56.2305 79.9066Z" fill="#263238"/>
<path d="M40.6005 87.7031C41.3453 91.5091 42.0901 98.4907 39.4219 101.036C39.4219 101.036 40.4695 104.899 47.5494 104.899C55.3331 104.899 51.2653 101.036 51.2653 101.036C47.0173 100.021 47.1238 96.8701 47.8686 93.9072L40.6005 87.7031Z" fill="#E58A7B"/>
<path d="M38.5284 79.0324C38.9213 85.392 38.954 88.093 42.1625 91.3587C46.9997 96.2696 54.7261 94.4034 56.2403 88.0848C57.6071 82.3554 56.7396 72.9265 50.5109 70.3974C49.1437 69.8342 47.6554 69.6291 46.1868 69.8014C44.7182 69.9738 43.3179 70.518 42.1182 71.3825C40.9186 72.247 39.9593 73.4032 39.3311 74.7418C38.703 76.0805 38.4267 77.5572 38.5284 79.0324Z" fill="#E58A7B"/>
<path d="M39.1576 71.8773C35.9655 73.0395 31.7094 72.1719 33.3791 82.0182C35.147 92.4456 32.4297 95.8751 32.4297 95.8751C32.4297 95.8751 44.535 98.4533 56.894 95.7196C56.894 95.7196 53.1208 89.1226 54.1767 84.2609C55.5272 78.1223 54.4631 75.8551 54.4631 75.8551C54.4631 75.8551 43.6428 70.2403 39.1576 71.8773Z" fill="#263238"/>
<path d="M52.6641 82.3451C52.6674 83.5543 53.0136 84.7378 53.6626 85.7581C54.5302 87.0841 55.5533 86.5766 55.807 85.1688C56.0362 83.9329 55.8643 81.7476 54.7594 80.8964C53.6544 80.0452 52.6804 80.88 52.6641 82.3451Z" fill="#E58A7B"/>
<path d="M36.3851 72.951C35.4684 70.3728 39.8391 66.4032 49.0879 68.0401C58.3367 69.6771 58.7377 77.379 58.7377 77.379L56.8716 75.1527L56.9535 77.4936L47.4509 79.3188L36.3851 72.951Z" fill="#263238"/>
<path d="M37.1676 101.474C37.113 101.1 37.2065 100.72 37.4282 100.414C37.6498 100.108 37.9822 99.9012 38.3544 99.8368C41.2354 99.3621 47.7832 98.3963 51.0735 98.8547C53.5289 99.1984 54.1674 100.623 54.2738 101.793C54.2904 101.998 54.263 102.204 54.1934 102.398C54.1238 102.591 54.0135 102.767 53.8701 102.915C53.7266 103.062 53.5533 103.177 53.3618 103.252C53.1702 103.326 52.9649 103.359 52.7596 103.348L38.5344 102.71C38.1991 102.693 37.8798 102.561 37.6308 102.335C37.3817 102.11 37.2181 101.806 37.1676 101.474Z" fill="#407BFF"/>
<path opacity="0.6" d="M37.1676 101.474C37.113 101.1 37.2065 100.72 37.4282 100.414C37.6498 100.108 37.9822 99.9012 38.3544 99.8368C41.2354 99.3621 47.7832 98.3963 51.0735 98.8547C53.5289 99.1984 54.1674 100.623 54.2738 101.793C54.2904 101.998 54.263 102.204 54.1934 102.398C54.1238 102.591 54.0135 102.767 53.8701 102.915C53.7266 103.062 53.5533 103.177 53.3618 103.252C53.1702 103.326 52.9649 103.359 52.7596 103.348L38.5344 102.71C38.1991 102.693 37.8798 102.561 37.6308 102.335C37.3817 102.11 37.2181 101.806 37.1676 101.474Z" fill="black"/>
<path d="M45.3984 244.466L50.6776 248.133L59.509 236.159L54.2298 232.5L45.3984 244.466Z" fill="#E58A7B"/>
<path d="M33.0859 244.224L38.6598 247.4L46.4763 234.738L40.9024 231.562L33.0859 244.224Z" fill="#E58A7B"/>
<path d="M59.4979 236.159L54.9472 242.33L49.668 238.671L54.2187 232.5L59.4979 236.159Z" fill="#CF6F64"/>
<path d="M40.898 231.562L46.48 234.746L42.4531 241.27L36.8711 238.086L40.898 231.562Z" fill="#CF6F64"/>
<path d="M49.8494 141.453C49.8494 141.453 70.4587 167.423 66.5873 192.264C63.4689 212.325 45.3805 239.491 45.3805 239.491L36.8765 235.267C42.8706 223.256 47.9859 210.826 52.1821 198.075C53.4761 194.117 53.8538 189.916 53.2866 185.79C52.7194 181.664 51.2223 177.72 48.9082 174.258C38.4644 159.009 21.7347 168.086 32.9888 141.453H49.8494Z" fill="#407BFF"/>
<path opacity="0.6" d="M49.8494 141.453C49.8494 141.453 70.4587 167.423 66.5873 192.264C63.4689 212.325 45.3805 239.491 45.3805 239.491L36.8765 235.267C42.8706 223.256 47.9859 210.826 52.1821 198.075C53.4761 194.117 53.8538 189.916 53.2866 185.79C52.7194 181.664 51.2223 177.72 48.9082 174.258C38.4644 159.009 21.7347 168.086 32.9888 141.453H49.8494Z" fill="black"/>
<path opacity="0.4" d="M59.9566 158.128L56.9609 155.148C56.9609 155.386 62.764 191.211 64.3927 201.278C65.3539 198.337 66.0899 195.327 66.5944 192.275C68.5097 180.087 64.5073 167.638 59.9566 158.128Z" fill="black"/>
<path d="M59.0491 141.453C59.0491 141.453 83.8654 174.094 84.5693 193.664C85.1504 210.033 57.5595 241.75 57.5595 241.75L49.5384 236.56C49.5384 236.56 65.687 214.036 69.7548 195.636C68.1834 177.401 34.9531 141.453 34.9531 141.453H59.0491Z" fill="#407BFF"/>
<path opacity="0.6" d="M59.0491 141.453C59.0491 141.453 83.8654 174.094 84.5693 193.664C85.1504 210.033 57.5595 241.75 57.5595 241.75L49.5384 236.56C49.5384 236.56 65.687 214.036 69.7548 195.636C68.1834 177.401 34.9531 141.453 34.9531 141.453H59.0491Z" fill="black"/>
<path d="M28.3458 102.495C25.6939 103.126 23.1484 112.767 23.1484 112.767L33.5186 119.692C33.5186 119.692 36.9725 112.063 35.7612 108.724C34.5089 105.246 31.677 101.701 28.3458 102.495Z" fill="#407BFF"/>
<path opacity="0.2" d="M30.3765 108.711L29.6562 117.117L33.5113 119.703C34.5757 117.307 35.3638 114.797 35.8603 112.222L30.3765 108.711Z" fill="black"/>
<path d="M62.1142 102.693C62.1142 102.693 65.1753 103.765 59.0449 141.448H32.9682C33.4101 130.808 33.4183 124.26 28.3438 102.505C31.9951 101.752 35.6961 101.265 39.4178 101.048C43.3605 100.765 47.3184 100.765 51.2612 101.048C56.3521 101.515 62.1142 102.693 62.1142 102.693Z" fill="#407BFF"/>
<path d="M64.7705 108.714C65.3598 110.351 65.9818 112.111 66.6366 113.805C67.2914 115.499 67.9134 117.243 68.5764 118.961L70.5817 124.101L71.0891 125.386L71.351 126.025L71.4738 126.344C71.4738 126.401 71.4738 126.401 71.4738 126.393C71.3243 126.182 71.1282 126.009 70.9009 125.886C70.5771 125.695 70.2121 125.586 69.8369 125.566C69.5251 125.557 69.215 125.615 68.9283 125.738C68.5518 125.91 68.5518 125.984 68.56 125.976C68.6281 125.921 68.6886 125.858 68.7401 125.787C69.1932 125.193 69.5853 124.554 69.9105 123.88C70.2952 123.127 70.6635 122.325 71.0318 121.515C71.7521 119.878 72.4151 118.184 73.078 116.473C73.741 114.763 74.3712 113.036 74.9851 111.292L76.8512 106.07L80.0024 106.889C79.3803 110.621 78.5782 114.255 77.6124 117.955C77.1459 119.796 76.5975 121.621 75.9754 123.463C75.6644 124.388 75.3207 125.305 74.9278 126.246C74.5183 127.267 74.0141 128.248 73.4218 129.176C73.2041 129.488 72.9633 129.784 72.7015 130.06C72.2836 130.511 71.7763 130.871 71.2119 131.116C70.7111 131.331 70.1687 131.431 69.6241 131.41C69.014 131.388 68.4197 131.21 67.8971 130.895C67.2805 130.51 66.7687 129.979 66.4074 129.348C66.2847 129.135 66.1783 128.922 66.1046 128.767L65.9491 128.456L65.6381 127.817L65.016 126.549C64.1975 124.846 63.3791 123.127 62.667 121.4C61.9549 119.673 61.2019 117.922 60.498 116.162C59.7941 114.402 59.1639 112.643 58.5664 110.744L64.7705 108.714Z" fill="#E58A7B"/>
<path d="M62.1121 102.691C65.2469 103.435 68.7745 112.701 68.7745 112.701L59.452 120.632C59.452 120.632 53.4198 110.532 54.6394 107.2C55.908 103.73 58.0197 101.717 62.1121 102.691Z" fill="#407BFF"/>
<path d="M78.328 103.14L81.6019 100.406L83.8773 103.95L82.1994 106.905C82.1994 106.905 79.5312 109.36 77.174 108.108C76.7998 107.267 76.7101 106.327 76.9183 105.431C77.1266 104.534 77.6215 103.73 78.328 103.14Z" fill="#E58A7B"/>
<path d="M87.5121 100.414L87.2666 101.307L82.0856 102.174L81.5781 100.406L87.5121 100.414Z" fill="#E58A7B"/>
<path d="M58.1947 242.157L48.8477 236.117L50.5255 233.203L61.0266 239.661L58.1947 242.157Z" fill="#407BFF"/>
<path d="M42.3211 246.976C41.501 246.876 40.713 246.596 40.013 246.158C39.9841 246.148 39.959 246.129 39.9413 246.104C39.9236 246.079 39.9141 246.049 39.9141 246.018C39.9141 245.988 39.9236 245.958 39.9413 245.933C39.959 245.908 39.9841 245.889 40.013 245.879C40.2667 245.797 42.4684 245.118 43.1068 245.642C43.1786 245.702 43.2331 245.779 43.2648 245.867C43.2964 245.955 43.3041 246.05 43.2869 246.141C43.2755 246.289 43.2267 246.431 43.145 246.554C43.0634 246.677 42.9516 246.777 42.8204 246.845C42.6671 246.929 42.4957 246.974 42.3211 246.976ZM40.4795 246.076C41.5026 246.6 42.3211 246.788 42.7139 246.591C42.7995 246.544 42.8715 246.475 42.9231 246.392C42.9746 246.309 43.0041 246.214 43.0086 246.117C43.0086 245.986 43.0086 245.928 42.9349 245.896C42.5912 245.617 41.3635 245.83 40.4631 246.076H40.4795Z" fill="#263238"/>
<path d="M40.0667 246.216C40.0236 246.216 39.9824 246.198 39.9522 246.167C39.94 246.145 39.9336 246.119 39.9336 246.094C39.9336 246.068 39.94 246.043 39.9522 246.02C39.9522 245.946 40.4842 244.17 41.319 243.769C41.4256 243.72 41.5415 243.695 41.6587 243.695C41.7759 243.695 41.8917 243.72 41.9983 243.769C42.1133 243.805 42.2128 243.879 42.281 243.978C42.3492 244.078 42.3823 244.197 42.3749 244.317C42.3176 245.054 40.8197 246.069 40.1322 246.241L40.0667 246.216ZM41.6546 243.982C41.575 243.984 41.4968 244.004 41.4254 244.039C40.918 244.285 40.5005 245.242 40.2959 245.823C41.0162 245.521 42.0065 244.719 42.0393 244.268C42.0393 244.195 42.0393 244.105 41.851 244.023C41.7898 243.99 41.7233 243.968 41.6546 243.957V243.982Z" fill="#263238"/>
<path d="M53.9961 250.505C53.0713 250.505 51.7862 249.318 51.0824 248.59C51.0644 248.565 51.0547 248.535 51.0547 248.504C51.0547 248.473 51.0644 248.443 51.0824 248.418C51.0985 248.392 51.1215 248.37 51.1489 248.356C51.1762 248.341 51.207 248.335 51.2379 248.336C51.5652 248.336 54.4054 248.762 54.8064 249.564C54.8489 249.636 54.8713 249.718 54.8713 249.801C54.8713 249.885 54.8489 249.967 54.8064 250.039C54.7463 250.164 54.6554 250.271 54.5423 250.351C54.4292 250.431 54.2976 250.482 54.1598 250.497L53.9961 250.505ZM51.6225 248.704C52.6538 249.703 53.5623 250.26 54.078 250.194C54.1683 250.182 54.2543 250.149 54.3285 250.096C54.4027 250.043 54.4628 249.973 54.5036 249.891C54.5219 249.863 54.5316 249.831 54.5316 249.797C54.5316 249.764 54.5219 249.731 54.5036 249.703C54.2908 249.261 52.7766 248.885 51.6225 248.704Z" fill="#263238"/>
<path d="M51.7167 248.67C51.533 248.675 51.3492 248.661 51.1683 248.629C51.1431 248.625 51.1192 248.615 51.0991 248.599C51.079 248.583 51.0634 248.562 51.0538 248.539C51.0415 248.515 51.0352 248.488 51.0352 248.461C51.0352 248.434 51.0415 248.407 51.0538 248.383C51.1029 248.326 52.2078 246.992 53.2555 246.902C53.552 246.879 53.8458 246.973 54.0739 247.164C54.3931 247.442 54.3768 247.688 54.2949 247.843C54.0903 248.4 52.6743 248.67 51.7167 248.67ZM51.5039 248.367C52.4206 248.416 53.8857 248.113 54.0739 247.712C54.0739 247.712 54.1394 247.581 53.9266 247.401C53.8419 247.328 53.743 247.272 53.636 247.238C53.529 247.204 53.4162 247.193 53.3046 247.205C52.5988 247.402 51.9704 247.81 51.5039 248.375V248.367Z" fill="#263238"/>
<path d="M40.2882 245.33L33.3475 243.366C33.2278 243.329 33.099 243.339 32.9857 243.391C32.8725 243.444 32.7827 243.537 32.7336 243.652L30.3928 248.915C30.3378 249.05 30.312 249.195 30.317 249.34C30.3221 249.485 30.3579 249.628 30.422 249.759C30.4862 249.89 30.5773 250.005 30.6893 250.098C30.8014 250.191 30.9318 250.259 31.0721 250.298C33.5275 250.936 34.7061 251.117 37.7591 251.992C39.6416 252.516 42.3262 253.49 44.9208 254.227C47.5153 254.963 48.3829 252.434 47.3762 251.894C42.8255 249.488 42.4653 247.802 41.2212 246.001C40.9984 245.675 40.6682 245.437 40.2882 245.33Z" fill="#407BFF"/>
<path d="M51.2717 247.635L45.346 243.543C45.2455 243.469 45.1216 243.436 44.9979 243.448C44.8742 243.46 44.7592 243.517 44.6748 243.608L40.7461 247.831C40.6504 247.941 40.579 248.069 40.5366 248.208C40.4943 248.347 40.482 248.493 40.5006 248.637C40.5192 248.781 40.5682 248.919 40.6444 249.043C40.7206 249.167 40.8222 249.273 40.9425 249.354C43.0297 250.753 44.1101 251.318 46.721 253.127C48.358 254.24 51.5255 256.712 53.7354 258.251C55.9453 259.789 57.5904 257.678 56.8047 256.843C53.2852 253.086 52.5158 250.729 51.9347 248.593C51.8338 248.205 51.599 247.866 51.2717 247.635Z" fill="#407BFF"/>
<path d="M46.4702 240.03L35.7891 234.718L36.894 231.82L48.3036 237.419L46.4702 240.03Z" fill="#407BFF"/>
<path d="M32.5774 139.908L31.6771 142.266C31.5871 142.446 31.7999 142.634 32.1027 142.634H59.178C59.4153 142.634 59.6118 142.519 59.6281 142.372L59.8573 140.031C59.8573 139.876 59.6691 139.737 59.4153 139.737H33.003C32.9235 139.729 32.8434 139.741 32.7693 139.771C32.6952 139.801 32.6294 139.848 32.5774 139.908Z" fill="#407BFF"/>
<path opacity="0.4" d="M32.5774 139.908L31.6771 142.266C31.5871 142.446 31.7999 142.634 32.1027 142.634H59.178C59.4153 142.634 59.6118 142.519 59.6281 142.372L59.8573 140.031C59.8573 139.876 59.6691 139.737 59.4153 139.737H33.003C32.9235 139.729 32.8434 139.741 32.7693 139.771C32.6952 139.801 32.6294 139.848 32.5774 139.908Z" fill="white"/>
<path d="M36.8444 142.871H36.1323C35.9932 142.871 35.8868 142.798 35.895 142.708L36.2306 139.671C36.2306 139.589 36.3615 139.516 36.5007 139.516H37.2127C37.3519 139.516 37.4583 139.589 37.4501 139.671L37.1145 142.708C37.1063 142.798 36.9836 142.871 36.8444 142.871Z" fill="#407BFF"/>
<path d="M53.5394 142.871H52.8355C52.6963 142.871 52.5899 142.798 52.5981 142.708L52.9255 139.671C52.9255 139.589 53.0646 139.516 53.2038 139.516H53.9077C54.0468 139.516 54.1614 139.589 54.145 139.671L53.8176 142.708C53.7767 142.798 53.6867 142.871 53.5394 142.871Z" fill="#407BFF"/>
<g style="mix-blend-mode:multiply">
<path d="M36.22 281.473C48.33 281.473 58.1471 280.762 58.1471 279.885C58.1471 279.008 48.33 278.297 36.22 278.297C24.11 278.297 14.293 279.008 14.293 279.885C14.293 280.762 24.11 281.473 36.22 281.473Z" fill="#F5F5F5"/>
</g>
<path d="M49.572 277.641C45.6924 276.512 41.3872 275.063 38.7844 273.549C38.7108 273.5 38.6289 273.475 38.5553 273.435V255.87H46.4045C47.0003 255.835 47.5602 255.573 47.9696 255.139C48.3789 254.704 48.607 254.13 48.607 253.533C48.607 252.936 48.3789 252.362 47.9696 251.928C47.5602 251.493 47.0003 251.232 46.4045 251.196H38.5962V171.133H33.8817V251.196H26.0816C25.7631 251.178 25.4441 251.224 25.1442 251.333C24.8444 251.442 24.5699 251.611 24.3377 251.83C24.1055 252.049 23.9205 252.313 23.7941 252.606C23.6676 252.898 23.6024 253.214 23.6024 253.533C23.6024 253.852 23.6676 254.168 23.7941 254.461C23.9205 254.754 24.1055 255.018 24.3377 255.237C24.5699 255.455 24.8444 255.625 25.1442 255.733C25.4441 255.842 25.7631 255.889 26.0816 255.87H33.8817V273.41C33.8081 273.41 33.7344 273.475 33.6607 273.525C31.0171 275.063 26.7446 276.512 22.865 277.617C22.6029 277.696 22.3779 277.867 22.2306 278.097C22.0834 278.328 22.0236 278.604 22.0622 278.875C22.1008 279.146 22.2352 279.395 22.441 279.575C22.6468 279.756 22.9104 279.857 23.1842 279.86H49.2528C49.5144 279.842 49.762 279.735 49.9542 279.556C50.1465 279.378 50.2717 279.139 50.3091 278.88C50.3464 278.62 50.2936 278.355 50.1595 278.13C50.0253 277.905 49.818 277.732 49.572 277.641Z" fill="#E0E0E0"/>
<path d="M50.7823 162.984H21.6772C19.3357 162.984 17.4375 164.883 17.4375 167.224V175.875C17.4375 178.217 19.3357 180.115 21.6772 180.115H50.7823C53.1239 180.115 55.0221 178.217 55.0221 175.875V167.224C55.0221 164.883 53.1239 162.984 50.7823 162.984Z" fill="#407BFF"/>
<path d="M21.4062 180.125V181.615C21.4062 182.842 22.7404 183.841 24.3773 183.841H48.1132C49.7502 183.841 51.0843 182.842 51.0843 181.615V180.125H21.4062Z" fill="#407BFF"/>
<path opacity="0.3" d="M21.4062 180.125V181.615C21.4062 182.842 22.7404 183.841 24.3773 183.841H48.1132C49.7502 183.841 51.0843 182.842 51.0843 181.615V180.125H21.4062Z" fill="white"/>
</svg>
