<svg width="380" height="327" viewBox="0 0 380 327" fill="none" xmlns="http://www.w3.org/2000/svg">
<path d="M379.967 293.492H293.066V293.731H379.967V293.492Z" fill="#EBEBEB"/>
<path d="M266.51 290.953H242.715V291.192H266.51V290.953Z" fill="#EBEBEB"/>
<path d="M320.896 302.18H284.004V302.419H320.896V302.18Z" fill="#EBEBEB"/>
<path d="M21.6556 300.609H0.0117188V300.848H21.6556V300.609Z" fill="#EBEBEB"/>
<path d="M55.8748 300.609H30.168V300.848H55.8748V300.609Z" fill="#EBEBEB"/>
<path d="M165.103 296.656H120.324V296.895H165.103V296.656Z" fill="#EBEBEB"/>
<path d="M0.00141907 284.562H114.301L114.301 37.0685H0.00141907L0.00141907 284.562Z" fill="#F0F0F0"/>
<path d="M0.015686 284.562H108.895L108.895 37.0685H0.015686L0.015686 284.562Z" fill="#F5F5F5"/>
<path d="M103.16 278.957L103.16 42.6953L5.7533 42.6953L5.7533 278.957H103.16Z" fill="#F0F0F0"/>
<path d="M37.225 154.1H17.3689C16.6927 154.097 16.0449 153.833 15.5668 153.365C15.0887 152.897 14.8189 152.263 14.8164 151.601C14.8189 150.939 15.0887 150.304 15.5668 149.836C16.0449 149.368 16.6927 149.104 17.3689 149.102H37.225C37.9012 149.104 38.549 149.368 39.0272 149.836C39.5053 150.304 39.775 150.939 39.7776 151.601C39.775 152.263 39.5053 152.897 39.0272 153.365C38.549 153.833 37.9012 154.097 37.225 154.1Z" fill="white"/>
<path d="M7.24609 278.957L7.24609 42.6953H5.75474L5.75474 278.957H7.24609Z" fill="#F0F0F0"/>
<path d="M167.854 279.875H184.871V207.614H167.854V279.875Z" fill="#F0F0F0"/>
<path d="M97.6878 284.461H181.605V279.884H97.6878V284.461Z" fill="#F0F0F0"/>
<path d="M167.858 207.617H94.418V279.878H167.858V207.617Z" fill="#F5F5F5"/>
<path d="M161.161 216.516H101.105V240.216H161.161V216.516Z" fill="#F0F0F0"/>
<path d="M161.161 247.273H101.105V270.974H161.161V247.273Z" fill="#F0F0F0"/>
<path d="M124.392 218.506H137.881C138.319 218.503 138.738 218.332 139.048 218.029C139.358 217.726 139.533 217.315 139.535 216.886C139.535 216.456 139.361 216.043 139.051 215.738C138.741 215.433 138.321 215.26 137.881 215.258H124.392C123.953 215.26 123.532 215.433 123.222 215.738C122.912 216.043 122.738 216.456 122.738 216.886C122.741 217.315 122.916 217.726 123.225 218.029C123.535 218.332 123.954 218.503 124.392 218.506Z" fill="#F5F5F5"/>
<path d="M124.392 249.289H137.881C138.314 249.286 138.729 249.119 139.038 248.822C139.347 248.525 139.525 248.121 139.535 247.697C139.533 247.269 139.358 246.858 139.048 246.555C138.738 246.252 138.319 246.081 137.881 246.078H124.392C123.954 246.081 123.535 246.252 123.225 246.555C122.916 246.858 122.741 247.269 122.738 247.697C122.748 248.121 122.927 248.525 123.235 248.822C123.544 249.119 123.959 249.286 124.392 249.289Z" fill="#F5F5F5"/>
<path d="M136.735 206.195C136.401 206.192 136.081 206.061 135.845 205.83C135.609 205.599 135.475 205.286 135.473 204.959V167.415C135.473 167.088 135.606 166.773 135.842 166.542C136.079 166.31 136.4 166.18 136.735 166.18C137.068 166.182 137.388 166.313 137.624 166.544C137.86 166.775 137.994 167.088 137.996 167.415V204.959C137.994 205.286 137.86 205.599 137.624 205.83C137.388 206.061 137.068 206.192 136.735 206.195Z" fill="#F5F5F5"/>
<path d="M143.268 183.731C143.102 183.731 142.943 183.667 142.825 183.553C142.707 183.44 142.639 183.285 142.637 183.123V164.383C142.639 164.22 142.706 164.065 142.824 163.949C142.942 163.834 143.101 163.768 143.268 163.766C143.434 163.768 143.593 163.834 143.711 163.949C143.829 164.065 143.896 164.22 143.899 164.383V183.104C143.9 183.186 143.885 183.267 143.853 183.343C143.822 183.419 143.776 183.488 143.717 183.547C143.659 183.605 143.589 183.651 143.511 183.683C143.434 183.715 143.351 183.731 143.268 183.731Z" fill="#F0F0F0"/>
<path d="M307.043 83.7812H365.254V21.6199L307.043 21.6199V83.7812Z" fill="#E0E0E0"/>
<path d="M303.572 83.7813L363.293 83.7812V21.6199L303.572 21.6199V83.7813Z" fill="#F5F5F5"/>
<path d="M358.285 78.8706V26.5L308.564 26.5V78.8706H358.285Z" fill="white"/>
<path d="M333.434 39.4453L347.028 62.5089H319.84L333.434 39.4453Z" fill="#F5F5F5"/>
<path d="M188.863 326.848C291.234 326.848 374.222 322.104 374.222 316.252C374.222 310.4 291.234 305.656 188.863 305.656C86.4919 305.656 3.50391 310.4 3.50391 316.252C3.50391 322.104 86.4919 326.848 188.863 326.848Z" fill="#F5F5F5"/>
<path d="M252.436 19.5898H32.0586L46.5611 313.445H266.938L252.436 19.5898Z" fill="#407BFF"/>
<path opacity="0.2" d="M252.436 19.5898H32.0586L46.5611 313.445H266.938L252.436 19.5898Z" fill="black"/>
<path d="M254.475 19.5898H34.0977L48.6097 313.445H268.987L254.475 19.5898Z" fill="#407BFF"/>
<path opacity="0.2" d="M242.838 29.4688H44.1719L58.053 300.158L230.802 299.933L259.511 275.016L242.838 29.4688Z" fill="black"/>
<path d="M244.358 29.4688C246.477 110.534 253.163 191.424 264.386 271.768C248.644 282.376 232.982 292.985 217.399 303.593H68.8176C54.7934 212.808 46.5623 121.256 44.1719 29.4688H244.358Z" fill="white"/>
<path d="M264.386 271.765C248.644 282.373 232.981 292.982 217.398 303.59C220.802 289.549 224.349 275.509 228.039 261.469L264.386 271.765Z" fill="#EBEBEB"/>
<path d="M98.041 54.2294C98.417 64.1388 98.8568 74.0544 99.3603 83.9763H68.9882C68.4783 74.0544 68.0385 64.1388 67.6689 54.2294H98.041ZM101.138 51.0938H64.3516C64.7786 63.0936 65.3107 75.0996 65.9481 87.112H102.745C102.107 75.1059 101.575 63.0998 101.148 51.0938H101.138Z" fill="#407BFF"/>
<path d="M222.151 65.4062H118.119C118.024 63.1691 117.938 60.9226 117.852 58.6855H221.874C221.96 60.9226 222.056 63.1691 222.151 65.4062Z" fill="#E0E0E0"/>
<path d="M200.174 79.5332H118.761C118.656 77.2867 118.541 75.0496 118.445 72.8125H199.849C199.957 75.0527 200.065 77.2929 200.174 79.5332Z" fill="#E0E0E0"/>
<path d="M101.027 112.485C101.665 122.407 102.375 132.329 103.159 142.251H72.7774C71.9935 132.329 71.2829 122.407 70.6455 112.485H101.027ZM104.029 109.35H67.2422C67.9942 121.362 68.8515 133.374 69.8138 145.387H106.648C105.692 133.38 104.832 121.368 104.067 109.35H104.029Z" fill="#407BFF"/>
<path d="M159.609 123.671H121.369C121.216 121.425 121.054 119.188 120.91 116.941H159.15C159.294 119.188 159.447 121.425 159.609 123.671Z" fill="#E0E0E0"/>
<path d="M195.809 123.671H167.693C167.54 121.425 167.378 119.188 167.234 116.941H195.35C195.494 119.188 195.647 121.425 195.809 123.671Z" fill="#E0E0E0"/>
<path d="M213.461 137.818H122.421C122.249 135.571 122.086 133.334 121.914 131.088H212.954C213.126 133.334 213.289 135.571 213.461 137.818Z" fill="#E0E0E0"/>
<path d="M105.586 170.778C106.497 180.7 107.479 190.622 108.53 200.544H78.1487C77.0971 190.622 76.1156 180.7 75.2042 170.778H105.586ZM108.511 167.643H71.7148C72.7983 179.661 73.9837 191.677 75.2712 203.689H112.068C110.793 191.67 109.607 179.655 108.511 167.643Z" fill="#407BFF"/>
<path d="M231.018 189.371H126.977L127.665 196.092H231.706L231.018 189.371Z" fill="#E0E0E0"/>
<path d="M207.026 175.234H125.613C125.824 177.471 126.034 179.718 126.254 181.955H207.657C207.447 179.718 207.227 177.5 207.026 175.234Z" fill="#E0E0E0"/>
<path d="M111.734 229.061C112.92 238.983 114.172 248.902 115.492 258.818H85.1099C83.7906 248.908 82.5382 238.99 81.3528 229.061H111.734ZM114.602 225.926H77.7773C79.1795 237.944 80.6931 249.954 82.3183 261.953H119.077C117.464 249.954 115.95 237.944 114.536 225.926H114.602Z" fill="#407BFF"/>
<path d="M236.746 240.212H132.705C132.428 237.966 132.15 235.729 131.883 233.482H235.915C236.192 235.757 236.46 237.994 236.746 240.212Z" fill="#E0E0E0"/>
<path d="M181.871 254.375H134.511C134.214 252.138 133.927 249.891 133.641 247.654H181.001C181.288 249.891 181.574 252.138 181.871 254.375Z" fill="#E0E0E0"/>
<path d="M210.155 254.375H189.706C189.41 252.138 189.123 249.891 188.836 247.654H209.285C209.572 249.891 209.897 252.138 210.155 254.375Z" fill="#E0E0E0"/>
<path d="M84.6597 79.7239L83.3117 77.6272C80.3673 73.0407 74.3636 68.9502 72.2891 67.7521L73.8378 65.0657C77.9078 67.4856 81.5443 70.5434 84.6023 74.1171C89.2294 67.9487 96.0743 61.5744 105.443 54.7227L107.422 57.2499C97.4223 64.579 90.4244 71.2903 86.0077 77.7489L84.6597 79.7239Z" fill="#407BFF"/>
<path d="M189.943 287.453C184.302 287.453 181.052 285.412 178.184 283.615C175.316 281.818 172.849 280.264 168.088 280.264C163.327 280.264 161.205 281.893 158.959 283.615C156.712 285.337 153.959 287.453 148.318 287.453C142.678 287.453 139.427 285.412 136.569 283.615C133.711 281.818 131.244 280.264 126.474 280.264C121.703 280.264 119.59 281.893 117.344 283.615C115.097 285.337 112.344 287.453 106.713 287.453C101.082 287.453 97.8223 285.412 94.9543 283.615C92.0863 281.818 89.6294 280.264 84.859 280.264C84.7347 279.328 84.6008 278.467 84.4766 277.568C90.117 277.568 93.3578 279.609 96.2258 281.406C99.0938 283.203 101.551 284.757 106.312 284.757C111.072 284.757 113.195 283.128 115.441 281.406C117.688 279.684 120.451 277.568 126.091 277.568C131.732 277.568 134.963 279.609 137.831 281.406C140.699 283.203 143.165 284.757 147.926 284.757C152.687 284.757 154.809 283.128 157.056 281.406C159.303 279.684 162.066 277.568 167.706 277.568C173.346 277.568 176.587 279.609 179.455 281.406C182.323 283.203 184.78 284.757 189.551 284.757C189.675 285.656 189.818 286.554 189.943 287.453Z" fill="#EBEBEB"/>
<path d="M198.031 26.8646C194.799 18.4404 187.333 12.9085 179.303 12.9085H162.936C161.718 12.8981 160.529 12.5377 159.518 11.8722C158.507 11.2066 157.717 10.2651 157.248 9.16436C156.091 6.47402 154.156 4.17337 151.681 2.54533C149.207 0.917282 146.3 0.0328137 143.319 0.000682351C140.435 -0.0279533 137.617 0.845379 135.275 2.49356C132.933 4.14174 131.189 6.47873 130.298 9.16436C129.935 10.2632 129.222 11.2194 128.264 11.8931C127.306 12.5668 126.153 12.9226 124.973 12.9085H108.616C100.576 12.9085 93.6546 18.4684 91.2646 26.8646L90.3086 30.2062H199.293L198.031 26.8646Z" fill="#263238"/>
<path d="M198.612 33.5003H91.3487C90.4441 33.4899 89.577 33.1442 88.9224 32.5328C88.2678 31.9214 87.8742 31.0897 87.8211 30.2055C87.7976 29.7806 87.8632 29.3555 88.0138 28.9564C88.1644 28.5573 88.3969 28.1926 88.697 27.8849C88.997 27.5771 89.3582 27.3327 89.7584 27.1667C90.1585 27.0008 90.5891 26.9168 91.0237 26.92H198.287C199.19 26.9302 200.056 27.2746 200.71 27.884C201.364 28.4935 201.759 29.3228 201.814 30.2055C201.839 30.6311 201.775 31.0572 201.625 31.4574C201.475 31.8576 201.242 32.2234 200.942 32.5322C200.642 32.841 200.28 33.0863 199.88 33.2528C199.479 33.4193 199.047 33.5035 198.612 33.5003Z" fill="#407BFF"/>
<path opacity="0.2" d="M198.612 33.5003H91.3487C90.4441 33.4899 89.577 33.1442 88.9224 32.5328C88.2678 31.9214 87.8742 31.0897 87.8211 30.2055C87.7976 29.7806 87.8632 29.3555 88.0138 28.9564C88.1644 28.5573 88.3969 28.1926 88.697 27.8849C88.997 27.5771 89.3582 27.3327 89.7584 27.1667C90.1585 27.0008 90.5891 26.9168 91.0237 26.92H198.287C199.19 26.9302 200.056 27.2746 200.71 27.884C201.364 28.4935 201.759 29.3228 201.814 30.2055C201.839 30.6311 201.775 31.0572 201.625 31.4574C201.475 31.8576 201.242 32.2234 200.942 32.5322C200.642 32.841 200.28 33.0863 199.88 33.2528C199.479 33.4193 199.047 33.5035 198.612 33.5003Z" fill="black"/>
<path d="M294.901 310.638H287.893L287.195 294.754H294.203L294.901 310.638Z" fill="#FFC3BD"/>
<path d="M336.955 310.638H329.948L326.43 294.754H333.428L336.955 310.638Z" fill="#FFC3BD"/>
<path d="M329.45 309.852H337.317C337.456 309.851 337.591 309.897 337.699 309.982C337.807 310.068 337.882 310.187 337.91 310.32L339.296 316.422C339.328 316.57 339.325 316.724 339.288 316.87C339.251 317.017 339.181 317.154 339.083 317.271C338.985 317.388 338.861 317.481 338.721 317.545C338.581 317.609 338.428 317.641 338.273 317.639C335.53 317.592 334.191 317.433 330.731 317.433C328.599 317.433 324.211 317.649 321.276 317.649C318.341 317.649 317.949 314.841 319.153 314.55C324.555 313.39 326.582 311.798 328.312 310.273C328.626 310.001 329.031 309.852 329.45 309.852Z" fill="#263238"/>
<path d="M287.943 309.852H295.591C295.73 309.851 295.865 309.897 295.973 309.982C296.081 310.068 296.155 310.187 296.184 310.32L297.57 316.422C297.604 316.565 297.605 316.714 297.574 316.858C297.542 317.001 297.478 317.136 297.386 317.252C297.295 317.369 297.178 317.464 297.045 317.531C296.911 317.598 296.764 317.635 296.614 317.639C293.851 317.592 289.865 317.433 286.394 317.433C282.341 317.433 278.842 317.649 274.081 317.649C271.213 317.649 270.41 314.841 271.615 314.55C277.093 313.371 281.567 313.249 286.299 310.385C286.788 310.067 287.356 309.882 287.943 309.852Z" fill="#263238"/>
<path d="M301.673 60.4336C300.717 65.4507 300.163 71.6659 303.748 75.0168C303.748 75.0168 301.693 80.1088 292.171 80.1088C283.471 80.1088 287.831 75.0168 287.831 75.0168C293.567 73.6783 293.241 66.7611 292.247 62.8485L301.673 60.4336Z" fill="#FFC3BD"/>
<path d="M285.094 75.7121C285.285 74.4672 287.522 73.0164 290.065 72.4735C292.608 71.9306 302.378 70.7231 305.361 71.9306C308.344 73.1381 304.845 76.7137 304.845 76.7137L285.094 75.7121Z" fill="#407BFF"/>
<path opacity="0.4" d="M285.094 75.7121C285.285 74.4672 287.522 73.0164 290.065 72.4735C292.608 71.9306 302.378 70.7231 305.361 71.9306C308.344 73.1381 304.845 76.7137 304.845 76.7137L285.094 75.7121Z" fill="white"/>
<path opacity="0.2" d="M287.195 294.754L287.559 302.935H294.566L294.203 294.754H287.195Z" fill="black"/>
<path opacity="0.2" d="M333.437 294.754H326.43L328.246 302.935H335.254L333.437 294.754Z" fill="black"/>
<path d="M318.258 81.1934L309.816 86.7159C309.816 86.7159 321.939 107.823 320.925 111.202C319.539 115.807 317.608 125.87 314.979 130.98C315.323 132.085 317.072 134.603 318.048 135.033C324.74 130.054 331.498 114.441 331.25 110.07C330.667 100.157 318.258 81.1934 318.258 81.1934Z" fill="#FFC3BD"/>
<path d="M314.977 130.996L308.285 130.49L311.794 137.707C311.794 137.707 317.635 137.96 318.61 133.588L314.977 130.996Z" fill="#B55B52"/>
<path d="M348.053 166.188L347.489 167.227L343.703 174.238L209.309 104.663L213.649 96.6133L348.053 166.188Z" fill="#407BFF"/>
<path d="M356.748 150.125L353.976 155.254L352.408 158.156L218.004 88.5811L222.344 80.5312L356.748 150.125Z" fill="#407BFF"/>
<path d="M218.049 88.5558L213.699 96.5957L348.048 166.273L352.398 158.233L218.049 88.5558Z" fill="#407BFF"/>
<path opacity="0.2" d="M218.049 88.5558L213.699 96.5957L348.048 166.273L352.398 158.233L218.049 88.5558Z" fill="black"/>
<path d="M203.519 81.5968L199.609 88.8416L209.313 104.67L222.343 80.5391L203.519 81.5968Z" fill="#407BFF"/>
<path opacity="0.8" d="M203.519 81.5968L199.609 88.8416L209.313 104.67L222.343 80.5391L203.519 81.5968Z" fill="white"/>
<path d="M195.449 82.0544L199.608 88.8405L203.518 81.5957L195.449 82.0544Z" fill="#407BFF"/>
<path d="M302.902 133.776L306.401 140.159L311.822 137.707L308.313 130.49L302.902 133.776Z" fill="#B55B52"/>
<path d="M316.249 76.5729C322.874 77.5089 330.465 99.9734 330.465 99.9734L316.546 107.668C316.546 107.668 310.418 97.0156 307.406 89.0594C304.232 80.7382 309.146 75.5619 316.249 76.5729Z" fill="#263238"/>
<path opacity="0.2" d="M312.397 84.2731C309.386 81.5774 311.231 93.1185 312.665 100.504C313.401 101.945 314.099 103.256 314.692 104.351C318.047 98.5475 316.546 87.9891 312.397 84.2731Z" fill="black"/>
<path d="M277.014 76.9155C277.014 76.9155 268.745 97.6204 276.593 136.185H314.097C314.355 130.568 310.742 103.087 316.287 76.5599C312.144 75.7768 307.955 75.2578 303.744 75.0061C298.442 74.7063 293.128 74.7063 287.826 75.0061C284.177 75.3634 280.561 76.0018 277.014 76.9155Z" fill="#263238"/>
<path d="M282.78 86.5466L273.335 82.8867C273.335 82.8867 262.455 104.631 258.995 105.726C254.339 107.223 244.779 111.342 238.985 112.147C238.259 113.083 237.131 115.891 237.312 116.921C245.295 119.476 262.283 116.087 265.801 113.41C273.87 107.308 282.78 86.5466 282.78 86.5466Z" fill="#FFC3BD"/>
<path opacity="0.2" d="M283.842 84.0762C282.284 80.5567 279.301 79.0872 276.194 79.602C274.99 83.9171 272.953 93.399 273.326 107.683L275.554 108.731C275.554 108.731 286.509 90.0948 283.842 84.0762Z" fill="black"/>
<path d="M285.333 81.6125C287.685 87.7528 275.773 105.818 275.773 105.818L261.758 98.3299C263.863 92.7111 266.578 87.3294 269.855 82.2771C274.779 75.0791 282.742 74.8825 285.333 81.6125Z" fill="#263238"/>
<path d="M239.329 112.129L230.992 113.861L235.218 121.414C237.548 120.279 239.665 118.767 241.48 116.94L239.329 112.129Z" fill="#FFC3BD"/>
<path d="M227.055 115.576L230.382 120.088L235.219 121.454L230.993 113.9L227.055 115.576Z" fill="#FFC3BD"/>
<path d="M285.782 53.2187C285.782 53.7709 285.428 54.1547 285.055 54.1547C284.682 54.1547 284.415 53.668 284.453 53.1157C284.491 52.5635 284.807 52.1797 285.179 52.1797C285.552 52.1797 285.82 52.6664 285.782 53.2187Z" fill="#263238"/>
<path d="M286.278 53.252C285.506 54.9011 284.505 56.4382 283.305 57.8198C283.674 58.1121 284.104 58.3215 284.565 58.4331C285.026 58.5447 285.506 58.5558 285.972 58.4656L286.278 53.252Z" fill="#ED847E"/>
<path d="M285.065 51.314C285.015 51.3035 284.966 51.2845 284.922 51.2578C284.885 51.235 284.853 51.2052 284.828 51.17C284.803 51.1348 284.785 51.095 284.776 51.0531C284.767 51.0111 284.767 50.9678 284.776 50.9258C284.784 50.8838 284.802 50.8439 284.826 50.8085C285.103 50.3702 285.483 50.0025 285.933 49.7356C286.383 49.4688 286.892 49.3104 287.417 49.2734C287.504 49.2779 287.587 49.3139 287.649 49.3744C287.71 49.4349 287.747 49.5156 287.752 49.601C287.752 49.6879 287.716 49.7713 287.654 49.8327C287.591 49.8941 287.506 49.9286 287.417 49.9286C287.009 49.9659 286.616 50.0962 286.269 50.3092C285.922 50.5221 285.631 50.8118 285.419 51.1548C285.384 51.2142 285.332 51.2614 285.268 51.2899C285.205 51.3185 285.134 51.3269 285.065 51.314Z" fill="#263238"/>
<path d="M304.789 52.7286C303.967 59.4867 303.833 63.4742 300.134 66.769C294.56 71.7112 286.195 68.1262 284.933 61.2558C283.805 55.0781 285.344 45.072 292.285 42.7506C293.812 42.2333 295.449 42.1066 297.04 42.3826C298.631 42.6587 300.124 43.3283 301.377 44.3279C302.63 45.3275 303.601 46.6239 304.198 48.0942C304.795 49.5644 304.999 51.1597 304.789 52.7286Z" fill="#FFC3BD"/>
<path d="M290.877 54.0566C288.458 54.5246 284.596 49.2641 287.751 44.7993C286.154 44.0224 280.944 47.0925 278.984 44.2283C277.025 41.3641 282.464 39.8384 281.422 37.4141C285.112 38.1535 279.032 42.6652 282.541 42.2252C286.049 41.7853 290.093 35.4391 294.013 38.0412C300.944 42.5996 310.389 34.9991 306.536 44.5185C311.259 43.5825 314.49 49.0488 309.987 52.8397C301.011 60.3747 306.536 61.3669 300.848 61.7507C297.999 61.9566 291.374 58.6337 290.877 54.0566Z" fill="#263238"/>
<path d="M294.463 55.8237C294.133 56.4993 293.667 57.1033 293.094 57.6C292.521 58.0968 291.852 58.4762 291.127 58.716C289.215 59.3619 288.116 57.6864 288.565 55.8424C288.967 54.1763 290.477 51.8362 292.456 52.0047C292.89 52.0463 293.307 52.1938 293.668 52.4338C294.029 52.6738 294.323 52.9986 294.523 53.3785C294.722 53.7584 294.822 54.1813 294.811 54.6085C294.801 55.0356 294.681 55.4535 294.463 55.8237Z" fill="#FFC3BD"/>
<path d="M289.879 136.197C289.879 136.197 297.833 188.615 302.192 208.271C306.972 229.8 324.974 301.396 324.974 301.396H337.803C337.803 301.396 325.939 231.513 323.205 210.218C320.251 187.117 314.056 136.225 314.056 136.225L289.879 136.197Z" fill="#407BFF"/>
<path opacity="0.2" d="M289.879 136.197C289.879 136.197 297.833 188.615 302.192 208.271C306.972 229.8 324.974 301.396 324.974 301.396H337.803C337.803 301.396 325.939 231.513 323.205 210.218C320.251 187.117 314.056 136.225 314.056 136.225L289.879 136.197Z" fill="white"/>
<path opacity="0.2" d="M299.33 154.518C298.738 153.694 298.202 153.413 297.705 153.582H297.6C297.487 153.63 297.381 153.693 297.284 153.769C297.183 153.85 297.09 153.941 297.007 154.041L296.854 154.228L296.653 154.537C296.487 154.809 296.344 155.094 296.223 155.388C296.147 155.566 296.07 155.754 296.003 155.941C295.936 156.128 295.831 156.418 295.755 156.68C295.678 156.942 295.535 157.392 295.43 157.775C295.43 157.878 295.382 157.972 295.353 158.075C295.325 158.178 295.248 158.505 295.2 158.721C295.153 158.936 295.114 159.095 295.076 159.282C294.99 159.647 294.914 160.031 294.837 160.424C294.761 160.817 294.675 161.276 294.598 161.716C294.598 161.866 294.55 162.016 294.522 162.175C294.426 162.736 294.34 163.307 294.254 163.897C296.376 176.945 298.9 191.903 300.946 202.339C301.042 202.002 301.147 201.647 301.233 201.263C301.65 199.522 301.969 197.759 302.189 195.984C303.996 182.533 303.164 159.881 299.33 154.518Z" fill="black"/>
<path d="M276.597 136.197C276.597 136.197 275.641 187.473 276.396 208.393C277.189 230.146 284.952 301.368 284.952 301.368H296.816C296.816 301.368 297.246 231.41 297.772 210.05C298.346 186.761 301.214 136.197 301.214 136.197H276.597Z" fill="#407BFF"/>
<path opacity="0.2" d="M276.597 136.197C276.597 136.197 275.641 187.473 276.396 208.393C277.189 230.146 284.952 301.368 284.952 301.368H296.816C296.816 301.368 297.246 231.41 297.772 210.05C298.346 186.761 301.214 136.197 301.214 136.197H276.597Z" fill="white"/>
<path d="M297.598 297.806C297.646 297.806 297.598 301.597 297.598 301.597H283.917L283.344 297.338L297.598 297.806Z" fill="#263238"/>
<path d="M337.809 298.087C337.866 298.087 338.449 301.597 338.449 301.597H324.348L323.105 297.572L337.809 298.087Z" fill="#263238"/>
<path d="M327.136 311.036C326.659 311.074 326.184 310.952 325.788 310.69C325.659 310.588 325.56 310.455 325.499 310.304C325.439 310.153 325.42 309.989 325.443 309.829C325.445 309.735 325.471 309.644 325.519 309.563C325.568 309.483 325.637 309.416 325.721 309.37C326.495 308.987 328.761 310.306 329.019 310.494C329.045 310.513 329.066 310.538 329.077 310.568C329.089 310.598 329.092 310.631 329.086 310.662C329.081 310.694 329.066 310.723 329.044 310.746C329.022 310.77 328.993 310.786 328.962 310.793C328.364 310.939 327.751 311.021 327.136 311.036ZM326.094 309.623C326.021 309.607 325.946 309.607 325.874 309.623C325.84 309.642 325.813 309.669 325.794 309.702C325.776 309.735 325.767 309.773 325.768 309.81C325.754 309.92 325.767 310.031 325.807 310.134C325.847 310.236 325.913 310.328 325.998 310.4C326.778 310.755 327.669 310.802 328.484 310.531C327.754 310.08 326.942 309.772 326.094 309.623Z" fill="#407BFF"/>
<path d="M328.925 310.81C328.9 310.818 328.873 310.818 328.849 310.81C328.122 310.426 326.726 308.938 326.87 308.161C326.894 308.042 326.96 307.935 327.056 307.858C327.151 307.782 327.272 307.74 327.395 307.74C327.522 307.721 327.65 307.73 327.773 307.766C327.895 307.801 328.008 307.863 328.103 307.946C328.915 308.592 329.059 310.576 329.059 310.66C329.058 310.689 329.051 310.718 329.038 310.744C329.025 310.769 329.006 310.792 328.982 310.81C328.963 310.813 328.944 310.813 328.925 310.81ZM327.51 308.002H327.481C327.262 308.002 327.242 308.124 327.233 308.17C327.147 308.62 328.036 309.752 328.763 310.286C328.712 309.506 328.423 308.758 327.931 308.142C327.87 308.091 327.798 308.053 327.72 308.032C327.642 308.011 327.561 308.007 327.481 308.021L327.51 308.002Z" fill="#407BFF"/>
<path d="M285.028 311.034C284.428 311.088 283.828 310.94 283.327 310.613C283.216 310.514 283.131 310.392 283.078 310.255C283.025 310.118 283.005 309.972 283.021 309.826C283.021 309.738 283.046 309.65 283.093 309.575C283.14 309.499 283.208 309.437 283.288 309.396C284.139 308.928 286.959 310.332 287.275 310.491C287.307 310.505 287.333 310.53 287.348 310.56C287.364 310.591 287.368 310.626 287.361 310.659C287.357 310.693 287.341 310.724 287.317 310.748C287.293 310.771 287.261 310.786 287.227 310.79C286.504 310.941 285.768 311.023 285.028 311.034ZM283.757 309.62C283.652 309.616 283.547 309.636 283.451 309.677C283.419 309.695 283.392 309.721 283.374 309.752C283.356 309.783 283.346 309.818 283.346 309.854C283.332 309.95 283.343 310.047 283.378 310.137C283.414 310.227 283.471 310.307 283.546 310.369C283.977 310.744 285.133 310.809 286.682 310.556C285.767 310.086 284.779 309.77 283.757 309.62Z" fill="#407BFF"/>
<path d="M287.199 310.815H287.132C286.281 310.44 284.608 308.943 284.742 308.185C284.742 308.007 284.904 307.773 285.354 307.735C285.524 307.711 285.697 307.722 285.862 307.769C286.027 307.816 286.18 307.897 286.31 308.007C287.199 308.728 287.381 310.571 287.39 310.656C287.394 310.683 287.39 310.711 287.378 310.736C287.366 310.761 287.347 310.782 287.323 310.796C287.286 310.817 287.241 310.824 287.199 310.815ZM285.488 308.007H285.421C285.124 308.007 285.105 308.147 285.096 308.194C285.019 308.653 286.157 309.823 287.008 310.328C286.925 309.542 286.59 308.801 286.052 308.213C285.889 308.093 285.691 308.027 285.488 308.025V308.007Z" fill="#407BFF"/>
</svg>
