<svg width="227" height="169" viewBox="0 0 227 169" fill="none"
    xmlns="http://www.w3.org/2000/svg">
    <path d="M226.25 147.656H0.75V147.769H226.25V147.656Z" fill="#EBEBEB"/>
    <path d="M203.654 154.914H188.717V155.027H203.654V154.914Z" fill="#EBEBEB"/>
    <path d="M169.842 153.391H143.693V153.503H169.842V153.391Z" fill="#EBEBEB"/>
    <path d="M188.267 150.727H163.863V150.839H188.267V150.727Z" fill="#EBEBEB"/>
    <path d="M31.1346 151.484H24.4102V151.597H31.1346V151.484Z" fill="#EBEBEB"/>
    <path d="M64.1928 151.484H35.1484V151.597H64.1928V151.484Z" fill="#EBEBEB"/>
    <path d="M102.293 153.391H82.832V153.503H102.293V153.391Z" fill="#EBEBEB"/>
    <path d="M107.639 127.543H20.5551C19.8729 127.542 19.219 127.27 18.737 126.787C18.2551 126.304 17.9844 125.65 17.9844 124.968V2.55266C17.9903 1.87437 18.2636 1.22581 18.745 0.747856C19.2263 0.269905 19.8768 0.00116195 20.5551 0H107.639C108.322 0 108.977 0.271316 109.46 0.754262C109.943 1.23721 110.214 1.89222 110.214 2.57521V124.968C110.214 125.651 109.943 126.306 109.46 126.789C108.977 127.271 108.322 127.543 107.639 127.543ZM20.5551 0.0902003C19.9028 0.091395 19.2776 0.351358 18.8168 0.81303C18.3559 1.2747 18.0971 1.90036 18.0971 2.55266V124.968C18.0971 125.62 18.3559 126.246 18.8168 126.707C19.2776 127.169 19.9028 127.429 20.5551 127.43H107.639C108.291 127.429 108.917 127.169 109.379 126.707C109.84 126.246 110.1 125.62 110.101 124.968V2.55266C110.1 1.89994 109.84 1.2743 109.379 0.812755C108.917 0.351212 108.291 0.0913925 107.639 0.0902003H20.5551Z" fill="#EBEBEB"/>
    <path d="M205.195 127.543H118.106C117.424 127.542 116.77 127.27 116.287 126.787C115.804 126.305 115.532 125.65 115.531 124.968V2.55266C115.538 1.87396 115.813 1.2254 116.295 0.747574C116.777 0.269747 117.428 0.00114928 118.106 0H205.195C205.872 0.00234723 206.521 0.271614 207.002 0.749439C207.482 1.22726 207.755 1.87515 207.761 2.55266V124.968C207.761 125.649 207.491 126.303 207.01 126.785C206.529 127.268 205.876 127.54 205.195 127.543ZM118.106 0.0902003C117.454 0.0913925 116.828 0.351212 116.367 0.812755C115.905 1.2743 115.645 1.89994 115.644 2.55266V124.968C115.645 125.62 115.905 126.246 116.367 126.707C116.828 127.169 117.454 127.429 118.106 127.43H205.195C205.847 127.429 206.473 127.169 206.934 126.707C207.396 126.246 207.656 125.62 207.657 124.968V2.55266C207.656 1.89994 207.396 1.2743 206.934 0.812755C206.473 0.351212 205.847 0.0913925 205.195 0.0902003H118.106Z" fill="#EBEBEB"/>
    <path d="M66.7183 55H90.5176V16.3177H66.7183V55Z" fill="#F0F0F0"/>
    <path d="M61.9007 55H87.6934V16.3177H61.9007V55Z" fill="#F5F5F5"/>
    <path d="M85.5332 52.8461V18.4844H64.0611V52.8461H85.5332Z" fill="white"/>
    <path d="M80.3281 47.2415V24.0781H69.2651V47.2415H80.3281Z" fill="#F5F5F5"/>
    <path d="M30.7945 42.9375H54.5938L54.5937 4.25523H30.7945L30.7945 42.9375Z" fill="#F0F0F0"/>
    <path d="M25.9749 42.9375H51.7676L51.7676 4.25523H25.9749L25.9749 42.9375Z" fill="#F5F5F5"/>
    <path d="M49.6133 40.7836V6.42188L28.1412 6.42188L28.1412 40.7836H49.6133Z" fill="white"/>
    <path d="M44.4062 29.6497V17.5449C44.4062 14.4912 41.9307 12.0156 38.877 12.0156H38.8725C35.8188 12.0156 33.3432 14.4912 33.3432 17.5449V29.6497C33.3432 32.7035 35.8188 35.179 38.8725 35.179H38.877C41.9307 35.179 44.4062 32.7035 44.4062 29.6497Z" fill="#F5F5F5"/>
    <path d="M60.378 147.021C73.2335 143.987 81.1953 131.106 78.1611 118.25C75.1269 105.395 62.2458 97.4329 49.3903 100.467C36.5347 103.501 28.573 116.382 31.6071 129.238C34.6413 142.093 47.5225 150.055 60.378 147.021Z" fill="#E6E6E6"/>
    <g style="mix-blend-mode:multiply" opacity="0.7">
        <path d="M43.1802 109.489C44.6009 108.014 45.1737 106.251 44.4476 105.556C43.7214 104.862 41.9851 105.489 40.5644 106.968C39.1438 108.447 38.571 110.206 39.2926 110.901C40.0142 111.595 41.7551 110.946 43.1802 109.489Z" fill="#E6E6E6"/>
    </g>
    <g style="mix-blend-mode:multiply" opacity="0.7">
        <path d="M53.1163 105.002C55.1294 104.615 56.6077 103.502 56.4182 102.516C56.2288 101.531 54.4432 101.045 52.4302 101.432C50.4171 101.819 48.9388 102.932 49.1282 103.918C49.3177 104.903 51.1032 105.389 53.1163 105.002Z" fill="#E6E6E6"/>
    </g>
    <g style="mix-blend-mode:multiply" opacity="0.7">
        <path d="M51.0721 113.355C53.0069 112.678 54.2291 111.163 53.8187 109.977C53.4083 108.791 51.4961 108.376 49.5613 109.075C47.6265 109.774 46.4043 111.267 46.8102 112.453C47.2161 113.639 49.1374 114.036 51.0721 113.355Z" fill="#E6E6E6"/>
    </g>
    <path d="M72.4135 147.656H95.0176L95.0176 80.6286H72.4135V147.656Z" fill="#E6E6E6"/>
    <path d="M76.7076 147.653H72.4141V139.188H81.2086L76.7076 147.653Z" fill="#F0F0F0"/>
    <path d="M195.025 147.656H217.629V80.6286H195.025V147.656Z" fill="#E6E6E6"/>
    <path d="M72.4187 143.906L198.775 143.906V80.6219L72.4187 80.6219L72.4187 143.906Z" fill="#F0F0F0"/>
    <path d="M194.481 147.653H198.775V139.188H189.98L194.481 147.653Z" fill="#F0F0F0"/>
    <path d="M195.227 88.126V110.225H75.96V88.126H195.227ZM195.443 87.9141H75.748V110.464H195.443V87.9141Z" fill="#FDFEFF"/>
    <path d="M195.227 114.31V136.409H75.96V114.31H195.227ZM195.443 114.094H75.748V136.644H195.443V114.107V114.094Z" fill="#FDFEFF"/>
    <path d="M126.412 91.3372H144.777C145.226 91.3377 145.672 91.2497 146.088 91.0779C146.504 90.9061 146.882 90.6541 147.2 90.3362C147.518 90.0182 147.771 89.6407 147.943 89.2251C148.115 88.8095 148.204 88.364 148.204 87.9141H122.971C122.971 88.3651 123.06 88.8117 123.233 89.2282C123.406 89.6447 123.66 90.0229 123.98 90.341C124.299 90.6591 124.679 90.9108 125.096 91.0818C125.514 91.2527 125.961 91.3395 126.412 91.3372Z" fill="#FDFEFF"/>
    <path d="M126.412 117.516H144.777C145.227 117.519 145.674 117.433 146.092 117.263C146.51 117.092 146.89 116.842 147.21 116.524C147.531 116.207 147.785 115.83 147.96 115.414C148.134 114.999 148.225 114.552 148.227 114.102H122.971C122.972 114.552 123.063 114.997 123.237 115.412C123.411 115.827 123.665 116.204 123.984 116.521C124.304 116.838 124.683 117.089 125.099 117.26C125.516 117.431 125.962 117.517 126.412 117.516Z" fill="#FDFEFF"/>
    <path d="M157.112 76.0446C156.381 62.1222 155.606 48.2765 157.198 41.2905L159.796 39.9375C159.796 39.9375 159.227 41.2409 158.925 62.5732C158.623 83.9055 158.258 72.8785 158.573 76.0491L157.112 76.0446Z" fill="#E6E6E6"/>
    <path d="M162.947 24.7293C169.053 16.7105 182.664 8.65115 197.159 4.96197C202.847 3.52328 193.204 30.3984 172.733 32.9555C162.735 34.2229 158.851 47.807 156.795 54.3374C156.971 41.6508 156.84 32.7481 162.947 24.7293Z" fill="#E6E6E6"/>
    <path d="M153.584 36.2643C148.69 29.8421 137.799 23.3837 126.181 20.4432C121.621 19.2887 129.338 40.8194 145.745 42.8669C153.755 43.8682 156.862 54.7463 158.508 59.9779C158.373 49.8169 158.477 42.6866 153.584 36.2643Z" fill="#E6E6E6"/>
    <path d="M158.069 80.6265C152.928 80.6265 148.679 80.3514 148.386 75.2145L147.529 68.4766H168.605L167.748 75.2145C167.454 80.3514 163.206 80.6265 158.069 80.6265Z" fill="#F0F0F0"/>
    <path d="M169.965 71.2643H146.165L145.484 62.6953H170.65L169.965 71.2643Z" fill="#F0F0F0"/>
    <path d="M113.501 168.023C161.795 168.023 200.945 165.737 200.945 162.918C200.945 160.098 161.795 157.812 113.501 157.812C65.2068 157.812 26.0566 160.098 26.0566 162.918C26.0566 165.737 65.2068 168.023 113.501 168.023Z" fill="#F5F5F5"/>
    <path d="M125.359 53.5338C129.555 49.3385 129.555 42.5365 125.359 38.3412C121.164 34.1459 114.362 34.1458 110.167 38.3412C105.971 42.5365 105.971 49.3385 110.167 53.5338C114.362 57.7292 121.164 57.7292 125.359 53.5338Z" fill="#407BFF"/>
    <path d="M125.046 38.5222C124.853 38.5227 124.66 38.5091 124.469 38.4817L124.527 38.0307C127.003 38.3689 130.864 36.2267 132.948 33.3403C133.214 32.9749 133.462 32.6051 133.714 32.2353C135.518 29.5609 137.408 26.7962 143.636 26.7962C150.509 26.7962 155.646 22.7823 156.571 20.0312L156.999 20.1711C156.03 23.071 150.717 27.2653 143.636 27.2653C137.661 27.2653 135.933 29.8089 134.102 32.5059C133.85 32.8802 133.592 33.2546 133.326 33.6199C131.301 36.398 127.662 38.5222 125.046 38.5222Z" fill="#407BFF"/>
    <path d="M128.57 46.3756C128.596 46.3603 128.618 46.3401 128.636 46.316C128.654 46.2919 128.666 46.2645 128.673 46.2354C128.68 46.2063 128.68 46.1762 128.675 46.1468C128.67 46.1174 128.659 46.0893 128.643 46.0644C128.61 46.0142 128.559 45.9789 128.501 45.9662C128.443 45.9535 128.382 45.9645 128.331 45.9967C127.645 46.4292 126.936 46.8236 126.207 47.1783C126.207 47.0611 126.207 46.9393 126.176 46.8175C126.978 46.4297 127.777 46.0057 128.557 45.5457C128.607 45.5149 128.644 45.4654 128.658 45.4081C128.672 45.3507 128.663 45.29 128.634 45.239C128.619 45.2132 128.6 45.1906 128.576 45.1725C128.553 45.1544 128.526 45.1411 128.497 45.1336C128.469 45.126 128.439 45.1242 128.41 45.1284C128.38 45.1326 128.352 45.1426 128.327 45.1579C127.605 45.5863 126.87 45.9697 126.13 46.3305C126.04 45.5479 125.906 44.7709 125.729 44.0033C126.348 43.0079 126.901 41.9729 127.384 40.9049C127.397 40.8781 127.404 40.8489 127.405 40.8192C127.406 40.7895 127.402 40.7599 127.391 40.7321C127.381 40.7043 127.365 40.679 127.344 40.6575C127.323 40.6361 127.299 40.619 127.271 40.6073C127.217 40.5829 127.155 40.581 127.099 40.6022C127.044 40.6233 126.998 40.6657 126.974 40.72C126.562 41.6357 126.095 42.5257 125.576 43.3854C125.49 43.0517 125.391 42.7179 125.283 42.3797C125.792 41.5157 126.244 40.6193 126.636 39.6962C126.658 39.6406 126.658 39.5782 126.635 39.5226C126.613 39.467 126.569 39.4225 126.514 39.3986C126.459 39.3761 126.397 39.3764 126.342 39.3992C126.287 39.422 126.244 39.4655 126.221 39.5204C125.889 40.3033 125.512 41.0667 125.093 41.8069C124.662 40.5682 124.111 39.3749 123.447 38.244C124.146 37.9419 124.556 37.793 124.579 37.793C124.607 37.783 124.632 37.7675 124.654 37.7475C124.676 37.7274 124.693 37.7032 124.705 37.6763C124.718 37.6494 124.724 37.6203 124.725 37.5908C124.726 37.5613 124.721 37.5319 124.71 37.5044C124.689 37.4482 124.648 37.4024 124.594 37.377C124.539 37.3516 124.477 37.3488 124.421 37.3691C124.421 37.3691 123.97 37.545 123.208 37.8697C123.115 37.7103 123.016 37.56 122.91 37.4187C123.361 37.1932 123.618 37.0759 123.632 37.0669C123.659 37.0552 123.684 37.0381 123.704 37.0167C123.725 36.9952 123.741 36.9698 123.752 36.9421C123.762 36.9143 123.767 36.8846 123.766 36.855C123.765 36.8253 123.757 36.7961 123.745 36.7693C123.72 36.7149 123.675 36.6725 123.619 36.6514C123.563 36.6303 123.501 36.6321 123.447 36.6565C123.447 36.6565 123.145 36.7963 122.653 37.0444C122.342 36.5934 122.008 36.1424 121.648 35.7184C121.629 35.6956 121.606 35.6767 121.58 35.6629C121.553 35.6491 121.525 35.6407 121.495 35.6382C121.466 35.6357 121.436 35.6391 121.408 35.6482C121.38 35.6574 121.354 35.672 121.332 35.6914C121.308 35.7113 121.288 35.7361 121.274 35.764C121.26 35.792 121.252 35.8225 121.251 35.8537C121.151 35.7274 121.048 35.6057 120.944 35.4839C120.925 35.4611 120.902 35.4422 120.876 35.4284C120.85 35.4146 120.821 35.4062 120.792 35.4037C120.762 35.4012 120.733 35.4046 120.705 35.4137C120.677 35.4228 120.651 35.4375 120.628 35.4569C120.583 35.4961 120.555 35.5516 120.55 35.6114C120.544 35.6713 120.563 35.7307 120.601 35.7771C121.061 36.3073 121.489 36.8646 121.882 37.4458L121.661 37.563C121.12 36.7355 120.517 35.95 119.857 35.2133C119.836 35.1922 119.811 35.1754 119.784 35.164C119.756 35.1525 119.727 35.1466 119.697 35.1466C119.667 35.1466 119.638 35.1525 119.61 35.164C119.583 35.1754 119.558 35.1922 119.537 35.2133C119.508 35.2377 119.487 35.2709 119.478 35.308C119.447 35.2662 119.418 35.2225 119.393 35.1772C119.376 35.1521 119.355 35.1305 119.33 35.1137C119.305 35.0969 119.277 35.0853 119.248 35.0794C119.219 35.0735 119.188 35.0735 119.159 35.0795C119.129 35.0855 119.102 35.0972 119.077 35.1141C119.028 35.1463 118.994 35.1966 118.982 35.2539L118.919 35.1366C118.89 35.0848 118.841 35.0464 118.784 35.0296C118.727 35.0127 118.665 35.0188 118.612 35.0464C118.56 35.0758 118.522 35.1246 118.506 35.1821C118.49 35.2396 118.497 35.3011 118.527 35.3531C119.108 36.4039 119.641 37.4322 120.123 38.4515L120.001 38.5236C119.495 37.3292 118.892 36.1783 118.197 35.0825C118.182 35.0559 118.162 35.0327 118.137 35.0143C118.113 34.9958 118.085 34.9825 118.055 34.9752C118.025 34.9679 117.995 34.9668 117.964 34.9718C117.934 34.9769 117.905 34.988 117.88 35.0046C117.854 35.0211 117.832 35.0427 117.815 35.0681C117.797 35.0935 117.786 35.1221 117.78 35.1522C117.774 35.1823 117.775 35.2132 117.781 35.2431C117.788 35.273 117.801 35.3012 117.819 35.3261C118.508 36.4179 119.104 37.566 119.6 38.7582L119.298 38.9386C118.739 37.6185 118.094 36.3364 117.368 35.1006C117.353 35.0748 117.334 35.0521 117.31 35.034C117.287 35.0159 117.26 35.0027 117.231 34.9951C117.203 34.9875 117.173 34.9858 117.144 34.9899C117.114 34.9941 117.086 35.0041 117.061 35.0194C117.009 35.0504 116.972 35.1003 116.957 35.1584C116.942 35.2166 116.95 35.2784 116.98 35.3306C117.71 36.5676 118.355 37.8529 118.91 39.1776C118.491 39.4392 118.049 39.7188 117.593 40.021C116.907 38.4209 116.074 36.8884 115.104 35.4433C115.087 35.4187 115.066 35.3976 115.042 35.3813C115.017 35.365 114.989 35.3538 114.96 35.3483C114.931 35.3429 114.901 35.3433 114.873 35.3495C114.844 35.3558 114.816 35.3677 114.792 35.3847C114.743 35.4178 114.709 35.469 114.697 35.5273C114.685 35.5856 114.697 35.6462 114.729 35.6959C115.698 37.141 116.53 38.6735 117.214 40.2735C116.822 40.5351 116.425 40.8057 116.015 41.0989C115.183 39.3914 114.251 37.7348 113.223 36.1379C113.19 36.0876 113.138 36.0525 113.08 36.0402C113.021 36.028 112.96 36.0396 112.909 36.0725C112.859 36.1054 112.824 36.1569 112.812 36.2156C112.8 36.2744 112.811 36.3357 112.844 36.3859C113.874 37.983 114.81 39.6396 115.645 41.3469L114.986 41.825C114.256 40.057 113.489 38.217 112.731 36.413C112.719 36.3857 112.702 36.361 112.681 36.3403C112.66 36.3196 112.634 36.3033 112.607 36.2924C112.579 36.2815 112.55 36.2762 112.52 36.2768C112.49 36.2773 112.461 36.2838 112.434 36.2957C112.38 36.3195 112.337 36.3635 112.315 36.4183C112.293 36.4731 112.294 36.5344 112.316 36.5889C113.101 38.4289 113.881 40.2825 114.63 42.082L114.215 42.3932C113.489 40.5892 112.785 38.7086 112.154 36.7783C112.144 36.75 112.129 36.724 112.109 36.7017C112.09 36.6793 112.066 36.6611 112.039 36.6481C112.012 36.6351 111.983 36.6276 111.953 36.6259C111.923 36.6242 111.893 36.6285 111.865 36.6385C111.822 36.6515 111.784 36.6777 111.757 36.7132C111.73 36.7488 111.714 36.792 111.712 36.8369C111.673 36.8279 111.633 36.8279 111.595 36.8369C111.566 36.8428 111.538 36.8544 111.514 36.871C111.489 36.8876 111.468 36.9088 111.452 36.9335C111.435 36.9582 111.424 36.9859 111.418 37.015C111.413 37.0441 111.413 37.074 111.419 37.103C111.847 39.1917 112.423 41.2474 113.142 43.2546C112.343 43.8996 111.536 44.6076 110.733 45.3337C110.414 42.7615 110.567 40.1525 111.184 37.6352C111.191 37.6056 111.192 37.5749 111.187 37.5449C111.182 37.515 111.171 37.4863 111.155 37.4605C111.122 37.4085 111.07 37.3716 111.011 37.3578C110.951 37.3441 110.888 37.3546 110.836 37.3872C110.784 37.4197 110.747 37.4716 110.733 37.5314C110.087 40.2108 109.954 42.9882 110.341 45.7171L110.043 45.9922C109.653 43.444 109.729 40.8461 110.269 38.3252C110.275 38.2965 110.276 38.2667 110.271 38.2376C110.266 38.2086 110.255 38.1808 110.239 38.156C110.223 38.1312 110.202 38.1099 110.178 38.0932C110.154 38.0766 110.126 38.065 110.097 38.0591C110.068 38.0525 110.038 38.0519 110.008 38.0572C109.979 38.0625 109.95 38.0737 109.925 38.0901C109.9 38.1064 109.878 38.1277 109.861 38.1526C109.844 38.1775 109.833 38.2055 109.827 38.235C109.253 40.9129 109.193 43.6754 109.651 46.3756L109.43 46.592C109.011 44.1332 109.075 41.6163 109.619 39.1821C109.63 39.1231 109.618 39.0621 109.585 39.0117C109.553 38.9614 109.502 38.9255 109.443 38.9115C109.385 38.9007 109.325 38.913 109.275 38.9458C109.225 38.9786 109.19 39.0294 109.177 39.0874C108.595 41.6844 108.547 44.3729 109.038 46.9889L108.817 47.2144C108.288 44.8968 108.319 42.4866 108.907 40.1833C108.923 40.1235 108.915 40.0598 108.884 40.006C108.853 39.9523 108.802 39.9131 108.742 39.8969C108.682 39.8808 108.619 39.8891 108.565 39.9199C108.511 39.9508 108.472 40.0018 108.456 40.0616C107.826 42.5346 107.817 45.1248 108.429 47.6023L108.14 47.9135C107.576 46.0574 107.488 44.0894 107.883 42.1903C107.897 42.1317 107.887 42.0701 107.856 42.0187C107.824 41.9673 107.774 41.9301 107.716 41.9152C107.658 41.9016 107.597 41.9115 107.546 41.9428C107.496 41.9741 107.459 42.0241 107.446 42.082C107.019 44.1495 107.135 46.2923 107.784 48.3013C107.612 48.4908 107.441 48.6802 107.274 48.8741C107.235 48.9199 107.216 48.979 107.22 49.0388C107.225 49.0986 107.252 49.1544 107.297 49.1943C107.311 49.205 107.326 49.214 107.342 49.2214C107.319 49.2663 107.311 49.3176 107.32 49.3673C107.329 49.4171 107.354 49.4624 107.391 49.4965C107.433 49.5319 107.486 49.5511 107.54 49.5506C107.572 49.5508 107.603 49.5441 107.632 49.5308C107.661 49.5176 107.687 49.4982 107.707 49.4739L108.041 49.1041C108.104 49.2875 108.172 49.4724 108.244 49.6588C108.081 49.6363 107.91 49.6183 107.752 49.5912C107.723 49.5865 107.692 49.5876 107.663 49.5945C107.634 49.6015 107.606 49.6141 107.582 49.6317C107.558 49.6493 107.537 49.6715 107.522 49.6971C107.506 49.7226 107.495 49.751 107.491 49.7806C107.486 49.8102 107.487 49.8405 107.494 49.8697C107.501 49.8988 107.514 49.9263 107.531 49.9506C107.549 49.9749 107.571 49.9955 107.597 50.0112C107.622 50.0269 107.65 50.0375 107.68 50.0422C107.662 50.0684 107.648 50.0973 107.639 50.1279C107.629 50.1821 107.639 50.2382 107.667 50.2855C107.696 50.3329 107.74 50.3683 107.793 50.3849C107.79 50.3969 107.79 50.4091 107.793 50.421C107.786 50.4501 107.785 50.4801 107.79 50.5095C107.795 50.5388 107.806 50.5669 107.822 50.592C107.838 50.6172 107.859 50.639 107.883 50.656C107.908 50.6731 107.935 50.6852 107.964 50.6916L108.771 50.863C108.803 50.9352 108.839 51.0073 108.875 51.0795L108.447 50.9983C108.418 50.9917 108.388 50.9908 108.358 50.9959C108.329 51.0009 108.301 51.0117 108.276 51.0276C108.251 51.0435 108.229 51.0643 108.212 51.0887C108.195 51.1131 108.183 51.1406 108.176 51.1697C108.164 51.2289 108.176 51.2904 108.209 51.341C108.242 51.3916 108.293 51.4273 108.352 51.4403C108.618 51.4944 108.871 51.535 109.132 51.5801L109.195 51.7064L108.839 51.6387C108.81 51.6328 108.779 51.6328 108.749 51.6386C108.72 51.6445 108.692 51.6561 108.666 51.6729C108.641 51.6896 108.62 51.7112 108.603 51.7363C108.586 51.7614 108.574 51.7895 108.569 51.8191C108.563 51.8487 108.563 51.8792 108.568 51.9089C108.574 51.9385 108.586 51.9667 108.603 51.9918C108.619 52.0169 108.641 52.0385 108.666 52.0553C108.691 52.0721 108.719 52.0838 108.749 52.0897C108.997 52.1438 109.236 52.1799 109.484 52.225L109.606 52.437L109.38 52.3558C109.353 52.345 109.323 52.3397 109.293 52.3404C109.263 52.3411 109.234 52.3478 109.206 52.3599C109.179 52.3721 109.155 52.3896 109.134 52.4113C109.114 52.4331 109.098 52.4587 109.087 52.4866C109.067 52.5423 109.069 52.6038 109.093 52.6578C109.118 52.7118 109.163 52.754 109.218 52.7752C109.466 52.87 109.723 52.9557 109.985 53.0368C110.012 53.0729 110.034 53.109 110.057 53.1451C110.004 53.1279 109.947 53.1309 109.896 53.1534C109.845 53.1758 109.805 53.2162 109.782 53.2668C109.77 53.2941 109.763 53.3234 109.763 53.3531C109.762 53.3829 109.768 53.4124 109.778 53.4401C109.789 53.4677 109.806 53.493 109.826 53.5143C109.847 53.5357 109.872 53.5527 109.899 53.5645C110.088 53.6502 110.3 53.7269 110.521 53.8035C110.778 54.1553 111.045 54.4936 111.333 54.8183C111.333 54.8183 111.333 54.8183 111.333 54.8408H111.356C111.387 54.8588 111.423 54.8681 111.459 54.8679C111.482 54.8723 111.505 54.8723 111.527 54.8679L111.847 54.7687C112.059 55.0348 112.298 55.2963 112.506 55.5489C112.527 55.5725 112.552 55.5914 112.581 55.6046C112.61 55.6178 112.641 55.6249 112.673 55.6256C112.729 55.624 112.783 55.6033 112.826 55.5669C112.847 55.546 112.864 55.521 112.875 55.4936C112.887 55.4661 112.893 55.4366 112.893 55.4068C112.893 55.3771 112.887 55.3476 112.875 55.3201C112.864 55.2926 112.847 55.2677 112.826 55.2467C112.646 55.0438 112.47 54.8273 112.294 54.6153L112.438 54.5657C112.889 55.1926 113.403 55.8105 113.953 56.4193C113.974 56.4431 114 56.4622 114.029 56.4754C114.057 56.4886 114.089 56.4956 114.12 56.496C114.175 56.4949 114.228 56.4741 114.269 56.4374C114.294 56.4129 114.314 56.3838 114.328 56.3517C114.354 56.3307 114.375 56.3039 114.389 56.2733C114.403 56.2428 114.41 56.2094 114.409 56.1758C114.459 56.2389 114.504 56.3066 114.549 56.3697C114.57 56.3981 114.598 56.421 114.631 56.4366C114.663 56.4523 114.698 56.4603 114.734 56.4599C114.781 56.4603 114.827 56.4444 114.864 56.4148C114.889 56.3974 114.909 56.3754 114.924 56.3501C114.94 56.3247 114.95 56.2966 114.955 56.2673C114.959 56.2379 114.958 56.208 114.951 56.1791C114.944 56.1503 114.932 56.1231 114.914 56.0991C114.511 55.5532 114.137 54.9872 113.791 54.4034C114.183 54.4304 114.585 54.4485 115.004 54.4485C116.164 54.4419 117.322 54.3347 118.463 54.1283C119.442 55.6752 120.119 56.5637 120.137 56.5907C120.158 56.6179 120.186 56.6398 120.217 56.6546C120.248 56.6695 120.282 56.6769 120.317 56.6764C120.366 56.6774 120.414 56.6615 120.452 56.6313C120.48 56.6098 120.501 56.5824 120.516 56.5511C120.531 56.5198 120.539 56.4855 120.538 56.4509C120.553 56.4535 120.568 56.4535 120.583 56.4509C120.61 56.4552 120.637 56.4552 120.664 56.4509H120.687L120.718 56.4238L120.746 56.3878V56.3472C120.746 56.3472 120.746 56.3201 120.746 56.3066V56.3336L120.791 56.3607H120.813C120.84 56.3649 120.867 56.3649 120.894 56.3607H120.939H120.962H121.007L121.039 56.3336L121.07 56.3066C121.079 56.2956 121.087 56.2835 121.093 56.2705C121.094 56.257 121.094 56.2434 121.093 56.2299C121.095 56.215 121.095 56.1997 121.093 56.1848C121.095 56.1759 121.095 56.1667 121.093 56.1577C121.093 56.1262 121.057 55.143 120.885 53.569C121.102 53.5059 121.314 53.4382 121.526 53.3661C121.497 54.215 121.417 55.0614 121.287 55.9007C121.282 55.93 121.282 55.9601 121.289 55.9891C121.295 56.0182 121.307 56.0457 121.325 56.07C121.342 56.0943 121.364 56.115 121.389 56.1308C121.414 56.1467 121.442 56.1573 121.472 56.1623H121.62C121.673 56.163 121.725 56.1447 121.765 56.1108C121.806 56.0768 121.833 56.0295 121.841 55.9774C121.867 55.9957 121.896 56.008 121.927 56.0134H121.972C122.019 56.0124 122.064 55.9972 122.102 55.9698C122.14 55.9424 122.169 55.9042 122.184 55.8601H122.22H122.27C122.321 55.8595 122.371 55.8419 122.411 55.8101C122.451 55.7782 122.479 55.7339 122.491 55.6842C122.712 54.692 122.879 53.7449 123.001 52.8249L123.217 52.7301C123.113 53.5239 122.973 54.3447 122.798 55.2016C122.792 55.2307 122.791 55.2606 122.797 55.2896C122.803 55.3187 122.814 55.3464 122.83 55.3711C122.847 55.3958 122.868 55.4171 122.892 55.4336C122.917 55.4502 122.944 55.4618 122.973 55.4677H123.019C123.071 55.4677 123.121 55.4498 123.161 55.4169C123.201 55.384 123.229 55.3383 123.24 55.2873C123.438 54.3222 123.591 53.3976 123.691 52.5046L123.848 52.4325C123.731 53.2037 123.6 53.9884 123.429 54.8002C123.423 54.8293 123.423 54.8592 123.429 54.8882C123.434 54.9173 123.445 54.945 123.462 54.9697C123.478 54.9944 123.499 55.0157 123.524 55.0323C123.548 55.0488 123.576 55.0604 123.605 55.0663H123.65C123.702 55.0655 123.752 55.0473 123.792 55.0145C123.832 54.9818 123.86 54.9365 123.871 54.8859C124.065 53.9569 124.214 53.0549 124.322 52.1799L124.773 51.9454C124.618 52.731 124.4 53.5031 124.124 54.2545C124.113 54.282 124.108 54.3114 124.108 54.341C124.109 54.3705 124.116 54.3996 124.128 54.4265C124.14 54.4534 124.158 54.4776 124.179 54.4976C124.201 54.5177 124.227 54.5332 124.254 54.5432C124.281 54.5495 124.309 54.5495 124.335 54.5432C124.382 54.5419 124.426 54.5271 124.464 54.5007C124.502 54.4742 124.531 54.4372 124.547 54.3943C124.876 53.4982 125.123 52.5745 125.287 51.6342C125.368 51.5846 125.449 51.544 125.526 51.4944C125.4 52.194 125.197 52.8776 124.922 53.5329C124.907 53.5672 124.901 53.6046 124.904 53.6418C124.907 53.679 124.919 53.7149 124.939 53.7464C124.959 53.7779 124.986 53.8041 125.019 53.8227C125.051 53.8413 125.087 53.8517 125.125 53.8531C125.169 53.8533 125.212 53.8406 125.249 53.8165C125.286 53.7925 125.315 53.7582 125.332 53.7178C125.675 52.9017 125.913 52.0455 126.04 51.1697C126.685 50.7548 127.306 50.303 127.898 49.8167C127.921 49.798 127.94 49.7749 127.954 49.7487C127.968 49.7226 127.976 49.694 127.979 49.6646C127.981 49.6351 127.978 49.6055 127.969 49.5774C127.959 49.5493 127.945 49.5233 127.925 49.501C127.906 49.4767 127.881 49.457 127.853 49.443C127.825 49.429 127.794 49.4211 127.763 49.4198C127.885 49.3161 128.016 49.2214 128.137 49.1131C128.16 49.0941 128.178 49.0707 128.192 49.0445C128.205 49.0182 128.213 48.9895 128.215 48.96C128.217 48.9306 128.214 48.9011 128.204 48.8731C128.195 48.8452 128.18 48.8195 128.16 48.7974C128.121 48.752 128.065 48.7238 128.005 48.7187C127.946 48.7136 127.886 48.7322 127.84 48.7704C127.31 49.2312 126.753 49.6589 126.171 50.0512L126.198 49.7445C126.974 49.22 127.711 48.6397 128.404 48.0082C128.425 47.9876 128.441 47.963 128.453 47.9359C128.464 47.9088 128.47 47.8797 128.47 47.8503C128.47 47.8209 128.464 47.7918 128.453 47.7647C128.441 47.7376 128.425 47.7131 128.404 47.6925C128.377 47.6631 128.343 47.6426 128.304 47.6339L128.44 47.5436C128.489 47.5106 128.523 47.4593 128.535 47.4011C128.547 47.3428 128.535 47.2822 128.503 47.2325C128.469 47.1852 128.419 47.1516 128.363 47.1377L128.48 47.0746C128.533 47.0453 128.572 46.9963 128.588 46.9384C128.605 46.8804 128.597 46.8183 128.568 46.7657C128.539 46.713 128.49 46.6742 128.432 46.6577C128.374 46.6412 128.312 46.6484 128.259 46.6777C127.565 47.0656 126.879 47.4264 126.198 47.7737C126.2 47.7331 126.2 47.6924 126.198 47.6519C127.014 47.2741 127.806 46.8479 128.57 46.3756ZM125.774 47.3813L125.585 47.467C125.585 47.3452 125.585 47.2234 125.585 47.1017L125.77 47.016C125.761 47.1377 125.77 47.2595 125.774 47.3632V47.3813ZM125.815 48.5043V48.6531L125.594 48.7749C125.594 48.7163 125.594 48.6621 125.594 48.6035L125.815 48.5043ZM122.099 51.3546C122.099 51.1877 122.099 51.0163 122.071 50.845L122.148 50.8179C122.148 50.9938 122.148 51.1607 122.148 51.3366L122.099 51.3546ZM122.148 51.7785C122.148 51.9003 122.148 52.0176 122.148 52.1348H122.117V51.7876L122.148 51.7785ZM119.708 53.4292L119.663 53.3164L120.055 53.2262L120.083 53.3345C119.956 53.3661 119.816 53.4021 119.708 53.4292ZM120.195 53.7629C120.479 54.8724 120.646 55.6526 120.718 55.9864L119.875 53.8441L120.195 53.7629ZM115.649 52.3874L116.132 52.0446L116.903 51.986L116.213 52.3829L115.649 52.3874ZM123.316 46.5244C123.24 46.6191 123.158 46.7138 123.077 46.804C123.041 46.4387 122.996 46.0779 122.937 45.7216C123.019 45.6269 123.095 45.5277 123.172 45.4285C123.244 45.8028 123.289 46.1681 123.33 46.5424L123.316 46.5244ZM123.551 44.9414C123.673 44.7835 123.79 44.6212 123.907 44.4543C123.97 44.8286 124.02 45.203 124.065 45.5863C123.948 45.7396 123.835 45.8885 123.718 46.0373C123.686 45.681 123.627 45.3157 123.564 44.9594L123.551 44.9414ZM112.727 53.6006H112.817L112.754 53.6321L112.727 53.6006ZM112.447 53.1045C112.357 52.9466 112.267 52.7798 112.181 52.6129H112.348C112.429 52.7843 112.506 52.9511 112.591 53.1135L112.447 53.1045ZM111.937 52.1348C111.91 52.0717 111.879 52.0086 111.847 51.9454H112.046C112.077 52.0086 112.104 52.0717 112.131 52.1348H111.937ZM111.631 51.4764C111.599 51.4042 111.563 51.3321 111.532 51.2554L111.766 51.2824C111.793 51.3546 111.82 51.4268 111.852 51.4989L111.631 51.4764ZM111.392 50.2767V50.3038H111.13H111.387L111.392 50.2767ZM111.32 50.7503H111.563V50.7954H111.311L111.32 50.7503ZM119.086 50.0241C119.126 50.1459 119.167 50.2677 119.203 50.3849C118.978 50.4391 118.752 50.4842 118.527 50.5293L118.414 50.2496L118.549 50.1324L119.086 50.0241ZM118.261 51.084L118.134 51.1697L118.085 51.075L118.247 51.0479L118.261 51.084ZM117.94 50.633L118.049 50.5473C118.053 50.5692 118.061 50.5905 118.071 50.6104L117.94 50.633ZM117.62 51.1471C117.661 51.2373 117.706 51.3185 117.746 51.4042L117.363 51.4583L117.223 51.2058L117.62 51.1471ZM120.466 49.9791C120.624 49.8483 120.782 49.7175 120.917 49.5777L121.472 49.4198L121.499 49.7445C121.156 49.8573 120.809 49.9655 120.461 50.0602L120.466 49.9791ZM121.869 48.7253C121.914 48.6847 121.954 48.6396 121.995 48.599C121.995 48.6666 121.995 48.7298 121.995 48.7974L121.864 48.8335L121.869 48.7253ZM121.927 49.298L122.053 49.2574V49.5596L121.941 49.5957C121.977 49.5145 121.972 49.4153 121.959 49.3161L121.927 49.298ZM122.491 49.1176L122.743 49.0365V49.3116L122.509 49.4018C122.522 49.3251 122.522 49.2304 122.522 49.1357L122.491 49.1176ZM122.45 48.6666C122.45 48.5539 122.45 48.4456 122.419 48.3329L122.721 48.2337C122.721 48.3419 122.721 48.4547 122.721 48.5674L122.45 48.6666ZM120.718 49.1763L120.335 49.271C120.335 49.1808 120.304 49.0906 120.286 49.0004L121.21 48.7298C121.079 48.8966 120.917 49.0455 120.75 49.1898L120.718 49.1763ZM119.586 50.1144C119.586 50.0557 119.55 49.9926 119.528 49.9294L119.943 49.8347L119.586 50.1144ZM117.331 50.5654L117.056 50.7773H116.989L116.804 50.4346L117.255 50.3669L117.331 50.5654ZM116.506 50.845C115.035 50.9829 113.553 50.9829 112.082 50.845C112.082 50.8179 112.082 50.7908 112.05 50.7593H112.267C113.624 50.7555 114.98 50.6636 116.326 50.4842L116.506 50.845ZM112.271 51.3366C112.934 51.3862 113.579 51.4177 114.211 51.4177C114.937 51.4177 115.645 51.3817 116.339 51.3185L115.951 51.5981C114.749 51.6689 113.543 51.6538 112.343 51.553L112.271 51.3366ZM116.862 51.4899V51.526H116.781L116.862 51.4899ZM119.352 50.872C119.379 50.9577 119.402 51.0389 119.429 51.1201L118.847 51.2373C119.045 51.1246 119.212 51.0028 119.365 50.8765L119.352 50.872ZM119.803 50.7367L120.141 50.6465C120.141 50.7457 120.173 50.845 120.191 50.9397L119.884 51.0164L119.803 50.7367ZM120.579 50.5293C120.917 50.4346 121.251 50.3353 121.584 50.2271V50.5202C121.269 50.6285 120.944 50.7277 120.615 50.8224C120.619 50.7322 120.606 50.633 120.588 50.5202L120.579 50.5293ZM122.022 50.0783L122.112 50.0467V50.3399L122.026 50.3714C122.044 50.2767 122.035 50.182 122.031 50.0692L122.022 50.0783ZM122.554 49.8889L122.771 49.8077C122.771 49.9024 122.771 50.0061 122.771 50.1008L122.581 50.173L122.554 49.8889ZM123.222 49.6363L123.452 49.5461C123.452 49.6363 123.452 49.7265 123.452 49.8167L123.231 49.9114L123.222 49.6363ZM123.222 49.1492V48.8966L123.461 48.811V49.0545L123.222 49.1492ZM123.222 48.4186C123.222 48.3058 123.222 48.1931 123.199 48.0803L123.447 47.9856C123.447 48.1029 123.447 48.2202 123.447 48.3374L123.222 48.4186ZM123.167 47.6068C123.167 47.5482 123.167 47.4895 123.167 47.4309L123.402 47.1648L123.429 47.5121L123.167 47.6068ZM122.694 47.2776L122.378 47.6113C122.338 47.2685 122.297 46.9213 122.243 46.5785C122.351 46.4567 122.459 46.335 122.563 46.2087C122.608 46.565 122.653 46.9123 122.689 47.2821L122.694 47.2776ZM121.981 48.0262L121.828 48.0758C121.787 47.7827 121.742 47.4895 121.693 47.1738L121.855 46.9979C121.891 47.3633 121.941 47.697 121.977 48.0307L121.981 48.0262ZM121.386 48.2292C121.057 48.3329 120.723 48.4276 120.394 48.5223C120.7 48.2247 121.003 47.918 121.296 47.6203C121.332 47.8143 121.354 48.0262 121.381 48.2337L121.386 48.2292ZM119.884 49.1312C119.884 49.2214 119.92 49.3116 119.934 49.3973L119.429 49.5145C119.419 49.4911 119.412 49.467 119.406 49.4424L119.686 49.1898L119.884 49.1312ZM118.382 49.7355L118.242 49.7626C118.215 49.6904 118.188 49.6137 118.157 49.5416C118.355 49.501 118.558 49.4604 118.757 49.4108L118.382 49.7355ZM117.791 49.8392L117.53 49.8843L117.435 49.6904L117.71 49.6363L117.791 49.8392ZM117.065 49.9655L116.614 50.0241L116.524 49.8528C116.678 49.8302 116.826 49.7986 116.975 49.7716C117.002 49.8392 117.034 49.8979 117.061 49.9655H117.065ZM116.136 50.0873C114.736 50.2653 113.326 50.3467 111.915 50.3308V50.2902C113.304 50.2588 114.69 50.1368 116.064 49.9249L116.136 50.0873ZM111.744 49.8392C111.35 48.6739 111.049 47.4796 110.842 46.2673C111.703 45.5006 112.573 44.7835 113.439 44.1206C114.137 45.9565 114.932 47.7541 115.821 49.5055C114.469 49.7045 113.105 49.816 111.739 49.8392H111.744ZM111.293 49.8392H111.022C110.678 48.8756 110.403 47.8883 110.201 46.8852L110.481 46.6191C110.669 47.711 110.932 48.7885 111.27 49.8437L111.293 49.8392ZM110.535 49.8392H110.345C110.041 49.071 109.793 48.281 109.606 47.476L109.813 47.2685C109.994 48.1357 110.228 48.9912 110.512 49.8302L110.535 49.8392ZM111.072 51.2283C111.103 51.296 111.13 51.3726 111.162 51.4403H111.063L110.945 51.2193L111.072 51.2283ZM111.378 51.9184L111.459 52.0852H111.41C111.378 52.0311 111.347 51.977 111.32 51.9184H111.378ZM113.182 53.2217C113.092 53.0504 113.006 52.879 112.921 52.6986C113.372 52.7437 113.823 52.7753 114.274 52.7978L113.53 53.2488L113.182 53.2217ZM112.7 52.2386L112.605 52.0311C113.272 52.0807 113.931 52.1123 114.558 52.1123C114.815 52.1123 115.058 52.1123 115.306 52.1123L114.855 52.4054C114.152 52.3603 113.426 52.3242 112.682 52.2295L112.7 52.2386ZM117.34 52.2701L117.381 52.3333H117.214L117.34 52.2701ZM117.724 52.0311C117.814 51.977 117.904 51.9229 117.99 51.8642L118.188 52.2521L117.855 52.2882L117.724 52.0311ZM118.477 51.7876H118.576C118.63 51.9274 118.684 52.0672 118.739 52.198H118.684L118.477 51.7876ZM118.901 52.5813C118.923 52.6354 118.942 52.685 118.96 52.7392C118.937 52.6867 118.911 52.6356 118.883 52.5858L118.901 52.5813ZM119.514 52.906C119.465 52.7752 119.411 52.6445 119.356 52.5092L119.848 52.419C119.884 52.5452 119.92 52.6805 119.956 52.8023L119.514 52.906ZM119.194 52.1033L119.027 51.6838C119.221 51.6478 119.415 51.6117 119.604 51.5666C119.65 51.7199 119.69 51.8687 119.731 52.0176C119.537 52.0401 119.365 52.0672 119.176 52.0942L119.194 52.1033ZM120.042 51.4628L120.286 51.3997C120.308 51.5575 120.335 51.7154 120.353 51.8507L120.173 51.8958C120.114 51.756 120.069 51.6072 120.024 51.4538L120.042 51.4628ZM120.723 51.2869C121.039 51.2013 121.345 51.1066 121.625 51.0073C121.625 51.1697 121.648 51.3411 121.652 51.5034C121.359 51.5981 121.07 51.6883 120.773 51.765C120.755 51.6026 120.718 51.4222 120.718 51.2779L120.723 51.2869ZM122.617 50.6646L122.761 50.6059C122.761 50.7773 122.761 50.9487 122.739 51.1201L122.617 51.1697C122.595 50.9713 122.599 50.8269 122.599 50.6556L122.617 50.6646ZM123.226 50.4255L123.456 50.3263C123.456 50.4932 123.456 50.6646 123.424 50.8314C123.348 50.8675 123.276 50.9081 123.199 50.9397C123.194 50.7593 123.199 50.5879 123.208 50.4165L123.226 50.4255ZM123.916 50.1279L124.146 50.0241C124.146 50.1865 124.124 50.3444 124.11 50.5067L123.889 50.6104L123.916 50.1279ZM123.916 49.6273C123.916 49.5416 123.916 49.4559 123.916 49.3702C124.002 49.3341 124.087 49.3026 124.173 49.262V49.51L123.916 49.6273ZM123.916 48.8786V48.6621L124.2 48.5539C124.2 48.6215 124.2 48.6847 124.2 48.7568L123.916 48.8786ZM123.916 48.1841C123.916 48.0623 123.916 47.945 123.916 47.8278L124.236 47.7015C124.236 47.8233 124.236 47.945 124.236 48.0623L123.916 48.1841ZM123.875 47.3632C123.875 47.1423 123.839 46.9122 123.817 46.7003L124.16 46.2809C124.16 46.592 124.191 46.9168 124.205 47.237L123.875 47.3632ZM124.534 45.7938L124.931 45.2436C125.012 45.7802 125.071 46.3124 125.111 46.8401L124.624 47.0521C124.593 46.6056 124.561 46.1816 124.52 45.7712L124.534 45.7938ZM124.462 45.1263C124.412 44.7474 124.349 44.3776 124.277 44.0078L124.593 43.5568C124.678 43.9086 124.755 44.2649 124.823 44.6212L124.462 45.1263ZM124.151 43.399C123.79 41.7734 123.199 40.2077 122.396 38.7491L122.644 38.6319C123.423 39.9915 124.029 41.4429 124.448 42.9525L124.151 43.399ZM123.83 43.85C123.709 44.0213 123.587 44.1927 123.461 44.3596C123.078 42.5332 122.472 40.761 121.657 39.0829L121.999 38.916C122.857 40.4551 123.47 42.1181 123.817 43.8454L123.83 43.85ZM121.463 38.677L121.255 38.2756L121.535 38.1223L121.783 38.5236L121.463 38.677ZM121.057 38.8799L120.876 38.9701C120.822 38.8439 120.768 38.7131 120.709 38.5868L120.863 38.5011C120.912 38.6184 120.98 38.7446 121.043 38.8754L121.057 38.8799ZM121.255 39.2813C122.113 41.0479 122.732 42.921 123.095 44.8512L122.861 45.1579C122.478 43.1705 121.873 41.2325 121.057 39.3805L121.255 39.2813ZM122.482 45.6224L122.157 46.0148C121.796 43.8595 121.23 41.7437 120.466 39.6962L120.642 39.6061C121.49 41.5292 122.104 43.5477 122.468 45.6179L122.482 45.6224ZM121.765 46.4612L121.589 46.6552C121.189 44.4075 120.578 42.2028 119.762 40.0706L120.065 39.9037C120.85 42.027 121.419 44.2239 121.765 46.4612ZM121.206 47.0746C120.854 47.4489 120.497 47.8097 120.141 48.157C119.632 45.7324 118.92 43.3548 118.012 41.0492C118.463 40.7786 118.914 40.5261 119.365 40.2871C120.2 42.4775 120.817 44.745 121.206 47.0566V47.0746ZM119.753 48.5223L119.474 48.7884L119.199 48.8561C118.418 46.5277 117.507 44.2451 116.47 42.0189C116.867 41.7663 117.259 41.5183 117.643 41.2883C118.551 43.6289 119.257 46.0431 119.753 48.5043V48.5223ZM118.761 48.9733L117.981 49.1402C117.21 47.228 116.321 45.0496 115.37 42.754L116.087 42.2715C117.101 44.4466 117.994 46.6765 118.761 48.9508V48.9733ZM117.534 49.2349L117.232 49.298C116.384 47.5256 115.469 45.5006 114.567 43.3178L114.991 43.0156C115.915 45.2255 116.777 47.3633 117.534 49.2124V49.2349ZM116.768 49.3747L116.317 49.4559C115.388 47.6378 114.561 45.7693 113.841 43.859L114.211 43.5884C115.063 45.672 115.951 47.6293 116.768 49.3522V49.3747ZM113.665 43.417L114.012 43.1464V43.1735L113.665 43.417ZM109.204 47.8594C109.372 48.5267 109.58 49.1833 109.827 49.8257H109.552C109.335 49.2529 109.146 48.6802 108.988 48.0939L109.204 47.8594ZM110.391 51.1516C110.427 51.2238 110.454 51.296 110.49 51.3681L110.215 51.3275L110.106 51.1066L110.391 51.1516ZM110.742 51.8507L110.828 52.0086L110.539 51.9634C110.512 51.9138 110.481 51.8642 110.454 51.8101L110.742 51.8507ZM111.09 52.5001C111.175 52.649 111.27 52.7933 111.36 52.9511L111.067 52.879C110.981 52.7437 110.905 52.6084 110.824 52.4686L111.09 52.5001ZM111.68 53.4608C111.735 53.5465 111.793 53.6231 111.847 53.7043L111.572 53.6457C111.518 53.569 111.468 53.4878 111.419 53.4112L111.68 53.4608ZM114.256 53.3255C114.504 53.1721 114.756 53.0098 115.022 52.8339H115.379C115.027 53.0143 114.689 53.1766 114.359 53.3255H114.256ZM116.371 52.8294C116.79 52.8294 117.196 52.7888 117.598 52.7527C117.688 52.906 117.773 53.0504 117.864 53.2037C117.034 53.3106 116.198 53.3649 115.361 53.3661C115.69 53.1721 116.028 52.9962 116.371 52.8068V52.8294ZM118.094 52.7031L118.396 52.667L118.608 53.0864L118.346 53.127L118.094 52.7031ZM118.824 53.5014L118.892 53.6321L118.684 53.6727L118.603 53.5419L118.824 53.5014ZM120.493 53.1406C120.493 53.1406 120.493 53.1766 120.493 53.1947V53.1406ZM120.376 52.6896C120.34 52.5678 120.308 52.4415 120.272 52.3197L120.394 52.2882C120.394 52.419 120.43 52.5452 120.443 52.6715L120.376 52.6896ZM120.827 52.1844C121.102 52.1123 121.377 52.0311 121.648 51.9499C121.648 52.0672 121.648 52.189 121.648 52.3062C121.39 52.3919 121.129 52.4731 120.867 52.5497C120.867 52.4235 120.849 52.3242 120.836 52.1799L120.827 52.1844ZM122.559 52.5227C122.556 52.5047 122.556 52.4865 122.559 52.4686C122.561 52.4865 122.561 52.5047 122.559 52.5227ZM122.581 51.9815C122.581 51.8687 122.581 51.756 122.581 51.6432L122.662 51.6117C122.662 51.7244 122.662 51.8462 122.626 51.9634L122.581 51.9815ZM123.136 51.4222L123.357 51.3321C123.357 51.4448 123.334 51.553 123.325 51.6658L123.104 51.765C123.127 51.6342 123.14 51.517 123.149 51.4222H123.136ZM123.83 51.1156L124.024 51.0254C124.024 51.1381 124.002 51.2464 123.988 51.3546L123.799 51.4493C123.821 51.323 123.835 51.2103 123.844 51.0975L123.83 51.1156ZM124.493 50.7909C124.669 50.7007 124.841 50.6059 125.012 50.5112L124.971 50.8359C124.805 50.9307 124.633 51.0254 124.457 51.1156C124.484 50.9713 124.498 50.881 124.507 50.7728L124.493 50.7909ZM124.543 50.2677C124.543 50.1144 124.543 49.97 124.565 49.8167L125.102 49.5551C125.102 49.6949 125.08 49.8347 125.066 49.97C124.908 50.0692 124.732 50.1504 124.556 50.2496L124.543 50.2677ZM125.562 49.3161L125.792 49.1898C125.792 49.3026 125.792 49.4108 125.792 49.5235L125.558 49.6769C125.562 49.5371 125.567 49.4198 125.576 49.298L125.562 49.3161ZM125.111 49.0319C124.94 49.1267 124.759 49.2169 124.584 49.3026V49.0725L125.102 48.838C125.143 48.8831 125.143 48.9508 125.138 49.0139L125.111 49.0319ZM124.606 48.5809V48.3915L125.125 48.1796V48.3374L124.606 48.5809ZM124.606 47.9044C124.606 47.7827 124.606 47.6564 124.606 47.5346L125.102 47.3227V47.6925L124.606 47.9044ZM125.679 46.5514L125.508 46.6326C125.454 45.9922 125.373 45.3473 125.256 44.6978L125.364 44.5355C125.535 45.212 125.634 45.884 125.707 46.5424L125.679 46.5514ZM125.228 43.9221C125.201 43.9717 125.17 44.0168 125.138 44.0664C125.066 43.7147 124.98 43.3674 124.886 43.0156L124.953 42.9074C125.08 43.2366 125.17 43.5749 125.251 43.9131L125.228 43.9221ZM124.741 42.4022C124.367 41.1528 123.869 39.944 123.253 38.7942C123.88 39.9126 124.396 41.0892 124.796 42.3075L124.741 42.4022ZM122.13 37.775L122.401 38.226L122.162 38.3342L121.909 37.9103L122.13 37.775ZM121.273 37.7254L121.03 37.8607C120.669 37.1932 120.286 36.5438 119.893 35.9169C120.389 36.496 120.85 37.1044 121.273 37.7389V37.7254ZM119.393 35.971C119.844 36.652 120.245 37.351 120.637 38.0817L120.502 38.1629C120.155 37.4413 119.789 36.7197 119.393 35.9845V35.971ZM120.295 38.7988C120.349 38.916 120.398 39.0378 120.452 39.1596L120.29 39.2407C120.24 39.1235 120.195 39.0017 120.146 38.8844L120.295 38.7988ZM119.753 39.119C119.803 39.2272 119.844 39.34 119.889 39.4527L119.586 39.6151C119.546 39.5068 119.51 39.3986 119.465 39.2949L119.753 39.119ZM119.077 39.5339C119.113 39.6331 119.149 39.7323 119.19 39.8316C118.761 40.0706 118.315 40.3231 117.837 40.5982C117.81 40.5216 117.778 40.4494 117.751 40.3773C118.224 40.0886 118.666 39.809 119.086 39.5474L119.077 39.5339ZM117.381 40.6298L117.462 40.8328C117.07 41.0673 116.673 41.3198 116.267 41.5814L116.199 41.4461C116.614 41.171 117.007 40.9004 117.39 40.6434L117.381 40.6298ZM115.83 41.7122L115.884 41.825C115.654 41.9783 115.433 42.1316 115.185 42.276L115.153 42.1903C115.388 42.0505 115.613 41.8881 115.839 41.7257L115.83 41.7122ZM114.779 42.4879L114.806 42.5556L114.404 42.8532C114.404 42.8532 114.404 42.8217 114.404 42.8036L114.779 42.4879ZM112.028 37.8877C112.591 39.5249 113.2 41.1259 113.832 42.6593L113.502 42.9209C112.915 41.2751 112.426 39.5959 112.037 37.8922L112.028 37.8877ZM108.361 48.7117C108.447 48.617 108.537 48.5268 108.623 48.4366C108.749 48.8876 108.893 49.3116 109.074 49.749L108.749 49.722C108.605 49.3792 108.478 49.0455 108.37 48.7162L108.361 48.7117ZM109.263 50.9667L109.547 51.0209L109.646 51.2373L109.38 51.1922C109.362 51.093 109.322 51.0209 109.286 50.9442L109.263 50.9667ZM109.642 51.6883L109.894 51.7379C109.894 51.7785 109.935 51.8236 109.958 51.8642L109.714 51.8191L109.642 51.6883ZM110.012 52.3288L110.233 52.3694C110.296 52.4866 110.359 52.5994 110.422 52.7076L110.219 52.649L110.012 52.3288ZM110.796 53.2262C110.842 53.2939 110.887 53.3615 110.927 53.4292L110.783 53.3841L110.639 53.1902L110.796 53.2262ZM111.315 54.002L111.563 54.3357C111.459 54.2185 111.36 54.0967 111.261 53.9749L111.315 54.002ZM113.854 55.2738C113.651 54.9897 113.435 54.6785 113.214 54.3312H113.281C113.453 54.674 113.647 54.9852 113.841 55.2873L113.854 55.2738ZM114.003 53.9524L114.454 53.7539C114.743 53.7539 115.031 53.7539 115.325 53.7539C116.261 53.7515 117.197 53.6852 118.125 53.5555C118.157 53.6051 118.184 53.6547 118.215 53.6998C116.821 53.9452 115.404 54.0345 113.99 53.9659L114.003 53.9524ZM119.122 54.002C119.447 54.6243 119.722 55.1295 119.934 55.5128C119.672 55.143 119.343 54.6469 118.955 54.0381L119.122 54.002ZM120.962 53.0729C120.962 53.0459 120.962 53.0143 120.962 52.9827C121.201 52.9151 121.445 52.8384 121.684 52.7617C121.684 52.7888 121.684 52.8113 121.684 52.8384C121.422 52.9376 121.169 53.0143 120.948 53.0864L120.962 53.0729ZM123.073 52.2882C123.075 52.2717 123.075 52.255 123.073 52.2386L123.294 52.1484V52.1889L123.073 52.2882ZM123.776 51.9634V51.9319L123.952 51.8507V51.8732L123.776 51.9634ZM124.43 51.6207L124.881 51.3862L124.43 51.6297V51.6207ZM125.734 50.3624L125.486 50.5157C125.486 50.4075 125.513 50.3038 125.522 50.1955L125.765 50.0512C125.743 50.1685 125.729 50.2722 125.72 50.3759L125.734 50.3624ZM126.261 49.1853C126.261 49.0951 126.261 49.0049 126.261 48.9102C126.748 48.6351 127.222 48.3509 127.686 48.0578C127.208 48.4727 126.735 48.8561 126.248 49.1988L126.261 49.1853ZM127.614 47.5797C127.175 47.8563 126.724 48.1269 126.261 48.3915C126.264 48.351 126.264 48.3103 126.261 48.2698C126.699 48.0623 127.145 47.8142 127.596 47.5933L127.614 47.5797ZM125.81 47.9901L125.603 48.0894V47.945L125.806 47.8548C125.801 47.9135 125.806 47.9586 125.806 48.0037L125.81 47.9901Z" fill="#407BFF"/>
    <path opacity="0.2" d="M128.57 46.3756C128.596 46.3603 128.618 46.3401 128.636 46.316C128.654 46.2919 128.666 46.2645 128.673 46.2354C128.68 46.2063 128.68 46.1762 128.675 46.1468C128.67 46.1174 128.659 46.0893 128.643 46.0644C128.61 46.0142 128.559 45.9789 128.501 45.9662C128.443 45.9535 128.382 45.9645 128.331 45.9967C127.645 46.4292 126.936 46.8236 126.207 47.1783C126.207 47.0611 126.207 46.9393 126.176 46.8175C126.978 46.4297 127.777 46.0057 128.557 45.5457C128.607 45.5149 128.644 45.4654 128.658 45.4081C128.672 45.3507 128.663 45.29 128.634 45.239C128.619 45.2132 128.6 45.1906 128.576 45.1725C128.553 45.1544 128.526 45.1411 128.497 45.1336C128.469 45.126 128.439 45.1242 128.41 45.1284C128.38 45.1326 128.352 45.1426 128.327 45.1579C127.605 45.5863 126.87 45.9697 126.13 46.3305C126.04 45.5479 125.906 44.7709 125.729 44.0033C126.348 43.0079 126.901 41.9729 127.384 40.9049C127.397 40.8781 127.404 40.8489 127.405 40.8192C127.406 40.7895 127.402 40.7599 127.391 40.7321C127.381 40.7043 127.365 40.679 127.344 40.6575C127.323 40.6361 127.299 40.619 127.271 40.6073C127.217 40.5829 127.155 40.581 127.099 40.6022C127.044 40.6233 126.998 40.6657 126.974 40.72C126.562 41.6357 126.095 42.5257 125.576 43.3854C125.49 43.0517 125.391 42.7179 125.283 42.3797C125.792 41.5157 126.244 40.6193 126.636 39.6962C126.658 39.6406 126.658 39.5782 126.635 39.5226C126.613 39.467 126.569 39.4225 126.514 39.3986C126.459 39.3761 126.397 39.3764 126.342 39.3992C126.287 39.422 126.244 39.4655 126.221 39.5204C125.889 40.3033 125.512 41.0667 125.093 41.8069C124.662 40.5682 124.111 39.3749 123.447 38.244C124.146 37.9419 124.556 37.793 124.579 37.793C124.607 37.783 124.632 37.7675 124.654 37.7475C124.676 37.7274 124.693 37.7032 124.705 37.6763C124.718 37.6494 124.724 37.6203 124.725 37.5908C124.726 37.5613 124.721 37.5319 124.71 37.5044C124.689 37.4482 124.648 37.4024 124.594 37.377C124.539 37.3516 124.477 37.3488 124.421 37.3691C124.421 37.3691 123.97 37.545 123.208 37.8697C123.115 37.7103 123.016 37.56 122.91 37.4187C123.361 37.1932 123.618 37.0759 123.632 37.0669C123.659 37.0552 123.684 37.0381 123.704 37.0167C123.725 36.9952 123.741 36.9698 123.752 36.9421C123.762 36.9143 123.767 36.8846 123.766 36.855C123.765 36.8253 123.757 36.7961 123.745 36.7693C123.72 36.7149 123.675 36.6725 123.619 36.6514C123.563 36.6303 123.501 36.6321 123.447 36.6565C123.447 36.6565 123.145 36.7963 122.653 37.0444C122.342 36.5934 122.008 36.1424 121.648 35.7184C121.629 35.6956 121.606 35.6767 121.58 35.6629C121.553 35.6491 121.525 35.6407 121.495 35.6382C121.466 35.6357 121.436 35.6391 121.408 35.6482C121.38 35.6574 121.354 35.672 121.332 35.6914C121.308 35.7113 121.288 35.7361 121.274 35.764C121.26 35.792 121.252 35.8225 121.251 35.8537C121.151 35.7274 121.048 35.6057 120.944 35.4839C120.925 35.4611 120.902 35.4422 120.876 35.4284C120.85 35.4146 120.821 35.4062 120.792 35.4037C120.762 35.4012 120.733 35.4046 120.705 35.4137C120.677 35.4228 120.651 35.4375 120.628 35.4569C120.583 35.4961 120.555 35.5516 120.55 35.6114C120.544 35.6713 120.563 35.7307 120.601 35.7771C121.061 36.3073 121.489 36.8646 121.882 37.4458L121.661 37.563C121.12 36.7355 120.517 35.95 119.857 35.2133C119.836 35.1922 119.811 35.1754 119.784 35.164C119.756 35.1525 119.727 35.1466 119.697 35.1466C119.667 35.1466 119.638 35.1525 119.61 35.164C119.583 35.1754 119.558 35.1922 119.537 35.2133C119.508 35.2377 119.487 35.2709 119.478 35.308C119.447 35.2662 119.418 35.2225 119.393 35.1772C119.376 35.1521 119.355 35.1305 119.33 35.1137C119.305 35.0969 119.277 35.0853 119.248 35.0794C119.219 35.0735 119.188 35.0735 119.159 35.0795C119.129 35.0855 119.102 35.0972 119.077 35.1141C119.028 35.1463 118.994 35.1966 118.982 35.2539L118.919 35.1366C118.89 35.0848 118.841 35.0464 118.784 35.0296C118.727 35.0127 118.665 35.0188 118.612 35.0464C118.56 35.0758 118.522 35.1246 118.506 35.1821C118.49 35.2396 118.497 35.3011 118.527 35.3531C119.108 36.4039 119.641 37.4322 120.123 38.4515L120.001 38.5236C119.495 37.3292 118.892 36.1783 118.197 35.0825C118.182 35.0559 118.162 35.0327 118.137 35.0143C118.113 34.9958 118.085 34.9825 118.055 34.9752C118.025 34.9679 117.995 34.9668 117.964 34.9718C117.934 34.9769 117.905 34.988 117.88 35.0046C117.854 35.0211 117.832 35.0427 117.815 35.0681C117.797 35.0935 117.786 35.1221 117.78 35.1522C117.774 35.1823 117.775 35.2132 117.781 35.2431C117.788 35.273 117.801 35.3012 117.819 35.3261C118.508 36.4179 119.104 37.566 119.6 38.7582L119.298 38.9386C118.739 37.6185 118.094 36.3364 117.368 35.1006C117.353 35.0748 117.334 35.0521 117.31 35.034C117.287 35.0159 117.26 35.0027 117.231 34.9951C117.203 34.9875 117.173 34.9858 117.144 34.9899C117.114 34.9941 117.086 35.0041 117.061 35.0194C117.009 35.0504 116.972 35.1003 116.957 35.1584C116.942 35.2166 116.95 35.2784 116.98 35.3306C117.71 36.5676 118.355 37.8529 118.91 39.1776C118.491 39.4392 118.049 39.7188 117.593 40.021C116.907 38.4209 116.074 36.8884 115.104 35.4433C115.087 35.4187 115.066 35.3976 115.042 35.3813C115.017 35.365 114.989 35.3538 114.96 35.3483C114.931 35.3429 114.901 35.3433 114.873 35.3495C114.844 35.3558 114.816 35.3677 114.792 35.3847C114.743 35.4178 114.709 35.469 114.697 35.5273C114.685 35.5856 114.697 35.6462 114.729 35.6959C115.698 37.141 116.53 38.6735 117.214 40.2735C116.822 40.5351 116.425 40.8057 116.015 41.0989C115.183 39.3914 114.251 37.7348 113.223 36.1379C113.19 36.0876 113.138 36.0525 113.08 36.0402C113.021 36.028 112.96 36.0396 112.909 36.0725C112.859 36.1054 112.824 36.1569 112.812 36.2156C112.8 36.2744 112.811 36.3357 112.844 36.3859C113.874 37.983 114.81 39.6396 115.645 41.3469L114.986 41.825C114.256 40.057 113.489 38.217 112.731 36.413C112.719 36.3857 112.702 36.361 112.681 36.3403C112.66 36.3196 112.634 36.3033 112.607 36.2924C112.579 36.2815 112.55 36.2762 112.52 36.2768C112.49 36.2773 112.461 36.2838 112.434 36.2957C112.38 36.3195 112.337 36.3635 112.315 36.4183C112.293 36.4731 112.294 36.5344 112.316 36.5889C113.101 38.4289 113.881 40.2825 114.63 42.082L114.215 42.3932C113.489 40.5892 112.785 38.7086 112.154 36.7783C112.144 36.75 112.129 36.724 112.109 36.7017C112.09 36.6793 112.066 36.6611 112.039 36.6481C112.012 36.6351 111.983 36.6276 111.953 36.6259C111.923 36.6242 111.893 36.6285 111.865 36.6385C111.822 36.6515 111.784 36.6777 111.757 36.7132C111.73 36.7488 111.714 36.792 111.712 36.8369C111.673 36.8279 111.633 36.8279 111.595 36.8369C111.566 36.8428 111.538 36.8544 111.514 36.871C111.489 36.8876 111.468 36.9088 111.452 36.9335C111.435 36.9582 111.424 36.9859 111.418 37.015C111.413 37.0441 111.413 37.074 111.419 37.103C111.847 39.1917 112.423 41.2474 113.142 43.2546C112.343 43.8996 111.536 44.6076 110.733 45.3337C110.414 42.7615 110.567 40.1525 111.184 37.6352C111.191 37.6056 111.192 37.5749 111.187 37.5449C111.182 37.515 111.171 37.4863 111.155 37.4605C111.122 37.4085 111.07 37.3716 111.011 37.3578C110.951 37.3441 110.888 37.3546 110.836 37.3872C110.784 37.4197 110.747 37.4716 110.733 37.5314C110.087 40.2108 109.954 42.9882 110.341 45.7171L110.043 45.9922C109.653 43.444 109.729 40.8461 110.269 38.3252C110.275 38.2965 110.276 38.2667 110.271 38.2376C110.266 38.2086 110.255 38.1808 110.239 38.156C110.223 38.1312 110.202 38.1099 110.178 38.0932C110.154 38.0766 110.126 38.065 110.097 38.0591C110.068 38.0525 110.038 38.0519 110.008 38.0572C109.979 38.0625 109.95 38.0737 109.925 38.0901C109.9 38.1064 109.878 38.1277 109.861 38.1526C109.844 38.1775 109.833 38.2055 109.827 38.235C109.253 40.9129 109.193 43.6754 109.651 46.3756L109.43 46.592C109.011 44.1332 109.075 41.6163 109.619 39.1821C109.63 39.1231 109.618 39.0621 109.585 39.0117C109.553 38.9614 109.502 38.9255 109.443 38.9115C109.385 38.9007 109.325 38.913 109.275 38.9458C109.225 38.9786 109.19 39.0294 109.177 39.0874C108.595 41.6844 108.547 44.3729 109.038 46.9889L108.817 47.2144C108.288 44.8968 108.319 42.4866 108.907 40.1833C108.923 40.1235 108.915 40.0598 108.884 40.006C108.853 39.9523 108.802 39.9131 108.742 39.8969C108.682 39.8808 108.619 39.8891 108.565 39.9199C108.511 39.9508 108.472 40.0018 108.456 40.0616C107.826 42.5346 107.817 45.1248 108.429 47.6023L108.14 47.9135C107.576 46.0574 107.488 44.0894 107.883 42.1903C107.897 42.1317 107.887 42.0701 107.856 42.0187C107.824 41.9673 107.774 41.9301 107.716 41.9152C107.658 41.9016 107.597 41.9115 107.546 41.9428C107.496 41.9741 107.459 42.0241 107.446 42.082C107.019 44.1495 107.135 46.2923 107.784 48.3013C107.612 48.4908 107.441 48.6802 107.274 48.8741C107.235 48.9199 107.216 48.979 107.22 49.0388C107.225 49.0986 107.252 49.1544 107.297 49.1943C107.311 49.205 107.326 49.214 107.342 49.2214C107.319 49.2663 107.311 49.3176 107.32 49.3673C107.329 49.4171 107.354 49.4624 107.391 49.4965C107.433 49.5319 107.486 49.5511 107.54 49.5506C107.572 49.5508 107.603 49.5441 107.632 49.5308C107.661 49.5176 107.687 49.4982 107.707 49.4739L108.041 49.1041C108.104 49.2875 108.172 49.4724 108.244 49.6588C108.081 49.6363 107.91 49.6183 107.752 49.5912C107.723 49.5865 107.692 49.5876 107.663 49.5945C107.634 49.6015 107.606 49.6141 107.582 49.6317C107.558 49.6493 107.537 49.6715 107.522 49.6971C107.506 49.7226 107.495 49.751 107.491 49.7806C107.486 49.8102 107.487 49.8405 107.494 49.8697C107.501 49.8988 107.514 49.9263 107.531 49.9506C107.549 49.9749 107.571 49.9955 107.597 50.0112C107.622 50.0269 107.65 50.0375 107.68 50.0422C107.662 50.0684 107.648 50.0973 107.639 50.1279C107.629 50.1821 107.639 50.2382 107.667 50.2855C107.696 50.3329 107.74 50.3683 107.793 50.3849C107.79 50.3969 107.79 50.4091 107.793 50.421C107.786 50.4501 107.785 50.4801 107.79 50.5095C107.795 50.5388 107.806 50.5669 107.822 50.592C107.838 50.6172 107.859 50.639 107.883 50.656C107.908 50.6731 107.935 50.6852 107.964 50.6916L108.771 50.863C108.803 50.9352 108.839 51.0073 108.875 51.0795L108.447 50.9983C108.418 50.9917 108.388 50.9908 108.358 50.9959C108.329 51.0009 108.301 51.0117 108.276 51.0276C108.251 51.0435 108.229 51.0643 108.212 51.0887C108.195 51.1131 108.183 51.1406 108.176 51.1697C108.164 51.2289 108.176 51.2904 108.209 51.341C108.242 51.3916 108.293 51.4273 108.352 51.4403C108.618 51.4944 108.871 51.535 109.132 51.5801L109.195 51.7064L108.839 51.6387C108.81 51.6328 108.779 51.6328 108.749 51.6386C108.72 51.6445 108.692 51.6561 108.666 51.6729C108.641 51.6896 108.62 51.7112 108.603 51.7363C108.586 51.7614 108.574 51.7895 108.569 51.8191C108.563 51.8487 108.563 51.8792 108.568 51.9089C108.574 51.9385 108.586 51.9667 108.603 51.9918C108.619 52.0169 108.641 52.0385 108.666 52.0553C108.691 52.0721 108.719 52.0838 108.749 52.0897C108.997 52.1438 109.236 52.1799 109.484 52.225L109.606 52.437L109.38 52.3558C109.353 52.345 109.323 52.3397 109.293 52.3404C109.263 52.3411 109.234 52.3478 109.206 52.3599C109.179 52.3721 109.155 52.3896 109.134 52.4113C109.114 52.4331 109.098 52.4587 109.087 52.4866C109.067 52.5423 109.069 52.6038 109.093 52.6578C109.118 52.7118 109.163 52.754 109.218 52.7752C109.466 52.87 109.723 52.9557 109.985 53.0368C110.012 53.0729 110.034 53.109 110.057 53.1451C110.004 53.1279 109.947 53.1309 109.896 53.1534C109.845 53.1758 109.805 53.2162 109.782 53.2668C109.77 53.2941 109.763 53.3234 109.763 53.3531C109.762 53.3829 109.768 53.4124 109.778 53.4401C109.789 53.4677 109.806 53.493 109.826 53.5143C109.847 53.5357 109.872 53.5527 109.899 53.5645C110.088 53.6502 110.3 53.7269 110.521 53.8035C110.778 54.1553 111.045 54.4936 111.333 54.8183C111.333 54.8183 111.333 54.8183 111.333 54.8408H111.356C111.387 54.8588 111.423 54.8681 111.459 54.8679C111.482 54.8723 111.505 54.8723 111.527 54.8679L111.847 54.7687C112.059 55.0348 112.298 55.2963 112.506 55.5489C112.527 55.5725 112.552 55.5914 112.581 55.6046C112.61 55.6178 112.641 55.6249 112.673 55.6256C112.729 55.624 112.783 55.6033 112.826 55.5669C112.847 55.546 112.864 55.521 112.875 55.4936C112.887 55.4661 112.893 55.4366 112.893 55.4068C112.893 55.3771 112.887 55.3476 112.875 55.3201C112.864 55.2926 112.847 55.2677 112.826 55.2467C112.646 55.0438 112.47 54.8273 112.294 54.6153L112.438 54.5657C112.889 55.1926 113.403 55.8105 113.953 56.4193C113.974 56.4431 114 56.4622 114.029 56.4754C114.057 56.4886 114.089 56.4956 114.12 56.496C114.175 56.4949 114.228 56.4741 114.269 56.4374C114.294 56.4129 114.314 56.3838 114.328 56.3517C114.354 56.3307 114.375 56.3039 114.389 56.2733C114.403 56.2428 114.41 56.2094 114.409 56.1758C114.459 56.2389 114.504 56.3066 114.549 56.3697C114.57 56.3981 114.598 56.421 114.631 56.4366C114.663 56.4523 114.698 56.4603 114.734 56.4599C114.781 56.4603 114.827 56.4444 114.864 56.4148C114.889 56.3974 114.909 56.3754 114.924 56.3501C114.94 56.3247 114.95 56.2966 114.955 56.2673C114.959 56.2379 114.958 56.208 114.951 56.1791C114.944 56.1503 114.932 56.1231 114.914 56.0991C114.511 55.5532 114.137 54.9872 113.791 54.4034C114.183 54.4304 114.585 54.4485 115.004 54.4485C116.164 54.4419 117.322 54.3347 118.463 54.1283C119.442 55.6752 120.119 56.5637 120.137 56.5907C120.158 56.6179 120.186 56.6398 120.217 56.6546C120.248 56.6695 120.282 56.6769 120.317 56.6764C120.366 56.6774 120.414 56.6615 120.452 56.6313C120.48 56.6098 120.501 56.5824 120.516 56.5511C120.531 56.5198 120.539 56.4855 120.538 56.4509C120.553 56.4535 120.568 56.4535 120.583 56.4509C120.61 56.4552 120.637 56.4552 120.664 56.4509H120.687L120.718 56.4238L120.746 56.3878V56.3472C120.746 56.3472 120.746 56.3201 120.746 56.3066V56.3336L120.791 56.3607H120.813C120.84 56.3649 120.867 56.3649 120.894 56.3607H120.939H120.962H121.007L121.039 56.3336L121.07 56.3066C121.079 56.2956 121.087 56.2835 121.093 56.2705C121.094 56.257 121.094 56.2434 121.093 56.2299C121.095 56.215 121.095 56.1997 121.093 56.1848C121.095 56.1759 121.095 56.1667 121.093 56.1577C121.093 56.1262 121.057 55.143 120.885 53.569C121.102 53.5059 121.314 53.4382 121.526 53.3661C121.497 54.215 121.417 55.0614 121.287 55.9007C121.282 55.93 121.282 55.9601 121.289 55.9891C121.295 56.0182 121.307 56.0457 121.325 56.07C121.342 56.0943 121.364 56.115 121.389 56.1308C121.414 56.1467 121.442 56.1573 121.472 56.1623H121.62C121.673 56.163 121.725 56.1447 121.765 56.1108C121.806 56.0768 121.833 56.0295 121.841 55.9774C121.867 55.9957 121.896 56.008 121.927 56.0134H121.972C122.019 56.0124 122.064 55.9972 122.102 55.9698C122.14 55.9424 122.169 55.9042 122.184 55.8601H122.22H122.27C122.321 55.8595 122.371 55.8419 122.411 55.8101C122.451 55.7782 122.479 55.7339 122.491 55.6842C122.712 54.692 122.879 53.7449 123.001 52.8249L123.217 52.7301C123.113 53.5239 122.973 54.3447 122.798 55.2016C122.792 55.2307 122.791 55.2606 122.797 55.2896C122.803 55.3187 122.814 55.3464 122.83 55.3711C122.847 55.3958 122.868 55.4171 122.892 55.4336C122.917 55.4502 122.944 55.4618 122.973 55.4677H123.019C123.071 55.4677 123.121 55.4498 123.161 55.4169C123.201 55.384 123.229 55.3383 123.24 55.2873C123.438 54.3222 123.591 53.3976 123.691 52.5046L123.848 52.4325C123.731 53.2037 123.6 53.9884 123.429 54.8002C123.423 54.8293 123.423 54.8592 123.429 54.8882C123.434 54.9173 123.445 54.945 123.462 54.9697C123.478 54.9944 123.499 55.0157 123.524 55.0323C123.548 55.0488 123.576 55.0604 123.605 55.0663H123.65C123.702 55.0655 123.752 55.0473 123.792 55.0145C123.832 54.9818 123.86 54.9365 123.871 54.8859C124.065 53.9569 124.214 53.0549 124.322 52.1799L124.773 51.9454C124.618 52.731 124.4 53.5031 124.124 54.2545C124.113 54.282 124.108 54.3114 124.108 54.341C124.109 54.3705 124.116 54.3996 124.128 54.4265C124.14 54.4534 124.158 54.4776 124.179 54.4976C124.201 54.5177 124.227 54.5332 124.254 54.5432C124.281 54.5495 124.309 54.5495 124.335 54.5432C124.382 54.5419 124.426 54.5271 124.464 54.5007C124.502 54.4742 124.531 54.4372 124.547 54.3943C124.876 53.4982 125.123 52.5745 125.287 51.6342C125.368 51.5846 125.449 51.544 125.526 51.4944C125.4 52.194 125.197 52.8776 124.922 53.5329C124.907 53.5672 124.901 53.6046 124.904 53.6418C124.907 53.679 124.919 53.7149 124.939 53.7464C124.959 53.7779 124.986 53.8041 125.019 53.8227C125.051 53.8413 125.087 53.8517 125.125 53.8531C125.169 53.8533 125.212 53.8406 125.249 53.8165C125.286 53.7925 125.315 53.7582 125.332 53.7178C125.675 52.9017 125.913 52.0455 126.04 51.1697C126.685 50.7548 127.306 50.303 127.898 49.8167C127.921 49.798 127.94 49.7749 127.954 49.7487C127.968 49.7226 127.976 49.694 127.979 49.6646C127.981 49.6351 127.978 49.6055 127.969 49.5774C127.959 49.5493 127.945 49.5233 127.925 49.501C127.906 49.4767 127.881 49.457 127.853 49.443C127.825 49.429 127.794 49.4211 127.763 49.4198C127.885 49.3161 128.016 49.2214 128.137 49.1131C128.16 49.0941 128.178 49.0707 128.192 49.0445C128.205 49.0182 128.213 48.9895 128.215 48.96C128.217 48.9306 128.214 48.9011 128.204 48.8731C128.195 48.8452 128.18 48.8195 128.16 48.7974C128.121 48.752 128.065 48.7238 128.005 48.7187C127.946 48.7136 127.886 48.7322 127.84 48.7704C127.31 49.2312 126.753 49.6589 126.171 50.0512L126.198 49.7445C126.974 49.22 127.711 48.6397 128.404 48.0082C128.425 47.9876 128.441 47.963 128.453 47.9359C128.464 47.9088 128.47 47.8797 128.47 47.8503C128.47 47.8209 128.464 47.7918 128.453 47.7647C128.441 47.7376 128.425 47.7131 128.404 47.6925C128.377 47.6631 128.343 47.6426 128.304 47.6339L128.44 47.5436C128.489 47.5106 128.523 47.4593 128.535 47.4011C128.547 47.3428 128.535 47.2822 128.503 47.2325C128.469 47.1852 128.419 47.1516 128.363 47.1377L128.48 47.0746C128.533 47.0453 128.572 46.9963 128.588 46.9384C128.605 46.8804 128.597 46.8183 128.568 46.7657C128.539 46.713 128.49 46.6742 128.432 46.6577C128.374 46.6412 128.312 46.6484 128.259 46.6777C127.565 47.0656 126.879 47.4264 126.198 47.7737C126.2 47.7331 126.2 47.6924 126.198 47.6519C127.014 47.2741 127.806 46.8479 128.57 46.3756ZM125.774 47.3813L125.585 47.467C125.585 47.3452 125.585 47.2234 125.585 47.1017L125.77 47.016C125.761 47.1377 125.77 47.2595 125.774 47.3632V47.3813ZM125.815 48.5043V48.6531L125.594 48.7749C125.594 48.7163 125.594 48.6621 125.594 48.6035L125.815 48.5043ZM122.099 51.3546C122.099 51.1877 122.099 51.0163 122.071 50.845L122.148 50.8179C122.148 50.9938 122.148 51.1607 122.148 51.3366L122.099 51.3546ZM122.148 51.7785C122.148 51.9003 122.148 52.0176 122.148 52.1348H122.117V51.7876L122.148 51.7785ZM119.708 53.4292L119.663 53.3164L120.055 53.2262L120.083 53.3345C119.956 53.3661 119.816 53.4021 119.708 53.4292ZM120.195 53.7629C120.479 54.8724 120.646 55.6526 120.718 55.9864L119.875 53.8441L120.195 53.7629ZM115.649 52.3874L116.132 52.0446L116.903 51.986L116.213 52.3829L115.649 52.3874ZM123.316 46.5244C123.24 46.6191 123.158 46.7138 123.077 46.804C123.041 46.4387 122.996 46.0779 122.937 45.7216C123.019 45.6269 123.095 45.5277 123.172 45.4285C123.244 45.8028 123.289 46.1681 123.33 46.5424L123.316 46.5244ZM123.551 44.9414C123.673 44.7835 123.79 44.6212 123.907 44.4543C123.97 44.8286 124.02 45.203 124.065 45.5863C123.948 45.7396 123.835 45.8885 123.718 46.0373C123.686 45.681 123.627 45.3157 123.564 44.9594L123.551 44.9414ZM112.727 53.6006H112.817L112.754 53.6321L112.727 53.6006ZM112.447 53.1045C112.357 52.9466 112.267 52.7798 112.181 52.6129H112.348C112.429 52.7843 112.506 52.9511 112.591 53.1135L112.447 53.1045ZM111.937 52.1348C111.91 52.0717 111.879 52.0086 111.847 51.9454H112.046C112.077 52.0086 112.104 52.0717 112.131 52.1348H111.937ZM111.631 51.4764C111.599 51.4042 111.563 51.3321 111.532 51.2554L111.766 51.2824C111.793 51.3546 111.82 51.4268 111.852 51.4989L111.631 51.4764ZM111.392 50.2767V50.3038H111.13H111.387L111.392 50.2767ZM111.32 50.7503H111.563V50.7954H111.311L111.32 50.7503ZM119.086 50.0241C119.126 50.1459 119.167 50.2677 119.203 50.3849C118.978 50.4391 118.752 50.4842 118.527 50.5293L118.414 50.2496L118.549 50.1324L119.086 50.0241ZM118.261 51.084L118.134 51.1697L118.085 51.075L118.247 51.0479L118.261 51.084ZM117.94 50.633L118.049 50.5473C118.053 50.5692 118.061 50.5905 118.071 50.6104L117.94 50.633ZM117.62 51.1471C117.661 51.2373 117.706 51.3185 117.746 51.4042L117.363 51.4583L117.223 51.2058L117.62 51.1471ZM120.466 49.9791C120.624 49.8483 120.782 49.7175 120.917 49.5777L121.472 49.4198L121.499 49.7445C121.156 49.8573 120.809 49.9655 120.461 50.0602L120.466 49.9791ZM121.869 48.7253C121.914 48.6847 121.954 48.6396 121.995 48.599C121.995 48.6666 121.995 48.7298 121.995 48.7974L121.864 48.8335L121.869 48.7253ZM121.927 49.298L122.053 49.2574V49.5596L121.941 49.5957C121.977 49.5145 121.972 49.4153 121.959 49.3161L121.927 49.298ZM122.491 49.1176L122.743 49.0365V49.3116L122.509 49.4018C122.522 49.3251 122.522 49.2304 122.522 49.1357L122.491 49.1176ZM122.45 48.6666C122.45 48.5539 122.45 48.4456 122.419 48.3329L122.721 48.2337C122.721 48.3419 122.721 48.4547 122.721 48.5674L122.45 48.6666ZM120.718 49.1763L120.335 49.271C120.335 49.1808 120.304 49.0906 120.286 49.0004L121.21 48.7298C121.079 48.8966 120.917 49.0455 120.75 49.1898L120.718 49.1763ZM119.586 50.1144C119.586 50.0557 119.55 49.9926 119.528 49.9294L119.943 49.8347L119.586 50.1144ZM117.331 50.5654L117.056 50.7773H116.989L116.804 50.4346L117.255 50.3669L117.331 50.5654ZM116.506 50.845C115.035 50.9829 113.553 50.9829 112.082 50.845C112.082 50.8179 112.082 50.7908 112.05 50.7593H112.267C113.624 50.7555 114.98 50.6636 116.326 50.4842L116.506 50.845ZM112.271 51.3366C112.934 51.3862 113.579 51.4177 114.211 51.4177C114.937 51.4177 115.645 51.3817 116.339 51.3185L115.951 51.5981C114.749 51.6689 113.543 51.6538 112.343 51.553L112.271 51.3366ZM116.862 51.4899V51.526H116.781L116.862 51.4899ZM119.352 50.872C119.379 50.9577 119.402 51.0389 119.429 51.1201L118.847 51.2373C119.045 51.1246 119.212 51.0028 119.365 50.8765L119.352 50.872ZM119.803 50.7367L120.141 50.6465C120.141 50.7457 120.173 50.845 120.191 50.9397L119.884 51.0164L119.803 50.7367ZM120.579 50.5293C120.917 50.4346 121.251 50.3353 121.584 50.2271V50.5202C121.269 50.6285 120.944 50.7277 120.615 50.8224C120.619 50.7322 120.606 50.633 120.588 50.5202L120.579 50.5293ZM122.022 50.0783L122.112 50.0467V50.3399L122.026 50.3714C122.044 50.2767 122.035 50.182 122.031 50.0692L122.022 50.0783ZM122.554 49.8889L122.771 49.8077C122.771 49.9024 122.771 50.0061 122.771 50.1008L122.581 50.173L122.554 49.8889ZM123.222 49.6363L123.452 49.5461C123.452 49.6363 123.452 49.7265 123.452 49.8167L123.231 49.9114L123.222 49.6363ZM123.222 49.1492V48.8966L123.461 48.811V49.0545L123.222 49.1492ZM123.222 48.4186C123.222 48.3058 123.222 48.1931 123.199 48.0803L123.447 47.9856C123.447 48.1029 123.447 48.2202 123.447 48.3374L123.222 48.4186ZM123.167 47.6068C123.167 47.5482 123.167 47.4895 123.167 47.4309L123.402 47.1648L123.429 47.5121L123.167 47.6068ZM122.694 47.2776L122.378 47.6113C122.338 47.2685 122.297 46.9213 122.243 46.5785C122.351 46.4567 122.459 46.335 122.563 46.2087C122.608 46.565 122.653 46.9123 122.689 47.2821L122.694 47.2776ZM121.981 48.0262L121.828 48.0758C121.787 47.7827 121.742 47.4895 121.693 47.1738L121.855 46.9979C121.891 47.3633 121.941 47.697 121.977 48.0307L121.981 48.0262ZM121.386 48.2292C121.057 48.3329 120.723 48.4276 120.394 48.5223C120.7 48.2247 121.003 47.918 121.296 47.6203C121.332 47.8143 121.354 48.0262 121.381 48.2337L121.386 48.2292ZM119.884 49.1312C119.884 49.2214 119.92 49.3116 119.934 49.3973L119.429 49.5145C119.419 49.4911 119.412 49.467 119.406 49.4424L119.686 49.1898L119.884 49.1312ZM118.382 49.7355L118.242 49.7626C118.215 49.6904 118.188 49.6137 118.157 49.5416C118.355 49.501 118.558 49.4604 118.757 49.4108L118.382 49.7355ZM117.791 49.8392L117.53 49.8843L117.435 49.6904L117.71 49.6363L117.791 49.8392ZM117.065 49.9655L116.614 50.0241L116.524 49.8528C116.678 49.8302 116.826 49.7986 116.975 49.7716C117.002 49.8392 117.034 49.8979 117.061 49.9655H117.065ZM116.136 50.0873C114.736 50.2653 113.326 50.3467 111.915 50.3308V50.2902C113.304 50.2588 114.69 50.1368 116.064 49.9249L116.136 50.0873ZM111.744 49.8392C111.35 48.6739 111.049 47.4796 110.842 46.2673C111.703 45.5006 112.573 44.7835 113.439 44.1206C114.137 45.9565 114.932 47.7541 115.821 49.5055C114.469 49.7045 113.105 49.816 111.739 49.8392H111.744ZM111.293 49.8392H111.022C110.678 48.8756 110.403 47.8883 110.201 46.8852L110.481 46.6191C110.669 47.711 110.932 48.7885 111.27 49.8437L111.293 49.8392ZM110.535 49.8392H110.345C110.041 49.071 109.793 48.281 109.606 47.476L109.813 47.2685C109.994 48.1357 110.228 48.9912 110.512 49.8302L110.535 49.8392ZM111.072 51.2283C111.103 51.296 111.13 51.3726 111.162 51.4403H111.063L110.945 51.2193L111.072 51.2283ZM111.378 51.9184L111.459 52.0852H111.41C111.378 52.0311 111.347 51.977 111.32 51.9184H111.378ZM113.182 53.2217C113.092 53.0504 113.006 52.879 112.921 52.6986C113.372 52.7437 113.823 52.7753 114.274 52.7978L113.53 53.2488L113.182 53.2217ZM112.7 52.2386L112.605 52.0311C113.272 52.0807 113.931 52.1123 114.558 52.1123C114.815 52.1123 115.058 52.1123 115.306 52.1123L114.855 52.4054C114.152 52.3603 113.426 52.3242 112.682 52.2295L112.7 52.2386ZM117.34 52.2701L117.381 52.3333H117.214L117.34 52.2701ZM117.724 52.0311C117.814 51.977 117.904 51.9229 117.99 51.8642L118.188 52.2521L117.855 52.2882L117.724 52.0311ZM118.477 51.7876H118.576C118.63 51.9274 118.684 52.0672 118.739 52.198H118.684L118.477 51.7876ZM118.901 52.5813C118.923 52.6354 118.942 52.685 118.96 52.7392C118.937 52.6867 118.911 52.6356 118.883 52.5858L118.901 52.5813ZM119.514 52.906C119.465 52.7752 119.411 52.6445 119.356 52.5092L119.848 52.419C119.884 52.5452 119.92 52.6805 119.956 52.8023L119.514 52.906ZM119.194 52.1033L119.027 51.6838C119.221 51.6478 119.415 51.6117 119.604 51.5666C119.65 51.7199 119.69 51.8687 119.731 52.0176C119.537 52.0401 119.365 52.0672 119.176 52.0942L119.194 52.1033ZM120.042 51.4628L120.286 51.3997C120.308 51.5575 120.335 51.7154 120.353 51.8507L120.173 51.8958C120.114 51.756 120.069 51.6072 120.024 51.4538L120.042 51.4628ZM120.723 51.2869C121.039 51.2013 121.345 51.1066 121.625 51.0073C121.625 51.1697 121.648 51.3411 121.652 51.5034C121.359 51.5981 121.07 51.6883 120.773 51.765C120.755 51.6026 120.718 51.4222 120.718 51.2779L120.723 51.2869ZM122.617 50.6646L122.761 50.6059C122.761 50.7773 122.761 50.9487 122.739 51.1201L122.617 51.1697C122.595 50.9713 122.599 50.8269 122.599 50.6556L122.617 50.6646ZM123.226 50.4255L123.456 50.3263C123.456 50.4932 123.456 50.6646 123.424 50.8314C123.348 50.8675 123.276 50.9081 123.199 50.9397C123.194 50.7593 123.199 50.5879 123.208 50.4165L123.226 50.4255ZM123.916 50.1279L124.146 50.0241C124.146 50.1865 124.124 50.3444 124.11 50.5067L123.889 50.6104L123.916 50.1279ZM123.916 49.6273C123.916 49.5416 123.916 49.4559 123.916 49.3702C124.002 49.3341 124.087 49.3026 124.173 49.262V49.51L123.916 49.6273ZM123.916 48.8786V48.6621L124.2 48.5539C124.2 48.6215 124.2 48.6847 124.2 48.7568L123.916 48.8786ZM123.916 48.1841C123.916 48.0623 123.916 47.945 123.916 47.8278L124.236 47.7015C124.236 47.8233 124.236 47.945 124.236 48.0623L123.916 48.1841ZM123.875 47.3632C123.875 47.1423 123.839 46.9122 123.817 46.7003L124.16 46.2809C124.16 46.592 124.191 46.9168 124.205 47.237L123.875 47.3632ZM124.534 45.7938L124.931 45.2436C125.012 45.7802 125.071 46.3124 125.111 46.8401L124.624 47.0521C124.593 46.6056 124.561 46.1816 124.52 45.7712L124.534 45.7938ZM124.462 45.1263C124.412 44.7474 124.349 44.3776 124.277 44.0078L124.593 43.5568C124.678 43.9086 124.755 44.2649 124.823 44.6212L124.462 45.1263ZM124.151 43.399C123.79 41.7734 123.199 40.2077 122.396 38.7491L122.644 38.6319C123.423 39.9915 124.029 41.4429 124.448 42.9525L124.151 43.399ZM123.83 43.85C123.709 44.0213 123.587 44.1927 123.461 44.3596C123.078 42.5332 122.472 40.761 121.657 39.0829L121.999 38.916C122.857 40.4551 123.47 42.1181 123.817 43.8454L123.83 43.85ZM121.463 38.677L121.255 38.2756L121.535 38.1223L121.783 38.5236L121.463 38.677ZM121.057 38.8799L120.876 38.9701C120.822 38.8439 120.768 38.7131 120.709 38.5868L120.863 38.5011C120.912 38.6184 120.98 38.7446 121.043 38.8754L121.057 38.8799ZM121.255 39.2813C122.113 41.0479 122.732 42.921 123.095 44.8512L122.861 45.1579C122.478 43.1705 121.873 41.2325 121.057 39.3805L121.255 39.2813ZM122.482 45.6224L122.157 46.0148C121.796 43.8595 121.23 41.7437 120.466 39.6962L120.642 39.6061C121.49 41.5292 122.104 43.5477 122.468 45.6179L122.482 45.6224ZM121.765 46.4612L121.589 46.6552C121.189 44.4075 120.578 42.2028 119.762 40.0706L120.065 39.9037C120.85 42.027 121.419 44.2239 121.765 46.4612ZM121.206 47.0746C120.854 47.4489 120.497 47.8097 120.141 48.157C119.632 45.7324 118.92 43.3548 118.012 41.0492C118.463 40.7786 118.914 40.5261 119.365 40.2871C120.2 42.4775 120.817 44.745 121.206 47.0566V47.0746ZM119.753 48.5223L119.474 48.7884L119.199 48.8561C118.418 46.5277 117.507 44.2451 116.47 42.0189C116.867 41.7663 117.259 41.5183 117.643 41.2883C118.551 43.6289 119.257 46.0431 119.753 48.5043V48.5223ZM118.761 48.9733L117.981 49.1402C117.21 47.228 116.321 45.0496 115.37 42.754L116.087 42.2715C117.101 44.4466 117.994 46.6765 118.761 48.9508V48.9733ZM117.534 49.2349L117.232 49.298C116.384 47.5256 115.469 45.5006 114.567 43.3178L114.991 43.0156C115.915 45.2255 116.777 47.3633 117.534 49.2124V49.2349ZM116.768 49.3747L116.317 49.4559C115.388 47.6378 114.561 45.7693 113.841 43.859L114.211 43.5884C115.063 45.672 115.951 47.6293 116.768 49.3522V49.3747ZM113.665 43.417L114.012 43.1464V43.1735L113.665 43.417ZM109.204 47.8594C109.372 48.5267 109.58 49.1833 109.827 49.8257H109.552C109.335 49.2529 109.146 48.6802 108.988 48.0939L109.204 47.8594ZM110.391 51.1516C110.427 51.2238 110.454 51.296 110.49 51.3681L110.215 51.3275L110.106 51.1066L110.391 51.1516ZM110.742 51.8507L110.828 52.0086L110.539 51.9634C110.512 51.9138 110.481 51.8642 110.454 51.8101L110.742 51.8507ZM111.09 52.5001C111.175 52.649 111.27 52.7933 111.36 52.9511L111.067 52.879C110.981 52.7437 110.905 52.6084 110.824 52.4686L111.09 52.5001ZM111.68 53.4608C111.735 53.5465 111.793 53.6231 111.847 53.7043L111.572 53.6457C111.518 53.569 111.468 53.4878 111.419 53.4112L111.68 53.4608ZM114.256 53.3255C114.504 53.1721 114.756 53.0098 115.022 52.8339H115.379C115.027 53.0143 114.689 53.1766 114.359 53.3255H114.256ZM116.371 52.8294C116.79 52.8294 117.196 52.7888 117.598 52.7527C117.688 52.906 117.773 53.0504 117.864 53.2037C117.034 53.3106 116.198 53.3649 115.361 53.3661C115.69 53.1721 116.028 52.9962 116.371 52.8068V52.8294ZM118.094 52.7031L118.396 52.667L118.608 53.0864L118.346 53.127L118.094 52.7031ZM118.824 53.5014L118.892 53.6321L118.684 53.6727L118.603 53.5419L118.824 53.5014ZM120.493 53.1406C120.493 53.1406 120.493 53.1766 120.493 53.1947V53.1406ZM120.376 52.6896C120.34 52.5678 120.308 52.4415 120.272 52.3197L120.394 52.2882C120.394 52.419 120.43 52.5452 120.443 52.6715L120.376 52.6896ZM120.827 52.1844C121.102 52.1123 121.377 52.0311 121.648 51.9499C121.648 52.0672 121.648 52.189 121.648 52.3062C121.39 52.3919 121.129 52.4731 120.867 52.5497C120.867 52.4235 120.849 52.3242 120.836 52.1799L120.827 52.1844ZM122.559 52.5227C122.556 52.5047 122.556 52.4865 122.559 52.4686C122.561 52.4865 122.561 52.5047 122.559 52.5227ZM122.581 51.9815C122.581 51.8687 122.581 51.756 122.581 51.6432L122.662 51.6117C122.662 51.7244 122.662 51.8462 122.626 51.9634L122.581 51.9815ZM123.136 51.4222L123.357 51.3321C123.357 51.4448 123.334 51.553 123.325 51.6658L123.104 51.765C123.127 51.6342 123.14 51.517 123.149 51.4222H123.136ZM123.83 51.1156L124.024 51.0254C124.024 51.1381 124.002 51.2464 123.988 51.3546L123.799 51.4493C123.821 51.323 123.835 51.2103 123.844 51.0975L123.83 51.1156ZM124.493 50.7909C124.669 50.7007 124.841 50.6059 125.012 50.5112L124.971 50.8359C124.805 50.9307 124.633 51.0254 124.457 51.1156C124.484 50.9713 124.498 50.881 124.507 50.7728L124.493 50.7909ZM124.543 50.2677C124.543 50.1144 124.543 49.97 124.565 49.8167L125.102 49.5551C125.102 49.6949 125.08 49.8347 125.066 49.97C124.908 50.0692 124.732 50.1504 124.556 50.2496L124.543 50.2677ZM125.562 49.3161L125.792 49.1898C125.792 49.3026 125.792 49.4108 125.792 49.5235L125.558 49.6769C125.562 49.5371 125.567 49.4198 125.576 49.298L125.562 49.3161ZM125.111 49.0319C124.94 49.1267 124.759 49.2169 124.584 49.3026V49.0725L125.102 48.838C125.143 48.8831 125.143 48.9508 125.138 49.0139L125.111 49.0319ZM124.606 48.5809V48.3915L125.125 48.1796V48.3374L124.606 48.5809ZM124.606 47.9044C124.606 47.7827 124.606 47.6564 124.606 47.5346L125.102 47.3227V47.6925L124.606 47.9044ZM125.679 46.5514L125.508 46.6326C125.454 45.9922 125.373 45.3473 125.256 44.6978L125.364 44.5355C125.535 45.212 125.634 45.884 125.707 46.5424L125.679 46.5514ZM125.228 43.9221C125.201 43.9717 125.17 44.0168 125.138 44.0664C125.066 43.7147 124.98 43.3674 124.886 43.0156L124.953 42.9074C125.08 43.2366 125.17 43.5749 125.251 43.9131L125.228 43.9221ZM124.741 42.4022C124.367 41.1528 123.869 39.944 123.253 38.7942C123.88 39.9126 124.396 41.0892 124.796 42.3075L124.741 42.4022ZM122.13 37.775L122.401 38.226L122.162 38.3342L121.909 37.9103L122.13 37.775ZM121.273 37.7254L121.03 37.8607C120.669 37.1932 120.286 36.5438 119.893 35.9169C120.389 36.496 120.85 37.1044 121.273 37.7389V37.7254ZM119.393 35.971C119.844 36.652 120.245 37.351 120.637 38.0817L120.502 38.1629C120.155 37.4413 119.789 36.7197 119.393 35.9845V35.971ZM120.295 38.7988C120.349 38.916 120.398 39.0378 120.452 39.1596L120.29 39.2407C120.24 39.1235 120.195 39.0017 120.146 38.8844L120.295 38.7988ZM119.753 39.119C119.803 39.2272 119.844 39.34 119.889 39.4527L119.586 39.6151C119.546 39.5068 119.51 39.3986 119.465 39.2949L119.753 39.119ZM119.077 39.5339C119.113 39.6331 119.149 39.7323 119.19 39.8316C118.761 40.0706 118.315 40.3231 117.837 40.5982C117.81 40.5216 117.778 40.4494 117.751 40.3773C118.224 40.0886 118.666 39.809 119.086 39.5474L119.077 39.5339ZM117.381 40.6298L117.462 40.8328C117.07 41.0673 116.673 41.3198 116.267 41.5814L116.199 41.4461C116.614 41.171 117.007 40.9004 117.39 40.6434L117.381 40.6298ZM115.83 41.7122L115.884 41.825C115.654 41.9783 115.433 42.1316 115.185 42.276L115.153 42.1903C115.388 42.0505 115.613 41.8881 115.839 41.7257L115.83 41.7122ZM114.779 42.4879L114.806 42.5556L114.404 42.8532C114.404 42.8532 114.404 42.8217 114.404 42.8036L114.779 42.4879ZM112.028 37.8877C112.591 39.5249 113.2 41.1259 113.832 42.6593L113.502 42.9209C112.915 41.2751 112.426 39.5959 112.037 37.8922L112.028 37.8877ZM108.361 48.7117C108.447 48.617 108.537 48.5268 108.623 48.4366C108.749 48.8876 108.893 49.3116 109.074 49.749L108.749 49.722C108.605 49.3792 108.478 49.0455 108.37 48.7162L108.361 48.7117ZM109.263 50.9667L109.547 51.0209L109.646 51.2373L109.38 51.1922C109.362 51.093 109.322 51.0209 109.286 50.9442L109.263 50.9667ZM109.642 51.6883L109.894 51.7379C109.894 51.7785 109.935 51.8236 109.958 51.8642L109.714 51.8191L109.642 51.6883ZM110.012 52.3288L110.233 52.3694C110.296 52.4866 110.359 52.5994 110.422 52.7076L110.219 52.649L110.012 52.3288ZM110.796 53.2262C110.842 53.2939 110.887 53.3615 110.927 53.4292L110.783 53.3841L110.639 53.1902L110.796 53.2262ZM111.315 54.002L111.563 54.3357C111.459 54.2185 111.36 54.0967 111.261 53.9749L111.315 54.002ZM113.854 55.2738C113.651 54.9897 113.435 54.6785 113.214 54.3312H113.281C113.453 54.674 113.647 54.9852 113.841 55.2873L113.854 55.2738ZM114.003 53.9524L114.454 53.7539C114.743 53.7539 115.031 53.7539 115.325 53.7539C116.261 53.7515 117.197 53.6852 118.125 53.5555C118.157 53.6051 118.184 53.6547 118.215 53.6998C116.821 53.9452 115.404 54.0345 113.99 53.9659L114.003 53.9524ZM119.122 54.002C119.447 54.6243 119.722 55.1295 119.934 55.5128C119.672 55.143 119.343 54.6469 118.955 54.0381L119.122 54.002ZM120.962 53.0729C120.962 53.0459 120.962 53.0143 120.962 52.9827C121.201 52.9151 121.445 52.8384 121.684 52.7617C121.684 52.7888 121.684 52.8113 121.684 52.8384C121.422 52.9376 121.169 53.0143 120.948 53.0864L120.962 53.0729ZM123.073 52.2882C123.075 52.2717 123.075 52.255 123.073 52.2386L123.294 52.1484V52.1889L123.073 52.2882ZM123.776 51.9634V51.9319L123.952 51.8507V51.8732L123.776 51.9634ZM124.43 51.6207L124.881 51.3862L124.43 51.6297V51.6207ZM125.734 50.3624L125.486 50.5157C125.486 50.4075 125.513 50.3038 125.522 50.1955L125.765 50.0512C125.743 50.1685 125.729 50.2722 125.72 50.3759L125.734 50.3624ZM126.261 49.1853C126.261 49.0951 126.261 49.0049 126.261 48.9102C126.748 48.6351 127.222 48.3509 127.686 48.0578C127.208 48.4727 126.735 48.8561 126.248 49.1988L126.261 49.1853ZM127.614 47.5797C127.175 47.8563 126.724 48.1269 126.261 48.3915C126.264 48.351 126.264 48.3103 126.261 48.2698C126.699 48.0623 127.145 47.8142 127.596 47.5933L127.614 47.5797ZM125.81 47.9901L125.603 48.0894V47.945L125.806 47.8548C125.801 47.9135 125.806 47.9586 125.806 48.0037L125.81 47.9901Z" fill="black"/>
    <path d="M99.0316 73.8906C99.9561 71.5544 101.873 67.6082 104.944 65.2494C105.237 65.0239 105.774 65.4569 105.697 65.8628C105.107 69.0468 105.972 73.647 106.324 75.2797C106.396 75.6224 106.212 75.884 105.905 75.8795L100.425 75.8118C99.5502 75.8028 98.7204 74.6753 99.0316 73.8906Z" fill="#407BFF"/>
    <path opacity="0.3" d="M99.0316 73.8906C99.9561 71.5544 101.873 67.6082 104.944 65.2494C105.237 65.0239 105.774 65.4569 105.697 65.8628C105.107 69.0468 105.972 73.647 106.324 75.2797C106.396 75.6224 106.212 75.884 105.905 75.8795L100.425 75.8118C99.5502 75.8028 98.7204 74.6753 99.0316 73.8906Z" fill="black"/>
    <path d="M105.262 89.4889C109.772 87.5045 112.897 85.7772 113.182 83.883C113.466 81.9888 113.299 79.1249 112.938 78.5612C113.082 78.6441 113.233 78.7149 113.389 78.7732C113.112 77.8836 112.508 77.1324 111.698 76.6715C110.317 75.8791 109.058 74.8918 107.959 73.74C106.606 72.3148 103.981 70.8897 101.194 71.5346C98.4069 72.1795 91.7591 73.8753 90.6271 78.8183C89.4951 83.7612 91.3262 86.9363 93.049 88.605C94.7718 90.2737 99.7238 91.9198 105.262 89.4889Z" fill="#407BFF"/>
    <path d="M91.089 81.2469C90.3133 78.7304 89.2173 74.1166 89.736 69.336C89.7856 68.885 90.3584 68.6054 90.5433 68.9527C92.0045 71.6587 95.157 73.81 96.3025 74.518C96.422 74.6198 96.498 74.7634 96.5148 74.9195C96.5316 75.0755 96.4879 75.2321 96.3927 75.3569L93.0418 81.0395C92.4961 81.964 91.3461 82.0858 91.089 81.2469Z" fill="#407BFF"/>
    <path opacity="0.3" d="M91.089 81.2469C90.3133 78.7304 89.2173 74.1166 89.736 69.336C89.7856 68.885 90.3584 68.6054 90.5433 68.9527C92.0045 71.6587 95.157 73.81 96.3025 74.518C96.422 74.6198 96.498 74.7634 96.5148 74.9195C96.5316 75.0755 96.4879 75.2321 96.3927 75.3569L93.0418 81.0395C92.4961 81.964 91.3461 82.0858 91.089 81.2469Z" fill="black"/>
    <path d="M115.064 150.375C119.863 152.738 124.378 156.987 137.272 156.942C146.174 156.914 154.41 151.863 156.187 152.914C157.964 153.965 151.997 158.439 143.685 160.099C133.055 162.218 121.369 160.969 117.928 159.309C114.487 157.65 108.543 157.614 108.543 157.614L115.064 150.375Z" fill="#407BFF"/>
    <path opacity="0.3" d="M115.064 150.375C119.863 152.738 124.378 156.987 137.272 156.942C146.174 156.914 154.41 151.863 156.187 152.914C157.964 153.965 151.997 158.439 143.685 160.099C133.055 162.218 121.369 160.969 117.928 159.309C114.487 157.65 108.543 157.614 108.543 157.614L115.064 150.375Z" fill="black"/>
    <path d="M112.012 84.3404C112.517 85.2424 114.835 85.9956 115.561 87.529C116.287 89.0624 119.232 99.5031 118.948 102.205C118.664 104.906 117.595 114.413 118.709 117.746C119.823 121.079 120.964 126.766 120.806 130.866C120.648 134.965 124.784 147.747 124.247 151.833C123.711 155.919 127.364 157.858 127.201 160.6C127.039 163.342 122.037 162.909 120.238 162.909C118.438 162.909 115.48 161.728 115.588 159.928C115.6 158.737 115.223 157.575 114.515 156.618C114.515 156.618 111.809 160.812 105.211 160.812H92.4698C90.6387 160.812 88.704 157.267 94.833 156.352C90.8552 154.417 86.6068 150.867 89.0287 145.703C91.4505 140.54 92.8441 136.296 92.4698 134.198C92.0955 132.101 91.9827 128.178 93.223 125.756C94.4632 123.334 96.9302 117.53 95.2119 114.575C93.4936 111.621 93.8589 97.0992 94.0257 93.6581C94.1926 90.217 92.9118 89.0218 92.4833 88.4806C92.5315 88.9302 92.616 89.3751 92.7359 89.8111C92.7359 89.8111 90.2915 86.2797 91.0988 84.1691C91.9061 82.0584 112.012 84.3404 112.012 84.3404Z" fill="#407BFF"/>
    <path d="M117.173 99.9107C117.94 101.575 117.886 103.726 118.977 102.008C120.069 100.29 123.212 94.3995 124.019 93.2675C124.827 92.1355 127.515 88.5636 128.349 86.6288C129.183 84.694 130.604 76.0844 131.285 74.6502C131.966 73.2161 133.617 72.7831 133.026 70.713C132.435 68.6429 130.203 66.5187 127.889 67.7274C125.575 68.9361 125.336 72.756 124.583 74.8261C123.83 76.8962 122.779 81.2709 122.031 81.8121C121.282 82.3533 117.245 83.7785 115.901 83.6702C114.558 83.562 112.054 82.4345 111.919 83.9679C111.784 85.5013 116.068 97.5159 117.173 99.9107Z" fill="#407BFF"/>
    <path d="M132.477 70.0685C133.406 69.1665 134.655 68.9997 135.097 70.0685C135.539 71.1374 132.477 72.7745 132.477 72.7745V70.0685Z" fill="#407BFF"/>
    <path d="M130.764 68.6319C131.287 67.2789 133.677 65.7455 134.696 66.9722C135.504 67.9509 132.568 70.5351 132.568 70.5351L130.764 68.6319Z" fill="#407BFF"/>
    <path d="M129.459 67.6499C129.459 66.1842 131.164 63.9202 132.553 64.7094C133.653 65.3408 131.818 68.7684 131.818 68.7684L129.459 67.6499Z" fill="#407BFF"/>
    <path d="M127.034 68.6623C126.466 66.926 127.16 64.2109 128.752 64.2109C130.263 64.2109 130.105 68.2429 130.105 68.2429L127.034 68.6623Z" fill="#407BFF"/>
    <path d="M125.622 71.9564C124.644 70.671 124.432 68.2086 125.762 67.744C127.02 67.293 128.044 70.7206 128.044 70.7206L125.622 71.9564Z" fill="#407BFF"/>
    <path d="M101.226 114.314C100.902 115.815 101.339 117.561 100.148 116.352C98.9577 115.143 96.2743 109.276 94.1997 109.79C92.3957 110.241 90.9885 107.594 89.6897 105.497C88.7606 103.999 85.9283 97.2884 85.1075 96.2466C84.2867 95.2048 82.8525 95.1417 82.9653 93.3422C83.078 91.5427 84.3904 87.3439 86.4605 88.0474C88.5306 88.751 89.9693 91.7095 90.8578 93.3241C91.7462 94.9387 92.7294 94.8395 94.8311 94.3118C96.3579 93.9393 97.8172 93.3306 99.1562 92.5078C100.058 91.8358 101.664 91.7005 102.439 92.7288C103.215 93.7571 101.691 112.158 101.226 114.314Z" fill="#407BFF"/>
    <path d="M83.6964 92.6542C82.7583 91.7522 81.4414 90.9494 81.3557 92.104C81.2204 93.7682 84.4496 95.5226 84.4496 95.5226L83.6964 92.6542Z" fill="#407BFF"/>
    <path d="M85.456 91.1416C84.6487 89.9194 81.9878 88.9588 81.2617 90.3794C80.6799 91.5114 84.112 93.3921 84.112 93.3921L85.456 91.1416Z" fill="#407BFF"/>
    <path d="M86.1739 89.909C85.8492 88.4748 83.6979 86.6393 82.5163 87.7127C81.5782 88.565 84.1219 91.5371 84.1219 91.5371L86.1739 89.909Z" fill="#407BFF"/>
    <path d="M87.8817 90.6999C88.0576 88.8959 86.7903 86.3884 85.2344 86.7357C83.7596 87.0604 84.8149 90.957 84.8149 90.957L87.8817 90.6999Z" fill="#407BFF"/>
    <path d="M89.4288 92.5951C90.1007 91.1338 89.7715 88.6804 88.3734 88.5361C87.0475 88.3827 86.7949 91.9366 86.7949 91.9366L89.4288 92.5951Z" fill="#407BFF"/>
    <path opacity="0.7" d="M131.811 71.2254C132.185 69.8724 131.477 68.8351 130.187 68.3209C128.798 67.7662 127.265 68.5915 127.481 69.4394C127.693 70.2061 128.632 70.0934 129.34 70.5173C129.854 70.8059 131.013 74.1253 131.811 71.2254Z" fill="#FAFAFA"/>
    <path opacity="0.7" d="M134.123 70.1317C134.191 69.5094 133.356 69.5545 132.932 69.9423C132.508 70.3302 132.481 71.0067 133.041 70.8849C133.6 70.7631 134.069 70.6278 134.123 70.1317Z" fill="#FAFAFA"/>
    <path opacity="0.7" d="M125.987 68.7112C126.348 68.3007 126.813 68.869 126.808 69.3696C126.804 69.8702 126.384 70.2716 126.136 69.8567C125.888 69.4418 125.681 69.0404 125.987 68.7112Z" fill="#FAFAFA"/>
    <path opacity="0.7" d="M133.52 67.7804C133.52 67.1039 132.618 67.2663 132.216 67.7443C131.815 68.2224 131.887 68.944 132.455 68.741C133.024 68.5381 133.533 68.3261 133.52 67.7804Z" fill="#FAFAFA"/>
    <path opacity="0.7" d="M128.612 65.6205C128.012 65.3093 127.71 66.1708 127.958 66.748C128.206 67.3253 128.86 67.614 128.95 67.0141C129.041 66.4143 129.095 65.8686 128.612 65.6205Z" fill="#FAFAFA"/>
    <path opacity="0.7" d="M131.881 65.7208C131.507 65.0262 130.668 65.6667 130.506 66.3747C130.344 67.0828 130.804 67.7954 131.286 67.2767C131.769 66.7581 132.179 66.3026 131.881 65.7208Z" fill="#FAFAFA"/>
    <path opacity="0.7" d="M84.4426 93.4101C84.3207 93.1539 84.2518 92.8758 84.2401 92.5924C84.2283 92.309 84.2739 92.0262 84.3742 91.7608C84.4744 91.4955 84.6272 91.2531 84.8234 91.0483C85.0196 90.8435 85.2552 90.6804 85.516 90.5688C86.6841 89.9599 88.1498 90.6454 88.0506 91.4708C87.9604 92.2059 87.1125 92.1608 86.5352 92.6028C86.1293 92.9095 85.543 96.1025 84.4426 93.4101Z" fill="#FAFAFA"/>
    <path opacity="0.7" d="M82.2348 92.4268C82.1672 91.8811 82.9023 91.9036 83.2766 92.2418C83.651 92.5801 83.6825 93.1664 83.2 93.0672C82.7174 92.968 82.289 92.8642 82.2348 92.4268Z" fill="#FAFAFA"/>
    <path opacity="0.7" d="M88.6585 89.4329C88.1218 89.1307 87.8963 89.7351 88.1128 90.1861C88.3293 90.6371 88.9291 90.9302 89.0148 90.4973C89.1005 90.0643 89.0915 89.6719 88.6585 89.4329Z" fill="#FAFAFA"/>
    <path opacity="0.7" d="M82.4807 90.4718C82.4311 89.881 83.2294 89.9396 83.6218 90.3229C84.0141 90.7063 84.0186 91.3422 83.5 91.2249C82.9813 91.1077 82.5213 90.9498 82.4807 90.4718Z" fill="#FAFAFA"/>
    <path opacity="0.7" d="M85.7912 87.5438C86.1926 87.0928 86.6932 87.7287 86.6932 88.2744C86.6932 88.8201 86.2152 89.2621 85.9581 88.7931C85.701 88.324 85.471 87.8956 85.7912 87.5438Z" fill="#FAFAFA"/>
    <path opacity="0.7" d="M83.6109 88.3489C83.8725 87.7085 84.6662 88.1955 84.8692 88.7999C85.0721 89.4042 84.7384 90.0672 84.2693 89.6613C83.8003 89.2554 83.3989 88.8495 83.6109 88.3489Z" fill="#FAFAFA"/>
    <path opacity="0.2" d="M98.7154 118.373C98.4451 114.846 98.8727 111.302 99.9737 107.941C101.327 103.692 98.3727 97.9242 104.574 95.5158C110.058 93.3871 113.143 107.373 111.28 111.752C109.418 116.131 109.476 124.502 110.261 128.11C111.046 131.718 112.241 135.524 111.988 140.079C111.736 144.634 111.289 148.54 110.229 152.089C109.17 155.639 105.828 156.437 104.529 154.913C102.54 152.572 98.3366 145.153 100.362 138.374C102.355 131.745 98.9499 121.935 98.7154 118.373Z" fill="#FAFAFA"/>
    <path opacity="0.1" d="M98.1345 80.498C94.1431 81.6616 97.3137 74.8334 100.601 74.5854C103.889 74.3373 109.468 77.1876 98.1345 80.498Z" fill="black"/>
    <path opacity="0.3" d="M100.956 77.6516C100.758 76.691 101.074 75.4778 102.472 75.5003C102.932 75.5048 104.542 77.7869 100.956 77.6516Z" fill="black"/>
    <path d="M107.839 75.556C107.469 74.7802 107.478 73.9324 108.637 74.2345C109.016 74.3383 110.798 76.3948 107.839 75.556Z" fill="#407BFF"/>
    <path opacity="0.3" d="M107.839 75.556C107.469 74.7802 107.478 73.9324 108.637 74.2345C109.016 74.3383 110.798 76.3948 107.839 75.556Z" fill="black"/>
    <path opacity="0.7" d="M108.488 76.2891C107.559 76.2891 107.076 76.4514 107.027 77.0152C106.977 77.5789 108.38 77.9172 108.664 77.597C108.948 77.2768 109.349 76.3026 108.488 76.2891Z" fill="#FAFAFA"/>
</svg>
