<svg width="356" height="280" viewBox="0 0 356 280" fill="none" xmlns="http://www.w3.org/2000/svg">
<path d="M178.079 280C276.066 280 355.5 275.363 355.5 269.642C355.5 263.921 276.066 259.283 178.079 259.283C80.0914 259.283 0.657227 263.921 0.657227 269.642C0.657227 275.363 80.0914 280 178.079 280Z" fill="#F5F5F5"/>
<path d="M266.711 141.26H335.972C338.525 141.26 340.973 142.274 342.779 144.079C344.584 145.885 345.598 148.333 345.598 150.886V203.53C345.598 206.083 344.584 208.531 342.779 210.337C340.973 212.142 338.525 213.156 335.972 213.156H283.676C283.172 217.272 281.183 221.062 278.083 223.815C274.983 226.568 270.985 228.094 266.839 228.108C266.454 228.108 266.079 228.108 265.695 228.053C268.44 224.485 270.609 219.324 272.055 213.165H266.756C264.203 213.165 261.755 212.151 259.949 210.346C258.144 208.54 257.13 206.092 257.13 203.539V150.886C257.13 148.341 258.138 145.899 259.933 144.095C261.729 142.291 264.165 141.272 266.711 141.26Z" fill="#407BFF"/>
<path opacity="0.4" d="M266.711 141.26H335.972C338.525 141.26 340.973 142.274 342.779 144.079C344.584 145.885 345.598 148.333 345.598 150.886V203.53C345.598 206.083 344.584 208.531 342.779 210.337C340.973 212.142 338.525 213.156 335.972 213.156H283.676C283.172 217.272 281.183 221.062 278.083 223.815C274.983 226.568 270.985 228.094 266.839 228.108C266.454 228.108 266.079 228.108 265.695 228.053C268.44 224.485 270.609 219.324 272.055 213.165H266.756C264.203 213.165 261.755 212.151 259.949 210.346C258.144 208.54 257.13 206.092 257.13 203.539V150.886C257.13 148.341 258.138 145.899 259.933 144.095C261.729 142.291 264.165 141.272 266.711 141.26Z" fill="white"/>
<path d="M263.435 161.73L260.013 155.937L262.154 152.277C262.293 152.04 262.377 151.774 262.399 151.5C262.421 151.226 262.381 150.951 262.282 150.694L262.117 150.282C261.989 149.939 261.761 149.642 261.463 149.43C261.164 149.218 260.809 149.101 260.443 149.093L257.085 149.001C256.744 148.989 256.406 149.073 256.11 149.243C255.814 149.413 255.572 149.662 255.41 149.962L254.733 151.206C254.569 151.507 254.478 151.841 254.467 152.182C254.456 152.524 254.525 152.864 254.669 153.174L256.115 156.294L258.796 163.468L263.435 161.73Z" fill="#7F3E3B"/>
<path d="M290.695 160.715L271.14 174.945L261.989 157.76L256.773 160.02C256.773 160.02 264.817 186.063 269.493 185.01C274.169 183.958 287.364 177.434 291.656 172.959C293.824 170.699 295.471 166.554 293.33 161.429C293.231 161.184 293.077 160.965 292.879 160.789C292.681 160.613 292.445 160.486 292.19 160.416C291.935 160.347 291.667 160.338 291.407 160.39C291.148 160.442 290.904 160.553 290.695 160.715Z" fill="#407BFF"/>
<path d="M297.997 126.83C297.997 126.83 291.098 128.66 294.291 136.978C294.291 136.978 297.732 136.063 298.29 133.849C298.848 131.634 299.379 128.505 299.379 128.505L297.997 126.83Z" fill="#263238"/>
<path opacity="0.3" d="M297.997 126.83C297.997 126.83 291.098 128.66 294.291 136.978C294.291 136.978 297.732 136.063 298.29 133.849C298.848 131.634 299.379 128.505 299.379 128.505L297.997 126.83Z" fill="black"/>
<path d="M314.313 159.89L301.703 159.479L296.487 160.229L295.773 169.736L305.94 173.113L316.783 170.953L317.351 161.794L316.573 159.963L314.313 159.89Z" fill="#7F3E3B"/>
<path d="M297.146 213.156H314.99C315.164 206.87 316.097 174.23 315.905 174.431C315.713 174.632 317.79 167.476 317.79 167.476V164.576L315.905 161.464C315.905 161.464 311.86 167.632 305.199 167.33C298.885 167.037 297.796 160.732 297.796 160.732L297.036 170.368L296.24 193.702L297.256 203.585L297.146 213.156Z" fill="#407BFF"/>
<path opacity="0.6" d="M297.146 213.156H314.99C315.164 206.87 316.097 174.23 315.905 174.431C315.713 174.632 317.79 167.476 317.79 167.476V164.576L315.905 161.464C315.905 161.464 311.86 167.632 305.199 167.33C298.885 167.037 297.796 160.732 297.796 160.732L297.036 170.368L296.24 193.702L297.256 203.585L297.146 213.156Z" fill="white"/>
<path d="M290.045 213.155H299.708C301.612 200.564 301.868 177.541 301.868 177.541C300.714 173.134 299.813 168.664 299.169 164.154C298.583 158.874 306.123 159.578 312.711 160.448C319.3 161.317 307.587 177.98 307.587 177.98C307.587 177.98 306.754 200.5 308.685 213.155H332.477C331.287 209.797 327.773 199.484 326.986 192.173C325.971 183.334 332.056 170.44 331.187 164.154C330.317 157.867 309.463 159.148 309.463 159.148C309.463 159.148 296.112 159.057 293.138 159.194C289.661 159.35 288.27 168.509 286.623 175.748C284.976 182.986 288.005 190.151 289.661 199.256C290.483 203.844 290.612 208.529 290.045 213.155Z" fill="#263238"/>
<path d="M300.697 159.122C305.034 159.122 309.509 159.122 309.509 159.122C309.509 159.122 312.172 158.957 315.631 159.03C317.012 159.946 318.833 162.16 317.387 166.79L314.368 167.952L314.917 170.926C314.917 170.926 311.44 176.417 307.596 178.521C307.596 178.155 307.596 177.954 307.596 177.954C307.596 177.954 319.318 161.291 312.721 160.421C306.123 159.552 298.592 158.847 299.178 164.127C299.822 168.638 300.723 173.107 301.877 177.515C301.877 177.515 301.877 177.606 301.877 177.762C300.047 176.106 298.446 173.186 297.302 169.691L298.537 166.269L295.792 164.768C296.026 163.473 296.606 162.265 297.469 161.271C298.332 160.278 299.447 159.535 300.697 159.122Z" fill="#407BFF"/>
<path d="M300.513 164.109C300.302 163.624 300.216 163.092 300.264 162.564C300.312 162.037 300.492 161.53 300.787 161.09C305.747 159.415 305.29 155.691 304.146 152.241L312.134 144.088C311.668 148.425 311.494 158.409 314.33 161.886V162.682C313.097 164.267 311.446 165.478 309.563 166.177C307.68 166.877 305.64 167.039 303.67 166.644C302.971 166.526 302.314 166.231 301.762 165.787C301.209 165.344 300.779 164.766 300.513 164.109Z" fill="#7F3E3B"/>
<path opacity="0.1" d="M304.146 152.24L310.497 145.762L311.961 146.292C311.915 147.07 311.888 147.921 311.879 148.818C311.074 150.465 309.134 152.78 304.631 153.942C304.501 153.367 304.339 152.798 304.146 152.24Z" fill="black"/>
<path d="M316.252 136.896C314.321 144.281 313.662 147.447 309.133 150.54C302.325 155.197 293.677 151.217 293.357 143.402C293.073 136.365 296.267 125.476 304.173 123.939C305.914 123.592 307.714 123.696 309.403 124.241C311.092 124.786 312.614 125.753 313.824 127.051C315.034 128.349 315.892 129.935 316.317 131.658C316.742 133.381 316.72 135.184 316.252 136.896Z" fill="#7F3E3B"/>
<path d="M298.656 138.799C297.84 140.081 296.855 141.248 295.728 142.267C295.992 142.549 296.315 142.769 296.674 142.913C297.033 143.057 297.419 143.12 297.805 143.1L298.656 138.799Z" fill="#630F0F"/>
<path d="M306.534 136.081C306.586 136.079 306.637 136.063 306.681 136.035C306.715 136.016 306.745 135.989 306.769 135.957C306.793 135.926 306.81 135.89 306.819 135.851C306.829 135.813 306.83 135.773 306.824 135.733C306.817 135.694 306.803 135.657 306.781 135.624C306.501 135.129 306.105 134.71 305.626 134.402C305.148 134.095 304.603 133.908 304.036 133.858C303.997 133.856 303.957 133.863 303.92 133.877C303.883 133.891 303.849 133.912 303.82 133.939C303.791 133.967 303.768 133.999 303.752 134.036C303.735 134.072 303.726 134.111 303.725 134.15C303.723 134.19 303.728 134.229 303.741 134.266C303.754 134.303 303.775 134.337 303.801 134.366C303.828 134.395 303.86 134.419 303.895 134.435C303.931 134.451 303.97 134.46 304.009 134.462C304.475 134.513 304.921 134.674 305.313 134.932C305.704 135.19 306.029 135.537 306.26 135.944C306.29 135.989 306.331 136.025 306.379 136.049C306.427 136.073 306.481 136.084 306.534 136.081Z" fill="#263238"/>
<path d="M294.291 133.858C294.339 133.872 294.39 133.872 294.438 133.858C294.839 133.619 295.291 133.479 295.757 133.449C296.223 133.418 296.69 133.499 297.119 133.684C297.191 133.72 297.274 133.727 297.35 133.703C297.427 133.679 297.492 133.626 297.531 133.556C297.549 133.52 297.561 133.481 297.564 133.44C297.567 133.4 297.562 133.359 297.549 133.321C297.536 133.283 297.516 133.247 297.489 133.217C297.462 133.186 297.43 133.162 297.393 133.144C296.875 132.913 296.309 132.81 295.742 132.842C295.176 132.873 294.625 133.04 294.136 133.327C294.065 133.366 294.013 133.43 293.989 133.507C293.965 133.584 293.972 133.667 294.008 133.739C294.035 133.789 294.077 133.83 294.127 133.858C294.177 133.885 294.234 133.898 294.291 133.894V133.858Z" fill="#263238"/>
<path d="M300.898 145.131C300.545 145.132 300.193 145.101 299.845 145.039C299.821 145.036 299.798 145.028 299.777 145.015C299.756 145.003 299.738 144.986 299.723 144.967C299.709 144.947 299.698 144.925 299.693 144.901C299.687 144.877 299.686 144.853 299.69 144.829C299.699 144.781 299.725 144.738 299.765 144.709C299.804 144.681 299.852 144.668 299.9 144.673C300.672 144.825 301.469 144.794 302.227 144.582C302.985 144.371 303.683 143.985 304.265 143.456C304.301 143.431 304.345 143.419 304.388 143.422C304.432 143.426 304.474 143.444 304.506 143.474C304.538 143.503 304.559 143.543 304.565 143.587C304.571 143.63 304.562 143.675 304.54 143.712C303.553 144.635 302.249 145.143 300.898 145.131Z" fill="#263238"/>
<path d="M313.718 142.669C312.825 141.655 312.162 140.458 311.775 139.163C311.388 137.868 311.286 136.504 311.476 135.166C311.476 135.166 308.502 132.119 308.649 128.861C308.649 128.861 307.734 131.46 308.649 133.308C308.649 133.308 300.935 132.75 301.118 128.861C301.118 128.861 300.605 130.819 301.768 131.835C301.768 131.835 294.914 132.119 295.847 128.568C296.78 125.018 302.143 123.288 302.143 123.288C302.143 123.288 307.258 118.942 314.331 126.619C314.331 126.619 322.658 131.817 316.756 140.491L313.718 142.669Z" fill="#263238"/>
<path d="M316.811 143.154C316.476 143.807 316.014 144.387 315.451 144.858C314.889 145.33 314.237 145.684 313.535 145.899C311.705 146.466 310.689 144.801 311.174 143.017C311.614 141.406 313.114 139.173 315.018 139.356C315.678 139.454 316.272 139.809 316.67 140.344C317.068 140.88 317.237 141.551 317.141 142.211C317.097 142.545 316.985 142.866 316.811 143.154Z" fill="#7F3E3B"/>
<path d="M304.21 137.747C304.137 138.379 303.744 138.864 303.295 138.818C302.847 138.772 302.6 138.232 302.673 137.582C302.746 136.933 303.13 136.475 303.542 136.512C303.954 136.548 304.274 137.107 304.21 137.747Z" fill="#2E353A"/>
<path d="M297.036 136.996C296.972 137.628 296.579 138.103 296.167 138.067C295.755 138.03 295.462 137.472 295.526 136.831C295.59 136.191 295.984 135.715 296.441 135.761C296.899 135.807 297.036 136.346 297.036 136.996Z" fill="#2E353A"/>
<path d="M296.533 135.815L295.051 135.211C295.051 135.211 295.71 136.483 296.533 135.815Z" fill="#2E353A"/>
<path d="M303.752 136.603L302.261 136.008C302.261 136.008 302.929 137.243 303.752 136.603Z" fill="#2E353A"/>
<path d="M313.077 149.33C313.556 149.331 314.026 149.192 314.428 148.931C314.83 148.67 315.147 148.298 315.341 147.859C315.535 147.421 315.598 146.935 315.52 146.462C315.443 145.989 315.23 145.548 314.907 145.194L314.587 145.487C314.931 145.86 315.121 146.351 315.117 146.859C315.119 147.264 315.001 147.659 314.777 147.996C314.554 148.333 314.235 148.596 313.862 148.752C313.489 148.908 313.078 148.949 312.681 148.87C312.284 148.792 311.92 148.597 311.634 148.311C311.348 148.025 311.153 147.661 311.075 147.264C310.996 146.868 311.038 146.457 311.193 146.083C311.349 145.71 311.612 145.392 311.949 145.168C312.286 144.944 312.682 144.826 313.086 144.828C313.373 144.825 313.657 144.885 313.919 145.002L314.092 144.608C313.777 144.462 313.433 144.387 313.086 144.389C312.761 144.389 312.44 144.453 312.14 144.577C311.841 144.701 311.568 144.883 311.339 145.112C311.109 145.342 310.927 145.614 310.803 145.914C310.679 146.214 310.615 146.535 310.615 146.859C310.615 147.184 310.679 147.505 310.803 147.805C310.927 148.105 311.109 148.377 311.339 148.606C311.568 148.836 311.841 149.018 312.14 149.142C312.44 149.266 312.761 149.33 313.086 149.33H313.077Z" fill="#407BFF"/>
<g opacity="0.6">
<path d="M313.077 149.33C313.556 149.331 314.026 149.192 314.428 148.931C314.83 148.67 315.147 148.298 315.341 147.859C315.535 147.421 315.598 146.935 315.52 146.462C315.443 145.989 315.23 145.548 314.907 145.194L314.587 145.487C314.931 145.86 315.121 146.351 315.117 146.859C315.119 147.264 315.001 147.659 314.777 147.996C314.554 148.333 314.235 148.596 313.862 148.752C313.489 148.908 313.078 148.949 312.681 148.87C312.284 148.792 311.92 148.597 311.634 148.311C311.348 148.025 311.153 147.661 311.075 147.264C310.996 146.868 311.038 146.457 311.193 146.083C311.349 145.71 311.612 145.392 311.949 145.168C312.286 144.944 312.682 144.826 313.086 144.828C313.373 144.825 313.657 144.885 313.919 145.002L314.092 144.608C313.777 144.462 313.433 144.387 313.086 144.389C312.761 144.389 312.44 144.453 312.14 144.577C311.841 144.701 311.568 144.883 311.339 145.112C311.109 145.342 310.927 145.614 310.803 145.914C310.679 146.214 310.615 146.535 310.615 146.859C310.615 147.184 310.679 147.505 310.803 147.805C310.927 148.105 311.109 148.377 311.339 148.606C311.568 148.836 311.841 149.018 312.14 149.142C312.44 149.266 312.761 149.33 313.086 149.33H313.077Z" fill="white"/>
</g>
<path d="M311.376 186.702L304.659 186.995L302.408 183.335C302.264 183.099 302.067 182.899 301.834 182.75C301.601 182.601 301.338 182.507 301.063 182.475L300.624 182.42C300.262 182.373 299.895 182.434 299.569 182.597C299.243 182.761 298.973 183.017 298.794 183.335L297.128 186.254C296.958 186.55 296.873 186.887 296.885 187.228C296.896 187.569 297.003 187.901 297.192 188.185L297.97 189.365C298.156 189.652 298.407 189.891 298.703 190.062C298.999 190.234 299.331 190.334 299.672 190.353L303.104 190.545L310.699 191.57L311.376 186.702Z" fill="#7F3E3B"/>
<path d="M323.316 162.225L326.656 186.172H307.175L306.708 191.836C306.708 191.836 333.474 197.025 334.745 192.404C336.017 187.783 336.484 173.077 334.562 167.175C333.583 164.201 330.71 160.77 325.183 160.267C324.924 160.244 324.663 160.279 324.42 160.371C324.177 160.462 323.957 160.608 323.778 160.796C323.599 160.984 323.464 161.21 323.384 161.458C323.304 161.705 323.281 161.967 323.316 162.225Z" fill="#407BFF"/>
<path d="M238.188 24.0477H216.803L195.244 270.565H216.629C221.515 270.476 226.199 268.601 229.795 265.292C233.392 261.984 235.651 257.473 236.147 252.612L254.568 42.0104C254.822 39.7238 254.585 37.4093 253.874 35.2214C253.163 33.0334 251.993 31.0223 250.443 29.3223C248.893 27.6223 246.998 26.2725 244.884 25.363C242.771 24.4534 240.488 24.005 238.188 24.0477Z" fill="#263238"/>
<path d="M251.438 48.7538C251.484 48.2944 251.695 47.8672 252.031 47.5511C252.367 47.2349 252.807 47.051 253.268 47.0334C253.489 47.0296 253.707 47.0727 253.91 47.1598C254.112 47.2469 254.294 47.3761 254.443 47.5388C254.592 47.7014 254.704 47.8939 254.773 48.1033C254.842 48.3128 254.865 48.5345 254.842 48.7538L253.396 65.2249C253.374 65.7046 253.172 66.1585 252.832 66.4972C252.492 66.836 252.037 67.0349 251.557 67.055C251.337 67.0575 251.12 67.0135 250.918 66.9258C250.717 66.8381 250.536 66.7087 250.388 66.5462C250.24 66.3837 250.129 66.1917 250.06 65.9829C249.992 65.7741 249.969 65.5531 249.992 65.3347L251.438 48.7538Z" fill="#407BFF"/>
<path opacity="0.3" d="M251.438 48.7538C251.484 48.2944 251.695 47.8672 252.031 47.5511C252.367 47.2349 252.807 47.051 253.268 47.0334C253.489 47.0296 253.707 47.0727 253.91 47.1598C254.112 47.2469 254.294 47.3761 254.443 47.5388C254.592 47.7014 254.704 47.8939 254.773 48.1033C254.842 48.3128 254.865 48.5345 254.842 48.7538L253.396 65.2249C253.374 65.7046 253.172 66.1585 252.832 66.4972C252.492 66.836 252.037 67.0349 251.557 67.055C251.337 67.0575 251.12 67.0135 250.918 66.9258C250.717 66.8381 250.536 66.7087 250.388 66.5462C250.24 66.3837 250.129 66.1917 250.06 65.9829C249.992 65.7741 249.969 65.5531 249.992 65.3347L251.438 48.7538Z" fill="white"/>
<path d="M212.246 270.565H124.135C121.836 270.606 119.554 270.157 117.443 269.247C115.331 268.338 113.437 266.989 111.887 265.29C110.338 263.592 109.167 261.582 108.455 259.396C107.742 257.21 107.504 254.897 107.755 252.612L126.184 42.0102C126.674 37.1457 128.932 32.63 132.53 29.3192C136.127 26.0084 140.814 24.1327 145.703 24.0475H233.814C236.112 24.0066 238.393 24.4556 240.504 25.3645C242.615 26.2735 244.508 27.6217 246.058 29.3193C247.607 31.0169 248.778 33.025 249.491 35.21C250.204 37.3951 250.443 39.707 250.194 41.9918L231.764 252.612C231.268 257.473 229.009 261.984 225.412 265.292C221.816 268.6 217.132 270.476 212.246 270.565Z" fill="#407BFF"/>
<path d="M233.457 28.1836H210.581C209.836 28.1982 209.117 28.4621 208.54 28.9332C207.962 29.4043 207.56 30.0554 207.396 30.7824L207.241 31.5053C206.843 33.2822 205.86 34.8741 204.45 36.0257C203.039 37.1773 201.283 37.8218 199.463 37.8558H177.666C175.941 37.8927 174.273 37.2453 173.024 36.0553C171.776 34.8652 171.05 33.2293 171.004 31.5053V30.7824C170.995 30.4314 170.916 30.0858 170.773 29.7652C170.63 29.4447 170.425 29.1555 170.17 28.9141C169.915 28.6728 169.615 28.484 169.287 28.3587C168.959 28.2333 168.61 28.1738 168.259 28.1836H145.382C141.62 28.2534 138.013 29.6984 135.243 32.2458C132.473 34.7932 130.732 38.2666 130.348 42.0102L111.873 252.612C111.679 254.373 111.862 256.155 112.411 257.84C112.96 259.524 113.861 261.073 115.055 262.382C116.249 263.691 117.708 264.73 119.335 265.431C120.962 266.132 122.72 266.479 124.492 266.447H212.612C216.376 266.377 219.984 264.931 222.754 262.382C225.524 259.832 227.265 256.357 227.646 252.612L246.076 42.0102C246.268 40.2498 246.084 38.4686 245.534 36.7851C244.985 35.1015 244.084 33.5543 242.89 32.2463C241.696 30.9382 240.238 29.8994 238.611 29.1989C236.985 28.4984 235.228 28.1523 233.457 28.1836Z" fill="#407BFF"/>
<path opacity="0.7" d="M233.457 28.1836H210.581C209.836 28.1982 209.117 28.4621 208.54 28.9332C207.962 29.4043 207.56 30.0554 207.396 30.7824L207.241 31.5053C206.843 33.2822 205.86 34.8741 204.45 36.0257C203.039 37.1773 201.283 37.8218 199.463 37.8558H177.666C175.941 37.8927 174.273 37.2453 173.024 36.0553C171.776 34.8652 171.05 33.2293 171.004 31.5053V30.7824C170.995 30.4314 170.916 30.0858 170.773 29.7652C170.63 29.4447 170.425 29.1555 170.17 28.9141C169.915 28.6728 169.615 28.484 169.287 28.3587C168.959 28.2333 168.61 28.1738 168.259 28.1836H145.382C141.62 28.2534 138.013 29.6984 135.243 32.2458C132.473 34.7932 130.732 38.2666 130.348 42.0102L111.873 252.612C111.679 254.373 111.862 256.155 112.411 257.84C112.96 259.524 113.861 261.073 115.055 262.382C116.249 263.691 117.708 264.73 119.335 265.431C120.962 266.132 122.72 266.479 124.492 266.447H212.612C216.376 266.377 219.984 264.931 222.754 262.382C225.524 259.832 227.265 256.357 227.646 252.612L246.076 42.0102C246.268 40.2498 246.084 38.4686 245.534 36.7851C244.985 35.1015 244.084 33.5543 242.89 32.2463C241.696 30.9382 240.238 29.8994 238.611 29.1989C236.985 28.4984 235.228 28.1523 233.457 28.1836Z" fill="white"/>
<g opacity="0.2">
<path d="M183.266 31.7182C183.996 31.0192 184.069 29.9111 183.43 29.243C182.79 28.5749 181.68 28.6 180.95 29.2989C180.22 29.9978 180.146 31.106 180.786 31.7741C181.425 32.4422 182.536 32.4171 183.266 31.7182Z" fill="black"/>
<path d="M196.425 28.77H190.423C189.947 28.7786 189.49 28.9611 189.14 29.2831C188.789 29.6051 188.568 30.0442 188.519 30.5177C188.496 30.7406 188.52 30.9658 188.59 31.1786C188.661 31.3914 188.775 31.5869 188.927 31.7521C189.078 31.9173 189.263 32.0485 189.469 32.137C189.674 32.2255 189.897 32.2693 190.121 32.2655H196.124C196.599 32.2549 197.054 32.0717 197.404 31.7501C197.755 31.4285 197.976 30.9905 198.027 30.5177C198.052 30.2946 198.029 30.0687 197.959 29.8553C197.889 29.6418 197.775 29.4457 197.623 29.2802C197.471 29.1146 197.286 28.9835 197.08 28.8955C196.873 28.8075 196.65 28.7647 196.425 28.77Z" fill="black"/>
</g>
<path d="M140.259 37.8283H142.107L142.272 35.9707H140.414L140.259 37.8283Z" fill="#407BFF"/>
<path d="M144.129 35.9695L143.964 37.8271H145.812L145.977 35.9695L146.142 34.1211H144.284L144.129 35.9695Z" fill="#407BFF"/>
<path d="M148.156 32.2656L147.991 34.1232L147.826 35.9716L147.671 37.8292H149.519L149.684 35.9716L149.849 34.1232L150.004 32.2656H148.156Z" fill="#407BFF"/>
<path d="M227.83 32.3926L227.711 33.7469H226.796L226.558 36.4921H227.473L227.354 37.8555H235.507L235.983 32.42L227.83 32.3926ZM231.096 36.4646H228.351L228.589 33.7194H231.334L231.096 36.4646Z" fill="#407BFF"/>
<g opacity="0.4">
<path d="M177.73 37.8555L116.906 264.031C119.114 265.622 121.771 266.468 124.492 266.447H129.25L190.724 37.8555H177.73Z" fill="white"/>
<path d="M233.458 28.184H210.581C209.836 28.1986 209.118 28.4625 208.54 28.9337C207.963 29.4048 207.56 30.0559 207.397 30.7828L207.241 31.5057C206.854 33.2354 205.913 34.7912 204.56 35.9361C203.207 37.0809 201.517 37.752 199.747 37.8471L138.236 266.448H185.133L246.076 39.8236C245.881 36.6302 244.459 33.636 242.107 31.4668C239.755 29.2976 236.656 28.1214 233.458 28.184Z" fill="white"/>
</g>
<path d="M141.393 89.5665L138.648 88.9717C138.471 88.937 138.304 88.864 138.158 88.7578C138.012 88.6516 137.892 88.5147 137.804 88.3569C137.717 88.199 137.666 88.024 137.653 87.8441C137.641 87.6642 137.668 87.4837 137.733 87.3155L141.567 77.3047L145.95 78.2197L142.83 88.6789C142.748 88.9816 142.554 89.2417 142.287 89.4065C142.02 89.5714 141.701 89.6286 141.393 89.5665Z" fill="#407BFF"/>
<path d="M152.026 76.7553C151.846 76.7163 151.675 76.6419 151.523 76.5365C151.371 76.431 151.242 76.2966 151.142 76.1409C151.043 75.9853 150.975 75.8114 150.943 75.6295C150.911 75.4475 150.915 75.261 150.956 75.0807L151.322 73.3604C151.361 73.1788 151.435 73.0068 151.541 72.8544C151.647 72.702 151.783 72.5722 151.939 72.4725C152.096 72.3729 152.271 72.3054 152.454 72.274C152.637 72.2427 152.825 72.248 153.005 72.2898C153.371 72.3687 153.69 72.5895 153.892 72.9035C154.095 73.2175 154.164 73.5991 154.085 73.9643L153.71 75.6755C153.629 76.0414 153.406 76.3604 153.091 76.5627C152.775 76.765 152.393 76.8343 152.026 76.7553Z" fill="#407BFF"/>
<path d="M149.318 68.2275C149.318 68.2275 138.886 67.0379 135.235 65.1712C126.652 60.7606 118.443 50.2374 116.705 49.8622C113.868 49.24 110.007 55.9565 108.067 64.8601C106.127 73.7636 106.859 81.4685 109.695 82.0816C111.443 82.4659 123.266 76.2984 132.911 75.85C137.01 75.667 146.966 78.952 146.966 78.952L149.318 68.2275Z" fill="#407BFF"/>
<path opacity="0.3" d="M149.318 68.2275C149.318 68.2275 138.886 67.0379 135.235 65.1712C126.652 60.7606 118.443 50.2374 116.705 49.8622C113.868 49.24 110.007 55.9565 108.067 64.8601C106.127 73.7636 106.859 81.4685 109.695 82.0816C111.443 82.4659 123.266 76.2984 132.911 75.85C137.01 75.667 146.966 78.952 146.966 78.952L149.318 68.2275Z" fill="white"/>
<path d="M118.334 67.0557C116.403 75.9501 112.532 82.6666 109.695 82.0444C106.859 81.4222 106.136 73.7173 108.067 64.8229C109.997 55.9285 113.868 49.2028 116.705 49.8251C119.541 50.4473 120.273 58.1887 118.334 67.0557Z" fill="#407BFF"/>
<path opacity="0.4" d="M118.334 67.0557C116.403 75.9501 112.532 82.6666 109.695 82.0444C106.859 81.4222 106.136 73.7173 108.067 64.8229C109.997 55.9285 113.868 49.2028 116.705 49.8251C119.541 50.4473 120.273 58.1887 118.334 67.0557Z" fill="black"/>
<path d="M147.624 67.0561L142.783 66.0038C142.472 65.9351 142.149 65.9312 141.836 65.9925C141.523 66.0538 141.226 66.1789 140.963 66.36C140.701 66.5411 140.478 66.7744 140.309 67.0453C140.141 67.3162 140.03 67.6189 139.983 67.9346C139.809 69.1516 139.59 70.4052 139.315 71.6863C139.041 72.9674 138.711 74.2027 138.4 75.3466C138.312 75.6538 138.287 75.976 138.328 76.2931C138.369 76.6102 138.474 76.9156 138.638 77.1902C138.802 77.4647 139.021 77.7027 139.281 77.8893C139.54 78.0759 139.836 78.2071 140.148 78.2748L145.885 79.5192C149.326 80.2696 151.806 77.8447 152.501 74.3857C152.812 72.7684 152.475 71.0937 151.563 69.7226C150.651 68.3514 149.236 67.3938 147.624 67.0561Z" fill="#263238"/>
<path d="M113.356 65.2699L113.054 66.67C112.966 67.0613 113.02 67.471 113.206 67.8263C113.392 68.1816 113.698 68.4593 114.07 68.6099L117.583 70.074C117.858 69.1132 118.114 68.1158 118.334 67.0909C118.553 66.066 118.746 65.0412 118.901 64.0529L115.085 63.9248C114.685 63.9113 114.293 64.0385 113.977 64.2843C113.661 64.5301 113.441 64.8788 113.356 65.2699Z" fill="#263238"/>
<path opacity="0.8" d="M113.356 65.2699L113.054 66.67C112.966 67.0613 113.02 67.471 113.206 67.8263C113.392 68.1816 113.698 68.4593 114.07 68.6099L117.583 70.074C117.858 69.1132 118.114 68.1158 118.334 67.0909C118.553 66.066 118.746 65.0412 118.901 64.0529L115.085 63.9248C114.685 63.9113 114.293 64.0385 113.977 64.2843C113.661 64.5301 113.441 64.8788 113.356 65.2699Z" fill="white"/>
<path opacity="0.2" d="M116.009 66.5806C115.817 67.4956 115.607 68.3192 115.378 69.1611L117.583 70.0761C117.858 69.1153 118.114 68.1179 118.334 67.093C118.553 66.0681 118.745 65.0433 118.901 64.055L116.503 63.9727C116.369 64.8084 116.205 65.6777 116.009 66.5806Z" fill="black"/>
<path d="M200.552 67.128C201.426 67.4626 202.367 67.5848 203.298 67.4846C204.229 67.3843 205.122 67.0645 205.905 66.5515C208.714 64.7214 213.985 67.0273 212.393 74.5217C209.648 87.4057 203.919 96.657 207.634 100.555C207.634 100.555 195.263 101.123 197.093 90.1967C198.466 81.9611 207.772 72.7007 205.53 70.8523C204.779 70.23 203.7 70.5503 200.177 70.5503L200.552 67.128Z" fill="#263238"/>
<path d="M200.177 70.5525C201.872 70.4965 203.566 70.7001 205.2 71.1564C205.777 69.4976 206.002 67.7368 205.859 65.9863C204.057 66.1933 202.279 66.5764 200.552 67.1302L200.177 70.5525Z" fill="#407BFF"/>
<path d="M188.528 57.7412C188.528 57.7412 183.385 56.2771 186.78 52.9554C191.209 48.6272 197.505 56.7346 197.505 56.7346C197.505 56.7346 212.265 63.1858 200.085 78.147C200.085 78.147 195.684 86.0166 194.769 82.9511C193.854 79.8857 199.966 71.2017 199.966 71.2017L199.6 63.4237L197.907 60.3949L192.591 57.3568L188.528 57.7412Z" fill="#263238"/>
<path d="M168.132 101.562C167.783 100.992 167.325 100.496 166.784 100.102C166.244 99.7088 165.631 99.4258 164.981 99.2694C164.33 99.113 163.656 99.0864 162.995 99.1909C162.335 99.2954 161.701 99.5292 161.131 99.8787H161.058C159.457 100.858 157.755 101.947 156.071 102.953L150.993 106C148.613 107.397 146.222 108.755 143.818 110.072C143.681 108.246 143.651 106.412 143.727 104.582C143.791 102.441 143.947 100.254 144.111 98.0669C144.276 95.8799 144.496 93.638 144.679 91.4693V91.4144C144.725 90.8047 144.55 90.1987 144.186 89.7074C143.822 89.2161 143.294 88.8723 142.697 88.739C142.1 88.6056 141.475 88.6917 140.937 88.9813C140.398 89.271 139.982 89.7449 139.765 90.3163C138.95 92.5216 138.31 94.6994 137.669 96.9322C137.029 99.1649 136.544 101.416 136.114 103.74C135.644 106.153 135.387 108.603 135.345 111.061C135.309 112.607 135.509 114.15 135.94 115.636C136.332 116.965 137.094 118.155 138.136 119.068C138.926 119.735 139.869 120.197 140.881 120.413C141.764 120.584 142.671 120.584 143.553 120.413C143.765 120.365 143.973 120.301 144.175 120.221L144.477 120.102C146.426 119.296 148.366 118.491 150.251 117.576C152.136 116.661 154.021 115.746 155.861 114.785C157.7 113.824 159.521 112.79 161.351 111.72C163.181 110.649 164.883 109.578 166.686 108.334C167.734 107.593 168.464 106.485 168.732 105.231C169 103.976 168.785 102.666 168.132 101.562Z" fill="#CE7A63"/>
<path d="M172.588 94.8827C175.672 101.096 171.234 106.486 163.099 115.124C158.85 111.679 155.882 106.906 154.671 101.572C154.671 101.572 164.078 93.812 172.588 94.8827Z" fill="#407BFF"/>
<path opacity="0.2" d="M172.908 102.259C169.897 100.429 166.502 99.6052 164.151 102.597C162.315 105.007 160.188 107.18 157.818 109.067C159.259 111.352 161.05 113.396 163.126 115.125C168.012 109.964 171.508 105.965 172.908 102.259Z" fill="black"/>
<path d="M142.39 79.8676L144.476 81.2493C144.866 81.5027 145.188 81.8463 145.416 82.251C145.644 82.6557 145.77 83.1094 145.785 83.5736L145.95 87.975C145.977 88.8412 145.799 89.7014 145.43 90.4855C145.061 91.2696 144.512 91.9552 143.827 92.4863L142.957 93.1543C139.297 91.0954 136.927 86.2089 136.927 86.2089L136.085 84.8913C135.905 84.6258 135.779 84.3271 135.715 84.0125C135.651 83.6979 135.65 83.3738 135.712 83.0588C135.774 82.7439 135.898 82.4444 136.077 82.1777C136.256 81.9111 136.486 81.6826 136.753 81.5055L139.334 79.8035C139.795 79.518 140.329 79.3721 140.871 79.3834C141.414 79.3948 141.941 79.5629 142.39 79.8676Z" fill="#CE7A63"/>
<path d="M165.441 266.447C170.181 251.806 173.42 235.546 170.199 223.677C189.782 166.157 180.951 149.411 180.951 149.411L157.645 140.91C157.645 140.91 154.314 192.712 153.307 217.775C152.749 231.785 150.361 250.004 147.606 266.457L165.441 266.447Z" fill="#263238"/>
<path opacity="0.5" d="M177.529 170.694L172.798 163.062L169.906 169.01C168.398 185.411 169.112 201.94 172.029 218.149C175.799 206.828 178.777 195.258 180.942 183.523L177.529 170.694Z" fill="black"/>
<path d="M179.762 266.447H197.432C199.262 251.23 199.262 234.859 193.863 223.915C202.098 163.713 190.203 148.972 190.203 148.972L165.697 145.092C165.697 145.092 172.35 196.573 176.166 221.344C178.133 234.173 179.249 250.818 179.762 266.447Z" fill="#263238"/>
<path d="M161.679 106.448C160.645 110.902 159.911 115.42 159.483 119.973C158.696 126.607 158.12 133.159 157.36 144.112L190.54 149.41C191.355 139.967 194.128 129.489 203.415 109.404C203.94 108.359 204.225 107.21 204.248 106.041C204.271 104.872 204.033 103.713 203.551 102.648C203.068 101.583 202.354 100.639 201.46 99.8863C200.565 99.1331 199.514 98.5894 198.383 98.2949C197.092 97.9564 195.72 97.627 194.301 97.325C189.341 96.1748 184.304 95.3797 179.23 94.9458C177.574 94.836 175.845 94.772 174.188 94.7354C168.204 94.5798 162.787 100.638 161.679 106.448Z" fill="#407BFF"/>
<path d="M195.922 80.1504C193.845 84.7898 190.834 93.4188 193.47 97.1522C193.47 97.1522 188.986 95.7339 178.289 100.218C176.102 95.7247 178.408 94.7273 178.408 94.7273C184.109 94.3156 184.905 90.3259 184.813 86.4918L195.922 80.1504Z" fill="#CE7A63"/>
<path d="M180.53 99.3292C181.105 99.5406 181.629 99.8731 182.064 100.304C182.5 100.735 182.838 101.254 183.056 101.827C183.238 102.244 183.506 102.617 183.843 102.922C184.179 103.228 184.577 103.459 185.009 103.6C185.441 103.74 185.898 103.788 186.35 103.74C186.802 103.692 187.239 103.548 187.631 103.319C190.376 101.772 193.835 99.5671 195.565 97.6089C194.669 96.9269 193.81 96.1968 192.993 95.4219C192.993 95.4219 182.699 97.7736 180.53 99.3292Z" fill="white"/>
<path d="M177.556 98.3331C176.773 98.4597 176.032 98.7736 175.397 99.2482C175.22 99.3764 175.008 99.4455 174.79 99.4457C174.572 99.4458 174.359 99.3771 174.182 99.2491C174.006 99.1212 173.874 98.9407 173.806 98.7335C173.738 98.5262 173.738 98.3028 173.804 98.0952C174.948 94.8559 176.925 94.4349 176.925 94.4349C177.88 94.0712 178.935 94.0712 179.89 94.4349C179.098 94.6969 178.427 95.2347 177.998 95.9503C177.57 96.6658 177.413 97.5115 177.556 98.3331Z" fill="white"/>
<path opacity="0.2" d="M191.401 82.7383L184.849 86.49C184.88 87.4082 184.825 88.3273 184.685 89.2352C186.826 89.2352 190.175 87.4783 190.907 85.3828C191.234 84.5394 191.401 83.6427 191.401 82.7383Z" fill="black"/>
<path d="M201.605 71.0818C198.859 78.6769 197.944 81.9345 192.847 84.9816C185.243 89.5569 176.486 85.1189 176.861 77.0023C177.209 69.6818 181.583 58.4997 190.056 57.1912C191.867 56.8492 193.736 56.9977 195.47 57.6214C197.204 58.2451 198.74 59.3212 199.918 60.7383C201.096 62.1553 201.874 63.8616 202.17 65.6803C202.467 67.4991 202.271 69.364 201.605 71.0818Z" fill="#CE7A63"/>
<path d="M191.402 70.797C191.2 71.4467 190.706 71.8951 190.285 71.7944C189.864 71.6938 189.69 71.0898 189.883 70.4401C190.075 69.7904 190.587 69.3512 191.008 69.4519C191.429 69.5525 191.603 70.1565 191.402 70.797Z" fill="#263238"/>
<path d="M183.303 68.6397C183.102 69.2802 182.598 69.7286 182.177 69.6279C181.756 69.5273 181.583 68.9233 181.784 68.2828C181.985 67.6423 182.488 67.1847 182.909 67.2854C183.33 67.386 183.504 67.9717 183.303 68.6397Z" fill="#263238"/>
<path d="M183.083 67.3671L181.674 66.5527C181.674 66.5527 182.095 67.9711 183.083 67.3671Z" fill="#263238"/>
<path d="M185.655 69.9746C184.624 71.3182 183.424 72.5238 182.086 73.5616C182.351 73.8742 182.682 74.1235 183.056 74.2914C183.429 74.4592 183.836 74.5413 184.245 74.5316L185.655 69.9746Z" fill="#BA4D3C"/>
<path d="M193.862 67.0553C193.811 67.0508 193.761 67.0344 193.716 67.0075C193.672 66.9805 193.634 66.9436 193.606 66.8998C193.356 66.49 193.008 66.1495 192.592 65.9097C192.176 65.6698 191.707 65.5383 191.227 65.5272C191.177 65.5284 191.127 65.5196 191.081 65.5013C191.034 65.483 190.992 65.4555 190.956 65.4206C190.92 65.3856 190.892 65.3438 190.872 65.2977C190.853 65.2516 190.843 65.2021 190.843 65.152C190.849 65.0449 190.895 64.9439 190.971 64.8681C191.046 64.7922 191.147 64.7467 191.255 64.7402C191.861 64.7508 192.455 64.9119 192.984 65.209C193.512 65.506 193.959 65.9298 194.283 66.4422C194.319 66.51 194.335 66.5861 194.33 66.6624C194.326 66.7388 194.301 66.8124 194.257 66.8754C194.214 66.9384 194.154 66.9885 194.085 67.0202C194.015 67.0519 193.938 67.064 193.862 67.0553Z" fill="#263238"/>
<path d="M181.564 63.2034C181.519 63.185 181.478 63.1577 181.443 63.1231C181.409 63.0886 181.381 63.0474 181.363 63.0021C181.331 62.9038 181.339 62.7968 181.385 62.7044C181.432 62.6119 181.512 62.5414 181.61 62.508C182.196 62.2614 182.831 62.153 183.466 62.191C184.101 62.2291 184.718 62.4127 185.27 62.7276C185.311 62.7565 185.346 62.7935 185.372 62.8365C185.399 62.8794 185.416 62.9272 185.422 62.977C185.429 63.0268 185.426 63.0775 185.412 63.1259C185.399 63.1743 185.375 63.2194 185.344 63.2583C185.28 63.3416 185.187 63.3981 185.084 63.4168C184.981 63.4354 184.874 63.4148 184.785 63.359C184.344 63.1124 183.852 62.9709 183.348 62.9455C182.843 62.9201 182.339 63.0115 181.875 63.2126C181.826 63.2318 181.772 63.2408 181.719 63.2393C181.666 63.2377 181.613 63.2255 181.564 63.2034Z" fill="#263238"/>
<path d="M191.181 69.5351L189.781 68.7207C189.781 68.7207 190.193 70.1207 191.181 69.5351Z" fill="#263238"/>
<path d="M161.002 131.393H153.096C152.712 131.376 152.344 131.235 152.047 130.991C151.75 130.747 151.54 130.413 151.449 130.039L147.789 112.909C147.742 112.748 147.734 112.578 147.766 112.414C147.799 112.249 147.869 112.095 147.973 111.963C148.077 111.831 148.211 111.726 148.363 111.657C148.516 111.588 148.683 111.556 148.85 111.564H156.757C157.14 111.58 157.507 111.72 157.804 111.962C158.101 112.205 158.311 112.537 158.404 112.909L162.064 130.039C162.11 130.2 162.118 130.37 162.086 130.535C162.054 130.7 161.983 130.855 161.879 130.987C161.776 131.119 161.642 131.225 161.49 131.296C161.337 131.366 161.17 131.4 161.002 131.393Z" fill="#263238"/>
<path d="M160.087 131.393H152.181C151.797 131.376 151.429 131.235 151.132 130.991C150.835 130.747 150.625 130.413 150.534 130.039L146.874 112.909C146.827 112.748 146.819 112.578 146.851 112.414C146.884 112.249 146.954 112.095 147.058 111.963C147.162 111.831 147.296 111.726 147.448 111.657C147.601 111.588 147.768 111.556 147.935 111.564H155.842C156.225 111.58 156.592 111.72 156.889 111.962C157.186 112.205 157.396 112.537 157.489 112.909L161.149 130.039C161.195 130.2 161.203 130.37 161.171 130.535C161.139 130.7 161.068 130.855 160.964 130.987C160.861 131.119 160.727 131.225 160.575 131.296C160.422 131.366 160.255 131.4 160.087 131.393Z" fill="#263238"/>
<path opacity="0.2" d="M160.087 131.393H152.181C151.797 131.376 151.429 131.235 151.132 130.991C150.835 130.747 150.625 130.413 150.534 130.039L146.874 112.909C146.827 112.748 146.819 112.578 146.851 112.414C146.884 112.249 146.954 112.095 147.058 111.963C147.162 111.831 147.296 111.726 147.448 111.657C147.601 111.588 147.768 111.556 147.935 111.564H155.842C156.225 111.58 156.592 111.72 156.889 111.962C157.186 112.205 157.396 112.537 157.489 112.909L161.149 130.039C161.195 130.2 161.203 130.37 161.171 130.535C161.139 130.7 161.068 130.855 160.964 130.987C160.861 131.119 160.727 131.225 160.575 131.296C160.422 131.366 160.255 131.4 160.087 131.393Z" fill="white"/>
<path d="M157.251 121.3L159.704 120.76C160.157 120.66 160.627 120.669 161.076 120.787C161.524 120.905 161.939 121.128 162.284 121.438L165.56 124.384C166.202 124.967 166.697 125.694 167.004 126.505C167.311 127.316 167.421 128.189 167.326 129.051L167.198 130.131C163.199 131.311 158.047 129.646 158.047 129.646L156.51 129.335C156.194 129.28 155.891 129.162 155.621 128.989C155.35 128.816 155.116 128.591 154.933 128.328C154.75 128.064 154.621 127.766 154.554 127.452C154.487 127.138 154.483 126.814 154.543 126.498L155.119 123.451C155.232 122.926 155.493 122.445 155.871 122.064C156.248 121.683 156.728 121.418 157.251 121.3Z" fill="#CE7A63"/>
<path d="M199.426 103.484C198.084 103.356 196.747 103.766 195.707 104.624C194.668 105.482 194.011 106.717 193.881 108.059V108.233C193.79 109.148 193.671 110.264 193.552 111.298C193.433 112.332 193.286 113.403 193.131 114.455C192.82 116.569 192.444 118.655 192.023 120.724C191.603 122.792 191.108 124.823 190.514 126.809C190.029 128.401 189.47 129.938 188.876 131.439C188.138 131.469 187.399 131.423 186.67 131.302C184.307 130.946 181.972 130.43 179.679 129.755C177.529 129.078 175.36 128.291 173.192 127.468C171.023 126.644 168.836 125.756 166.704 124.905H166.649C166.075 124.667 165.434 124.647 164.847 124.85C164.26 125.053 163.768 125.465 163.464 126.007C163.16 126.548 163.066 127.183 163.2 127.79C163.333 128.396 163.684 128.933 164.187 129.298C166.2 130.78 168.232 132.043 170.327 133.361C172.423 134.678 174.592 135.804 176.852 136.893C179.454 138.033 182.148 138.951 184.904 139.638C186.396 140.049 187.933 140.271 189.48 140.297C190.516 140.309 191.547 140.157 192.536 139.848C193.922 139.424 195.16 138.615 196.105 137.515C196.269 137.311 196.416 137.094 196.544 136.865L196.635 136.691C197.819 134.513 198.846 132.253 199.71 129.929C200.544 127.664 201.252 125.354 201.833 123.011C202.428 120.696 202.885 118.363 203.26 116.02C203.434 114.84 203.59 113.668 203.727 112.488C203.864 111.308 203.965 110.164 204.029 108.828C204.099 107.515 203.659 106.227 202.801 105.231C201.944 104.235 200.735 103.609 199.426 103.484Z" fill="#CE7A63"/>
<path d="M200.954 99.4395C206.609 103.438 206.884 109.423 203.828 120.879C199.737 122.929 189.8 120.339 189.8 120.339C189.8 120.339 192.929 102.551 200.954 99.4395Z" fill="#407BFF"/>
<path d="M180.604 76.727C180.604 76.727 183.349 76.1871 190.807 76.4159C189.892 78.6486 188.171 80.4238 184.319 80.3049C183.394 80.3651 182.484 80.0558 181.787 79.445C181.09 78.8342 180.665 77.9717 180.604 77.0473C180.604 76.9375 180.595 76.8368 180.604 76.727Z" fill="#263238"/>
<path d="M186.149 78.5585C184.672 78.4332 183.193 78.7758 181.922 79.5376C182.625 80.0209 183.457 80.2794 184.31 80.2788C185.785 80.4084 187.262 80.0655 188.529 79.2997C187.834 78.8072 187.001 78.5477 186.149 78.5585Z" fill="#BA4D3C"/>
<path d="M180.942 76.6819C181.011 76.9586 181.153 77.2115 181.355 77.4131C181.557 77.6146 181.809 77.7573 182.086 77.8257C184.313 77.8886 186.542 77.7631 188.748 77.4505C189.099 77.4274 189.44 77.3185 189.74 77.1335C190.04 76.9485 190.29 76.6929 190.468 76.389C187.29 76.235 184.105 76.3329 180.942 76.6819Z" fill="white"/>
<path d="M190.121 56.6885C189.641 56.7617 189.167 56.8687 188.702 57.0088V57.448C189.906 57.4318 191.104 57.6079 192.253 57.9696C198.585 59.9004 199.573 63.46 197.45 68.7216C196.434 71.2288 195.885 76.5453 197.057 77.5427C197.359 77.799 198.274 77.7624 199.463 77.5427C200.25 75.7126 201.001 73.5805 201.961 70.8902C202.637 69.1309 202.831 67.2231 202.524 65.3637C202.216 63.5043 201.417 61.7608 200.21 60.3133C199.003 58.8657 197.432 57.7666 195.658 57.1293C193.884 56.4921 191.973 56.3399 190.121 56.6885Z" fill="#263238"/>
<path d="M202.327 78.0361C201.741 78.6491 201.038 79.1395 200.261 79.4788C199.483 79.8181 198.646 79.9995 197.798 80.0126C195.602 80.0126 195.254 77.7432 196.489 75.8582C197.596 74.1653 200.067 72.1248 201.98 73.049C203.892 73.9732 203.846 76.4713 202.327 78.0361Z" fill="#CE7A63"/>
<g opacity="0.9">
<path d="M188.83 116.91C173.42 115.995 166.466 113.113 163.693 111.502C163.604 111.455 163.521 111.397 163.446 111.328C162.65 110.633 163.656 109.361 164.581 109.892C167.005 111.292 173.685 114.138 188.939 115.08C189.181 115.094 189.406 115.203 189.568 115.383C189.729 115.563 189.812 115.8 189.8 116.041C189.794 116.162 189.764 116.281 189.712 116.39C189.66 116.5 189.587 116.598 189.496 116.678C189.406 116.759 189.301 116.821 189.186 116.861C189.072 116.901 188.951 116.918 188.83 116.91Z" fill="white"/>
</g>
<g opacity="0.9">
<path d="M188.024 125.619C188.025 125.743 188 125.866 187.951 125.98C187.902 126.094 187.83 126.197 187.74 126.283C187.651 126.368 187.544 126.435 187.428 126.478C187.312 126.521 187.188 126.54 187.064 126.534C178.271 126.214 169.625 124.188 161.607 120.568C161.496 120.513 161.398 120.436 161.317 120.342C161.237 120.248 161.177 120.138 161.14 120.02C161.103 119.902 161.091 119.778 161.103 119.655C161.116 119.532 161.153 119.413 161.213 119.305C161.326 119.1 161.513 118.945 161.736 118.874C161.959 118.802 162.201 118.819 162.412 118.92C170.215 122.41 178.614 124.373 187.155 124.704C187.39 124.715 187.611 124.817 187.773 124.987C187.935 125.158 188.025 125.384 188.024 125.619Z" fill="white"/>
</g>
<g opacity="0.9">
<path d="M172.523 140.873C165.386 139.482 161.716 138.53 160.17 138.128C160.051 138.093 159.941 138.035 159.845 137.957C159.749 137.879 159.67 137.782 159.613 137.673C159.556 137.564 159.521 137.444 159.512 137.32C159.502 137.197 159.517 137.073 159.557 136.956C159.632 136.734 159.79 136.55 159.998 136.441C160.206 136.332 160.447 136.307 160.673 136.371C162.155 136.792 165.816 137.734 172.871 139.116C173.108 139.162 173.318 139.301 173.453 139.502C173.589 139.703 173.639 139.949 173.594 140.187C173.539 140.417 173.397 140.618 173.197 140.746C172.997 140.874 172.756 140.92 172.523 140.873Z" fill="white"/>
</g>
<path d="M188.811 59.7355C188.504 59.8656 188.158 59.8705 187.847 59.7492C187.535 59.6278 187.284 59.3898 187.146 59.0858C187.021 58.7764 186.979 58.4399 187.024 58.1094C187.069 57.7789 187.199 57.4657 187.402 57.2008C187.812 56.6708 188.347 56.2497 188.958 55.9746C188.44 56.5897 188.078 57.3213 187.905 58.1067C187.924 58.8205 188.143 59.9643 188.811 59.7355Z" fill="#263238"/>
<path d="M196.452 78.4116C196.451 78.4956 196.431 78.5783 196.395 78.6542C196.359 78.7301 196.307 78.7975 196.243 78.852C196.179 78.9064 196.105 78.9467 196.024 78.9702C195.943 78.9937 195.859 78.9998 195.775 78.9881C195.608 78.9518 195.453 78.8691 195.33 78.7494C195.207 78.6296 195.121 78.4777 195.08 78.311C195.011 77.9728 195.011 77.6243 195.08 77.2861C195.135 76.5063 195.324 75.7419 195.638 75.0259C195.954 74.3039 196.528 73.7262 197.249 73.4062C197.377 73.5588 197.459 73.7451 197.485 73.943C197.511 74.1409 197.48 74.342 197.395 74.5226C197.206 74.8443 196.992 75.1504 196.754 75.4377C196.479 75.8465 196.3 76.3129 196.232 76.8014C196.163 77.2898 196.208 77.7873 196.361 78.2561C196.434 78.2744 196.379 78.4025 196.452 78.4116Z" fill="#263238"/>
<path d="M93.3531 136.455H28.2007C25.7981 136.455 23.4939 137.41 21.795 139.108C20.096 140.807 19.1416 143.112 19.1416 145.514V195.037C19.1416 197.44 20.096 199.744 21.795 201.443C23.4939 203.142 25.7981 204.096 28.2007 204.096H77.4219C77.8996 207.974 79.7781 211.543 82.7039 214.131C85.6296 216.72 89.4008 218.15 93.3073 218.152C93.6642 218.152 94.0211 218.152 94.378 218.097C91.8341 214.748 89.7569 209.861 88.3935 204.096H93.3806C95.7832 204.096 98.0874 203.142 99.7863 201.443C101.485 199.744 102.44 197.44 102.44 195.037V145.514C102.44 144.322 102.204 143.142 101.747 142.041C101.29 140.94 100.621 139.94 99.7766 139.099C98.9325 138.257 97.9306 137.59 96.8283 137.137C95.726 136.683 94.5451 136.452 93.3531 136.455Z" fill="#407BFF"/>
<path opacity="0.4" d="M93.3531 136.455H28.2007C25.7981 136.455 23.4939 137.41 21.795 139.108C20.096 140.807 19.1416 143.112 19.1416 145.514V195.037C19.1416 197.44 20.096 199.744 21.795 201.443C23.4939 203.142 25.7981 204.096 28.2007 204.096H77.4219C77.8996 207.974 79.7781 211.543 82.7039 214.131C85.6296 216.72 89.4008 218.15 93.3073 218.152C93.6642 218.152 94.0211 218.152 94.378 218.097C91.8341 214.748 89.7569 209.861 88.3935 204.096H93.3806C95.7832 204.096 98.0874 203.142 99.7863 201.443C101.485 199.744 102.44 197.44 102.44 195.037V145.514C102.44 144.322 102.204 143.142 101.747 142.041C101.29 140.94 100.621 139.94 99.7766 139.099C98.9325 138.257 97.9306 137.59 96.8283 137.137C95.726 136.683 94.5451 136.452 93.3531 136.455Z" fill="white"/>
<path d="M106.401 157.501L111.471 152.807L115.808 160.832C115.808 160.832 110.785 164.666 107.811 162.305L106.401 157.501Z" fill="#FF8B7B"/>
<path d="M106.402 157.492L102.952 164.831L107.683 168.747L111.819 162.049L106.402 157.492Z" fill="#FF8B7B"/>
<path d="M116.294 153.897L117.127 156.926C117.333 157.633 117.317 158.388 117.082 159.086C116.846 159.785 116.402 160.395 115.809 160.833L113.979 162.05L108.8 152.954L113.238 151.838C113.574 151.769 113.921 151.768 114.257 151.834C114.594 151.901 114.914 152.034 115.198 152.225C115.483 152.417 115.726 152.664 115.915 152.951C116.103 153.238 116.232 153.559 116.294 153.897Z" fill="#FF8B7B"/>
<path d="M106.401 157.502C106.401 157.502 108.231 151.846 107.939 150.117C107.783 149.083 108.854 149.248 109.714 149.559C110.046 149.672 110.335 149.883 110.544 150.164C110.753 150.445 110.872 150.783 110.885 151.133C110.958 152.963 110.885 156.532 109.485 156.76C108.438 156.919 107.406 157.167 106.401 157.502Z" fill="#FF8B7B"/>
<path d="M112.323 163.376C110.9 161.786 109.004 160.695 106.915 160.265L105.377 159.945C104.462 159.762 104.288 159.945 104.179 160.21L103.739 160.896L102.824 162.26C102.22 163.175 101.617 164.09 100.994 165.005C99.7772 166.835 98.5053 168.546 97.2242 170.212C96.0246 171.804 94.7062 173.303 93.2803 174.696L92.9051 175.043C92.4293 174.531 91.9901 173.991 91.5142 173.433C90.1753 171.739 88.926 169.977 87.7716 168.153C86.5912 166.323 82.7662 160.777 81.7231 158.783C81.2015 157.794 80.689 156.788 80.2041 155.781L79.4995 154.271C79.289 153.786 79.0328 153.219 78.8864 152.853L78.7857 152.615C78.0354 150.964 76.662 149.677 74.9657 149.036C73.2695 148.394 71.3882 148.45 69.7331 149.191C68.0779 149.932 66.7833 151.298 66.1323 152.991C65.4812 154.684 65.5266 156.565 66.2585 158.224C66.588 158.966 66.8442 159.496 67.1736 160.11L68.0887 161.866C68.6987 163.032 69.3087 164.175 69.9188 165.298C71.2182 167.558 75.3542 173.323 76.8732 175.492C78.4126 177.7 80.097 179.803 81.9152 181.787C83.8283 183.898 85.9464 185.814 88.2383 187.506L88.522 187.717C89.2257 188.227 90.0363 188.571 90.8924 188.721C91.7485 188.872 92.6277 188.826 93.4633 188.586C95.3279 188.042 97.0664 187.134 98.5785 185.914C99.7337 184.998 100.808 183.985 101.79 182.885C103.507 180.955 105.071 178.892 106.466 176.718C107.811 174.641 108.992 172.518 110.127 170.395C110.666 169.315 111.197 168.244 111.691 167.146L112.423 165.499L112.78 164.667C112.89 164.374 112.945 164.053 112.323 163.376Z" fill="#263238"/>
<path opacity="0.4" d="M78.4103 160.465L73.3774 164.024L71.9316 167.465C72.1787 167.923 72.4166 168.38 72.6728 168.838C73.9631 171.098 75.418 173.294 76.9004 175.463C78.4398 177.671 80.1242 179.774 81.9424 181.758C82.8575 182.673 83.7725 183.588 84.6876 184.504C82.2169 178.693 78.4103 160.465 78.4103 160.465Z" fill="black"/>
<path d="M33.4258 188.284C33.8192 197.434 32.3734 197.014 32.3368 204.096H76.9278C79.3527 182.492 78.218 179.17 78.2638 164.831C78.2638 156.76 77.0284 148.524 68.9942 147.683C59.5577 146.762 50.0511 146.823 40.6273 147.866C39.2156 148.037 37.8524 148.49 36.6177 149.196C35.3831 149.901 34.3019 150.847 33.4376 151.976C32.5733 153.106 31.9433 154.396 31.5846 155.772C31.2258 157.149 31.1456 158.583 31.3486 159.99C33.1512 172.188 32.1721 179.097 33.4258 188.284Z" fill="#263238"/>
<path opacity="0.9" d="M64.9218 147.343C58.9808 146.954 53.0214 146.936 47.0781 147.288C47.2062 149.118 48.5971 153.694 58.7269 157.656C58.7269 157.656 60.9871 152.751 62.8904 154.956C62.8904 154.956 64.4185 152.138 67.6945 157.326C67.6945 157.326 72.5809 152.092 64.9218 147.343Z" fill="white"/>
<path opacity="0.4" d="M40.8195 160.32C41.7987 168.803 36.3815 182.986 33.499 189.84C33.499 189.364 33.499 188.843 33.499 188.285C32.7121 182.556 32.8036 177.706 32.584 171.923L40.8195 160.32Z" fill="black"/>
<path d="M51.4521 131.109C51.6023 136.674 50.5276 142.203 48.3043 147.306C48.2218 147.5 48.2012 147.715 48.2454 147.922C48.2896 148.128 48.3965 148.316 48.5514 148.459C52.2853 151.678 57.0733 153.411 62.0028 153.327C67.9964 153.4 67.6487 151.497 66.2303 149.42C66.0237 149.124 65.7551 148.878 65.4434 148.697C61.3439 146.263 61.1975 143.005 62.3505 141.038L51.4521 131.109Z" fill="#FF8B7B"/>
<path opacity="0.2" d="M51.4619 131.109L62.3511 141.038C61.9873 141.663 61.7769 142.365 61.7372 143.087C61.6974 143.81 61.8294 144.531 62.1223 145.192C59.8247 145.264 57.5852 144.463 55.8542 142.95C53.0449 140.562 52.0933 137.744 51.3887 133.8C51.4436 132.94 51.4619 132.024 51.4619 131.109Z" fill="black"/>
<path d="M48.2126 125.95C48.6885 133.27 47.6544 134.441 51.3696 138.147C56.9606 143.72 66.0655 144.781 67.3557 137.369C68.5087 130.69 69.1858 118.602 61.966 115.783C60.375 115.15 58.6489 114.934 56.9508 115.154C55.2528 115.374 53.639 116.024 52.2621 117.042C50.8852 118.059 49.7907 119.412 49.0821 120.97C48.3735 122.529 48.0742 124.243 48.2126 125.95Z" fill="#FF8B7B"/>
<path d="M65.9835 133.856C65.9835 133.856 63.4122 133.042 56.1191 132.73C56.8969 135.348 58.4251 137.525 62.1585 137.644C65.892 137.763 65.9835 133.856 65.9835 133.856Z" fill="#263238"/>
<path d="M60.4923 135.511C61.9607 135.488 63.3889 135.991 64.5186 136.929C63.8435 137.435 63.008 137.679 62.1669 137.615C60.6959 137.645 59.2644 137.138 58.1406 136.188C58.817 135.685 59.6524 135.445 60.4923 135.511Z" fill="#FF5652"/>
<path d="M65.654 133.738C65.4344 134.278 65.2056 134.827 64.4736 134.973C62.3143 134.871 60.1696 134.565 58.0682 134.058C57.7072 133.993 57.3695 133.834 57.0886 133.598C56.8077 133.362 56.5933 133.057 56.4668 132.713C59.5541 132.773 62.6294 133.116 65.654 133.738Z" fill="white"/>
<path d="M63.1191 127.021C63.8903 128.386 64.8481 129.637 65.965 130.737C65.6765 131.019 65.3293 131.234 64.9481 131.367C64.567 131.5 64.1612 131.547 63.7597 131.505L63.1191 127.021Z" fill="#FF5652"/>
<path d="M55.8999 123.863C55.8373 123.855 55.7794 123.826 55.7352 123.781C55.7006 123.747 55.6731 123.706 55.6544 123.661C55.6356 123.616 55.626 123.568 55.626 123.52C55.626 123.471 55.6356 123.423 55.6544 123.378C55.6731 123.334 55.7006 123.293 55.7352 123.259C56.1144 122.814 56.5948 122.466 57.1361 122.245C57.6774 122.024 58.2639 121.935 58.8464 121.987C58.9435 122.002 59.0308 122.054 59.0891 122.133C59.1475 122.212 59.1721 122.311 59.1575 122.408C59.1429 122.505 59.0904 122.592 59.0115 122.651C58.9325 122.709 58.8336 122.734 58.7366 122.719C58.2736 122.683 57.8088 122.758 57.3807 122.938C56.9526 123.118 56.5735 123.397 56.2751 123.753C56.2293 123.805 56.1698 123.843 56.1034 123.862C56.037 123.882 55.9664 123.882 55.8999 123.863Z" fill="#263238"/>
<path d="M68.0518 125.162C67.9921 125.173 67.9308 125.168 67.8733 125.149C67.8158 125.13 67.7639 125.097 67.7224 125.053C67.4189 124.707 67.0372 124.438 66.6091 124.27C66.181 124.101 65.7188 124.037 65.2609 124.083C65.1664 124.099 65.0693 124.077 64.9906 124.022C64.9119 123.968 64.8578 123.884 64.84 123.79C64.824 123.693 64.8466 123.594 64.9031 123.513C64.9596 123.433 65.0453 123.378 65.142 123.36C65.7191 123.296 66.3031 123.371 66.8457 123.578C67.3883 123.785 67.8738 124.118 68.2623 124.549C68.2969 124.583 68.3244 124.624 68.3431 124.669C68.3618 124.714 68.3715 124.762 68.3715 124.81C68.3715 124.859 68.3618 124.907 68.3431 124.952C68.3244 124.996 68.2969 125.037 68.2623 125.071C68.2031 125.122 68.1297 125.154 68.0518 125.162Z" fill="#263238"/>
<path d="M19.8459 189.774C19.8618 190.12 19.9139 190.463 20.0014 190.799C20.8282 193.724 21.9027 196.574 23.2133 199.318C23.8782 200.77 24.5645 202.197 25.2722 203.6C26.2148 203.923 27.2039 204.09 28.2004 204.094H38.0739L37.0948 201.907C36.0058 199.519 34.9993 197.122 34.0842 194.752C33.322 192.829 32.6802 190.861 32.1626 188.859C32.2664 188.092 32.4223 187.334 32.6293 186.589C32.9129 185.491 33.2973 184.302 33.7365 183.094C34.6516 180.687 35.6581 178.207 36.7562 175.773C37.8543 173.339 39.0713 170.841 40.2975 168.38C41.5237 165.918 42.8048 163.429 44.0767 161.105V161.022L44.1407 160.885C44.9707 159.265 45.1232 157.382 44.5646 155.65C44.0061 153.917 42.7822 152.478 41.1622 151.648C39.5423 150.818 37.6589 150.665 35.9266 151.224C34.1942 151.782 32.7547 153.006 31.9247 154.626C30.5521 157.316 29.3167 159.888 28.0723 162.551C26.8278 165.213 25.7022 167.904 24.6042 170.649C23.5061 173.394 22.5178 176.167 21.6028 179.141C21.1544 180.632 20.7518 182.17 20.4132 183.826C19.9923 185.711 19.7987 187.641 19.8367 189.572L19.8459 189.774Z" fill="#263238"/>
<path d="M44.8908 130.854C45.5252 132.423 46.7322 133.692 48.2673 134.405C50.2256 135.246 51.3053 133.334 50.8387 131.138C50.4269 129.17 48.8987 126.352 46.8947 126.444C44.8908 126.535 44.0581 128.841 44.8908 130.854Z" fill="#FF8B7B"/>
<path d="M57.6289 126.352C57.6289 126.983 57.8943 127.523 58.3243 127.551C58.7544 127.578 59.1113 127.084 59.1388 126.434C59.1662 125.785 58.8734 125.263 58.4525 125.235C58.0315 125.208 57.6655 125.702 57.6289 126.352Z" fill="#2E353A"/>
<path d="M64.8672 126.772C64.8672 127.413 65.1417 127.953 65.5535 127.98C65.9653 128.008 66.3404 127.504 66.3862 126.864C66.4319 126.223 66.1117 125.693 65.6999 125.665C65.2881 125.638 64.9038 126.132 64.8672 126.772Z" fill="#2E353A"/>
<path d="M85.8034 8.09773H20.6877C18.2866 8.10016 15.9847 9.05566 14.2878 10.7543C12.5909 12.453 11.6377 14.7558 11.6377 17.1568V66.68C11.6365 67.8692 11.8697 69.047 12.324 70.1461C12.7782 71.2451 13.4446 72.2438 14.2851 73.0852C15.1256 73.9265 16.1237 74.5939 17.2223 75.0493C18.3209 75.5047 19.4984 75.7391 20.6877 75.7391H69.8905C70.3622 79.618 72.2374 83.1901 75.1623 85.7812C78.0872 88.3723 81.8593 89.8031 85.7668 89.8036C86.1329 89.8036 86.4897 89.8036 86.8466 89.7487C84.3027 86.3904 82.2164 81.5131 80.8621 75.7391H85.8492C88.2518 75.7391 90.556 74.7847 92.255 73.0857C93.9539 71.3868 94.9083 69.0826 94.9083 66.68V17.1568C94.9071 15.9637 94.6705 14.7825 94.2119 13.6809C93.7534 12.5794 93.0819 11.5791 92.2361 10.7376C91.3903 9.89598 90.3867 9.2296 89.2828 8.77661C88.179 8.32361 86.9966 8.09291 85.8034 8.09773Z" fill="#407BFF"/>
<path opacity="0.4" d="M85.8034 8.09773H20.6877C18.2866 8.10016 15.9847 9.05566 14.2878 10.7543C12.5909 12.453 11.6377 14.7558 11.6377 17.1568V66.68C11.6365 67.8692 11.8697 69.047 12.324 70.1461C12.7782 71.2451 13.4446 72.2438 14.2851 73.0852C15.1256 73.9265 16.1237 74.5939 17.2223 75.0493C18.3209 75.5047 19.4984 75.7391 20.6877 75.7391H69.8905C70.3622 79.618 72.2374 83.1901 75.1623 85.7812C78.0872 88.3723 81.8593 89.8031 85.7668 89.8036C86.1329 89.8036 86.4897 89.8036 86.8466 89.7487C84.3027 86.3904 82.2164 81.5131 80.8621 75.7391H85.8492C88.2518 75.7391 90.556 74.7847 92.255 73.0857C93.9539 71.3868 94.9083 69.0826 94.9083 66.68V17.1568C94.9071 15.9637 94.6705 14.7825 94.2119 13.6809C93.7534 12.5794 93.0819 11.5791 92.2361 10.7376C91.3903 9.89598 90.3867 9.2296 89.2828 8.77661C88.179 8.32361 86.9966 8.09291 85.8034 8.09773Z" fill="white"/>
<path d="M69.8444 75.7412C69.471 70.422 69.471 65.0833 69.8444 59.7642C70.4117 50.394 67.6116 40.2642 65.4978 38.5348C62.4507 36.0183 59.614 33.6483 58.6074 36.8144C58.0218 38.6446 57.8479 41.6643 57.8845 45.05C57.976 53.2306 59.7147 63.4336 60.5382 68.1461C60.8402 69.8116 61.5997 75.7503 61.5997 75.7503L69.8444 75.7412Z" fill="#407BFF"/>
<path d="M64.1527 38.936C64.0484 38.2633 63.7519 37.6351 63.299 37.127C62.8461 36.6189 62.256 36.2525 61.5997 36.0718C59.312 35.4587 55.359 34.4613 51.7628 33.8207C47.525 33.1321 43.2443 32.7407 38.9519 32.6495C36.2067 32.5397 33.5713 32.6495 31.4575 32.741C31.207 32.7606 30.9589 32.8035 30.7164 32.8691C30.2698 32.9957 29.8526 33.209 29.4885 33.4969C29.1245 33.7848 28.8208 34.1417 28.5947 34.547C28.3686 34.9524 28.2247 35.3984 28.1711 35.8594C28.1175 36.3204 28.1553 36.7875 28.2823 37.2339C33.7086 56.6058 34.8341 65.8754 35.1178 75.7397H61.5997C62.835 66.7904 65.2599 59.4425 65.4795 54.1809C65.6681 49.0639 65.2224 43.9434 64.1527 38.936Z" fill="#407BFF"/>
<path opacity="0.8" d="M64.1527 38.936C64.0484 38.2633 63.7519 37.6351 63.299 37.127C62.8461 36.6189 62.256 36.2525 61.5997 36.0718C59.312 35.4587 55.359 34.4613 51.7628 33.8207C47.525 33.1321 43.2443 32.7407 38.9519 32.6495C36.2067 32.5397 33.5713 32.6495 31.4575 32.741C31.207 32.7606 30.9589 32.8035 30.7164 32.8691C30.2698 32.9957 29.8526 33.209 29.4885 33.4969C29.1245 33.7848 28.8208 34.1417 28.5947 34.547C28.3686 34.9524 28.2247 35.3984 28.1711 35.8594C28.1175 36.3204 28.1553 36.7875 28.2823 37.2339C33.7086 56.6058 34.8341 65.8754 35.1178 75.7397H61.5997C62.835 66.7904 65.2599 59.4425 65.4795 54.1809C65.6681 49.0639 65.2224 43.9434 64.1527 38.936Z" fill="white"/>
<path d="M53.2728 29.347C51.5342 31.6987 50.2623 34.4897 52.9892 37.5826C53.5805 38.2279 53.9269 39.06 53.9683 39.9343C53.9683 41.3344 53.1905 42.6795 48.6335 40.0075C42.0267 36.1277 42.5849 31.772 42.5849 31.772C46.053 30.7196 48.1302 23.4266 48.9354 19.2539L53.2728 29.347Z" fill="#FFB573"/>
<path opacity="0.2" d="M49.3023 25.4842C48.799 27.2594 50.6749 30.0595 52.1024 31.2125C52.4349 30.5692 52.8238 29.9568 53.2645 29.3823L50.7024 23.3887C50.1032 23.9889 49.6275 24.7009 49.3023 25.4842Z" fill="black"/>
<path d="M66.6887 7.40168C69.0129 10.3482 63.7788 19.2243 63.2115 17.3667C62.2964 14.347 60.9604 8.21609 60.9787 5.69967C61.0153 1.7283 64.3736 4.46434 66.6887 7.40168Z" fill="#263238"/>
<path d="M47.4176 8.32783C48.0344 7.27793 48.8521 6.35986 49.8238 5.62607C50.7956 4.89227 51.9024 4.35712 53.081 4.0512C54.2596 3.74528 55.487 3.67459 56.693 3.84315C57.8989 4.01172 59.0599 4.41624 60.1095 5.03361C66.341 8.63895 65.8652 18.7595 63.5775 24.5793C61.0703 31.0671 52.5968 31.8998 48.2137 25.9977C45.2672 22.0629 45.6423 19.1988 46.1639 12.4181C46.2551 10.9752 46.6846 9.57404 47.4176 8.32783Z" fill="#FFB573"/>
<path d="M55.6988 15.8116C55.6531 16.3698 55.9001 16.8456 56.257 16.8822C56.6139 16.9188 56.9524 16.4979 57.0165 15.9672C57.0805 15.4364 56.8152 14.9332 56.4583 14.8966C56.1014 14.8599 55.7812 15.3266 55.6988 15.8116Z" fill="#263238"/>
<path d="M56.2744 14.9814L57.6379 14.7344C57.6379 14.7344 56.8692 15.6677 56.2744 14.9814Z" fill="#263238"/>
<path d="M62.6348 17.3958C62.6348 17.9539 62.8361 18.4298 63.193 18.4664C63.5498 18.503 63.8884 18.082 63.9525 17.5513C64.0165 17.0206 63.7511 16.5173 63.3943 16.4807C63.0374 16.4441 62.7171 16.8742 62.6348 17.3958Z" fill="#263238"/>
<path d="M63.2109 16.5264L64.5744 16.2793C64.5744 16.2793 63.8057 17.2127 63.2109 16.5264Z" fill="#263238"/>
<path d="M60.0352 21.5784C60.356 21.7087 60.7012 21.7681 61.0472 21.7523C61.3931 21.7365 61.7315 21.6459 62.0391 21.4868C61.3808 20.3031 60.8881 19.0346 60.575 17.7168L60.0352 21.5784Z" fill="#ED893E"/>
<path d="M54.8101 21.3498C54.7932 21.3106 54.7913 21.2666 54.8048 21.2261C54.8183 21.1856 54.8463 21.1515 54.8833 21.1302C54.9222 21.1111 54.967 21.108 55.0081 21.1217C55.0492 21.1354 55.0833 21.1648 55.1029 21.2034C55.4408 21.8036 55.9166 22.3149 56.4909 22.6952C57.0653 23.0754 57.7218 23.3137 58.4063 23.3904C58.4457 23.401 58.4802 23.4252 58.5036 23.4586C58.527 23.4921 58.5379 23.5327 58.5344 23.5734C58.5322 23.5936 58.5259 23.6132 58.5158 23.6308C58.5057 23.6484 58.492 23.6637 58.4756 23.6758C58.4593 23.6878 58.4406 23.6963 58.4208 23.7008C58.401 23.7052 58.3804 23.7055 58.3605 23.7015C58.0972 23.6727 57.8369 23.6206 57.5827 23.546C56.9979 23.3822 56.4516 23.1037 55.9756 22.7267C55.4996 22.3496 55.1034 21.8816 54.8101 21.3498Z" fill="#263238"/>
<path d="M55.4605 12.2905C55.4096 12.2225 55.3877 12.1371 55.3997 12.053C55.4117 11.9689 55.4566 11.893 55.5246 11.8421C56.0683 11.5125 56.6761 11.3029 57.3073 11.2271C57.9385 11.1514 58.5786 11.2113 59.1848 11.4028C59.2653 11.4319 59.3313 11.4911 59.3689 11.568C59.4064 11.6448 59.4126 11.7333 59.3862 11.8146C59.359 11.8944 59.3015 11.9603 59.2262 11.9979C59.1508 12.0356 59.0636 12.0421 58.9835 12.0159C58.478 11.8529 57.9439 11.798 57.4158 11.8547C56.8877 11.9115 56.3774 12.0786 55.9181 12.3454C55.8647 12.3877 55.7986 12.4107 55.7305 12.4107C55.6624 12.4107 55.5963 12.3877 55.5429 12.3454L55.4605 12.2905Z" fill="#263238"/>
<path d="M65.4439 14.403C65.2241 14.0591 64.9247 13.7732 64.5712 13.5693C64.2176 13.3655 63.8202 13.2497 63.4124 13.2317C63.3696 13.2329 63.327 13.2256 63.2871 13.21C63.2471 13.1945 63.2107 13.1711 63.18 13.1412C63.1493 13.1113 63.1249 13.0756 63.1082 13.0362C63.0916 12.9967 63.083 12.9543 63.083 12.9115C63.083 12.8256 63.1164 12.7432 63.1762 12.6817C63.2361 12.6202 63.3175 12.5844 63.4033 12.582C63.9175 12.6001 64.4199 12.7407 64.8687 12.9922C65.3176 13.2437 65.6999 13.5987 65.9838 14.0278C66.0074 14.0624 66.0238 14.1014 66.032 14.1425C66.0403 14.1836 66.0401 14.2259 66.0315 14.2669C66.023 14.3079 66.0062 14.3468 65.9823 14.3812C65.9584 14.4156 65.9277 14.4448 65.8922 14.4671C65.8446 14.4982 65.789 14.5147 65.7321 14.5147C65.6752 14.5147 65.6196 14.4982 65.572 14.4671L65.4439 14.403Z" fill="#263238"/>
<path d="M57.1169 6.97309C56.0946 7.16491 55.1277 7.58126 54.2859 8.19207C53.444 8.80288 52.7483 9.59293 52.2488 10.5052C51.7821 11.3654 48.7807 13.2504 48.2683 14.1014C46.6577 16.7826 48.4147 24.4142 47.6552 24.9907C46.8957 25.5671 47.161 23.307 46.4381 22.8677C45.6711 22.5215 44.9362 22.1081 44.242 21.6324C43.3269 20.8637 40.1517 12.5824 44.0681 7.56788C46.0169 4.92284 48.8696 3.08613 52.0841 2.40694C55.3407 1.85351 58.6839 2.61363 61.3811 4.52073C62.2321 5.13383 63.7236 6.80839 61.3811 7.55874C60.7405 7.76005 60.7131 7.24761 60.0451 7.0829C59.0884 6.83564 58.0895 6.79818 57.1169 6.97309Z" fill="#263238"/>
<path d="M41.5417 14.1021C43.8019 11.906 46.6203 11.906 49.1093 11.906C50.2919 11.9996 51.4816 11.8661 52.614 11.5125C55.1212 10.4236 56.6586 6.8457 56.9422 5.67442C57.0939 5.1951 57.3649 4.76221 57.7299 4.41646C58.0949 4.0707 58.5418 3.82343 59.0286 3.69789C59.4248 3.67845 59.8201 3.75093 60.1836 3.90968C60.5471 4.06843 60.869 4.30913 61.1241 4.61295C61.5724 5.26265 61.5267 6.20516 60.9868 7.35814L61.3437 7.5137C61.9385 6.18686 61.9659 5.12539 61.4443 4.35674C61.1495 4.00048 60.7766 3.71694 60.3544 3.52809C59.9323 3.33925 59.4724 3.25019 59.0103 3.26781C58.4383 3.39538 57.9106 3.67279 57.4813 4.07158C57.052 4.47038 56.7364 4.97619 56.567 5.53716C56.3108 6.61693 54.801 10.1125 52.4584 11.119C51.3753 11.4518 50.2382 11.5729 49.1093 11.4759C46.6752 11.4759 43.6189 11.4759 41.2764 13.7819L41.5417 14.1021Z" fill="#263238"/>
<path opacity="0.1" d="M41.5417 14.1021C43.8019 11.906 46.6203 11.906 49.1093 11.906C50.2919 11.9996 51.4816 11.8661 52.614 11.5125C55.1212 10.4236 56.6586 6.8457 56.9422 5.67442C57.0939 5.1951 57.3649 4.76221 57.7299 4.41646C58.0949 4.0707 58.5418 3.82343 59.0286 3.69789C59.4248 3.67845 59.8201 3.75093 60.1836 3.90968C60.5471 4.06843 60.869 4.30913 61.1241 4.61295C61.5724 5.26265 61.5267 6.20516 60.9868 7.35814L61.3437 7.5137C61.9385 6.18686 61.9659 5.12539 61.4443 4.35674C61.1495 4.00048 60.7766 3.71694 60.3544 3.52809C59.9323 3.33925 59.4724 3.25019 59.0103 3.26781C58.4383 3.39538 57.9106 3.67279 57.4813 4.07158C57.052 4.47038 56.7364 4.97619 56.567 5.53716C56.3108 6.61693 54.801 10.1125 52.4584 11.119C51.3753 11.4518 50.2382 11.5729 49.1093 11.4759C46.6752 11.4759 43.6189 11.4759 41.2764 13.7819L41.5417 14.1021Z" fill="white"/>
<path d="M43.4823 16.6734C43.5195 16.3829 43.6137 16.1026 43.7596 15.8487C43.9054 15.5947 44.1 15.3721 44.3321 15.1935C44.5642 15.015 44.8293 14.884 45.1122 14.8082C45.395 14.7324 45.6901 14.7132 45.9804 14.7518C47.6641 15.008 48.4327 17.2773 48.4327 18.7597C48.4327 20.3977 47.2157 21.6147 45.7333 20.6905C44.6227 19.9823 43.8367 18.8641 43.5463 17.5793C43.4613 17.2852 43.4394 16.9765 43.4823 16.6734Z" fill="#FFB573"/>
<path d="M46.474 40.8211C46.1172 45.5062 41.7889 63.2035 32.4095 63.6977C30.9152 63.7394 29.4593 63.2204 28.3284 62.2427C20.77 57.6674 26.7087 35.6144 28.2277 34.3333C28.8873 33.7677 29.6781 33.3765 30.5279 33.1954C31.3777 33.0143 32.2594 33.0491 33.0922 33.2967C33.9251 33.5443 34.6826 33.9967 35.2955 34.6126C35.9084 35.2285 36.3571 35.9882 36.6005 36.8223C36.798 36.1245 36.9539 35.4156 37.0672 34.6994C37.4607 32.311 38.7601 26.7475 41.1575 26.3448C42.6033 26.0978 45.5773 25.9697 46.4374 27.1501C47.2976 28.3305 47.0688 33.0888 46.474 40.8211Z" fill="#407BFF"/>
<g opacity="0.2">
<path d="M45.9805 14.75V15.1618L46.4105 19.2247V24.4588L47.1243 21.3476C47.3054 20.537 47.3457 19.7012 47.2433 18.8769L46.74 14.9788L45.9805 14.75Z" fill="black"/>
</g>
<path d="M41.2769 27.2882L40.1514 19.135L46.9503 19.0801C46.9503 19.0801 46.3921 25.2018 44.6901 27.3156L41.2769 27.2882Z" fill="#FFB573"/>
<path d="M41.3501 13.5605L46.3829 14.4482L46.9228 19.0601L40.1514 19.1333L41.3501 13.5605Z" fill="#FFB573"/>
<path opacity="0.2" d="M34.5144 44.2441C34.5144 44.2441 30.4424 53.651 30.3143 49.9267C30.1862 45.8729 34.5144 44.2441 34.5144 44.2441Z" fill="black"/>
<path d="M285.498 99.248H260.315C259.163 99.248 258.057 99.706 257.242 100.521C256.427 101.336 255.969 102.442 255.969 103.595V119.809C255.971 120.961 256.43 122.064 257.245 122.877C258.06 123.69 259.164 124.147 260.315 124.147H267.553L270.784 128.374C271.032 128.701 271.352 128.965 271.72 129.147C272.087 129.329 272.492 129.424 272.902 129.424C273.312 129.424 273.717 129.329 274.084 129.147C274.451 128.965 274.772 128.701 275.02 128.374L278.251 124.147H285.498C286.648 124.147 287.751 123.69 288.565 122.876C289.378 122.063 289.835 120.96 289.835 119.809V103.595C289.835 102.443 289.379 101.339 288.565 100.524C287.752 99.7095 286.649 99.2505 285.498 99.248Z" fill="#407BFF"/>
<path opacity="0.7" d="M285.498 99.248H260.315C259.163 99.248 258.057 99.706 257.242 100.521C256.427 101.336 255.969 102.442 255.969 103.595V119.809C255.971 120.961 256.43 122.064 257.245 122.877C258.06 123.69 259.164 124.147 260.315 124.147H267.553L270.784 128.374C271.032 128.701 271.352 128.965 271.72 129.147C272.087 129.329 272.492 129.424 272.902 129.424C273.312 129.424 273.717 129.329 274.084 129.147C274.451 128.965 274.772 128.701 275.02 128.374L278.251 124.147H285.498C286.648 124.147 287.751 123.69 288.565 122.876C289.378 122.063 289.835 120.96 289.835 119.809V103.595C289.835 102.443 289.379 101.339 288.565 100.524C287.752 99.7095 286.649 99.2505 285.498 99.248Z" fill="white"/>
<path d="M284.033 110.393L275.99 105.488V108.435H272.329C269.961 108.435 267.689 109.376 266.014 111.051C264.339 112.726 263.398 114.997 263.398 117.366C263.401 118.028 263.475 118.687 263.618 119.333C264.068 117.358 265.174 115.593 266.756 114.328C268.339 113.064 270.304 112.373 272.329 112.37H275.99V115.325L284.033 110.393Z" fill="#407BFF"/>
<path d="M108.305 0H127.613C128.496 0 129.343 0.350925 129.968 0.975576C130.593 1.60023 130.944 2.44743 130.944 3.33082V15.8123C130.944 16.2492 130.857 16.6819 130.69 17.0855C130.522 17.4891 130.277 17.8557 129.968 18.1643C129.658 18.4729 129.291 18.7173 128.887 18.8837C128.483 19.0501 128.05 19.1351 127.613 19.1339H122.058L119.588 22.3824C119.397 22.6327 119.152 22.8357 118.87 22.9754C118.588 23.1151 118.278 23.1877 117.964 23.1877C117.649 23.1877 117.339 23.1151 117.057 22.9754C116.775 22.8357 116.53 22.6327 116.339 22.3824L113.86 19.1339H108.305C107.869 19.1352 107.436 19.0501 107.033 18.8835C106.629 18.717 106.262 18.4724 105.954 18.1637C105.645 17.8551 105.4 17.4884 105.234 17.0848C105.067 16.6813 104.982 16.2488 104.983 15.8123V3.33082C104.982 2.89385 105.067 2.46092 105.234 2.05686C105.4 1.6528 105.645 1.28554 105.953 0.976128C106.262 0.666712 106.628 0.421218 107.032 0.253717C107.435 0.0862152 107.868 -1.65811e-06 108.305 0Z" fill="#407BFF"/>
<path opacity="0.7" d="M108.305 0H127.613C128.496 0 129.343 0.350925 129.968 0.975576C130.593 1.60023 130.944 2.44743 130.944 3.33082V15.8123C130.944 16.2492 130.857 16.6819 130.69 17.0855C130.522 17.4891 130.277 17.8557 129.968 18.1643C129.658 18.4729 129.291 18.7173 128.887 18.8837C128.483 19.0501 128.05 19.1351 127.613 19.1339H122.058L119.588 22.3824C119.397 22.6327 119.152 22.8357 118.87 22.9754C118.588 23.1151 118.278 23.1877 117.964 23.1877C117.649 23.1877 117.339 23.1151 117.057 22.9754C116.775 22.8357 116.53 22.6327 116.339 22.3824L113.86 19.1339H108.305C107.869 19.1352 107.436 19.0501 107.033 18.8835C106.629 18.717 106.262 18.4724 105.954 18.1637C105.645 17.8551 105.4 17.4884 105.234 17.0848C105.067 16.6813 104.982 16.2488 104.983 15.8123V3.33082C104.982 2.89385 105.067 2.46092 105.234 2.05686C105.4 1.6528 105.645 1.28554 105.953 0.976128C106.262 0.666712 106.628 0.421218 107.032 0.253717C107.435 0.0862152 107.868 -1.65811e-06 108.305 0Z" fill="white"/>
<path d="M109.449 8.54739L115.635 4.77734V7.03755H118.463C119.489 7.04038 120.502 7.27338 121.426 7.71938C122.35 8.16539 123.163 8.81303 123.804 9.61465C124.445 10.4163 124.898 11.3514 125.129 12.3513C125.361 13.3511 125.366 14.3902 125.143 15.392C124.798 13.8775 123.95 12.5248 122.736 11.5556C121.523 10.5863 120.016 10.058 118.463 10.0573H115.635V12.3174L109.449 8.54739Z" fill="#407BFF"/>
</svg>
