<svg width="208" height="151" viewBox="0 0 208 151" fill="none" xmlns="http://www.w3.org/2000/svg">
<g id="webinar/rafiki">
<g id="background-simple">
<path id="Vector" d="M43.4623 117.391C44.9347 121.395 48.6572 124.517 52.7933 125.576C58.9974 127.177 65.2016 123.508 71.4057 121.825C82.4243 118.834 94.0425 122.151 105.049 125.179C116.055 128.207 127.992 130.92 138.654 126.833C147.808 123.334 154.52 115.29 159.161 106.662C167.971 90.2622 170.573 71.2899 171.863 52.7189C172.438 44.4467 172.756 35.9057 170.138 28.0223C167.52 20.1389 161.382 12.9338 153.23 11.3497C145.405 9.82346 137.488 13.6535 131.164 18.5093C124.84 23.365 119.355 29.3748 112.452 33.362C102.393 39.1525 90.1174 40.1369 78.6397 38.3459C71.5339 37.2375 59.684 23.7662 47.619 28.7461C34.7847 34.0279 29.1928 78.8217 43.4623 117.391Z" fill="#407BFF"/>
<path id="Vector_2" opacity="0.9" d="M43.4623 117.391C44.9347 121.395 48.6572 124.517 52.7933 125.576C58.9974 127.177 65.2016 123.508 71.4057 121.825C82.4243 118.834 94.0425 122.151 105.049 125.179C116.055 128.207 127.992 130.92 138.654 126.833C147.808 123.334 154.52 115.29 159.161 106.662C167.971 90.2622 170.573 71.2899 171.863 52.7189C172.438 44.4467 172.756 35.9057 170.138 28.0223C167.52 20.1389 161.382 12.9338 153.23 11.3497C145.405 9.82346 137.488 13.6535 131.164 18.5093C124.84 23.365 119.355 29.3748 112.452 33.362C102.393 39.1525 90.1174 40.1369 78.6397 38.3459C71.5339 37.2375 59.684 23.7662 47.619 28.7461C34.7847 34.0279 29.1928 78.8217 43.4623 117.391Z" fill="white"/>
</g>
<g id="Shadows">
<g id="Shadow--inject-214">
<path id="path--inject-214" d="M103.667 150.001C147.958 150.001 183.862 147.905 183.862 145.319C183.862 142.733 147.958 140.637 103.667 140.637C59.377 140.637 23.4727 142.733 23.4727 145.319C23.4727 147.905 59.377 150.001 103.667 150.001Z" fill="#F5F5F5"/>
</g>
</g>
<g id="Plants">
<path id="Vector_3" d="M162.031 114.545C157.895 117.734 156.699 124.719 156.488 129.641C156.488 130.092 155.773 130.092 155.789 129.641C156.009 124.43 157.196 117.394 161.679 113.924C162.035 113.647 162.386 114.255 162.031 114.528V114.545Z" fill="#263238"/>
<path id="Vector_4" d="M152.427 110.958C153.482 110.838 154.371 111.918 154.83 112.708C157.209 116.823 156.29 123.048 155.839 127.453C155.794 127.896 155.091 127.9 155.136 127.453C155.575 123.156 156.377 117.555 154.433 113.469C154.098 112.77 153.387 111.55 152.427 111.662C151.981 111.711 151.985 111.012 152.427 110.958Z" fill="#263238"/>
<path id="Vector_5" d="M149.862 116.626C154.288 115.534 154.826 125.349 154.971 127.466C154.999 127.917 154.3 127.913 154.272 127.466C154.094 124.6 153.953 120.497 151.881 118.201C151.467 117.738 150.735 117.13 150.049 117.304C149.61 117.411 149.424 116.733 149.862 116.626Z" fill="#263238"/>
<path id="Vector_6" d="M162.982 121.389C159.322 118.676 158.13 125.798 157.928 127.854C157.882 128.297 157.183 128.301 157.229 127.854C157.456 125.525 157.812 121.303 160.5 120.326C160.975 120.171 161.48 120.132 161.973 120.212C162.466 120.292 162.932 120.489 163.334 120.786C163.693 121.05 163.334 121.658 162.982 121.389Z" fill="#263238"/>
<path id="Vector_7" d="M148.423 122.676C148.7 122.384 149.041 122.16 149.419 122.022C149.798 121.884 150.203 121.836 150.603 121.882C152.836 122.254 153.453 125.605 153.792 127.371C153.879 127.813 153.205 127.999 153.118 127.557C152.824 126.051 151.418 120.641 148.92 123.168C148.852 123.223 148.767 123.251 148.681 123.246C148.594 123.242 148.512 123.206 148.451 123.145C148.389 123.084 148.352 123.002 148.347 122.916C148.342 122.829 148.369 122.744 148.423 122.676Z" fill="#263238"/>
<path id="Vector_8" d="M161.605 145.628H151.02C150.068 144.824 149.303 143.822 148.778 142.692C148.253 141.562 147.981 140.331 147.98 139.085C147.98 136.082 149.668 127.09 149.668 127.09H162.957C162.957 127.09 164.645 136.094 164.645 139.085C164.645 140.331 164.372 141.562 163.847 142.692C163.322 143.822 162.557 144.824 161.605 145.628Z" fill="#263238"/>
<path id="Vector_9" d="M163.292 124.844C160.099 124.844 156.972 123.549 156.314 121.949C155.657 120.348 157.704 119.054 160.897 119.054C161.925 119.056 162.949 119.187 163.945 119.442C164.83 119.172 165.751 119.041 166.675 119.054C169.868 119.054 172.991 120.348 173.653 121.949C174.315 123.549 172.263 124.844 169.07 124.844H163.292Z" fill="#407BFF"/>
<path id="Vector_10" opacity="0.1" d="M163.292 124.844C160.099 124.844 156.972 123.549 156.314 121.949C155.657 120.348 157.704 119.054 160.897 119.054C161.925 119.056 162.949 119.187 163.945 119.442C164.83 119.172 165.751 119.041 166.675 119.054C169.868 119.054 172.991 120.348 173.653 121.949C174.315 123.549 172.263 124.844 169.07 124.844H163.292Z" fill="black"/>
<path id="Vector_11" d="M142.459 118.656C139.849 118.656 138.79 117.598 140.097 116.291C141.404 114.984 144.577 113.929 147.191 113.929C147.886 113.906 148.579 114.014 149.234 114.247C150.114 114.044 151.014 113.937 151.918 113.929C154.528 113.929 155.587 114.988 154.28 116.291C152.973 117.593 149.8 118.656 147.191 118.656H142.459Z" fill="#407BFF"/>
<path id="Vector_12" d="M166.477 116.29C163.189 116.29 159.198 114.958 157.552 113.316C155.905 111.674 157.241 110.343 160.53 110.343C161.666 110.358 162.798 110.497 163.905 110.756C164.729 110.458 165.601 110.318 166.477 110.343C169.761 110.343 173.757 111.674 175.399 113.316C177.041 114.958 175.709 116.29 172.425 116.29H166.477Z" fill="#407BFF"/>
<path id="Vector_13" opacity="0.2" d="M166.477 116.29C163.189 116.29 159.198 114.958 157.552 113.316C155.905 111.674 157.241 110.343 160.53 110.343C161.666 110.358 162.798 110.497 163.905 110.756C164.729 110.458 165.601 110.318 166.477 110.343C169.761 110.343 173.757 111.674 175.399 113.316C177.041 114.958 175.709 116.29 172.425 116.29H166.477Z" fill="white"/>
<path id="Vector_14" d="M148.213 112.451C146.558 112.451 145.512 111.785 145.855 110.962C146.198 110.139 147.803 109.477 149.445 109.477C149.92 109.469 150.394 109.536 150.847 109.676C151.361 109.544 151.889 109.477 152.419 109.477C154.074 109.477 155.116 110.143 154.777 110.962C154.438 111.781 152.829 112.451 151.187 112.451H148.213Z" fill="#407BFF"/>
<path id="Vector_15" opacity="0.3" d="M148.213 112.451C146.558 112.451 145.512 111.785 145.855 110.962C146.198 110.139 147.803 109.477 149.445 109.477C149.92 109.469 150.394 109.536 150.847 109.676C151.361 109.544 151.889 109.477 152.419 109.477C154.074 109.477 155.116 110.143 154.777 110.962C154.438 111.781 152.829 112.451 151.187 112.451H148.213Z" fill="white"/>
<path id="Vector_16" d="M146.318 124.347C144.663 124.347 143.067 123.682 142.727 122.863C142.388 122.044 143.443 121.374 145.085 121.374C145.615 121.375 146.144 121.443 146.657 121.576C147.11 121.435 147.584 121.366 148.059 121.374C149.713 121.374 151.31 122.039 151.649 122.863C151.988 123.686 150.933 124.347 149.291 124.347H146.318Z" fill="#407BFF"/>
<path id="Vector_17" opacity="0.2" d="M146.318 124.347C144.663 124.347 143.067 123.682 142.727 122.863C142.388 122.044 143.443 121.374 145.085 121.374C145.615 121.375 146.144 121.443 146.657 121.576C147.11 121.435 147.584 121.366 148.059 121.374C149.713 121.374 151.31 122.039 151.649 122.863C151.988 123.686 150.933 124.347 149.291 124.347H146.318Z" fill="black"/>
<path id="Vector_18" d="M149.366 128.744C149.544 127.735 149.668 127.09 149.668 127.09H162.957C162.957 127.09 163.081 127.747 163.259 128.744H149.366Z" fill="#407BFF"/>
<path id="Vector_19" d="M148.786 114.822C148.786 114.822 145.142 116.038 143.988 118.04C143.988 118.04 144.17 115.124 148.786 114.822Z" fill="#FAFAFA"/>
<path id="Vector_20" d="M150.504 110.053C149.917 110.391 149.399 110.837 148.978 111.368C149.079 111.025 149.277 110.719 149.547 110.486C149.818 110.253 150.15 110.102 150.504 110.053Z" fill="#FAFAFA"/>
<path id="Vector_21" d="M164.645 111.373C164.645 111.373 168.594 112.821 171.027 115.555C170.381 114.393 169.463 113.405 168.351 112.677C167.239 111.949 165.967 111.501 164.645 111.373Z" fill="#FAFAFA"/>
<path id="Vector_22" d="M164.645 120.166C166.287 120.85 167.716 121.963 168.781 123.388C168.781 123.388 168.049 120.65 164.645 120.166Z" fill="#E6E6E6"/>
<path id="Vector_23" d="M146.719 122.172C147.011 122.326 147.26 122.551 147.44 122.828C147.621 123.104 147.729 123.422 147.753 123.752C147.269 123.33 146.912 122.784 146.719 122.172Z" fill="#FAFAFA"/>
<path id="Vector_24" d="M44.7476 67.1163C44.8828 66.8519 45.0991 66.6378 45.3648 66.5054C45.6305 66.3729 45.9317 66.329 46.2242 66.3801C46.5172 66.4532 46.7804 66.6153 46.9774 66.8442C47.1745 67.0731 47.2957 67.3575 47.3244 67.6581C47.5274 67.5103 47.7706 67.4276 48.0217 67.421C48.2728 67.4143 48.52 67.484 48.7306 67.6209C48.941 67.7726 49.105 67.9798 49.2044 68.2194C49.3037 68.459 49.3344 68.7215 49.2931 68.9775C49.4097 68.8927 49.5426 68.8331 49.6835 68.8025C49.8243 68.7719 49.97 68.771 50.1113 68.7998C50.2525 68.8286 50.3862 68.8865 50.5038 68.9698C50.6215 69.0531 50.7205 69.16 50.7945 69.2836C50.9307 69.5499 50.9589 69.8584 50.8734 70.145C50.7879 70.4315 50.5952 70.6741 50.3354 70.8222C50.5182 70.8457 50.6858 70.9361 50.8058 71.0759C50.9258 71.2158 50.9896 71.3952 50.985 71.5794C50.9803 71.7636 50.9076 71.9396 50.7807 72.0732C50.6538 72.2069 50.4819 72.2887 50.2982 72.303C50.4833 72.3169 50.6579 72.3946 50.7921 72.5228C50.9264 72.651 51.012 72.8218 51.0344 73.0061C51.0549 73.1929 51.0112 73.3811 50.9104 73.5397C50.8097 73.6983 50.658 73.8179 50.4802 73.8788C50.5682 73.9291 50.6437 73.9986 50.7012 74.0821C50.7586 74.1656 50.7965 74.2609 50.812 74.3611C50.8275 74.4613 50.8202 74.5636 50.7907 74.6606C50.7612 74.7575 50.7102 74.8466 50.6415 74.9211C50.5637 74.9827 50.472 75.0243 50.3744 75.0422C50.2769 75.0602 50.1764 75.0541 50.0818 75.0243C49.9871 74.9945 49.9012 74.942 49.8315 74.8714C49.7618 74.8008 49.7105 74.7142 49.6819 74.6192C49.6675 74.6465 49.647 74.6701 49.6218 74.6881C49.5967 74.7061 49.5677 74.718 49.5372 74.7228C49.5067 74.7276 49.4754 74.7253 49.446 74.7159C49.4166 74.7065 49.3897 74.6904 49.3676 74.6688C49.3478 74.6438 49.3337 74.6148 49.326 74.5838C49.3184 74.5529 49.3175 74.5206 49.3234 74.4893C49.3292 74.4579 49.3418 74.4282 49.3601 74.4021C49.3784 74.376 49.4021 74.3541 49.4296 74.3379C49.3842 74.3879 49.3261 74.4246 49.2615 74.444C49.1969 74.4635 49.1282 74.465 49.0627 74.4485C48.9973 74.4319 48.9376 74.3978 48.89 74.35C48.8425 74.3021 48.8088 74.2422 48.7927 74.1766C48.9168 74.8384 48.1268 75.4671 47.5518 75.1486C47.5816 75.2219 47.5955 75.3006 47.5928 75.3796C47.59 75.4586 47.5707 75.5362 47.5359 75.6072C47.5012 75.6782 47.4519 75.7411 47.3912 75.7918C47.3305 75.8425 47.2598 75.8798 47.1837 75.9014C46.8747 75.9587 46.5554 75.8966 46.2903 75.7276C46.0254 75.5617 45.7249 75.461 45.4135 75.434C45.1435 75.4657 44.88 75.5383 44.6318 75.6491C44.2141 75.7753 43.7696 75.7834 43.3476 75.6725C42.9256 75.5615 42.5426 75.3358 42.2411 75.0204C42.129 75.1509 41.9855 75.2507 41.8242 75.3105C41.6628 75.3702 41.4889 75.3879 41.3188 75.3618C41.1488 75.3357 40.9881 75.2668 40.8521 75.1615C40.716 75.0561 40.609 74.9179 40.5412 74.7598C40.513 74.9218 40.4335 75.0704 40.3143 75.1836C40.1951 75.2969 40.0426 75.3687 39.8794 75.3885C39.7137 75.3912 39.5517 75.3392 39.4186 75.2405C39.2855 75.1418 39.1887 75.0019 39.1432 74.8425C39.1432 74.9873 39.1432 75.1321 39.1225 75.281C38.531 75.4216 37.9437 74.6523 38.196 74.0691C37.9779 74.0593 37.7701 73.9732 37.609 73.8258C37.448 73.6783 37.3439 73.479 37.315 73.2625C37.2919 73.0438 37.3446 72.8239 37.4644 72.6394C37.5841 72.4549 37.7635 72.3172 37.9727 72.2492C37.6142 72.1343 37.3011 71.9093 37.0778 71.6063C36.8544 71.3033 36.7323 70.9376 36.7286 70.5612C36.7249 70.1848 36.84 69.8168 37.0573 69.5095C37.2747 69.2022 37.5834 68.9712 37.9396 68.8493C38.0754 68.7954 38.2229 68.7774 38.3678 68.7969C38.5127 68.8165 38.6501 68.873 38.7668 68.961C38.8215 69.0095 38.8652 69.0691 38.8952 69.1357C38.9252 69.2024 38.9407 69.2746 38.9407 69.3477C38.9407 69.4208 38.9252 69.4931 38.8952 69.5597C38.8652 69.6264 38.8215 69.6859 38.7668 69.7345C38.6692 69.3917 38.6849 69.0265 38.8116 68.6934C38.9383 68.3603 39.1692 68.0769 39.4699 67.8856C39.7742 67.7224 40.1265 67.6723 40.4642 67.7442C40.802 67.8162 41.1033 68.0055 41.3146 68.2785C41.2145 68.127 41.1611 67.9494 41.1611 67.7677C41.1611 67.5861 41.2145 67.4085 41.3146 67.2569C41.4158 67.1144 41.5596 67.0076 41.7253 66.9519C41.8911 66.8961 42.0702 66.8943 42.237 66.9467C42.2775 66.7183 42.4026 66.5136 42.5873 66.3733C42.7721 66.2331 43.0029 66.1675 43.2338 66.1898C43.4632 66.2402 43.6663 66.3727 43.8049 66.5624C43.9436 66.752 44.0081 66.9858 43.9865 67.2197C44.0087 67.1345 44.0546 67.0572 44.1188 66.9969C44.183 66.9365 44.2629 66.8956 44.3494 66.8787C44.4358 66.8619 44.5253 66.8698 44.6075 66.9016C44.6896 66.9334 44.7611 66.9877 44.8137 67.0584C45.0743 66.9881 44.7476 67.1163 44.7476 67.1163Z" fill="#407BFF"/>
<g id="Group" opacity="0.4">
<path id="Vector_25" d="M44.5811 71.5472C44.6707 71.4802 44.773 71.4321 44.8818 71.4058C44.9906 71.3795 45.1036 71.3756 45.2139 71.3942C45.3222 71.4125 45.4232 71.461 45.5052 71.5342C45.5871 71.6074 45.6467 71.7022 45.6772 71.8078C45.6995 71.9177 45.6801 72.032 45.6228 72.1283C45.5654 72.2247 45.4742 72.2962 45.3669 72.3289C45.1022 72.3951 44.8375 72.1759 44.5687 72.2131C44.4741 72.2345 44.3814 72.2635 44.2916 72.3C44.0922 72.3184 43.8913 72.2932 43.7027 72.226C43.5141 72.1589 43.3425 72.0515 43.1996 71.9112C43.0833 71.8325 42.9812 71.7346 42.8977 71.6217C42.8562 71.5617 42.8313 71.4919 42.8255 71.4193C42.8197 71.3467 42.8332 71.2738 42.8646 71.2081C42.928 71.1328 43.0111 71.0766 43.1046 71.0459C43.1981 71.0152 43.2984 71.0112 43.394 71.0343C43.7875 71.0815 44.16 71.2376 44.4694 71.4852C44.4694 71.4231 44.4694 71.3611 44.4363 71.2991L44.5811 71.5472Z" fill="#FAFAFA"/>
<path id="Vector_26" d="M38.9605 71.2121C39.0624 71.1337 39.1772 71.0735 39.2996 71.0342C39.3723 71.011 39.4509 71.0154 39.5205 71.0465C39.5902 71.0776 39.6459 71.1332 39.6771 71.2028C39.7083 71.2724 39.7128 71.351 39.6897 71.4237C39.6666 71.4963 39.6176 71.5579 39.5519 71.5968C39.4054 71.695 39.2358 71.7534 39.0598 71.7663C38.8819 71.7912 38.6461 71.7994 38.5676 71.6423C38.542 71.5818 38.5362 71.5149 38.551 71.4509C38.5659 71.387 38.6006 71.3295 38.6503 71.2865C38.7539 71.2044 38.8737 71.1452 39.0019 71.1128L38.9605 71.2121Z" fill="#FAFAFA"/>
<path id="Vector_27" d="M47.828 68.293C48.0066 68.3694 48.1648 68.4867 48.2898 68.6354C48.4148 68.7841 48.5031 68.96 48.5477 69.1491C48.5725 69.2649 48.5477 69.4097 48.4691 69.4717C48.3907 69.5028 48.3034 69.5028 48.2251 69.4717L47.1952 69.2277C47.3634 69.2796 47.5205 69.3624 47.6584 69.4717C47.7268 69.5279 47.7792 69.601 47.8104 69.6837C47.8416 69.7665 47.8505 69.856 47.8363 69.9433C47.8024 70.0412 47.7378 70.1255 47.6521 70.1837C47.5663 70.2418 47.4641 70.2707 47.3606 70.2659C47.1531 70.2488 46.9556 70.1695 46.794 70.0384C46.6981 69.9838 46.6159 69.9082 46.5536 69.8172C46.4912 69.7262 46.4504 69.6222 46.4341 69.5131C46.4341 69.2898 46.7112 69.0995 46.8808 69.2277C46.4884 69.1209 46.1156 68.9519 45.7765 68.7273C45.6483 68.6512 45.5382 68.5482 45.4539 68.4253C45.4131 68.365 45.3889 68.295 45.3838 68.2224C45.3787 68.1498 45.3929 68.0771 45.4249 68.0117C45.7765 67.3706 46.219 68.3095 46.4341 68.3922C46.8519 68.5494 47.3151 68.0737 47.828 68.293Z" fill="#FAFAFA"/>
<path id="Vector_28" d="M49.4373 71.0179C49.4563 71.0798 49.4579 71.1458 49.4419 71.2085C49.4258 71.2713 49.3927 71.3284 49.3463 71.3736C49.3212 71.3938 49.292 71.4084 49.2607 71.4161C49.2295 71.4238 49.1969 71.4245 49.1653 71.4182C49.1337 71.4119 49.1039 71.3987 49.078 71.3795C49.052 71.3604 49.0307 71.3357 49.0154 71.3074C49.2538 71.3545 49.4711 71.4761 49.6358 71.6548C49.7764 71.8492 49.7433 72.1842 49.5158 72.2587C49.444 72.2712 49.3704 72.2693 49.2994 72.253C49.2284 72.2366 49.1613 72.2062 49.1022 72.1635C48.7303 71.9606 48.3761 71.7268 48.0434 71.4645C48.1427 71.7003 47.8986 71.9692 47.6298 71.9898C47.3712 71.9837 47.1211 71.8969 46.9142 71.7417C46.6454 71.5762 46.3393 71.3281 46.4096 71.0179C46.4589 70.8901 46.556 70.7867 46.6804 70.7295C46.8048 70.6723 46.9465 70.666 47.0755 70.7118C47.3299 70.8147 47.5515 70.9848 47.7166 71.204C47.576 70.9972 47.7787 70.6828 48.031 70.6497C48.1546 70.6431 48.278 70.6668 48.3905 70.7187C48.5029 70.7706 48.601 70.8491 48.6762 70.9475C48.3908 70.7904 48.3246 70.3809 48.7093 70.3313C48.9533 70.3023 49.3752 70.811 49.4373 71.0179Z" fill="#FAFAFA"/>
<path id="Vector_29" d="M41.5872 70.0981C41.6417 70.0762 41.7002 70.0662 41.7589 70.0687C41.8176 70.0713 41.875 70.0863 41.9274 70.1127C41.9799 70.1392 42.026 70.1765 42.0629 70.2222C42.0998 70.2679 42.1265 70.3209 42.1413 70.3777C42.1561 70.4346 42.1587 70.4939 42.1487 70.5518C42.1388 70.6096 42.1167 70.6647 42.0839 70.7134C42.051 70.7621 42.0082 70.8032 41.9582 70.834C41.9082 70.8648 41.8522 70.8847 41.794 70.8922C41.964 70.9086 42.1211 70.9901 42.2324 71.1197C42.2955 71.1897 42.3283 71.2819 42.3234 71.3761C42.3058 71.4446 42.2655 71.5051 42.2092 71.5478C42.153 71.5906 42.0839 71.6132 42.0132 71.6119C41.8684 71.6081 41.7266 71.5698 41.5996 71.5002C41.7453 71.497 41.8889 71.5358 42.0132 71.6119C42.0414 71.6316 42.0653 71.6568 42.0835 71.6859C42.1017 71.7151 42.1139 71.7476 42.1193 71.7816C42.1247 71.8155 42.1232 71.8502 42.1149 71.8836C42.1067 71.917 42.0918 71.9483 42.0711 71.9758C42.0237 72.0096 41.9684 72.0307 41.9105 72.0372C41.8526 72.0438 41.794 72.0354 41.7402 72.0131C41.4895 71.9421 41.2596 71.8115 41.0702 71.6325C41.002 71.7152 40.9149 71.7801 40.8162 71.8219C40.7176 71.8636 40.6103 71.881 40.5035 71.8724C40.4513 71.8645 40.4012 71.8461 40.3564 71.8182C40.3115 71.7903 40.2728 71.7535 40.2426 71.7102C40.2124 71.6668 40.1914 71.6178 40.1808 71.566C40.1702 71.5143 40.1702 71.4609 40.1809 71.4092C40.2102 71.3394 40.2581 71.2789 40.3193 71.2344C40.3806 71.1899 40.4529 71.1631 40.5284 71.1569C40.6805 71.1491 40.8326 71.1731 40.9751 71.2272C40.8131 71.1335 40.6877 70.9877 40.6193 70.8136C40.5656 70.6399 40.6814 70.4 40.8634 70.4248C41.0454 70.4496 41.1695 70.7143 41.3308 70.8136C41.5252 70.6482 41.1529 70.2594 41.5872 70.0981Z" fill="#FAFAFA"/>
<path id="Vector_30" d="M45.2509 69.2499C45.3588 69.3391 45.4424 69.4541 45.4937 69.5843C45.5451 69.7145 45.5626 69.8556 45.5446 69.9944C45.547 70.1491 45.5076 70.3015 45.4304 70.4355C45.3532 70.5695 45.2411 70.68 45.1061 70.7555C45.0107 70.7859 44.9099 70.7956 44.8105 70.7839C44.711 70.7723 44.6152 70.7395 44.5295 70.6878C44.4437 70.6361 44.37 70.5667 44.3132 70.4842C44.2565 70.4017 44.218 70.3081 44.2003 70.2095C44.1799 70.0072 44.2221 69.8035 44.3213 69.626C44.4204 69.4484 44.5716 69.3056 44.7546 69.2169C44.8339 69.1823 44.9204 69.1673 45.0067 69.1731C45.0931 69.1788 45.1768 69.2052 45.2509 69.2499Z" fill="#FAFAFA"/>
<path id="Vector_31" d="M42.6537 68.9218L42.5586 69.0045C42.6186 68.9296 42.7003 68.8751 42.7926 68.8487C42.8849 68.8222 42.983 68.8251 43.0736 68.8569C43.1642 68.8887 43.2426 68.9478 43.2981 69.0261C43.3536 69.1044 43.3834 69.198 43.3834 69.294C43.3834 69.39 43.3536 69.4836 43.2981 69.5619C43.2426 69.6402 43.1642 69.6993 43.0736 69.7311C42.983 69.7629 42.8849 69.7658 42.7926 69.7393C42.7003 69.7129 42.6186 69.6585 42.5586 69.5835C42.4229 69.652 42.2686 69.6741 42.1192 69.6464C41.9698 69.6188 41.8335 69.5429 41.7314 69.4305C41.6847 69.3736 41.6505 69.3077 41.6307 69.2369C41.611 69.1661 41.6063 69.0919 41.6168 69.0192C41.6273 68.9464 41.6528 68.8766 41.6918 68.8143C41.7307 68.7519 41.7822 68.6984 41.843 68.657C41.9066 68.6203 41.9789 68.6011 42.0523 68.6016C42.1258 68.602 42.1978 68.622 42.261 68.6595C42.3242 68.6969 42.3762 68.7506 42.4118 68.8149C42.4474 68.8791 42.4652 68.9517 42.4634 69.0252L42.5751 68.9011L42.6537 68.9218Z" fill="#FAFAFA"/>
<path id="Vector_32" d="M39.7916 69.383C39.9893 69.5489 40.1416 69.7624 40.2341 70.0034C40.274 70.1265 40.2659 70.2601 40.2115 70.3774C40.157 70.4948 40.0602 70.5872 39.9405 70.6362C39.6923 70.6983 39.4566 70.4915 39.3118 70.2805C39.2396 70.1897 39.1887 70.0839 39.1629 69.9708C39.1371 69.8576 39.1371 69.7402 39.1629 69.627C39.2332 69.4078 39.5517 69.2796 39.7089 69.4492L39.7916 69.383Z" fill="#FAFAFA"/>
<path id="Vector_33" d="M43.9195 67.8783C43.9458 67.828 43.9821 67.7836 44.0262 67.7479C44.0703 67.7122 44.1213 67.686 44.176 67.6708C44.2307 67.6557 44.288 67.652 44.3442 67.6599C44.4004 67.6679 44.4543 67.6873 44.5027 67.717C44.5963 67.7837 44.665 67.8797 44.698 67.9898C44.7309 68.0999 44.7263 68.2178 44.6847 68.325C44.6378 68.4295 44.5642 68.5197 44.4712 68.5865C44.3782 68.6533 44.2692 68.6944 44.1553 68.7055C43.874 68.7386 43.539 68.5111 43.6052 68.234C43.5383 68.3095 43.454 68.3675 43.3595 68.4029C43.265 68.4382 43.1634 68.4498 43.0633 68.4367C42.8647 68.4056 42.6746 68.3337 42.505 68.2257C42.2692 68.0892 42.0169 67.8783 42.0417 67.6095C42.0567 67.5001 42.1089 67.3993 42.1895 67.324C42.2701 67.2486 42.3742 67.2034 42.4843 67.1958C42.5934 67.1919 42.7022 67.2096 42.8044 67.248C42.9066 67.2863 43.0003 67.3445 43.0799 67.4192C43.2007 67.5402 43.3277 67.6548 43.4604 67.7625C43.5267 67.8162 43.6063 67.851 43.6907 67.8634C43.7751 67.8757 43.8613 67.8652 43.9402 67.8328L43.9195 67.8783Z" fill="#FAFAFA"/>
</g>
<path id="Vector_34" d="M40.3921 80.6554H47.4938L48.1887 73.5H39.6973L40.3921 80.6554Z" fill="#407BFF"/>
<path id="Vector_35" opacity="0.3" d="M40.3921 80.6554H47.4938L48.1887 73.5H39.6973L40.3921 80.6554Z" fill="black"/>
<path id="Vector_36" d="M39.1474 73.8654H48.8093L48.983 72.9141H38.9736L39.1474 73.8654Z" fill="#FAFAFA"/>
</g>
<g id="Desk">
<path id="Vector_37" d="M51.2676 85.1426H54.3779L54.4689 144.727C54.4689 145.027 54.3501 145.315 54.1384 145.527C53.9268 145.739 53.6396 145.859 53.3398 145.86C53.0424 145.86 52.7571 145.743 52.5457 145.534C52.3343 145.325 52.2139 145.041 52.2106 144.744L51.2676 85.1426Z" fill="#263238"/>
<path id="Vector_38" opacity="0.2" d="M51.2676 85.1426H54.3779L54.4689 144.727C54.4689 145.027 54.3501 145.315 54.1384 145.527C53.9268 145.739 53.6396 145.859 53.3398 145.86C53.0424 145.86 52.7571 145.743 52.5457 145.534C52.3343 145.325 52.2139 145.041 52.2106 144.744L51.2676 85.1426Z" fill="white"/>
<path id="Vector_39" d="M34.2549 85.1426H37.3694L37.4562 144.727C37.4568 144.876 37.428 145.023 37.3715 145.16C37.315 145.298 37.2319 145.423 37.127 145.528C37.0221 145.634 36.8974 145.717 36.7601 145.774C36.6229 145.831 36.4757 145.86 36.3271 145.86C36.0297 145.86 35.7444 145.743 35.533 145.534C35.3216 145.325 35.2012 145.041 35.1979 144.744L34.2549 85.1426Z" fill="#263238"/>
<path id="Vector_40" opacity="0.2" d="M34.2549 85.1426H37.3694L37.4562 144.727C37.4568 144.876 37.428 145.023 37.3715 145.16C37.315 145.298 37.2319 145.423 37.127 145.528C37.0221 145.634 36.8974 145.717 36.7601 145.774C36.6229 145.831 36.4757 145.86 36.3271 145.86C36.0297 145.86 35.7444 145.743 35.533 145.534C35.3216 145.325 35.2012 145.041 35.1979 144.744L34.2549 85.1426Z" fill="white"/>
<path id="Vector_41" d="M125.254 85.1426H128.368L128.455 144.727C128.456 144.876 128.427 145.023 128.37 145.16C128.314 145.298 128.231 145.423 128.126 145.528C128.021 145.634 127.896 145.717 127.759 145.774C127.622 145.831 127.475 145.86 127.326 145.86C127.029 145.86 126.743 145.743 126.532 145.534C126.321 145.325 126.2 145.041 126.197 144.744L125.254 85.1426Z" fill="#263238"/>
<path id="Vector_42" opacity="0.2" d="M125.254 85.1426H128.368L128.455 144.727C128.456 144.876 128.427 145.023 128.37 145.16C128.314 145.298 128.231 145.423 128.126 145.528C128.021 145.634 127.896 145.717 127.759 145.774C127.622 145.831 127.475 145.86 127.326 145.86C127.029 145.86 126.743 145.743 126.532 145.534C126.321 145.325 126.2 145.041 126.197 144.744L125.254 85.1426Z" fill="white"/>
<path id="Vector_43" d="M108.246 85.1426H111.356L111.447 144.727C111.447 145.027 111.329 145.315 111.117 145.527C110.905 145.739 110.618 145.859 110.318 145.86C110.021 145.86 109.735 145.743 109.523 145.534C109.311 145.325 109.189 145.041 109.185 144.744L108.246 85.1426Z" fill="#263238"/>
<path id="Vector_44" opacity="0.2" d="M108.246 85.1426H111.356L111.447 144.727C111.447 145.027 111.329 145.315 111.117 145.527C110.905 145.739 110.618 145.859 110.318 145.86C110.021 145.86 109.735 145.743 109.523 145.534C109.311 145.325 109.189 145.041 109.185 144.744L108.246 85.1426Z" fill="white"/>
<path id="Vector_45" d="M34.3791 96.31L128.074 95.6069V85.1426H34.3584L34.3791 96.31Z" fill="#407BFF"/>
<path id="Vector_46" opacity="0.3" d="M51.2667 85.2212L51.4405 96.1777L34.3791 96.31L34.3584 85.1426L51.2667 85.2212Z" fill="black"/>
<path id="Vector_47" d="M131.722 82.6323C131.722 81.2219 131.197 80.0803 130.552 80.0762H32.94C32.2948 80.0762 31.7695 81.2219 31.7695 82.6323C31.7695 84.0386 32.2948 85.1801 32.94 85.1884H130.552C131.197 85.1801 131.722 84.0386 131.722 82.6323Z" fill="#263238"/>
<path id="Vector_48" opacity="0.1" d="M131.722 82.6323C131.722 81.2219 131.197 80.0803 130.552 80.0762H32.94C32.2948 80.0762 31.7695 81.2219 31.7695 82.6323C31.7695 84.0386 32.2948 85.1801 32.94 85.1884H130.552C131.197 85.1801 131.722 84.0386 131.722 82.6323Z" fill="white"/>
<path id="Vector_49" opacity="0.3" d="M56.9666 82.6323C56.9666 81.2219 56.4413 80.0803 55.792 80.0762H32.94C32.2948 80.0762 31.7695 81.2219 31.7695 82.6323C31.7695 84.0386 32.2948 85.1801 32.94 85.1884H55.7878C56.4413 85.1801 56.9625 84.0386 56.9666 82.6323Z" fill="black"/>
</g>
<g id="speech-bubble">
<path id="Vector_50" d="M95.8424 31.7807C95.5429 31.7807 95.2557 31.6618 95.044 31.45C94.8322 31.2383 94.7133 30.9511 94.7133 30.6516V27.868H94.1549C93.7699 27.868 93.4006 27.7151 93.1283 27.4428C92.8561 27.1705 92.7031 26.8013 92.7031 26.4162V13.2345C92.7053 12.8516 92.8586 12.4851 93.1298 12.2148C93.4009 11.9444 93.7679 11.7921 94.1508 11.791H114.724C115.108 11.791 115.476 11.9435 115.747 12.215C116.019 12.4865 116.171 12.8547 116.171 13.2386V26.4162C116.171 26.8013 116.018 27.1705 115.746 27.4428C115.474 27.7151 115.105 27.868 114.72 27.868H101.277L96.5207 31.545C96.3268 31.6961 96.0883 31.779 95.8424 31.7807ZM94.1549 12.2046C93.8817 12.2057 93.6199 12.3144 93.4264 12.5072C93.2328 12.7 93.123 12.9613 93.1209 13.2345V26.4162C93.122 26.6912 93.2317 26.9547 93.4261 27.1491C93.6206 27.3436 93.884 27.4533 94.159 27.4544H95.1186V30.6516C95.1186 30.8414 95.194 31.0234 95.3282 31.1576C95.4624 31.2917 95.6444 31.3671 95.8341 31.3671C95.9831 31.3635 96.1274 31.3144 96.2478 31.2265L101.124 27.4544H114.707C114.982 27.4533 115.246 27.3436 115.44 27.1491C115.634 26.9547 115.744 26.6912 115.745 26.4162V13.2386C115.745 12.9644 115.636 12.7014 115.442 12.5075C115.249 12.3136 114.986 12.2046 114.711 12.2046H94.1549Z" fill="#407BFF"/>
<path id="Vector_51" d="M103.34 10.1465H100.764V10.4608H103.34V10.1465Z" fill="#407BFF"/>
<path id="Vector_52" d="M91.2921 13.8609H90.9736V12.3058C90.9747 11.7317 91.2036 11.1815 91.6099 10.7759C92.0162 10.3703 92.5669 10.1426 93.1409 10.1426H98.886V10.4528H93.1409C92.6506 10.4528 92.1803 10.6476 91.8336 10.9943C91.4869 11.341 91.2921 11.8113 91.2921 12.3016V13.8609Z" fill="#407BFF"/>
<path id="Vector_53" d="M99.7995 20.9622C100.553 20.9622 101.164 20.3512 101.164 19.5973C101.164 18.8435 100.553 18.2324 99.7995 18.2324C99.0457 18.2324 98.4346 18.8435 98.4346 19.5973C98.4346 20.3512 99.0457 20.9622 99.7995 20.9622Z" fill="#407BFF"/>
<path id="Vector_54" d="M105.768 19.5973C105.769 19.8683 105.69 20.1334 105.54 20.3591C105.39 20.5847 105.176 20.7609 104.926 20.8651C104.676 20.9694 104.401 20.9971 104.135 20.9447C103.869 20.8924 103.625 20.7623 103.433 20.571C103.241 20.3797 103.11 20.1358 103.057 19.8701C103.004 19.6044 103.031 19.3289 103.134 19.0785C103.238 18.8281 103.413 18.6141 103.638 18.4634C103.864 18.3128 104.128 18.2324 104.399 18.2324C104.762 18.2324 105.109 18.3761 105.366 18.6319C105.623 18.8878 105.767 19.235 105.768 19.5973Z" fill="#407BFF"/>
<path id="Vector_55" d="M109.004 20.9622C109.757 20.9622 110.368 20.3512 110.368 19.5973C110.368 18.8435 109.757 18.2324 109.004 18.2324C108.25 18.2324 107.639 18.8435 107.639 19.5973C107.639 20.3512 108.25 20.9622 109.004 20.9622Z" fill="#407BFF"/>
</g>
<g id="character-1">
<path id="Vector_56" d="M58.9969 52.8364L60.6513 52.7578L62.9551 78.2237H61.2138C60.3411 78.141 60.1384 77.1649 59.8944 75.3285L58.2813 57.5433C57.876 53.3286 58.5833 52.8364 58.9969 52.8364Z" fill="#407BFF"/>
<path id="Vector_57" opacity="0.3" d="M58.9969 52.8364L60.6513 52.7578L62.9551 78.2237H61.2138C60.3411 78.141 60.1384 77.1649 59.8944 75.3285L58.2813 57.5433C57.876 53.3286 58.5833 52.8364 58.9969 52.8364Z" fill="black"/>
<path id="Vector_58" d="M61.5981 78.2237H96.1097C96.2048 78.2172 96.2974 78.1906 96.3814 78.1457C96.4655 78.1008 96.539 78.0386 96.5973 77.9631C96.6555 77.8877 96.6971 77.8008 96.7193 77.7081C96.7414 77.6154 96.7437 77.5191 96.726 77.4255L94.5669 53.5561C94.5604 53.3521 94.4786 53.1577 94.3373 53.0103C94.1961 52.8629 94.0053 52.773 93.8018 52.7578H59.2902C59.1951 52.7643 59.1025 52.7909 59.0185 52.8358C58.9344 52.8808 58.8609 52.943 58.8026 53.0184C58.7444 53.0939 58.7028 53.1808 58.6806 53.2735C58.6585 53.3661 58.6562 53.4625 58.6739 53.5561L60.833 77.4255C60.8395 77.6295 60.9213 77.8239 61.0626 77.9712C61.2038 78.1186 61.3946 78.2085 61.5981 78.2237Z" fill="#407BFF"/>
<path id="Vector_59" d="M62.9217 75.2077H94.265L92.5279 55.3379H61.1846L62.9217 75.2077Z" fill="#407BFF"/>
<path id="Vector_60" d="M63.352 76.7639H94.2404C94.4437 76.7675 94.6454 76.7277 94.8321 76.6472C95.0189 76.5667 95.1863 76.4474 95.3233 76.2971C95.4602 76.1468 95.5636 75.9691 95.6265 75.7757C95.6894 75.5823 95.7104 75.3778 95.688 75.1757L93.9591 55.43C93.9147 55.0008 93.7148 54.6028 93.397 54.3109C93.0793 54.0191 92.6657 53.8537 92.2344 53.8458H61.346C61.1433 53.843 60.9423 53.8831 60.7562 53.9636C60.5701 54.0441 60.4031 54.1631 60.2664 54.3127C60.1296 54.4624 60.0261 54.6394 59.9627 54.8319C59.8992 55.0245 59.8773 55.2283 59.8984 55.43L61.6273 75.1757C61.6707 75.6056 61.8702 76.0046 62.1881 76.2973C62.5059 76.59 62.92 76.756 63.352 76.7639Z" fill="#263238"/>
<path id="Vector_61" d="M62.9217 75.2077H94.265L92.5279 55.3379H61.1846L62.9217 75.2077Z" fill="#407BFF"/>
<path id="Vector_62" opacity="0.4" d="M62.9217 75.2077H94.265L92.5279 55.3379H61.1846L62.9217 75.2077Z" fill="white"/>
<path id="Vector_63" opacity="0.1" d="M71.9388 53.8535L65.8174 76.7551H67.8772L73.9324 53.8535H71.9388Z" fill="white"/>
<path id="Vector_64" opacity="0.1" d="M75.1195 53.8535L68.998 76.7551H73.0804L79.1356 53.8535H75.1195Z" fill="white"/>
<path id="Vector_65" d="M65.7013 61.2647C65.7322 61.4638 65.7191 61.6673 65.6628 61.8608C65.6065 62.0543 65.5084 62.2331 65.3755 62.3845C65.2426 62.536 65.078 62.6564 64.8935 62.7373C64.7089 62.8183 64.5089 62.8577 64.3074 62.8529C63.8705 62.8416 63.4517 62.6759 63.1254 62.3851C62.799 62.0944 62.5862 61.6974 62.5248 61.2647C62.4932 61.0652 62.5058 60.8613 62.5618 60.6673C62.6178 60.4733 62.7158 60.294 62.8488 60.142C62.9818 59.9901 63.1465 59.8693 63.3314 59.7881C63.5163 59.7069 63.7168 59.6674 63.9186 59.6723C64.3562 59.6837 64.7755 59.8501 65.1019 60.1417C65.4283 60.4332 65.6407 60.8312 65.7013 61.2647Z" fill="#407BFF"/>
<path id="Vector_66" opacity="0.3" d="M65.7013 61.2647C65.7322 61.4638 65.7191 61.6673 65.6628 61.8608C65.6065 62.0543 65.5084 62.2331 65.3755 62.3845C65.2426 62.536 65.078 62.6564 64.8935 62.7373C64.7089 62.8183 64.5089 62.8577 64.3074 62.8529C63.8705 62.8416 63.4517 62.6759 63.1254 62.3851C62.799 62.0944 62.5862 61.6974 62.5248 61.2647C62.4932 61.0652 62.5058 60.8613 62.5618 60.6673C62.6178 60.4733 62.7158 60.294 62.8488 60.142C62.9818 59.9901 63.1465 59.8693 63.3314 59.7881C63.5163 59.7069 63.7168 59.6674 63.9186 59.6723C64.3562 59.6837 64.7755 59.8501 65.1019 60.1417C65.4283 60.4332 65.6407 60.8312 65.7013 61.2647Z" fill="black"/>
<path id="Vector_67" d="M64.3073 62.8529C64.6287 62.8608 64.9434 62.7603 65.2007 62.5675L65.0518 62.0711C65.0253 61.9805 64.9713 61.9003 64.8972 61.8418C64.8231 61.7832 64.7326 61.7492 64.6382 61.7444H64.448L64.4231 61.5376C64.5257 61.4764 64.6071 61.3855 64.6566 61.2768C64.7061 61.1682 64.7213 61.0471 64.7003 60.9296C64.6841 60.7563 64.6072 60.5944 64.483 60.4725C64.3588 60.3506 64.1955 60.2766 64.0219 60.2637C63.942 60.2673 63.8638 60.2883 63.7928 60.3252C63.7218 60.3622 63.6597 60.4141 63.6109 60.4776C63.5621 60.541 63.5277 60.6143 63.5101 60.6923C63.4925 60.7704 63.4921 60.8514 63.5091 60.9296C63.5225 61.0572 63.5673 61.1795 63.6395 61.2856C63.7116 61.3917 63.8089 61.4782 63.9227 61.5376L63.9475 61.7444H63.7572C63.668 61.7422 63.5814 61.7752 63.5164 61.8364C63.4513 61.8976 63.413 61.9819 63.4098 62.0711L63.3809 62.5675C63.6572 62.7468 63.978 62.8456 64.3073 62.8529Z" fill="white"/>
<path id="Vector_68" d="M66.8551 60.9623H73.1006C73.3902 60.9623 73.3323 60.5156 73.0469 60.5156H66.7766C66.4912 60.5156 66.5449 60.9623 66.8345 60.9623H66.8551Z" fill="white"/>
<path id="Vector_69" d="M66.9629 62.0146H75.1937C75.384 62.0146 75.3467 61.7168 75.1565 61.7168H66.9257C66.7354 61.7168 66.7685 62.0146 66.9629 62.0146Z" fill="white"/>
<path id="Vector_70" d="M76.7412 61.8654C76.7486 61.9091 76.7462 61.954 76.7341 61.9967C76.7219 62.0394 76.7004 62.0788 76.6711 62.1121C76.6417 62.1454 76.6053 62.1717 76.5645 62.1892C76.5237 62.2066 76.4795 62.2146 76.4351 62.2128C76.3396 62.2092 76.2482 62.1727 76.1766 62.1093C76.1049 62.046 76.0574 61.9598 76.0422 61.8654C76.0349 61.8214 76.0373 61.7764 76.0495 61.7335C76.0616 61.6906 76.083 61.651 76.1123 61.6174C76.1415 61.5837 76.1779 61.557 76.2187 61.5391C76.2595 61.5212 76.3037 61.5126 76.3483 61.5138C76.4444 61.5175 76.5363 61.5547 76.608 61.6188C76.6797 61.683 76.7268 61.7702 76.7412 61.8654Z" fill="#263238"/>
<path id="Vector_71" opacity="0.5" d="M76.7412 61.8654C76.7486 61.9091 76.7462 61.954 76.7341 61.9967C76.7219 62.0394 76.7004 62.0788 76.6711 62.1121C76.6417 62.1454 76.6053 62.1717 76.5645 62.1892C76.5237 62.2066 76.4795 62.2146 76.4351 62.2128C76.3396 62.2092 76.2482 62.1727 76.1766 62.1093C76.1049 62.046 76.0574 61.9598 76.0422 61.8654C76.0349 61.8214 76.0373 61.7764 76.0495 61.7335C76.0616 61.6906 76.083 61.651 76.1123 61.6174C76.1415 61.5837 76.1779 61.557 76.2187 61.5391C76.2595 61.5212 76.3037 61.5126 76.3483 61.5138C76.4444 61.5175 76.5363 61.5547 76.608 61.6188C76.6797 61.683 76.7268 61.7702 76.7412 61.8654Z" fill="white"/>
<path id="Vector_72" d="M61.1846 55.3379L61.3376 57.1164H92.6809L92.5279 55.3379H61.1846Z" fill="#407BFF"/>
<path id="Vector_73" d="M62.6237 56.1292C62.6284 56.1751 62.6233 56.2216 62.6087 56.2654C62.5942 56.3093 62.5705 56.3495 62.5392 56.3835C62.5079 56.4175 62.4698 56.4445 62.4273 56.4627C62.3849 56.4809 62.339 56.4899 62.2928 56.489C62.1962 56.484 62.1043 56.4453 62.0333 56.3795C61.9622 56.3138 61.9165 56.2252 61.9041 56.1292C61.8994 56.0838 61.9044 56.0379 61.9187 55.9946C61.9331 55.9512 61.9565 55.9114 61.9874 55.8778C62.0183 55.8442 62.0559 55.8175 62.0979 55.7995C62.1399 55.7815 62.1852 55.7727 62.2308 55.7735C62.3276 55.7774 62.4199 55.8151 62.4917 55.8801C62.5635 55.9451 62.6103 56.0333 62.6237 56.1292Z" fill="white"/>
<path id="Vector_74" d="M63.5678 56.1292C63.5732 56.1749 63.5686 56.2213 63.5546 56.2651C63.5405 56.309 63.5172 56.3493 63.4862 56.3834C63.4553 56.4174 63.4174 56.4445 63.3751 56.4627C63.3328 56.481 63.2871 56.4899 63.2411 56.489C63.1444 56.484 63.0526 56.4453 62.9815 56.3795C62.9105 56.3138 62.8647 56.2252 62.8523 56.1292C62.8476 56.0838 62.8526 56.0379 62.867 55.9946C62.8813 55.9512 62.9047 55.9114 62.9356 55.8778C62.9665 55.8442 63.0042 55.8175 63.0461 55.7995C63.0881 55.7815 63.1334 55.7727 63.179 55.7735C63.2751 55.7783 63.3665 55.8165 63.4374 55.8814C63.5084 55.9463 63.5545 56.0339 63.5678 56.1292Z" fill="white"/>
<path id="Vector_75" d="M64.5135 56.1292C64.5182 56.1748 64.5132 56.2209 64.4989 56.2644C64.4845 56.308 64.4612 56.348 64.4304 56.3819C64.3996 56.4159 64.362 56.443 64.32 56.4614C64.278 56.4799 64.2326 56.4893 64.1868 56.489C64.0858 56.4899 63.988 56.4538 63.9118 56.3875C63.8356 56.3212 63.7863 56.2293 63.7732 56.1292C63.7685 56.0838 63.7735 56.0379 63.7879 55.9946C63.8022 55.9512 63.8256 55.9114 63.8565 55.8778C63.8874 55.8442 63.9251 55.8175 63.967 55.7995C64.009 55.7815 64.0543 55.7727 64.0999 55.7735C64.2003 55.7725 64.2976 55.808 64.3737 55.8735C64.4498 55.9389 64.4995 56.0298 64.5135 56.1292Z" fill="white"/>
<path id="Vector_76" d="M96.4654 78.293H61.2838C60.8703 78.293 60.5352 78.6281 60.5352 79.0416V79.4883C60.5352 79.9018 60.8703 80.2369 61.2838 80.2369H96.4654C96.8788 80.2369 97.214 79.9018 97.214 79.4883V79.0416C97.214 78.6281 96.8788 78.293 96.4654 78.293Z" fill="#407BFF"/>
<path id="Vector_77" opacity="0.3" d="M96.4654 78.293H61.2838C60.8703 78.293 60.5352 78.6281 60.5352 79.0416V79.4883C60.5352 79.9018 60.8703 80.2369 61.2838 80.2369H96.4654C96.8788 80.2369 97.214 79.9018 97.214 79.4883V79.0416C97.214 78.6281 96.8788 78.293 96.4654 78.293Z" fill="black"/>
<path id="Vector_78" d="M74.4951 78.2852H110.872V78.7277C110.872 79.1248 110.714 79.5057 110.434 79.7864C110.153 80.0672 109.772 80.225 109.375 80.225H75.9965C75.5994 80.225 75.2186 80.0672 74.9378 79.7864C74.657 79.5057 74.4993 79.1248 74.4993 78.7277V78.2852H74.4951Z" fill="#407BFF"/>
<path id="Vector_79" opacity="0.4" d="M74.4951 78.2852H110.872V78.7277C110.872 79.1248 110.714 79.5057 110.434 79.7864C110.153 80.0672 109.772 80.225 109.375 80.225H75.9965C75.5994 80.225 75.2186 80.0672 74.9378 79.7864C74.657 79.5057 74.4993 79.1248 74.4993 78.7277V78.2852H74.4951Z" fill="white"/>
<path id="Vector_80" opacity="0.3" d="M90.8857 78.3477C90.8868 78.6051 90.9896 78.8517 91.1716 79.0338C91.3537 79.2158 91.6003 79.3186 91.8577 79.3196H96.3082C96.5659 79.3196 96.8132 79.2172 96.9955 79.035C97.1777 78.8527 97.2801 78.6054 97.2801 78.3477H90.8857Z" fill="black"/>
<path id="Vector_81" d="M94.2654 75.254H62.9469L62.7773 73.3184H94.0958L94.2654 75.254Z" fill="#407BFF"/>
<path id="Vector_82" d="M90.0671 74.41H68.3112L68.2988 74.2363H90.0547L90.0671 74.41Z" fill="white"/>
<path id="Vector_83" d="M90.6834 74.4179C90.6834 74.5006 90.6379 74.5668 90.5138 74.5668C90.4504 74.5674 90.3883 74.5487 90.3359 74.513L90.369 74.4468C90.408 74.4772 90.4561 74.4933 90.5055 74.4923C90.5676 74.4923 90.6006 74.4675 90.5965 74.422C90.5924 74.3765 90.5634 74.3517 90.4683 74.3517H90.3566V74.1035H90.6255V74.1738H90.4311V74.2814H90.4766C90.6172 74.2814 90.6751 74.3393 90.6834 74.4179Z" fill="white"/>
<path id="Vector_84" d="M90.7121 74.261C90.7115 74.2541 90.7124 74.2472 90.7146 74.2407C90.7168 74.2342 90.7204 74.2282 90.7251 74.2232C90.7297 74.2181 90.7354 74.2141 90.7417 74.2113C90.748 74.2086 90.7548 74.2072 90.7617 74.2072C90.7691 74.2066 90.7766 74.2076 90.7836 74.21C90.7906 74.2125 90.797 74.2163 90.8024 74.2214C90.8079 74.2264 90.8122 74.2326 90.8152 74.2394C90.8181 74.2462 90.8197 74.2535 90.8196 74.261C90.8209 74.2676 90.8206 74.2744 90.8189 74.2809C90.8171 74.2874 90.814 74.2935 90.8096 74.2986C90.8053 74.3038 90.7998 74.3079 90.7937 74.3107C90.7876 74.3135 90.7809 74.3148 90.7741 74.3147C90.7665 74.3153 90.7589 74.3143 90.7516 74.3119C90.7444 74.3095 90.7377 74.3057 90.7319 74.3007C90.7262 74.2957 90.7214 74.2897 90.718 74.2828C90.7146 74.276 90.7126 74.2686 90.7121 74.261ZM90.7369 74.5091C90.7356 74.5021 90.7359 74.4949 90.7378 74.4881C90.7398 74.4812 90.7433 74.475 90.7482 74.4697C90.753 74.4645 90.759 74.4605 90.7656 74.458C90.7723 74.4555 90.7795 74.4546 90.7865 74.4554C90.8012 74.4553 90.8153 74.4608 90.8261 74.4708C90.8368 74.4808 90.8434 74.4945 90.8444 74.5091C90.845 74.516 90.8442 74.5229 90.8419 74.5294C90.8397 74.5359 90.8361 74.5419 90.8315 74.5469C90.8268 74.552 90.8211 74.556 90.8148 74.5588C90.8085 74.5615 90.8017 74.5629 90.7948 74.5629C90.7874 74.5635 90.78 74.5625 90.773 74.5601C90.766 74.5576 90.7595 74.5537 90.7541 74.5487C90.7486 74.5436 90.7443 74.5375 90.7414 74.5307C90.7384 74.5239 90.7369 74.5165 90.7369 74.5091Z" fill="white"/>
<path id="Vector_85" d="M90.882 74.3315C90.882 74.1826 90.9441 74.0957 91.0516 74.0957C91.1591 74.0957 91.2501 74.1826 91.2667 74.3315C91.2832 74.4804 91.2046 74.5672 91.093 74.5672C91.0341 74.563 90.9792 74.536 90.9398 74.492C90.9004 74.448 90.8797 74.3904 90.882 74.3315ZM91.1798 74.3315C91.1798 74.2198 91.1219 74.1702 91.0599 74.1702C90.9978 74.1702 90.9565 74.2198 90.9689 74.3315C90.9813 74.4431 91.0268 74.4928 91.0888 74.4928C91.1509 74.4928 91.1881 74.4431 91.1798 74.3315Z" fill="white"/>
<path id="Vector_86" d="M91.3203 74.3315C91.3203 74.1826 91.3824 74.0957 91.494 74.0957C91.5529 74.1 91.6078 74.1269 91.6472 74.1709C91.6866 74.2149 91.7073 74.2725 91.705 74.3315C91.705 74.4804 91.6429 74.5672 91.5354 74.5672C91.4279 74.5672 91.3369 74.4804 91.3203 74.3315ZM91.6181 74.3315C91.6181 74.2198 91.5602 74.1702 91.4982 74.1702C91.4361 74.1702 91.3989 74.2198 91.4072 74.3315C91.4154 74.4431 91.4651 74.4928 91.5271 74.4928C91.5892 74.4928 91.6264 74.4431 91.6181 74.3315Z" fill="white"/>
<path id="Vector_87" d="M63.9188 74.4892V74.5595H63.5797V74.5057L63.7451 74.332C63.7592 74.3204 63.7706 74.3059 63.7785 74.2895C63.7863 74.2731 63.7905 74.2551 63.7906 74.2369C63.7906 74.1955 63.7575 74.1707 63.6996 74.1707C63.6796 74.1697 63.6597 74.1737 63.6416 74.1823C63.6235 74.191 63.6079 74.2041 63.5962 74.2203L63.5342 74.1707C63.5534 74.1455 63.5786 74.1255 63.6075 74.1125C63.6364 74.0995 63.668 74.0939 63.6996 74.0962C63.7989 74.0962 63.8692 74.1459 63.8733 74.2286C63.8755 74.2559 63.871 74.2834 63.8601 74.3086C63.8493 74.3338 63.8326 74.356 63.8113 74.3733L63.6996 74.4892H63.9188Z" fill="white"/>
<path id="Vector_88" d="M63.9597 74.261C63.9585 74.2543 63.9588 74.2475 63.9605 74.241C63.9622 74.2345 63.9654 74.2284 63.9697 74.2233C63.9741 74.2181 63.9795 74.214 63.9857 74.2112C63.9918 74.2085 63.9985 74.2071 64.0052 74.2072C64.0129 74.2066 64.0205 74.2076 64.0277 74.21C64.035 74.2124 64.0417 74.2162 64.0474 74.2212C64.0532 74.2262 64.0579 74.2323 64.0613 74.2391C64.0647 74.2459 64.0668 74.2533 64.0673 74.261C64.0679 74.2678 64.067 74.2747 64.0648 74.2812C64.0625 74.2877 64.059 74.2937 64.0543 74.2988C64.0496 74.3038 64.044 74.3078 64.0376 74.3106C64.0313 74.3133 64.0245 74.3147 64.0176 74.3147C64.0102 74.3153 64.0028 74.3143 63.9958 74.3119C63.9888 74.3094 63.9824 74.3056 63.9769 74.3005C63.9715 74.2955 63.9672 74.2893 63.9642 74.2825C63.9612 74.2757 63.9597 74.2684 63.9597 74.261ZM63.9804 74.5091C63.9791 74.5021 63.9794 74.4949 63.9814 74.4881C63.9833 74.4812 63.9869 74.475 63.9917 74.4697C63.9965 74.4645 64.0025 74.4605 64.0092 74.458C64.0158 74.4555 64.023 74.4546 64.0301 74.4554C64.0447 74.4553 64.0589 74.4608 64.0696 74.4708C64.0804 74.4808 64.0869 74.4945 64.088 74.5091C64.0885 74.516 64.0877 74.5229 64.0854 74.5294C64.0832 74.5359 64.0796 74.5419 64.075 74.5469C64.0703 74.552 64.0646 74.556 64.0583 74.5588C64.052 74.5615 64.0452 74.5629 64.0383 74.5629C64.0296 74.5662 64.0202 74.5674 64.0109 74.5663C64.0016 74.5652 63.9927 74.5619 63.985 74.5566C63.9772 74.5513 63.9709 74.5442 63.9665 74.536C63.9621 74.5277 63.9598 74.5185 63.9597 74.5091H63.9804Z" fill="white"/>
<path id="Vector_89" d="M64.4558 74.4179C64.4558 74.5006 64.4103 74.5668 64.2862 74.5668C64.2229 74.5674 64.1608 74.5487 64.1084 74.513L64.1415 74.4468C64.1804 74.4772 64.2286 74.4933 64.278 74.4923C64.34 74.4923 64.3731 74.4675 64.369 74.422C64.3648 74.3765 64.3359 74.3517 64.2408 74.3517H64.1291V74.1035H64.3979V74.1738H64.1994V74.2814H64.2449C64.3731 74.2814 64.4476 74.3393 64.4558 74.4179Z" fill="white"/>
<path id="Vector_90" d="M64.498 74.3315C64.498 74.1826 64.556 74.0957 64.6676 74.0957C64.7265 74.1 64.7814 74.1269 64.8208 74.1709C64.8601 74.2149 64.8809 74.2725 64.8786 74.3315C64.8786 74.4804 64.8165 74.5672 64.709 74.5672C64.6014 74.5672 64.5105 74.4804 64.498 74.3315ZM64.7917 74.3315C64.7917 74.2198 64.7338 74.1702 64.6718 74.1702C64.6097 74.1702 64.5725 74.2198 64.5808 74.3315C64.589 74.4431 64.6387 74.4928 64.7007 74.4928C64.7628 74.4928 64.7876 74.4431 64.7876 74.3315H64.7917Z" fill="white"/>
<path id="Vector_91" d="M93.6489 75.0143H92.2715L92.1475 73.6328H93.5289L93.6489 75.0143ZM92.4783 74.7826H93.4007L93.3262 73.8603H92.4039L92.4783 74.7826Z" fill="white"/>
<path id="Vector_92" d="M77.7546 74.084H65.3174L65.3587 74.5596H77.796L77.7546 74.084Z" fill="#263238"/>
<path id="Vector_93" d="M78.2084 74.3076C78.2118 74.3639 78.2036 74.4204 78.1843 74.4735C78.165 74.5266 78.1351 74.5751 78.0964 74.6162C78.0576 74.6573 78.0109 74.69 77.959 74.7123C77.9071 74.7346 77.8512 74.7461 77.7948 74.746C77.6759 74.7427 77.5622 74.6965 77.4748 74.6159C77.3874 74.5353 77.332 74.4258 77.3191 74.3076C77.3157 74.2512 77.3239 74.1947 77.3432 74.1417C77.3624 74.0886 77.3924 74.04 77.4311 73.9989C77.4699 73.9578 77.5166 73.9251 77.5685 73.9028C77.6204 73.8805 77.6762 73.869 77.7327 73.8691C77.8519 73.8716 77.966 73.9175 78.0536 73.9982C78.1412 74.079 78.1963 74.189 78.2084 74.3076Z" fill="#263238"/>
<path id="Vector_94" d="M78.2084 74.3076C78.2118 74.3639 78.2036 74.4204 78.1843 74.4735C78.165 74.5266 78.1351 74.5751 78.0964 74.6162C78.0576 74.6573 78.0109 74.69 77.959 74.7123C77.9071 74.7346 77.8512 74.7461 77.7948 74.746C77.6759 74.7427 77.5622 74.6965 77.4748 74.6159C77.3874 74.5353 77.332 74.4258 77.3191 74.3076C77.3157 74.2512 77.3239 74.1947 77.3432 74.1417C77.3624 74.0886 77.3924 74.04 77.4311 73.9989C77.4699 73.9578 77.5166 73.9251 77.5685 73.9028C77.6204 73.8805 77.6762 73.869 77.7327 73.8691C77.8519 73.8716 77.966 73.9175 78.0536 73.9982C78.1412 74.079 78.1963 74.189 78.2084 74.3076Z" fill="white"/>
<path id="Vector_95" d="M90.1659 43.48C91.2832 43.675 92.3354 44.1418 93.2298 44.8392C94.1242 45.5367 94.8333 46.4435 95.2947 47.4796C96.9905 51.1111 98.343 56.3846 99.6128 56.9388C100.883 57.4931 106.441 52.021 106.441 52.021C106.441 52.021 105.308 48.4019 107.004 47.8353C108.7 47.2686 108.361 44.7374 109.945 45.2709C111.529 45.8045 112.426 48.0628 112.319 49.3077C112.211 50.5527 109.266 53.3777 109.266 53.3777C109.266 53.3777 103.952 62.8328 98.5126 61.9683C93.0736 61.1039 90.1535 48.4267 90.1535 48.4267C90.1535 48.4267 88.6397 43.2856 90.1659 43.48Z" fill="#EEC8C0"/>
<path id="Vector_96" opacity="0.1" d="M91.6729 53.0847C92.864 56.2943 93.8443 58.6147 96.1067 60.6744C93.6582 56.741 93.9229 49.6973 93.9229 49.6973L91.6729 53.0847Z" fill="black"/>
<path id="Vector_97" d="M71.5744 44.6019C73.514 44.046 75.4813 43.5918 77.4683 43.2412L77.5345 43.2949L77.6379 43.3942L78.5106 44.0642L80.8847 45.4912L82.8328 45.7973L84.7189 45.3382L85.9266 43.6589L86.15 42.6911V42.6621C88.2675 42.748 90.3523 43.2145 92.3045 44.0394C92.6478 44.1989 92.9415 44.4486 93.1542 44.7618C93.3669 45.075 93.4906 45.44 93.5122 45.8179C93.6686 48.0509 93.9447 50.2738 94.3395 52.4771C95.1253 57.1178 92.7181 67.5035 91.7834 71.2466C91.6811 71.6566 91.458 72.0264 91.1431 72.3081C90.8282 72.5898 90.436 72.7704 90.0172 72.8266C84.688 73.5563 79.2867 73.591 73.9485 72.93C73.4447 72.8643 72.9815 72.6189 72.6441 72.239C72.3067 71.859 72.1178 71.3701 72.1121 70.862C72.0459 64.9184 70.5942 51.6416 70.0441 46.8727C69.989 46.3743 70.1126 45.8725 70.3928 45.4567C70.6731 45.0409 71.0918 44.738 71.5744 44.6019Z" fill="#407BFF"/>
<path id="Vector_98" d="M71.5744 44.6019C73.514 44.046 75.4813 43.5918 77.4683 43.2412L77.5345 43.2949L77.6379 43.3942L78.5106 44.0642L80.8847 45.4912L82.8328 45.7973L84.7189 45.3382L85.9266 43.6589L86.15 42.6911V42.6621C88.2675 42.748 90.3523 43.2145 92.3045 44.0394C92.6478 44.1989 92.9415 44.4486 93.1542 44.7618C93.3669 45.075 93.4906 45.44 93.5122 45.8179C93.6686 48.0509 93.9447 50.2738 94.3395 52.4771C95.1253 57.1178 92.7181 67.5035 91.7834 71.2466C91.6811 71.6566 91.458 72.0264 91.1431 72.3081C90.8282 72.5898 90.436 72.7704 90.0172 72.8266C84.688 73.5563 79.2867 73.591 73.9485 72.93C73.4447 72.8643 72.9815 72.6189 72.6441 72.239C72.3067 71.859 72.1178 71.3701 72.1121 70.862C72.0459 64.9184 70.5942 51.6416 70.0441 46.8727C69.989 46.3743 70.1126 45.8725 70.3928 45.4567C70.6731 45.0409 71.0918 44.738 71.5744 44.6019Z" fill="#263238"/>
<path id="Vector_99" d="M77.6431 27.8247C76.8696 30.0748 75.575 32.5233 76.1376 34.8354C76.7001 37.1475 79.1941 39.2941 81.4524 40.0427C84.0706 40.9155 87.1189 41.8585 89.0587 39.8897C90.0183 38.9177 89.4723 36.9572 88.5789 35.9191C88.1245 35.4069 87.5253 35.0449 86.8605 34.8809C86.1958 34.7169 85.4969 34.7588 84.8564 35.0008C85.0115 33.8173 84.9356 32.615 84.6331 31.4603C84.35 29.9475 83.4783 28.6088 82.2093 27.7379C80.9189 26.9106 78.1436 26.3812 77.6431 27.8247Z" fill="#263238"/>
<path id="Vector_100" d="M78.4695 43.07C80.004 41.4569 79.3877 34.2188 79.3877 34.2188L83.8795 37.267C83.8795 37.267 84.1442 41.7464 85.2155 42.6109C85.4678 42.8135 85.84 42.6398 86.1378 42.6605L85.8648 43.8021L85.0376 45.2166L83.8878 46.0438H82.1879L80.6534 45.6095L78.9121 44.3687L77.4893 43.223C77.8201 43.1775 78.2462 43.3016 78.4695 43.07Z" fill="#EEC8C0"/>
<path id="Vector_101" opacity="0.1" d="M84.2718 40.2657C81.3186 39.9307 79.962 38.3962 79.3457 37.1843L79.4739 35.9766L83.9616 39.0249L84.2718 40.2657Z" fill="black"/>
<path id="Vector_102" d="M77.6297 31.3279C78.5769 35.0504 78.8995 36.6511 81.1702 38.2228C84.5907 40.5928 88.9626 38.6074 89.1487 34.6782C89.3142 31.1335 87.7342 25.6118 83.7718 24.8384C82.896 24.6579 81.9886 24.7044 81.1359 24.9733C80.2831 25.2423 79.5132 25.7248 78.8994 26.3751C78.2857 27.0253 77.8483 27.8217 77.629 28.6886C77.4096 29.5554 77.4156 30.464 77.6462 31.3279H77.6297Z" fill="#EEC8C0"/>
<path id="Vector_103" d="M83.8137 31.175C83.8757 31.481 84.0826 31.7002 84.2811 31.663C84.4796 31.6258 84.5996 31.3445 84.5458 31.0385C84.492 30.7324 84.2728 30.5132 84.0743 30.5463C83.8757 30.5794 83.7889 30.8813 83.8137 31.175Z" fill="#263238"/>
<path id="Vector_104" d="M87.2998 30.5219C87.3577 30.8363 87.5686 31.0472 87.7671 31.0141C87.9657 30.981 88.0856 30.6915 88.0277 30.3854C87.9698 30.0793 87.7589 29.8601 87.5603 29.9015C87.3618 29.9429 87.2419 30.2158 87.2998 30.5219Z" fill="#263238"/>
<path id="Vector_105" d="M87.4736 29.9336L88.1685 29.582C88.1685 29.582 87.9038 30.2314 87.4736 29.9336Z" fill="#263238"/>
<path id="Vector_106" d="M86.333 31.2832C86.7429 31.9312 87.2382 32.521 87.8055 33.0369C87.6689 33.1777 87.5037 33.2874 87.321 33.3588C87.1383 33.4302 86.9424 33.4614 86.7466 33.4505L86.333 31.2832Z" fill="#ED893E"/>
<path id="Vector_107" d="M82.3036 30.7406C82.3425 30.7401 82.3801 30.7269 82.4107 30.703C82.4413 30.6791 82.4633 30.6458 82.4732 30.6083C82.5924 30.3344 82.7672 30.0881 82.9865 29.8852C83.2058 29.6823 83.4648 29.5272 83.7471 29.4295C83.7937 29.4135 83.832 29.3797 83.8537 29.3355C83.8754 29.2913 83.8787 29.2404 83.8629 29.1937C83.8559 29.171 83.8444 29.1499 83.8291 29.1317C83.8137 29.1135 83.7949 29.0985 83.7737 29.0877C83.7525 29.0769 83.7293 29.0705 83.7056 29.0688C83.6818 29.0671 83.658 29.0702 83.6355 29.0779C83.2953 29.193 82.9841 29.3806 82.7234 29.6277C82.4628 29.8747 82.2589 30.1754 82.1258 30.509C82.113 30.5551 82.1188 30.6043 82.142 30.6461C82.1653 30.6879 82.204 30.7189 82.2499 30.7324C82.267 30.7388 82.2853 30.7416 82.3036 30.7406Z" fill="#263238"/>
<path id="Vector_108" d="M88.0362 28.7259C88.0691 28.7237 88.101 28.7136 88.1291 28.6963C88.1572 28.679 88.1807 28.6551 88.1975 28.6266C88.2197 28.5837 88.2244 28.5338 88.2105 28.4875C88.1966 28.4411 88.1652 28.402 88.123 28.3785C87.8683 28.2275 87.5803 28.1417 87.2845 28.1287C86.9886 28.1157 86.6942 28.1759 86.4272 28.304C86.3862 28.3245 86.355 28.3603 86.3403 28.4036C86.3255 28.447 86.3286 28.4945 86.3486 28.5356C86.3591 28.5572 86.3738 28.5764 86.392 28.592C86.4102 28.6076 86.4315 28.6192 86.4544 28.6262C86.4773 28.6332 86.5014 28.6354 86.5252 28.6326C86.549 28.6298 86.572 28.6222 86.5927 28.6101C86.804 28.5185 87.0339 28.4778 87.2638 28.4915C87.4937 28.5051 87.7172 28.5727 87.9162 28.6887C87.9522 28.7115 87.9936 28.7244 88.0362 28.7259Z" fill="#263238"/>
<path id="Vector_109" d="M84.0039 30.6133L84.7029 30.2617C84.7029 30.2617 84.4341 30.8863 84.0039 30.6133Z" fill="#263238"/>
<path id="Vector_110" d="M89.5045 24.0124C89.9883 24.354 90.3598 24.8316 90.5719 25.3846C90.7839 25.9376 90.827 26.5411 90.6957 27.1187C90.555 27.6315 90.2531 28.1154 90.2283 28.649C90.2133 28.9353 90.3102 29.2162 90.4985 29.4323C90.6869 29.6484 90.9519 29.7828 91.2375 29.8071C90.3918 29.9521 89.5266 29.9395 88.6855 29.7699C87.8583 29.5507 87.0848 28.9427 87.0559 28.1734C87.0733 27.8962 87.1051 27.62 87.151 27.3461C87.1692 27.2025 87.1493 27.0566 87.0934 26.9231C87.0375 26.7895 86.9476 26.673 86.8326 26.5851C86.3734 26.2832 85.7654 26.6099 85.2112 26.6802C84.1979 26.8167 83.1969 25.8778 83.321 24.9886C83.4451 24.0993 85.8812 21.2992 89.5045 24.0124Z" fill="#263238"/>
<path id="Vector_111" d="M85.7488 22.7294C87.1054 23.478 90.7411 27.2295 80.9303 26.6132C80.9303 26.6132 80.9509 32.747 77.8696 33.5784L69.7959 32.2466C69.7959 32.2466 73.0055 15.6898 85.7488 22.7294Z" fill="#263238"/>
<path id="Vector_112" d="M70.8638 28.5238C70.0903 30.7697 68.7957 33.2224 69.3583 35.5344C69.9208 37.8465 72.4148 39.989 74.6731 40.7418C77.2913 41.6145 80.3396 42.5575 82.2794 40.5887C83.2348 39.6126 82.693 37.6562 81.7996 36.614C81.3447 36.1025 80.7452 35.7413 80.0805 35.5781C79.4158 35.4148 78.7172 35.4573 78.0771 35.6999C78.2323 34.5164 78.1564 33.314 77.8538 32.1594C77.716 31.4061 77.431 30.6874 77.0151 30.0443C76.5992 29.4013 76.0606 28.8467 75.43 28.4121C74.1272 27.6055 71.3643 27.0803 70.8638 28.5238Z" fill="#263238"/>
<path id="Vector_113" d="M77.1543 34.4412C77.5183 35.0672 78.1117 35.5271 78.8088 35.7234C79.7477 35.9632 80.2026 35.1195 79.9255 34.2385C79.6691 33.4485 78.8791 32.369 77.9443 32.5013C77.7834 32.5293 77.6296 32.5888 77.4917 32.6763C77.3539 32.7639 77.2346 32.8778 77.1409 33.0115C77.0471 33.1452 76.9807 33.2961 76.9454 33.4556C76.9101 33.615 76.9066 33.7799 76.9351 33.9407C76.9719 34.1212 77.0466 34.2918 77.1543 34.4412Z" fill="#EEC8C0"/>
<path id="Vector_114" d="M87.0686 34.5176C86.5872 34.7306 86.0666 34.8407 85.5403 34.8407C85.0139 34.8407 84.4933 34.7306 84.012 34.5176C84.012 34.5176 83.8879 36.3995 86.1214 36.2465C86.3571 36.2465 87.0686 36.1224 87.0686 36.1224C86.9587 35.5931 86.9587 35.0469 87.0686 34.5176Z" fill="#263238"/>
<path id="Vector_115" d="M84.1113 35.1669C84.0418 34.9577 84.0082 34.7381 84.012 34.5176C84.815 34.8569 85.707 34.9237 86.5516 34.7078V35.3241C86.5516 35.3241 85.075 35.5847 84.1113 35.1669Z" fill="white"/>
<path id="Vector_116" d="M84.3223 35.579C84.4857 35.5607 84.65 35.5511 84.8145 35.55C85.5261 35.5308 86.2246 35.7443 86.8039 36.158C86.5764 36.1911 86.2621 36.2325 86.1215 36.2449C85.1247 36.3111 84.5994 35.976 84.3223 35.579Z" fill="#C13B37"/>
<path id="Vector_117" d="M86.9979 42.662C86.9979 42.662 85.9473 42.3063 85.5254 42.662C85.5254 42.662 85.604 45.3877 83.4036 45.731C81.2032 46.0743 77.824 43.0922 77.824 43.0922C77.3216 42.9799 76.7953 43.0627 76.3516 43.3238L85.0001 52.7499C88.4703 49.1019 86.9979 42.662 86.9979 42.662Z" fill="#407BFF"/>
<path id="Vector_118" d="M71.161 53.6103C70.3338 52.4812 68.6256 47.7867 70.4869 45.2389C72.3481 42.691 83.5693 58.0194 83.5693 58.0194C85.4636 57.0805 94.2611 54.1315 94.2611 54.1315C94.2611 54.1315 94.5548 51.0584 95.8494 50.3097C97.144 49.5611 97.7396 47.5923 98.8398 48.7587C99.94 49.9251 101.23 53.1595 99.5346 54.3838C98.4425 55.1642 97.3089 55.8849 96.1389 56.5428C96.1389 56.5428 89.3681 61.3283 84.4503 62.9827C79.5325 64.6371 74.6354 58.3006 71.161 53.6103Z" fill="#EEC8C0"/>
<path id="Vector_119" opacity="0.1" d="M71.161 53.6103C70.3338 52.4812 68.6256 47.7867 70.4869 45.2389C72.3481 42.691 83.5693 58.0194 83.5693 58.0194C85.4636 57.0805 94.2611 54.1315 94.2611 54.1315C94.2611 54.1315 94.5548 51.0584 95.8494 50.3097C97.144 49.5611 97.7396 47.5923 98.8398 48.7587C99.94 49.9251 101.23 53.1595 99.5346 54.3838C98.4425 55.1642 97.3089 55.8849 96.1389 56.5428C96.1389 56.5428 89.3681 61.3283 84.4503 62.9827C79.5325 64.6371 74.6354 58.3006 71.161 53.6103Z" fill="white"/>
<path id="Vector_120" opacity="0.1" d="M71.161 53.6103C70.3338 52.4812 68.6256 47.7867 70.4869 45.2389C72.3481 42.691 83.5693 58.0194 83.5693 58.0194C85.4636 57.0805 94.2611 54.1315 94.2611 54.1315C94.2611 54.1315 94.5548 51.0584 95.8494 50.3097C97.144 49.5611 97.7396 47.5923 98.8398 48.7587C99.94 49.9251 101.23 53.1595 99.5346 54.3838C98.4425 55.1642 97.3089 55.8849 96.1389 56.5428C96.1389 56.5428 89.3681 61.3283 84.4503 62.9827C79.5325 64.6371 74.6354 58.3006 71.161 53.6103Z" fill="white"/>
<path id="Vector_121" d="M92.3293 73.7665L91.7999 71.2559C91.7999 71.2559 78.0474 72.6828 72.1783 71.3758L71.4131 73.7747L92.3293 73.7665Z" fill="#263238"/>
<path id="Vector_122" d="M78.7801 36.4075C78.785 36.5562 78.7455 36.703 78.6667 36.8291C78.5878 36.9552 78.4732 37.055 78.3374 37.1157C78.2016 37.1764 78.0508 37.1953 77.9042 37.17C77.7576 37.1446 77.6219 37.0761 77.5144 36.9733C77.4069 36.8705 77.3325 36.738 77.3006 36.5927C77.2687 36.4474 77.2808 36.2959 77.3354 36.1576C77.39 36.0192 77.4846 35.9002 77.6071 35.8158C77.7296 35.7314 77.8744 35.6854 78.0232 35.6837C78.2192 35.6804 78.4087 35.7545 78.5504 35.89C78.6921 36.0255 78.7746 36.2115 78.7801 36.4075Z" fill="white"/>
</g>
<g id="character-2">
<g id="Character">
<path id="Vector_123" d="M125.266 42.832C124.843 43.7267 124.304 44.5612 123.661 45.3137C124.153 45.8224 125.067 45.6322 125.067 45.6322L125.266 42.832Z" fill="#A02724"/>
<path id="Vector_124" d="M135.656 47.5137L132.905 49.5817L129.15 52.3736C129.348 52.8033 129.464 53.2662 129.493 53.7385C129.613 54.7808 129.733 55.5542 127.404 56.1622C127.157 56.2167 126.932 56.3414 126.754 56.5211C126.577 56.7009 126.455 56.9282 126.403 57.1756C126.304 57.7919 126.668 58.5405 128.802 58.9376C130.87 59.278 132.993 58.949 134.862 57.9987C135.776 57.5561 135.784 57.0101 135.416 56.0878C134.312 53.4324 134.911 50.1029 135.656 47.5137Z" fill="#FF8B7B"/>
<path id="Vector_125" d="M124.538 42.542C124.456 42.8646 124.538 43.1624 124.696 43.2038C124.853 43.2452 125.064 43.0177 125.146 42.6951C125.229 42.3724 125.146 42.0746 124.989 42.0291C124.832 41.9836 124.617 42.2153 124.538 42.542Z" fill="#263238"/>
<path id="Vector_126" d="M126.979 42.0526C126.942 42.0524 126.907 42.0428 126.876 42.0246C126.845 42.0065 126.819 41.9805 126.801 41.9492C126.63 41.6583 126.389 41.4149 126.1 41.2414C125.811 41.068 125.483 40.97 125.146 40.9566C125.091 40.9566 125.039 40.9348 125 40.896C124.961 40.8572 124.939 40.8046 124.939 40.7498C124.939 40.6949 124.961 40.6423 125 40.6035C125.039 40.5648 125.091 40.543 125.146 40.543C125.556 40.5578 125.956 40.6754 126.309 40.885C126.661 41.0946 126.956 41.3894 127.165 41.7424C127.191 41.791 127.197 41.8477 127.182 41.9008C127.168 41.9539 127.133 41.9994 127.086 42.0278C127.053 42.045 127.016 42.0535 126.979 42.0526Z" fill="#263238"/>
<path id="Vector_127" d="M124.518 47.1148C124.608 48.0392 124.91 48.9305 125.399 49.7195C125.889 50.5085 126.554 51.174 127.343 51.6645C127.876 51.9993 128.462 52.2413 129.076 52.3801C129.823 52.5478 130.597 52.5468 131.344 52.3773C132.09 52.2077 132.789 51.8738 133.39 51.3998C135.785 49.5882 136.062 47.1355 136.893 43.016C137.096 42.0556 137.053 41.0597 136.769 40.1203C136.485 39.1808 135.969 38.3281 135.268 37.641C134.567 36.9538 133.704 36.4543 132.759 36.1887C131.815 35.923 130.818 35.8998 129.862 36.1211C125.589 37.1469 124.146 43.2393 124.518 47.1148Z" fill="#FF8B7B"/>
<path id="Vector_128" opacity="0.2" d="M127.343 51.6527C127.876 51.9875 128.462 52.2294 129.076 52.3682H129.15L128.89 51.541C128.89 51.541 128.534 52.1325 127.343 51.6527Z" fill="black"/>
<path id="Vector_129" d="M138.093 45.9829C137.398 47.4016 136.537 48.8244 135.226 49.7054C134.742 50.0363 131.069 49.7923 131.069 49.7923C131.107 48.5515 129.527 44.2499 128.766 42.8064C128.526 43.3979 128.865 44.2086 128.563 44.7545C128.149 44.6759 120.791 42.0288 124.034 36.7388C126.325 33.0163 132.472 32.6771 135.024 36.3583C135.571 36.2168 136.146 36.2276 136.688 36.3894C137.23 36.5512 137.717 36.858 138.097 37.2765C138.84 38.1362 139.277 39.2188 139.337 40.3537C139.524 42.3018 138.945 44.2292 138.093 45.9829Z" fill="#263238"/>
</g>
<path id="Vector_130" d="M131.284 43.8635C131.209 44.8089 130.786 45.6928 130.097 46.3452C129.212 47.1724 128.104 46.2955 127.967 45.1043C127.843 44.0413 128.36 42.4862 129.44 42.1139C130.519 41.7417 131.38 42.7137 131.284 43.8635Z" fill="#FF8B7B"/>
<path id="Vector_131" d="M95.7097 136.823L91.9004 134.953L94.7171 125.672L99.3578 128.261L95.7097 136.823Z" fill="#FF8B7B"/>
<path id="Vector_132" opacity="0.2" d="M100.359 125.713L95.4738 122.896L93.5381 129.585L97.9472 131.661L100.359 125.713Z" fill="black"/>
<path id="Vector_133" d="M91.6719 134.213L96.0355 136.227C96.1152 136.267 96.1768 136.336 96.2082 136.419C96.2396 136.503 96.2385 136.595 96.2051 136.678L94.7781 140.917C94.7468 141.018 94.6954 141.112 94.6271 141.193C94.5587 141.274 94.4748 141.341 94.3802 141.388C94.2857 141.436 94.1825 141.465 94.0767 141.472C93.971 141.479 93.8649 141.465 93.7648 141.43C92.2593 140.698 91.5685 140.26 89.6535 139.362C88.4706 138.82 85.778 137.534 84.0988 136.926C82.4195 136.318 83.1144 134.345 83.8837 134.424C87.3456 134.792 89.3806 134.709 90.8861 134.184C91.1419 134.091 91.4236 134.102 91.6719 134.213Z" fill="#263238"/>
<path id="Vector_134" d="M89.4271 134.503C89.7757 134.639 90.1374 134.739 90.5066 134.8C90.5248 134.805 90.5439 134.803 90.561 134.796C90.5781 134.788 90.5924 134.775 90.6017 134.759C90.6152 134.746 90.6247 134.729 90.6291 134.711C90.6335 134.693 90.6326 134.674 90.6265 134.656C90.5397 134.515 89.7455 133.291 89.1913 133.27C89.1282 133.267 89.0654 133.28 89.0094 133.309C88.9533 133.338 88.9061 133.382 88.8728 133.436C88.8079 133.51 88.7644 133.601 88.7469 133.699C88.7294 133.797 88.7386 133.897 88.7735 133.99C88.9205 134.236 89.1533 134.418 89.4271 134.503ZM90.337 134.569C89.5801 134.387 89.0672 134.155 88.9638 133.907C88.9457 133.847 88.9439 133.783 88.9584 133.722C88.9729 133.661 89.0033 133.605 89.0465 133.56C89.0628 133.532 89.0857 133.51 89.1133 133.494C89.1408 133.478 89.1719 133.469 89.2037 133.469C89.4932 133.477 90.0185 134.085 90.337 134.569Z" fill="#407BFF"/>
<path id="Vector_135" d="M90.5104 134.799H90.5559C90.5731 134.796 90.5893 134.789 90.6036 134.779C90.6179 134.769 90.6299 134.756 90.6386 134.741C90.6386 134.692 91.2301 133.604 90.9943 133.058C90.9658 132.986 90.9205 132.922 90.8623 132.871C90.804 132.819 90.7344 132.783 90.6593 132.764C90.5803 132.733 90.4933 132.73 90.4122 132.755C90.3311 132.779 90.2608 132.831 90.2126 132.901C89.9396 133.289 90.1795 134.357 90.469 134.754C90.4717 134.764 90.4769 134.774 90.4841 134.781C90.4913 134.789 90.5003 134.795 90.5104 134.799ZM90.651 132.983C90.6878 132.998 90.7211 133.021 90.7489 133.049C90.7766 133.078 90.7982 133.112 90.8123 133.149C90.8684 133.617 90.7727 134.091 90.5393 134.501C90.3 134.048 90.241 133.52 90.3739 133.025C90.3739 132.971 90.4608 132.925 90.6014 132.967L90.651 132.983Z" fill="#407BFF"/>
<path id="Vector_136" d="M124.728 88.8476C124.728 88.8476 102.277 84.9845 99.4521 97.2646C97.2724 105.864 96.2177 109.363 93.4424 128.43L99.3694 129.766C99.3694 129.766 108.924 110.235 109.482 101.93C116.183 103.063 131.428 106.24 134.675 100.569C136.302 97.6855 137.388 94.5289 137.881 91.2548L124.728 88.8476Z" fill="#407BFF"/>
<g id="Group_2" opacity="0.3">
<path id="Vector_137" d="M124.729 88.8496C124.729 88.8496 102.278 84.9865 99.4531 97.2665C97.2734 105.865 96.2187 109.365 93.4434 128.432L99.3704 129.768C99.3704 129.768 108.925 110.237 109.483 101.932C116.184 103.065 131.429 106.242 134.676 100.571C136.303 97.6875 137.389 94.5309 137.882 91.2568L124.729 88.8496Z" fill="black"/>
</g>
<path id="Vector_138" d="M100.127 131.087L92.5371 128.431L93.2485 124.994L101.033 128.158L100.127 131.087Z" fill="#407BFF"/>
<path id="Vector_139" d="M79.9959 135.449L75.9922 133.228L79.9711 125.539L84.9055 127.545L79.9959 135.449Z" fill="#FF8B7B"/>
<path id="Vector_140" opacity="0.2" d="M86.2833 125.179L81.8866 121.646L78.9541 127.962L82.9909 130.688L86.2833 125.179Z" fill="black"/>
<path id="Vector_141" d="M76.4022 132.257L80.41 134.912C80.4775 134.963 80.5243 135.037 80.5418 135.12C80.5592 135.202 80.5462 135.289 80.5052 135.363L78.4371 139.337C78.3911 139.433 78.3262 139.518 78.2463 139.588C78.1665 139.658 78.0733 139.711 77.9724 139.744C77.8716 139.777 77.7651 139.789 77.6594 139.779C77.5538 139.77 77.4511 139.739 77.3576 139.689C75.9803 138.738 75.3681 138.2 73.6062 137.03C72.5225 136.314 70.0574 134.635 68.4898 133.774C66.9222 132.914 67.9108 131.078 68.6594 131.272C72.0262 132.161 74.0363 132.393 75.6163 132.099C75.8887 132.046 76.1713 132.102 76.4022 132.257Z" fill="#263238"/>
<path id="Vector_142" d="M74.139 132.199C74.4628 132.385 74.8052 132.538 75.1607 132.654C75.1776 132.661 75.1966 132.663 75.2146 132.658C75.2326 132.654 75.2486 132.644 75.2599 132.629C75.2753 132.619 75.2874 132.604 75.2947 132.587C75.3021 132.571 75.3043 132.552 75.3013 132.534C75.2392 132.377 74.6395 131.049 74.0936 130.945C74.0316 130.932 73.9672 130.936 73.9069 130.955C73.8466 130.975 73.7926 131.01 73.7503 131.057C73.6767 131.123 73.6213 131.207 73.5894 131.3C73.5575 131.394 73.5502 131.494 73.5683 131.591C73.6787 131.856 73.8815 132.072 74.139 132.199ZM75.0283 132.401C74.3086 132.104 73.8371 131.814 73.7875 131.541C73.7786 131.478 73.7866 131.414 73.8106 131.355C73.8345 131.296 73.8737 131.245 73.924 131.206C73.944 131.183 73.9697 131.164 73.9987 131.154C74.0276 131.143 74.0588 131.139 74.0894 131.144C74.3624 131.194 74.7719 131.872 75.0283 132.401Z" fill="#407BFF"/>
<path id="Vector_143" d="M75.1654 132.656H75.2068C75.2242 132.657 75.2415 132.654 75.2574 132.647C75.2732 132.64 75.2871 132.629 75.2978 132.615C75.3185 132.569 76.0547 131.581 75.9058 131.006C75.889 130.93 75.8543 130.86 75.8047 130.8C75.755 130.74 75.6919 130.693 75.6204 130.663C75.5471 130.62 75.4614 130.603 75.3773 130.615C75.2932 130.627 75.2156 130.667 75.1572 130.729C74.8304 131.072 74.9007 132.16 75.1282 132.598C75.1293 132.61 75.1333 132.622 75.1397 132.632C75.1462 132.642 75.155 132.65 75.1654 132.656ZM75.5791 130.882C75.6136 130.903 75.6436 130.93 75.6671 130.963C75.6906 130.996 75.7071 131.033 75.7155 131.072C75.7004 131.543 75.532 131.996 75.2358 132.363C75.0688 131.879 75.0925 131.349 75.3019 130.882C75.3226 130.832 75.4053 130.799 75.5377 130.857L75.5791 130.882Z" fill="#407BFF"/>
<path id="Vector_144" d="M117.652 87.6534C117.494 87.6244 93.0377 81.0108 88.9843 94.8667C83.4254 111.73 79.3018 126.045 79.3018 126.045L84.0996 129.523C84.0996 129.523 96.3383 112.59 98.1623 100.984C105.806 100.124 124.071 106.82 127.318 101.154C129.977 96.5212 130.105 89.7628 130.105 89.7628L117.652 87.6534Z" fill="#407BFF"/>
<path id="Vector_145" opacity="0.3" d="M117.652 87.6534C117.494 87.6244 93.0377 81.0108 88.9843 94.8667C83.4254 111.73 79.3018 126.045 79.3018 126.045L84.0996 129.523C84.0996 129.523 96.3383 112.59 98.1623 100.984C105.806 100.124 124.071 106.82 127.318 101.154C129.977 96.5212 130.105 89.7628 130.105 89.7628L117.652 87.6534Z" fill="black"/>
<path id="Vector_146" d="M84.8108 130.417L78.3213 126.074L79.3719 123.295L86.3453 127.1L84.8108 130.417Z" fill="#407BFF"/>
<path id="Vector_147" d="M140.395 59.3583C139.981 61.0127 139.481 62.6465 138.939 64.2802C138.397 65.914 137.777 67.5312 137.049 69.1856C136.309 70.8873 135.393 72.5065 134.315 74.0166C133.681 74.9023 132.922 75.691 132.061 76.3576C131.531 76.7662 130.946 77.0977 130.324 77.342C129.966 77.4778 129.596 77.5776 129.219 77.6398L128.917 77.6894C128.76 77.6894 128.586 77.7142 128.433 77.7142C128.173 77.7103 127.914 77.6812 127.66 77.6274C127.283 77.5498 126.916 77.4319 126.564 77.2758C126.279 77.1578 126.002 77.0196 125.737 76.8622C125.297 76.589 124.874 76.2893 124.471 75.9647C123.768 75.3898 121.146 71.2537 119.28 68.3584L121.501 66.5054C123.909 68.6852 126.353 70.9269 128.802 72.8419C129.43 73.2886 126.779 71.4977 127.37 71.8782C127.636 72.0445 127.912 72.1924 128.198 72.3208C128.433 72.4283 128.665 72.4821 128.611 72.4407C128.561 72.4241 128.507 72.4157 128.454 72.4159C128.395 72.4118 128.335 72.4118 128.276 72.4159C128.306 72.4046 128.335 72.3907 128.363 72.3746C128.501 72.2941 128.629 72.1998 128.748 72.0933C129.165 71.705 129.533 71.2675 129.844 70.7904C130.624 69.5596 131.283 68.2561 131.813 66.8984C132.416 65.459 132.909 64.0031 133.384 62.4769C133.86 60.9507 134.303 59.4286 134.704 57.8651C135.105 56.3017 140.825 57.6956 140.395 59.3583Z" fill="#407BFF"/>
<path id="Vector_148" opacity="0.6" d="M140.395 59.3583C139.981 61.0127 139.481 62.6465 138.939 64.2802C138.397 65.914 137.777 67.5312 137.049 69.1856C136.309 70.8873 135.393 72.5065 134.315 74.0166C133.681 74.9023 132.922 75.691 132.061 76.3576C131.531 76.7662 130.946 77.0977 130.324 77.342C129.966 77.4778 129.596 77.5776 129.219 77.6398L128.917 77.6894C128.76 77.6894 128.586 77.7142 128.433 77.7142C128.173 77.7103 127.914 77.6812 127.66 77.6274C127.283 77.5498 126.916 77.4319 126.564 77.2758C126.279 77.1578 126.002 77.0196 125.737 76.8622C125.297 76.589 124.874 76.2893 124.471 75.9647C123.768 75.3898 121.146 71.2537 119.28 68.3584L121.501 66.5054C123.909 68.6852 126.353 70.9269 128.802 72.8419C129.43 73.2886 126.779 71.4977 127.37 71.8782C127.636 72.0445 127.912 72.1924 128.198 72.3208C128.433 72.4283 128.665 72.4821 128.611 72.4407C128.561 72.4241 128.507 72.4157 128.454 72.4159C128.395 72.4118 128.335 72.4118 128.276 72.4159C128.306 72.4046 128.335 72.3907 128.363 72.3746C128.501 72.2941 128.629 72.1998 128.748 72.0933C129.165 71.705 129.533 71.2675 129.844 70.7904C130.624 69.5596 131.283 68.2561 131.813 66.8984C132.416 65.459 132.909 64.0031 133.384 62.4769C133.86 60.9507 134.303 59.4286 134.704 57.8651C135.105 56.3017 140.825 57.6956 140.395 59.3583Z" fill="white"/>
<path id="Vector_149" d="M121.667 66.7542L119.545 62.25L115.513 64.5538C115.513 64.5538 118.123 68.7354 119.591 68.3218L121.667 66.7542Z" fill="#FF8B7B"/>
<path id="Vector_150" d="M116.253 61.182L114.421 61.9472C114.313 61.9909 114.217 62.0605 114.143 62.1498C114.068 62.2391 114.016 62.3453 113.992 62.4593C113.968 62.5732 113.972 62.6913 114.004 62.8032C114.037 62.9151 114.096 63.0174 114.177 63.1011L115.546 64.5322L119.578 62.2284L116.795 61.1778C116.621 61.1086 116.426 61.1101 116.253 61.182Z" fill="#FF8B7B"/>
<path id="Vector_151" d="M101.012 75.0411L96.6691 74.5117L95.2256 79.0614C95.2256 79.0614 100.189 79.1855 101.016 77.8454L101.012 75.0411Z" fill="#FF8B7B"/>
<path id="Vector_152" d="M93.4308 76.0621L92.6036 77.7951C92.5504 77.9156 92.5268 78.047 92.5347 78.1784C92.5426 78.3099 92.5817 78.4375 92.6489 78.5508C92.716 78.6641 92.8092 78.7597 92.9208 78.8297C93.0323 78.8997 93.159 78.942 93.2902 78.9532L95.2134 79.0731L96.6569 74.5234L93.8485 75.665C93.6662 75.743 93.5179 75.8839 93.4308 76.0621Z" fill="#FF8B7B"/>
<path id="Vector_153" d="M141.777 59.1189C141.583 58.1097 140.081 56.8813 139.064 56.7117L138.39 56.5959C137.028 56.3826 135.655 56.2445 134.279 56.1823C131.523 56.0278 128.762 56.0278 126.006 56.1823C124.728 56.3022 123.475 56.509 122.478 56.7034H122.441C121.875 56.8253 121.366 57.1336 120.995 57.579C120.625 58.0244 120.414 58.5812 120.398 59.1603C120.303 62.283 120.063 68.6278 119.5 74.8774C119.066 79.7621 118.102 84.5228 117.668 87.8316L137.902 91.2481C139.267 87.4098 139.738 83.9396 141 76.809C141.74 72.5198 142.584 63.2715 141.777 59.1189Z" fill="#407BFF"/>
<path id="Vector_154" opacity="0.6" d="M141.777 59.1189C141.583 58.1097 140.081 56.8813 139.064 56.7117L138.39 56.5959C137.028 56.3826 135.655 56.2445 134.279 56.1823C131.523 56.0278 128.762 56.0278 126.006 56.1823C124.728 56.3022 123.475 56.509 122.478 56.7034H122.441C121.875 56.8253 121.366 57.1336 120.995 57.579C120.625 58.0244 120.414 58.5812 120.398 59.1603C120.303 62.283 120.063 68.6278 119.5 74.8774C119.066 79.7621 118.102 84.5228 117.668 87.8316L137.902 91.2481C139.267 87.4098 139.738 83.9396 141 76.809C141.74 72.5198 142.584 63.2715 141.777 59.1189Z" fill="white"/>
<path id="Vector_155" d="M122.375 57.1904C122.765 57.3609 123.118 57.607 123.413 57.9145C123.708 58.222 123.939 58.5848 124.092 58.982C124.246 59.3793 124.32 59.803 124.309 60.2288C124.298 60.6546 124.203 61.0741 124.029 61.463C122.375 65.1855 119.604 71.0546 118.413 73.1144C117.962 73.8423 117.507 74.5703 116.998 75.2982C116.746 75.6664 116.46 76.0262 116.171 76.4026C116.005 76.5887 115.873 76.7624 115.679 76.961L115.402 77.2505L115.244 77.4118C114.803 77.8211 114.276 78.1276 113.702 78.3093C113.398 78.4087 113.089 78.4875 112.775 78.5451C112.265 78.6271 111.749 78.67 111.232 78.6733C110.339 78.6733 104.201 79.2234 101.066 78.1273L100.9 74.7481C104.027 74.9963 109.483 73.3046 110.186 73.2302C110.465 73.194 110.742 73.1373 111.013 73.0606C111.102 73.0345 111.188 72.9984 111.27 72.9531C111.299 72.9531 111.27 72.92 111.141 73.0069C111.095 73.0353 111.052 73.0685 111.013 73.1061L111.059 73.0482L111.187 72.8952C111.274 72.8042 111.373 72.6553 111.468 72.5353C111.654 72.2789 111.844 72.0018 112.035 71.7081C112.411 71.1208 112.775 70.4673 113.135 69.8097C113.851 68.4902 114.512 67.0922 115.157 65.6736C115.612 64.6726 116.961 61.6285 118.107 58.9028C118.272 58.5082 118.514 58.1504 118.819 57.8502C119.124 57.55 119.486 57.3134 119.883 57.1541C120.28 56.9948 120.705 56.916 121.132 56.9222C121.56 56.9285 121.983 57.0196 122.375 57.1904Z" fill="#407BFF"/>
<path id="Vector_156" opacity="0.2" d="M119.633 70.3391C119.691 72.1879 119.666 71.5799 119.732 73.528C125.134 66.0541 123.744 60.8633 123.744 60.8633L119.633 70.3391Z" fill="black"/>
<path id="Vector_157" opacity="0.6" d="M122.375 57.1904C122.765 57.3609 123.118 57.607 123.413 57.9145C123.708 58.222 123.939 58.5848 124.092 58.982C124.246 59.3793 124.32 59.803 124.309 60.2288C124.298 60.6546 124.203 61.0741 124.029 61.463C122.375 65.1855 119.604 71.0546 118.413 73.1144C117.962 73.8423 117.507 74.5703 116.998 75.2982C116.746 75.6664 116.46 76.0262 116.171 76.4026C116.005 76.5887 115.873 76.7624 115.679 76.961L115.402 77.2505L115.244 77.4118C114.803 77.8211 114.276 78.1276 113.702 78.3093C113.398 78.4087 113.089 78.4875 112.775 78.5451C112.265 78.6271 111.749 78.67 111.232 78.6733C110.339 78.6733 104.201 79.2234 101.066 78.1273L100.9 74.7481C104.027 74.9963 109.483 73.3046 110.186 73.2302C110.465 73.194 110.742 73.1373 111.013 73.0606C111.102 73.0345 111.188 72.9984 111.27 72.9531C111.299 72.9531 111.27 72.92 111.141 73.0069C111.095 73.0353 111.052 73.0685 111.013 73.1061L111.059 73.0482L111.187 72.8952C111.274 72.8042 111.373 72.6553 111.468 72.5353C111.654 72.2789 111.844 72.0018 112.035 71.7081C112.411 71.1208 112.775 70.4673 113.135 69.8097C113.851 68.4902 114.512 67.0922 115.157 65.6736C115.612 64.6726 116.961 61.6285 118.107 58.9028C118.272 58.5082 118.514 58.1504 118.819 57.8502C119.124 57.55 119.486 57.3134 119.883 57.1541C120.28 56.9948 120.705 56.916 121.132 56.9222C121.56 56.9285 121.983 57.0196 122.375 57.1904Z" fill="white"/>
<path id="Vector_158" d="M128.45 42.7153C128.127 43.0003 127.864 43.3467 127.676 43.7344C127.488 44.1221 127.378 44.5433 127.354 44.9736C127.301 46.1193 128.413 46.4295 129.377 45.8918C130.254 45.4037 131.325 44.2374 130.92 43.1785C130.514 42.1197 129.261 41.9956 128.45 42.7153Z" fill="#FAB27B"/>
<path id="Vector_159" d="M132.132 44.5023C132.049 46.3801 130.916 47.8567 129.038 47.774C127.16 47.6913 126.143 46.1195 126.242 44.2418C126.341 42.364 127.462 40.8874 129.34 40.9701C131.218 41.0528 132.206 42.6246 132.132 44.5023Z" fill="#407BFF"/>
<path id="Vector_160" opacity="0.7" d="M132.132 44.5023C132.049 46.3801 130.916 47.8567 129.038 47.774C127.16 47.6913 126.143 46.1195 126.242 44.2418C126.341 42.364 127.462 40.8874 129.34 40.9701C131.218 41.0528 132.206 42.6246 132.132 44.5023Z" fill="white"/>
<path id="Vector_161" d="M131.268 44.4644C131.206 45.7921 130.408 46.8303 129.08 46.7723C127.752 46.7144 127.049 45.606 127.111 44.2907C127.173 42.9754 127.967 41.9248 129.295 41.9828C130.623 42.0407 131.326 43.1285 131.268 44.4644Z" fill="#407BFF"/>
<path id="Vector_162" opacity="0.3" d="M131.268 44.4644C131.206 45.7921 130.408 46.8303 129.08 46.7723C127.752 46.7144 127.049 45.606 127.111 44.2907C127.173 42.9754 127.967 41.9248 129.295 41.9828C130.623 42.0407 131.326 43.1285 131.268 44.4644Z" fill="white"/>
<path id="Vector_163" d="M129.091 40.6464C129.476 39.0664 130.998 34.8559 134.154 34.2686C134.306 34.2427 134.462 34.2565 134.607 34.3087C134.752 34.3609 134.881 34.4496 134.981 34.5664L135.358 34.98C135.446 35.082 135.51 35.2025 135.546 35.3326C135.581 35.4627 135.588 35.5992 135.564 35.7319C135.54 35.8647 135.487 35.9905 135.408 36.1002C135.33 36.2098 135.228 36.3005 135.109 36.3656C133.132 37.4023 131.57 39.0855 130.684 41.1345C130.621 41.2807 130.509 41.3997 130.366 41.4695C130.223 41.5394 130.06 41.5555 129.906 41.515L129.555 41.4199C129.393 41.3742 129.256 41.2688 129.17 41.125C129.084 40.9813 129.056 40.8101 129.091 40.6464Z" fill="#407BFF"/>
<path id="Vector_164" opacity="0.2" d="M129.091 40.6464C129.476 39.0664 130.998 34.8559 134.154 34.2686C134.306 34.2427 134.462 34.2565 134.607 34.3087C134.752 34.3609 134.881 34.4496 134.981 34.5664L135.358 34.98C135.446 35.082 135.51 35.2025 135.546 35.3326C135.581 35.4627 135.588 35.5992 135.564 35.7319C135.54 35.8647 135.487 35.9905 135.408 36.1002C135.33 36.2098 135.228 36.3005 135.109 36.3656C133.132 37.4023 131.57 39.0855 130.684 41.1345C130.621 41.2807 130.509 41.3997 130.366 41.4695C130.223 41.5394 130.06 41.5555 129.906 41.515L129.555 41.4199C129.393 41.3742 129.256 41.2688 129.17 41.125C129.084 40.9813 129.056 40.8101 129.091 40.6464Z" fill="white"/>
<path id="Vector_165" d="M106.877 86.8672H104.188V98.3407H106.877V86.8672Z" fill="#263238"/>
<path id="Vector_166" d="M106.877 86.8672H104.188V98.3407H106.877V86.8672Z" fill="#263238"/>
<path id="Vector_167" d="M114.665 90.3697C108.747 88.3027 102.304 88.3027 96.3872 90.3697C95.792 90.5933 95.1353 90.5905 94.5421 90.3617C93.9488 90.133 93.4603 89.6942 93.1693 89.1289C92.6192 87.9708 93.3554 86.4694 94.8485 85.9482C101.759 83.5329 109.284 83.5329 116.195 85.9482C117.684 86.4652 118.42 87.9708 117.874 89.1289C117.581 89.6904 117.094 90.1261 116.503 90.3545C115.913 90.5828 115.259 90.5882 114.665 90.3697Z" fill="#263238"/>
<path id="Vector_168" opacity="0.4" d="M114.665 90.3697C108.747 88.3027 102.304 88.3027 96.3872 90.3697C95.792 90.5933 95.1353 90.5905 94.5421 90.3617C93.9488 90.133 93.4603 89.6942 93.1693 89.1289C92.6192 87.9708 93.3554 86.4694 94.8485 85.9482C101.759 83.5329 109.284 83.5329 116.195 85.9482C117.684 86.4652 118.42 87.9708 117.874 89.1289C117.581 89.6904 117.094 90.1261 116.503 90.3545C115.913 90.5828 115.259 90.5882 114.665 90.3697Z" fill="#263238"/>
<path id="Vector_169" d="M111.862 144.437C111.862 144.851 111.739 145.255 111.509 145.599C111.279 145.944 110.952 146.212 110.57 146.37C110.187 146.529 109.766 146.57 109.36 146.489C108.954 146.409 108.581 146.209 108.289 145.916C107.996 145.624 107.797 145.251 107.716 144.845C107.635 144.439 107.677 144.018 107.835 143.636C107.993 143.253 108.262 142.926 108.606 142.696C108.95 142.466 109.355 142.344 109.769 142.344C110.324 142.344 110.856 142.564 111.249 142.957C111.641 143.349 111.862 143.882 111.862 144.437Z" fill="#263238"/>
<path id="Vector_170" d="M142.592 144.437C142.592 144.851 142.715 145.256 142.945 145.6C143.175 145.944 143.502 146.212 143.885 146.371C144.268 146.529 144.689 146.57 145.095 146.489C145.501 146.408 145.874 146.208 146.166 145.915C146.459 145.622 146.658 145.249 146.738 144.842C146.818 144.436 146.776 144.015 146.617 143.633C146.458 143.251 146.189 142.924 145.845 142.695C145.5 142.465 145.095 142.343 144.681 142.344C144.405 142.341 144.132 142.393 143.877 142.498C143.622 142.602 143.391 142.756 143.196 142.951C143.002 143.146 142.848 143.378 142.744 143.633C142.64 143.888 142.589 144.161 142.592 144.437Z" fill="#263238"/>
<path id="Vector_171" d="M124.468 143.767C124.468 144.182 124.591 144.587 124.822 144.932C125.053 145.277 125.382 145.545 125.766 145.703C126.149 145.86 126.572 145.9 126.978 145.817C127.385 145.735 127.758 145.533 128.049 145.238C128.341 144.943 128.538 144.567 128.616 144.16C128.694 143.752 128.649 143.331 128.487 142.949C128.325 142.567 128.053 142.242 127.705 142.015C127.358 141.788 126.951 141.669 126.536 141.674C125.985 141.681 125.459 141.904 125.072 142.296C124.685 142.687 124.468 143.216 124.468 143.767Z" fill="#263238"/>
<path id="Vector_172" d="M149.242 141.625C149.196 141.863 149.067 142.077 148.877 142.229C148.688 142.38 148.451 142.46 148.208 142.452L126.39 142.154L105.954 142.618C105.7 142.623 105.453 142.533 105.262 142.365C105.072 142.198 104.95 141.965 104.922 141.713C104.894 141.46 104.962 141.206 105.111 141.001C105.261 140.796 105.482 140.654 105.73 140.603L116.898 138.436C118.056 138.22 119.231 138.111 120.409 138.109H132.404C133.581 138.11 134.755 138.22 135.911 138.436L148.452 140.446C148.712 140.5 148.94 140.654 149.088 140.874C149.236 141.095 149.291 141.364 149.242 141.625Z" fill="#263238"/>
<path id="Vector_173" d="M130.097 119.893H122.677V141.255H130.097V119.893Z" fill="#263238"/>
<path id="Vector_174" d="M129.034 106.361H123.744V120.002H129.034V106.361Z" fill="#263238"/>
<path id="Vector_175" opacity="0.2" d="M123.744 108.888L129.034 110.22V106.361H123.744V108.888Z" fill="black"/>
<path id="Vector_176" d="M124.261 96.6523V106.298H96.0944C95.4827 106.299 94.8816 106.138 94.3524 105.831C93.8232 105.525 93.3849 105.083 93.0822 104.551C92.7794 104.02 92.6231 103.418 92.6291 102.806C92.6351 102.194 92.8033 101.595 93.1164 101.07C93.912 99.725 95.0438 98.6106 96.4007 97.8361C97.7576 97.0616 99.2927 96.6536 100.855 96.6523H124.261Z" fill="#407BFF"/>
<path id="Vector_177" opacity="0.2" d="M124.261 96.6523V106.298H96.0944C95.4827 106.299 94.8816 106.138 94.3524 105.831C93.8232 105.525 93.3849 105.083 93.0822 104.551C92.7794 104.02 92.6231 103.418 92.6291 102.806C92.6351 102.194 92.8033 101.595 93.1164 101.07C93.912 99.725 95.0438 98.6106 96.4007 97.8361C97.7576 97.0616 99.2927 96.6536 100.855 96.6523H124.261Z" fill="white"/>
<path id="Vector_178" d="M129.932 60.9355C129.861 61.2458 129.816 61.5611 129.795 61.8786L126.697 106.135H122.425L125.519 61.8786C125.517 61.8441 125.517 61.8096 125.519 61.7752L129.932 60.9355Z" fill="#407BFF"/>
<path id="Vector_179" opacity="0.2" d="M129.932 60.9355C129.861 61.2458 129.816 61.5611 129.795 61.8786L126.697 106.135H122.425L125.519 61.8786C125.517 61.8441 125.517 61.8096 125.519 61.7752L129.932 60.9355Z" fill="white"/>
<path id="Vector_180" d="M149.577 106.307V106.356H148.857C149.098 106.357 149.339 106.34 149.577 106.307Z" fill="#263238"/>
<path id="Vector_181" d="M159.091 60.6533L159.141 55.3922C159.168 53.9359 158.648 52.5222 157.685 51.4298L154.579 47.9265L153.466 39.1622C153.388 38.5072 153.07 37.9044 152.574 37.4704C152.077 37.0364 151.437 36.8021 150.778 36.8129H143.06C142.438 36.8204 141.831 37.0106 141.317 37.3599C140.802 37.7093 140.401 38.2022 140.164 38.7775L136.272 48.2037L129.837 52.0047C129.024 52.4813 128.318 53.1196 127.762 53.8802C127.207 54.6407 126.813 55.5073 126.606 56.4262L125.432 61.8031H125.523L129.923 60.9759C129.853 61.2861 129.807 61.6015 129.787 61.9189L126.689 106.175H150.914C151.156 106.175 151.398 106.159 151.638 106.125C152.854 105.939 153.972 105.348 154.809 104.447C155.647 103.546 156.156 102.389 156.254 101.162L159.025 61.5012C159.044 61.2175 159.044 60.9329 159.025 60.6491L159.091 60.6533ZM138.845 57.3072L131.313 58.0186L130.986 58.0517L132.029 54.627L137.203 52.2281L138.928 51.4257L139.201 52.2281L139.246 52.3646L139.498 53.1049L138.845 57.3072ZM153.644 57.3982L152.722 57.1583C152.722 56.8688 152.688 56.571 152.672 56.2773C152.577 54.6229 152.498 53.0925 152.498 53.0925L152.61 52.5507L152.842 51.4133L156.183 54.6311V58.0558L153.644 57.3982Z" fill="#407BFF"/>
</g>
</g>
</svg>
