<?xml version="1.0" standalone="no"?>
<!DOCTYPE svg PUBLIC "-//W3C//DTD SVG 20010904//EN"
 "http://www.w3.org/TR/2001/REC-SVG-20010904/DTD/svg10.dtd">
<svg version="1.0" xmlns="http://www.w3.org/2000/svg"
 width="450.000000pt" height="450.000000pt" viewBox="0 0 450.000000 450.000000"
 preserveAspectRatio="xMidYMid meet">
<metadata>
Created by potrace 1.14, written by Peter Selinger 2001-2017
</metadata>
<g transform="translate(0.000000,450.000000) scale(0.100000,-0.100000)"
fill="#000000" stroke="none">
<path d="M2075 3635 c-38 -7 -96 -14 -127 -14 -32 -1 -58 -5 -58 -11 0 -6 -27
-10 -60 -10 -33 0 -60 -4 -60 -10 0 -5 -18 -10 -39 -10 -22 0 -42 -4 -45 -9
-4 -5 -24 -12 -46 -16 -22 -4 -42 -11 -46 -16 -3 -5 -18 -9 -35 -9 -16 0 -29
-4 -29 -10 0 -5 -13 -10 -30 -10 -16 0 -30 -4 -30 -10 0 -5 -11 -10 -25 -10
-14 0 -25 -4 -25 -8 0 -4 -22 -16 -50 -27 -27 -11 -50 -23 -50 -27 0 -4 -13
-8 -30 -8 -16 0 -30 -4 -30 -9 0 -5 -25 -21 -55 -37 -30 -16 -55 -32 -55 -36
0 -5 -9 -8 -20 -8 -11 0 -20 -4 -20 -10 0 -5 -5 -10 -11 -10 -6 0 -17 -6 -24
-12 -33 -30 -45 -38 -55 -38 -5 0 -10 -4 -10 -10 0 -5 -7 -10 -16 -10 -9 0
-31 -16 -50 -35 -18 -19 -39 -35 -45 -35 -6 0 -35 -25 -64 -55 -30 -30 -57
-55 -60 -55 -8 0 -55 -47 -55 -55 0 -8 -27 -35 -35 -35 -8 0 -55 -47 -55 -55
0 -3 -10 -16 -23 -29 -40 -41 -67 -76 -67 -86 0 -6 -3 -10 -7 -10 -5 0 -21
-21 -38 -45 -16 -25 -33 -45 -37 -45 -5 0 -8 -9 -8 -20 0 -11 -4 -20 -10 -20
-5 0 -10 -5 -10 -11 0 -6 -6 -17 -13 -24 -31 -35 -37 -45 -37 -60 0 -8 -4 -15
-10 -15 -5 0 -10 -7 -10 -15 0 -8 -4 -15 -10 -15 -5 0 -10 -6 -10 -12 0 -16
-53 -122 -62 -126 -5 -2 -8 -17 -8 -33 0 -16 -4 -29 -10 -29 -5 0 -10 -7 -10
-15 0 -15 -3 -23 -33 -83 -9 -19 -17 -45 -17 -58 0 -13 -4 -24 -10 -24 -5 0
-10 -16 -10 -35 0 -19 -4 -35 -9 -35 -4 0 -11 -22 -14 -49 -3 -26 -15 -65 -26
-85 -15 -26 -21 -55 -21 -96 0 -33 -4 -60 -10 -60 -6 0 -10 -38 -10 -95 0 -57
-4 -95 -10 -95 -6 0 -10 -43 -10 -110 0 -67 4 -110 10 -110 6 0 10 -40 10
-100 0 -60 4 -100 10 -100 6 0 10 -20 10 -45 0 -41 2 -45 25 -45 14 0 25 4 25
9 0 5 30 12 67 15 76 6 120 11 276 32 124 16 272 18 372 3 97 -14 228 -29 303
-35 34 -3 62 -10 62 -15 0 -5 25 -9 55 -9 30 0 55 -4 55 -8 0 -8 100 -30 178
-39 23 -3 42 -9 42 -14 0 -5 23 -9 50 -9 28 0 50 -4 50 -9 0 -5 19 -11 43 -14
48 -6 123 -25 149 -38 10 -5 36 -9 58 -9 22 0 40 -4 40 -10 0 -5 20 -10 45
-10 25 0 45 -4 45 -9 0 -5 21 -11 48 -14 26 -3 74 -13 107 -22 33 -10 81 -20
108 -22 26 -3 47 -9 47 -14 0 -5 25 -9 55 -9 30 0 55 -4 55 -9 0 -5 24 -12 53
-14 28 -3 93 -13 142 -22 106 -19 305 -36 425 -36 186 0 480 29 521 51 10 6
36 10 58 10 23 0 41 5 41 10 0 6 20 10 45 10 25 0 45 5 45 10 0 6 12 10 26 10
30 0 127 31 132 43 2 4 17 7 33 7 16 0 29 5 29 10 0 6 11 10 25 10 14 0 25 5
25 10 0 6 11 10 25 10 14 0 25 5 25 10 0 6 9 10 19 10 11 0 26 7 35 15 8 8 24
15 35 15 12 0 21 5 21 10 0 6 7 10 15 10 8 0 15 5 15 10 0 6 7 10 16 10 8 0
22 6 29 13 31 27 44 37 50 37 20 0 35 34 35 79 0 28 5 51 10 51 6 0 10 98 10
275 0 177 -4 275 -10 275 -6 0 -10 28 -10 65 0 37 -4 65 -10 65 -5 0 -10 18
-10 41 0 23 -7 47 -15 55 -8 9 -15 26 -15 40 0 13 -4 24 -10 24 -5 0 -10 20
-10 45 0 25 -4 45 -10 45 -5 0 -10 8 -10 19 0 10 -7 32 -15 47 -8 16 -15 37
-15 47 0 9 -4 17 -10 17 -5 0 -10 11 -10 25 0 14 -4 25 -10 25 -5 0 -10 11
-10 25 0 14 -4 25 -10 25 -5 0 -10 9 -10 19 0 11 -7 26 -15 35 -8 8 -15 22
-15 30 0 9 -4 16 -10 16 -5 0 -10 7 -10 15 0 8 -4 15 -10 15 -5 0 -10 9 -10
20 0 11 -4 20 -10 20 -5 0 -10 6 -10 14 0 18 -32 76 -42 76 -5 0 -8 7 -8 15 0
8 -4 15 -10 15 -5 0 -10 7 -10 15 0 9 -10 27 -22 40 -36 38 -48 54 -48 62 0 5
-9 15 -20 23 -11 8 -20 18 -20 23 0 9 -8 19 -67 84 -24 25 -43 50 -43 55 0 4
-5 8 -11 8 -11 0 -39 25 -39 35 0 8 -47 55 -55 55 -4 0 -27 20 -52 45 -24 25
-49 45 -54 45 -5 0 -26 16 -46 35 -20 19 -42 35 -48 35 -6 0 -17 9 -25 20 -8
11 -18 20 -23 20 -5 0 -15 6 -22 13 -33 29 -45 37 -55 37 -5 0 -10 5 -10 10 0
6 -9 10 -20 10 -11 0 -20 5 -20 10 0 6 -9 10 -20 10 -11 0 -20 3 -20 8 0 10
-58 42 -76 42 -8 0 -14 5 -14 10 0 6 -9 10 -19 10 -11 0 -21 3 -23 8 -4 9
-128 62 -145 62 -7 0 -13 5 -13 10 0 6 -11 10 -25 10 -14 0 -25 5 -25 10 0 6
-16 10 -35 10 -19 0 -35 4 -35 8 0 8 -77 29 -142 39 -21 3 -38 9 -38 14 0 5
-25 9 -55 9 -30 0 -55 4 -55 9 0 5 -37 11 -82 14 -46 4 -105 11 -133 16 -70
14 -237 12 -320 -4z m59 -51 c3 -9 6 -54 6 -100 0 -49 4 -84 10 -84 6 0 10
-52 10 -135 0 -83 4 -135 10 -135 6 0 11 -28 11 -62 1 -35 5 -76 9 -93 10 -39
11 391 1 510 -8 103 -6 115 20 115 18 0 19 -11 19 -250 0 -160 4 -250 10 -250
6 0 10 -38 10 -95 0 -57 4 -95 10 -95 6 0 10 104 10 293 0 347 4 397 33 397
19 0 20 -5 13 -207 -3 -115 -8 -266 -11 -338 -3 -80 -1 -120 4 -105 5 14 9 40
10 58 1 17 6 32 11 32 6 0 10 52 10 135 0 83 4 135 10 135 6 0 10 36 10 88 0
109 17 202 37 202 12 0 14 -15 10 -77 -10 -170 -28 -370 -37 -410 -6 -23 -10
-89 -10 -147 0 -64 -4 -106 -10 -106 -6 0 -10 -52 -10 -135 l0 -135 29 0 c29
0 41 14 41 51 0 10 5 19 10 19 6 0 10 18 10 40 0 22 5 40 10 40 6 0 10 8 10
18 0 9 12 49 25 87 14 39 25 78 25 88 0 9 5 17 10 17 6 0 10 20 10 45 0 25 4
45 9 45 5 0 11 17 14 38 10 65 31 142 39 142 4 0 8 11 8 25 0 14 5 25 10 25 6
0 10 -18 10 -40 0 -22 -4 -40 -9 -40 -5 0 -12 -30 -15 -67 -2 -38 -13 -133
-22 -213 -10 -80 -18 -194 -18 -255 l-1 -110 33 -3 c31 -3 32 -2 32 32 0 20 5
36 10 36 6 0 10 13 10 29 0 17 4 32 9 35 5 4 12 24 16 46 4 22 11 42 16 46 5
3 9 18 9 35 0 16 5 29 10 29 6 0 10 16 10 35 0 19 5 35 10 35 6 0 10 16 10 35
0 19 5 35 10 35 6 0 10 10 10 23 1 12 7 33 15 47 8 14 14 37 15 53 0 15 5 27
10 27 6 0 10 16 10 35 0 19 5 35 10 35 6 0 10 16 10 35 0 19 5 35 10 35 6 0
10 10 10 23 1 12 7 33 15 47 8 14 14 40 15 58 0 17 5 32 10 32 6 0 10 13 10
29 0 17 6 31 16 35 28 11 34 -4 19 -41 -8 -19 -15 -46 -15 -59 0 -13 -4 -24
-10 -24 -5 0 -10 -16 -10 -35 0 -19 -4 -35 -10 -35 -5 0 -10 -15 -10 -33 0
-19 -3 -37 -7 -41 -14 -13 -43 -101 -43 -128 0 -16 -4 -28 -10 -28 -5 0 -10
-16 -10 -35 0 -19 -4 -35 -10 -35 -5 0 -10 -13 -10 -28 0 -15 -5 -33 -11 -39
-6 -6 -9 -23 -6 -39 l4 -29 8 33 c4 17 11 32 16 32 5 0 9 11 9 25 0 14 5 25
10 25 6 0 10 11 10 24 0 13 8 39 17 58 30 60 33 68 33 83 0 8 5 15 10 15 6 0
10 16 10 35 0 19 5 35 10 35 6 0 10 7 10 15 0 8 11 40 25 71 14 31 25 65 25
75 0 11 5 19 10 19 6 0 10 11 10 25 0 14 2 25 4 25 2 0 11 3 20 6 12 4 16 0
16 -15 0 -12 -4 -21 -10 -21 -5 0 -10 -16 -10 -35 0 -19 -4 -35 -10 -35 -5 0
-10 -13 -10 -30 0 -16 -4 -30 -10 -30 -5 0 -10 -11 -10 -25 0 -14 -4 -25 -9
-25 -5 0 -12 -16 -15 -35 -4 -19 -11 -35 -16 -35 -6 0 -10 -13 -10 -30 0 -16
-4 -30 -10 -30 -5 0 -10 -11 -10 -25 0 -14 -4 -25 -10 -25 -5 0 -10 -12 -10
-27 0 -16 -7 -37 -15 -47 -8 -11 -15 -28 -15 -38 0 -10 -4 -18 -10 -18 -5 0
-10 -11 -10 -25 0 -14 -4 -25 -10 -25 -5 0 -10 -16 -10 -35 0 -19 -4 -35 -10
-35 -5 0 -10 -9 -10 -20 0 -11 5 -20 10 -20 6 0 10 9 10 20 0 11 5 20 10 20 6
0 10 11 10 25 0 14 5 25 10 25 6 0 10 9 10 19 0 11 7 26 15 35 8 8 15 24 15
35 0 12 5 21 10 21 6 0 10 11 10 25 0 14 5 25 10 25 6 0 10 7 10 15 0 18 32
89 43 93 4 2 7 15 7 28 0 13 5 24 10 24 6 0 10 14 10 30 0 17 4 30 8 30 4 0
16 20 26 45 11 25 23 45 28 45 4 0 8 11 8 25 0 14 5 25 10 25 6 0 10 9 10 20
0 13 7 20 20 20 21 0 27 -15 10 -25 -5 -3 -10 -15 -10 -26 0 -10 -4 -19 -10
-19 -5 0 -10 -13 -10 -30 0 -16 -4 -30 -10 -30 -5 0 -10 -11 -10 -25 0 -14 -4
-25 -8 -25 -10 0 -42 -71 -42 -93 0 -10 -4 -17 -10 -17 -5 0 -10 -11 -10 -25
0 -14 -4 -25 -10 -25 -5 0 -10 -8 -10 -17 0 -10 -7 -27 -15 -37 -8 -11 -15
-28 -15 -38 0 -10 -4 -18 -10 -18 -5 0 -10 -9 -10 -20 0 -11 -4 -20 -10 -20
-5 0 -10 -11 -10 -25 0 -14 -4 -25 -10 -25 -5 0 -10 -11 -10 -25 0 -14 -4 -25
-10 -25 -5 0 -10 -10 -9 -22 l0 -23 11 23 c6 12 15 22 20 22 4 0 8 11 8 25 0
14 3 25 8 25 4 0 16 20 27 45 11 25 23 45 28 45 4 0 7 9 7 20 0 11 5 20 10 20
6 0 10 11 10 25 0 14 4 25 8 25 4 0 21 26 37 58 17 31 33 59 38 60 4 2 7 12 7
23 0 10 5 19 10 19 6 0 10 9 10 20 0 11 4 20 9 20 5 0 12 11 15 25 4 14 11 25
16 25 6 0 10 9 10 20 0 11 5 20 10 20 6 0 10 9 10 21 0 12 5 19 13 16 14 -5
11 -50 -3 -55 -6 -2 -10 -15 -10 -28 0 -13 -4 -24 -10 -24 -5 0 -10 -9 -10
-20 0 -11 -4 -20 -10 -20 -5 0 -12 -11 -16 -25 -3 -14 -10 -25 -15 -25 -5 0
-9 -9 -9 -20 0 -11 -4 -20 -10 -20 -5 0 -10 -11 -10 -25 0 -14 -4 -25 -10 -25
-5 0 -10 -9 -10 -20 0 -11 -4 -20 -10 -20 -5 0 -12 -11 -16 -25 -3 -14 -10
-25 -15 -25 -5 0 -9 -9 -9 -20 0 -11 -4 -20 -10 -20 -5 0 -10 -11 -10 -25 0
-14 -4 -25 -10 -25 -5 0 -10 -9 -10 -20 0 -11 -4 -20 -10 -20 -5 0 -12 -11
-16 -25 -3 -14 -10 -25 -15 -25 -5 0 -9 -9 -9 -20 0 -11 -4 -20 -10 -20 -5 0
-10 -11 -10 -25 0 -14 -4 -25 -10 -25 -5 0 -10 -9 -10 -20 0 -11 -3 -20 -7
-20 -11 0 -43 -58 -43 -76 0 -8 -4 -14 -10 -14 -5 0 -10 -9 -10 -20 0 -11 -4
-20 -10 -20 -5 0 -10 -11 -10 -25 0 -14 -4 -25 -9 -25 -20 0 -21 -34 -2 -51
18 -17 51 -17 51 0 0 4 16 24 35 44 19 20 35 39 35 42 0 5 11 18 68 80 12 13
22 27 22 30 0 3 10 17 23 30 33 35 47 53 47 60 0 3 14 20 31 37 17 18 38 45
47 60 9 16 20 28 24 28 4 0 8 7 8 16 0 9 16 31 35 50 19 18 35 40 35 48 0 9 5
16 10 16 6 0 10 -9 10 -20 0 -11 -4 -20 -10 -20 -5 0 -10 -5 -10 -10 0 -12
-52 -94 -62 -98 -5 -2 -8 -15 -8 -28 0 -13 -4 -24 -10 -24 -5 0 -10 -9 -10
-20 0 -11 -3 -20 -7 -20 -11 0 -43 -58 -43 -76 0 -8 -4 -14 -10 -14 -5 0 -10
-7 -10 -15 0 -8 -4 -15 -10 -15 -5 0 -10 -9 -10 -20 0 -11 -3 -20 -7 -20 -5 0
-16 -20 -26 -45 -11 -25 -23 -45 -28 -45 -5 0 -9 -13 -9 -30 0 -16 -3 -30 -7
-30 -5 0 -16 -20 -26 -45 -17 -40 -17 -46 -4 -60 19 -18 57 -20 57 -2 0 7 20
35 45 60 25 26 45 50 45 53 0 6 15 24 48 59 12 13 22 27 22 30 0 5 11 18 68
80 12 13 22 27 22 30 0 3 10 16 23 29 32 33 67 75 67 81 0 3 16 22 35 42 19
20 35 41 35 46 0 4 25 33 55 62 30 30 55 60 55 66 0 6 16 26 35 45 19 18 35
37 35 43 0 6 2 11 4 11 2 0 11 3 20 6 24 9 20 -23 -6 -50 -13 -12 -32 -35 -43
-50 -11 -16 -30 -39 -42 -52 -13 -13 -23 -26 -23 -29 0 -3 -10 -17 -22 -30
-34 -36 -48 -53 -48 -60 0 -3 -10 -16 -22 -29 -35 -35 -68 -75 -68 -82 0 -3
-16 -21 -35 -40 -19 -18 -35 -39 -35 -47 0 -7 -9 -19 -20 -27 -11 -8 -20 -20
-20 -27 0 -7 -4 -13 -10 -13 -5 0 -10 -5 -10 -10 0 -6 8 -5 20 2 11 7 20 16
20 21 0 12 47 57 60 57 5 0 10 5 10 10 0 6 15 26 33 45 59 64 77 84 77 90 0
10 28 35 39 35 6 0 11 4 11 9 0 5 35 45 78 89 42 44 87 91 99 106 13 14 27 26
33 26 23 0 7 -33 -35 -74 -25 -25 -45 -47 -45 -50 0 -3 -26 -33 -57 -66 -90
-93 -123 -129 -123 -134 0 -3 -45 -50 -100 -106 -55 -55 -100 -103 -100 -107
0 -3 -7 -15 -17 -25 -9 -11 -11 -18 -5 -18 7 0 12 5 12 10 0 6 5 10 11 10 5 0
64 54 129 120 66 66 124 120 130 120 5 0 10 5 10 10 0 11 45 60 55 60 8 0 55
47 55 55 0 8 27 35 35 35 8 0 55 47 55 55 0 14 30 35 49 35 12 0 21 -3 21 -6
0 -3 -106 -111 -235 -240 -129 -128 -235 -239 -235 -246 0 -7 11 -1 24 15 13
15 29 27 36 27 7 0 32 20 56 45 23 25 45 45 49 45 3 0 21 15 40 33 44 42 63
57 70 57 10 0 35 27 35 38 0 5 11 15 25 22 14 7 25 17 25 22 0 4 9 8 20 8 11
0 20 7 20 15 0 8 3 15 8 15 4 0 26 18 50 40 37 35 72 52 72 34 0 -8 -123 -126
-155 -149 -16 -11 -55 -46 -88 -77 -33 -32 -64 -58 -68 -58 -5 0 -34 -25 -64
-55 -29 -30 -56 -55 -60 -55 -7 0 -34 -24 -115 -102 -33 -32 -62 -58 -65 -58
-3 0 -21 -15 -40 -32 -49 -47 -63 -58 -75 -58 -17 0 -11 -36 9 -54 18 -17 21
-17 51 1 18 10 41 22 51 28 11 5 19 13 19 17 0 5 11 8 25 8 14 0 25 5 25 10 0
6 9 10 20 10 11 0 20 3 20 8 0 10 58 42 76 42 8 0 14 5 14 10 0 6 9 10 20 10
11 0 20 4 20 8 0 5 16 17 35 28 19 10 35 22 35 26 0 5 9 8 20 8 11 0 20 5 20
10 0 6 7 10 15 10 8 0 15 5 15 10 0 6 9 10 20 10 11 0 20 4 20 8 0 5 16 17 35
28 19 10 35 22 35 26 0 5 9 8 20 8 11 0 20 5 20 10 0 6 7 10 15 10 8 0 15 -4
15 -10 0 -5 -5 -10 -10 -10 -11 0 -25 -10 -65 -47 -13 -13 -29 -23 -35 -23 -5
0 -10 -4 -10 -10 0 -5 -7 -10 -15 -10 -8 0 -39 -25 -69 -55 -29 -30 -58 -55
-63 -55 -5 0 -32 -21 -59 -47 -28 -27 -63 -57 -78 -68 -14 -11 -26 -25 -26
-32 0 -7 -6 -13 -14 -13 -7 0 -36 -22 -64 -49 -49 -47 -50 -50 -39 -80 7 -19
18 -31 29 -31 10 0 18 3 18 8 0 4 16 16 35 26 19 11 35 23 35 28 0 4 11 8 25
8 14 0 25 5 25 10 0 6 9 10 20 10 11 0 20 3 20 8 0 10 58 42 76 42 8 0 14 5
14 10 0 6 9 10 20 10 11 0 20 5 20 10 0 6 7 10 15 10 8 0 15 4 15 9 0 5 20 17
45 28 25 10 45 21 45 26 0 4 9 7 20 7 11 0 20 5 20 10 0 6 6 10 14 10 7 0 19
7 26 15 7 8 21 15 31 15 11 0 19 5 19 10 0 6 7 10 15 10 8 0 15 5 15 10 0 6 9
10 20 10 11 0 20 5 20 10 0 6 6 10 14 10 18 0 76 32 76 43 0 4 9 7 20 7 11 0
20 5 20 10 0 6 7 10 15 10 8 0 15 5 15 10 0 6 9 10 20 10 11 0 20 4 20 9 0 12
39 21 46 10 6 -11 -19 -39 -35 -39 -6 0 -11 -4 -11 -10 0 -5 -9 -10 -20 -10
-11 0 -20 -4 -20 -9 0 -5 -11 -12 -25 -15 -14 -4 -25 -11 -25 -16 0 -6 -9 -10
-20 -10 -11 0 -20 -4 -20 -10 0 -5 -7 -10 -15 -10 -8 0 -15 -4 -15 -10 0 -5
-9 -10 -20 -10 -11 0 -20 -4 -20 -10 0 -5 -11 -12 -25 -16 -14 -3 -25 -10 -25
-15 0 -5 -9 -9 -20 -9 -11 0 -20 -4 -20 -10 0 -5 -9 -10 -20 -10 -11 0 -20 -4
-20 -10 0 -5 -6 -10 -14 -10 -8 0 -21 -6 -28 -13 -7 -7 -28 -20 -45 -28 -18
-7 -33 -17 -33 -21 0 -5 -9 -8 -20 -8 -11 0 -20 -4 -20 -9 0 -5 -10 -12 -22
-16 -22 -7 -22 -7 -3 -12 10 -3 21 0 23 6 2 6 15 11 28 11 13 0 24 5 24 10 0
6 9 10 20 10 11 0 20 5 20 10 0 6 7 10 15 10 18 0 89 32 93 43 2 4 12 7 23 7
10 0 19 5 19 10 0 6 11 10 25 10 14 0 25 4 25 8 0 4 20 16 45 26 25 11 45 23
45 28 0 4 11 8 25 8 14 0 25 5 25 10 0 6 9 10 20 10 11 0 20 5 20 10 0 6 9 10
21 10 11 0 27 7 35 15 18 17 54 20 54 4 0 -17 -27 -39 -49 -39 -12 0 -21 -4
-21 -10 0 -5 -9 -10 -19 -10 -11 0 -21 -3 -23 -7 -4 -11 -75 -43 -93 -43 -8 0
-15 -4 -15 -10 0 -5 -9 -10 -20 -10 -11 0 -20 -4 -20 -8 0 -4 -22 -16 -50 -27
-27 -11 -50 -23 -50 -27 0 -4 -9 -8 -20 -8 -11 0 -20 -4 -20 -10 0 -5 -11 -10
-25 -10 -14 0 -25 -4 -25 -10 0 -5 -9 -10 -20 -10 -11 0 -20 -4 -20 -9 0 -5
-11 -12 -25 -15 -14 -4 -25 -11 -25 -16 0 -6 -11 -10 -25 -10 -14 0 -25 -4
-25 -10 0 -5 -9 -10 -20 -10 -11 0 -20 -4 -20 -10 0 -5 11 -10 25 -10 14 0 25
5 25 10 0 6 11 10 25 10 14 0 25 5 25 10 0 6 7 10 15 10 18 0 89 32 93 43 2 4
12 7 23 7 10 0 19 5 19 10 0 6 16 10 35 10 19 0 35 5 35 10 0 6 8 10 18 10 9
0 26 7 36 15 11 8 28 15 38 15 10 0 18 5 18 10 0 6 11 10 25 10 14 0 25 5 25
10 0 6 14 10 30 10 17 0 30 5 30 10 0 6 6 10 13 10 7 0 30 9 52 20 22 11 45
20 52 20 21 0 15 -31 -7 -37 -11 -3 -20 -9 -20 -14 0 -5 -13 -9 -30 -9 -16 0
-30 -4 -30 -10 0 -5 -11 -10 -25 -10 -14 0 -25 -4 -25 -9 0 -5 -13 -12 -30
-16 -16 -4 -32 -11 -35 -16 -4 -5 -15 -9 -26 -9 -10 0 -19 -4 -19 -10 0 -5
-11 -10 -25 -10 -14 0 -25 -4 -25 -10 0 -5 -7 -10 -17 -10 -22 0 -93 -32 -93
-42 0 -4 -13 -8 -30 -8 -16 0 -30 -4 -30 -10 0 -5 -11 -10 -25 -10 -14 0 -25
-4 -25 -10 0 -5 -9 -10 -19 -10 -11 0 -23 -5 -27 -11 -5 -8 2 -10 25 -5 17 3
45 9 61 12 17 4 30 10 30 15 0 5 14 9 30 9 17 0 30 5 30 10 0 6 7 10 16 10 23
0 178 53 182 62 2 5 10 8 18 8 8 0 14 5 14 10 0 6 18 10 40 10 35 0 77 13 132
41 26 13 28 12 28 -16 0 -21 -5 -25 -30 -25 -16 0 -30 -4 -30 -10 0 -5 -7 -10
-15 -10 -8 0 -15 -3 -15 -6 0 -13 60 -64 74 -64 9 0 16 -4 16 -10 0 -5 -9 -10
-20 -10 -11 0 -20 4 -20 8 0 5 -16 17 -35 28 -19 10 -35 22 -35 26 0 5 -11 8
-24 8 -13 0 -27 6 -30 13 -5 10 -7 10 -12 0 -3 -7 -14 -13 -25 -13 -10 0 -19
-4 -19 -10 0 -5 -5 -10 -10 -10 -10 0 -22 -8 -55 -37 -7 -7 -17 -13 -22 -13
-5 0 -15 -9 -23 -20 -8 -11 -20 -20 -28 -20 -7 0 -23 -11 -36 -25 -13 -14 -30
-25 -37 -25 -8 0 -21 -9 -29 -20 -8 -11 -20 -20 -27 -20 -7 0 -13 -4 -13 -10
0 -16 -27 -12 -72 10 -23 11 -50 20 -60 20 -10 0 -18 5 -18 10 0 6 -11 10 -25
10 -14 0 -25 5 -25 10 0 6 -18 10 -40 10 -22 0 -40 -4 -40 -10 0 -5 -7 -10
-15 -10 -8 0 -15 -4 -15 -10 0 -5 -9 -10 -20 -10 -11 0 -20 -4 -20 -10 0 -5
-5 -10 -10 -10 -10 0 -22 -8 -55 -37 -7 -7 -18 -13 -24 -13 -6 0 -11 -4 -11
-10 0 -5 -9 -10 -20 -10 -11 0 -20 -3 -20 -8 0 -4 -16 -16 -35 -26 -19 -11
-35 -23 -35 -28 0 -4 -9 -8 -20 -8 -11 0 -20 -4 -20 -10 0 -5 -5 -10 -10 -10
-11 0 -25 -10 -65 -47 -13 -13 -31 -23 -40 -23 -9 0 -27 -11 -40 -24 -36 -36
-63 -42 -84 -17 -10 12 -26 21 -35 21 -9 0 -16 5 -16 10 0 6 -5 10 -10 10 -6
0 -22 10 -35 23 -46 42 -54 47 -85 47 -16 0 -30 5 -30 10 0 6 -25 10 -55 10
-30 0 -55 5 -55 10 0 6 -9 10 -20 10 -19 0 -29 6 -65 38 -7 6 -17 12 -22 12
-5 0 -15 9 -23 20 -8 11 -19 20 -25 20 -6 0 -22 11 -37 25 -15 14 -33 25 -40
25 -8 0 -20 9 -28 20 -15 21 -80 29 -80 10 0 -5 -6 -10 -13 -10 -7 0 -19 -9
-27 -20 -8 -11 -20 -20 -28 -20 -7 0 -23 -11 -36 -25 -13 -14 -31 -25 -40 -25
-9 0 -16 -4 -16 -8 0 -4 -15 -16 -32 -27 -18 -10 -40 -27 -49 -37 -9 -10 -23
-18 -32 -18 -8 0 -17 -3 -19 -7 -1 -5 -21 -17 -42 -28 -68 -35 -76 -40 -76
-47 0 -5 -9 -8 -20 -8 -11 0 -20 -4 -20 -10 0 -5 -7 -10 -15 -10 -8 0 -15 -4
-15 -10 0 -5 -9 -10 -20 -10 -11 0 -20 -4 -20 -10 0 -5 -11 -12 -25 -16 -14
-3 -25 -10 -25 -15 0 -5 -9 -9 -19 -9 -11 0 -21 -6 -24 -12 -3 -9 -11 -6 -24
10 -11 12 -23 22 -27 22 -7 0 -24 13 -61 47 -13 13 -27 23 -30 23 -7 0 -24 14
-60 48 -13 12 -27 22 -30 22 -3 0 -17 10 -30 23 -38 35 -54 47 -62 47 -5 0
-15 9 -23 20 -8 11 -18 20 -22 20 -16 0 -118 94 -118 108 0 6 -11 19 -25 30
-14 11 -25 23 -25 27 0 4 -12 18 -28 31 -28 24 -62 32 -62 14 0 -5 -7 -10 -15
-10 -8 0 -15 -4 -15 -10 0 -5 -13 -10 -29 -10 -16 0 -31 -6 -34 -12 -5 -16
-110 -14 -115 2 -2 5 -17 10 -33 10 -16 0 -29 5 -29 10 0 6 -6 10 -14 10 -7 0
-19 7 -26 15 -7 8 -21 15 -31 15 -11 0 -19 5 -19 10 0 6 -20 10 -45 10 -25 0
-45 -4 -45 -10 0 -5 -6 -10 -14 -10 -18 0 -76 -32 -76 -42 0 -5 -13 -8 -30 -8
-16 0 -30 5 -30 10 0 6 9 10 20 10 11 0 20 4 20 9 0 5 9 13 20 16 30 10 24 25
-10 25 -16 0 -30 5 -30 10 0 6 -11 10 -25 10 -14 0 -25 5 -25 10 0 6 -14 10
-31 10 -30 0 -59 19 -59 39 0 14 37 14 45 1 3 -5 14 -10 23 -10 9 0 30 -7 46
-15 15 -8 37 -15 47 -15 11 0 19 -4 19 -10 0 -5 25 -10 55 -10 30 0 55 4 55 9
0 5 -20 17 -45 28 -25 10 -45 21 -45 26 0 4 -11 7 -25 7 -14 0 -25 5 -25 10 0
6 -13 10 -30 10 -16 0 -30 5 -30 10 0 6 -8 10 -18 10 -19 0 -54 35 -45 44 10
10 43 7 43 -4 0 -5 8 -10 18 -10 10 0 27 -7 38 -15 10 -8 27 -15 37 -15 9 0
17 -4 17 -10 0 -5 16 -10 35 -10 19 0 35 -4 35 -10 0 -5 9 -10 20 -10 11 0 20
-4 20 -10 0 -5 16 -12 35 -16 19 -3 35 -10 35 -15 0 -5 9 -9 20 -9 11 0 20 -4
20 -10 0 -5 11 -10 25 -10 14 0 25 -4 25 -10 0 -5 9 -10 19 -10 11 0 41 -11
67 -25 47 -25 94 -33 94 -16 0 5 -11 12 -25 15 -14 4 -25 11 -25 16 0 6 -9 10
-20 10 -11 0 -20 5 -20 10 0 6 -11 10 -25 10 -14 0 -25 5 -25 10 0 6 -9 10
-20 10 -11 0 -20 4 -20 9 0 5 -13 12 -30 16 -16 4 -32 11 -35 16 -4 5 -15 9
-26 9 -10 0 -19 5 -19 10 0 6 -9 10 -20 10 -11 0 -20 4 -20 8 0 4 -23 16 -50
27 -28 11 -50 23 -50 27 0 4 -9 8 -20 8 -11 0 -20 5 -20 10 0 6 -11 10 -25 10
-14 0 -25 5 -25 10 0 6 -9 10 -20 10 -15 0 -20 7 -20 25 0 14 5 25 10 25 6 0
10 -3 10 -7 0 -5 20 -17 45 -28 25 -11 45 -23 45 -27 0 -5 14 -8 30 -8 17 0
30 -4 30 -8 0 -4 22 -16 50 -27 27 -11 50 -23 50 -27 0 -4 9 -8 20 -8 11 0 20
-4 20 -10 0 -5 11 -10 25 -10 14 0 25 -4 25 -10 0 -5 9 -10 20 -10 11 0 20 -4
20 -8 0 -4 22 -16 50 -27 28 -11 50 -23 50 -27 0 -4 9 -8 20 -8 11 0 20 -4 20
-10 0 -5 11 -10 25 -10 14 0 25 -4 25 -10 0 -5 9 -10 20 -10 20 0 20 0 0 20
-11 11 -27 20 -35 20 -8 0 -15 5 -15 10 0 6 -9 10 -20 10 -11 0 -20 4 -20 9 0
5 -11 12 -25 15 -14 4 -25 11 -25 16 0 6 -9 10 -20 10 -11 0 -20 5 -20 10 0 6
-7 10 -15 10 -8 0 -15 5 -15 10 0 6 -6 10 -14 10 -18 0 -76 32 -76 43 0 4 -9
7 -20 7 -11 0 -20 5 -20 10 0 6 -9 10 -20 10 -11 0 -20 5 -20 10 0 6 -7 10
-15 10 -8 0 -15 4 -15 9 0 5 -11 12 -25 15 -14 4 -25 11 -25 16 0 6 -9 10 -20
10 -11 0 -20 5 -20 10 0 6 -9 10 -20 10 -11 0 -20 5 -20 10 0 6 -7 10 -15 10
-15 0 -21 21 -8 33 6 7 76 -31 81 -45 2 -4 15 -8 28 -8 13 0 24 -3 24 -7 0 -5
25 -21 55 -37 30 -16 55 -32 55 -37 0 -5 11 -9 25 -9 14 0 25 -4 25 -10 0 -5
9 -10 20 -10 11 0 20 -4 20 -10 0 -5 11 -12 25 -16 14 -3 25 -10 25 -15 0 -5
9 -9 20 -9 11 0 20 -4 20 -10 0 -5 9 -10 20 -10 11 0 20 -4 20 -10 0 -5 7 -10
15 -10 8 0 15 -4 15 -8 0 -5 20 -17 45 -28 25 -10 45 -22 45 -26 0 -4 9 -8 20
-8 11 0 20 -3 20 -7 0 -5 20 -16 45 -26 25 -11 45 -23 45 -28 0 -5 7 -9 15 -9
8 0 15 -4 15 -10 0 -5 9 -10 20 -10 11 0 20 -4 20 -10 0 -5 7 -10 15 -10 16 0
65 -28 76 -43 9 -13 49 24 49 45 0 10 -4 18 -10 18 -5 0 -41 30 -80 68 -91 88
-118 112 -126 112 -3 0 -25 20 -50 45 -24 25 -48 45 -54 45 -6 0 -30 20 -54
45 -25 25 -50 45 -56 45 -7 0 -27 16 -46 35 -18 19 -37 35 -43 35 -6 0 -11 5
-11 10 0 6 -7 10 -15 10 -8 0 -15 5 -15 10 0 6 7 10 15 10 8 0 15 -4 15 -10 0
-5 7 -10 15 -10 8 0 15 -4 15 -10 0 -5 9 -10 20 -10 11 0 20 -4 20 -8 0 -5 16
-17 35 -28 19 -10 35 -22 35 -26 0 -5 7 -8 15 -8 8 0 15 -4 15 -10 0 -5 9 -10
20 -10 11 0 20 -3 20 -7 0 -11 58 -43 76 -43 8 0 14 -4 14 -10 0 -5 7 -10 15
-10 8 0 15 -4 15 -10 0 -5 9 -10 20 -10 11 0 20 -3 20 -7 0 -11 58 -43 76 -43
8 0 14 -4 14 -10 0 -5 9 -10 20 -10 11 0 20 -3 20 -7 0 -5 20 -16 45 -26 25
-11 45 -23 45 -28 0 -17 35 -9 53 11 17 20 16 22 -7 45 -14 14 -28 25 -31 25
-10 0 -35 28 -35 39 0 6 -5 11 -10 11 -11 0 -26 13 -95 78 -19 17 -37 32 -40
32 -4 0 -26 20 -49 45 -24 25 -51 45 -60 45 -9 0 -16 6 -16 13 0 7 -12 21 -27
32 -15 11 -53 46 -86 78 -33 31 -64 57 -68 57 -5 0 -34 25 -64 55 -29 30 -56
55 -60 55 -3 0 -16 10 -29 23 -13 12 -33 29 -45 37 -28 19 -29 50 -1 43 11 -3
20 -12 20 -19 0 -8 4 -14 10 -14 10 0 45 -27 86 -67 13 -13 26 -23 29 -23 5 0
18 -11 80 -67 13 -13 27 -23 30 -23 3 0 32 -26 65 -57 82 -80 108 -103 116
-103 3 0 19 -13 34 -30 15 -16 34 -30 41 -30 7 0 -4 15 -24 34 -20 18 -37 37
-37 41 0 8 -26 35 -35 35 -8 0 -55 47 -55 55 0 8 -27 35 -34 35 -3 0 -68 63
-146 141 -113 114 -138 144 -130 157 5 10 10 12 10 5 0 -7 4 -13 10 -13 5 0
61 -51 124 -112 129 -129 162 -158 176 -158 6 0 10 -5 10 -10 0 -14 66 -80 80
-80 5 0 10 -5 10 -10 0 -12 65 -80 76 -80 4 0 17 -12 30 -27 13 -16 24 -22 24
-15 0 7 -29 43 -65 78 -36 36 -65 67 -65 70 0 6 -28 37 -112 124 -38 39 -68
73 -68 76 0 3 -20 25 -45 50 -25 24 -45 46 -45 49 0 3 -20 25 -45 49 -47 46
-56 66 -30 66 16 0 77 -58 119 -115 17 -21 74 -83 128 -137 54 -55 98 -101 98
-103 0 -3 10 -17 23 -31 50 -59 76 -84 86 -84 6 0 11 -5 11 -12 0 -6 3 -9 6
-6 7 7 -14 45 -41 73 -11 12 -29 34 -40 49 -11 16 -30 39 -42 52 -13 13 -23
26 -23 29 0 10 -28 35 -39 35 -6 0 -11 7 -11 15 0 8 -4 15 -10 15 -5 0 -10 7
-10 16 0 8 -20 35 -45 58 -25 24 -45 49 -45 56 0 6 -20 31 -45 56 -25 24 -45
50 -45 59 0 8 -4 15 -10 15 -5 0 -10 7 -10 15 0 22 16 18 42 -10 13 -14 33
-36 45 -50 13 -13 23 -27 23 -30 0 -3 10 -17 23 -30 32 -35 47 -53 47 -60 0
-3 18 -24 40 -46 22 -23 40 -45 40 -49 0 -4 12 -21 28 -37 15 -17 36 -42 47
-58 11 -15 30 -38 43 -51 12 -13 22 -26 22 -29 0 -10 28 -35 39 -35 6 0 11 -7
11 -15 0 -8 5 -15 10 -15 6 0 10 -7 10 -15 0 -8 5 -15 10 -15 6 0 10 -7 10
-15 0 -8 6 -15 13 -15 8 0 20 -11 27 -25 7 -14 17 -25 22 -25 4 0 8 -7 8 -15
0 -21 98 -115 119 -115 11 0 21 7 25 15 6 18 -12 75 -25 75 -5 0 -9 9 -9 20 0
11 -4 20 -10 20 -5 0 -10 11 -10 25 0 14 -4 25 -10 25 -5 0 -10 6 -10 14 0 18
-32 76 -42 76 -5 0 -8 9 -8 20 0 11 -4 20 -10 20 -5 0 -10 11 -10 25 0 14 -3
25 -8 25 -4 0 -16 20 -27 45 -11 25 -23 45 -27 45 -5 0 -8 7 -8 15 0 8 -4 15
-10 15 -5 0 -10 9 -10 20 0 11 -4 20 -10 20 -5 0 -10 9 -10 20 0 11 -3 20 -8
20 -4 0 -16 16 -26 35 -11 19 -23 35 -28 35 -4 0 -8 9 -8 20 0 26 12 25 30 -1
8 -12 21 -27 28 -35 6 -7 12 -17 12 -23 0 -6 5 -11 10 -11 6 0 10 -7 10 -15 0
-8 16 -32 35 -52 19 -20 35 -41 35 -46 0 -4 10 -18 23 -31 12 -12 31 -35 42
-50 11 -16 30 -39 43 -52 12 -13 22 -26 22 -29 0 -3 10 -17 23 -30 33 -35 47
-53 47 -60 0 -3 23 -28 51 -56 49 -49 51 -50 74 -35 21 14 23 19 14 46 -6 16
-15 30 -20 30 -5 0 -9 9 -9 20 0 11 -4 20 -10 20 -5 0 -10 11 -10 25 0 14 -4
25 -8 25 -4 0 -16 20 -26 45 -11 25 -23 45 -28 45 -4 0 -8 9 -8 20 0 11 -4 20
-10 20 -5 0 -10 11 -10 25 0 14 -4 25 -10 25 -5 0 -10 6 -10 14 0 7 -7 19 -15
26 -8 7 -15 21 -15 31 0 11 -4 19 -10 19 -5 0 -10 9 -10 20 0 11 -4 20 -10 20
-5 0 -10 11 -10 25 0 14 -4 25 -10 25 -5 0 -10 6 -10 14 0 7 -7 19 -15 26 -8
7 -15 21 -15 31 0 11 -4 19 -10 19 -5 0 -10 7 -10 15 0 8 -4 15 -10 15 -5 0
-10 9 -10 20 0 11 -4 20 -10 20 -5 0 -10 11 -10 25 0 14 -4 25 -9 25 -5 0 -17
20 -28 45 -10 25 -21 45 -25 45 -5 0 -8 9 -8 20 0 11 -4 20 -10 20 -5 0 -10
16 -10 35 0 19 5 35 10 35 6 0 10 -7 10 -15 0 -8 5 -15 10 -15 6 0 10 -9 10
-20 0 -11 3 -20 8 -20 4 0 16 -20 27 -45 11 -25 23 -45 27 -45 5 0 8 -11 8
-25 0 -14 5 -25 10 -25 6 0 10 -9 10 -20 0 -11 3 -20 8 -20 10 0 42 -58 42
-76 0 -8 5 -14 10 -14 6 0 10 -9 10 -20 0 -11 5 -20 10 -20 6 0 10 -11 10 -25
0 -14 3 -25 8 -25 10 0 42 -58 42 -76 0 -8 5 -14 10 -14 6 0 10 -9 10 -20 0
-11 4 -20 8 -20 5 0 13 -12 19 -27 l11 -28 1 28 c1 15 -3 27 -9 27 -5 0 -10
14 -10 30 0 17 -4 30 -10 30 -5 0 -10 11 -10 25 0 14 -4 25 -10 25 -5 0 -10 9
-10 19 0 11 -3 21 -7 23 -11 4 -43 75 -43 93 0 8 -4 15 -10 15 -5 0 -10 11
-10 25 0 14 -4 25 -10 25 -5 0 -10 8 -10 18 0 9 -7 26 -15 36 -8 11 -15 28
-15 38 0 10 -4 18 -10 18 -5 0 -10 11 -10 25 0 14 -4 25 -10 25 -5 0 -10 11
-10 24 0 13 -4 26 -8 28 -14 5 -24 58 -11 58 16 0 39 -26 39 -45 0 -9 7 -23
15 -31 8 -9 15 -24 15 -34 0 -10 5 -22 10 -25 6 -3 10 -15 10 -26 0 -10 5 -19
10 -19 6 0 10 -11 10 -25 0 -14 5 -25 10 -25 6 0 10 -9 10 -20 0 -11 5 -20 10
-20 6 0 10 -8 10 -18 0 -10 7 -27 15 -38 8 -10 15 -27 15 -36 0 -10 5 -18 10
-18 6 0 10 -11 10 -25 0 -14 5 -25 10 -25 6 0 10 -7 10 -17 0 -22 32 -93 42
-93 4 0 8 -11 8 -25 0 -14 5 -25 10 -25 6 0 10 -13 10 -30 0 -16 5 -30 10 -30
6 0 10 14 10 30 0 17 -4 30 -10 30 -5 0 -10 16 -10 35 0 19 -4 35 -10 35 -5 0
-10 11 -10 25 0 14 -4 25 -10 25 -5 0 -10 8 -10 18 0 10 -7 27 -15 38 -8 10
-15 27 -15 37 0 9 -4 17 -10 17 -5 0 -10 16 -10 35 0 19 -4 35 -10 35 -5 0
-10 7 -10 15 0 8 -11 40 -25 71 -14 31 -25 65 -25 75 0 11 -4 19 -10 19 -5 0
-10 14 -10 30 0 17 -4 30 -10 30 -5 0 -10 11 -10 25 0 14 -4 25 -10 25 -5 0
-10 9 -10 20 0 13 7 20 20 20 13 0 20 -7 20 -20 0 -11 5 -20 10 -20 6 0 10
-11 10 -24 0 -13 8 -39 17 -58 30 -60 33 -68 33 -83 0 -8 5 -15 10 -15 6 0 10
-16 10 -35 0 -19 5 -35 10 -35 6 0 10 -7 10 -15 0 -8 11 -40 25 -71 14 -31 25
-65 25 -75 0 -11 5 -19 10 -19 6 0 10 -13 10 -30 0 -16 5 -30 10 -30 6 0 10
-11 10 -25 0 -14 5 -25 10 -25 6 0 10 16 10 35 0 19 -4 35 -10 35 -5 0 -10 16
-10 35 0 19 -4 35 -10 35 -5 0 -10 14 -10 30 0 17 -4 30 -10 30 -5 0 -10 16
-10 35 0 19 -4 35 -9 35 -5 0 -12 20 -15 45 -4 25 -11 45 -17 45 -5 0 -9 16
-9 35 0 19 -4 35 -10 35 -5 0 -10 16 -10 35 0 19 -4 35 -9 35 -5 0 -11 15 -14
33 -3 17 -8 42 -12 55 -6 18 -4 22 14 22 17 0 21 -6 21 -35 0 -19 4 -35 9 -35
5 0 11 -12 14 -27 5 -30 24 -87 38 -115 5 -10 9 -29 9 -43 0 -14 5 -25 10 -25
6 0 10 -18 10 -40 0 -22 5 -40 10 -40 6 0 10 -10 10 -22 1 -13 7 -34 15 -48 8
-14 14 -35 15 -47 0 -13 5 -23 10 -23 6 0 10 -16 10 -35 0 -19 5 -35 10 -35 6
0 10 -16 10 -35 0 -19 5 -35 10 -35 6 0 10 -10 10 -21 0 -26 32 -123 43 -127
4 -2 7 -19 7 -38 0 -19 5 -34 10 -34 6 0 10 -14 10 -31 0 -17 6 -37 14 -45 19
-18 56 -18 56 0 0 8 6 17 13 19 9 4 9 8 1 14 -7 5 -14 59 -17 138 -4 72 -13
184 -22 250 -9 66 -19 153 -22 193 -2 39 -9 72 -14 72 -5 0 -9 9 -9 20 0 11 5
20 10 20 6 0 10 -9 10 -20 0 -11 5 -20 10 -20 6 0 10 -11 10 -25 0 -14 7 -42
15 -62 8 -19 15 -48 15 -64 0 -16 5 -29 10 -29 6 0 10 -20 10 -45 0 -25 5 -45
10 -45 6 0 10 -13 10 -29 0 -17 4 -32 9 -35 5 -4 12 -24 16 -46 4 -22 11 -42
16 -46 5 -3 9 -18 9 -35 0 -16 5 -29 10 -29 6 0 10 -16 10 -35 0 -19 5 -35 10
-35 6 0 10 -9 10 -20 0 -10 5 -31 12 -45 9 -19 19 -25 45 -25 l33 0 0 55 c0
30 -4 55 -10 55 -6 0 -10 52 -10 135 0 83 -4 135 -10 135 -6 0 -10 38 -10 93
0 51 -4 118 -9 148 -6 30 -15 115 -21 189 -6 74 -13 150 -17 168 -4 27 -2 32
15 32 11 0 23 -7 26 -16z m-1754 -1524 c0 -5 -9 -10 -20 -10 -11 0 -20 5 -20
10 0 6 9 10 20 10 11 0 20 -4 20 -10z m-53 -26 c-3 -3 -12 -4 -19 -1 -8 3 -5
6 6 6 11 1 17 -2 13 -5z"/>
<path d="M1761 2844 c0 -11 3 -14 6 -6 3 7 2 16 -1 19 -3 4 -6 -2 -5 -13z"/>
<path d="M1741 2754 c0 -11 3 -14 6 -6 3 7 2 16 -1 19 -3 4 -6 -2 -5 -13z"/>
<path d="M3265 2460 c3 -5 8 -10 11 -10 2 0 4 5 4 10 0 6 -5 10 -11 10 -5 0
-7 -4 -4 -10z"/>
<path d="M3240 2440 c0 -5 5 -10 10 -10 6 0 10 5 10 10 0 6 -4 10 -10 10 -5 0
-10 -4 -10 -10z"/>
<path d="M3850 2060 c0 -5 -14 -10 -31 -10 -17 0 -37 -7 -45 -15 -9 -8 -24
-15 -34 -15 -10 0 -22 -4 -25 -10 -3 -5 -19 -10 -36 -10 -22 0 -29 -5 -29 -20
0 -17 7 -20 45 -20 25 0 45 5 45 10 0 6 8 10 18 10 10 0 24 9 32 20 8 11 19
20 26 20 12 0 54 34 54 44 0 3 -4 6 -10 6 -5 0 -10 -4 -10 -10z"/>
</g>
</svg>
